<?xml version="1.0" encoding="utf-8" standalone="no"?>
<!DOCTYPE svg PUBLIC "-//W3C//DTD SVG 1.1//EN"
  "http://www.w3.org/Graphics/SVG/1.1/DTD/svg11.dtd">
<svg height="345.6pt" version="1.1" viewBox="0 0 460.8 345.6" width="460.8pt" xmlns="http://www.w3.org/2000/svg" xmlns:xlink="http://www.w3.org/1999/xlink">
 <metadata>
  <rdf:RDF xmlns:cc="http://creativecommons.org/ns#" xmlns:dc="http://purl.org/dc/elements/1.1/" xmlns:rdf="http://www.w3.org/1999/02/22-rdf-syntax-ns#">
   <cc:Work>
    <dc:type rdf:resource="http://purl.org/dc/dcmitype/StillImage"/>
    <dc:date>2021-09-22T14:17:28.041768</dc:date>
    <dc:format>image/svg+xml</dc:format>
    <dc:creator>
     <cc:Agent>
      <dc:title>Matplotlib v3.4.1, https://matplotlib.org/</dc:title>
     </cc:Agent>
    </dc:creator>
   </cc:Work>
  </rdf:RDF>
 </metadata>
 <defs>
  <style type="text/css">*{stroke-linecap:butt;stroke-linejoin:round;}</style>
 </defs>
 <g id="figure_1">
  <g id="patch_1">
   <path d="M 0 345.6 
L 460.8 345.6 
L 460.8 0 
L 0 0 
z
" style="fill:#ffffff;"/>
  </g>
  <g id="axes_1">
   <g id="patch_2">
    <path d="M 57.6 307.584 
L 414.72 307.584 
L 414.72 41.472 
L 57.6 41.472 
z
" style="fill:#ffffff;"/>
   </g>
   <g id="patch_3">
    <path clip-path="url(#p6fbc5a28d7)" d="M 73.832727 307.584 
L 77.079273 307.584 
L 77.079273 306.678857 
L 73.832727 306.678857 
z
" style="fill:#ff0000;opacity:0.2;"/>
   </g>
   <g id="patch_4">
    <path clip-path="url(#p6fbc5a28d7)" d="M 77.079273 307.584 
L 80.325818 307.584 
L 80.325818 307.584 
L 77.079273 307.584 
z
" style="fill:#ff0000;opacity:0.2;"/>
   </g>
   <g id="patch_5">
    <path clip-path="url(#p6fbc5a28d7)" d="M 80.325818 307.584 
L 83.572364 307.584 
L 83.572364 307.584 
L 80.325818 307.584 
z
" style="fill:#ff0000;opacity:0.2;"/>
   </g>
   <g id="patch_6">
    <path clip-path="url(#p6fbc5a28d7)" d="M 83.572364 307.584 
L 86.818909 307.584 
L 86.818909 306.678857 
L 83.572364 306.678857 
z
" style="fill:#ff0000;opacity:0.2;"/>
   </g>
   <g id="patch_7">
    <path clip-path="url(#p6fbc5a28d7)" d="M 86.818909 307.584 
L 90.065455 307.584 
L 90.065455 307.584 
L 86.818909 307.584 
z
" style="fill:#ff0000;opacity:0.2;"/>
   </g>
   <g id="patch_8">
    <path clip-path="url(#p6fbc5a28d7)" d="M 90.065455 307.584 
L 93.312 307.584 
L 93.312 307.584 
L 90.065455 307.584 
z
" style="fill:#ff0000;opacity:0.2;"/>
   </g>
   <g id="patch_9">
    <path clip-path="url(#p6fbc5a28d7)" d="M 93.312 307.584 
L 96.558545 307.584 
L 96.558545 305.773714 
L 93.312 305.773714 
z
" style="fill:#ff0000;opacity:0.2;"/>
   </g>
   <g id="patch_10">
    <path clip-path="url(#p6fbc5a28d7)" d="M 96.558545 307.584 
L 99.805091 307.584 
L 99.805091 307.584 
L 96.558545 307.584 
z
" style="fill:#ff0000;opacity:0.2;"/>
   </g>
   <g id="patch_11">
    <path clip-path="url(#p6fbc5a28d7)" d="M 99.805091 307.584 
L 103.051636 307.584 
L 103.051636 307.584 
L 99.805091 307.584 
z
" style="fill:#ff0000;opacity:0.2;"/>
   </g>
   <g id="patch_12">
    <path clip-path="url(#p6fbc5a28d7)" d="M 103.051636 307.584 
L 106.298182 307.584 
L 106.298182 306.678857 
L 103.051636 306.678857 
z
" style="fill:#ff0000;opacity:0.2;"/>
   </g>
   <g id="patch_13">
    <path clip-path="url(#p6fbc5a28d7)" d="M 106.298182 307.584 
L 109.544727 307.584 
L 109.544727 305.773714 
L 106.298182 305.773714 
z
" style="fill:#ff0000;opacity:0.2;"/>
   </g>
   <g id="patch_14">
    <path clip-path="url(#p6fbc5a28d7)" d="M 109.544727 307.584 
L 112.791273 307.584 
L 112.791273 307.584 
L 109.544727 307.584 
z
" style="fill:#ff0000;opacity:0.2;"/>
   </g>
   <g id="patch_15">
    <path clip-path="url(#p6fbc5a28d7)" d="M 112.791273 307.584 
L 116.037818 307.584 
L 116.037818 304.868571 
L 112.791273 304.868571 
z
" style="fill:#ff0000;opacity:0.2;"/>
   </g>
   <g id="patch_16">
    <path clip-path="url(#p6fbc5a28d7)" d="M 116.037818 307.584 
L 119.284364 307.584 
L 119.284364 307.584 
L 116.037818 307.584 
z
" style="fill:#ff0000;opacity:0.2;"/>
   </g>
   <g id="patch_17">
    <path clip-path="url(#p6fbc5a28d7)" d="M 119.284364 307.584 
L 122.530909 307.584 
L 122.530909 306.678857 
L 119.284364 306.678857 
z
" style="fill:#ff0000;opacity:0.2;"/>
   </g>
   <g id="patch_18">
    <path clip-path="url(#p6fbc5a28d7)" d="M 122.530909 307.584 
L 125.777455 307.584 
L 125.777455 304.868571 
L 122.530909 304.868571 
z
" style="fill:#ff0000;opacity:0.2;"/>
   </g>
   <g id="patch_19">
    <path clip-path="url(#p6fbc5a28d7)" d="M 125.777455 307.584 
L 129.024 307.584 
L 129.024 302.153143 
L 125.777455 302.153143 
z
" style="fill:#ff0000;opacity:0.2;"/>
   </g>
   <g id="patch_20">
    <path clip-path="url(#p6fbc5a28d7)" d="M 129.024 307.584 
L 132.270545 307.584 
L 132.270545 301.248 
L 129.024 301.248 
z
" style="fill:#ff0000;opacity:0.2;"/>
   </g>
   <g id="patch_21">
    <path clip-path="url(#p6fbc5a28d7)" d="M 132.270545 307.584 
L 135.517091 307.584 
L 135.517091 305.773714 
L 132.270545 305.773714 
z
" style="fill:#ff0000;opacity:0.2;"/>
   </g>
   <g id="patch_22">
    <path clip-path="url(#p6fbc5a28d7)" d="M 135.517091 307.584 
L 138.763636 307.584 
L 138.763636 302.153143 
L 135.517091 302.153143 
z
" style="fill:#ff0000;opacity:0.2;"/>
   </g>
   <g id="patch_23">
    <path clip-path="url(#p6fbc5a28d7)" d="M 138.763636 307.584 
L 142.010182 307.584 
L 142.010182 304.868571 
L 138.763636 304.868571 
z
" style="fill:#ff0000;opacity:0.2;"/>
   </g>
   <g id="patch_24">
    <path clip-path="url(#p6fbc5a28d7)" d="M 142.010182 307.584 
L 145.256727 307.584 
L 145.256727 306.678857 
L 142.010182 306.678857 
z
" style="fill:#ff0000;opacity:0.2;"/>
   </g>
   <g id="patch_25">
    <path clip-path="url(#p6fbc5a28d7)" d="M 145.256727 307.584 
L 148.503273 307.584 
L 148.503273 302.153143 
L 145.256727 302.153143 
z
" style="fill:#ff0000;opacity:0.2;"/>
   </g>
   <g id="patch_26">
    <path clip-path="url(#p6fbc5a28d7)" d="M 148.503273 307.584 
L 151.749818 307.584 
L 151.749818 297.627429 
L 148.503273 297.627429 
z
" style="fill:#ff0000;opacity:0.2;"/>
   </g>
   <g id="patch_27">
    <path clip-path="url(#p6fbc5a28d7)" d="M 151.749818 307.584 
L 154.996364 307.584 
L 154.996364 294.912 
L 151.749818 294.912 
z
" style="fill:#ff0000;opacity:0.2;"/>
   </g>
   <g id="patch_28">
    <path clip-path="url(#p6fbc5a28d7)" d="M 154.996364 307.584 
L 158.242909 307.584 
L 158.242909 295.817143 
L 154.996364 295.817143 
z
" style="fill:#ff0000;opacity:0.2;"/>
   </g>
   <g id="patch_29">
    <path clip-path="url(#p6fbc5a28d7)" d="M 158.242909 307.584 
L 161.489455 307.584 
L 161.489455 294.006857 
L 158.242909 294.006857 
z
" style="fill:#ff0000;opacity:0.2;"/>
   </g>
   <g id="patch_30">
    <path clip-path="url(#p6fbc5a28d7)" d="M 161.489455 307.584 
L 164.736 307.584 
L 164.736 297.627429 
L 161.489455 297.627429 
z
" style="fill:#ff0000;opacity:0.2;"/>
   </g>
   <g id="patch_31">
    <path clip-path="url(#p6fbc5a28d7)" d="M 164.736 307.584 
L 167.982545 307.584 
L 167.982545 294.912 
L 164.736 294.912 
z
" style="fill:#ff0000;opacity:0.2;"/>
   </g>
   <g id="patch_32">
    <path clip-path="url(#p6fbc5a28d7)" d="M 167.982545 307.584 
L 171.229091 307.584 
L 171.229091 301.248 
L 167.982545 301.248 
z
" style="fill:#ff0000;opacity:0.2;"/>
   </g>
   <g id="patch_33">
    <path clip-path="url(#p6fbc5a28d7)" d="M 171.229091 307.584 
L 174.475636 307.584 
L 174.475636 294.006857 
L 171.229091 294.006857 
z
" style="fill:#ff0000;opacity:0.2;"/>
   </g>
   <g id="patch_34">
    <path clip-path="url(#p6fbc5a28d7)" d="M 174.475636 307.584 
L 177.722182 307.584 
L 177.722182 283.145143 
L 174.475636 283.145143 
z
" style="fill:#ff0000;opacity:0.2;"/>
   </g>
   <g id="patch_35">
    <path clip-path="url(#p6fbc5a28d7)" d="M 177.722182 307.584 
L 180.968727 307.584 
L 180.968727 286.765714 
L 177.722182 286.765714 
z
" style="fill:#ff0000;opacity:0.2;"/>
   </g>
   <g id="patch_36">
    <path clip-path="url(#p6fbc5a28d7)" d="M 180.968727 307.584 
L 184.215273 307.584 
L 184.215273 276.809143 
L 180.968727 276.809143 
z
" style="fill:#ff0000;opacity:0.2;"/>
   </g>
   <g id="patch_37">
    <path clip-path="url(#p6fbc5a28d7)" d="M 184.215273 307.584 
L 187.461818 307.584 
L 187.461818 278.619429 
L 184.215273 278.619429 
z
" style="fill:#ff0000;opacity:0.2;"/>
   </g>
   <g id="patch_38">
    <path clip-path="url(#p6fbc5a28d7)" d="M 187.461818 307.584 
L 190.708364 307.584 
L 190.708364 289.481143 
L 187.461818 289.481143 
z
" style="fill:#ff0000;opacity:0.2;"/>
   </g>
   <g id="patch_39">
    <path clip-path="url(#p6fbc5a28d7)" d="M 190.708364 307.584 
L 193.954909 307.584 
L 193.954909 255.990857 
L 190.708364 255.990857 
z
" style="fill:#ff0000;opacity:0.2;"/>
   </g>
   <g id="patch_40">
    <path clip-path="url(#p6fbc5a28d7)" d="M 193.954909 307.584 
L 197.201455 307.584 
L 197.201455 276.809143 
L 193.954909 276.809143 
z
" style="fill:#ff0000;opacity:0.2;"/>
   </g>
   <g id="patch_41">
    <path clip-path="url(#p6fbc5a28d7)" d="M 197.201455 307.584 
L 200.448 307.584 
L 200.448 271.378286 
L 197.201455 271.378286 
z
" style="fill:#ff0000;opacity:0.2;"/>
   </g>
   <g id="patch_42">
    <path clip-path="url(#p6fbc5a28d7)" d="M 200.448 307.584 
L 203.694545 307.584 
L 203.694545 261.421714 
L 200.448 261.421714 
z
" style="fill:#ff0000;opacity:0.2;"/>
   </g>
   <g id="patch_43">
    <path clip-path="url(#p6fbc5a28d7)" d="M 203.694545 307.584 
L 206.941091 307.584 
L 206.941091 247.844571 
L 203.694545 247.844571 
z
" style="fill:#ff0000;opacity:0.2;"/>
   </g>
   <g id="patch_44">
    <path clip-path="url(#p6fbc5a28d7)" d="M 206.941091 307.584 
L 210.187636 307.584 
L 210.187636 264.137143 
L 206.941091 264.137143 
z
" style="fill:#ff0000;opacity:0.2;"/>
   </g>
   <g id="patch_45">
    <path clip-path="url(#p6fbc5a28d7)" d="M 210.187636 307.584 
L 213.434182 307.584 
L 213.434182 267.757714 
L 210.187636 267.757714 
z
" style="fill:#ff0000;opacity:0.2;"/>
   </g>
   <g id="patch_46">
    <path clip-path="url(#p6fbc5a28d7)" d="M 213.434182 307.584 
L 216.680727 307.584 
L 216.680727 246.034286 
L 213.434182 246.034286 
z
" style="fill:#ff0000;opacity:0.2;"/>
   </g>
   <g id="patch_47">
    <path clip-path="url(#p6fbc5a28d7)" d="M 216.680727 307.584 
L 219.927273 307.584 
L 219.927273 254.180571 
L 216.680727 254.180571 
z
" style="fill:#ff0000;opacity:0.2;"/>
   </g>
   <g id="patch_48">
    <path clip-path="url(#p6fbc5a28d7)" d="M 219.927273 307.584 
L 223.173818 307.584 
L 223.173818 258.706286 
L 219.927273 258.706286 
z
" style="fill:#ff0000;opacity:0.2;"/>
   </g>
   <g id="patch_49">
    <path clip-path="url(#p6fbc5a28d7)" d="M 223.173818 307.584 
L 226.420364 307.584 
L 226.420364 217.069714 
L 223.173818 217.069714 
z
" style="fill:#ff0000;opacity:0.2;"/>
   </g>
   <g id="patch_50">
    <path clip-path="url(#p6fbc5a28d7)" d="M 226.420364 307.584 
L 229.666909 307.584 
L 229.666909 251.465143 
L 226.420364 251.465143 
z
" style="fill:#ff0000;opacity:0.2;"/>
   </g>
   <g id="patch_51">
    <path clip-path="url(#p6fbc5a28d7)" d="M 229.666909 307.584 
L 232.913455 307.584 
L 232.913455 246.939429 
L 229.666909 246.939429 
z
" style="fill:#ff0000;opacity:0.2;"/>
   </g>
   <g id="patch_52">
    <path clip-path="url(#p6fbc5a28d7)" d="M 232.913455 307.584 
L 236.16 307.584 
L 236.16 229.741714 
L 232.913455 229.741714 
z
" style="fill:#ff0000;opacity:0.2;"/>
   </g>
   <g id="patch_53">
    <path clip-path="url(#p6fbc5a28d7)" d="M 236.16 307.584 
L 239.406545 307.584 
L 239.406545 202.587429 
L 236.16 202.587429 
z
" style="fill:#ff0000;opacity:0.2;"/>
   </g>
   <g id="patch_54">
    <path clip-path="url(#p6fbc5a28d7)" d="M 239.406545 307.584 
L 242.653091 307.584 
L 242.653091 217.974857 
L 239.406545 217.974857 
z
" style="fill:#ff0000;opacity:0.2;"/>
   </g>
   <g id="patch_55">
    <path clip-path="url(#p6fbc5a28d7)" d="M 242.653091 307.584 
L 245.899636 307.584 
L 245.899636 232.457143 
L 242.653091 232.457143 
z
" style="fill:#ff0000;opacity:0.2;"/>
   </g>
   <g id="patch_56">
    <path clip-path="url(#p6fbc5a28d7)" d="M 245.899636 307.584 
L 249.146182 307.584 
L 249.146182 202.587429 
L 245.899636 202.587429 
z
" style="fill:#ff0000;opacity:0.2;"/>
   </g>
   <g id="patch_57">
    <path clip-path="url(#p6fbc5a28d7)" d="M 249.146182 307.584 
L 252.392727 307.584 
L 252.392727 220.690286 
L 249.146182 220.690286 
z
" style="fill:#ff0000;opacity:0.2;"/>
   </g>
   <g id="patch_58">
    <path clip-path="url(#p6fbc5a28d7)" d="M 252.392727 307.584 
L 255.639273 307.584 
L 255.639273 205.302857 
L 252.392727 205.302857 
z
" style="fill:#ff0000;opacity:0.2;"/>
   </g>
   <g id="patch_59">
    <path clip-path="url(#p6fbc5a28d7)" d="M 255.639273 307.584 
L 258.885818 307.584 
L 258.885818 179.053714 
L 255.639273 179.053714 
z
" style="fill:#ff0000;opacity:0.2;"/>
   </g>
   <g id="patch_60">
    <path clip-path="url(#p6fbc5a28d7)" d="M 258.885818 307.584 
L 262.132364 307.584 
L 262.132364 223.405714 
L 258.885818 223.405714 
z
" style="fill:#ff0000;opacity:0.2;"/>
   </g>
   <g id="patch_61">
    <path clip-path="url(#p6fbc5a28d7)" d="M 262.132364 307.584 
L 265.378909 307.584 
L 265.378909 198.966857 
L 262.132364 198.966857 
z
" style="fill:#ff0000;opacity:0.2;"/>
   </g>
   <g id="patch_62">
    <path clip-path="url(#p6fbc5a28d7)" d="M 265.378909 307.584 
L 268.625455 307.584 
L 268.625455 193.536 
L 265.378909 193.536 
z
" style="fill:#ff0000;opacity:0.2;"/>
   </g>
   <g id="patch_63">
    <path clip-path="url(#p6fbc5a28d7)" d="M 268.625455 307.584 
L 271.872 307.584 
L 271.872 158.235429 
L 268.625455 158.235429 
z
" style="fill:#ff0000;opacity:0.2;"/>
   </g>
   <g id="patch_64">
    <path clip-path="url(#p6fbc5a28d7)" d="M 271.872 307.584 
L 275.118545 307.584 
L 275.118545 186.294857 
L 271.872 186.294857 
z
" style="fill:#ff0000;opacity:0.2;"/>
   </g>
   <g id="patch_65">
    <path clip-path="url(#p6fbc5a28d7)" d="M 275.118545 307.584 
L 278.365091 307.584 
L 278.365091 177.243429 
L 275.118545 177.243429 
z
" style="fill:#ff0000;opacity:0.2;"/>
   </g>
   <g id="patch_66">
    <path clip-path="url(#p6fbc5a28d7)" d="M 278.365091 307.584 
L 281.611636 307.584 
L 281.611636 178.148571 
L 278.365091 178.148571 
z
" style="fill:#ff0000;opacity:0.2;"/>
   </g>
   <g id="patch_67">
    <path clip-path="url(#p6fbc5a28d7)" d="M 281.611636 307.584 
L 284.858182 307.584 
L 284.858182 168.192 
L 281.611636 168.192 
z
" style="fill:#ff0000;opacity:0.2;"/>
   </g>
   <g id="patch_68">
    <path clip-path="url(#p6fbc5a28d7)" d="M 284.858182 307.584 
L 288.104727 307.584 
L 288.104727 175.433143 
L 284.858182 175.433143 
z
" style="fill:#ff0000;opacity:0.2;"/>
   </g>
   <g id="patch_69">
    <path clip-path="url(#p6fbc5a28d7)" d="M 288.104727 307.584 
L 291.351273 307.584 
L 291.351273 142.848 
L 288.104727 142.848 
z
" style="fill:#ff0000;opacity:0.2;"/>
   </g>
   <g id="patch_70">
    <path clip-path="url(#p6fbc5a28d7)" d="M 291.351273 307.584 
L 294.597818 307.584 
L 294.597818 165.476571 
L 291.351273 165.476571 
z
" style="fill:#ff0000;opacity:0.2;"/>
   </g>
   <g id="patch_71">
    <path clip-path="url(#p6fbc5a28d7)" d="M 294.597818 307.584 
L 297.844364 307.584 
L 297.844364 165.476571 
L 294.597818 165.476571 
z
" style="fill:#ff0000;opacity:0.2;"/>
   </g>
   <g id="patch_72">
    <path clip-path="url(#p6fbc5a28d7)" d="M 297.844364 307.584 
L 301.090909 307.584 
L 301.090909 155.52 
L 297.844364 155.52 
z
" style="fill:#ff0000;opacity:0.2;"/>
   </g>
   <g id="patch_73">
    <path clip-path="url(#p6fbc5a28d7)" d="M 301.090909 307.584 
L 304.337455 307.584 
L 304.337455 114.788571 
L 301.090909 114.788571 
z
" style="fill:#ff0000;opacity:0.2;"/>
   </g>
   <g id="patch_74">
    <path clip-path="url(#p6fbc5a28d7)" d="M 304.337455 307.584 
L 307.584 307.584 
L 307.584 142.848 
L 304.337455 142.848 
z
" style="fill:#ff0000;opacity:0.2;"/>
   </g>
   <g id="patch_75">
    <path clip-path="url(#p6fbc5a28d7)" d="M 307.584 307.584 
L 310.830545 307.584 
L 310.830545 141.037714 
L 307.584 141.037714 
z
" style="fill:#ff0000;opacity:0.2;"/>
   </g>
   <g id="patch_76">
    <path clip-path="url(#p6fbc5a28d7)" d="M 310.830545 307.584 
L 314.077091 307.584 
L 314.077091 123.84 
L 310.830545 123.84 
z
" style="fill:#ff0000;opacity:0.2;"/>
   </g>
   <g id="patch_77">
    <path clip-path="url(#p6fbc5a28d7)" d="M 314.077091 307.584 
L 317.323636 307.584 
L 317.323636 143.753143 
L 314.077091 143.753143 
z
" style="fill:#ff0000;opacity:0.2;"/>
   </g>
   <g id="patch_78">
    <path clip-path="url(#p6fbc5a28d7)" d="M 317.323636 307.584 
L 320.570182 307.584 
L 320.570182 127.460571 
L 317.323636 127.460571 
z
" style="fill:#ff0000;opacity:0.2;"/>
   </g>
   <g id="patch_79">
    <path clip-path="url(#p6fbc5a28d7)" d="M 320.570182 307.584 
L 323.816727 307.584 
L 323.816727 98.496 
L 320.570182 98.496 
z
" style="fill:#ff0000;opacity:0.2;"/>
   </g>
   <g id="patch_80">
    <path clip-path="url(#p6fbc5a28d7)" d="M 323.816727 307.584 
L 327.063273 307.584 
L 327.063273 134.701714 
L 323.816727 134.701714 
z
" style="fill:#ff0000;opacity:0.2;"/>
   </g>
   <g id="patch_81">
    <path clip-path="url(#p6fbc5a28d7)" d="M 327.063273 307.584 
L 330.309818 307.584 
L 330.309818 123.84 
L 327.063273 123.84 
z
" style="fill:#ff0000;opacity:0.2;"/>
   </g>
   <g id="patch_82">
    <path clip-path="url(#p6fbc5a28d7)" d="M 330.309818 307.584 
L 333.556364 307.584 
L 333.556364 144.658286 
L 330.309818 144.658286 
z
" style="fill:#ff0000;opacity:0.2;"/>
   </g>
   <g id="patch_83">
    <path clip-path="url(#p6fbc5a28d7)" d="M 333.556364 307.584 
L 336.802909 307.584 
L 336.802909 69.531429 
L 333.556364 69.531429 
z
" style="fill:#ff0000;opacity:0.2;"/>
   </g>
   <g id="patch_84">
    <path clip-path="url(#p6fbc5a28d7)" d="M 336.802909 307.584 
L 340.049455 307.584 
L 340.049455 116.598857 
L 336.802909 116.598857 
z
" style="fill:#ff0000;opacity:0.2;"/>
   </g>
   <g id="patch_85">
    <path clip-path="url(#p6fbc5a28d7)" d="M 340.049455 307.584 
L 343.296 307.584 
L 343.296 131.986286 
L 340.049455 131.986286 
z
" style="fill:#ff0000;opacity:0.2;"/>
   </g>
   <g id="patch_86">
    <path clip-path="url(#p6fbc5a28d7)" d="M 343.296 307.584 
L 346.542545 307.584 
L 346.542545 95.780571 
L 343.296 95.780571 
z
" style="fill:#ff0000;opacity:0.2;"/>
   </g>
   <g id="patch_87">
    <path clip-path="url(#p6fbc5a28d7)" d="M 346.542545 307.584 
L 349.789091 307.584 
L 349.789091 117.504 
L 346.542545 117.504 
z
" style="fill:#ff0000;opacity:0.2;"/>
   </g>
   <g id="patch_88">
    <path clip-path="url(#p6fbc5a28d7)" d="M 349.789091 307.584 
L 353.035636 307.584 
L 353.035636 119.314286 
L 349.789091 119.314286 
z
" style="fill:#ff0000;opacity:0.2;"/>
   </g>
   <g id="patch_89">
    <path clip-path="url(#p6fbc5a28d7)" d="M 353.035636 307.584 
L 356.282182 307.584 
L 356.282182 77.677714 
L 353.035636 77.677714 
z
" style="fill:#ff0000;opacity:0.2;"/>
   </g>
   <g id="patch_90">
    <path clip-path="url(#p6fbc5a28d7)" d="M 356.282182 307.584 
L 359.528727 307.584 
L 359.528727 108.452571 
L 356.282182 108.452571 
z
" style="fill:#ff0000;opacity:0.2;"/>
   </g>
   <g id="patch_91">
    <path clip-path="url(#p6fbc5a28d7)" d="M 359.528727 307.584 
L 362.775273 307.584 
L 362.775273 122.934857 
L 359.528727 122.934857 
z
" style="fill:#ff0000;opacity:0.2;"/>
   </g>
   <g id="patch_92">
    <path clip-path="url(#p6fbc5a28d7)" d="M 362.775273 307.584 
L 366.021818 307.584 
L 366.021818 106.642286 
L 362.775273 106.642286 
z
" style="fill:#ff0000;opacity:0.2;"/>
   </g>
   <g id="patch_93">
    <path clip-path="url(#p6fbc5a28d7)" d="M 366.021818 307.584 
L 369.268364 307.584 
L 369.268364 61.385143 
L 366.021818 61.385143 
z
" style="fill:#ff0000;opacity:0.2;"/>
   </g>
   <g id="patch_94">
    <path clip-path="url(#p6fbc5a28d7)" d="M 369.268364 307.584 
L 372.514909 307.584 
L 372.514909 131.081143 
L 369.268364 131.081143 
z
" style="fill:#ff0000;opacity:0.2;"/>
   </g>
   <g id="patch_95">
    <path clip-path="url(#p6fbc5a28d7)" d="M 372.514909 307.584 
L 375.761455 307.584 
L 375.761455 130.176 
L 372.514909 130.176 
z
" style="fill:#ff0000;opacity:0.2;"/>
   </g>
   <g id="patch_96">
    <path clip-path="url(#p6fbc5a28d7)" d="M 375.761455 307.584 
L 379.008 307.584 
L 379.008 59.574857 
L 375.761455 59.574857 
z
" style="fill:#ff0000;opacity:0.2;"/>
   </g>
   <g id="patch_97">
    <path clip-path="url(#p6fbc5a28d7)" d="M 379.008 307.584 
L 382.254545 307.584 
L 382.254545 98.496 
L 379.008 98.496 
z
" style="fill:#ff0000;opacity:0.2;"/>
   </g>
   <g id="patch_98">
    <path clip-path="url(#p6fbc5a28d7)" d="M 382.254545 307.584 
L 385.501091 307.584 
L 385.501091 99.401143 
L 382.254545 99.401143 
z
" style="fill:#ff0000;opacity:0.2;"/>
   </g>
   <g id="patch_99">
    <path clip-path="url(#p6fbc5a28d7)" d="M 385.501091 307.584 
L 388.747636 307.584 
L 388.747636 54.144 
L 385.501091 54.144 
z
" style="fill:#ff0000;opacity:0.2;"/>
   </g>
   <g id="patch_100">
    <path clip-path="url(#p6fbc5a28d7)" d="M 388.747636 307.584 
L 391.994182 307.584 
L 391.994182 89.444571 
L 388.747636 89.444571 
z
" style="fill:#ff0000;opacity:0.2;"/>
   </g>
   <g id="patch_101">
    <path clip-path="url(#p6fbc5a28d7)" d="M 391.994182 307.584 
L 395.240727 307.584 
L 395.240727 85.824 
L 391.994182 85.824 
z
" style="fill:#ff0000;opacity:0.2;"/>
   </g>
   <g id="patch_102">
    <path clip-path="url(#p6fbc5a28d7)" d="M 395.240727 307.584 
L 398.487273 307.584 
L 398.487273 57.764571 
L 395.240727 57.764571 
z
" style="fill:#ff0000;opacity:0.2;"/>
   </g>
   <g id="patch_103">
    <path clip-path="url(#p6fbc5a28d7)" d="M 112.423739 307.584 
L 115.284375 307.584 
L 115.284375 306.678857 
L 112.423739 306.678857 
z
" style="fill:#0000ff;opacity:0.3;"/>
   </g>
   <g id="patch_104">
    <path clip-path="url(#p6fbc5a28d7)" d="M 115.284375 307.584 
L 118.14501 307.584 
L 118.14501 307.584 
L 115.284375 307.584 
z
" style="fill:#0000ff;opacity:0.3;"/>
   </g>
   <g id="patch_105">
    <path clip-path="url(#p6fbc5a28d7)" d="M 118.14501 307.584 
L 121.005645 307.584 
L 121.005645 306.678857 
L 118.14501 306.678857 
z
" style="fill:#0000ff;opacity:0.3;"/>
   </g>
   <g id="patch_106">
    <path clip-path="url(#p6fbc5a28d7)" d="M 121.005645 307.584 
L 123.866281 307.584 
L 123.866281 307.584 
L 121.005645 307.584 
z
" style="fill:#0000ff;opacity:0.3;"/>
   </g>
   <g id="patch_107">
    <path clip-path="url(#p6fbc5a28d7)" d="M 123.866281 307.584 
L 126.726916 307.584 
L 126.726916 306.678857 
L 123.866281 306.678857 
z
" style="fill:#0000ff;opacity:0.3;"/>
   </g>
   <g id="patch_108">
    <path clip-path="url(#p6fbc5a28d7)" d="M 126.726916 307.584 
L 129.587551 307.584 
L 129.587551 306.678857 
L 126.726916 306.678857 
z
" style="fill:#0000ff;opacity:0.3;"/>
   </g>
   <g id="patch_109">
    <path clip-path="url(#p6fbc5a28d7)" d="M 129.587551 307.584 
L 132.448187 307.584 
L 132.448187 307.584 
L 129.587551 307.584 
z
" style="fill:#0000ff;opacity:0.3;"/>
   </g>
   <g id="patch_110">
    <path clip-path="url(#p6fbc5a28d7)" d="M 132.448187 307.584 
L 135.308822 307.584 
L 135.308822 304.868571 
L 132.448187 304.868571 
z
" style="fill:#0000ff;opacity:0.3;"/>
   </g>
   <g id="patch_111">
    <path clip-path="url(#p6fbc5a28d7)" d="M 135.308822 307.584 
L 138.169457 307.584 
L 138.169457 307.584 
L 135.308822 307.584 
z
" style="fill:#0000ff;opacity:0.3;"/>
   </g>
   <g id="patch_112">
    <path clip-path="url(#p6fbc5a28d7)" d="M 138.169457 307.584 
L 141.030093 307.584 
L 141.030093 307.584 
L 138.169457 307.584 
z
" style="fill:#0000ff;opacity:0.3;"/>
   </g>
   <g id="patch_113">
    <path clip-path="url(#p6fbc5a28d7)" d="M 141.030093 307.584 
L 143.890728 307.584 
L 143.890728 304.868571 
L 141.030093 304.868571 
z
" style="fill:#0000ff;opacity:0.3;"/>
   </g>
   <g id="patch_114">
    <path clip-path="url(#p6fbc5a28d7)" d="M 143.890728 307.584 
L 146.751363 307.584 
L 146.751363 305.773714 
L 143.890728 305.773714 
z
" style="fill:#0000ff;opacity:0.3;"/>
   </g>
   <g id="patch_115">
    <path clip-path="url(#p6fbc5a28d7)" d="M 146.751363 307.584 
L 149.611999 307.584 
L 149.611999 303.963429 
L 146.751363 303.963429 
z
" style="fill:#0000ff;opacity:0.3;"/>
   </g>
   <g id="patch_116">
    <path clip-path="url(#p6fbc5a28d7)" d="M 149.611999 307.584 
L 152.472634 307.584 
L 152.472634 303.963429 
L 149.611999 303.963429 
z
" style="fill:#0000ff;opacity:0.3;"/>
   </g>
   <g id="patch_117">
    <path clip-path="url(#p6fbc5a28d7)" d="M 152.472634 307.584 
L 155.333269 307.584 
L 155.333269 304.868571 
L 152.472634 304.868571 
z
" style="fill:#0000ff;opacity:0.3;"/>
   </g>
   <g id="patch_118">
    <path clip-path="url(#p6fbc5a28d7)" d="M 155.333269 307.584 
L 158.193905 307.584 
L 158.193905 301.248 
L 155.333269 301.248 
z
" style="fill:#0000ff;opacity:0.3;"/>
   </g>
   <g id="patch_119">
    <path clip-path="url(#p6fbc5a28d7)" d="M 158.193905 307.584 
L 161.05454 307.584 
L 161.05454 298.532571 
L 158.193905 298.532571 
z
" style="fill:#0000ff;opacity:0.3;"/>
   </g>
   <g id="patch_120">
    <path clip-path="url(#p6fbc5a28d7)" d="M 161.05454 307.584 
L 163.915175 307.584 
L 163.915175 299.437714 
L 161.05454 299.437714 
z
" style="fill:#0000ff;opacity:0.3;"/>
   </g>
   <g id="patch_121">
    <path clip-path="url(#p6fbc5a28d7)" d="M 163.915175 307.584 
L 166.775811 307.584 
L 166.775811 302.153143 
L 163.915175 302.153143 
z
" style="fill:#0000ff;opacity:0.3;"/>
   </g>
   <g id="patch_122">
    <path clip-path="url(#p6fbc5a28d7)" d="M 166.775811 307.584 
L 169.636446 307.584 
L 169.636446 300.342857 
L 166.775811 300.342857 
z
" style="fill:#0000ff;opacity:0.3;"/>
   </g>
   <g id="patch_123">
    <path clip-path="url(#p6fbc5a28d7)" d="M 169.636446 307.584 
L 172.497081 307.584 
L 172.497081 298.532571 
L 169.636446 298.532571 
z
" style="fill:#0000ff;opacity:0.3;"/>
   </g>
   <g id="patch_124">
    <path clip-path="url(#p6fbc5a28d7)" d="M 172.497081 307.584 
L 175.357717 307.584 
L 175.357717 297.627429 
L 172.497081 297.627429 
z
" style="fill:#0000ff;opacity:0.3;"/>
   </g>
   <g id="patch_125">
    <path clip-path="url(#p6fbc5a28d7)" d="M 175.357717 307.584 
L 178.218352 307.584 
L 178.218352 296.722286 
L 175.357717 296.722286 
z
" style="fill:#0000ff;opacity:0.3;"/>
   </g>
   <g id="patch_126">
    <path clip-path="url(#p6fbc5a28d7)" d="M 178.218352 307.584 
L 181.078987 307.584 
L 181.078987 298.532571 
L 178.218352 298.532571 
z
" style="fill:#0000ff;opacity:0.3;"/>
   </g>
   <g id="patch_127">
    <path clip-path="url(#p6fbc5a28d7)" d="M 181.078987 307.584 
L 183.939623 307.584 
L 183.939623 295.817143 
L 181.078987 295.817143 
z
" style="fill:#0000ff;opacity:0.3;"/>
   </g>
   <g id="patch_128">
    <path clip-path="url(#p6fbc5a28d7)" d="M 183.939623 307.584 
L 186.800258 307.584 
L 186.800258 300.342857 
L 183.939623 300.342857 
z
" style="fill:#0000ff;opacity:0.3;"/>
   </g>
   <g id="patch_129">
    <path clip-path="url(#p6fbc5a28d7)" d="M 186.800258 307.584 
L 189.660893 307.584 
L 189.660893 291.291429 
L 186.800258 291.291429 
z
" style="fill:#0000ff;opacity:0.3;"/>
   </g>
   <g id="patch_130">
    <path clip-path="url(#p6fbc5a28d7)" d="M 189.660893 307.584 
L 192.521529 307.584 
L 192.521529 295.817143 
L 189.660893 295.817143 
z
" style="fill:#0000ff;opacity:0.3;"/>
   </g>
   <g id="patch_131">
    <path clip-path="url(#p6fbc5a28d7)" d="M 192.521529 307.584 
L 195.382164 307.584 
L 195.382164 285.860571 
L 192.521529 285.860571 
z
" style="fill:#0000ff;opacity:0.3;"/>
   </g>
   <g id="patch_132">
    <path clip-path="url(#p6fbc5a28d7)" d="M 195.382164 307.584 
L 198.242799 307.584 
L 198.242799 297.627429 
L 195.382164 297.627429 
z
" style="fill:#0000ff;opacity:0.3;"/>
   </g>
   <g id="patch_133">
    <path clip-path="url(#p6fbc5a28d7)" d="M 198.242799 307.584 
L 201.103435 307.584 
L 201.103435 299.437714 
L 198.242799 299.437714 
z
" style="fill:#0000ff;opacity:0.3;"/>
   </g>
   <g id="patch_134">
    <path clip-path="url(#p6fbc5a28d7)" d="M 201.103435 307.584 
L 203.96407 307.584 
L 203.96407 294.006857 
L 201.103435 294.006857 
z
" style="fill:#0000ff;opacity:0.3;"/>
   </g>
   <g id="patch_135">
    <path clip-path="url(#p6fbc5a28d7)" d="M 203.96407 307.584 
L 206.824705 307.584 
L 206.824705 289.481143 
L 203.96407 289.481143 
z
" style="fill:#0000ff;opacity:0.3;"/>
   </g>
   <g id="patch_136">
    <path clip-path="url(#p6fbc5a28d7)" d="M 206.824705 307.584 
L 209.685341 307.584 
L 209.685341 288.576 
L 206.824705 288.576 
z
" style="fill:#0000ff;opacity:0.3;"/>
   </g>
   <g id="patch_137">
    <path clip-path="url(#p6fbc5a28d7)" d="M 209.685341 307.584 
L 212.545976 307.584 
L 212.545976 290.386286 
L 209.685341 290.386286 
z
" style="fill:#0000ff;opacity:0.3;"/>
   </g>
   <g id="patch_138">
    <path clip-path="url(#p6fbc5a28d7)" d="M 212.545976 307.584 
L 215.406611 307.584 
L 215.406611 289.481143 
L 212.545976 289.481143 
z
" style="fill:#0000ff;opacity:0.3;"/>
   </g>
   <g id="patch_139">
    <path clip-path="url(#p6fbc5a28d7)" d="M 215.406611 307.584 
L 218.267247 307.584 
L 218.267247 286.765714 
L 215.406611 286.765714 
z
" style="fill:#0000ff;opacity:0.3;"/>
   </g>
   <g id="patch_140">
    <path clip-path="url(#p6fbc5a28d7)" d="M 218.267247 307.584 
L 221.127882 307.584 
L 221.127882 283.145143 
L 218.267247 283.145143 
z
" style="fill:#0000ff;opacity:0.3;"/>
   </g>
   <g id="patch_141">
    <path clip-path="url(#p6fbc5a28d7)" d="M 221.127882 307.584 
L 223.988517 307.584 
L 223.988517 274.998857 
L 221.127882 274.998857 
z
" style="fill:#0000ff;opacity:0.3;"/>
   </g>
   <g id="patch_142">
    <path clip-path="url(#p6fbc5a28d7)" d="M 223.988517 307.584 
L 226.849153 307.584 
L 226.849153 292.196571 
L 223.988517 292.196571 
z
" style="fill:#0000ff;opacity:0.3;"/>
   </g>
   <g id="patch_143">
    <path clip-path="url(#p6fbc5a28d7)" d="M 226.849153 307.584 
L 229.709788 307.584 
L 229.709788 283.145143 
L 226.849153 283.145143 
z
" style="fill:#0000ff;opacity:0.3;"/>
   </g>
   <g id="patch_144">
    <path clip-path="url(#p6fbc5a28d7)" d="M 229.709788 307.584 
L 232.570423 307.584 
L 232.570423 284.955429 
L 229.709788 284.955429 
z
" style="fill:#0000ff;opacity:0.3;"/>
   </g>
   <g id="patch_145">
    <path clip-path="url(#p6fbc5a28d7)" d="M 232.570423 307.584 
L 235.431059 307.584 
L 235.431059 294.006857 
L 232.570423 294.006857 
z
" style="fill:#0000ff;opacity:0.3;"/>
   </g>
   <g id="patch_146">
    <path clip-path="url(#p6fbc5a28d7)" d="M 235.431059 307.584 
L 238.291694 307.584 
L 238.291694 286.765714 
L 235.431059 286.765714 
z
" style="fill:#0000ff;opacity:0.3;"/>
   </g>
   <g id="patch_147">
    <path clip-path="url(#p6fbc5a28d7)" d="M 238.291694 307.584 
L 241.152329 307.584 
L 241.152329 279.524571 
L 238.291694 279.524571 
z
" style="fill:#0000ff;opacity:0.3;"/>
   </g>
   <g id="patch_148">
    <path clip-path="url(#p6fbc5a28d7)" d="M 241.152329 307.584 
L 244.012965 307.584 
L 244.012965 288.576 
L 241.152329 288.576 
z
" style="fill:#0000ff;opacity:0.3;"/>
   </g>
   <g id="patch_149">
    <path clip-path="url(#p6fbc5a28d7)" d="M 244.012965 307.584 
L 246.8736 307.584 
L 246.8736 287.670857 
L 244.012965 287.670857 
z
" style="fill:#0000ff;opacity:0.3;"/>
   </g>
   <g id="patch_150">
    <path clip-path="url(#p6fbc5a28d7)" d="M 246.8736 307.584 
L 249.734235 307.584 
L 249.734235 282.24 
L 246.8736 282.24 
z
" style="fill:#0000ff;opacity:0.3;"/>
   </g>
   <g id="patch_151">
    <path clip-path="url(#p6fbc5a28d7)" d="M 249.734235 307.584 
L 252.594871 307.584 
L 252.594871 286.765714 
L 249.734235 286.765714 
z
" style="fill:#0000ff;opacity:0.3;"/>
   </g>
   <g id="patch_152">
    <path clip-path="url(#p6fbc5a28d7)" d="M 252.594871 307.584 
L 255.455506 307.584 
L 255.455506 274.093714 
L 252.594871 274.093714 
z
" style="fill:#0000ff;opacity:0.3;"/>
   </g>
   <g id="patch_153">
    <path clip-path="url(#p6fbc5a28d7)" d="M 255.455506 307.584 
L 258.316141 307.584 
L 258.316141 281.334857 
L 255.455506 281.334857 
z
" style="fill:#0000ff;opacity:0.3;"/>
   </g>
   <g id="patch_154">
    <path clip-path="url(#p6fbc5a28d7)" d="M 258.316141 307.584 
L 261.176777 307.584 
L 261.176777 284.955429 
L 258.316141 284.955429 
z
" style="fill:#0000ff;opacity:0.3;"/>
   </g>
   <g id="patch_155">
    <path clip-path="url(#p6fbc5a28d7)" d="M 261.176777 307.584 
L 264.037412 307.584 
L 264.037412 284.050286 
L 261.176777 284.050286 
z
" style="fill:#0000ff;opacity:0.3;"/>
   </g>
   <g id="patch_156">
    <path clip-path="url(#p6fbc5a28d7)" d="M 264.037412 307.584 
L 266.898047 307.584 
L 266.898047 268.662857 
L 264.037412 268.662857 
z
" style="fill:#0000ff;opacity:0.3;"/>
   </g>
   <g id="patch_157">
    <path clip-path="url(#p6fbc5a28d7)" d="M 266.898047 307.584 
L 269.758683 307.584 
L 269.758683 286.765714 
L 266.898047 286.765714 
z
" style="fill:#0000ff;opacity:0.3;"/>
   </g>
   <g id="patch_158">
    <path clip-path="url(#p6fbc5a28d7)" d="M 269.758683 307.584 
L 272.619318 307.584 
L 272.619318 274.998857 
L 269.758683 274.998857 
z
" style="fill:#0000ff;opacity:0.3;"/>
   </g>
   <g id="patch_159">
    <path clip-path="url(#p6fbc5a28d7)" d="M 272.619318 307.584 
L 275.479953 307.584 
L 275.479953 279.524571 
L 272.619318 279.524571 
z
" style="fill:#0000ff;opacity:0.3;"/>
   </g>
   <g id="patch_160">
    <path clip-path="url(#p6fbc5a28d7)" d="M 275.479953 307.584 
L 278.340589 307.584 
L 278.340589 281.334857 
L 275.479953 281.334857 
z
" style="fill:#0000ff;opacity:0.3;"/>
   </g>
   <g id="patch_161">
    <path clip-path="url(#p6fbc5a28d7)" d="M 278.340589 307.584 
L 281.201224 307.584 
L 281.201224 277.714286 
L 278.340589 277.714286 
z
" style="fill:#0000ff;opacity:0.3;"/>
   </g>
   <g id="patch_162">
    <path clip-path="url(#p6fbc5a28d7)" d="M 281.201224 307.584 
L 284.061859 307.584 
L 284.061859 272.283429 
L 281.201224 272.283429 
z
" style="fill:#0000ff;opacity:0.3;"/>
   </g>
   <g id="patch_163">
    <path clip-path="url(#p6fbc5a28d7)" d="M 284.061859 307.584 
L 286.922495 307.584 
L 286.922495 283.145143 
L 284.061859 283.145143 
z
" style="fill:#0000ff;opacity:0.3;"/>
   </g>
   <g id="patch_164">
    <path clip-path="url(#p6fbc5a28d7)" d="M 286.922495 307.584 
L 289.78313 307.584 
L 289.78313 266.852571 
L 286.922495 266.852571 
z
" style="fill:#0000ff;opacity:0.3;"/>
   </g>
   <g id="patch_165">
    <path clip-path="url(#p6fbc5a28d7)" d="M 289.78313 307.584 
L 292.643765 307.584 
L 292.643765 268.662857 
L 289.78313 268.662857 
z
" style="fill:#0000ff;opacity:0.3;"/>
   </g>
   <g id="patch_166">
    <path clip-path="url(#p6fbc5a28d7)" d="M 292.643765 307.584 
L 295.504401 307.584 
L 295.504401 273.188571 
L 292.643765 273.188571 
z
" style="fill:#0000ff;opacity:0.3;"/>
   </g>
   <g id="patch_167">
    <path clip-path="url(#p6fbc5a28d7)" d="M 295.504401 307.584 
L 298.365036 307.584 
L 298.365036 265.042286 
L 295.504401 265.042286 
z
" style="fill:#0000ff;opacity:0.3;"/>
   </g>
   <g id="patch_168">
    <path clip-path="url(#p6fbc5a28d7)" d="M 298.365036 307.584 
L 301.225671 307.584 
L 301.225671 267.757714 
L 298.365036 267.757714 
z
" style="fill:#0000ff;opacity:0.3;"/>
   </g>
   <g id="patch_169">
    <path clip-path="url(#p6fbc5a28d7)" d="M 301.225671 307.584 
L 304.086307 307.584 
L 304.086307 266.852571 
L 301.225671 266.852571 
z
" style="fill:#0000ff;opacity:0.3;"/>
   </g>
   <g id="patch_170">
    <path clip-path="url(#p6fbc5a28d7)" d="M 304.086307 307.584 
L 306.946942 307.584 
L 306.946942 254.180571 
L 304.086307 254.180571 
z
" style="fill:#0000ff;opacity:0.3;"/>
   </g>
   <g id="patch_171">
    <path clip-path="url(#p6fbc5a28d7)" d="M 306.946942 307.584 
L 309.807577 307.584 
L 309.807577 265.042286 
L 306.946942 265.042286 
z
" style="fill:#0000ff;opacity:0.3;"/>
   </g>
   <g id="patch_172">
    <path clip-path="url(#p6fbc5a28d7)" d="M 309.807577 307.584 
L 312.668213 307.584 
L 312.668213 279.524571 
L 309.807577 279.524571 
z
" style="fill:#0000ff;opacity:0.3;"/>
   </g>
   <g id="patch_173">
    <path clip-path="url(#p6fbc5a28d7)" d="M 312.668213 307.584 
L 315.528848 307.584 
L 315.528848 261.421714 
L 312.668213 261.421714 
z
" style="fill:#0000ff;opacity:0.3;"/>
   </g>
   <g id="patch_174">
    <path clip-path="url(#p6fbc5a28d7)" d="M 315.528848 307.584 
L 318.389483 307.584 
L 318.389483 254.180571 
L 315.528848 254.180571 
z
" style="fill:#0000ff;opacity:0.3;"/>
   </g>
   <g id="patch_175">
    <path clip-path="url(#p6fbc5a28d7)" d="M 318.389483 307.584 
L 321.250119 307.584 
L 321.250119 264.137143 
L 318.389483 264.137143 
z
" style="fill:#0000ff;opacity:0.3;"/>
   </g>
   <g id="patch_176">
    <path clip-path="url(#p6fbc5a28d7)" d="M 321.250119 307.584 
L 324.110754 307.584 
L 324.110754 258.706286 
L 321.250119 258.706286 
z
" style="fill:#0000ff;opacity:0.3;"/>
   </g>
   <g id="patch_177">
    <path clip-path="url(#p6fbc5a28d7)" d="M 324.110754 307.584 
L 326.971389 307.584 
L 326.971389 250.56 
L 324.110754 250.56 
z
" style="fill:#0000ff;opacity:0.3;"/>
   </g>
   <g id="patch_178">
    <path clip-path="url(#p6fbc5a28d7)" d="M 326.971389 307.584 
L 329.832025 307.584 
L 329.832025 255.990857 
L 326.971389 255.990857 
z
" style="fill:#0000ff;opacity:0.3;"/>
   </g>
   <g id="patch_179">
    <path clip-path="url(#p6fbc5a28d7)" d="M 329.832025 307.584 
L 332.69266 307.584 
L 332.69266 265.947429 
L 329.832025 265.947429 
z
" style="fill:#0000ff;opacity:0.3;"/>
   </g>
   <g id="patch_180">
    <path clip-path="url(#p6fbc5a28d7)" d="M 332.69266 307.584 
L 335.553295 307.584 
L 335.553295 253.275429 
L 332.69266 253.275429 
z
" style="fill:#0000ff;opacity:0.3;"/>
   </g>
   <g id="patch_181">
    <path clip-path="url(#p6fbc5a28d7)" d="M 335.553295 307.584 
L 338.413931 307.584 
L 338.413931 276.809143 
L 335.553295 276.809143 
z
" style="fill:#0000ff;opacity:0.3;"/>
   </g>
   <g id="patch_182">
    <path clip-path="url(#p6fbc5a28d7)" d="M 338.413931 307.584 
L 341.274566 307.584 
L 341.274566 262.326857 
L 338.413931 262.326857 
z
" style="fill:#0000ff;opacity:0.3;"/>
   </g>
   <g id="patch_183">
    <path clip-path="url(#p6fbc5a28d7)" d="M 341.274566 307.584 
L 344.135201 307.584 
L 344.135201 255.990857 
L 341.274566 255.990857 
z
" style="fill:#0000ff;opacity:0.3;"/>
   </g>
   <g id="patch_184">
    <path clip-path="url(#p6fbc5a28d7)" d="M 344.135201 307.584 
L 346.995837 307.584 
L 346.995837 269.568 
L 344.135201 269.568 
z
" style="fill:#0000ff;opacity:0.3;"/>
   </g>
   <g id="patch_185">
    <path clip-path="url(#p6fbc5a28d7)" d="M 346.995837 307.584 
L 349.856472 307.584 
L 349.856472 249.654857 
L 346.995837 249.654857 
z
" style="fill:#0000ff;opacity:0.3;"/>
   </g>
   <g id="patch_186">
    <path clip-path="url(#p6fbc5a28d7)" d="M 349.856472 307.584 
L 352.717107 307.584 
L 352.717107 229.741714 
L 349.856472 229.741714 
z
" style="fill:#0000ff;opacity:0.3;"/>
   </g>
   <g id="patch_187">
    <path clip-path="url(#p6fbc5a28d7)" d="M 352.717107 307.584 
L 355.577743 307.584 
L 355.577743 265.947429 
L 352.717107 265.947429 
z
" style="fill:#0000ff;opacity:0.3;"/>
   </g>
   <g id="patch_188">
    <path clip-path="url(#p6fbc5a28d7)" d="M 355.577743 307.584 
L 358.438378 307.584 
L 358.438378 251.465143 
L 355.577743 251.465143 
z
" style="fill:#0000ff;opacity:0.3;"/>
   </g>
   <g id="patch_189">
    <path clip-path="url(#p6fbc5a28d7)" d="M 358.438378 307.584 
L 361.299013 307.584 
L 361.299013 247.844571 
L 358.438378 247.844571 
z
" style="fill:#0000ff;opacity:0.3;"/>
   </g>
   <g id="patch_190">
    <path clip-path="url(#p6fbc5a28d7)" d="M 361.299013 307.584 
L 364.159649 307.584 
L 364.159649 268.662857 
L 361.299013 268.662857 
z
" style="fill:#0000ff;opacity:0.3;"/>
   </g>
   <g id="patch_191">
    <path clip-path="url(#p6fbc5a28d7)" d="M 364.159649 307.584 
L 367.020284 307.584 
L 367.020284 241.508571 
L 364.159649 241.508571 
z
" style="fill:#0000ff;opacity:0.3;"/>
   </g>
   <g id="patch_192">
    <path clip-path="url(#p6fbc5a28d7)" d="M 367.020284 307.584 
L 369.880919 307.584 
L 369.880919 236.982857 
L 367.020284 236.982857 
z
" style="fill:#0000ff;opacity:0.3;"/>
   </g>
   <g id="patch_193">
    <path clip-path="url(#p6fbc5a28d7)" d="M 369.880919 307.584 
L 372.741555 307.584 
L 372.741555 251.465143 
L 369.880919 251.465143 
z
" style="fill:#0000ff;opacity:0.3;"/>
   </g>
   <g id="patch_194">
    <path clip-path="url(#p6fbc5a28d7)" d="M 372.741555 307.584 
L 375.60219 307.584 
L 375.60219 243.318857 
L 372.741555 243.318857 
z
" style="fill:#0000ff;opacity:0.3;"/>
   </g>
   <g id="patch_195">
    <path clip-path="url(#p6fbc5a28d7)" d="M 375.60219 307.584 
L 378.462825 307.584 
L 378.462825 238.793143 
L 375.60219 238.793143 
z
" style="fill:#0000ff;opacity:0.3;"/>
   </g>
   <g id="patch_196">
    <path clip-path="url(#p6fbc5a28d7)" d="M 378.462825 307.584 
L 381.323461 307.584 
L 381.323461 266.852571 
L 378.462825 266.852571 
z
" style="fill:#0000ff;opacity:0.3;"/>
   </g>
   <g id="patch_197">
    <path clip-path="url(#p6fbc5a28d7)" d="M 381.323461 307.584 
L 384.184096 307.584 
L 384.184096 241.508571 
L 381.323461 241.508571 
z
" style="fill:#0000ff;opacity:0.3;"/>
   </g>
   <g id="patch_198">
    <path clip-path="url(#p6fbc5a28d7)" d="M 384.184096 307.584 
L 387.044731 307.584 
L 387.044731 222.500571 
L 384.184096 222.500571 
z
" style="fill:#0000ff;opacity:0.3;"/>
   </g>
   <g id="patch_199">
    <path clip-path="url(#p6fbc5a28d7)" d="M 387.044731 307.584 
L 389.905367 307.584 
L 389.905367 255.990857 
L 387.044731 255.990857 
z
" style="fill:#0000ff;opacity:0.3;"/>
   </g>
   <g id="patch_200">
    <path clip-path="url(#p6fbc5a28d7)" d="M 389.905367 307.584 
L 392.766002 307.584 
L 392.766002 238.793143 
L 389.905367 238.793143 
z
" style="fill:#0000ff;opacity:0.3;"/>
   </g>
   <g id="patch_201">
    <path clip-path="url(#p6fbc5a28d7)" d="M 392.766002 307.584 
L 395.626637 307.584 
L 395.626637 238.793143 
L 392.766002 238.793143 
z
" style="fill:#0000ff;opacity:0.3;"/>
   </g>
   <g id="patch_202">
    <path clip-path="url(#p6fbc5a28d7)" d="M 395.626637 307.584 
L 398.487273 307.584 
L 398.487273 244.224 
L 395.626637 244.224 
z
" style="fill:#0000ff;opacity:0.3;"/>
   </g>
   <g id="patch_203">
    <path clip-path="url(#p6fbc5a28d7)" d="M 111.198628 307.584 
L 114.071514 307.584 
L 114.071514 306.678857 
L 111.198628 306.678857 
z
" style="fill:#008000;opacity:0.2;"/>
   </g>
   <g id="patch_204">
    <path clip-path="url(#p6fbc5a28d7)" d="M 114.071514 307.584 
L 116.944401 307.584 
L 116.944401 306.678857 
L 114.071514 306.678857 
z
" style="fill:#008000;opacity:0.2;"/>
   </g>
   <g id="patch_205">
    <path clip-path="url(#p6fbc5a28d7)" d="M 116.944401 307.584 
L 119.817287 307.584 
L 119.817287 307.584 
L 116.944401 307.584 
z
" style="fill:#008000;opacity:0.2;"/>
   </g>
   <g id="patch_206">
    <path clip-path="url(#p6fbc5a28d7)" d="M 119.817287 307.584 
L 122.690174 307.584 
L 122.690174 307.584 
L 119.817287 307.584 
z
" style="fill:#008000;opacity:0.2;"/>
   </g>
   <g id="patch_207">
    <path clip-path="url(#p6fbc5a28d7)" d="M 122.690174 307.584 
L 125.56306 307.584 
L 125.56306 307.584 
L 122.690174 307.584 
z
" style="fill:#008000;opacity:0.2;"/>
   </g>
   <g id="patch_208">
    <path clip-path="url(#p6fbc5a28d7)" d="M 125.56306 307.584 
L 128.435946 307.584 
L 128.435946 306.678857 
L 125.56306 306.678857 
z
" style="fill:#008000;opacity:0.2;"/>
   </g>
   <g id="patch_209">
    <path clip-path="url(#p6fbc5a28d7)" d="M 128.435946 307.584 
L 131.308833 307.584 
L 131.308833 307.584 
L 128.435946 307.584 
z
" style="fill:#008000;opacity:0.2;"/>
   </g>
   <g id="patch_210">
    <path clip-path="url(#p6fbc5a28d7)" d="M 131.308833 307.584 
L 134.181719 307.584 
L 134.181719 307.584 
L 131.308833 307.584 
z
" style="fill:#008000;opacity:0.2;"/>
   </g>
   <g id="patch_211">
    <path clip-path="url(#p6fbc5a28d7)" d="M 134.181719 307.584 
L 137.054606 307.584 
L 137.054606 305.773714 
L 134.181719 305.773714 
z
" style="fill:#008000;opacity:0.2;"/>
   </g>
   <g id="patch_212">
    <path clip-path="url(#p6fbc5a28d7)" d="M 137.054606 307.584 
L 139.927492 307.584 
L 139.927492 304.868571 
L 137.054606 304.868571 
z
" style="fill:#008000;opacity:0.2;"/>
   </g>
   <g id="patch_213">
    <path clip-path="url(#p6fbc5a28d7)" d="M 139.927492 307.584 
L 142.800379 307.584 
L 142.800379 306.678857 
L 139.927492 306.678857 
z
" style="fill:#008000;opacity:0.2;"/>
   </g>
   <g id="patch_214">
    <path clip-path="url(#p6fbc5a28d7)" d="M 142.800379 307.584 
L 145.673265 307.584 
L 145.673265 304.868571 
L 142.800379 304.868571 
z
" style="fill:#008000;opacity:0.2;"/>
   </g>
   <g id="patch_215">
    <path clip-path="url(#p6fbc5a28d7)" d="M 145.673265 307.584 
L 148.546152 307.584 
L 148.546152 304.868571 
L 145.673265 304.868571 
z
" style="fill:#008000;opacity:0.2;"/>
   </g>
   <g id="patch_216">
    <path clip-path="url(#p6fbc5a28d7)" d="M 148.546152 307.584 
L 151.419038 307.584 
L 151.419038 304.868571 
L 148.546152 304.868571 
z
" style="fill:#008000;opacity:0.2;"/>
   </g>
   <g id="patch_217">
    <path clip-path="url(#p6fbc5a28d7)" d="M 151.419038 307.584 
L 154.291925 307.584 
L 154.291925 303.058286 
L 151.419038 303.058286 
z
" style="fill:#008000;opacity:0.2;"/>
   </g>
   <g id="patch_218">
    <path clip-path="url(#p6fbc5a28d7)" d="M 154.291925 307.584 
L 157.164811 307.584 
L 157.164811 304.868571 
L 154.291925 304.868571 
z
" style="fill:#008000;opacity:0.2;"/>
   </g>
   <g id="patch_219">
    <path clip-path="url(#p6fbc5a28d7)" d="M 157.164811 307.584 
L 160.037697 307.584 
L 160.037697 305.773714 
L 157.164811 305.773714 
z
" style="fill:#008000;opacity:0.2;"/>
   </g>
   <g id="patch_220">
    <path clip-path="url(#p6fbc5a28d7)" d="M 160.037697 307.584 
L 162.910584 307.584 
L 162.910584 299.437714 
L 160.037697 299.437714 
z
" style="fill:#008000;opacity:0.2;"/>
   </g>
   <g id="patch_221">
    <path clip-path="url(#p6fbc5a28d7)" d="M 162.910584 307.584 
L 165.78347 307.584 
L 165.78347 303.963429 
L 162.910584 303.963429 
z
" style="fill:#008000;opacity:0.2;"/>
   </g>
   <g id="patch_222">
    <path clip-path="url(#p6fbc5a28d7)" d="M 165.78347 307.584 
L 168.656357 307.584 
L 168.656357 303.058286 
L 165.78347 303.058286 
z
" style="fill:#008000;opacity:0.2;"/>
   </g>
   <g id="patch_223">
    <path clip-path="url(#p6fbc5a28d7)" d="M 168.656357 307.584 
L 171.529243 307.584 
L 171.529243 303.058286 
L 168.656357 303.058286 
z
" style="fill:#008000;opacity:0.2;"/>
   </g>
   <g id="patch_224">
    <path clip-path="url(#p6fbc5a28d7)" d="M 171.529243 307.584 
L 174.40213 307.584 
L 174.40213 301.248 
L 171.529243 301.248 
z
" style="fill:#008000;opacity:0.2;"/>
   </g>
   <g id="patch_225">
    <path clip-path="url(#p6fbc5a28d7)" d="M 174.40213 307.584 
L 177.275016 307.584 
L 177.275016 304.868571 
L 174.40213 304.868571 
z
" style="fill:#008000;opacity:0.2;"/>
   </g>
   <g id="patch_226">
    <path clip-path="url(#p6fbc5a28d7)" d="M 177.275016 307.584 
L 180.147903 307.584 
L 180.147903 296.722286 
L 177.275016 296.722286 
z
" style="fill:#008000;opacity:0.2;"/>
   </g>
   <g id="patch_227">
    <path clip-path="url(#p6fbc5a28d7)" d="M 180.147903 307.584 
L 183.020789 307.584 
L 183.020789 303.058286 
L 180.147903 303.058286 
z
" style="fill:#008000;opacity:0.2;"/>
   </g>
   <g id="patch_228">
    <path clip-path="url(#p6fbc5a28d7)" d="M 183.020789 307.584 
L 185.893675 307.584 
L 185.893675 295.817143 
L 183.020789 295.817143 
z
" style="fill:#008000;opacity:0.2;"/>
   </g>
   <g id="patch_229">
    <path clip-path="url(#p6fbc5a28d7)" d="M 185.893675 307.584 
L 188.766562 307.584 
L 188.766562 294.912 
L 185.893675 294.912 
z
" style="fill:#008000;opacity:0.2;"/>
   </g>
   <g id="patch_230">
    <path clip-path="url(#p6fbc5a28d7)" d="M 188.766562 307.584 
L 191.639448 307.584 
L 191.639448 299.437714 
L 188.766562 299.437714 
z
" style="fill:#008000;opacity:0.2;"/>
   </g>
   <g id="patch_231">
    <path clip-path="url(#p6fbc5a28d7)" d="M 191.639448 307.584 
L 194.512335 307.584 
L 194.512335 294.006857 
L 191.639448 294.006857 
z
" style="fill:#008000;opacity:0.2;"/>
   </g>
   <g id="patch_232">
    <path clip-path="url(#p6fbc5a28d7)" d="M 194.512335 307.584 
L 197.385221 307.584 
L 197.385221 303.058286 
L 194.512335 303.058286 
z
" style="fill:#008000;opacity:0.2;"/>
   </g>
   <g id="patch_233">
    <path clip-path="url(#p6fbc5a28d7)" d="M 197.385221 307.584 
L 200.258108 307.584 
L 200.258108 292.196571 
L 197.385221 292.196571 
z
" style="fill:#008000;opacity:0.2;"/>
   </g>
   <g id="patch_234">
    <path clip-path="url(#p6fbc5a28d7)" d="M 200.258108 307.584 
L 203.130994 307.584 
L 203.130994 293.101714 
L 200.258108 293.101714 
z
" style="fill:#008000;opacity:0.2;"/>
   </g>
   <g id="patch_235">
    <path clip-path="url(#p6fbc5a28d7)" d="M 203.130994 307.584 
L 206.003881 307.584 
L 206.003881 294.912 
L 203.130994 294.912 
z
" style="fill:#008000;opacity:0.2;"/>
   </g>
   <g id="patch_236">
    <path clip-path="url(#p6fbc5a28d7)" d="M 206.003881 307.584 
L 208.876767 307.584 
L 208.876767 280.429714 
L 206.003881 280.429714 
z
" style="fill:#008000;opacity:0.2;"/>
   </g>
   <g id="patch_237">
    <path clip-path="url(#p6fbc5a28d7)" d="M 208.876767 307.584 
L 211.749654 307.584 
L 211.749654 288.576 
L 208.876767 288.576 
z
" style="fill:#008000;opacity:0.2;"/>
   </g>
   <g id="patch_238">
    <path clip-path="url(#p6fbc5a28d7)" d="M 211.749654 307.584 
L 214.62254 307.584 
L 214.62254 295.817143 
L 211.749654 295.817143 
z
" style="fill:#008000;opacity:0.2;"/>
   </g>
   <g id="patch_239">
    <path clip-path="url(#p6fbc5a28d7)" d="M 214.62254 307.584 
L 217.495426 307.584 
L 217.495426 283.145143 
L 214.62254 283.145143 
z
" style="fill:#008000;opacity:0.2;"/>
   </g>
   <g id="patch_240">
    <path clip-path="url(#p6fbc5a28d7)" d="M 217.495426 307.584 
L 220.368313 307.584 
L 220.368313 269.568 
L 217.495426 269.568 
z
" style="fill:#008000;opacity:0.2;"/>
   </g>
   <g id="patch_241">
    <path clip-path="url(#p6fbc5a28d7)" d="M 220.368313 307.584 
L 223.241199 307.584 
L 223.241199 289.481143 
L 220.368313 289.481143 
z
" style="fill:#008000;opacity:0.2;"/>
   </g>
   <g id="patch_242">
    <path clip-path="url(#p6fbc5a28d7)" d="M 223.241199 307.584 
L 226.114086 307.584 
L 226.114086 279.524571 
L 223.241199 279.524571 
z
" style="fill:#008000;opacity:0.2;"/>
   </g>
   <g id="patch_243">
    <path clip-path="url(#p6fbc5a28d7)" d="M 226.114086 307.584 
L 228.986972 307.584 
L 228.986972 282.24 
L 226.114086 282.24 
z
" style="fill:#008000;opacity:0.2;"/>
   </g>
   <g id="patch_244">
    <path clip-path="url(#p6fbc5a28d7)" d="M 228.986972 307.584 
L 231.859859 307.584 
L 231.859859 280.429714 
L 228.986972 280.429714 
z
" style="fill:#008000;opacity:0.2;"/>
   </g>
   <g id="patch_245">
    <path clip-path="url(#p6fbc5a28d7)" d="M 231.859859 307.584 
L 234.732745 307.584 
L 234.732745 267.757714 
L 231.859859 267.757714 
z
" style="fill:#008000;opacity:0.2;"/>
   </g>
   <g id="patch_246">
    <path clip-path="url(#p6fbc5a28d7)" d="M 234.732745 307.584 
L 237.605632 307.584 
L 237.605632 278.619429 
L 234.732745 278.619429 
z
" style="fill:#008000;opacity:0.2;"/>
   </g>
   <g id="patch_247">
    <path clip-path="url(#p6fbc5a28d7)" d="M 237.605632 307.584 
L 240.478518 307.584 
L 240.478518 271.378286 
L 237.605632 271.378286 
z
" style="fill:#008000;opacity:0.2;"/>
   </g>
   <g id="patch_248">
    <path clip-path="url(#p6fbc5a28d7)" d="M 240.478518 307.584 
L 243.351404 307.584 
L 243.351404 270.473143 
L 240.478518 270.473143 
z
" style="fill:#008000;opacity:0.2;"/>
   </g>
   <g id="patch_249">
    <path clip-path="url(#p6fbc5a28d7)" d="M 243.351404 307.584 
L 246.224291 307.584 
L 246.224291 274.998857 
L 243.351404 274.998857 
z
" style="fill:#008000;opacity:0.2;"/>
   </g>
   <g id="patch_250">
    <path clip-path="url(#p6fbc5a28d7)" d="M 246.224291 307.584 
L 249.097177 307.584 
L 249.097177 269.568 
L 246.224291 269.568 
z
" style="fill:#008000;opacity:0.2;"/>
   </g>
   <g id="patch_251">
    <path clip-path="url(#p6fbc5a28d7)" d="M 249.097177 307.584 
L 251.970064 307.584 
L 251.970064 282.24 
L 249.097177 282.24 
z
" style="fill:#008000;opacity:0.2;"/>
   </g>
   <g id="patch_252">
    <path clip-path="url(#p6fbc5a28d7)" d="M 251.970064 307.584 
L 254.84295 307.584 
L 254.84295 252.370286 
L 251.970064 252.370286 
z
" style="fill:#008000;opacity:0.2;"/>
   </g>
   <g id="patch_253">
    <path clip-path="url(#p6fbc5a28d7)" d="M 254.84295 307.584 
L 257.715837 307.584 
L 257.715837 261.421714 
L 254.84295 261.421714 
z
" style="fill:#008000;opacity:0.2;"/>
   </g>
   <g id="patch_254">
    <path clip-path="url(#p6fbc5a28d7)" d="M 257.715837 307.584 
L 260.588723 307.584 
L 260.588723 272.283429 
L 257.715837 272.283429 
z
" style="fill:#008000;opacity:0.2;"/>
   </g>
   <g id="patch_255">
    <path clip-path="url(#p6fbc5a28d7)" d="M 260.588723 307.584 
L 263.46161 307.584 
L 263.46161 267.757714 
L 260.588723 267.757714 
z
" style="fill:#008000;opacity:0.2;"/>
   </g>
   <g id="patch_256">
    <path clip-path="url(#p6fbc5a28d7)" d="M 263.46161 307.584 
L 266.334496 307.584 
L 266.334496 270.473143 
L 263.46161 270.473143 
z
" style="fill:#008000;opacity:0.2;"/>
   </g>
   <g id="patch_257">
    <path clip-path="url(#p6fbc5a28d7)" d="M 266.334496 307.584 
L 269.207383 307.584 
L 269.207383 277.714286 
L 266.334496 277.714286 
z
" style="fill:#008000;opacity:0.2;"/>
   </g>
   <g id="patch_258">
    <path clip-path="url(#p6fbc5a28d7)" d="M 269.207383 307.584 
L 272.080269 307.584 
L 272.080269 266.852571 
L 269.207383 266.852571 
z
" style="fill:#008000;opacity:0.2;"/>
   </g>
   <g id="patch_259">
    <path clip-path="url(#p6fbc5a28d7)" d="M 272.080269 307.584 
L 274.953155 307.584 
L 274.953155 267.757714 
L 272.080269 267.757714 
z
" style="fill:#008000;opacity:0.2;"/>
   </g>
   <g id="patch_260">
    <path clip-path="url(#p6fbc5a28d7)" d="M 274.953155 307.584 
L 277.826042 307.584 
L 277.826042 265.947429 
L 274.953155 265.947429 
z
" style="fill:#008000;opacity:0.2;"/>
   </g>
   <g id="patch_261">
    <path clip-path="url(#p6fbc5a28d7)" d="M 277.826042 307.584 
L 280.698928 307.584 
L 280.698928 274.998857 
L 277.826042 274.998857 
z
" style="fill:#008000;opacity:0.2;"/>
   </g>
   <g id="patch_262">
    <path clip-path="url(#p6fbc5a28d7)" d="M 280.698928 307.584 
L 283.571815 307.584 
L 283.571815 251.465143 
L 280.698928 251.465143 
z
" style="fill:#008000;opacity:0.2;"/>
   </g>
   <g id="patch_263">
    <path clip-path="url(#p6fbc5a28d7)" d="M 283.571815 307.584 
L 286.444701 307.584 
L 286.444701 259.611429 
L 283.571815 259.611429 
z
" style="fill:#008000;opacity:0.2;"/>
   </g>
   <g id="patch_264">
    <path clip-path="url(#p6fbc5a28d7)" d="M 286.444701 307.584 
L 289.317588 307.584 
L 289.317588 264.137143 
L 286.444701 264.137143 
z
" style="fill:#008000;opacity:0.2;"/>
   </g>
   <g id="patch_265">
    <path clip-path="url(#p6fbc5a28d7)" d="M 289.317588 307.584 
L 292.190474 307.584 
L 292.190474 263.232 
L 289.317588 263.232 
z
" style="fill:#008000;opacity:0.2;"/>
   </g>
   <g id="patch_266">
    <path clip-path="url(#p6fbc5a28d7)" d="M 292.190474 307.584 
L 295.063361 307.584 
L 295.063361 258.706286 
L 292.190474 258.706286 
z
" style="fill:#008000;opacity:0.2;"/>
   </g>
   <g id="patch_267">
    <path clip-path="url(#p6fbc5a28d7)" d="M 295.063361 307.584 
L 297.936247 307.584 
L 297.936247 280.429714 
L 295.063361 280.429714 
z
" style="fill:#008000;opacity:0.2;"/>
   </g>
   <g id="patch_268">
    <path clip-path="url(#p6fbc5a28d7)" d="M 297.936247 307.584 
L 300.809133 307.584 
L 300.809133 260.516571 
L 297.936247 260.516571 
z
" style="fill:#008000;opacity:0.2;"/>
   </g>
   <g id="patch_269">
    <path clip-path="url(#p6fbc5a28d7)" d="M 300.809133 307.584 
L 303.68202 307.584 
L 303.68202 256.896 
L 300.809133 256.896 
z
" style="fill:#008000;opacity:0.2;"/>
   </g>
   <g id="patch_270">
    <path clip-path="url(#p6fbc5a28d7)" d="M 303.68202 307.584 
L 306.554906 307.584 
L 306.554906 255.990857 
L 303.68202 255.990857 
z
" style="fill:#008000;opacity:0.2;"/>
   </g>
   <g id="patch_271">
    <path clip-path="url(#p6fbc5a28d7)" d="M 306.554906 307.584 
L 309.427793 307.584 
L 309.427793 257.801143 
L 306.554906 257.801143 
z
" style="fill:#008000;opacity:0.2;"/>
   </g>
   <g id="patch_272">
    <path clip-path="url(#p6fbc5a28d7)" d="M 309.427793 307.584 
L 312.300679 307.584 
L 312.300679 262.326857 
L 309.427793 262.326857 
z
" style="fill:#008000;opacity:0.2;"/>
   </g>
   <g id="patch_273">
    <path clip-path="url(#p6fbc5a28d7)" d="M 312.300679 307.584 
L 315.173566 307.584 
L 315.173566 257.801143 
L 312.300679 257.801143 
z
" style="fill:#008000;opacity:0.2;"/>
   </g>
   <g id="patch_274">
    <path clip-path="url(#p6fbc5a28d7)" d="M 315.173566 307.584 
L 318.046452 307.584 
L 318.046452 255.085714 
L 315.173566 255.085714 
z
" style="fill:#008000;opacity:0.2;"/>
   </g>
   <g id="patch_275">
    <path clip-path="url(#p6fbc5a28d7)" d="M 318.046452 307.584 
L 320.919339 307.584 
L 320.919339 253.275429 
L 318.046452 253.275429 
z
" style="fill:#008000;opacity:0.2;"/>
   </g>
   <g id="patch_276">
    <path clip-path="url(#p6fbc5a28d7)" d="M 320.919339 307.584 
L 323.792225 307.584 
L 323.792225 246.939429 
L 320.919339 246.939429 
z
" style="fill:#008000;opacity:0.2;"/>
   </g>
   <g id="patch_277">
    <path clip-path="url(#p6fbc5a28d7)" d="M 323.792225 307.584 
L 326.665111 307.584 
L 326.665111 260.516571 
L 323.792225 260.516571 
z
" style="fill:#008000;opacity:0.2;"/>
   </g>
   <g id="patch_278">
    <path clip-path="url(#p6fbc5a28d7)" d="M 326.665111 307.584 
L 329.537998 307.584 
L 329.537998 252.370286 
L 326.665111 252.370286 
z
" style="fill:#008000;opacity:0.2;"/>
   </g>
   <g id="patch_279">
    <path clip-path="url(#p6fbc5a28d7)" d="M 329.537998 307.584 
L 332.410884 307.584 
L 332.410884 242.413714 
L 329.537998 242.413714 
z
" style="fill:#008000;opacity:0.2;"/>
   </g>
   <g id="patch_280">
    <path clip-path="url(#p6fbc5a28d7)" d="M 332.410884 307.584 
L 335.283771 307.584 
L 335.283771 264.137143 
L 332.410884 264.137143 
z
" style="fill:#008000;opacity:0.2;"/>
   </g>
   <g id="patch_281">
    <path clip-path="url(#p6fbc5a28d7)" d="M 335.283771 307.584 
L 338.156657 307.584 
L 338.156657 252.370286 
L 335.283771 252.370286 
z
" style="fill:#008000;opacity:0.2;"/>
   </g>
   <g id="patch_282">
    <path clip-path="url(#p6fbc5a28d7)" d="M 338.156657 307.584 
L 341.029544 307.584 
L 341.029544 255.990857 
L 338.156657 255.990857 
z
" style="fill:#008000;opacity:0.2;"/>
   </g>
   <g id="patch_283">
    <path clip-path="url(#p6fbc5a28d7)" d="M 341.029544 307.584 
L 343.90243 307.584 
L 343.90243 251.465143 
L 341.029544 251.465143 
z
" style="fill:#008000;opacity:0.2;"/>
   </g>
   <g id="patch_284">
    <path clip-path="url(#p6fbc5a28d7)" d="M 343.90243 307.584 
L 346.775317 307.584 
L 346.775317 259.611429 
L 343.90243 259.611429 
z
" style="fill:#008000;opacity:0.2;"/>
   </g>
   <g id="patch_285">
    <path clip-path="url(#p6fbc5a28d7)" d="M 346.775317 307.584 
L 349.648203 307.584 
L 349.648203 246.939429 
L 346.775317 246.939429 
z
" style="fill:#008000;opacity:0.2;"/>
   </g>
   <g id="patch_286">
    <path clip-path="url(#p6fbc5a28d7)" d="M 349.648203 307.584 
L 352.52109 307.584 
L 352.52109 274.998857 
L 349.648203 274.998857 
z
" style="fill:#008000;opacity:0.2;"/>
   </g>
   <g id="patch_287">
    <path clip-path="url(#p6fbc5a28d7)" d="M 352.52109 307.584 
L 355.393976 307.584 
L 355.393976 235.172571 
L 352.52109 235.172571 
z
" style="fill:#008000;opacity:0.2;"/>
   </g>
   <g id="patch_288">
    <path clip-path="url(#p6fbc5a28d7)" d="M 355.393976 307.584 
L 358.266862 307.584 
L 358.266862 246.939429 
L 355.393976 246.939429 
z
" style="fill:#008000;opacity:0.2;"/>
   </g>
   <g id="patch_289">
    <path clip-path="url(#p6fbc5a28d7)" d="M 358.266862 307.584 
L 361.139749 307.584 
L 361.139749 241.508571 
L 358.266862 241.508571 
z
" style="fill:#008000;opacity:0.2;"/>
   </g>
   <g id="patch_290">
    <path clip-path="url(#p6fbc5a28d7)" d="M 361.139749 307.584 
L 364.012635 307.584 
L 364.012635 262.326857 
L 361.139749 262.326857 
z
" style="fill:#008000;opacity:0.2;"/>
   </g>
   <g id="patch_291">
    <path clip-path="url(#p6fbc5a28d7)" d="M 364.012635 307.584 
L 366.885522 307.584 
L 366.885522 246.034286 
L 364.012635 246.034286 
z
" style="fill:#008000;opacity:0.2;"/>
   </g>
   <g id="patch_292">
    <path clip-path="url(#p6fbc5a28d7)" d="M 366.885522 307.584 
L 369.758408 307.584 
L 369.758408 248.749714 
L 366.885522 248.749714 
z
" style="fill:#008000;opacity:0.2;"/>
   </g>
   <g id="patch_293">
    <path clip-path="url(#p6fbc5a28d7)" d="M 369.758408 307.584 
L 372.631295 307.584 
L 372.631295 254.180571 
L 369.758408 254.180571 
z
" style="fill:#008000;opacity:0.2;"/>
   </g>
   <g id="patch_294">
    <path clip-path="url(#p6fbc5a28d7)" d="M 372.631295 307.584 
L 375.504181 307.584 
L 375.504181 230.646857 
L 372.631295 230.646857 
z
" style="fill:#008000;opacity:0.2;"/>
   </g>
   <g id="patch_295">
    <path clip-path="url(#p6fbc5a28d7)" d="M 375.504181 307.584 
L 378.377068 307.584 
L 378.377068 232.457143 
L 375.504181 232.457143 
z
" style="fill:#008000;opacity:0.2;"/>
   </g>
   <g id="patch_296">
    <path clip-path="url(#p6fbc5a28d7)" d="M 378.377068 307.584 
L 381.249954 307.584 
L 381.249954 259.611429 
L 378.377068 259.611429 
z
" style="fill:#008000;opacity:0.2;"/>
   </g>
   <g id="patch_297">
    <path clip-path="url(#p6fbc5a28d7)" d="M 381.249954 307.584 
L 384.12284 307.584 
L 384.12284 236.982857 
L 381.249954 236.982857 
z
" style="fill:#008000;opacity:0.2;"/>
   </g>
   <g id="patch_298">
    <path clip-path="url(#p6fbc5a28d7)" d="M 384.12284 307.584 
L 386.995727 307.584 
L 386.995727 245.129143 
L 384.12284 245.129143 
z
" style="fill:#008000;opacity:0.2;"/>
   </g>
   <g id="patch_299">
    <path clip-path="url(#p6fbc5a28d7)" d="M 386.995727 307.584 
L 389.868613 307.584 
L 389.868613 255.085714 
L 386.995727 255.085714 
z
" style="fill:#008000;opacity:0.2;"/>
   </g>
   <g id="patch_300">
    <path clip-path="url(#p6fbc5a28d7)" d="M 389.868613 307.584 
L 392.7415 307.584 
L 392.7415 239.698286 
L 389.868613 239.698286 
z
" style="fill:#008000;opacity:0.2;"/>
   </g>
   <g id="patch_301">
    <path clip-path="url(#p6fbc5a28d7)" d="M 392.7415 307.584 
L 395.614386 307.584 
L 395.614386 243.318857 
L 392.7415 243.318857 
z
" style="fill:#008000;opacity:0.2;"/>
   </g>
   <g id="patch_302">
    <path clip-path="url(#p6fbc5a28d7)" d="M 395.614386 307.584 
L 398.487273 307.584 
L 398.487273 243.318857 
L 395.614386 243.318857 
z
" style="fill:#008000;opacity:0.2;"/>
   </g>
   <g id="matplotlib.axis_1">
    <g id="xtick_1">
     <g id="line2d_1">
      <defs>
       <path d="M 0 0 
L 0 3.5 
" id="mb6e3e23cfe" style="stroke:#000000;stroke-width:0.8;"/>
      </defs>
      <g>
       <use style="stroke:#000000;stroke-width:0.8;" x="117.324185" xlink:href="#mb6e3e23cfe" y="307.584"/>
      </g>
     </g>
     <g id="text_1">
      <!-- 2 -->
      <g transform="translate(114.142935 322.182437)scale(0.1 -0.1)">
       <defs>
        <path d="M 1228 531 
L 3431 531 
L 3431 0 
L 469 0 
L 469 531 
Q 828 903 1448 1529 
Q 2069 2156 2228 2338 
Q 2531 2678 2651 2914 
Q 2772 3150 2772 3378 
Q 2772 3750 2511 3984 
Q 2250 4219 1831 4219 
Q 1534 4219 1204 4116 
Q 875 4013 500 3803 
L 500 4441 
Q 881 4594 1212 4672 
Q 1544 4750 1819 4750 
Q 2544 4750 2975 4387 
Q 3406 4025 3406 3419 
Q 3406 3131 3298 2873 
Q 3191 2616 2906 2266 
Q 2828 2175 2409 1742 
Q 1991 1309 1228 531 
z
" id="DejaVuSans-32" transform="scale(0.015625)"/>
       </defs>
       <use xlink:href="#DejaVuSans-32"/>
      </g>
     </g>
    </g>
    <g id="xtick_2">
     <g id="line2d_2">
      <g>
       <use style="stroke:#000000;stroke-width:0.8;" x="178.57976" xlink:href="#mb6e3e23cfe" y="307.584"/>
      </g>
     </g>
     <g id="text_2">
      <!-- 3 -->
      <g transform="translate(175.39851 322.182437)scale(0.1 -0.1)">
       <defs>
        <path d="M 2597 2516 
Q 3050 2419 3304 2112 
Q 3559 1806 3559 1356 
Q 3559 666 3084 287 
Q 2609 -91 1734 -91 
Q 1441 -91 1130 -33 
Q 819 25 488 141 
L 488 750 
Q 750 597 1062 519 
Q 1375 441 1716 441 
Q 2309 441 2620 675 
Q 2931 909 2931 1356 
Q 2931 1769 2642 2001 
Q 2353 2234 1838 2234 
L 1294 2234 
L 1294 2753 
L 1863 2753 
Q 2328 2753 2575 2939 
Q 2822 3125 2822 3475 
Q 2822 3834 2567 4026 
Q 2313 4219 1838 4219 
Q 1578 4219 1281 4162 
Q 984 4106 628 3988 
L 628 4550 
Q 988 4650 1302 4700 
Q 1616 4750 1894 4750 
Q 2613 4750 3031 4423 
Q 3450 4097 3450 3541 
Q 3450 3153 3228 2886 
Q 3006 2619 2597 2516 
z
" id="DejaVuSans-33" transform="scale(0.015625)"/>
       </defs>
       <use xlink:href="#DejaVuSans-33"/>
      </g>
     </g>
    </g>
    <g id="xtick_3">
     <g id="line2d_3">
      <g>
       <use style="stroke:#000000;stroke-width:0.8;" x="239.835334" xlink:href="#mb6e3e23cfe" y="307.584"/>
      </g>
     </g>
     <g id="text_3">
      <!-- 4 -->
      <g transform="translate(236.654084 322.182437)scale(0.1 -0.1)">
       <defs>
        <path d="M 2419 4116 
L 825 1625 
L 2419 1625 
L 2419 4116 
z
M 2253 4666 
L 3047 4666 
L 3047 1625 
L 3713 1625 
L 3713 1100 
L 3047 1100 
L 3047 0 
L 2419 0 
L 2419 1100 
L 313 1100 
L 313 1709 
L 2253 4666 
z
" id="DejaVuSans-34" transform="scale(0.015625)"/>
       </defs>
       <use xlink:href="#DejaVuSans-34"/>
      </g>
     </g>
    </g>
    <g id="xtick_4">
     <g id="line2d_4">
      <g>
       <use style="stroke:#000000;stroke-width:0.8;" x="301.090909" xlink:href="#mb6e3e23cfe" y="307.584"/>
      </g>
     </g>
     <g id="text_4">
      <!-- 5 -->
      <g transform="translate(297.909659 322.182437)scale(0.1 -0.1)">
       <defs>
        <path d="M 691 4666 
L 3169 4666 
L 3169 4134 
L 1269 4134 
L 1269 2991 
Q 1406 3038 1543 3061 
Q 1681 3084 1819 3084 
Q 2600 3084 3056 2656 
Q 3513 2228 3513 1497 
Q 3513 744 3044 326 
Q 2575 -91 1722 -91 
Q 1428 -91 1123 -41 
Q 819 9 494 109 
L 494 744 
Q 775 591 1075 516 
Q 1375 441 1709 441 
Q 2250 441 2565 725 
Q 2881 1009 2881 1497 
Q 2881 1984 2565 2268 
Q 2250 2553 1709 2553 
Q 1456 2553 1204 2497 
Q 953 2441 691 2322 
L 691 4666 
z
" id="DejaVuSans-35" transform="scale(0.015625)"/>
       </defs>
       <use xlink:href="#DejaVuSans-35"/>
      </g>
     </g>
    </g>
    <g id="xtick_5">
     <g id="line2d_5">
      <g>
       <use style="stroke:#000000;stroke-width:0.8;" x="362.346484" xlink:href="#mb6e3e23cfe" y="307.584"/>
      </g>
     </g>
     <g id="text_5">
      <!-- 6 -->
      <g transform="translate(359.165234 322.182437)scale(0.1 -0.1)">
       <defs>
        <path d="M 2113 2584 
Q 1688 2584 1439 2293 
Q 1191 2003 1191 1497 
Q 1191 994 1439 701 
Q 1688 409 2113 409 
Q 2538 409 2786 701 
Q 3034 994 3034 1497 
Q 3034 2003 2786 2293 
Q 2538 2584 2113 2584 
z
M 3366 4563 
L 3366 3988 
Q 3128 4100 2886 4159 
Q 2644 4219 2406 4219 
Q 1781 4219 1451 3797 
Q 1122 3375 1075 2522 
Q 1259 2794 1537 2939 
Q 1816 3084 2150 3084 
Q 2853 3084 3261 2657 
Q 3669 2231 3669 1497 
Q 3669 778 3244 343 
Q 2819 -91 2113 -91 
Q 1303 -91 875 529 
Q 447 1150 447 2328 
Q 447 3434 972 4092 
Q 1497 4750 2381 4750 
Q 2619 4750 2861 4703 
Q 3103 4656 3366 4563 
z
" id="DejaVuSans-36" transform="scale(0.015625)"/>
       </defs>
       <use xlink:href="#DejaVuSans-36"/>
      </g>
     </g>
    </g>
   </g>
   <g id="matplotlib.axis_2">
    <g id="ytick_1">
     <g id="line2d_6">
      <defs>
       <path d="M 0 0 
L -3.5 0 
" id="m2b9d88334b" style="stroke:#000000;stroke-width:0.8;"/>
      </defs>
      <g>
       <use style="stroke:#000000;stroke-width:0.8;" x="57.6" xlink:href="#m2b9d88334b" y="307.584"/>
      </g>
     </g>
     <g id="text_6">
      <!-- 0 -->
      <g transform="translate(44.2375 311.383219)scale(0.1 -0.1)">
       <defs>
        <path d="M 2034 4250 
Q 1547 4250 1301 3770 
Q 1056 3291 1056 2328 
Q 1056 1369 1301 889 
Q 1547 409 2034 409 
Q 2525 409 2770 889 
Q 3016 1369 3016 2328 
Q 3016 3291 2770 3770 
Q 2525 4250 2034 4250 
z
M 2034 4750 
Q 2819 4750 3233 4129 
Q 3647 3509 3647 2328 
Q 3647 1150 3233 529 
Q 2819 -91 2034 -91 
Q 1250 -91 836 529 
Q 422 1150 422 2328 
Q 422 3509 836 4129 
Q 1250 4750 2034 4750 
z
" id="DejaVuSans-30" transform="scale(0.015625)"/>
       </defs>
       <use xlink:href="#DejaVuSans-30"/>
      </g>
     </g>
    </g>
    <g id="ytick_2">
     <g id="line2d_7">
      <g>
       <use style="stroke:#000000;stroke-width:0.8;" x="57.6" xlink:href="#m2b9d88334b" y="262.326857"/>
      </g>
     </g>
     <g id="text_7">
      <!-- 50 -->
      <g transform="translate(37.875 266.126076)scale(0.1 -0.1)">
       <use xlink:href="#DejaVuSans-35"/>
       <use x="63.623047" xlink:href="#DejaVuSans-30"/>
      </g>
     </g>
    </g>
    <g id="ytick_3">
     <g id="line2d_8">
      <g>
       <use style="stroke:#000000;stroke-width:0.8;" x="57.6" xlink:href="#m2b9d88334b" y="217.069714"/>
      </g>
     </g>
     <g id="text_8">
      <!-- 100 -->
      <g transform="translate(31.5125 220.868933)scale(0.1 -0.1)">
       <defs>
        <path d="M 794 531 
L 1825 531 
L 1825 4091 
L 703 3866 
L 703 4441 
L 1819 4666 
L 2450 4666 
L 2450 531 
L 3481 531 
L 3481 0 
L 794 0 
L 794 531 
z
" id="DejaVuSans-31" transform="scale(0.015625)"/>
       </defs>
       <use xlink:href="#DejaVuSans-31"/>
       <use x="63.623047" xlink:href="#DejaVuSans-30"/>
       <use x="127.246094" xlink:href="#DejaVuSans-30"/>
      </g>
     </g>
    </g>
    <g id="ytick_4">
     <g id="line2d_9">
      <g>
       <use style="stroke:#000000;stroke-width:0.8;" x="57.6" xlink:href="#m2b9d88334b" y="171.812571"/>
      </g>
     </g>
     <g id="text_9">
      <!-- 150 -->
      <g transform="translate(31.5125 175.61179)scale(0.1 -0.1)">
       <use xlink:href="#DejaVuSans-31"/>
       <use x="63.623047" xlink:href="#DejaVuSans-35"/>
       <use x="127.246094" xlink:href="#DejaVuSans-30"/>
      </g>
     </g>
    </g>
    <g id="ytick_5">
     <g id="line2d_10">
      <g>
       <use style="stroke:#000000;stroke-width:0.8;" x="57.6" xlink:href="#m2b9d88334b" y="126.555429"/>
      </g>
     </g>
     <g id="text_10">
      <!-- 200 -->
      <g transform="translate(31.5125 130.354647)scale(0.1 -0.1)">
       <use xlink:href="#DejaVuSans-32"/>
       <use x="63.623047" xlink:href="#DejaVuSans-30"/>
       <use x="127.246094" xlink:href="#DejaVuSans-30"/>
      </g>
     </g>
    </g>
    <g id="ytick_6">
     <g id="line2d_11">
      <g>
       <use style="stroke:#000000;stroke-width:0.8;" x="57.6" xlink:href="#m2b9d88334b" y="81.298286"/>
      </g>
     </g>
     <g id="text_11">
      <!-- 250 -->
      <g transform="translate(31.5125 85.097504)scale(0.1 -0.1)">
       <use xlink:href="#DejaVuSans-32"/>
       <use x="63.623047" xlink:href="#DejaVuSans-35"/>
       <use x="127.246094" xlink:href="#DejaVuSans-30"/>
      </g>
     </g>
    </g>
   </g>
   <g id="patch_303">
    <path clip-path="url(#p6fbc5a28d7)" d="M 73.832727 307.584 
L 73.832727 306.678857 
L 77.079273 306.678857 
L 77.079273 307.584 
L 83.572364 307.584 
L 83.572364 306.678857 
L 86.818909 306.678857 
L 86.818909 307.584 
L 93.312 307.584 
L 93.312 305.773714 
L 96.558545 305.773714 
L 96.558545 307.584 
L 103.051636 307.584 
L 103.051636 306.678857 
L 106.298182 306.678857 
L 106.298182 305.773714 
L 109.544727 305.773714 
L 109.544727 307.584 
L 112.791273 307.584 
L 112.791273 304.868571 
L 116.037818 304.868571 
L 116.037818 307.584 
L 119.284364 307.584 
L 119.284364 306.678857 
L 122.530909 306.678857 
L 122.530909 304.868571 
L 125.777455 304.868571 
L 125.777455 302.153143 
L 129.024 302.153143 
L 129.024 301.248 
L 132.270545 301.248 
L 132.270545 305.773714 
L 135.517091 305.773714 
L 135.517091 302.153143 
L 138.763636 302.153143 
L 138.763636 304.868571 
L 142.010182 304.868571 
L 142.010182 306.678857 
L 145.256727 306.678857 
L 145.256727 302.153143 
L 148.503273 302.153143 
L 148.503273 297.627429 
L 151.749818 297.627429 
L 151.749818 294.912 
L 154.996364 294.912 
L 154.996364 295.817143 
L 158.242909 295.817143 
L 158.242909 294.006857 
L 161.489455 294.006857 
L 161.489455 297.627429 
L 164.736 297.627429 
L 164.736 294.912 
L 167.982545 294.912 
L 167.982545 301.248 
L 171.229091 301.248 
L 171.229091 294.006857 
L 174.475636 294.006857 
L 174.475636 283.145143 
L 177.722182 283.145143 
L 177.722182 286.765714 
L 180.968727 286.765714 
L 180.968727 276.809143 
L 184.215273 276.809143 
L 184.215273 278.619429 
L 187.461818 278.619429 
L 187.461818 289.481143 
L 190.708364 289.481143 
L 190.708364 255.990857 
L 193.954909 255.990857 
L 193.954909 276.809143 
L 197.201455 276.809143 
L 197.201455 271.378286 
L 200.448 271.378286 
L 200.448 261.421714 
L 203.694545 261.421714 
L 203.694545 247.844571 
L 206.941091 247.844571 
L 206.941091 264.137143 
L 210.187636 264.137143 
L 210.187636 267.757714 
L 213.434182 267.757714 
L 213.434182 246.034286 
L 216.680727 246.034286 
L 216.680727 254.180571 
L 219.927273 254.180571 
L 219.927273 258.706286 
L 223.173818 258.706286 
L 223.173818 217.069714 
L 226.420364 217.069714 
L 226.420364 251.465143 
L 229.666909 251.465143 
L 229.666909 246.939429 
L 232.913455 246.939429 
L 232.913455 229.741714 
L 236.16 229.741714 
L 236.16 202.587429 
L 239.406545 202.587429 
L 239.406545 217.974857 
L 242.653091 217.974857 
L 242.653091 232.457143 
L 245.899636 232.457143 
L 245.899636 202.587429 
L 249.146182 202.587429 
L 249.146182 220.690286 
L 252.392727 220.690286 
L 252.392727 205.302857 
L 255.639273 205.302857 
L 255.639273 179.053714 
L 258.885818 179.053714 
L 258.885818 223.405714 
L 262.132364 223.405714 
L 262.132364 198.966857 
L 265.378909 198.966857 
L 265.378909 193.536 
L 268.625455 193.536 
L 268.625455 158.235429 
L 271.872 158.235429 
L 271.872 186.294857 
L 275.118545 186.294857 
L 275.118545 177.243429 
L 278.365091 177.243429 
L 278.365091 178.148571 
L 281.611636 178.148571 
L 281.611636 168.192 
L 284.858182 168.192 
L 284.858182 175.433143 
L 288.104727 175.433143 
L 288.104727 142.848 
L 291.351273 142.848 
L 291.351273 165.476571 
L 297.844364 165.476571 
L 297.844364 155.52 
L 301.090909 155.52 
L 301.090909 114.788571 
L 304.337455 114.788571 
L 304.337455 142.848 
L 307.584 142.848 
L 307.584 141.037714 
L 310.830545 141.037714 
L 310.830545 123.84 
L 314.077091 123.84 
L 314.077091 143.753143 
L 317.323636 143.753143 
L 317.323636 127.460571 
L 320.570182 127.460571 
L 320.570182 98.496 
L 323.816727 98.496 
L 323.816727 134.701714 
L 327.063273 134.701714 
L 327.063273 123.84 
L 330.309818 123.84 
L 330.309818 144.658286 
L 333.556364 144.658286 
L 333.556364 69.531429 
L 336.802909 69.531429 
L 336.802909 116.598857 
L 340.049455 116.598857 
L 340.049455 131.986286 
L 343.296 131.986286 
L 343.296 95.780571 
L 346.542545 95.780571 
L 346.542545 117.504 
L 349.789091 117.504 
L 349.789091 119.314286 
L 353.035636 119.314286 
L 353.035636 77.677714 
L 356.282182 77.677714 
L 356.282182 108.452571 
L 359.528727 108.452571 
L 359.528727 122.934857 
L 362.775273 122.934857 
L 362.775273 106.642286 
L 366.021818 106.642286 
L 366.021818 61.385143 
L 369.268364 61.385143 
L 369.268364 131.081143 
L 372.514909 131.081143 
L 372.514909 130.176 
L 375.761455 130.176 
L 375.761455 59.574857 
L 379.008 59.574857 
L 379.008 98.496 
L 382.254545 98.496 
L 382.254545 99.401143 
L 385.501091 99.401143 
L 385.501091 54.144 
L 388.747636 54.144 
L 388.747636 89.444571 
L 391.994182 89.444571 
L 391.994182 85.824 
L 395.240727 85.824 
L 395.240727 57.764571 
L 398.487273 57.764571 
L 398.487273 307.584 
L 398.487273 307.584 
" style="fill:none;stroke:#ff0000;stroke-linejoin:miter;"/>
   </g>
   <g id="patch_304">
    <path clip-path="url(#p6fbc5a28d7)" d="M 112.423739 307.584 
L 112.423739 306.678857 
L 115.284375 306.678857 
L 115.284375 307.584 
L 118.14501 307.584 
L 118.14501 306.678857 
L 121.005645 306.678857 
L 121.005645 307.584 
L 123.866281 307.584 
L 123.866281 306.678857 
L 129.587551 306.678857 
L 129.587551 307.584 
L 132.448187 307.584 
L 132.448187 304.868571 
L 135.308822 304.868571 
L 135.308822 307.584 
L 141.030093 307.584 
L 141.030093 304.868571 
L 143.890728 304.868571 
L 143.890728 305.773714 
L 146.751363 305.773714 
L 146.751363 303.963429 
L 152.472634 303.963429 
L 152.472634 304.868571 
L 155.333269 304.868571 
L 155.333269 301.248 
L 158.193905 301.248 
L 158.193905 298.532571 
L 161.05454 298.532571 
L 161.05454 299.437714 
L 163.915175 299.437714 
L 163.915175 302.153143 
L 166.775811 302.153143 
L 166.775811 300.342857 
L 169.636446 300.342857 
L 169.636446 298.532571 
L 172.497081 298.532571 
L 172.497081 297.627429 
L 175.357717 297.627429 
L 175.357717 296.722286 
L 178.218352 296.722286 
L 178.218352 298.532571 
L 181.078987 298.532571 
L 181.078987 295.817143 
L 183.939623 295.817143 
L 183.939623 300.342857 
L 186.800258 300.342857 
L 186.800258 291.291429 
L 189.660893 291.291429 
L 189.660893 295.817143 
L 192.521529 295.817143 
L 192.521529 285.860571 
L 195.382164 285.860571 
L 195.382164 297.627429 
L 198.242799 297.627429 
L 198.242799 299.437714 
L 201.103435 299.437714 
L 201.103435 294.006857 
L 203.96407 294.006857 
L 203.96407 289.481143 
L 206.824705 289.481143 
L 206.824705 288.576 
L 209.685341 288.576 
L 209.685341 290.386286 
L 212.545976 290.386286 
L 212.545976 289.481143 
L 215.406611 289.481143 
L 215.406611 286.765714 
L 218.267247 286.765714 
L 218.267247 283.145143 
L 221.127882 283.145143 
L 221.127882 274.998857 
L 223.988517 274.998857 
L 223.988517 292.196571 
L 226.849153 292.196571 
L 226.849153 283.145143 
L 229.709788 283.145143 
L 229.709788 284.955429 
L 232.570423 284.955429 
L 232.570423 294.006857 
L 235.431059 294.006857 
L 235.431059 286.765714 
L 238.291694 286.765714 
L 238.291694 279.524571 
L 241.152329 279.524571 
L 241.152329 288.576 
L 244.012965 288.576 
L 244.012965 287.670857 
L 246.8736 287.670857 
L 246.8736 282.24 
L 249.734235 282.24 
L 249.734235 286.765714 
L 252.594871 286.765714 
L 252.594871 274.093714 
L 255.455506 274.093714 
L 255.455506 281.334857 
L 258.316141 281.334857 
L 258.316141 284.955429 
L 261.176777 284.955429 
L 261.176777 284.050286 
L 264.037412 284.050286 
L 264.037412 268.662857 
L 266.898047 268.662857 
L 266.898047 286.765714 
L 269.758683 286.765714 
L 269.758683 274.998857 
L 272.619318 274.998857 
L 272.619318 279.524571 
L 275.479953 279.524571 
L 275.479953 281.334857 
L 278.340589 281.334857 
L 278.340589 277.714286 
L 281.201224 277.714286 
L 281.201224 272.283429 
L 284.061859 272.283429 
L 284.061859 283.145143 
L 286.922495 283.145143 
L 286.922495 266.852571 
L 289.78313 266.852571 
L 289.78313 268.662857 
L 292.643765 268.662857 
L 292.643765 273.188571 
L 295.504401 273.188571 
L 295.504401 265.042286 
L 298.365036 265.042286 
L 298.365036 267.757714 
L 301.225671 267.757714 
L 301.225671 266.852571 
L 304.086307 266.852571 
L 304.086307 254.180571 
L 306.946942 254.180571 
L 306.946942 265.042286 
L 309.807577 265.042286 
L 309.807577 279.524571 
L 312.668213 279.524571 
L 312.668213 261.421714 
L 315.528848 261.421714 
L 315.528848 254.180571 
L 318.389483 254.180571 
L 318.389483 264.137143 
L 321.250119 264.137143 
L 321.250119 258.706286 
L 324.110754 258.706286 
L 324.110754 250.56 
L 326.971389 250.56 
L 326.971389 255.990857 
L 329.832025 255.990857 
L 329.832025 265.947429 
L 332.69266 265.947429 
L 332.69266 253.275429 
L 335.553295 253.275429 
L 335.553295 276.809143 
L 338.413931 276.809143 
L 338.413931 262.326857 
L 341.274566 262.326857 
L 341.274566 255.990857 
L 344.135201 255.990857 
L 344.135201 269.568 
L 346.995837 269.568 
L 346.995837 249.654857 
L 349.856472 249.654857 
L 349.856472 229.741714 
L 352.717107 229.741714 
L 352.717107 265.947429 
L 355.577743 265.947429 
L 355.577743 251.465143 
L 358.438378 251.465143 
L 358.438378 247.844571 
L 361.299013 247.844571 
L 361.299013 268.662857 
L 364.159649 268.662857 
L 364.159649 241.508571 
L 367.020284 241.508571 
L 367.020284 236.982857 
L 369.880919 236.982857 
L 369.880919 251.465143 
L 372.741555 251.465143 
L 372.741555 243.318857 
L 375.60219 243.318857 
L 375.60219 238.793143 
L 378.462825 238.793143 
L 378.462825 266.852571 
L 381.323461 266.852571 
L 381.323461 241.508571 
L 384.184096 241.508571 
L 384.184096 222.500571 
L 387.044731 222.500571 
L 387.044731 255.990857 
L 389.905367 255.990857 
L 389.905367 238.793143 
L 395.626637 238.793143 
L 395.626637 244.224 
L 398.487273 244.224 
L 398.487273 307.584 
L 398.487273 307.584 
" style="fill:none;stroke:#0000ff;stroke-linejoin:miter;"/>
   </g>
   <g id="patch_305">
    <path clip-path="url(#p6fbc5a28d7)" d="M 111.198628 307.584 
L 111.198628 306.678857 
L 116.944401 306.678857 
L 116.944401 307.584 
L 125.56306 307.584 
L 125.56306 306.678857 
L 128.435946 306.678857 
L 128.435946 307.584 
L 134.181719 307.584 
L 134.181719 305.773714 
L 137.054606 305.773714 
L 137.054606 304.868571 
L 139.927492 304.868571 
L 139.927492 306.678857 
L 142.800379 306.678857 
L 142.800379 304.868571 
L 151.419038 304.868571 
L 151.419038 303.058286 
L 154.291925 303.058286 
L 154.291925 304.868571 
L 157.164811 304.868571 
L 157.164811 305.773714 
L 160.037697 305.773714 
L 160.037697 299.437714 
L 162.910584 299.437714 
L 162.910584 303.963429 
L 165.78347 303.963429 
L 165.78347 303.058286 
L 171.529243 303.058286 
L 171.529243 301.248 
L 174.40213 301.248 
L 174.40213 304.868571 
L 177.275016 304.868571 
L 177.275016 296.722286 
L 180.147903 296.722286 
L 180.147903 303.058286 
L 183.020789 303.058286 
L 183.020789 295.817143 
L 185.893675 295.817143 
L 185.893675 294.912 
L 188.766562 294.912 
L 188.766562 299.437714 
L 191.639448 299.437714 
L 191.639448 294.006857 
L 194.512335 294.006857 
L 194.512335 303.058286 
L 197.385221 303.058286 
L 197.385221 292.196571 
L 200.258108 292.196571 
L 200.258108 293.101714 
L 203.130994 293.101714 
L 203.130994 294.912 
L 206.003881 294.912 
L 206.003881 280.429714 
L 208.876767 280.429714 
L 208.876767 288.576 
L 211.749654 288.576 
L 211.749654 295.817143 
L 214.62254 295.817143 
L 214.62254 283.145143 
L 217.495426 283.145143 
L 217.495426 269.568 
L 220.368313 269.568 
L 220.368313 289.481143 
L 223.241199 289.481143 
L 223.241199 279.524571 
L 226.114086 279.524571 
L 226.114086 282.24 
L 228.986972 282.24 
L 228.986972 280.429714 
L 231.859859 280.429714 
L 231.859859 267.757714 
L 234.732745 267.757714 
L 234.732745 278.619429 
L 237.605632 278.619429 
L 237.605632 271.378286 
L 240.478518 271.378286 
L 240.478518 270.473143 
L 243.351404 270.473143 
L 243.351404 274.998857 
L 246.224291 274.998857 
L 246.224291 269.568 
L 249.097177 269.568 
L 249.097177 282.24 
L 251.970064 282.24 
L 251.970064 252.370286 
L 254.84295 252.370286 
L 254.84295 261.421714 
L 257.715837 261.421714 
L 257.715837 272.283429 
L 260.588723 272.283429 
L 260.588723 267.757714 
L 263.46161 267.757714 
L 263.46161 270.473143 
L 266.334496 270.473143 
L 266.334496 277.714286 
L 269.207383 277.714286 
L 269.207383 266.852571 
L 272.080269 266.852571 
L 272.080269 267.757714 
L 274.953155 267.757714 
L 274.953155 265.947429 
L 277.826042 265.947429 
L 277.826042 274.998857 
L 280.698928 274.998857 
L 280.698928 251.465143 
L 283.571815 251.465143 
L 283.571815 259.611429 
L 286.444701 259.611429 
L 286.444701 264.137143 
L 289.317588 264.137143 
L 289.317588 263.232 
L 292.190474 263.232 
L 292.190474 258.706286 
L 295.063361 258.706286 
L 295.063361 280.429714 
L 297.936247 280.429714 
L 297.936247 260.516571 
L 300.809133 260.516571 
L 300.809133 256.896 
L 303.68202 256.896 
L 303.68202 255.990857 
L 306.554906 255.990857 
L 306.554906 257.801143 
L 309.427793 257.801143 
L 309.427793 262.326857 
L 312.300679 262.326857 
L 312.300679 257.801143 
L 315.173566 257.801143 
L 315.173566 255.085714 
L 318.046452 255.085714 
L 318.046452 253.275429 
L 320.919339 253.275429 
L 320.919339 246.939429 
L 323.792225 246.939429 
L 323.792225 260.516571 
L 326.665111 260.516571 
L 326.665111 252.370286 
L 329.537998 252.370286 
L 329.537998 242.413714 
L 332.410884 242.413714 
L 332.410884 264.137143 
L 335.283771 264.137143 
L 335.283771 252.370286 
L 338.156657 252.370286 
L 338.156657 255.990857 
L 341.029544 255.990857 
L 341.029544 251.465143 
L 343.90243 251.465143 
L 343.90243 259.611429 
L 346.775317 259.611429 
L 346.775317 246.939429 
L 349.648203 246.939429 
L 349.648203 274.998857 
L 352.52109 274.998857 
L 352.52109 235.172571 
L 355.393976 235.172571 
L 355.393976 246.939429 
L 358.266862 246.939429 
L 358.266862 241.508571 
L 361.139749 241.508571 
L 361.139749 262.326857 
L 364.012635 262.326857 
L 364.012635 246.034286 
L 366.885522 246.034286 
L 366.885522 248.749714 
L 369.758408 248.749714 
L 369.758408 254.180571 
L 372.631295 254.180571 
L 372.631295 230.646857 
L 375.504181 230.646857 
L 375.504181 232.457143 
L 378.377068 232.457143 
L 378.377068 259.611429 
L 381.249954 259.611429 
L 381.249954 236.982857 
L 384.12284 236.982857 
L 384.12284 245.129143 
L 386.995727 245.129143 
L 386.995727 255.085714 
L 389.868613 255.085714 
L 389.868613 239.698286 
L 392.7415 239.698286 
L 392.7415 243.318857 
L 398.487273 243.318857 
L 398.487273 307.584 
L 398.487273 307.584 
" style="fill:none;stroke:#008000;stroke-linejoin:miter;"/>
   </g>
   <g id="patch_306">
    <path d="M 57.6 307.584 
L 57.6 41.472 
" style="fill:none;stroke:#000000;stroke-linecap:square;stroke-linejoin:miter;stroke-width:0.8;"/>
   </g>
   <g id="patch_307">
    <path d="M 414.72 307.584 
L 414.72 41.472 
" style="fill:none;stroke:#000000;stroke-linecap:square;stroke-linejoin:miter;stroke-width:0.8;"/>
   </g>
   <g id="patch_308">
    <path d="M 57.6 307.584 
L 414.72 307.584 
" style="fill:none;stroke:#000000;stroke-linecap:square;stroke-linejoin:miter;stroke-width:0.8;"/>
   </g>
   <g id="patch_309">
    <path d="M 57.6 41.472 
L 414.72 41.472 
" style="fill:none;stroke:#000000;stroke-linecap:square;stroke-linejoin:miter;stroke-width:0.8;"/>
   </g>
   <g id="legend_1">
    <g id="patch_310">
     <path d="M 64.6 93.506375 
L 150.95 93.506375 
Q 152.95 93.506375 152.95 91.506375 
L 152.95 48.472 
Q 152.95 46.472 150.95 46.472 
L 64.6 46.472 
Q 62.6 46.472 62.6 48.472 
L 62.6 91.506375 
Q 62.6 93.506375 64.6 93.506375 
z
" style="fill:#ffffff;opacity:0.8;stroke:#cccccc;stroke-linejoin:miter;"/>
    </g>
    <g id="patch_311">
     <path d="M 66.6 58.070438 
L 86.6 58.070438 
L 86.6 51.070438 
L 66.6 51.070438 
z
" style="fill:none;stroke:#ff0000;stroke-linejoin:miter;"/>
    </g>
    <g id="text_12">
     <!-- optimal -->
     <g transform="translate(94.6 58.070438)scale(0.1 -0.1)">
      <defs>
       <path d="M 1959 3097 
Q 1497 3097 1228 2736 
Q 959 2375 959 1747 
Q 959 1119 1226 758 
Q 1494 397 1959 397 
Q 2419 397 2687 759 
Q 2956 1122 2956 1747 
Q 2956 2369 2687 2733 
Q 2419 3097 1959 3097 
z
M 1959 3584 
Q 2709 3584 3137 3096 
Q 3566 2609 3566 1747 
Q 3566 888 3137 398 
Q 2709 -91 1959 -91 
Q 1206 -91 779 398 
Q 353 888 353 1747 
Q 353 2609 779 3096 
Q 1206 3584 1959 3584 
z
" id="DejaVuSans-6f" transform="scale(0.015625)"/>
       <path d="M 1159 525 
L 1159 -1331 
L 581 -1331 
L 581 3500 
L 1159 3500 
L 1159 2969 
Q 1341 3281 1617 3432 
Q 1894 3584 2278 3584 
Q 2916 3584 3314 3078 
Q 3713 2572 3713 1747 
Q 3713 922 3314 415 
Q 2916 -91 2278 -91 
Q 1894 -91 1617 61 
Q 1341 213 1159 525 
z
M 3116 1747 
Q 3116 2381 2855 2742 
Q 2594 3103 2138 3103 
Q 1681 3103 1420 2742 
Q 1159 2381 1159 1747 
Q 1159 1113 1420 752 
Q 1681 391 2138 391 
Q 2594 391 2855 752 
Q 3116 1113 3116 1747 
z
" id="DejaVuSans-70" transform="scale(0.015625)"/>
       <path d="M 1172 4494 
L 1172 3500 
L 2356 3500 
L 2356 3053 
L 1172 3053 
L 1172 1153 
Q 1172 725 1289 603 
Q 1406 481 1766 481 
L 2356 481 
L 2356 0 
L 1766 0 
Q 1100 0 847 248 
Q 594 497 594 1153 
L 594 3053 
L 172 3053 
L 172 3500 
L 594 3500 
L 594 4494 
L 1172 4494 
z
" id="DejaVuSans-74" transform="scale(0.015625)"/>
       <path d="M 603 3500 
L 1178 3500 
L 1178 0 
L 603 0 
L 603 3500 
z
M 603 4863 
L 1178 4863 
L 1178 4134 
L 603 4134 
L 603 4863 
z
" id="DejaVuSans-69" transform="scale(0.015625)"/>
       <path d="M 3328 2828 
Q 3544 3216 3844 3400 
Q 4144 3584 4550 3584 
Q 5097 3584 5394 3201 
Q 5691 2819 5691 2113 
L 5691 0 
L 5113 0 
L 5113 2094 
Q 5113 2597 4934 2840 
Q 4756 3084 4391 3084 
Q 3944 3084 3684 2787 
Q 3425 2491 3425 1978 
L 3425 0 
L 2847 0 
L 2847 2094 
Q 2847 2600 2669 2842 
Q 2491 3084 2119 3084 
Q 1678 3084 1418 2786 
Q 1159 2488 1159 1978 
L 1159 0 
L 581 0 
L 581 3500 
L 1159 3500 
L 1159 2956 
Q 1356 3278 1631 3431 
Q 1906 3584 2284 3584 
Q 2666 3584 2933 3390 
Q 3200 3197 3328 2828 
z
" id="DejaVuSans-6d" transform="scale(0.015625)"/>
       <path d="M 2194 1759 
Q 1497 1759 1228 1600 
Q 959 1441 959 1056 
Q 959 750 1161 570 
Q 1363 391 1709 391 
Q 2188 391 2477 730 
Q 2766 1069 2766 1631 
L 2766 1759 
L 2194 1759 
z
M 3341 1997 
L 3341 0 
L 2766 0 
L 2766 531 
Q 2569 213 2275 61 
Q 1981 -91 1556 -91 
Q 1019 -91 701 211 
Q 384 513 384 1019 
Q 384 1609 779 1909 
Q 1175 2209 1959 2209 
L 2766 2209 
L 2766 2266 
Q 2766 2663 2505 2880 
Q 2244 3097 1772 3097 
Q 1472 3097 1187 3025 
Q 903 2953 641 2809 
L 641 3341 
Q 956 3463 1253 3523 
Q 1550 3584 1831 3584 
Q 2591 3584 2966 3190 
Q 3341 2797 3341 1997 
z
" id="DejaVuSans-61" transform="scale(0.015625)"/>
       <path d="M 603 4863 
L 1178 4863 
L 1178 0 
L 603 0 
L 603 4863 
z
" id="DejaVuSans-6c" transform="scale(0.015625)"/>
      </defs>
      <use xlink:href="#DejaVuSans-6f"/>
      <use x="61.181641" xlink:href="#DejaVuSans-70"/>
      <use x="124.658203" xlink:href="#DejaVuSans-74"/>
      <use x="163.867188" xlink:href="#DejaVuSans-69"/>
      <use x="191.650391" xlink:href="#DejaVuSans-6d"/>
      <use x="289.0625" xlink:href="#DejaVuSans-61"/>
      <use x="350.341797" xlink:href="#DejaVuSans-6c"/>
     </g>
    </g>
    <g id="patch_312">
     <path d="M 66.6 72.748563 
L 86.6 72.748563 
L 86.6 65.748563 
L 66.6 65.748563 
z
" style="fill:none;stroke:#0000ff;stroke-linejoin:miter;"/>
    </g>
    <g id="text_13">
     <!-- high -->
     <g transform="translate(94.6 72.748563)scale(0.1 -0.1)">
      <defs>
       <path d="M 3513 2113 
L 3513 0 
L 2938 0 
L 2938 2094 
Q 2938 2591 2744 2837 
Q 2550 3084 2163 3084 
Q 1697 3084 1428 2787 
Q 1159 2491 1159 1978 
L 1159 0 
L 581 0 
L 581 4863 
L 1159 4863 
L 1159 2956 
Q 1366 3272 1645 3428 
Q 1925 3584 2291 3584 
Q 2894 3584 3203 3211 
Q 3513 2838 3513 2113 
z
" id="DejaVuSans-68" transform="scale(0.015625)"/>
       <path d="M 2906 1791 
Q 2906 2416 2648 2759 
Q 2391 3103 1925 3103 
Q 1463 3103 1205 2759 
Q 947 2416 947 1791 
Q 947 1169 1205 825 
Q 1463 481 1925 481 
Q 2391 481 2648 825 
Q 2906 1169 2906 1791 
z
M 3481 434 
Q 3481 -459 3084 -895 
Q 2688 -1331 1869 -1331 
Q 1566 -1331 1297 -1286 
Q 1028 -1241 775 -1147 
L 775 -588 
Q 1028 -725 1275 -790 
Q 1522 -856 1778 -856 
Q 2344 -856 2625 -561 
Q 2906 -266 2906 331 
L 2906 616 
Q 2728 306 2450 153 
Q 2172 0 1784 0 
Q 1141 0 747 490 
Q 353 981 353 1791 
Q 353 2603 747 3093 
Q 1141 3584 1784 3584 
Q 2172 3584 2450 3431 
Q 2728 3278 2906 2969 
L 2906 3500 
L 3481 3500 
L 3481 434 
z
" id="DejaVuSans-67" transform="scale(0.015625)"/>
      </defs>
      <use xlink:href="#DejaVuSans-68"/>
      <use x="63.378906" xlink:href="#DejaVuSans-69"/>
      <use x="91.162109" xlink:href="#DejaVuSans-67"/>
      <use x="154.638672" xlink:href="#DejaVuSans-68"/>
     </g>
    </g>
    <g id="patch_313">
     <path d="M 66.6 87.426688 
L 86.6 87.426688 
L 86.6 80.426688 
L 66.6 80.426688 
z
" style="fill:none;stroke:#008000;stroke-linejoin:miter;"/>
    </g>
    <g id="text_14">
     <!-- timed-high -->
     <g transform="translate(94.6 87.426688)scale(0.1 -0.1)">
      <defs>
       <path d="M 3597 1894 
L 3597 1613 
L 953 1613 
Q 991 1019 1311 708 
Q 1631 397 2203 397 
Q 2534 397 2845 478 
Q 3156 559 3463 722 
L 3463 178 
Q 3153 47 2828 -22 
Q 2503 -91 2169 -91 
Q 1331 -91 842 396 
Q 353 884 353 1716 
Q 353 2575 817 3079 
Q 1281 3584 2069 3584 
Q 2775 3584 3186 3129 
Q 3597 2675 3597 1894 
z
M 3022 2063 
Q 3016 2534 2758 2815 
Q 2500 3097 2075 3097 
Q 1594 3097 1305 2825 
Q 1016 2553 972 2059 
L 3022 2063 
z
" id="DejaVuSans-65" transform="scale(0.015625)"/>
       <path d="M 2906 2969 
L 2906 4863 
L 3481 4863 
L 3481 0 
L 2906 0 
L 2906 525 
Q 2725 213 2448 61 
Q 2172 -91 1784 -91 
Q 1150 -91 751 415 
Q 353 922 353 1747 
Q 353 2572 751 3078 
Q 1150 3584 1784 3584 
Q 2172 3584 2448 3432 
Q 2725 3281 2906 2969 
z
M 947 1747 
Q 947 1113 1208 752 
Q 1469 391 1925 391 
Q 2381 391 2643 752 
Q 2906 1113 2906 1747 
Q 2906 2381 2643 2742 
Q 2381 3103 1925 3103 
Q 1469 3103 1208 2742 
Q 947 2381 947 1747 
z
" id="DejaVuSans-64" transform="scale(0.015625)"/>
       <path d="M 313 2009 
L 1997 2009 
L 1997 1497 
L 313 1497 
L 313 2009 
z
" id="DejaVuSans-2d" transform="scale(0.015625)"/>
      </defs>
      <use xlink:href="#DejaVuSans-74"/>
      <use x="39.208984" xlink:href="#DejaVuSans-69"/>
      <use x="66.992188" xlink:href="#DejaVuSans-6d"/>
      <use x="164.404297" xlink:href="#DejaVuSans-65"/>
      <use x="225.927734" xlink:href="#DejaVuSans-64"/>
      <use x="289.404297" xlink:href="#DejaVuSans-2d"/>
      <use x="325.488281" xlink:href="#DejaVuSans-68"/>
      <use x="388.867188" xlink:href="#DejaVuSans-69"/>
      <use x="416.650391" xlink:href="#DejaVuSans-67"/>
      <use x="480.126953" xlink:href="#DejaVuSans-68"/>
     </g>
    </g>
   </g>
  </g>
 </g>
 <defs>
  <clipPath id="p6fbc5a28d7">
   <rect height="266.112" width="357.12" x="57.6" y="41.472"/>
  </clipPath>
 </defs>
</svg>
