<?xml version="1.0" encoding="utf-8" standalone="no"?>
<!DOCTYPE svg PUBLIC "-//W3C//DTD SVG 1.1//EN"
  "http://www.w3.org/Graphics/SVG/1.1/DTD/svg11.dtd">
<svg height="345.6pt" version="1.1" viewBox="0 0 460.8 345.6" width="460.8pt" xmlns="http://www.w3.org/2000/svg" xmlns:xlink="http://www.w3.org/1999/xlink">
 <metadata>
  <rdf:RDF xmlns:cc="http://creativecommons.org/ns#" xmlns:dc="http://purl.org/dc/elements/1.1/" xmlns:rdf="http://www.w3.org/1999/02/22-rdf-syntax-ns#">
   <cc:Work>
    <dc:type rdf:resource="http://purl.org/dc/dcmitype/StillImage"/>
    <dc:date>2021-09-22T14:17:29.185594</dc:date>
    <dc:format>image/svg+xml</dc:format>
    <dc:creator>
     <cc:Agent>
      <dc:title>Matplotlib v3.4.1, https://matplotlib.org/</dc:title>
     </cc:Agent>
    </dc:creator>
   </cc:Work>
  </rdf:RDF>
 </metadata>
 <defs>
  <style type="text/css">*{stroke-linecap:butt;stroke-linejoin:round;}</style>
 </defs>
 <g id="figure_1">
  <g id="patch_1">
   <path d="M 0 345.6 
L 460.8 345.6 
L 460.8 0 
L 0 0 
z
" style="fill:#ffffff;"/>
  </g>
  <g id="axes_1">
   <g id="patch_2">
    <path d="M 57.6 307.584 
L 414.72 307.584 
L 414.72 41.472 
L 57.6 41.472 
z
" style="fill:#ffffff;"/>
   </g>
   <g id="patch_3">
    <path clip-path="url(#p1342182eec)" d="M 73.832727 307.584 
L 76.613997 307.584 
L 76.613997 187.372278 
L 73.832727 187.372278 
z
" style="fill:#ff0000;opacity:0.2;"/>
   </g>
   <g id="patch_4">
    <path clip-path="url(#p1342182eec)" d="M 76.613997 307.584 
L 79.395266 307.584 
L 79.395266 215.957656 
L 76.613997 215.957656 
z
" style="fill:#ff0000;opacity:0.2;"/>
   </g>
   <g id="patch_5">
    <path clip-path="url(#p1342182eec)" d="M 79.395266 307.584 
L 82.176536 307.584 
L 82.176536 212.384483 
L 79.395266 212.384483 
z
" style="fill:#ff0000;opacity:0.2;"/>
   </g>
   <g id="patch_6">
    <path clip-path="url(#p1342182eec)" d="M 82.176536 307.584 
L 84.957806 307.584 
L 84.957806 197.836568 
L 82.176536 197.836568 
z
" style="fill:#ff0000;opacity:0.2;"/>
   </g>
   <g id="patch_7">
    <path clip-path="url(#p1342182eec)" d="M 84.957806 307.584 
L 87.739075 307.584 
L 87.739075 198.857474 
L 84.957806 198.857474 
z
" style="fill:#ff0000;opacity:0.2;"/>
   </g>
   <g id="patch_8">
    <path clip-path="url(#p1342182eec)" d="M 87.739075 307.584 
L 90.520345 307.584 
L 90.520345 190.94545 
L 87.739075 190.94545 
z
" style="fill:#ff0000;opacity:0.2;"/>
   </g>
   <g id="patch_9">
    <path clip-path="url(#p1342182eec)" d="M 90.520345 307.584 
L 93.301614 307.584 
L 93.301614 195.794755 
L 90.520345 195.794755 
z
" style="fill:#ff0000;opacity:0.2;"/>
   </g>
   <g id="patch_10">
    <path clip-path="url(#p1342182eec)" d="M 93.301614 307.584 
L 96.082884 307.584 
L 96.082884 191.200677 
L 93.301614 191.200677 
z
" style="fill:#ff0000;opacity:0.2;"/>
   </g>
   <g id="patch_11">
    <path clip-path="url(#p1342182eec)" d="M 96.082884 307.584 
L 98.864154 307.584 
L 98.864154 200.899287 
L 96.082884 200.899287 
z
" style="fill:#ff0000;opacity:0.2;"/>
   </g>
   <g id="patch_12">
    <path clip-path="url(#p1342182eec)" d="M 98.864154 307.584 
L 101.645423 307.584 
L 101.645423 196.049982 
L 98.864154 196.049982 
z
" style="fill:#ff0000;opacity:0.2;"/>
   </g>
   <g id="patch_13">
    <path clip-path="url(#p1342182eec)" d="M 101.645423 307.584 
L 104.426693 307.584 
L 104.426693 200.133607 
L 101.645423 200.133607 
z
" style="fill:#ff0000;opacity:0.2;"/>
   </g>
   <g id="patch_14">
    <path clip-path="url(#p1342182eec)" d="M 104.426693 307.584 
L 107.207962 307.584 
L 107.207962 196.560435 
L 104.426693 196.560435 
z
" style="fill:#ff0000;opacity:0.2;"/>
   </g>
   <g id="patch_15">
    <path clip-path="url(#p1342182eec)" d="M 107.207962 307.584 
L 109.989232 307.584 
L 109.989232 200.388834 
L 107.207962 200.388834 
z
" style="fill:#ff0000;opacity:0.2;"/>
   </g>
   <g id="patch_16">
    <path clip-path="url(#p1342182eec)" d="M 109.989232 307.584 
L 112.770501 307.584 
L 112.770501 223.359227 
L 109.989232 223.359227 
z
" style="fill:#ff0000;opacity:0.2;"/>
   </g>
   <g id="patch_17">
    <path clip-path="url(#p1342182eec)" d="M 112.770501 307.584 
L 115.551771 307.584 
L 115.551771 228.463758 
L 112.770501 228.463758 
z
" style="fill:#ff0000;opacity:0.2;"/>
   </g>
   <g id="patch_18">
    <path clip-path="url(#p1342182eec)" d="M 115.551771 307.584 
L 118.333041 307.584 
L 118.333041 221.57264 
L 115.551771 221.57264 
z
" style="fill:#ff0000;opacity:0.2;"/>
   </g>
   <g id="patch_19">
    <path clip-path="url(#p1342182eec)" d="M 118.333041 307.584 
L 121.11431 307.584 
L 121.11431 228.974211 
L 118.333041 228.974211 
z
" style="fill:#ff0000;opacity:0.2;"/>
   </g>
   <g id="patch_20">
    <path clip-path="url(#p1342182eec)" d="M 121.11431 307.584 
L 123.89558 307.584 
L 123.89558 227.953305 
L 121.11431 227.953305 
z
" style="fill:#ff0000;opacity:0.2;"/>
   </g>
   <g id="patch_21">
    <path clip-path="url(#p1342182eec)" d="M 123.89558 307.584 
L 126.676849 307.584 
L 126.676849 240.204181 
L 123.89558 240.204181 
z
" style="fill:#ff0000;opacity:0.2;"/>
   </g>
   <g id="patch_22">
    <path clip-path="url(#p1342182eec)" d="M 126.676849 307.584 
L 129.458119 307.584 
L 129.458119 243.011674 
L 126.676849 243.011674 
z
" style="fill:#ff0000;opacity:0.2;"/>
   </g>
   <g id="patch_23">
    <path clip-path="url(#p1342182eec)" d="M 129.458119 307.584 
L 132.239389 307.584 
L 132.239389 246.074393 
L 129.458119 246.074393 
z
" style="fill:#ff0000;opacity:0.2;"/>
   </g>
   <g id="patch_24">
    <path clip-path="url(#p1342182eec)" d="M 132.239389 307.584 
L 135.020658 307.584 
L 135.020658 258.580495 
L 132.239389 258.580495 
z
" style="fill:#ff0000;opacity:0.2;"/>
   </g>
   <g id="patch_25">
    <path clip-path="url(#p1342182eec)" d="M 135.020658 307.584 
L 137.801928 307.584 
L 137.801928 260.111855 
L 135.020658 260.111855 
z
" style="fill:#ff0000;opacity:0.2;"/>
   </g>
   <g id="patch_26">
    <path clip-path="url(#p1342182eec)" d="M 137.801928 307.584 
L 140.583197 307.584 
L 140.583197 256.02823 
L 137.801928 256.02823 
z
" style="fill:#ff0000;opacity:0.2;"/>
   </g>
   <g id="patch_27">
    <path clip-path="url(#p1342182eec)" d="M 140.583197 307.584 
L 143.364467 307.584 
L 143.364467 262.664121 
L 140.583197 262.664121 
z
" style="fill:#ff0000;opacity:0.2;"/>
   </g>
   <g id="patch_28">
    <path clip-path="url(#p1342182eec)" d="M 143.364467 307.584 
L 146.145737 307.584 
L 146.145737 267.258199 
L 143.364467 267.258199 
z
" style="fill:#ff0000;opacity:0.2;"/>
   </g>
   <g id="patch_29">
    <path clip-path="url(#p1342182eec)" d="M 146.145737 307.584 
L 148.927006 307.584 
L 148.927006 274.404544 
L 146.145737 274.404544 
z
" style="fill:#ff0000;opacity:0.2;"/>
   </g>
   <g id="patch_30">
    <path clip-path="url(#p1342182eec)" d="M 148.927006 307.584 
L 151.708276 307.584 
L 151.708276 280.274755 
L 148.927006 280.274755 
z
" style="fill:#ff0000;opacity:0.2;"/>
   </g>
   <g id="patch_31">
    <path clip-path="url(#p1342182eec)" d="M 151.708276 307.584 
L 154.489545 307.584 
L 154.489545 278.232943 
L 151.708276 278.232943 
z
" style="fill:#ff0000;opacity:0.2;"/>
   </g>
   <g id="patch_32">
    <path clip-path="url(#p1342182eec)" d="M 154.489545 307.584 
L 157.270815 307.584 
L 157.270815 280.019529 
L 154.489545 280.019529 
z
" style="fill:#ff0000;opacity:0.2;"/>
   </g>
   <g id="patch_33">
    <path clip-path="url(#p1342182eec)" d="M 157.270815 307.584 
L 160.052084 307.584 
L 160.052084 281.550888 
L 157.270815 281.550888 
z
" style="fill:#ff0000;opacity:0.2;"/>
   </g>
   <g id="patch_34">
    <path clip-path="url(#p1342182eec)" d="M 160.052084 307.584 
L 162.833354 307.584 
L 162.833354 283.847927 
L 160.052084 283.847927 
z
" style="fill:#ff0000;opacity:0.2;"/>
   </g>
   <g id="patch_35">
    <path clip-path="url(#p1342182eec)" d="M 162.833354 307.584 
L 165.614624 307.584 
L 165.614624 284.868834 
L 162.833354 284.868834 
z
" style="fill:#ff0000;opacity:0.2;"/>
   </g>
   <g id="patch_36">
    <path clip-path="url(#p1342182eec)" d="M 165.614624 307.584 
L 168.395893 307.584 
L 168.395893 289.462912 
L 165.614624 289.462912 
z
" style="fill:#ff0000;opacity:0.2;"/>
   </g>
   <g id="patch_37">
    <path clip-path="url(#p1342182eec)" d="M 168.395893 307.584 
L 171.177163 307.584 
L 171.177163 285.12406 
L 168.395893 285.12406 
z
" style="fill:#ff0000;opacity:0.2;"/>
   </g>
   <g id="patch_38">
    <path clip-path="url(#p1342182eec)" d="M 171.177163 307.584 
L 173.958432 307.584 
L 173.958432 290.994272 
L 171.177163 290.994272 
z
" style="fill:#ff0000;opacity:0.2;"/>
   </g>
   <g id="patch_39">
    <path clip-path="url(#p1342182eec)" d="M 173.958432 307.584 
L 176.739702 307.584 
L 176.739702 292.015178 
L 173.958432 292.015178 
z
" style="fill:#ff0000;opacity:0.2;"/>
   </g>
   <g id="patch_40">
    <path clip-path="url(#p1342182eec)" d="M 176.739702 307.584 
L 179.520972 307.584 
L 179.520972 292.525631 
L 176.739702 292.525631 
z
" style="fill:#ff0000;opacity:0.2;"/>
   </g>
   <g id="patch_41">
    <path clip-path="url(#p1342182eec)" d="M 179.520972 307.584 
L 182.302241 307.584 
L 182.302241 293.291311 
L 179.520972 293.291311 
z
" style="fill:#ff0000;opacity:0.2;"/>
   </g>
   <g id="patch_42">
    <path clip-path="url(#p1342182eec)" d="M 182.302241 307.584 
L 185.083511 307.584 
L 185.083511 300.182429 
L 182.302241 300.182429 
z
" style="fill:#ff0000;opacity:0.2;"/>
   </g>
   <g id="patch_43">
    <path clip-path="url(#p1342182eec)" d="M 185.083511 307.584 
L 187.86478 307.584 
L 187.86478 299.161523 
L 185.083511 299.161523 
z
" style="fill:#ff0000;opacity:0.2;"/>
   </g>
   <g id="patch_44">
    <path clip-path="url(#p1342182eec)" d="M 187.86478 307.584 
L 190.64605 307.584 
L 190.64605 295.843577 
L 187.86478 295.843577 
z
" style="fill:#ff0000;opacity:0.2;"/>
   </g>
   <g id="patch_45">
    <path clip-path="url(#p1342182eec)" d="M 190.64605 307.584 
L 193.427319 307.584 
L 193.427319 299.671976 
L 190.64605 299.671976 
z
" style="fill:#ff0000;opacity:0.2;"/>
   </g>
   <g id="patch_46">
    <path clip-path="url(#p1342182eec)" d="M 193.427319 307.584 
L 196.208589 307.584 
L 196.208589 300.182429 
L 193.427319 300.182429 
z
" style="fill:#ff0000;opacity:0.2;"/>
   </g>
   <g id="patch_47">
    <path clip-path="url(#p1342182eec)" d="M 196.208589 307.584 
L 198.989859 307.584 
L 198.989859 300.948109 
L 196.208589 300.948109 
z
" style="fill:#ff0000;opacity:0.2;"/>
   </g>
   <g id="patch_48">
    <path clip-path="url(#p1342182eec)" d="M 198.989859 307.584 
L 201.771128 307.584 
L 201.771128 302.224242 
L 198.989859 302.224242 
z
" style="fill:#ff0000;opacity:0.2;"/>
   </g>
   <g id="patch_49">
    <path clip-path="url(#p1342182eec)" d="M 201.771128 307.584 
L 204.552398 307.584 
L 204.552398 301.969015 
L 201.771128 301.969015 
z
" style="fill:#ff0000;opacity:0.2;"/>
   </g>
   <g id="patch_50">
    <path clip-path="url(#p1342182eec)" d="M 204.552398 307.584 
L 207.333667 307.584 
L 207.333667 303.755601 
L 204.552398 303.755601 
z
" style="fill:#ff0000;opacity:0.2;"/>
   </g>
   <g id="patch_51">
    <path clip-path="url(#p1342182eec)" d="M 207.333667 307.584 
L 210.114937 307.584 
L 210.114937 301.203335 
L 207.333667 301.203335 
z
" style="fill:#ff0000;opacity:0.2;"/>
   </g>
   <g id="patch_52">
    <path clip-path="url(#p1342182eec)" d="M 210.114937 307.584 
L 212.896207 307.584 
L 212.896207 304.266054 
L 210.114937 304.266054 
z
" style="fill:#ff0000;opacity:0.2;"/>
   </g>
   <g id="patch_53">
    <path clip-path="url(#p1342182eec)" d="M 212.896207 307.584 
L 215.677476 307.584 
L 215.677476 304.010828 
L 212.896207 304.010828 
z
" style="fill:#ff0000;opacity:0.2;"/>
   </g>
   <g id="patch_54">
    <path clip-path="url(#p1342182eec)" d="M 215.677476 307.584 
L 218.458746 307.584 
L 218.458746 304.266054 
L 215.677476 304.266054 
z
" style="fill:#ff0000;opacity:0.2;"/>
   </g>
   <g id="patch_55">
    <path clip-path="url(#p1342182eec)" d="M 218.458746 307.584 
L 221.240015 307.584 
L 221.240015 305.031734 
L 218.458746 305.031734 
z
" style="fill:#ff0000;opacity:0.2;"/>
   </g>
   <g id="patch_56">
    <path clip-path="url(#p1342182eec)" d="M 221.240015 307.584 
L 224.021285 307.584 
L 224.021285 303.755601 
L 221.240015 303.755601 
z
" style="fill:#ff0000;opacity:0.2;"/>
   </g>
   <g id="patch_57">
    <path clip-path="url(#p1342182eec)" d="M 224.021285 307.584 
L 226.802555 307.584 
L 226.802555 305.797414 
L 224.021285 305.797414 
z
" style="fill:#ff0000;opacity:0.2;"/>
   </g>
   <g id="patch_58">
    <path clip-path="url(#p1342182eec)" d="M 226.802555 307.584 
L 229.583824 307.584 
L 229.583824 306.563094 
L 226.802555 306.563094 
z
" style="fill:#ff0000;opacity:0.2;"/>
   </g>
   <g id="patch_59">
    <path clip-path="url(#p1342182eec)" d="M 229.583824 307.584 
L 232.365094 307.584 
L 232.365094 305.542187 
L 229.583824 305.542187 
z
" style="fill:#ff0000;opacity:0.2;"/>
   </g>
   <g id="patch_60">
    <path clip-path="url(#p1342182eec)" d="M 232.365094 307.584 
L 235.146363 307.584 
L 235.146363 306.307867 
L 232.365094 306.307867 
z
" style="fill:#ff0000;opacity:0.2;"/>
   </g>
   <g id="patch_61">
    <path clip-path="url(#p1342182eec)" d="M 235.146363 307.584 
L 237.927633 307.584 
L 237.927633 305.797414 
L 235.146363 305.797414 
z
" style="fill:#ff0000;opacity:0.2;"/>
   </g>
   <g id="patch_62">
    <path clip-path="url(#p1342182eec)" d="M 237.927633 307.584 
L 240.708902 307.584 
L 240.708902 305.797414 
L 237.927633 305.797414 
z
" style="fill:#ff0000;opacity:0.2;"/>
   </g>
   <g id="patch_63">
    <path clip-path="url(#p1342182eec)" d="M 240.708902 307.584 
L 243.490172 307.584 
L 243.490172 306.563094 
L 240.708902 306.563094 
z
" style="fill:#ff0000;opacity:0.2;"/>
   </g>
   <g id="patch_64">
    <path clip-path="url(#p1342182eec)" d="M 243.490172 307.584 
L 246.271442 307.584 
L 246.271442 307.073547 
L 243.490172 307.073547 
z
" style="fill:#ff0000;opacity:0.2;"/>
   </g>
   <g id="patch_65">
    <path clip-path="url(#p1342182eec)" d="M 246.271442 307.584 
L 249.052711 307.584 
L 249.052711 306.307867 
L 246.271442 306.307867 
z
" style="fill:#ff0000;opacity:0.2;"/>
   </g>
   <g id="patch_66">
    <path clip-path="url(#p1342182eec)" d="M 249.052711 307.584 
L 251.833981 307.584 
L 251.833981 307.584 
L 249.052711 307.584 
z
" style="fill:#ff0000;opacity:0.2;"/>
   </g>
   <g id="patch_67">
    <path clip-path="url(#p1342182eec)" d="M 251.833981 307.584 
L 254.61525 307.584 
L 254.61525 305.542187 
L 251.833981 305.542187 
z
" style="fill:#ff0000;opacity:0.2;"/>
   </g>
   <g id="patch_68">
    <path clip-path="url(#p1342182eec)" d="M 254.61525 307.584 
L 257.39652 307.584 
L 257.39652 306.81832 
L 254.61525 306.81832 
z
" style="fill:#ff0000;opacity:0.2;"/>
   </g>
   <g id="patch_69">
    <path clip-path="url(#p1342182eec)" d="M 257.39652 307.584 
L 260.17779 307.584 
L 260.17779 307.073547 
L 257.39652 307.073547 
z
" style="fill:#ff0000;opacity:0.2;"/>
   </g>
   <g id="patch_70">
    <path clip-path="url(#p1342182eec)" d="M 260.17779 307.584 
L 262.959059 307.584 
L 262.959059 306.81832 
L 260.17779 306.81832 
z
" style="fill:#ff0000;opacity:0.2;"/>
   </g>
   <g id="patch_71">
    <path clip-path="url(#p1342182eec)" d="M 262.959059 307.584 
L 265.740329 307.584 
L 265.740329 307.328773 
L 262.959059 307.328773 
z
" style="fill:#ff0000;opacity:0.2;"/>
   </g>
   <g id="patch_72">
    <path clip-path="url(#p1342182eec)" d="M 265.740329 307.584 
L 268.521598 307.584 
L 268.521598 306.81832 
L 265.740329 306.81832 
z
" style="fill:#ff0000;opacity:0.2;"/>
   </g>
   <g id="patch_73">
    <path clip-path="url(#p1342182eec)" d="M 268.521598 307.584 
L 271.302868 307.584 
L 271.302868 307.328773 
L 268.521598 307.328773 
z
" style="fill:#ff0000;opacity:0.2;"/>
   </g>
   <g id="patch_74">
    <path clip-path="url(#p1342182eec)" d="M 271.302868 307.584 
L 274.084137 307.584 
L 274.084137 307.073547 
L 271.302868 307.073547 
z
" style="fill:#ff0000;opacity:0.2;"/>
   </g>
   <g id="patch_75">
    <path clip-path="url(#p1342182eec)" d="M 274.084137 307.584 
L 276.865407 307.584 
L 276.865407 307.073547 
L 274.084137 307.073547 
z
" style="fill:#ff0000;opacity:0.2;"/>
   </g>
   <g id="patch_76">
    <path clip-path="url(#p1342182eec)" d="M 276.865407 307.584 
L 279.646677 307.584 
L 279.646677 306.81832 
L 276.865407 306.81832 
z
" style="fill:#ff0000;opacity:0.2;"/>
   </g>
   <g id="patch_77">
    <path clip-path="url(#p1342182eec)" d="M 279.646677 307.584 
L 282.427946 307.584 
L 282.427946 307.073547 
L 279.646677 307.073547 
z
" style="fill:#ff0000;opacity:0.2;"/>
   </g>
   <g id="patch_78">
    <path clip-path="url(#p1342182eec)" d="M 282.427946 307.584 
L 285.209216 307.584 
L 285.209216 307.328773 
L 282.427946 307.328773 
z
" style="fill:#ff0000;opacity:0.2;"/>
   </g>
   <g id="patch_79">
    <path clip-path="url(#p1342182eec)" d="M 285.209216 307.584 
L 287.990485 307.584 
L 287.990485 307.328773 
L 285.209216 307.328773 
z
" style="fill:#ff0000;opacity:0.2;"/>
   </g>
   <g id="patch_80">
    <path clip-path="url(#p1342182eec)" d="M 287.990485 307.584 
L 290.771755 307.584 
L 290.771755 307.328773 
L 287.990485 307.328773 
z
" style="fill:#ff0000;opacity:0.2;"/>
   </g>
   <g id="patch_81">
    <path clip-path="url(#p1342182eec)" d="M 290.771755 307.584 
L 293.553025 307.584 
L 293.553025 307.328773 
L 290.771755 307.328773 
z
" style="fill:#ff0000;opacity:0.2;"/>
   </g>
   <g id="patch_82">
    <path clip-path="url(#p1342182eec)" d="M 293.553025 307.584 
L 296.334294 307.584 
L 296.334294 307.328773 
L 293.553025 307.328773 
z
" style="fill:#ff0000;opacity:0.2;"/>
   </g>
   <g id="patch_83">
    <path clip-path="url(#p1342182eec)" d="M 296.334294 307.584 
L 299.115564 307.584 
L 299.115564 306.81832 
L 296.334294 306.81832 
z
" style="fill:#ff0000;opacity:0.2;"/>
   </g>
   <g id="patch_84">
    <path clip-path="url(#p1342182eec)" d="M 299.115564 307.584 
L 301.896833 307.584 
L 301.896833 307.073547 
L 299.115564 307.073547 
z
" style="fill:#ff0000;opacity:0.2;"/>
   </g>
   <g id="patch_85">
    <path clip-path="url(#p1342182eec)" d="M 301.896833 307.584 
L 304.678103 307.584 
L 304.678103 307.328773 
L 301.896833 307.328773 
z
" style="fill:#ff0000;opacity:0.2;"/>
   </g>
   <g id="patch_86">
    <path clip-path="url(#p1342182eec)" d="M 304.678103 307.584 
L 307.459373 307.584 
L 307.459373 307.073547 
L 304.678103 307.073547 
z
" style="fill:#ff0000;opacity:0.2;"/>
   </g>
   <g id="patch_87">
    <path clip-path="url(#p1342182eec)" d="M 307.459373 307.584 
L 310.240642 307.584 
L 310.240642 307.328773 
L 307.459373 307.328773 
z
" style="fill:#ff0000;opacity:0.2;"/>
   </g>
   <g id="patch_88">
    <path clip-path="url(#p1342182eec)" d="M 310.240642 307.584 
L 313.021912 307.584 
L 313.021912 307.073547 
L 310.240642 307.073547 
z
" style="fill:#ff0000;opacity:0.2;"/>
   </g>
   <g id="patch_89">
    <path clip-path="url(#p1342182eec)" d="M 313.021912 307.584 
L 315.803181 307.584 
L 315.803181 307.584 
L 313.021912 307.584 
z
" style="fill:#ff0000;opacity:0.2;"/>
   </g>
   <g id="patch_90">
    <path clip-path="url(#p1342182eec)" d="M 315.803181 307.584 
L 318.584451 307.584 
L 318.584451 307.328773 
L 315.803181 307.328773 
z
" style="fill:#ff0000;opacity:0.2;"/>
   </g>
   <g id="patch_91">
    <path clip-path="url(#p1342182eec)" d="M 318.584451 307.584 
L 321.36572 307.584 
L 321.36572 307.584 
L 318.584451 307.584 
z
" style="fill:#ff0000;opacity:0.2;"/>
   </g>
   <g id="patch_92">
    <path clip-path="url(#p1342182eec)" d="M 321.36572 307.584 
L 324.14699 307.584 
L 324.14699 307.328773 
L 321.36572 307.328773 
z
" style="fill:#ff0000;opacity:0.2;"/>
   </g>
   <g id="patch_93">
    <path clip-path="url(#p1342182eec)" d="M 324.14699 307.584 
L 326.92826 307.584 
L 326.92826 307.073547 
L 324.14699 307.073547 
z
" style="fill:#ff0000;opacity:0.2;"/>
   </g>
   <g id="patch_94">
    <path clip-path="url(#p1342182eec)" d="M 326.92826 307.584 
L 329.709529 307.584 
L 329.709529 307.328773 
L 326.92826 307.328773 
z
" style="fill:#ff0000;opacity:0.2;"/>
   </g>
   <g id="patch_95">
    <path clip-path="url(#p1342182eec)" d="M 329.709529 307.584 
L 332.490799 307.584 
L 332.490799 307.584 
L 329.709529 307.584 
z
" style="fill:#ff0000;opacity:0.2;"/>
   </g>
   <g id="patch_96">
    <path clip-path="url(#p1342182eec)" d="M 332.490799 307.584 
L 335.272068 307.584 
L 335.272068 307.584 
L 332.490799 307.584 
z
" style="fill:#ff0000;opacity:0.2;"/>
   </g>
   <g id="patch_97">
    <path clip-path="url(#p1342182eec)" d="M 335.272068 307.584 
L 338.053338 307.584 
L 338.053338 307.584 
L 335.272068 307.584 
z
" style="fill:#ff0000;opacity:0.2;"/>
   </g>
   <g id="patch_98">
    <path clip-path="url(#p1342182eec)" d="M 338.053338 307.584 
L 340.834608 307.584 
L 340.834608 307.584 
L 338.053338 307.584 
z
" style="fill:#ff0000;opacity:0.2;"/>
   </g>
   <g id="patch_99">
    <path clip-path="url(#p1342182eec)" d="M 340.834608 307.584 
L 343.615877 307.584 
L 343.615877 307.584 
L 340.834608 307.584 
z
" style="fill:#ff0000;opacity:0.2;"/>
   </g>
   <g id="patch_100">
    <path clip-path="url(#p1342182eec)" d="M 343.615877 307.584 
L 346.397147 307.584 
L 346.397147 307.328773 
L 343.615877 307.328773 
z
" style="fill:#ff0000;opacity:0.2;"/>
   </g>
   <g id="patch_101">
    <path clip-path="url(#p1342182eec)" d="M 346.397147 307.584 
L 349.178416 307.584 
L 349.178416 307.584 
L 346.397147 307.584 
z
" style="fill:#ff0000;opacity:0.2;"/>
   </g>
   <g id="patch_102">
    <path clip-path="url(#p1342182eec)" d="M 349.178416 307.584 
L 351.959686 307.584 
L 351.959686 307.328773 
L 349.178416 307.328773 
z
" style="fill:#ff0000;opacity:0.2;"/>
   </g>
   <g id="patch_103">
    <path clip-path="url(#p1342182eec)" d="M 73.832727 307.584 
L 76.933874 307.584 
L 76.933874 305.797414 
L 73.832727 305.797414 
z
" style="fill:#0000ff;opacity:0.3;"/>
   </g>
   <g id="patch_104">
    <path clip-path="url(#p1342182eec)" d="M 76.933874 307.584 
L 80.035021 307.584 
L 80.035021 273.638864 
L 76.933874 273.638864 
z
" style="fill:#0000ff;opacity:0.3;"/>
   </g>
   <g id="patch_105">
    <path clip-path="url(#p1342182eec)" d="M 80.035021 307.584 
L 83.136168 307.584 
L 83.136168 215.447202 
L 80.035021 215.447202 
z
" style="fill:#0000ff;opacity:0.3;"/>
   </g>
   <g id="patch_106">
    <path clip-path="url(#p1342182eec)" d="M 83.136168 307.584 
L 86.237314 307.584 
L 86.237314 303.755601 
L 83.136168 303.755601 
z
" style="fill:#0000ff;opacity:0.3;"/>
   </g>
   <g id="patch_107">
    <path clip-path="url(#p1342182eec)" d="M 86.237314 307.584 
L 89.338461 307.584 
L 89.338461 307.584 
L 86.237314 307.584 
z
" style="fill:#0000ff;opacity:0.3;"/>
   </g>
   <g id="patch_108">
    <path clip-path="url(#p1342182eec)" d="M 89.338461 307.584 
L 92.439608 307.584 
L 92.439608 305.286961 
L 89.338461 305.286961 
z
" style="fill:#0000ff;opacity:0.3;"/>
   </g>
   <g id="patch_109">
    <path clip-path="url(#p1342182eec)" d="M 92.439608 307.584 
L 95.540754 307.584 
L 95.540754 252.710284 
L 92.439608 252.710284 
z
" style="fill:#0000ff;opacity:0.3;"/>
   </g>
   <g id="patch_110">
    <path clip-path="url(#p1342182eec)" d="M 95.540754 307.584 
L 98.641901 307.584 
L 98.641901 289.718139 
L 95.540754 289.718139 
z
" style="fill:#0000ff;opacity:0.3;"/>
   </g>
   <g id="patch_111">
    <path clip-path="url(#p1342182eec)" d="M 98.641901 307.584 
L 101.743048 307.584 
L 101.743048 274.65977 
L 98.641901 274.65977 
z
" style="fill:#0000ff;opacity:0.3;"/>
   </g>
   <g id="patch_112">
    <path clip-path="url(#p1342182eec)" d="M 101.743048 307.584 
L 104.844195 307.584 
L 104.844195 297.374937 
L 101.743048 297.374937 
z
" style="fill:#0000ff;opacity:0.3;"/>
   </g>
   <g id="patch_113">
    <path clip-path="url(#p1342182eec)" d="M 104.844195 307.584 
L 107.945341 307.584 
L 107.945341 54.144 
L 104.844195 54.144 
z
" style="fill:#0000ff;opacity:0.3;"/>
   </g>
   <g id="patch_114">
    <path clip-path="url(#p1342182eec)" d="M 107.945341 307.584 
L 111.046488 307.584 
L 111.046488 307.584 
L 107.945341 307.584 
z
" style="fill:#0000ff;opacity:0.3;"/>
   </g>
   <g id="patch_115">
    <path clip-path="url(#p1342182eec)" d="M 111.046488 307.584 
L 114.147635 307.584 
L 114.147635 149.598743 
L 111.046488 149.598743 
z
" style="fill:#0000ff;opacity:0.3;"/>
   </g>
   <g id="patch_116">
    <path clip-path="url(#p1342182eec)" d="M 114.147635 307.584 
L 117.248782 307.584 
L 117.248782 307.584 
L 114.147635 307.584 
z
" style="fill:#0000ff;opacity:0.3;"/>
   </g>
   <g id="patch_117">
    <path clip-path="url(#p1342182eec)" d="M 117.248782 307.584 
L 120.349928 307.584 
L 120.349928 307.584 
L 117.248782 307.584 
z
" style="fill:#0000ff;opacity:0.3;"/>
   </g>
   <g id="patch_118">
    <path clip-path="url(#p1342182eec)" d="M 120.349928 307.584 
L 123.451075 307.584 
L 123.451075 288.186779 
L 120.349928 288.186779 
z
" style="fill:#0000ff;opacity:0.3;"/>
   </g>
   <g id="patch_119">
    <path clip-path="url(#p1342182eec)" d="M 123.451075 307.584 
L 126.552222 307.584 
L 126.552222 304.776508 
L 123.451075 304.776508 
z
" style="fill:#0000ff;opacity:0.3;"/>
   </g>
   <g id="patch_120">
    <path clip-path="url(#p1342182eec)" d="M 126.552222 307.584 
L 129.653369 307.584 
L 129.653369 301.203335 
L 126.552222 301.203335 
z
" style="fill:#0000ff;opacity:0.3;"/>
   </g>
   <g id="patch_121">
    <path clip-path="url(#p1342182eec)" d="M 129.653369 307.584 
L 132.754515 307.584 
L 132.754515 307.584 
L 129.653369 307.584 
z
" style="fill:#0000ff;opacity:0.3;"/>
   </g>
   <g id="patch_122">
    <path clip-path="url(#p1342182eec)" d="M 132.754515 307.584 
L 135.855662 307.584 
L 135.855662 305.797414 
L 132.754515 305.797414 
z
" style="fill:#0000ff;opacity:0.3;"/>
   </g>
   <g id="patch_123">
    <path clip-path="url(#p1342182eec)" d="M 135.855662 307.584 
L 138.956809 307.584 
L 138.956809 307.584 
L 135.855662 307.584 
z
" style="fill:#0000ff;opacity:0.3;"/>
   </g>
   <g id="patch_124">
    <path clip-path="url(#p1342182eec)" d="M 138.956809 307.584 
L 142.057956 307.584 
L 142.057956 307.584 
L 138.956809 307.584 
z
" style="fill:#0000ff;opacity:0.3;"/>
   </g>
   <g id="patch_125">
    <path clip-path="url(#p1342182eec)" d="M 142.057956 307.584 
L 145.159102 307.584 
L 145.159102 307.584 
L 142.057956 307.584 
z
" style="fill:#0000ff;opacity:0.3;"/>
   </g>
   <g id="patch_126">
    <path clip-path="url(#p1342182eec)" d="M 145.159102 307.584 
L 148.260249 307.584 
L 148.260249 307.584 
L 145.159102 307.584 
z
" style="fill:#0000ff;opacity:0.3;"/>
   </g>
   <g id="patch_127">
    <path clip-path="url(#p1342182eec)" d="M 148.260249 307.584 
L 151.361396 307.584 
L 151.361396 307.584 
L 148.260249 307.584 
z
" style="fill:#0000ff;opacity:0.3;"/>
   </g>
   <g id="patch_128">
    <path clip-path="url(#p1342182eec)" d="M 151.361396 307.584 
L 154.462543 307.584 
L 154.462543 307.584 
L 151.361396 307.584 
z
" style="fill:#0000ff;opacity:0.3;"/>
   </g>
   <g id="patch_129">
    <path clip-path="url(#p1342182eec)" d="M 154.462543 307.584 
L 157.563689 307.584 
L 157.563689 307.584 
L 154.462543 307.584 
z
" style="fill:#0000ff;opacity:0.3;"/>
   </g>
   <g id="patch_130">
    <path clip-path="url(#p1342182eec)" d="M 157.563689 307.584 
L 160.664836 307.584 
L 160.664836 307.584 
L 157.563689 307.584 
z
" style="fill:#0000ff;opacity:0.3;"/>
   </g>
   <g id="patch_131">
    <path clip-path="url(#p1342182eec)" d="M 160.664836 307.584 
L 163.765983 307.584 
L 163.765983 307.584 
L 160.664836 307.584 
z
" style="fill:#0000ff;opacity:0.3;"/>
   </g>
   <g id="patch_132">
    <path clip-path="url(#p1342182eec)" d="M 163.765983 307.584 
L 166.86713 307.584 
L 166.86713 307.584 
L 163.765983 307.584 
z
" style="fill:#0000ff;opacity:0.3;"/>
   </g>
   <g id="patch_133">
    <path clip-path="url(#p1342182eec)" d="M 166.86713 307.584 
L 169.968276 307.584 
L 169.968276 285.379287 
L 166.86713 285.379287 
z
" style="fill:#0000ff;opacity:0.3;"/>
   </g>
   <g id="patch_134">
    <path clip-path="url(#p1342182eec)" d="M 169.968276 307.584 
L 173.069423 307.584 
L 173.069423 307.584 
L 169.968276 307.584 
z
" style="fill:#0000ff;opacity:0.3;"/>
   </g>
   <g id="patch_135">
    <path clip-path="url(#p1342182eec)" d="M 173.069423 307.584 
L 176.17057 307.584 
L 176.17057 307.584 
L 173.069423 307.584 
z
" style="fill:#0000ff;opacity:0.3;"/>
   </g>
   <g id="patch_136">
    <path clip-path="url(#p1342182eec)" d="M 176.17057 307.584 
L 179.271717 307.584 
L 179.271717 250.413245 
L 176.17057 250.413245 
z
" style="fill:#0000ff;opacity:0.3;"/>
   </g>
   <g id="patch_137">
    <path clip-path="url(#p1342182eec)" d="M 179.271717 307.584 
L 182.372863 307.584 
L 182.372863 303.245148 
L 179.271717 303.245148 
z
" style="fill:#0000ff;opacity:0.3;"/>
   </g>
   <g id="patch_138">
    <path clip-path="url(#p1342182eec)" d="M 182.372863 307.584 
L 185.47401 307.584 
L 185.47401 307.584 
L 182.372863 307.584 
z
" style="fill:#0000ff;opacity:0.3;"/>
   </g>
   <g id="patch_139">
    <path clip-path="url(#p1342182eec)" d="M 185.47401 307.584 
L 188.575157 307.584 
L 188.575157 301.713789 
L 185.47401 301.713789 
z
" style="fill:#0000ff;opacity:0.3;"/>
   </g>
   <g id="patch_140">
    <path clip-path="url(#p1342182eec)" d="M 188.575157 307.584 
L 191.676304 307.584 
L 191.676304 307.584 
L 188.575157 307.584 
z
" style="fill:#0000ff;opacity:0.3;"/>
   </g>
   <g id="patch_141">
    <path clip-path="url(#p1342182eec)" d="M 191.676304 307.584 
L 194.77745 307.584 
L 194.77745 301.713789 
L 191.676304 301.713789 
z
" style="fill:#0000ff;opacity:0.3;"/>
   </g>
   <g id="patch_142">
    <path clip-path="url(#p1342182eec)" d="M 194.77745 307.584 
L 197.878597 307.584 
L 197.878597 307.584 
L 194.77745 307.584 
z
" style="fill:#0000ff;opacity:0.3;"/>
   </g>
   <g id="patch_143">
    <path clip-path="url(#p1342182eec)" d="M 197.878597 307.584 
L 200.979744 307.584 
L 200.979744 301.713789 
L 197.878597 301.713789 
z
" style="fill:#0000ff;opacity:0.3;"/>
   </g>
   <g id="patch_144">
    <path clip-path="url(#p1342182eec)" d="M 200.979744 307.584 
L 204.080891 307.584 
L 204.080891 307.584 
L 200.979744 307.584 
z
" style="fill:#0000ff;opacity:0.3;"/>
   </g>
   <g id="patch_145">
    <path clip-path="url(#p1342182eec)" d="M 204.080891 307.584 
L 207.182037 307.584 
L 207.182037 307.584 
L 204.080891 307.584 
z
" style="fill:#0000ff;opacity:0.3;"/>
   </g>
   <g id="patch_146">
    <path clip-path="url(#p1342182eec)" d="M 207.182037 307.584 
L 210.283184 307.584 
L 210.283184 307.584 
L 207.182037 307.584 
z
" style="fill:#0000ff;opacity:0.3;"/>
   </g>
   <g id="patch_147">
    <path clip-path="url(#p1342182eec)" d="M 210.283184 307.584 
L 213.384331 307.584 
L 213.384331 307.584 
L 210.283184 307.584 
z
" style="fill:#0000ff;opacity:0.3;"/>
   </g>
   <g id="patch_148">
    <path clip-path="url(#p1342182eec)" d="M 213.384331 307.584 
L 216.485478 307.584 
L 216.485478 299.671976 
L 213.384331 299.671976 
z
" style="fill:#0000ff;opacity:0.3;"/>
   </g>
   <g id="patch_149">
    <path clip-path="url(#p1342182eec)" d="M 216.485478 307.584 
L 219.586624 307.584 
L 219.586624 307.584 
L 216.485478 307.584 
z
" style="fill:#0000ff;opacity:0.3;"/>
   </g>
   <g id="patch_150">
    <path clip-path="url(#p1342182eec)" d="M 219.586624 307.584 
L 222.687771 307.584 
L 222.687771 307.584 
L 219.586624 307.584 
z
" style="fill:#0000ff;opacity:0.3;"/>
   </g>
   <g id="patch_151">
    <path clip-path="url(#p1342182eec)" d="M 222.687771 307.584 
L 225.788918 307.584 
L 225.788918 307.584 
L 222.687771 307.584 
z
" style="fill:#0000ff;opacity:0.3;"/>
   </g>
   <g id="patch_152">
    <path clip-path="url(#p1342182eec)" d="M 225.788918 307.584 
L 228.890065 307.584 
L 228.890065 307.584 
L 225.788918 307.584 
z
" style="fill:#0000ff;opacity:0.3;"/>
   </g>
   <g id="patch_153">
    <path clip-path="url(#p1342182eec)" d="M 228.890065 307.584 
L 231.991211 307.584 
L 231.991211 307.584 
L 228.890065 307.584 
z
" style="fill:#0000ff;opacity:0.3;"/>
   </g>
   <g id="patch_154">
    <path clip-path="url(#p1342182eec)" d="M 231.991211 307.584 
L 235.092358 307.584 
L 235.092358 307.584 
L 231.991211 307.584 
z
" style="fill:#0000ff;opacity:0.3;"/>
   </g>
   <g id="patch_155">
    <path clip-path="url(#p1342182eec)" d="M 235.092358 307.584 
L 238.193505 307.584 
L 238.193505 307.584 
L 235.092358 307.584 
z
" style="fill:#0000ff;opacity:0.3;"/>
   </g>
   <g id="patch_156">
    <path clip-path="url(#p1342182eec)" d="M 238.193505 307.584 
L 241.294652 307.584 
L 241.294652 307.584 
L 238.193505 307.584 
z
" style="fill:#0000ff;opacity:0.3;"/>
   </g>
   <g id="patch_157">
    <path clip-path="url(#p1342182eec)" d="M 241.294652 307.584 
L 244.395798 307.584 
L 244.395798 307.584 
L 241.294652 307.584 
z
" style="fill:#0000ff;opacity:0.3;"/>
   </g>
   <g id="patch_158">
    <path clip-path="url(#p1342182eec)" d="M 244.395798 307.584 
L 247.496945 307.584 
L 247.496945 307.584 
L 244.395798 307.584 
z
" style="fill:#0000ff;opacity:0.3;"/>
   </g>
   <g id="patch_159">
    <path clip-path="url(#p1342182eec)" d="M 247.496945 307.584 
L 250.598092 307.584 
L 250.598092 307.584 
L 247.496945 307.584 
z
" style="fill:#0000ff;opacity:0.3;"/>
   </g>
   <g id="patch_160">
    <path clip-path="url(#p1342182eec)" d="M 250.598092 307.584 
L 253.699239 307.584 
L 253.699239 307.584 
L 250.598092 307.584 
z
" style="fill:#0000ff;opacity:0.3;"/>
   </g>
   <g id="patch_161">
    <path clip-path="url(#p1342182eec)" d="M 253.699239 307.584 
L 256.800385 307.584 
L 256.800385 307.584 
L 253.699239 307.584 
z
" style="fill:#0000ff;opacity:0.3;"/>
   </g>
   <g id="patch_162">
    <path clip-path="url(#p1342182eec)" d="M 256.800385 307.584 
L 259.901532 307.584 
L 259.901532 307.584 
L 256.800385 307.584 
z
" style="fill:#0000ff;opacity:0.3;"/>
   </g>
   <g id="patch_163">
    <path clip-path="url(#p1342182eec)" d="M 259.901532 307.584 
L 263.002679 307.584 
L 263.002679 307.584 
L 259.901532 307.584 
z
" style="fill:#0000ff;opacity:0.3;"/>
   </g>
   <g id="patch_164">
    <path clip-path="url(#p1342182eec)" d="M 263.002679 307.584 
L 266.103826 307.584 
L 266.103826 307.584 
L 263.002679 307.584 
z
" style="fill:#0000ff;opacity:0.3;"/>
   </g>
   <g id="patch_165">
    <path clip-path="url(#p1342182eec)" d="M 266.103826 307.584 
L 269.204972 307.584 
L 269.204972 307.584 
L 266.103826 307.584 
z
" style="fill:#0000ff;opacity:0.3;"/>
   </g>
   <g id="patch_166">
    <path clip-path="url(#p1342182eec)" d="M 269.204972 307.584 
L 272.306119 307.584 
L 272.306119 307.584 
L 269.204972 307.584 
z
" style="fill:#0000ff;opacity:0.3;"/>
   </g>
   <g id="patch_167">
    <path clip-path="url(#p1342182eec)" d="M 272.306119 307.584 
L 275.407266 307.584 
L 275.407266 307.584 
L 272.306119 307.584 
z
" style="fill:#0000ff;opacity:0.3;"/>
   </g>
   <g id="patch_168">
    <path clip-path="url(#p1342182eec)" d="M 275.407266 307.584 
L 278.508412 307.584 
L 278.508412 306.563094 
L 275.407266 306.563094 
z
" style="fill:#0000ff;opacity:0.3;"/>
   </g>
   <g id="patch_169">
    <path clip-path="url(#p1342182eec)" d="M 278.508412 307.584 
L 281.609559 307.584 
L 281.609559 307.584 
L 278.508412 307.584 
z
" style="fill:#0000ff;opacity:0.3;"/>
   </g>
   <g id="patch_170">
    <path clip-path="url(#p1342182eec)" d="M 281.609559 307.584 
L 284.710706 307.584 
L 284.710706 307.584 
L 281.609559 307.584 
z
" style="fill:#0000ff;opacity:0.3;"/>
   </g>
   <g id="patch_171">
    <path clip-path="url(#p1342182eec)" d="M 284.710706 307.584 
L 287.811853 307.584 
L 287.811853 307.584 
L 284.710706 307.584 
z
" style="fill:#0000ff;opacity:0.3;"/>
   </g>
   <g id="patch_172">
    <path clip-path="url(#p1342182eec)" d="M 287.811853 307.584 
L 290.912999 307.584 
L 290.912999 307.584 
L 287.811853 307.584 
z
" style="fill:#0000ff;opacity:0.3;"/>
   </g>
   <g id="patch_173">
    <path clip-path="url(#p1342182eec)" d="M 290.912999 307.584 
L 294.014146 307.584 
L 294.014146 307.584 
L 290.912999 307.584 
z
" style="fill:#0000ff;opacity:0.3;"/>
   </g>
   <g id="patch_174">
    <path clip-path="url(#p1342182eec)" d="M 294.014146 307.584 
L 297.115293 307.584 
L 297.115293 304.776508 
L 294.014146 304.776508 
z
" style="fill:#0000ff;opacity:0.3;"/>
   </g>
   <g id="patch_175">
    <path clip-path="url(#p1342182eec)" d="M 297.115293 307.584 
L 300.21644 307.584 
L 300.21644 307.584 
L 297.115293 307.584 
z
" style="fill:#0000ff;opacity:0.3;"/>
   </g>
   <g id="patch_176">
    <path clip-path="url(#p1342182eec)" d="M 300.21644 307.584 
L 303.317586 307.584 
L 303.317586 307.584 
L 300.21644 307.584 
z
" style="fill:#0000ff;opacity:0.3;"/>
   </g>
   <g id="patch_177">
    <path clip-path="url(#p1342182eec)" d="M 303.317586 307.584 
L 306.418733 307.584 
L 306.418733 307.584 
L 303.317586 307.584 
z
" style="fill:#0000ff;opacity:0.3;"/>
   </g>
   <g id="patch_178">
    <path clip-path="url(#p1342182eec)" d="M 306.418733 307.584 
L 309.51988 307.584 
L 309.51988 307.584 
L 306.418733 307.584 
z
" style="fill:#0000ff;opacity:0.3;"/>
   </g>
   <g id="patch_179">
    <path clip-path="url(#p1342182eec)" d="M 309.51988 307.584 
L 312.621027 307.584 
L 312.621027 307.584 
L 309.51988 307.584 
z
" style="fill:#0000ff;opacity:0.3;"/>
   </g>
   <g id="patch_180">
    <path clip-path="url(#p1342182eec)" d="M 312.621027 307.584 
L 315.722173 307.584 
L 315.722173 307.584 
L 312.621027 307.584 
z
" style="fill:#0000ff;opacity:0.3;"/>
   </g>
   <g id="patch_181">
    <path clip-path="url(#p1342182eec)" d="M 315.722173 307.584 
L 318.82332 307.584 
L 318.82332 307.584 
L 315.722173 307.584 
z
" style="fill:#0000ff;opacity:0.3;"/>
   </g>
   <g id="patch_182">
    <path clip-path="url(#p1342182eec)" d="M 318.82332 307.584 
L 321.924467 307.584 
L 321.924467 307.584 
L 318.82332 307.584 
z
" style="fill:#0000ff;opacity:0.3;"/>
   </g>
   <g id="patch_183">
    <path clip-path="url(#p1342182eec)" d="M 321.924467 307.584 
L 325.025614 307.584 
L 325.025614 307.584 
L 321.924467 307.584 
z
" style="fill:#0000ff;opacity:0.3;"/>
   </g>
   <g id="patch_184">
    <path clip-path="url(#p1342182eec)" d="M 325.025614 307.584 
L 328.12676 307.584 
L 328.12676 307.584 
L 325.025614 307.584 
z
" style="fill:#0000ff;opacity:0.3;"/>
   </g>
   <g id="patch_185">
    <path clip-path="url(#p1342182eec)" d="M 328.12676 307.584 
L 331.227907 307.584 
L 331.227907 307.584 
L 328.12676 307.584 
z
" style="fill:#0000ff;opacity:0.3;"/>
   </g>
   <g id="patch_186">
    <path clip-path="url(#p1342182eec)" d="M 331.227907 307.584 
L 334.329054 307.584 
L 334.329054 307.584 
L 331.227907 307.584 
z
" style="fill:#0000ff;opacity:0.3;"/>
   </g>
   <g id="patch_187">
    <path clip-path="url(#p1342182eec)" d="M 334.329054 307.584 
L 337.430201 307.584 
L 337.430201 307.584 
L 334.329054 307.584 
z
" style="fill:#0000ff;opacity:0.3;"/>
   </g>
   <g id="patch_188">
    <path clip-path="url(#p1342182eec)" d="M 337.430201 307.584 
L 340.531347 307.584 
L 340.531347 307.584 
L 337.430201 307.584 
z
" style="fill:#0000ff;opacity:0.3;"/>
   </g>
   <g id="patch_189">
    <path clip-path="url(#p1342182eec)" d="M 340.531347 307.584 
L 343.632494 307.584 
L 343.632494 307.584 
L 340.531347 307.584 
z
" style="fill:#0000ff;opacity:0.3;"/>
   </g>
   <g id="patch_190">
    <path clip-path="url(#p1342182eec)" d="M 343.632494 307.584 
L 346.733641 307.584 
L 346.733641 307.584 
L 343.632494 307.584 
z
" style="fill:#0000ff;opacity:0.3;"/>
   </g>
   <g id="patch_191">
    <path clip-path="url(#p1342182eec)" d="M 346.733641 307.584 
L 349.834788 307.584 
L 349.834788 307.584 
L 346.733641 307.584 
z
" style="fill:#0000ff;opacity:0.3;"/>
   </g>
   <g id="patch_192">
    <path clip-path="url(#p1342182eec)" d="M 349.834788 307.584 
L 352.935934 307.584 
L 352.935934 307.584 
L 349.834788 307.584 
z
" style="fill:#0000ff;opacity:0.3;"/>
   </g>
   <g id="patch_193">
    <path clip-path="url(#p1342182eec)" d="M 352.935934 307.584 
L 356.037081 307.584 
L 356.037081 307.584 
L 352.935934 307.584 
z
" style="fill:#0000ff;opacity:0.3;"/>
   </g>
   <g id="patch_194">
    <path clip-path="url(#p1342182eec)" d="M 356.037081 307.584 
L 359.138228 307.584 
L 359.138228 307.584 
L 356.037081 307.584 
z
" style="fill:#0000ff;opacity:0.3;"/>
   </g>
   <g id="patch_195">
    <path clip-path="url(#p1342182eec)" d="M 359.138228 307.584 
L 362.239375 307.584 
L 362.239375 307.584 
L 359.138228 307.584 
z
" style="fill:#0000ff;opacity:0.3;"/>
   </g>
   <g id="patch_196">
    <path clip-path="url(#p1342182eec)" d="M 362.239375 307.584 
L 365.340521 307.584 
L 365.340521 307.584 
L 362.239375 307.584 
z
" style="fill:#0000ff;opacity:0.3;"/>
   </g>
   <g id="patch_197">
    <path clip-path="url(#p1342182eec)" d="M 365.340521 307.584 
L 368.441668 307.584 
L 368.441668 307.584 
L 365.340521 307.584 
z
" style="fill:#0000ff;opacity:0.3;"/>
   </g>
   <g id="patch_198">
    <path clip-path="url(#p1342182eec)" d="M 368.441668 307.584 
L 371.542815 307.584 
L 371.542815 307.584 
L 368.441668 307.584 
z
" style="fill:#0000ff;opacity:0.3;"/>
   </g>
   <g id="patch_199">
    <path clip-path="url(#p1342182eec)" d="M 371.542815 307.584 
L 374.643962 307.584 
L 374.643962 307.584 
L 371.542815 307.584 
z
" style="fill:#0000ff;opacity:0.3;"/>
   </g>
   <g id="patch_200">
    <path clip-path="url(#p1342182eec)" d="M 374.643962 307.584 
L 377.745108 307.584 
L 377.745108 307.584 
L 374.643962 307.584 
z
" style="fill:#0000ff;opacity:0.3;"/>
   </g>
   <g id="patch_201">
    <path clip-path="url(#p1342182eec)" d="M 377.745108 307.584 
L 380.846255 307.584 
L 380.846255 307.584 
L 377.745108 307.584 
z
" style="fill:#0000ff;opacity:0.3;"/>
   </g>
   <g id="patch_202">
    <path clip-path="url(#p1342182eec)" d="M 380.846255 307.584 
L 383.947402 307.584 
L 383.947402 287.676326 
L 380.846255 287.676326 
z
" style="fill:#0000ff;opacity:0.3;"/>
   </g>
   <g id="patch_203">
    <path clip-path="url(#p1342182eec)" d="M 76.117564 307.584 
L 79.341261 307.584 
L 79.341261 135.050828 
L 76.117564 135.050828 
z
" style="fill:#008000;opacity:0.2;"/>
   </g>
   <g id="patch_204">
    <path clip-path="url(#p1342182eec)" d="M 79.341261 307.584 
L 82.564958 307.584 
L 82.564958 304.776508 
L 79.341261 304.776508 
z
" style="fill:#008000;opacity:0.2;"/>
   </g>
   <g id="patch_205">
    <path clip-path="url(#p1342182eec)" d="M 82.564958 307.584 
L 85.788655 307.584 
L 85.788655 304.776508 
L 82.564958 304.776508 
z
" style="fill:#008000;opacity:0.2;"/>
   </g>
   <g id="patch_206">
    <path clip-path="url(#p1342182eec)" d="M 85.788655 307.584 
L 89.012352 307.584 
L 89.012352 280.274755 
L 85.788655 280.274755 
z
" style="fill:#008000;opacity:0.2;"/>
   </g>
   <g id="patch_207">
    <path clip-path="url(#p1342182eec)" d="M 89.012352 307.584 
L 92.23605 307.584 
L 92.23605 288.186779 
L 89.012352 288.186779 
z
" style="fill:#008000;opacity:0.2;"/>
   </g>
   <g id="patch_208">
    <path clip-path="url(#p1342182eec)" d="M 92.23605 307.584 
L 95.459747 307.584 
L 95.459747 307.584 
L 92.23605 307.584 
z
" style="fill:#008000;opacity:0.2;"/>
   </g>
   <g id="patch_209">
    <path clip-path="url(#p1342182eec)" d="M 95.459747 307.584 
L 98.683444 307.584 
L 98.683444 281.806115 
L 95.459747 281.806115 
z
" style="fill:#008000;opacity:0.2;"/>
   </g>
   <g id="patch_210">
    <path clip-path="url(#p1342182eec)" d="M 98.683444 307.584 
L 101.907141 307.584 
L 101.907141 191.71113 
L 98.683444 191.71113 
z
" style="fill:#008000;opacity:0.2;"/>
   </g>
   <g id="patch_211">
    <path clip-path="url(#p1342182eec)" d="M 101.907141 307.584 
L 105.130838 307.584 
L 105.130838 304.776508 
L 101.907141 304.776508 
z
" style="fill:#008000;opacity:0.2;"/>
   </g>
   <g id="patch_212">
    <path clip-path="url(#p1342182eec)" d="M 105.130838 307.584 
L 108.354535 307.584 
L 108.354535 141.941946 
L 105.130838 141.941946 
z
" style="fill:#008000;opacity:0.2;"/>
   </g>
   <g id="patch_213">
    <path clip-path="url(#p1342182eec)" d="M 108.354535 307.584 
L 111.578232 307.584 
L 111.578232 294.822671 
L 108.354535 294.822671 
z
" style="fill:#008000;opacity:0.2;"/>
   </g>
   <g id="patch_214">
    <path clip-path="url(#p1342182eec)" d="M 111.578232 307.584 
L 114.801929 307.584 
L 114.801929 307.584 
L 111.578232 307.584 
z
" style="fill:#008000;opacity:0.2;"/>
   </g>
   <g id="patch_215">
    <path clip-path="url(#p1342182eec)" d="M 114.801929 307.584 
L 118.025626 307.584 
L 118.025626 307.584 
L 114.801929 307.584 
z
" style="fill:#008000;opacity:0.2;"/>
   </g>
   <g id="patch_216">
    <path clip-path="url(#p1342182eec)" d="M 118.025626 307.584 
L 121.249323 307.584 
L 121.249323 233.56829 
L 118.025626 233.56829 
z
" style="fill:#008000;opacity:0.2;"/>
   </g>
   <g id="patch_217">
    <path clip-path="url(#p1342182eec)" d="M 121.249323 307.584 
L 124.47302 307.584 
L 124.47302 293.291311 
L 121.249323 293.291311 
z
" style="fill:#008000;opacity:0.2;"/>
   </g>
   <g id="patch_218">
    <path clip-path="url(#p1342182eec)" d="M 124.47302 307.584 
L 127.696718 307.584 
L 127.696718 307.584 
L 124.47302 307.584 
z
" style="fill:#008000;opacity:0.2;"/>
   </g>
   <g id="patch_219">
    <path clip-path="url(#p1342182eec)" d="M 127.696718 307.584 
L 130.920415 307.584 
L 130.920415 259.090949 
L 127.696718 259.090949 
z
" style="fill:#008000;opacity:0.2;"/>
   </g>
   <g id="patch_220">
    <path clip-path="url(#p1342182eec)" d="M 130.920415 307.584 
L 134.144112 307.584 
L 134.144112 304.776508 
L 130.920415 304.776508 
z
" style="fill:#008000;opacity:0.2;"/>
   </g>
   <g id="patch_221">
    <path clip-path="url(#p1342182eec)" d="M 134.144112 307.584 
L 137.367809 307.584 
L 137.367809 277.722489 
L 134.144112 277.722489 
z
" style="fill:#008000;opacity:0.2;"/>
   </g>
   <g id="patch_222">
    <path clip-path="url(#p1342182eec)" d="M 137.367809 307.584 
L 140.591506 307.584 
L 140.591506 306.05264 
L 137.367809 306.05264 
z
" style="fill:#008000;opacity:0.2;"/>
   </g>
   <g id="patch_223">
    <path clip-path="url(#p1342182eec)" d="M 140.591506 307.584 
L 143.815203 307.584 
L 143.815203 307.584 
L 140.591506 307.584 
z
" style="fill:#008000;opacity:0.2;"/>
   </g>
   <g id="patch_224">
    <path clip-path="url(#p1342182eec)" d="M 143.815203 307.584 
L 147.0389 307.584 
L 147.0389 288.697233 
L 143.815203 288.697233 
z
" style="fill:#008000;opacity:0.2;"/>
   </g>
   <g id="patch_225">
    <path clip-path="url(#p1342182eec)" d="M 147.0389 307.584 
L 150.262597 307.584 
L 150.262597 307.584 
L 147.0389 307.584 
z
" style="fill:#008000;opacity:0.2;"/>
   </g>
   <g id="patch_226">
    <path clip-path="url(#p1342182eec)" d="M 150.262597 307.584 
L 153.486294 307.584 
L 153.486294 307.584 
L 150.262597 307.584 
z
" style="fill:#008000;opacity:0.2;"/>
   </g>
   <g id="patch_227">
    <path clip-path="url(#p1342182eec)" d="M 153.486294 307.584 
L 156.709991 307.584 
L 156.709991 307.584 
L 153.486294 307.584 
z
" style="fill:#008000;opacity:0.2;"/>
   </g>
   <g id="patch_228">
    <path clip-path="url(#p1342182eec)" d="M 156.709991 307.584 
L 159.933688 307.584 
L 159.933688 307.584 
L 156.709991 307.584 
z
" style="fill:#008000;opacity:0.2;"/>
   </g>
   <g id="patch_229">
    <path clip-path="url(#p1342182eec)" d="M 159.933688 307.584 
L 163.157385 307.584 
L 163.157385 306.307867 
L 159.933688 306.307867 
z
" style="fill:#008000;opacity:0.2;"/>
   </g>
   <g id="patch_230">
    <path clip-path="url(#p1342182eec)" d="M 163.157385 307.584 
L 166.381083 307.584 
L 166.381083 307.584 
L 163.157385 307.584 
z
" style="fill:#008000;opacity:0.2;"/>
   </g>
   <g id="patch_231">
    <path clip-path="url(#p1342182eec)" d="M 166.381083 307.584 
L 169.60478 307.584 
L 169.60478 307.584 
L 166.381083 307.584 
z
" style="fill:#008000;opacity:0.2;"/>
   </g>
   <g id="patch_232">
    <path clip-path="url(#p1342182eec)" d="M 169.60478 307.584 
L 172.828477 307.584 
L 172.828477 307.584 
L 169.60478 307.584 
z
" style="fill:#008000;opacity:0.2;"/>
   </g>
   <g id="patch_233">
    <path clip-path="url(#p1342182eec)" d="M 172.828477 307.584 
L 176.052174 307.584 
L 176.052174 307.584 
L 172.828477 307.584 
z
" style="fill:#008000;opacity:0.2;"/>
   </g>
   <g id="patch_234">
    <path clip-path="url(#p1342182eec)" d="M 176.052174 307.584 
L 179.275871 307.584 
L 179.275871 307.584 
L 176.052174 307.584 
z
" style="fill:#008000;opacity:0.2;"/>
   </g>
   <g id="patch_235">
    <path clip-path="url(#p1342182eec)" d="M 179.275871 307.584 
L 182.499568 307.584 
L 182.499568 307.584 
L 179.275871 307.584 
z
" style="fill:#008000;opacity:0.2;"/>
   </g>
   <g id="patch_236">
    <path clip-path="url(#p1342182eec)" d="M 182.499568 307.584 
L 185.723265 307.584 
L 185.723265 304.010828 
L 182.499568 304.010828 
z
" style="fill:#008000;opacity:0.2;"/>
   </g>
   <g id="patch_237">
    <path clip-path="url(#p1342182eec)" d="M 185.723265 307.584 
L 188.946962 307.584 
L 188.946962 307.584 
L 185.723265 307.584 
z
" style="fill:#008000;opacity:0.2;"/>
   </g>
   <g id="patch_238">
    <path clip-path="url(#p1342182eec)" d="M 188.946962 307.584 
L 192.170659 307.584 
L 192.170659 307.584 
L 188.946962 307.584 
z
" style="fill:#008000;opacity:0.2;"/>
   </g>
   <g id="patch_239">
    <path clip-path="url(#p1342182eec)" d="M 192.170659 307.584 
L 195.394356 307.584 
L 195.394356 307.584 
L 192.170659 307.584 
z
" style="fill:#008000;opacity:0.2;"/>
   </g>
   <g id="patch_240">
    <path clip-path="url(#p1342182eec)" d="M 195.394356 307.584 
L 198.618053 307.584 
L 198.618053 217.233789 
L 195.394356 217.233789 
z
" style="fill:#008000;opacity:0.2;"/>
   </g>
   <g id="patch_241">
    <path clip-path="url(#p1342182eec)" d="M 198.618053 307.584 
L 201.84175 307.584 
L 201.84175 307.584 
L 198.618053 307.584 
z
" style="fill:#008000;opacity:0.2;"/>
   </g>
   <g id="patch_242">
    <path clip-path="url(#p1342182eec)" d="M 201.84175 307.584 
L 205.065448 307.584 
L 205.065448 306.563094 
L 201.84175 306.563094 
z
" style="fill:#008000;opacity:0.2;"/>
   </g>
   <g id="patch_243">
    <path clip-path="url(#p1342182eec)" d="M 205.065448 307.584 
L 208.289145 307.584 
L 208.289145 307.584 
L 205.065448 307.584 
z
" style="fill:#008000;opacity:0.2;"/>
   </g>
   <g id="patch_244">
    <path clip-path="url(#p1342182eec)" d="M 208.289145 307.584 
L 211.512842 307.584 
L 211.512842 307.584 
L 208.289145 307.584 
z
" style="fill:#008000;opacity:0.2;"/>
   </g>
   <g id="patch_245">
    <path clip-path="url(#p1342182eec)" d="M 211.512842 307.584 
L 214.736539 307.584 
L 214.736539 284.613607 
L 211.512842 284.613607 
z
" style="fill:#008000;opacity:0.2;"/>
   </g>
   <g id="patch_246">
    <path clip-path="url(#p1342182eec)" d="M 214.736539 307.584 
L 217.960236 307.584 
L 217.960236 306.563094 
L 214.736539 306.563094 
z
" style="fill:#008000;opacity:0.2;"/>
   </g>
   <g id="patch_247">
    <path clip-path="url(#p1342182eec)" d="M 217.960236 307.584 
L 221.183933 307.584 
L 221.183933 307.584 
L 217.960236 307.584 
z
" style="fill:#008000;opacity:0.2;"/>
   </g>
   <g id="patch_248">
    <path clip-path="url(#p1342182eec)" d="M 221.183933 307.584 
L 224.40763 307.584 
L 224.40763 307.584 
L 221.183933 307.584 
z
" style="fill:#008000;opacity:0.2;"/>
   </g>
   <g id="patch_249">
    <path clip-path="url(#p1342182eec)" d="M 224.40763 307.584 
L 227.631327 307.584 
L 227.631327 307.584 
L 224.40763 307.584 
z
" style="fill:#008000;opacity:0.2;"/>
   </g>
   <g id="patch_250">
    <path clip-path="url(#p1342182eec)" d="M 227.631327 307.584 
L 230.855024 307.584 
L 230.855024 307.584 
L 227.631327 307.584 
z
" style="fill:#008000;opacity:0.2;"/>
   </g>
   <g id="patch_251">
    <path clip-path="url(#p1342182eec)" d="M 230.855024 307.584 
L 234.078721 307.584 
L 234.078721 307.584 
L 230.855024 307.584 
z
" style="fill:#008000;opacity:0.2;"/>
   </g>
   <g id="patch_252">
    <path clip-path="url(#p1342182eec)" d="M 234.078721 307.584 
L 237.302418 307.584 
L 237.302418 293.036085 
L 234.078721 293.036085 
z
" style="fill:#008000;opacity:0.2;"/>
   </g>
   <g id="patch_253">
    <path clip-path="url(#p1342182eec)" d="M 237.302418 307.584 
L 240.526116 307.584 
L 240.526116 307.584 
L 237.302418 307.584 
z
" style="fill:#008000;opacity:0.2;"/>
   </g>
   <g id="patch_254">
    <path clip-path="url(#p1342182eec)" d="M 240.526116 307.584 
L 243.749813 307.584 
L 243.749813 307.584 
L 240.526116 307.584 
z
" style="fill:#008000;opacity:0.2;"/>
   </g>
   <g id="patch_255">
    <path clip-path="url(#p1342182eec)" d="M 243.749813 307.584 
L 246.97351 307.584 
L 246.97351 307.584 
L 243.749813 307.584 
z
" style="fill:#008000;opacity:0.2;"/>
   </g>
   <g id="patch_256">
    <path clip-path="url(#p1342182eec)" d="M 246.97351 307.584 
L 250.197207 307.584 
L 250.197207 307.584 
L 246.97351 307.584 
z
" style="fill:#008000;opacity:0.2;"/>
   </g>
   <g id="patch_257">
    <path clip-path="url(#p1342182eec)" d="M 250.197207 307.584 
L 253.420904 307.584 
L 253.420904 307.584 
L 250.197207 307.584 
z
" style="fill:#008000;opacity:0.2;"/>
   </g>
   <g id="patch_258">
    <path clip-path="url(#p1342182eec)" d="M 253.420904 307.584 
L 256.644601 307.584 
L 256.644601 307.584 
L 253.420904 307.584 
z
" style="fill:#008000;opacity:0.2;"/>
   </g>
   <g id="patch_259">
    <path clip-path="url(#p1342182eec)" d="M 256.644601 307.584 
L 259.868298 307.584 
L 259.868298 307.584 
L 256.644601 307.584 
z
" style="fill:#008000;opacity:0.2;"/>
   </g>
   <g id="patch_260">
    <path clip-path="url(#p1342182eec)" d="M 259.868298 307.584 
L 263.091995 307.584 
L 263.091995 271.852278 
L 259.868298 271.852278 
z
" style="fill:#008000;opacity:0.2;"/>
   </g>
   <g id="patch_261">
    <path clip-path="url(#p1342182eec)" d="M 263.091995 307.584 
L 266.315692 307.584 
L 266.315692 307.584 
L 263.091995 307.584 
z
" style="fill:#008000;opacity:0.2;"/>
   </g>
   <g id="patch_262">
    <path clip-path="url(#p1342182eec)" d="M 266.315692 307.584 
L 269.539389 307.584 
L 269.539389 307.584 
L 266.315692 307.584 
z
" style="fill:#008000;opacity:0.2;"/>
   </g>
   <g id="patch_263">
    <path clip-path="url(#p1342182eec)" d="M 269.539389 307.584 
L 272.763086 307.584 
L 272.763086 307.584 
L 269.539389 307.584 
z
" style="fill:#008000;opacity:0.2;"/>
   </g>
   <g id="patch_264">
    <path clip-path="url(#p1342182eec)" d="M 272.763086 307.584 
L 275.986783 307.584 
L 275.986783 307.584 
L 272.763086 307.584 
z
" style="fill:#008000;opacity:0.2;"/>
   </g>
   <g id="patch_265">
    <path clip-path="url(#p1342182eec)" d="M 275.986783 307.584 
L 279.210481 307.584 
L 279.210481 307.584 
L 275.986783 307.584 
z
" style="fill:#008000;opacity:0.2;"/>
   </g>
   <g id="patch_266">
    <path clip-path="url(#p1342182eec)" d="M 279.210481 307.584 
L 282.434178 307.584 
L 282.434178 307.584 
L 279.210481 307.584 
z
" style="fill:#008000;opacity:0.2;"/>
   </g>
   <g id="patch_267">
    <path clip-path="url(#p1342182eec)" d="M 282.434178 307.584 
L 285.657875 307.584 
L 285.657875 307.584 
L 282.434178 307.584 
z
" style="fill:#008000;opacity:0.2;"/>
   </g>
   <g id="patch_268">
    <path clip-path="url(#p1342182eec)" d="M 285.657875 307.584 
L 288.881572 307.584 
L 288.881572 307.584 
L 285.657875 307.584 
z
" style="fill:#008000;opacity:0.2;"/>
   </g>
   <g id="patch_269">
    <path clip-path="url(#p1342182eec)" d="M 288.881572 307.584 
L 292.105269 307.584 
L 292.105269 307.584 
L 288.881572 307.584 
z
" style="fill:#008000;opacity:0.2;"/>
   </g>
   <g id="patch_270">
    <path clip-path="url(#p1342182eec)" d="M 292.105269 307.584 
L 295.328966 307.584 
L 295.328966 307.584 
L 292.105269 307.584 
z
" style="fill:#008000;opacity:0.2;"/>
   </g>
   <g id="patch_271">
    <path clip-path="url(#p1342182eec)" d="M 295.328966 307.584 
L 298.552663 307.584 
L 298.552663 307.584 
L 295.328966 307.584 
z
" style="fill:#008000;opacity:0.2;"/>
   </g>
   <g id="patch_272">
    <path clip-path="url(#p1342182eec)" d="M 298.552663 307.584 
L 301.77636 307.584 
L 301.77636 300.948109 
L 298.552663 300.948109 
z
" style="fill:#008000;opacity:0.2;"/>
   </g>
   <g id="patch_273">
    <path clip-path="url(#p1342182eec)" d="M 301.77636 307.584 
L 305.000057 307.584 
L 305.000057 307.584 
L 301.77636 307.584 
z
" style="fill:#008000;opacity:0.2;"/>
   </g>
   <g id="patch_274">
    <path clip-path="url(#p1342182eec)" d="M 305.000057 307.584 
L 308.223754 307.584 
L 308.223754 307.584 
L 305.000057 307.584 
z
" style="fill:#008000;opacity:0.2;"/>
   </g>
   <g id="patch_275">
    <path clip-path="url(#p1342182eec)" d="M 308.223754 307.584 
L 311.447451 307.584 
L 311.447451 303.755601 
L 308.223754 303.755601 
z
" style="fill:#008000;opacity:0.2;"/>
   </g>
   <g id="patch_276">
    <path clip-path="url(#p1342182eec)" d="M 311.447451 307.584 
L 314.671148 307.584 
L 314.671148 307.584 
L 311.447451 307.584 
z
" style="fill:#008000;opacity:0.2;"/>
   </g>
   <g id="patch_277">
    <path clip-path="url(#p1342182eec)" d="M 314.671148 307.584 
L 317.894846 307.584 
L 317.894846 307.584 
L 314.671148 307.584 
z
" style="fill:#008000;opacity:0.2;"/>
   </g>
   <g id="patch_278">
    <path clip-path="url(#p1342182eec)" d="M 317.894846 307.584 
L 321.118543 307.584 
L 321.118543 307.584 
L 317.894846 307.584 
z
" style="fill:#008000;opacity:0.2;"/>
   </g>
   <g id="patch_279">
    <path clip-path="url(#p1342182eec)" d="M 321.118543 307.584 
L 324.34224 307.584 
L 324.34224 307.584 
L 321.118543 307.584 
z
" style="fill:#008000;opacity:0.2;"/>
   </g>
   <g id="patch_280">
    <path clip-path="url(#p1342182eec)" d="M 324.34224 307.584 
L 327.565937 307.584 
L 327.565937 307.584 
L 324.34224 307.584 
z
" style="fill:#008000;opacity:0.2;"/>
   </g>
   <g id="patch_281">
    <path clip-path="url(#p1342182eec)" d="M 327.565937 307.584 
L 330.789634 307.584 
L 330.789634 307.584 
L 327.565937 307.584 
z
" style="fill:#008000;opacity:0.2;"/>
   </g>
   <g id="patch_282">
    <path clip-path="url(#p1342182eec)" d="M 330.789634 307.584 
L 334.013331 307.584 
L 334.013331 307.584 
L 330.789634 307.584 
z
" style="fill:#008000;opacity:0.2;"/>
   </g>
   <g id="patch_283">
    <path clip-path="url(#p1342182eec)" d="M 334.013331 307.584 
L 337.237028 307.584 
L 337.237028 307.584 
L 334.013331 307.584 
z
" style="fill:#008000;opacity:0.2;"/>
   </g>
   <g id="patch_284">
    <path clip-path="url(#p1342182eec)" d="M 337.237028 307.584 
L 340.460725 307.584 
L 340.460725 307.584 
L 337.237028 307.584 
z
" style="fill:#008000;opacity:0.2;"/>
   </g>
   <g id="patch_285">
    <path clip-path="url(#p1342182eec)" d="M 340.460725 307.584 
L 343.684422 307.584 
L 343.684422 307.584 
L 340.460725 307.584 
z
" style="fill:#008000;opacity:0.2;"/>
   </g>
   <g id="patch_286">
    <path clip-path="url(#p1342182eec)" d="M 343.684422 307.584 
L 346.908119 307.584 
L 346.908119 307.584 
L 343.684422 307.584 
z
" style="fill:#008000;opacity:0.2;"/>
   </g>
   <g id="patch_287">
    <path clip-path="url(#p1342182eec)" d="M 346.908119 307.584 
L 350.131816 307.584 
L 350.131816 307.584 
L 346.908119 307.584 
z
" style="fill:#008000;opacity:0.2;"/>
   </g>
   <g id="patch_288">
    <path clip-path="url(#p1342182eec)" d="M 350.131816 307.584 
L 353.355514 307.584 
L 353.355514 307.584 
L 350.131816 307.584 
z
" style="fill:#008000;opacity:0.2;"/>
   </g>
   <g id="patch_289">
    <path clip-path="url(#p1342182eec)" d="M 353.355514 307.584 
L 356.579211 307.584 
L 356.579211 307.584 
L 353.355514 307.584 
z
" style="fill:#008000;opacity:0.2;"/>
   </g>
   <g id="patch_290">
    <path clip-path="url(#p1342182eec)" d="M 356.579211 307.584 
L 359.802908 307.584 
L 359.802908 307.584 
L 356.579211 307.584 
z
" style="fill:#008000;opacity:0.2;"/>
   </g>
   <g id="patch_291">
    <path clip-path="url(#p1342182eec)" d="M 359.802908 307.584 
L 363.026605 307.584 
L 363.026605 307.328773 
L 359.802908 307.328773 
z
" style="fill:#008000;opacity:0.2;"/>
   </g>
   <g id="patch_292">
    <path clip-path="url(#p1342182eec)" d="M 363.026605 307.584 
L 366.250302 307.584 
L 366.250302 307.584 
L 363.026605 307.584 
z
" style="fill:#008000;opacity:0.2;"/>
   </g>
   <g id="patch_293">
    <path clip-path="url(#p1342182eec)" d="M 366.250302 307.584 
L 369.473999 307.584 
L 369.473999 307.584 
L 366.250302 307.584 
z
" style="fill:#008000;opacity:0.2;"/>
   </g>
   <g id="patch_294">
    <path clip-path="url(#p1342182eec)" d="M 369.473999 307.584 
L 372.697696 307.584 
L 372.697696 307.584 
L 369.473999 307.584 
z
" style="fill:#008000;opacity:0.2;"/>
   </g>
   <g id="patch_295">
    <path clip-path="url(#p1342182eec)" d="M 372.697696 307.584 
L 375.921393 307.584 
L 375.921393 307.584 
L 372.697696 307.584 
z
" style="fill:#008000;opacity:0.2;"/>
   </g>
   <g id="patch_296">
    <path clip-path="url(#p1342182eec)" d="M 375.921393 307.584 
L 379.14509 307.584 
L 379.14509 307.584 
L 375.921393 307.584 
z
" style="fill:#008000;opacity:0.2;"/>
   </g>
   <g id="patch_297">
    <path clip-path="url(#p1342182eec)" d="M 379.14509 307.584 
L 382.368787 307.584 
L 382.368787 307.584 
L 379.14509 307.584 
z
" style="fill:#008000;opacity:0.2;"/>
   </g>
   <g id="patch_298">
    <path clip-path="url(#p1342182eec)" d="M 382.368787 307.584 
L 385.592484 307.584 
L 385.592484 307.584 
L 382.368787 307.584 
z
" style="fill:#008000;opacity:0.2;"/>
   </g>
   <g id="patch_299">
    <path clip-path="url(#p1342182eec)" d="M 385.592484 307.584 
L 388.816181 307.584 
L 388.816181 307.584 
L 385.592484 307.584 
z
" style="fill:#008000;opacity:0.2;"/>
   </g>
   <g id="patch_300">
    <path clip-path="url(#p1342182eec)" d="M 388.816181 307.584 
L 392.039879 307.584 
L 392.039879 307.584 
L 388.816181 307.584 
z
" style="fill:#008000;opacity:0.2;"/>
   </g>
   <g id="patch_301">
    <path clip-path="url(#p1342182eec)" d="M 392.039879 307.584 
L 395.263576 307.584 
L 395.263576 307.584 
L 392.039879 307.584 
z
" style="fill:#008000;opacity:0.2;"/>
   </g>
   <g id="patch_302">
    <path clip-path="url(#p1342182eec)" d="M 395.263576 307.584 
L 398.487273 307.584 
L 398.487273 306.05264 
L 395.263576 306.05264 
z
" style="fill:#008000;opacity:0.2;"/>
   </g>
   <g id="matplotlib.axis_1">
    <g id="xtick_1">
     <g id="line2d_1">
      <defs>
       <path d="M 0 0 
L 0 3.5 
" id="m9947323738" style="stroke:#000000;stroke-width:0.8;"/>
      </defs>
      <g>
       <use style="stroke:#000000;stroke-width:0.8;" x="95.850246" xlink:href="#m9947323738" y="307.584"/>
      </g>
     </g>
     <g id="text_1">
      <!-- 96 -->
      <g transform="translate(89.487746 322.182437)scale(0.1 -0.1)">
       <defs>
        <path d="M 703 97 
L 703 672 
Q 941 559 1184 500 
Q 1428 441 1663 441 
Q 2288 441 2617 861 
Q 2947 1281 2994 2138 
Q 2813 1869 2534 1725 
Q 2256 1581 1919 1581 
Q 1219 1581 811 2004 
Q 403 2428 403 3163 
Q 403 3881 828 4315 
Q 1253 4750 1959 4750 
Q 2769 4750 3195 4129 
Q 3622 3509 3622 2328 
Q 3622 1225 3098 567 
Q 2575 -91 1691 -91 
Q 1453 -91 1209 -44 
Q 966 3 703 97 
z
M 1959 2075 
Q 2384 2075 2632 2365 
Q 2881 2656 2881 3163 
Q 2881 3666 2632 3958 
Q 2384 4250 1959 4250 
Q 1534 4250 1286 3958 
Q 1038 3666 1038 3163 
Q 1038 2656 1286 2365 
Q 1534 2075 1959 2075 
z
" id="DejaVuSans-39" transform="scale(0.015625)"/>
        <path d="M 2113 2584 
Q 1688 2584 1439 2293 
Q 1191 2003 1191 1497 
Q 1191 994 1439 701 
Q 1688 409 2113 409 
Q 2538 409 2786 701 
Q 3034 994 3034 1497 
Q 3034 2003 2786 2293 
Q 2538 2584 2113 2584 
z
M 3366 4563 
L 3366 3988 
Q 3128 4100 2886 4159 
Q 2644 4219 2406 4219 
Q 1781 4219 1451 3797 
Q 1122 3375 1075 2522 
Q 1259 2794 1537 2939 
Q 1816 3084 2150 3084 
Q 2853 3084 3261 2657 
Q 3669 2231 3669 1497 
Q 3669 778 3244 343 
Q 2819 -91 2113 -91 
Q 1303 -91 875 529 
Q 447 1150 447 2328 
Q 447 3434 972 4092 
Q 1497 4750 2381 4750 
Q 2619 4750 2861 4703 
Q 3103 4656 3366 4563 
z
" id="DejaVuSans-36" transform="scale(0.015625)"/>
       </defs>
       <use xlink:href="#DejaVuSans-39"/>
       <use x="63.623047" xlink:href="#DejaVuSans-36"/>
      </g>
     </g>
    </g>
    <g id="xtick_2">
     <g id="line2d_2">
      <g>
       <use style="stroke:#000000;stroke-width:0.8;" x="137.392734" xlink:href="#m9947323738" y="307.584"/>
      </g>
     </g>
     <g id="text_2">
      <!-- 98 -->
      <g transform="translate(131.030234 322.182437)scale(0.1 -0.1)">
       <defs>
        <path d="M 2034 2216 
Q 1584 2216 1326 1975 
Q 1069 1734 1069 1313 
Q 1069 891 1326 650 
Q 1584 409 2034 409 
Q 2484 409 2743 651 
Q 3003 894 3003 1313 
Q 3003 1734 2745 1975 
Q 2488 2216 2034 2216 
z
M 1403 2484 
Q 997 2584 770 2862 
Q 544 3141 544 3541 
Q 544 4100 942 4425 
Q 1341 4750 2034 4750 
Q 2731 4750 3128 4425 
Q 3525 4100 3525 3541 
Q 3525 3141 3298 2862 
Q 3072 2584 2669 2484 
Q 3125 2378 3379 2068 
Q 3634 1759 3634 1313 
Q 3634 634 3220 271 
Q 2806 -91 2034 -91 
Q 1263 -91 848 271 
Q 434 634 434 1313 
Q 434 1759 690 2068 
Q 947 2378 1403 2484 
z
M 1172 3481 
Q 1172 3119 1398 2916 
Q 1625 2713 2034 2713 
Q 2441 2713 2670 2916 
Q 2900 3119 2900 3481 
Q 2900 3844 2670 4047 
Q 2441 4250 2034 4250 
Q 1625 4250 1398 4047 
Q 1172 3844 1172 3481 
z
" id="DejaVuSans-38" transform="scale(0.015625)"/>
       </defs>
       <use xlink:href="#DejaVuSans-39"/>
       <use x="63.623047" xlink:href="#DejaVuSans-38"/>
      </g>
     </g>
    </g>
    <g id="xtick_3">
     <g id="line2d_3">
      <g>
       <use style="stroke:#000000;stroke-width:0.8;" x="178.935222" xlink:href="#m9947323738" y="307.584"/>
      </g>
     </g>
     <g id="text_3">
      <!-- 100 -->
      <g transform="translate(169.391472 322.182437)scale(0.1 -0.1)">
       <defs>
        <path d="M 794 531 
L 1825 531 
L 1825 4091 
L 703 3866 
L 703 4441 
L 1819 4666 
L 2450 4666 
L 2450 531 
L 3481 531 
L 3481 0 
L 794 0 
L 794 531 
z
" id="DejaVuSans-31" transform="scale(0.015625)"/>
        <path d="M 2034 4250 
Q 1547 4250 1301 3770 
Q 1056 3291 1056 2328 
Q 1056 1369 1301 889 
Q 1547 409 2034 409 
Q 2525 409 2770 889 
Q 3016 1369 3016 2328 
Q 3016 3291 2770 3770 
Q 2525 4250 2034 4250 
z
M 2034 4750 
Q 2819 4750 3233 4129 
Q 3647 3509 3647 2328 
Q 3647 1150 3233 529 
Q 2819 -91 2034 -91 
Q 1250 -91 836 529 
Q 422 1150 422 2328 
Q 422 3509 836 4129 
Q 1250 4750 2034 4750 
z
" id="DejaVuSans-30" transform="scale(0.015625)"/>
       </defs>
       <use xlink:href="#DejaVuSans-31"/>
       <use x="63.623047" xlink:href="#DejaVuSans-30"/>
       <use x="127.246094" xlink:href="#DejaVuSans-30"/>
      </g>
     </g>
    </g>
    <g id="xtick_4">
     <g id="line2d_4">
      <g>
       <use style="stroke:#000000;stroke-width:0.8;" x="220.477711" xlink:href="#m9947323738" y="307.584"/>
      </g>
     </g>
     <g id="text_4">
      <!-- 102 -->
      <g transform="translate(210.933961 322.182437)scale(0.1 -0.1)">
       <defs>
        <path d="M 1228 531 
L 3431 531 
L 3431 0 
L 469 0 
L 469 531 
Q 828 903 1448 1529 
Q 2069 2156 2228 2338 
Q 2531 2678 2651 2914 
Q 2772 3150 2772 3378 
Q 2772 3750 2511 3984 
Q 2250 4219 1831 4219 
Q 1534 4219 1204 4116 
Q 875 4013 500 3803 
L 500 4441 
Q 881 4594 1212 4672 
Q 1544 4750 1819 4750 
Q 2544 4750 2975 4387 
Q 3406 4025 3406 3419 
Q 3406 3131 3298 2873 
Q 3191 2616 2906 2266 
Q 2828 2175 2409 1742 
Q 1991 1309 1228 531 
z
" id="DejaVuSans-32" transform="scale(0.015625)"/>
       </defs>
       <use xlink:href="#DejaVuSans-31"/>
       <use x="63.623047" xlink:href="#DejaVuSans-30"/>
       <use x="127.246094" xlink:href="#DejaVuSans-32"/>
      </g>
     </g>
    </g>
    <g id="xtick_5">
     <g id="line2d_5">
      <g>
       <use style="stroke:#000000;stroke-width:0.8;" x="262.020199" xlink:href="#m9947323738" y="307.584"/>
      </g>
     </g>
     <g id="text_5">
      <!-- 104 -->
      <g transform="translate(252.476449 322.182437)scale(0.1 -0.1)">
       <defs>
        <path d="M 2419 4116 
L 825 1625 
L 2419 1625 
L 2419 4116 
z
M 2253 4666 
L 3047 4666 
L 3047 1625 
L 3713 1625 
L 3713 1100 
L 3047 1100 
L 3047 0 
L 2419 0 
L 2419 1100 
L 313 1100 
L 313 1709 
L 2253 4666 
z
" id="DejaVuSans-34" transform="scale(0.015625)"/>
       </defs>
       <use xlink:href="#DejaVuSans-31"/>
       <use x="63.623047" xlink:href="#DejaVuSans-30"/>
       <use x="127.246094" xlink:href="#DejaVuSans-34"/>
      </g>
     </g>
    </g>
    <g id="xtick_6">
     <g id="line2d_6">
      <g>
       <use style="stroke:#000000;stroke-width:0.8;" x="303.562687" xlink:href="#m9947323738" y="307.584"/>
      </g>
     </g>
     <g id="text_6">
      <!-- 106 -->
      <g transform="translate(294.018937 322.182437)scale(0.1 -0.1)">
       <use xlink:href="#DejaVuSans-31"/>
       <use x="63.623047" xlink:href="#DejaVuSans-30"/>
       <use x="127.246094" xlink:href="#DejaVuSans-36"/>
      </g>
     </g>
    </g>
    <g id="xtick_7">
     <g id="line2d_7">
      <g>
       <use style="stroke:#000000;stroke-width:0.8;" x="345.105175" xlink:href="#m9947323738" y="307.584"/>
      </g>
     </g>
     <g id="text_7">
      <!-- 108 -->
      <g transform="translate(335.561425 322.182437)scale(0.1 -0.1)">
       <use xlink:href="#DejaVuSans-31"/>
       <use x="63.623047" xlink:href="#DejaVuSans-30"/>
       <use x="127.246094" xlink:href="#DejaVuSans-38"/>
      </g>
     </g>
    </g>
    <g id="xtick_8">
     <g id="line2d_8">
      <g>
       <use style="stroke:#000000;stroke-width:0.8;" x="386.647664" xlink:href="#m9947323738" y="307.584"/>
      </g>
     </g>
     <g id="text_8">
      <!-- 110 -->
      <g transform="translate(377.103914 322.182437)scale(0.1 -0.1)">
       <use xlink:href="#DejaVuSans-31"/>
       <use x="63.623047" xlink:href="#DejaVuSans-31"/>
       <use x="127.246094" xlink:href="#DejaVuSans-30"/>
      </g>
     </g>
    </g>
   </g>
   <g id="matplotlib.axis_2">
    <g id="ytick_1">
     <g id="line2d_9">
      <defs>
       <path d="M 0 0 
L -3.5 0 
" id="m1ab3a50459" style="stroke:#000000;stroke-width:0.8;"/>
      </defs>
      <g>
       <use style="stroke:#000000;stroke-width:0.8;" x="57.6" xlink:href="#m1ab3a50459" y="307.584"/>
      </g>
     </g>
     <g id="text_9">
      <!-- 0 -->
      <g transform="translate(44.2375 311.383219)scale(0.1 -0.1)">
       <use xlink:href="#DejaVuSans-30"/>
      </g>
     </g>
    </g>
    <g id="ytick_2">
     <g id="line2d_10">
      <g>
       <use style="stroke:#000000;stroke-width:0.8;" x="57.6" xlink:href="#m1ab3a50459" y="256.538683"/>
      </g>
     </g>
     <g id="text_10">
      <!-- 200 -->
      <g transform="translate(31.5125 260.337902)scale(0.1 -0.1)">
       <use xlink:href="#DejaVuSans-32"/>
       <use x="63.623047" xlink:href="#DejaVuSans-30"/>
       <use x="127.246094" xlink:href="#DejaVuSans-30"/>
      </g>
     </g>
    </g>
    <g id="ytick_3">
     <g id="line2d_11">
      <g>
       <use style="stroke:#000000;stroke-width:0.8;" x="57.6" xlink:href="#m1ab3a50459" y="205.493366"/>
      </g>
     </g>
     <g id="text_11">
      <!-- 400 -->
      <g transform="translate(31.5125 209.292584)scale(0.1 -0.1)">
       <use xlink:href="#DejaVuSans-34"/>
       <use x="63.623047" xlink:href="#DejaVuSans-30"/>
       <use x="127.246094" xlink:href="#DejaVuSans-30"/>
      </g>
     </g>
    </g>
    <g id="ytick_4">
     <g id="line2d_12">
      <g>
       <use style="stroke:#000000;stroke-width:0.8;" x="57.6" xlink:href="#m1ab3a50459" y="154.448048"/>
      </g>
     </g>
     <g id="text_12">
      <!-- 600 -->
      <g transform="translate(31.5125 158.247267)scale(0.1 -0.1)">
       <use xlink:href="#DejaVuSans-36"/>
       <use x="63.623047" xlink:href="#DejaVuSans-30"/>
       <use x="127.246094" xlink:href="#DejaVuSans-30"/>
      </g>
     </g>
    </g>
    <g id="ytick_5">
     <g id="line2d_13">
      <g>
       <use style="stroke:#000000;stroke-width:0.8;" x="57.6" xlink:href="#m1ab3a50459" y="103.402731"/>
      </g>
     </g>
     <g id="text_13">
      <!-- 800 -->
      <g transform="translate(31.5125 107.20195)scale(0.1 -0.1)">
       <use xlink:href="#DejaVuSans-38"/>
       <use x="63.623047" xlink:href="#DejaVuSans-30"/>
       <use x="127.246094" xlink:href="#DejaVuSans-30"/>
      </g>
     </g>
    </g>
    <g id="ytick_6">
     <g id="line2d_14">
      <g>
       <use style="stroke:#000000;stroke-width:0.8;" x="57.6" xlink:href="#m1ab3a50459" y="52.357414"/>
      </g>
     </g>
     <g id="text_14">
      <!-- 1000 -->
      <g transform="translate(25.15 56.156633)scale(0.1 -0.1)">
       <use xlink:href="#DejaVuSans-31"/>
       <use x="63.623047" xlink:href="#DejaVuSans-30"/>
       <use x="127.246094" xlink:href="#DejaVuSans-30"/>
       <use x="190.869141" xlink:href="#DejaVuSans-30"/>
      </g>
     </g>
    </g>
   </g>
   <g id="patch_303">
    <path clip-path="url(#p1342182eec)" d="M 73.832727 307.584 
L 73.832727 187.372278 
L 76.613997 187.372278 
L 76.613997 215.957656 
L 79.395266 215.957656 
L 79.395266 212.384483 
L 82.176536 212.384483 
L 82.176536 197.836568 
L 84.957806 197.836568 
L 84.957806 198.857474 
L 87.739075 198.857474 
L 87.739075 190.94545 
L 90.520345 190.94545 
L 90.520345 195.794755 
L 93.301614 195.794755 
L 93.301614 191.200677 
L 96.082884 191.200677 
L 96.082884 200.899287 
L 98.864154 200.899287 
L 98.864154 196.049982 
L 101.645423 196.049982 
L 101.645423 200.133607 
L 104.426693 200.133607 
L 104.426693 196.560435 
L 107.207962 196.560435 
L 107.207962 200.388834 
L 109.989232 200.388834 
L 109.989232 223.359227 
L 112.770501 223.359227 
L 112.770501 228.463758 
L 115.551771 228.463758 
L 115.551771 221.57264 
L 118.333041 221.57264 
L 118.333041 228.974211 
L 121.11431 228.974211 
L 121.11431 227.953305 
L 123.89558 227.953305 
L 123.89558 240.204181 
L 126.676849 240.204181 
L 126.676849 243.011674 
L 129.458119 243.011674 
L 129.458119 246.074393 
L 132.239389 246.074393 
L 132.239389 258.580495 
L 135.020658 258.580495 
L 135.020658 260.111855 
L 137.801928 260.111855 
L 137.801928 256.02823 
L 140.583197 256.02823 
L 140.583197 262.664121 
L 143.364467 262.664121 
L 143.364467 267.258199 
L 146.145737 267.258199 
L 146.145737 274.404544 
L 148.927006 274.404544 
L 148.927006 280.274755 
L 151.708276 280.274755 
L 151.708276 278.232943 
L 154.489545 278.232943 
L 154.489545 280.019529 
L 157.270815 280.019529 
L 157.270815 281.550888 
L 160.052084 281.550888 
L 160.052084 283.847927 
L 162.833354 283.847927 
L 162.833354 284.868834 
L 165.614624 284.868834 
L 165.614624 289.462912 
L 168.395893 289.462912 
L 168.395893 285.12406 
L 171.177163 285.12406 
L 171.177163 290.994272 
L 173.958432 290.994272 
L 173.958432 292.015178 
L 176.739702 292.015178 
L 176.739702 292.525631 
L 179.520972 292.525631 
L 179.520972 293.291311 
L 182.302241 293.291311 
L 182.302241 300.182429 
L 185.083511 300.182429 
L 185.083511 299.161523 
L 187.86478 299.161523 
L 187.86478 295.843577 
L 190.64605 295.843577 
L 190.64605 299.671976 
L 193.427319 299.671976 
L 193.427319 300.182429 
L 196.208589 300.182429 
L 196.208589 300.948109 
L 198.989859 300.948109 
L 198.989859 302.224242 
L 201.771128 302.224242 
L 201.771128 301.969015 
L 204.552398 301.969015 
L 204.552398 303.755601 
L 207.333667 303.755601 
L 207.333667 301.203335 
L 210.114937 301.203335 
L 210.114937 304.266054 
L 212.896207 304.266054 
L 212.896207 304.010828 
L 215.677476 304.010828 
L 215.677476 304.266054 
L 218.458746 304.266054 
L 218.458746 305.031734 
L 221.240015 305.031734 
L 221.240015 303.755601 
L 224.021285 303.755601 
L 224.021285 305.797414 
L 226.802555 305.797414 
L 226.802555 306.563094 
L 229.583824 306.563094 
L 229.583824 305.542187 
L 232.365094 305.542187 
L 232.365094 306.307867 
L 235.146363 306.307867 
L 235.146363 305.797414 
L 240.708902 305.797414 
L 240.708902 306.563094 
L 243.490172 306.563094 
L 243.490172 307.073547 
L 246.271442 307.073547 
L 246.271442 306.307867 
L 249.052711 306.307867 
L 249.052711 307.584 
L 251.833981 307.584 
L 251.833981 305.542187 
L 254.61525 305.542187 
L 254.61525 306.81832 
L 257.39652 306.81832 
L 257.39652 307.073547 
L 260.17779 307.073547 
L 260.17779 306.81832 
L 262.959059 306.81832 
L 262.959059 307.328773 
L 265.740329 307.328773 
L 265.740329 306.81832 
L 268.521598 306.81832 
L 268.521598 307.328773 
L 271.302868 307.328773 
L 271.302868 307.073547 
L 276.865407 307.073547 
L 276.865407 306.81832 
L 279.646677 306.81832 
L 279.646677 307.073547 
L 282.427946 307.073547 
L 282.427946 307.328773 
L 296.334294 307.328773 
L 296.334294 306.81832 
L 299.115564 306.81832 
L 299.115564 307.073547 
L 301.896833 307.073547 
L 301.896833 307.328773 
L 304.678103 307.328773 
L 304.678103 307.073547 
L 307.459373 307.073547 
L 307.459373 307.328773 
L 310.240642 307.328773 
L 310.240642 307.073547 
L 313.021912 307.073547 
L 313.021912 307.584 
L 315.803181 307.584 
L 315.803181 307.328773 
L 318.584451 307.328773 
L 318.584451 307.584 
L 321.36572 307.584 
L 321.36572 307.328773 
L 324.14699 307.328773 
L 324.14699 307.073547 
L 326.92826 307.073547 
L 326.92826 307.328773 
L 329.709529 307.328773 
L 329.709529 307.584 
L 343.615877 307.584 
L 343.615877 307.328773 
L 346.397147 307.328773 
L 346.397147 307.584 
L 349.178416 307.584 
L 349.178416 307.328773 
L 351.959686 307.328773 
L 351.959686 307.584 
L 351.959686 307.584 
" style="fill:none;stroke:#ff0000;stroke-linejoin:miter;"/>
   </g>
   <g id="patch_304">
    <path clip-path="url(#p1342182eec)" d="M 73.832727 307.584 
L 73.832727 305.797414 
L 76.933874 305.797414 
L 76.933874 273.638864 
L 80.035021 273.638864 
L 80.035021 215.447202 
L 83.136168 215.447202 
L 83.136168 303.755601 
L 86.237314 303.755601 
L 86.237314 307.584 
L 89.338461 307.584 
L 89.338461 305.286961 
L 92.439608 305.286961 
L 92.439608 252.710284 
L 95.540754 252.710284 
L 95.540754 289.718139 
L 98.641901 289.718139 
L 98.641901 274.65977 
L 101.743048 274.65977 
L 101.743048 297.374937 
L 104.844195 297.374937 
L 104.844195 54.144 
L 107.945341 54.144 
L 107.945341 307.584 
L 111.046488 307.584 
L 111.046488 149.598743 
L 114.147635 149.598743 
L 114.147635 307.584 
L 120.349928 307.584 
L 120.349928 288.186779 
L 123.451075 288.186779 
L 123.451075 304.776508 
L 126.552222 304.776508 
L 126.552222 301.203335 
L 129.653369 301.203335 
L 129.653369 307.584 
L 132.754515 307.584 
L 132.754515 305.797414 
L 135.855662 305.797414 
L 135.855662 307.584 
L 166.86713 307.584 
L 166.86713 285.379287 
L 169.968276 285.379287 
L 169.968276 307.584 
L 176.17057 307.584 
L 176.17057 250.413245 
L 179.271717 250.413245 
L 179.271717 303.245148 
L 182.372863 303.245148 
L 182.372863 307.584 
L 185.47401 307.584 
L 185.47401 301.713789 
L 188.575157 301.713789 
L 188.575157 307.584 
L 191.676304 307.584 
L 191.676304 301.713789 
L 194.77745 301.713789 
L 194.77745 307.584 
L 197.878597 307.584 
L 197.878597 301.713789 
L 200.979744 301.713789 
L 200.979744 307.584 
L 213.384331 307.584 
L 213.384331 299.671976 
L 216.485478 299.671976 
L 216.485478 307.584 
L 275.407266 307.584 
L 275.407266 306.563094 
L 278.508412 306.563094 
L 278.508412 307.584 
L 294.014146 307.584 
L 294.014146 304.776508 
L 297.115293 304.776508 
L 297.115293 307.584 
L 380.846255 307.584 
L 380.846255 287.676326 
L 383.947402 287.676326 
L 383.947402 307.584 
L 383.947402 307.584 
" style="fill:none;stroke:#0000ff;stroke-linejoin:miter;"/>
   </g>
   <g id="patch_305">
    <path clip-path="url(#p1342182eec)" d="M 76.117564 307.584 
L 76.117564 135.050828 
L 79.341261 135.050828 
L 79.341261 304.776508 
L 85.788655 304.776508 
L 85.788655 280.274755 
L 89.012352 280.274755 
L 89.012352 288.186779 
L 92.23605 288.186779 
L 92.23605 307.584 
L 95.459747 307.584 
L 95.459747 281.806115 
L 98.683444 281.806115 
L 98.683444 191.71113 
L 101.907141 191.71113 
L 101.907141 304.776508 
L 105.130838 304.776508 
L 105.130838 141.941946 
L 108.354535 141.941946 
L 108.354535 294.822671 
L 111.578232 294.822671 
L 111.578232 307.584 
L 118.025626 307.584 
L 118.025626 233.56829 
L 121.249323 233.56829 
L 121.249323 293.291311 
L 124.47302 293.291311 
L 124.47302 307.584 
L 127.696718 307.584 
L 127.696718 259.090949 
L 130.920415 259.090949 
L 130.920415 304.776508 
L 134.144112 304.776508 
L 134.144112 277.722489 
L 137.367809 277.722489 
L 137.367809 306.05264 
L 140.591506 306.05264 
L 140.591506 307.584 
L 143.815203 307.584 
L 143.815203 288.697233 
L 147.0389 288.697233 
L 147.0389 307.584 
L 159.933688 307.584 
L 159.933688 306.307867 
L 163.157385 306.307867 
L 163.157385 307.584 
L 182.499568 307.584 
L 182.499568 304.010828 
L 185.723265 304.010828 
L 185.723265 307.584 
L 195.394356 307.584 
L 195.394356 217.233789 
L 198.618053 217.233789 
L 198.618053 307.584 
L 201.84175 307.584 
L 201.84175 306.563094 
L 205.065448 306.563094 
L 205.065448 307.584 
L 211.512842 307.584 
L 211.512842 284.613607 
L 214.736539 284.613607 
L 214.736539 306.563094 
L 217.960236 306.563094 
L 217.960236 307.584 
L 234.078721 307.584 
L 234.078721 293.036085 
L 237.302418 293.036085 
L 237.302418 307.584 
L 259.868298 307.584 
L 259.868298 271.852278 
L 263.091995 271.852278 
L 263.091995 307.584 
L 298.552663 307.584 
L 298.552663 300.948109 
L 301.77636 300.948109 
L 301.77636 307.584 
L 308.223754 307.584 
L 308.223754 303.755601 
L 311.447451 303.755601 
L 311.447451 307.584 
L 359.802908 307.584 
L 359.802908 307.328773 
L 363.026605 307.328773 
L 363.026605 307.584 
L 395.263576 307.584 
L 395.263576 306.05264 
L 398.487273 306.05264 
L 398.487273 307.584 
L 398.487273 307.584 
" style="fill:none;stroke:#008000;stroke-linejoin:miter;"/>
   </g>
   <g id="patch_306">
    <path d="M 57.6 307.584 
L 57.6 41.472 
" style="fill:none;stroke:#000000;stroke-linecap:square;stroke-linejoin:miter;stroke-width:0.8;"/>
   </g>
   <g id="patch_307">
    <path d="M 414.72 307.584 
L 414.72 41.472 
" style="fill:none;stroke:#000000;stroke-linecap:square;stroke-linejoin:miter;stroke-width:0.8;"/>
   </g>
   <g id="patch_308">
    <path d="M 57.6 307.584 
L 414.72 307.584 
" style="fill:none;stroke:#000000;stroke-linecap:square;stroke-linejoin:miter;stroke-width:0.8;"/>
   </g>
   <g id="patch_309">
    <path d="M 57.6 41.472 
L 414.72 41.472 
" style="fill:none;stroke:#000000;stroke-linecap:square;stroke-linejoin:miter;stroke-width:0.8;"/>
   </g>
   <g id="legend_1">
    <g id="patch_310">
     <path d="M 321.37 93.506375 
L 407.72 93.506375 
Q 409.72 93.506375 409.72 91.506375 
L 409.72 48.472 
Q 409.72 46.472 407.72 46.472 
L 321.37 46.472 
Q 319.37 46.472 319.37 48.472 
L 319.37 91.506375 
Q 319.37 93.506375 321.37 93.506375 
z
" style="fill:#ffffff;opacity:0.8;stroke:#cccccc;stroke-linejoin:miter;"/>
    </g>
    <g id="patch_311">
     <path d="M 323.37 58.070438 
L 343.37 58.070438 
L 343.37 51.070438 
L 323.37 51.070438 
z
" style="fill:none;stroke:#ff0000;stroke-linejoin:miter;"/>
    </g>
    <g id="text_15">
     <!-- optimal -->
     <g transform="translate(351.37 58.070438)scale(0.1 -0.1)">
      <defs>
       <path d="M 1959 3097 
Q 1497 3097 1228 2736 
Q 959 2375 959 1747 
Q 959 1119 1226 758 
Q 1494 397 1959 397 
Q 2419 397 2687 759 
Q 2956 1122 2956 1747 
Q 2956 2369 2687 2733 
Q 2419 3097 1959 3097 
z
M 1959 3584 
Q 2709 3584 3137 3096 
Q 3566 2609 3566 1747 
Q 3566 888 3137 398 
Q 2709 -91 1959 -91 
Q 1206 -91 779 398 
Q 353 888 353 1747 
Q 353 2609 779 3096 
Q 1206 3584 1959 3584 
z
" id="DejaVuSans-6f" transform="scale(0.015625)"/>
       <path d="M 1159 525 
L 1159 -1331 
L 581 -1331 
L 581 3500 
L 1159 3500 
L 1159 2969 
Q 1341 3281 1617 3432 
Q 1894 3584 2278 3584 
Q 2916 3584 3314 3078 
Q 3713 2572 3713 1747 
Q 3713 922 3314 415 
Q 2916 -91 2278 -91 
Q 1894 -91 1617 61 
Q 1341 213 1159 525 
z
M 3116 1747 
Q 3116 2381 2855 2742 
Q 2594 3103 2138 3103 
Q 1681 3103 1420 2742 
Q 1159 2381 1159 1747 
Q 1159 1113 1420 752 
Q 1681 391 2138 391 
Q 2594 391 2855 752 
Q 3116 1113 3116 1747 
z
" id="DejaVuSans-70" transform="scale(0.015625)"/>
       <path d="M 1172 4494 
L 1172 3500 
L 2356 3500 
L 2356 3053 
L 1172 3053 
L 1172 1153 
Q 1172 725 1289 603 
Q 1406 481 1766 481 
L 2356 481 
L 2356 0 
L 1766 0 
Q 1100 0 847 248 
Q 594 497 594 1153 
L 594 3053 
L 172 3053 
L 172 3500 
L 594 3500 
L 594 4494 
L 1172 4494 
z
" id="DejaVuSans-74" transform="scale(0.015625)"/>
       <path d="M 603 3500 
L 1178 3500 
L 1178 0 
L 603 0 
L 603 3500 
z
M 603 4863 
L 1178 4863 
L 1178 4134 
L 603 4134 
L 603 4863 
z
" id="DejaVuSans-69" transform="scale(0.015625)"/>
       <path d="M 3328 2828 
Q 3544 3216 3844 3400 
Q 4144 3584 4550 3584 
Q 5097 3584 5394 3201 
Q 5691 2819 5691 2113 
L 5691 0 
L 5113 0 
L 5113 2094 
Q 5113 2597 4934 2840 
Q 4756 3084 4391 3084 
Q 3944 3084 3684 2787 
Q 3425 2491 3425 1978 
L 3425 0 
L 2847 0 
L 2847 2094 
Q 2847 2600 2669 2842 
Q 2491 3084 2119 3084 
Q 1678 3084 1418 2786 
Q 1159 2488 1159 1978 
L 1159 0 
L 581 0 
L 581 3500 
L 1159 3500 
L 1159 2956 
Q 1356 3278 1631 3431 
Q 1906 3584 2284 3584 
Q 2666 3584 2933 3390 
Q 3200 3197 3328 2828 
z
" id="DejaVuSans-6d" transform="scale(0.015625)"/>
       <path d="M 2194 1759 
Q 1497 1759 1228 1600 
Q 959 1441 959 1056 
Q 959 750 1161 570 
Q 1363 391 1709 391 
Q 2188 391 2477 730 
Q 2766 1069 2766 1631 
L 2766 1759 
L 2194 1759 
z
M 3341 1997 
L 3341 0 
L 2766 0 
L 2766 531 
Q 2569 213 2275 61 
Q 1981 -91 1556 -91 
Q 1019 -91 701 211 
Q 384 513 384 1019 
Q 384 1609 779 1909 
Q 1175 2209 1959 2209 
L 2766 2209 
L 2766 2266 
Q 2766 2663 2505 2880 
Q 2244 3097 1772 3097 
Q 1472 3097 1187 3025 
Q 903 2953 641 2809 
L 641 3341 
Q 956 3463 1253 3523 
Q 1550 3584 1831 3584 
Q 2591 3584 2966 3190 
Q 3341 2797 3341 1997 
z
" id="DejaVuSans-61" transform="scale(0.015625)"/>
       <path d="M 603 4863 
L 1178 4863 
L 1178 0 
L 603 0 
L 603 4863 
z
" id="DejaVuSans-6c" transform="scale(0.015625)"/>
      </defs>
      <use xlink:href="#DejaVuSans-6f"/>
      <use x="61.181641" xlink:href="#DejaVuSans-70"/>
      <use x="124.658203" xlink:href="#DejaVuSans-74"/>
      <use x="163.867188" xlink:href="#DejaVuSans-69"/>
      <use x="191.650391" xlink:href="#DejaVuSans-6d"/>
      <use x="289.0625" xlink:href="#DejaVuSans-61"/>
      <use x="350.341797" xlink:href="#DejaVuSans-6c"/>
     </g>
    </g>
    <g id="patch_312">
     <path d="M 323.37 72.748563 
L 343.37 72.748563 
L 343.37 65.748563 
L 323.37 65.748563 
z
" style="fill:none;stroke:#0000ff;stroke-linejoin:miter;"/>
    </g>
    <g id="text_16">
     <!-- high -->
     <g transform="translate(351.37 72.748563)scale(0.1 -0.1)">
      <defs>
       <path d="M 3513 2113 
L 3513 0 
L 2938 0 
L 2938 2094 
Q 2938 2591 2744 2837 
Q 2550 3084 2163 3084 
Q 1697 3084 1428 2787 
Q 1159 2491 1159 1978 
L 1159 0 
L 581 0 
L 581 4863 
L 1159 4863 
L 1159 2956 
Q 1366 3272 1645 3428 
Q 1925 3584 2291 3584 
Q 2894 3584 3203 3211 
Q 3513 2838 3513 2113 
z
" id="DejaVuSans-68" transform="scale(0.015625)"/>
       <path d="M 2906 1791 
Q 2906 2416 2648 2759 
Q 2391 3103 1925 3103 
Q 1463 3103 1205 2759 
Q 947 2416 947 1791 
Q 947 1169 1205 825 
Q 1463 481 1925 481 
Q 2391 481 2648 825 
Q 2906 1169 2906 1791 
z
M 3481 434 
Q 3481 -459 3084 -895 
Q 2688 -1331 1869 -1331 
Q 1566 -1331 1297 -1286 
Q 1028 -1241 775 -1147 
L 775 -588 
Q 1028 -725 1275 -790 
Q 1522 -856 1778 -856 
Q 2344 -856 2625 -561 
Q 2906 -266 2906 331 
L 2906 616 
Q 2728 306 2450 153 
Q 2172 0 1784 0 
Q 1141 0 747 490 
Q 353 981 353 1791 
Q 353 2603 747 3093 
Q 1141 3584 1784 3584 
Q 2172 3584 2450 3431 
Q 2728 3278 2906 2969 
L 2906 3500 
L 3481 3500 
L 3481 434 
z
" id="DejaVuSans-67" transform="scale(0.015625)"/>
      </defs>
      <use xlink:href="#DejaVuSans-68"/>
      <use x="63.378906" xlink:href="#DejaVuSans-69"/>
      <use x="91.162109" xlink:href="#DejaVuSans-67"/>
      <use x="154.638672" xlink:href="#DejaVuSans-68"/>
     </g>
    </g>
    <g id="patch_313">
     <path d="M 323.37 87.426688 
L 343.37 87.426688 
L 343.37 80.426688 
L 323.37 80.426688 
z
" style="fill:none;stroke:#008000;stroke-linejoin:miter;"/>
    </g>
    <g id="text_17">
     <!-- timed-high -->
     <g transform="translate(351.37 87.426688)scale(0.1 -0.1)">
      <defs>
       <path d="M 3597 1894 
L 3597 1613 
L 953 1613 
Q 991 1019 1311 708 
Q 1631 397 2203 397 
Q 2534 397 2845 478 
Q 3156 559 3463 722 
L 3463 178 
Q 3153 47 2828 -22 
Q 2503 -91 2169 -91 
Q 1331 -91 842 396 
Q 353 884 353 1716 
Q 353 2575 817 3079 
Q 1281 3584 2069 3584 
Q 2775 3584 3186 3129 
Q 3597 2675 3597 1894 
z
M 3022 2063 
Q 3016 2534 2758 2815 
Q 2500 3097 2075 3097 
Q 1594 3097 1305 2825 
Q 1016 2553 972 2059 
L 3022 2063 
z
" id="DejaVuSans-65" transform="scale(0.015625)"/>
       <path d="M 2906 2969 
L 2906 4863 
L 3481 4863 
L 3481 0 
L 2906 0 
L 2906 525 
Q 2725 213 2448 61 
Q 2172 -91 1784 -91 
Q 1150 -91 751 415 
Q 353 922 353 1747 
Q 353 2572 751 3078 
Q 1150 3584 1784 3584 
Q 2172 3584 2448 3432 
Q 2725 3281 2906 2969 
z
M 947 1747 
Q 947 1113 1208 752 
Q 1469 391 1925 391 
Q 2381 391 2643 752 
Q 2906 1113 2906 1747 
Q 2906 2381 2643 2742 
Q 2381 3103 1925 3103 
Q 1469 3103 1208 2742 
Q 947 2381 947 1747 
z
" id="DejaVuSans-64" transform="scale(0.015625)"/>
       <path d="M 313 2009 
L 1997 2009 
L 1997 1497 
L 313 1497 
L 313 2009 
z
" id="DejaVuSans-2d" transform="scale(0.015625)"/>
      </defs>
      <use xlink:href="#DejaVuSans-74"/>
      <use x="39.208984" xlink:href="#DejaVuSans-69"/>
      <use x="66.992188" xlink:href="#DejaVuSans-6d"/>
      <use x="164.404297" xlink:href="#DejaVuSans-65"/>
      <use x="225.927734" xlink:href="#DejaVuSans-64"/>
      <use x="289.404297" xlink:href="#DejaVuSans-2d"/>
      <use x="325.488281" xlink:href="#DejaVuSans-68"/>
      <use x="388.867188" xlink:href="#DejaVuSans-69"/>
      <use x="416.650391" xlink:href="#DejaVuSans-67"/>
      <use x="480.126953" xlink:href="#DejaVuSans-68"/>
     </g>
    </g>
   </g>
  </g>
 </g>
 <defs>
  <clipPath id="p1342182eec">
   <rect height="266.112" width="357.12" x="57.6" y="41.472"/>
  </clipPath>
 </defs>
</svg>
