<?xml version="1.0" encoding="utf-8" standalone="no"?>
<!DOCTYPE svg PUBLIC "-//W3C//DTD SVG 1.1//EN"
  "http://www.w3.org/Graphics/SVG/1.1/DTD/svg11.dtd">
<svg height="345.6pt" version="1.1" viewBox="0 0 460.8 345.6" width="460.8pt" xmlns="http://www.w3.org/2000/svg" xmlns:xlink="http://www.w3.org/1999/xlink">
 <metadata>
  <rdf:RDF xmlns:cc="http://creativecommons.org/ns#" xmlns:dc="http://purl.org/dc/elements/1.1/" xmlns:rdf="http://www.w3.org/1999/02/22-rdf-syntax-ns#">
   <cc:Work>
    <dc:type rdf:resource="http://purl.org/dc/dcmitype/StillImage"/>
    <dc:date>2021-09-22T14:17:28.405142</dc:date>
    <dc:format>image/svg+xml</dc:format>
    <dc:creator>
     <cc:Agent>
      <dc:title>Matplotlib v3.4.1, https://matplotlib.org/</dc:title>
     </cc:Agent>
    </dc:creator>
   </cc:Work>
  </rdf:RDF>
 </metadata>
 <defs>
  <style type="text/css">*{stroke-linecap:butt;stroke-linejoin:round;}</style>
 </defs>
 <g id="figure_1">
  <g id="patch_1">
   <path d="M 0 345.6 
L 460.8 345.6 
L 460.8 0 
L 0 0 
z
" style="fill:#ffffff;"/>
  </g>
  <g id="axes_1">
   <g id="patch_2">
    <path d="M 57.6 307.584 
L 414.72 307.584 
L 414.72 41.472 
L 57.6 41.472 
z
" style="fill:#ffffff;"/>
   </g>
   <g id="patch_3">
    <path clip-path="url(#pbc26cedd74)" d="M 73.832727 307.584 
L 77.079273 307.584 
L 77.079273 305.372482 
L 73.832727 305.372482 
z
" style="fill:#ff0000;opacity:0.2;"/>
   </g>
   <g id="patch_4">
    <path clip-path="url(#pbc26cedd74)" d="M 77.079273 307.584 
L 80.325818 307.584 
L 80.325818 300.064838 
L 77.079273 300.064838 
z
" style="fill:#ff0000;opacity:0.2;"/>
   </g>
   <g id="patch_5">
    <path clip-path="url(#pbc26cedd74)" d="M 80.325818 307.584 
L 83.572364 307.584 
L 83.572364 293.872586 
L 80.325818 293.872586 
z
" style="fill:#ff0000;opacity:0.2;"/>
   </g>
   <g id="patch_6">
    <path clip-path="url(#pbc26cedd74)" d="M 83.572364 307.584 
L 86.818909 307.584 
L 86.818909 297.411016 
L 83.572364 297.411016 
z
" style="fill:#ff0000;opacity:0.2;"/>
   </g>
   <g id="patch_7">
    <path clip-path="url(#pbc26cedd74)" d="M 86.818909 307.584 
L 90.065455 307.584 
L 90.065455 287.238031 
L 86.818909 287.238031 
z
" style="fill:#ff0000;opacity:0.2;"/>
   </g>
   <g id="patch_8">
    <path clip-path="url(#pbc26cedd74)" d="M 90.065455 307.584 
L 93.312 307.584 
L 93.312 281.488084 
L 90.065455 281.488084 
z
" style="fill:#ff0000;opacity:0.2;"/>
   </g>
   <g id="patch_9">
    <path clip-path="url(#pbc26cedd74)" d="M 93.312 307.584 
L 96.558545 307.584 
L 96.558545 278.834262 
L 93.312 278.834262 
z
" style="fill:#ff0000;opacity:0.2;"/>
   </g>
   <g id="patch_10">
    <path clip-path="url(#pbc26cedd74)" d="M 96.558545 307.584 
L 99.805091 307.584 
L 99.805091 286.353424 
L 96.558545 286.353424 
z
" style="fill:#ff0000;opacity:0.2;"/>
   </g>
   <g id="patch_11">
    <path clip-path="url(#pbc26cedd74)" d="M 99.805091 307.584 
L 103.051636 307.584 
L 103.051636 287.680335 
L 99.805091 287.680335 
z
" style="fill:#ff0000;opacity:0.2;"/>
   </g>
   <g id="patch_12">
    <path clip-path="url(#pbc26cedd74)" d="M 103.051636 307.584 
L 106.298182 307.584 
L 106.298182 297.853319 
L 103.051636 297.853319 
z
" style="fill:#ff0000;opacity:0.2;"/>
   </g>
   <g id="patch_13">
    <path clip-path="url(#pbc26cedd74)" d="M 106.298182 307.584 
L 109.544727 307.584 
L 109.544727 301.834052 
L 106.298182 301.834052 
z
" style="fill:#ff0000;opacity:0.2;"/>
   </g>
   <g id="patch_14">
    <path clip-path="url(#pbc26cedd74)" d="M 109.544727 307.584 
L 112.791273 307.584 
L 112.791273 300.064838 
L 109.544727 300.064838 
z
" style="fill:#ff0000;opacity:0.2;"/>
   </g>
   <g id="patch_15">
    <path clip-path="url(#pbc26cedd74)" d="M 112.791273 307.584 
L 116.037818 307.584 
L 116.037818 291.218764 
L 112.791273 291.218764 
z
" style="fill:#ff0000;opacity:0.2;"/>
   </g>
   <g id="patch_16">
    <path clip-path="url(#pbc26cedd74)" d="M 116.037818 307.584 
L 119.284364 307.584 
L 119.284364 282.814995 
L 116.037818 282.814995 
z
" style="fill:#ff0000;opacity:0.2;"/>
   </g>
   <g id="patch_17">
    <path clip-path="url(#pbc26cedd74)" d="M 119.284364 307.584 
L 122.530909 307.584 
L 122.530909 284.584209 
L 119.284364 284.584209 
z
" style="fill:#ff0000;opacity:0.2;"/>
   </g>
   <g id="patch_18">
    <path clip-path="url(#pbc26cedd74)" d="M 122.530909 307.584 
L 125.777455 307.584 
L 125.777455 285.91112 
L 122.530909 285.91112 
z
" style="fill:#ff0000;opacity:0.2;"/>
   </g>
   <g id="patch_19">
    <path clip-path="url(#pbc26cedd74)" d="M 125.777455 307.584 
L 129.024 307.584 
L 129.024 295.199497 
L 125.777455 295.199497 
z
" style="fill:#ff0000;opacity:0.2;"/>
   </g>
   <g id="patch_20">
    <path clip-path="url(#pbc26cedd74)" d="M 129.024 307.584 
L 132.270545 307.584 
L 132.270545 290.776461 
L 129.024 290.776461 
z
" style="fill:#ff0000;opacity:0.2;"/>
   </g>
   <g id="patch_21">
    <path clip-path="url(#pbc26cedd74)" d="M 132.270545 307.584 
L 135.517091 307.584 
L 135.517091 301.391749 
L 132.270545 301.391749 
z
" style="fill:#ff0000;opacity:0.2;"/>
   </g>
   <g id="patch_22">
    <path clip-path="url(#pbc26cedd74)" d="M 135.517091 307.584 
L 138.763636 307.584 
L 138.763636 298.295623 
L 135.517091 298.295623 
z
" style="fill:#ff0000;opacity:0.2;"/>
   </g>
   <g id="patch_23">
    <path clip-path="url(#pbc26cedd74)" d="M 138.763636 307.584 
L 142.010182 307.584 
L 142.010182 297.853319 
L 138.763636 297.853319 
z
" style="fill:#ff0000;opacity:0.2;"/>
   </g>
   <g id="patch_24">
    <path clip-path="url(#pbc26cedd74)" d="M 142.010182 307.584 
L 145.256727 307.584 
L 145.256727 293.430283 
L 142.010182 293.430283 
z
" style="fill:#ff0000;opacity:0.2;"/>
   </g>
   <g id="patch_25">
    <path clip-path="url(#pbc26cedd74)" d="M 145.256727 307.584 
L 148.503273 307.584 
L 148.503273 297.411016 
L 145.256727 297.411016 
z
" style="fill:#ff0000;opacity:0.2;"/>
   </g>
   <g id="patch_26">
    <path clip-path="url(#pbc26cedd74)" d="M 148.503273 307.584 
L 151.749818 307.584 
L 151.749818 297.411016 
L 148.503273 297.411016 
z
" style="fill:#ff0000;opacity:0.2;"/>
   </g>
   <g id="patch_27">
    <path clip-path="url(#pbc26cedd74)" d="M 151.749818 307.584 
L 154.996364 307.584 
L 154.996364 293.872586 
L 151.749818 293.872586 
z
" style="fill:#ff0000;opacity:0.2;"/>
   </g>
   <g id="patch_28">
    <path clip-path="url(#pbc26cedd74)" d="M 154.996364 307.584 
L 158.242909 307.584 
L 158.242909 289.44955 
L 154.996364 289.44955 
z
" style="fill:#ff0000;opacity:0.2;"/>
   </g>
   <g id="patch_29">
    <path clip-path="url(#pbc26cedd74)" d="M 158.242909 307.584 
L 161.489455 307.584 
L 161.489455 287.238031 
L 158.242909 287.238031 
z
" style="fill:#ff0000;opacity:0.2;"/>
   </g>
   <g id="patch_30">
    <path clip-path="url(#pbc26cedd74)" d="M 161.489455 307.584 
L 164.736 307.584 
L 164.736 281.488084 
L 161.489455 281.488084 
z
" style="fill:#ff0000;opacity:0.2;"/>
   </g>
   <g id="patch_31">
    <path clip-path="url(#pbc26cedd74)" d="M 164.736 307.584 
L 167.982545 307.584 
L 167.982545 271.315099 
L 164.736 271.315099 
z
" style="fill:#ff0000;opacity:0.2;"/>
   </g>
   <g id="patch_32">
    <path clip-path="url(#pbc26cedd74)" d="M 167.982545 307.584 
L 171.229091 307.584 
L 171.229091 279.718869 
L 167.982545 279.718869 
z
" style="fill:#ff0000;opacity:0.2;"/>
   </g>
   <g id="patch_33">
    <path clip-path="url(#pbc26cedd74)" d="M 171.229091 307.584 
L 174.475636 307.584 
L 174.475636 283.257298 
L 171.229091 283.257298 
z
" style="fill:#ff0000;opacity:0.2;"/>
   </g>
   <g id="patch_34">
    <path clip-path="url(#pbc26cedd74)" d="M 174.475636 307.584 
L 177.722182 307.584 
L 177.722182 277.507351 
L 174.475636 277.507351 
z
" style="fill:#ff0000;opacity:0.2;"/>
   </g>
   <g id="patch_35">
    <path clip-path="url(#pbc26cedd74)" d="M 177.722182 307.584 
L 180.968727 307.584 
L 180.968727 280.603476 
L 177.722182 280.603476 
z
" style="fill:#ff0000;opacity:0.2;"/>
   </g>
   <g id="patch_36">
    <path clip-path="url(#pbc26cedd74)" d="M 180.968727 307.584 
L 184.215273 307.584 
L 184.215273 275.738136 
L 180.968727 275.738136 
z
" style="fill:#ff0000;opacity:0.2;"/>
   </g>
   <g id="patch_37">
    <path clip-path="url(#pbc26cedd74)" d="M 184.215273 307.584 
L 187.461818 307.584 
L 187.461818 281.04578 
L 184.215273 281.04578 
z
" style="fill:#ff0000;opacity:0.2;"/>
   </g>
   <g id="patch_38">
    <path clip-path="url(#pbc26cedd74)" d="M 187.461818 307.584 
L 190.708364 307.584 
L 190.708364 280.603476 
L 187.461818 280.603476 
z
" style="fill:#ff0000;opacity:0.2;"/>
   </g>
   <g id="patch_39">
    <path clip-path="url(#pbc26cedd74)" d="M 190.708364 307.584 
L 193.954909 307.584 
L 193.954909 286.353424 
L 190.708364 286.353424 
z
" style="fill:#ff0000;opacity:0.2;"/>
   </g>
   <g id="patch_40">
    <path clip-path="url(#pbc26cedd74)" d="M 193.954909 307.584 
L 197.201455 307.584 
L 197.201455 286.795728 
L 193.954909 286.795728 
z
" style="fill:#ff0000;opacity:0.2;"/>
   </g>
   <g id="patch_41">
    <path clip-path="url(#pbc26cedd74)" d="M 197.201455 307.584 
L 200.448 307.584 
L 200.448 283.699602 
L 197.201455 283.699602 
z
" style="fill:#ff0000;opacity:0.2;"/>
   </g>
   <g id="patch_42">
    <path clip-path="url(#pbc26cedd74)" d="M 200.448 307.584 
L 203.694545 307.584 
L 203.694545 281.488084 
L 200.448 281.488084 
z
" style="fill:#ff0000;opacity:0.2;"/>
   </g>
   <g id="patch_43">
    <path clip-path="url(#pbc26cedd74)" d="M 203.694545 307.584 
L 206.941091 307.584 
L 206.941091 273.084314 
L 203.694545 273.084314 
z
" style="fill:#ff0000;opacity:0.2;"/>
   </g>
   <g id="patch_44">
    <path clip-path="url(#pbc26cedd74)" d="M 206.941091 307.584 
L 210.187636 307.584 
L 210.187636 262.026723 
L 206.941091 262.026723 
z
" style="fill:#ff0000;opacity:0.2;"/>
   </g>
   <g id="patch_45">
    <path clip-path="url(#pbc26cedd74)" d="M 210.187636 307.584 
L 213.434182 307.584 
L 213.434182 258.930597 
L 210.187636 258.930597 
z
" style="fill:#ff0000;opacity:0.2;"/>
   </g>
   <g id="patch_46">
    <path clip-path="url(#pbc26cedd74)" d="M 213.434182 307.584 
L 216.680727 307.584 
L 216.680727 260.257508 
L 213.434182 260.257508 
z
" style="fill:#ff0000;opacity:0.2;"/>
   </g>
   <g id="patch_47">
    <path clip-path="url(#pbc26cedd74)" d="M 216.680727 307.584 
L 219.927273 307.584 
L 219.927273 255.392168 
L 216.680727 255.392168 
z
" style="fill:#ff0000;opacity:0.2;"/>
   </g>
   <g id="patch_48">
    <path clip-path="url(#pbc26cedd74)" d="M 219.927273 307.584 
L 223.173818 307.584 
L 223.173818 267.77667 
L 219.927273 267.77667 
z
" style="fill:#ff0000;opacity:0.2;"/>
   </g>
   <g id="patch_49">
    <path clip-path="url(#pbc26cedd74)" d="M 223.173818 307.584 
L 226.420364 307.584 
L 226.420364 265.122848 
L 223.173818 265.122848 
z
" style="fill:#ff0000;opacity:0.2;"/>
   </g>
   <g id="patch_50">
    <path clip-path="url(#pbc26cedd74)" d="M 226.420364 307.584 
L 229.666909 307.584 
L 229.666909 273.968921 
L 226.420364 273.968921 
z
" style="fill:#ff0000;opacity:0.2;"/>
   </g>
   <g id="patch_51">
    <path clip-path="url(#pbc26cedd74)" d="M 229.666909 307.584 
L 232.913455 307.584 
L 232.913455 262.026723 
L 229.666909 262.026723 
z
" style="fill:#ff0000;opacity:0.2;"/>
   </g>
   <g id="patch_52">
    <path clip-path="url(#pbc26cedd74)" d="M 232.913455 307.584 
L 236.16 307.584 
L 236.16 278.391958 
L 232.913455 278.391958 
z
" style="fill:#ff0000;opacity:0.2;"/>
   </g>
   <g id="patch_53">
    <path clip-path="url(#pbc26cedd74)" d="M 236.16 307.584 
L 239.406545 307.584 
L 239.406545 280.603476 
L 236.16 280.603476 
z
" style="fill:#ff0000;opacity:0.2;"/>
   </g>
   <g id="patch_54">
    <path clip-path="url(#pbc26cedd74)" d="M 239.406545 307.584 
L 242.653091 307.584 
L 242.653091 274.853529 
L 239.406545 274.853529 
z
" style="fill:#ff0000;opacity:0.2;"/>
   </g>
   <g id="patch_55">
    <path clip-path="url(#pbc26cedd74)" d="M 242.653091 307.584 
L 245.899636 307.584 
L 245.899636 267.334366 
L 242.653091 267.334366 
z
" style="fill:#ff0000;opacity:0.2;"/>
   </g>
   <g id="patch_56">
    <path clip-path="url(#pbc26cedd74)" d="M 245.899636 307.584 
L 249.146182 307.584 
L 249.146182 266.892063 
L 245.899636 266.892063 
z
" style="fill:#ff0000;opacity:0.2;"/>
   </g>
   <g id="patch_57">
    <path clip-path="url(#pbc26cedd74)" d="M 249.146182 307.584 
L 252.392727 307.584 
L 252.392727 257.161382 
L 249.146182 257.161382 
z
" style="fill:#ff0000;opacity:0.2;"/>
   </g>
   <g id="patch_58">
    <path clip-path="url(#pbc26cedd74)" d="M 252.392727 307.584 
L 255.639273 307.584 
L 255.639273 252.296042 
L 252.392727 252.296042 
z
" style="fill:#ff0000;opacity:0.2;"/>
   </g>
   <g id="patch_59">
    <path clip-path="url(#pbc26cedd74)" d="M 255.639273 307.584 
L 258.885818 307.584 
L 258.885818 262.91133 
L 255.639273 262.91133 
z
" style="fill:#ff0000;opacity:0.2;"/>
   </g>
   <g id="patch_60">
    <path clip-path="url(#pbc26cedd74)" d="M 258.885818 307.584 
L 262.132364 307.584 
L 262.132364 275.738136 
L 258.885818 275.738136 
z
" style="fill:#ff0000;opacity:0.2;"/>
   </g>
   <g id="patch_61">
    <path clip-path="url(#pbc26cedd74)" d="M 262.132364 307.584 
L 265.378909 307.584 
L 265.378909 267.77667 
L 262.132364 267.77667 
z
" style="fill:#ff0000;opacity:0.2;"/>
   </g>
   <g id="patch_62">
    <path clip-path="url(#pbc26cedd74)" d="M 265.378909 307.584 
L 268.625455 307.584 
L 268.625455 262.469026 
L 265.378909 262.469026 
z
" style="fill:#ff0000;opacity:0.2;"/>
   </g>
   <g id="patch_63">
    <path clip-path="url(#pbc26cedd74)" d="M 268.625455 307.584 
L 271.872 307.584 
L 271.872 258.930597 
L 268.625455 258.930597 
z
" style="fill:#ff0000;opacity:0.2;"/>
   </g>
   <g id="patch_64">
    <path clip-path="url(#pbc26cedd74)" d="M 271.872 307.584 
L 275.118545 307.584 
L 275.118545 261.584419 
L 271.872 261.584419 
z
" style="fill:#ff0000;opacity:0.2;"/>
   </g>
   <g id="patch_65">
    <path clip-path="url(#pbc26cedd74)" d="M 275.118545 307.584 
L 278.365091 307.584 
L 278.365091 260.699812 
L 275.118545 260.699812 
z
" style="fill:#ff0000;opacity:0.2;"/>
   </g>
   <g id="patch_66">
    <path clip-path="url(#pbc26cedd74)" d="M 278.365091 307.584 
L 281.611636 307.584 
L 281.611636 257.161382 
L 278.365091 257.161382 
z
" style="fill:#ff0000;opacity:0.2;"/>
   </g>
   <g id="patch_67">
    <path clip-path="url(#pbc26cedd74)" d="M 281.611636 307.584 
L 284.858182 307.584 
L 284.858182 260.257508 
L 281.611636 260.257508 
z
" style="fill:#ff0000;opacity:0.2;"/>
   </g>
   <g id="patch_68">
    <path clip-path="url(#pbc26cedd74)" d="M 284.858182 307.584 
L 288.104727 307.584 
L 288.104727 260.699812 
L 284.858182 260.699812 
z
" style="fill:#ff0000;opacity:0.2;"/>
   </g>
   <g id="patch_69">
    <path clip-path="url(#pbc26cedd74)" d="M 288.104727 307.584 
L 291.351273 307.584 
L 291.351273 254.949864 
L 288.104727 254.949864 
z
" style="fill:#ff0000;opacity:0.2;"/>
   </g>
   <g id="patch_70">
    <path clip-path="url(#pbc26cedd74)" d="M 291.351273 307.584 
L 294.597818 307.584 
L 294.597818 236.37311 
L 291.351273 236.37311 
z
" style="fill:#ff0000;opacity:0.2;"/>
   </g>
   <g id="patch_71">
    <path clip-path="url(#pbc26cedd74)" d="M 294.597818 307.584 
L 297.844364 307.584 
L 297.844364 234.161592 
L 294.597818 234.161592 
z
" style="fill:#ff0000;opacity:0.2;"/>
   </g>
   <g id="patch_72">
    <path clip-path="url(#pbc26cedd74)" d="M 297.844364 307.584 
L 301.090909 307.584 
L 301.090909 220.892482 
L 297.844364 220.892482 
z
" style="fill:#ff0000;opacity:0.2;"/>
   </g>
   <g id="patch_73">
    <path clip-path="url(#pbc26cedd74)" d="M 301.090909 307.584 
L 304.337455 307.584 
L 304.337455 212.488712 
L 301.090909 212.488712 
z
" style="fill:#ff0000;opacity:0.2;"/>
   </g>
   <g id="patch_74">
    <path clip-path="url(#pbc26cedd74)" d="M 304.337455 307.584 
L 307.584 307.584 
L 307.584 229.296251 
L 304.337455 229.296251 
z
" style="fill:#ff0000;opacity:0.2;"/>
   </g>
   <g id="patch_75">
    <path clip-path="url(#pbc26cedd74)" d="M 307.584 307.584 
L 310.830545 307.584 
L 310.830545 208.507979 
L 307.584 208.507979 
z
" style="fill:#ff0000;opacity:0.2;"/>
   </g>
   <g id="patch_76">
    <path clip-path="url(#pbc26cedd74)" d="M 310.830545 307.584 
L 314.077091 307.584 
L 314.077091 210.277194 
L 310.830545 210.277194 
z
" style="fill:#ff0000;opacity:0.2;"/>
   </g>
   <g id="patch_77">
    <path clip-path="url(#pbc26cedd74)" d="M 314.077091 307.584 
L 317.323636 307.584 
L 317.323636 223.104 
L 314.077091 223.104 
z
" style="fill:#ff0000;opacity:0.2;"/>
   </g>
   <g id="patch_78">
    <path clip-path="url(#pbc26cedd74)" d="M 317.323636 307.584 
L 320.570182 307.584 
L 320.570182 231.50777 
L 317.323636 231.50777 
z
" style="fill:#ff0000;opacity:0.2;"/>
   </g>
   <g id="patch_79">
    <path clip-path="url(#pbc26cedd74)" d="M 320.570182 307.584 
L 323.816727 307.584 
L 323.816727 239.469236 
L 320.570182 239.469236 
z
" style="fill:#ff0000;opacity:0.2;"/>
   </g>
   <g id="patch_80">
    <path clip-path="url(#pbc26cedd74)" d="M 323.816727 307.584 
L 327.063273 307.584 
L 327.063273 228.411644 
L 323.816727 228.411644 
z
" style="fill:#ff0000;opacity:0.2;"/>
   </g>
   <g id="patch_81">
    <path clip-path="url(#pbc26cedd74)" d="M 327.063273 307.584 
L 330.309818 307.584 
L 330.309818 230.623162 
L 327.063273 230.623162 
z
" style="fill:#ff0000;opacity:0.2;"/>
   </g>
   <g id="patch_82">
    <path clip-path="url(#pbc26cedd74)" d="M 330.309818 307.584 
L 333.556364 307.584 
L 333.556364 226.642429 
L 330.309818 226.642429 
z
" style="fill:#ff0000;opacity:0.2;"/>
   </g>
   <g id="patch_83">
    <path clip-path="url(#pbc26cedd74)" d="M 333.556364 307.584 
L 336.802909 307.584 
L 336.802909 229.296251 
L 333.556364 229.296251 
z
" style="fill:#ff0000;opacity:0.2;"/>
   </g>
   <g id="patch_84">
    <path clip-path="url(#pbc26cedd74)" d="M 336.802909 307.584 
L 340.049455 307.584 
L 340.049455 232.392377 
L 336.802909 232.392377 
z
" style="fill:#ff0000;opacity:0.2;"/>
   </g>
   <g id="patch_85">
    <path clip-path="url(#pbc26cedd74)" d="M 340.049455 307.584 
L 343.296 307.584 
L 343.296 220.450178 
L 340.049455 220.450178 
z
" style="fill:#ff0000;opacity:0.2;"/>
   </g>
   <g id="patch_86">
    <path clip-path="url(#pbc26cedd74)" d="M 343.296 307.584 
L 346.542545 307.584 
L 346.542545 227.96934 
L 343.296 227.96934 
z
" style="fill:#ff0000;opacity:0.2;"/>
   </g>
   <g id="patch_87">
    <path clip-path="url(#pbc26cedd74)" d="M 346.542545 307.584 
L 349.789091 307.584 
L 349.789091 234.161592 
L 346.542545 234.161592 
z
" style="fill:#ff0000;opacity:0.2;"/>
   </g>
   <g id="patch_88">
    <path clip-path="url(#pbc26cedd74)" d="M 349.789091 307.584 
L 353.035636 307.584 
L 353.035636 237.257717 
L 349.789091 237.257717 
z
" style="fill:#ff0000;opacity:0.2;"/>
   </g>
   <g id="patch_89">
    <path clip-path="url(#pbc26cedd74)" d="M 353.035636 307.584 
L 356.282182 307.584 
L 356.282182 224.430911 
L 353.035636 224.430911 
z
" style="fill:#ff0000;opacity:0.2;"/>
   </g>
   <g id="patch_90">
    <path clip-path="url(#pbc26cedd74)" d="M 356.282182 307.584 
L 359.528727 307.584 
L 359.528727 226.642429 
L 356.282182 226.642429 
z
" style="fill:#ff0000;opacity:0.2;"/>
   </g>
   <g id="patch_91">
    <path clip-path="url(#pbc26cedd74)" d="M 359.528727 307.584 
L 362.775273 307.584 
L 362.775273 238.142325 
L 359.528727 238.142325 
z
" style="fill:#ff0000;opacity:0.2;"/>
   </g>
   <g id="patch_92">
    <path clip-path="url(#pbc26cedd74)" d="M 362.775273 307.584 
L 366.021818 307.584 
L 366.021818 237.257717 
L 362.775273 237.257717 
z
" style="fill:#ff0000;opacity:0.2;"/>
   </g>
   <g id="patch_93">
    <path clip-path="url(#pbc26cedd74)" d="M 366.021818 307.584 
L 369.268364 307.584 
L 369.268364 245.219183 
L 366.021818 245.219183 
z
" style="fill:#ff0000;opacity:0.2;"/>
   </g>
   <g id="patch_94">
    <path clip-path="url(#pbc26cedd74)" d="M 369.268364 307.584 
L 372.514909 307.584 
L 372.514909 227.084733 
L 369.268364 227.084733 
z
" style="fill:#ff0000;opacity:0.2;"/>
   </g>
   <g id="patch_95">
    <path clip-path="url(#pbc26cedd74)" d="M 372.514909 307.584 
L 375.761455 307.584 
L 375.761455 222.219393 
L 372.514909 222.219393 
z
" style="fill:#ff0000;opacity:0.2;"/>
   </g>
   <g id="patch_96">
    <path clip-path="url(#pbc26cedd74)" d="M 375.761455 307.584 
L 379.008 307.584 
L 379.008 214.70023 
L 375.761455 214.70023 
z
" style="fill:#ff0000;opacity:0.2;"/>
   </g>
   <g id="patch_97">
    <path clip-path="url(#pbc26cedd74)" d="M 379.008 307.584 
L 382.254545 307.584 
L 382.254545 220.892482 
L 379.008 220.892482 
z
" style="fill:#ff0000;opacity:0.2;"/>
   </g>
   <g id="patch_98">
    <path clip-path="url(#pbc26cedd74)" d="M 382.254545 307.584 
L 385.501091 307.584 
L 385.501091 236.815414 
L 382.254545 236.815414 
z
" style="fill:#ff0000;opacity:0.2;"/>
   </g>
   <g id="patch_99">
    <path clip-path="url(#pbc26cedd74)" d="M 385.501091 307.584 
L 388.747636 307.584 
L 388.747636 214.70023 
L 385.501091 214.70023 
z
" style="fill:#ff0000;opacity:0.2;"/>
   </g>
   <g id="patch_100">
    <path clip-path="url(#pbc26cedd74)" d="M 388.747636 307.584 
L 391.994182 307.584 
L 391.994182 197.450387 
L 388.747636 197.450387 
z
" style="fill:#ff0000;opacity:0.2;"/>
   </g>
   <g id="patch_101">
    <path clip-path="url(#pbc26cedd74)" d="M 391.994182 307.584 
L 395.240727 307.584 
L 395.240727 200.988817 
L 391.994182 200.988817 
z
" style="fill:#ff0000;opacity:0.2;"/>
   </g>
   <g id="patch_102">
    <path clip-path="url(#pbc26cedd74)" d="M 395.240727 307.584 
L 398.487273 307.584 
L 398.487273 245.661487 
L 395.240727 245.661487 
z
" style="fill:#ff0000;opacity:0.2;"/>
   </g>
   <g id="patch_103">
    <path clip-path="url(#pbc26cedd74)" d="M 124.499764 307.584 
L 127.239639 307.584 
L 127.239639 283.257298 
L 124.499764 283.257298 
z
" style="fill:#0000ff;opacity:0.3;"/>
   </g>
   <g id="patch_104">
    <path clip-path="url(#pbc26cedd74)" d="M 127.239639 307.584 
L 129.979514 307.584 
L 129.979514 290.776461 
L 127.239639 290.776461 
z
" style="fill:#0000ff;opacity:0.3;"/>
   </g>
   <g id="patch_105">
    <path clip-path="url(#pbc26cedd74)" d="M 129.979514 307.584 
L 132.719389 307.584 
L 132.719389 305.814785 
L 129.979514 305.814785 
z
" style="fill:#0000ff;opacity:0.3;"/>
   </g>
   <g id="patch_106">
    <path clip-path="url(#pbc26cedd74)" d="M 132.719389 307.584 
L 135.459264 307.584 
L 135.459264 304.045571 
L 132.719389 304.045571 
z
" style="fill:#0000ff;opacity:0.3;"/>
   </g>
   <g id="patch_107">
    <path clip-path="url(#pbc26cedd74)" d="M 135.459264 307.584 
L 138.199139 307.584 
L 138.199139 273.968921 
L 135.459264 273.968921 
z
" style="fill:#0000ff;opacity:0.3;"/>
   </g>
   <g id="patch_108">
    <path clip-path="url(#pbc26cedd74)" d="M 138.199139 307.584 
L 140.939015 307.584 
L 140.939015 305.372482 
L 138.199139 305.372482 
z
" style="fill:#0000ff;opacity:0.3;"/>
   </g>
   <g id="patch_109">
    <path clip-path="url(#pbc26cedd74)" d="M 140.939015 307.584 
L 143.67889 307.584 
L 143.67889 307.584 
L 140.939015 307.584 
z
" style="fill:#0000ff;opacity:0.3;"/>
   </g>
   <g id="patch_110">
    <path clip-path="url(#pbc26cedd74)" d="M 143.67889 307.584 
L 146.418765 307.584 
L 146.418765 307.584 
L 143.67889 307.584 
z
" style="fill:#0000ff;opacity:0.3;"/>
   </g>
   <g id="patch_111">
    <path clip-path="url(#pbc26cedd74)" d="M 146.418765 307.584 
L 149.15864 307.584 
L 149.15864 307.584 
L 146.418765 307.584 
z
" style="fill:#0000ff;opacity:0.3;"/>
   </g>
   <g id="patch_112">
    <path clip-path="url(#pbc26cedd74)" d="M 149.15864 307.584 
L 151.898515 307.584 
L 151.898515 307.584 
L 149.15864 307.584 
z
" style="fill:#0000ff;opacity:0.3;"/>
   </g>
   <g id="patch_113">
    <path clip-path="url(#pbc26cedd74)" d="M 151.898515 307.584 
L 154.63839 307.584 
L 154.63839 307.584 
L 151.898515 307.584 
z
" style="fill:#0000ff;opacity:0.3;"/>
   </g>
   <g id="patch_114">
    <path clip-path="url(#pbc26cedd74)" d="M 154.63839 307.584 
L 157.378265 307.584 
L 157.378265 307.584 
L 154.63839 307.584 
z
" style="fill:#0000ff;opacity:0.3;"/>
   </g>
   <g id="patch_115">
    <path clip-path="url(#pbc26cedd74)" d="M 157.378265 307.584 
L 160.11814 307.584 
L 160.11814 307.584 
L 157.378265 307.584 
z
" style="fill:#0000ff;opacity:0.3;"/>
   </g>
   <g id="patch_116">
    <path clip-path="url(#pbc26cedd74)" d="M 160.11814 307.584 
L 162.858015 307.584 
L 162.858015 307.584 
L 160.11814 307.584 
z
" style="fill:#0000ff;opacity:0.3;"/>
   </g>
   <g id="patch_117">
    <path clip-path="url(#pbc26cedd74)" d="M 162.858015 307.584 
L 165.59789 307.584 
L 165.59789 307.584 
L 162.858015 307.584 
z
" style="fill:#0000ff;opacity:0.3;"/>
   </g>
   <g id="patch_118">
    <path clip-path="url(#pbc26cedd74)" d="M 165.59789 307.584 
L 168.337765 307.584 
L 168.337765 307.584 
L 165.59789 307.584 
z
" style="fill:#0000ff;opacity:0.3;"/>
   </g>
   <g id="patch_119">
    <path clip-path="url(#pbc26cedd74)" d="M 168.337765 307.584 
L 171.077641 307.584 
L 171.077641 307.584 
L 168.337765 307.584 
z
" style="fill:#0000ff;opacity:0.3;"/>
   </g>
   <g id="patch_120">
    <path clip-path="url(#pbc26cedd74)" d="M 171.077641 307.584 
L 173.817516 307.584 
L 173.817516 307.584 
L 171.077641 307.584 
z
" style="fill:#0000ff;opacity:0.3;"/>
   </g>
   <g id="patch_121">
    <path clip-path="url(#pbc26cedd74)" d="M 173.817516 307.584 
L 176.557391 307.584 
L 176.557391 307.584 
L 173.817516 307.584 
z
" style="fill:#0000ff;opacity:0.3;"/>
   </g>
   <g id="patch_122">
    <path clip-path="url(#pbc26cedd74)" d="M 176.557391 307.584 
L 179.297266 307.584 
L 179.297266 307.584 
L 176.557391 307.584 
z
" style="fill:#0000ff;opacity:0.3;"/>
   </g>
   <g id="patch_123">
    <path clip-path="url(#pbc26cedd74)" d="M 179.297266 307.584 
L 182.037141 307.584 
L 182.037141 307.584 
L 179.297266 307.584 
z
" style="fill:#0000ff;opacity:0.3;"/>
   </g>
   <g id="patch_124">
    <path clip-path="url(#pbc26cedd74)" d="M 182.037141 307.584 
L 184.777016 307.584 
L 184.777016 307.584 
L 182.037141 307.584 
z
" style="fill:#0000ff;opacity:0.3;"/>
   </g>
   <g id="patch_125">
    <path clip-path="url(#pbc26cedd74)" d="M 184.777016 307.584 
L 187.516891 307.584 
L 187.516891 307.584 
L 184.777016 307.584 
z
" style="fill:#0000ff;opacity:0.3;"/>
   </g>
   <g id="patch_126">
    <path clip-path="url(#pbc26cedd74)" d="M 187.516891 307.584 
L 190.256766 307.584 
L 190.256766 307.584 
L 187.516891 307.584 
z
" style="fill:#0000ff;opacity:0.3;"/>
   </g>
   <g id="patch_127">
    <path clip-path="url(#pbc26cedd74)" d="M 190.256766 307.584 
L 192.996641 307.584 
L 192.996641 307.584 
L 190.256766 307.584 
z
" style="fill:#0000ff;opacity:0.3;"/>
   </g>
   <g id="patch_128">
    <path clip-path="url(#pbc26cedd74)" d="M 192.996641 307.584 
L 195.736516 307.584 
L 195.736516 307.584 
L 192.996641 307.584 
z
" style="fill:#0000ff;opacity:0.3;"/>
   </g>
   <g id="patch_129">
    <path clip-path="url(#pbc26cedd74)" d="M 195.736516 307.584 
L 198.476391 307.584 
L 198.476391 307.584 
L 195.736516 307.584 
z
" style="fill:#0000ff;opacity:0.3;"/>
   </g>
   <g id="patch_130">
    <path clip-path="url(#pbc26cedd74)" d="M 198.476391 307.584 
L 201.216266 307.584 
L 201.216266 307.584 
L 198.476391 307.584 
z
" style="fill:#0000ff;opacity:0.3;"/>
   </g>
   <g id="patch_131">
    <path clip-path="url(#pbc26cedd74)" d="M 201.216266 307.584 
L 203.956142 307.584 
L 203.956142 307.584 
L 201.216266 307.584 
z
" style="fill:#0000ff;opacity:0.3;"/>
   </g>
   <g id="patch_132">
    <path clip-path="url(#pbc26cedd74)" d="M 203.956142 307.584 
L 206.696017 307.584 
L 206.696017 307.584 
L 203.956142 307.584 
z
" style="fill:#0000ff;opacity:0.3;"/>
   </g>
   <g id="patch_133">
    <path clip-path="url(#pbc26cedd74)" d="M 206.696017 307.584 
L 209.435892 307.584 
L 209.435892 307.584 
L 206.696017 307.584 
z
" style="fill:#0000ff;opacity:0.3;"/>
   </g>
   <g id="patch_134">
    <path clip-path="url(#pbc26cedd74)" d="M 209.435892 307.584 
L 212.175767 307.584 
L 212.175767 307.584 
L 209.435892 307.584 
z
" style="fill:#0000ff;opacity:0.3;"/>
   </g>
   <g id="patch_135">
    <path clip-path="url(#pbc26cedd74)" d="M 212.175767 307.584 
L 214.915642 307.584 
L 214.915642 307.584 
L 212.175767 307.584 
z
" style="fill:#0000ff;opacity:0.3;"/>
   </g>
   <g id="patch_136">
    <path clip-path="url(#pbc26cedd74)" d="M 214.915642 307.584 
L 217.655517 307.584 
L 217.655517 307.584 
L 214.915642 307.584 
z
" style="fill:#0000ff;opacity:0.3;"/>
   </g>
   <g id="patch_137">
    <path clip-path="url(#pbc26cedd74)" d="M 217.655517 307.584 
L 220.395392 307.584 
L 220.395392 307.584 
L 217.655517 307.584 
z
" style="fill:#0000ff;opacity:0.3;"/>
   </g>
   <g id="patch_138">
    <path clip-path="url(#pbc26cedd74)" d="M 220.395392 307.584 
L 223.135267 307.584 
L 223.135267 307.584 
L 220.395392 307.584 
z
" style="fill:#0000ff;opacity:0.3;"/>
   </g>
   <g id="patch_139">
    <path clip-path="url(#pbc26cedd74)" d="M 223.135267 307.584 
L 225.875142 307.584 
L 225.875142 307.584 
L 223.135267 307.584 
z
" style="fill:#0000ff;opacity:0.3;"/>
   </g>
   <g id="patch_140">
    <path clip-path="url(#pbc26cedd74)" d="M 225.875142 307.584 
L 228.615017 307.584 
L 228.615017 307.584 
L 225.875142 307.584 
z
" style="fill:#0000ff;opacity:0.3;"/>
   </g>
   <g id="patch_141">
    <path clip-path="url(#pbc26cedd74)" d="M 228.615017 307.584 
L 231.354892 307.584 
L 231.354892 307.584 
L 228.615017 307.584 
z
" style="fill:#0000ff;opacity:0.3;"/>
   </g>
   <g id="patch_142">
    <path clip-path="url(#pbc26cedd74)" d="M 231.354892 307.584 
L 234.094768 307.584 
L 234.094768 307.584 
L 231.354892 307.584 
z
" style="fill:#0000ff;opacity:0.3;"/>
   </g>
   <g id="patch_143">
    <path clip-path="url(#pbc26cedd74)" d="M 234.094768 307.584 
L 236.834643 307.584 
L 236.834643 307.584 
L 234.094768 307.584 
z
" style="fill:#0000ff;opacity:0.3;"/>
   </g>
   <g id="patch_144">
    <path clip-path="url(#pbc26cedd74)" d="M 236.834643 307.584 
L 239.574518 307.584 
L 239.574518 307.584 
L 236.834643 307.584 
z
" style="fill:#0000ff;opacity:0.3;"/>
   </g>
   <g id="patch_145">
    <path clip-path="url(#pbc26cedd74)" d="M 239.574518 307.584 
L 242.314393 307.584 
L 242.314393 307.584 
L 239.574518 307.584 
z
" style="fill:#0000ff;opacity:0.3;"/>
   </g>
   <g id="patch_146">
    <path clip-path="url(#pbc26cedd74)" d="M 242.314393 307.584 
L 245.054268 307.584 
L 245.054268 307.584 
L 242.314393 307.584 
z
" style="fill:#0000ff;opacity:0.3;"/>
   </g>
   <g id="patch_147">
    <path clip-path="url(#pbc26cedd74)" d="M 245.054268 307.584 
L 247.794143 307.584 
L 247.794143 307.584 
L 245.054268 307.584 
z
" style="fill:#0000ff;opacity:0.3;"/>
   </g>
   <g id="patch_148">
    <path clip-path="url(#pbc26cedd74)" d="M 247.794143 307.584 
L 250.534018 307.584 
L 250.534018 307.584 
L 247.794143 307.584 
z
" style="fill:#0000ff;opacity:0.3;"/>
   </g>
   <g id="patch_149">
    <path clip-path="url(#pbc26cedd74)" d="M 250.534018 307.584 
L 253.273893 307.584 
L 253.273893 307.584 
L 250.534018 307.584 
z
" style="fill:#0000ff;opacity:0.3;"/>
   </g>
   <g id="patch_150">
    <path clip-path="url(#pbc26cedd74)" d="M 253.273893 307.584 
L 256.013768 307.584 
L 256.013768 307.584 
L 253.273893 307.584 
z
" style="fill:#0000ff;opacity:0.3;"/>
   </g>
   <g id="patch_151">
    <path clip-path="url(#pbc26cedd74)" d="M 256.013768 307.584 
L 258.753643 307.584 
L 258.753643 307.584 
L 256.013768 307.584 
z
" style="fill:#0000ff;opacity:0.3;"/>
   </g>
   <g id="patch_152">
    <path clip-path="url(#pbc26cedd74)" d="M 258.753643 307.584 
L 261.493518 307.584 
L 261.493518 307.584 
L 258.753643 307.584 
z
" style="fill:#0000ff;opacity:0.3;"/>
   </g>
   <g id="patch_153">
    <path clip-path="url(#pbc26cedd74)" d="M 261.493518 307.584 
L 264.233393 307.584 
L 264.233393 307.584 
L 261.493518 307.584 
z
" style="fill:#0000ff;opacity:0.3;"/>
   </g>
   <g id="patch_154">
    <path clip-path="url(#pbc26cedd74)" d="M 264.233393 307.584 
L 266.973269 307.584 
L 266.973269 307.584 
L 264.233393 307.584 
z
" style="fill:#0000ff;opacity:0.3;"/>
   </g>
   <g id="patch_155">
    <path clip-path="url(#pbc26cedd74)" d="M 266.973269 307.584 
L 269.713144 307.584 
L 269.713144 307.584 
L 266.973269 307.584 
z
" style="fill:#0000ff;opacity:0.3;"/>
   </g>
   <g id="patch_156">
    <path clip-path="url(#pbc26cedd74)" d="M 269.713144 307.584 
L 272.453019 307.584 
L 272.453019 307.584 
L 269.713144 307.584 
z
" style="fill:#0000ff;opacity:0.3;"/>
   </g>
   <g id="patch_157">
    <path clip-path="url(#pbc26cedd74)" d="M 272.453019 307.584 
L 275.192894 307.584 
L 275.192894 307.584 
L 272.453019 307.584 
z
" style="fill:#0000ff;opacity:0.3;"/>
   </g>
   <g id="patch_158">
    <path clip-path="url(#pbc26cedd74)" d="M 275.192894 307.584 
L 277.932769 307.584 
L 277.932769 307.584 
L 275.192894 307.584 
z
" style="fill:#0000ff;opacity:0.3;"/>
   </g>
   <g id="patch_159">
    <path clip-path="url(#pbc26cedd74)" d="M 277.932769 307.584 
L 280.672644 307.584 
L 280.672644 307.584 
L 277.932769 307.584 
z
" style="fill:#0000ff;opacity:0.3;"/>
   </g>
   <g id="patch_160">
    <path clip-path="url(#pbc26cedd74)" d="M 280.672644 307.584 
L 283.412519 307.584 
L 283.412519 307.584 
L 280.672644 307.584 
z
" style="fill:#0000ff;opacity:0.3;"/>
   </g>
   <g id="patch_161">
    <path clip-path="url(#pbc26cedd74)" d="M 283.412519 307.584 
L 286.152394 307.584 
L 286.152394 307.584 
L 283.412519 307.584 
z
" style="fill:#0000ff;opacity:0.3;"/>
   </g>
   <g id="patch_162">
    <path clip-path="url(#pbc26cedd74)" d="M 286.152394 307.584 
L 288.892269 307.584 
L 288.892269 307.584 
L 286.152394 307.584 
z
" style="fill:#0000ff;opacity:0.3;"/>
   </g>
   <g id="patch_163">
    <path clip-path="url(#pbc26cedd74)" d="M 288.892269 307.584 
L 291.632144 307.584 
L 291.632144 307.584 
L 288.892269 307.584 
z
" style="fill:#0000ff;opacity:0.3;"/>
   </g>
   <g id="patch_164">
    <path clip-path="url(#pbc26cedd74)" d="M 291.632144 307.584 
L 294.372019 307.584 
L 294.372019 307.141696 
L 291.632144 307.141696 
z
" style="fill:#0000ff;opacity:0.3;"/>
   </g>
   <g id="patch_165">
    <path clip-path="url(#pbc26cedd74)" d="M 294.372019 307.584 
L 297.111895 307.584 
L 297.111895 293.872586 
L 294.372019 293.872586 
z
" style="fill:#0000ff;opacity:0.3;"/>
   </g>
   <g id="patch_166">
    <path clip-path="url(#pbc26cedd74)" d="M 297.111895 307.584 
L 299.85177 307.584 
L 299.85177 237.257717 
L 297.111895 237.257717 
z
" style="fill:#0000ff;opacity:0.3;"/>
   </g>
   <g id="patch_167">
    <path clip-path="url(#pbc26cedd74)" d="M 299.85177 307.584 
L 302.591645 307.584 
L 302.591645 128.451016 
L 299.85177 128.451016 
z
" style="fill:#0000ff;opacity:0.3;"/>
   </g>
   <g id="patch_168">
    <path clip-path="url(#pbc26cedd74)" d="M 302.591645 307.584 
L 305.33152 307.584 
L 305.33152 54.144 
L 302.591645 54.144 
z
" style="fill:#0000ff;opacity:0.3;"/>
   </g>
   <g id="patch_169">
    <path clip-path="url(#pbc26cedd74)" d="M 305.33152 307.584 
L 308.071395 307.584 
L 308.071395 67.41311 
L 305.33152 67.41311 
z
" style="fill:#0000ff;opacity:0.3;"/>
   </g>
   <g id="patch_170">
    <path clip-path="url(#pbc26cedd74)" d="M 308.071395 307.584 
L 310.81127 307.584 
L 310.81127 147.912377 
L 308.071395 147.912377 
z
" style="fill:#0000ff;opacity:0.3;"/>
   </g>
   <g id="patch_171">
    <path clip-path="url(#pbc26cedd74)" d="M 310.81127 307.584 
L 313.551145 307.584 
L 313.551145 261.142115 
L 310.81127 261.142115 
z
" style="fill:#0000ff;opacity:0.3;"/>
   </g>
   <g id="patch_172">
    <path clip-path="url(#pbc26cedd74)" d="M 313.551145 307.584 
L 316.29102 307.584 
L 316.29102 283.699602 
L 313.551145 283.699602 
z
" style="fill:#0000ff;opacity:0.3;"/>
   </g>
   <g id="patch_173">
    <path clip-path="url(#pbc26cedd74)" d="M 316.29102 307.584 
L 319.030895 307.584 
L 319.030895 298.737927 
L 316.29102 298.737927 
z
" style="fill:#0000ff;opacity:0.3;"/>
   </g>
   <g id="patch_174">
    <path clip-path="url(#pbc26cedd74)" d="M 319.030895 307.584 
L 321.77077 307.584 
L 321.77077 305.372482 
L 319.030895 305.372482 
z
" style="fill:#0000ff;opacity:0.3;"/>
   </g>
   <g id="patch_175">
    <path clip-path="url(#pbc26cedd74)" d="M 321.77077 307.584 
L 324.510645 307.584 
L 324.510645 304.045571 
L 321.77077 304.045571 
z
" style="fill:#0000ff;opacity:0.3;"/>
   </g>
   <g id="patch_176">
    <path clip-path="url(#pbc26cedd74)" d="M 324.510645 307.584 
L 327.25052 307.584 
L 327.25052 306.257089 
L 324.510645 306.257089 
z
" style="fill:#0000ff;opacity:0.3;"/>
   </g>
   <g id="patch_177">
    <path clip-path="url(#pbc26cedd74)" d="M 327.25052 307.584 
L 329.990396 307.584 
L 329.990396 303.160963 
L 327.25052 303.160963 
z
" style="fill:#0000ff;opacity:0.3;"/>
   </g>
   <g id="patch_178">
    <path clip-path="url(#pbc26cedd74)" d="M 329.990396 307.584 
L 332.730271 307.584 
L 332.730271 300.064838 
L 329.990396 300.064838 
z
" style="fill:#0000ff;opacity:0.3;"/>
   </g>
   <g id="patch_179">
    <path clip-path="url(#pbc26cedd74)" d="M 332.730271 307.584 
L 335.470146 307.584 
L 335.470146 299.18023 
L 332.730271 299.18023 
z
" style="fill:#0000ff;opacity:0.3;"/>
   </g>
   <g id="patch_180">
    <path clip-path="url(#pbc26cedd74)" d="M 335.470146 307.584 
L 338.210021 307.584 
L 338.210021 294.757194 
L 335.470146 294.757194 
z
" style="fill:#0000ff;opacity:0.3;"/>
   </g>
   <g id="patch_181">
    <path clip-path="url(#pbc26cedd74)" d="M 338.210021 307.584 
L 340.949896 307.584 
L 340.949896 285.91112 
L 338.210021 285.91112 
z
" style="fill:#0000ff;opacity:0.3;"/>
   </g>
   <g id="patch_182">
    <path clip-path="url(#pbc26cedd74)" d="M 340.949896 307.584 
L 343.689771 307.584 
L 343.689771 290.334157 
L 340.949896 290.334157 
z
" style="fill:#0000ff;opacity:0.3;"/>
   </g>
   <g id="patch_183">
    <path clip-path="url(#pbc26cedd74)" d="M 343.689771 307.584 
L 346.429646 307.584 
L 346.429646 293.872586 
L 343.689771 293.872586 
z
" style="fill:#0000ff;opacity:0.3;"/>
   </g>
   <g id="patch_184">
    <path clip-path="url(#pbc26cedd74)" d="M 346.429646 307.584 
L 349.169521 307.584 
L 349.169521 258.930597 
L 346.429646 258.930597 
z
" style="fill:#0000ff;opacity:0.3;"/>
   </g>
   <g id="patch_185">
    <path clip-path="url(#pbc26cedd74)" d="M 349.169521 307.584 
L 351.909396 307.584 
L 351.909396 283.699602 
L 349.169521 283.699602 
z
" style="fill:#0000ff;opacity:0.3;"/>
   </g>
   <g id="patch_186">
    <path clip-path="url(#pbc26cedd74)" d="M 351.909396 307.584 
L 354.649271 307.584 
L 354.649271 302.71866 
L 351.909396 302.71866 
z
" style="fill:#0000ff;opacity:0.3;"/>
   </g>
   <g id="patch_187">
    <path clip-path="url(#pbc26cedd74)" d="M 354.649271 307.584 
L 357.389146 307.584 
L 357.389146 296.526408 
L 354.649271 296.526408 
z
" style="fill:#0000ff;opacity:0.3;"/>
   </g>
   <g id="patch_188">
    <path clip-path="url(#pbc26cedd74)" d="M 357.389146 307.584 
L 360.129022 307.584 
L 360.129022 284.584209 
L 357.389146 284.584209 
z
" style="fill:#0000ff;opacity:0.3;"/>
   </g>
   <g id="patch_189">
    <path clip-path="url(#pbc26cedd74)" d="M 360.129022 307.584 
L 362.868897 307.584 
L 362.868897 278.391958 
L 360.129022 278.391958 
z
" style="fill:#0000ff;opacity:0.3;"/>
   </g>
   <g id="patch_190">
    <path clip-path="url(#pbc26cedd74)" d="M 362.868897 307.584 
L 365.608772 307.584 
L 365.608772 285.91112 
L 362.868897 285.91112 
z
" style="fill:#0000ff;opacity:0.3;"/>
   </g>
   <g id="patch_191">
    <path clip-path="url(#pbc26cedd74)" d="M 365.608772 307.584 
L 368.348647 307.584 
L 368.348647 303.160963 
L 365.608772 303.160963 
z
" style="fill:#0000ff;opacity:0.3;"/>
   </g>
   <g id="patch_192">
    <path clip-path="url(#pbc26cedd74)" d="M 368.348647 307.584 
L 371.088522 307.584 
L 371.088522 307.584 
L 368.348647 307.584 
z
" style="fill:#0000ff;opacity:0.3;"/>
   </g>
   <g id="patch_193">
    <path clip-path="url(#pbc26cedd74)" d="M 371.088522 307.584 
L 373.828397 307.584 
L 373.828397 306.257089 
L 371.088522 306.257089 
z
" style="fill:#0000ff;opacity:0.3;"/>
   </g>
   <g id="patch_194">
    <path clip-path="url(#pbc26cedd74)" d="M 373.828397 307.584 
L 376.568272 307.584 
L 376.568272 304.487874 
L 373.828397 304.487874 
z
" style="fill:#0000ff;opacity:0.3;"/>
   </g>
   <g id="patch_195">
    <path clip-path="url(#pbc26cedd74)" d="M 376.568272 307.584 
L 379.308147 307.584 
L 379.308147 301.834052 
L 376.568272 301.834052 
z
" style="fill:#0000ff;opacity:0.3;"/>
   </g>
   <g id="patch_196">
    <path clip-path="url(#pbc26cedd74)" d="M 379.308147 307.584 
L 382.048022 307.584 
L 382.048022 296.084105 
L 379.308147 296.084105 
z
" style="fill:#0000ff;opacity:0.3;"/>
   </g>
   <g id="patch_197">
    <path clip-path="url(#pbc26cedd74)" d="M 382.048022 307.584 
L 384.787897 307.584 
L 384.787897 295.641801 
L 382.048022 295.641801 
z
" style="fill:#0000ff;opacity:0.3;"/>
   </g>
   <g id="patch_198">
    <path clip-path="url(#pbc26cedd74)" d="M 384.787897 307.584 
L 387.527772 307.584 
L 387.527772 298.737927 
L 384.787897 298.737927 
z
" style="fill:#0000ff;opacity:0.3;"/>
   </g>
   <g id="patch_199">
    <path clip-path="url(#pbc26cedd74)" d="M 387.527772 307.584 
L 390.267647 307.584 
L 390.267647 300.064838 
L 387.527772 300.064838 
z
" style="fill:#0000ff;opacity:0.3;"/>
   </g>
   <g id="patch_200">
    <path clip-path="url(#pbc26cedd74)" d="M 390.267647 307.584 
L 393.007523 307.584 
L 393.007523 302.71866 
L 390.267647 302.71866 
z
" style="fill:#0000ff;opacity:0.3;"/>
   </g>
   <g id="patch_201">
    <path clip-path="url(#pbc26cedd74)" d="M 393.007523 307.584 
L 395.747398 307.584 
L 395.747398 298.295623 
L 393.007523 298.295623 
z
" style="fill:#0000ff;opacity:0.3;"/>
   </g>
   <g id="patch_202">
    <path clip-path="url(#pbc26cedd74)" d="M 395.747398 307.584 
L 398.487273 307.584 
L 398.487273 280.603476 
L 395.747398 280.603476 
z
" style="fill:#0000ff;opacity:0.3;"/>
   </g>
   <g id="patch_203">
    <path clip-path="url(#pbc26cedd74)" d="M 162.224677 307.584 
L 164.58455 307.584 
L 164.58455 302.71866 
L 162.224677 302.71866 
z
" style="fill:#008000;opacity:0.2;"/>
   </g>
   <g id="patch_204">
    <path clip-path="url(#pbc26cedd74)" d="M 164.58455 307.584 
L 166.944422 307.584 
L 166.944422 305.814785 
L 164.58455 305.814785 
z
" style="fill:#008000;opacity:0.2;"/>
   </g>
   <g id="patch_205">
    <path clip-path="url(#pbc26cedd74)" d="M 166.944422 307.584 
L 169.304294 307.584 
L 169.304294 297.853319 
L 166.944422 297.853319 
z
" style="fill:#008000;opacity:0.2;"/>
   </g>
   <g id="patch_206">
    <path clip-path="url(#pbc26cedd74)" d="M 169.304294 307.584 
L 171.664167 307.584 
L 171.664167 293.872586 
L 169.304294 293.872586 
z
" style="fill:#008000;opacity:0.2;"/>
   </g>
   <g id="patch_207">
    <path clip-path="url(#pbc26cedd74)" d="M 171.664167 307.584 
L 174.024039 307.584 
L 174.024039 157.200754 
L 171.664167 157.200754 
z
" style="fill:#008000;opacity:0.2;"/>
   </g>
   <g id="patch_208">
    <path clip-path="url(#pbc26cedd74)" d="M 174.024039 307.584 
L 176.383911 307.584 
L 176.383911 172.239079 
L 174.024039 172.239079 
z
" style="fill:#008000;opacity:0.2;"/>
   </g>
   <g id="patch_209">
    <path clip-path="url(#pbc26cedd74)" d="M 176.383911 307.584 
L 178.743783 307.584 
L 178.743783 219.565571 
L 176.383911 219.565571 
z
" style="fill:#008000;opacity:0.2;"/>
   </g>
   <g id="patch_210">
    <path clip-path="url(#pbc26cedd74)" d="M 178.743783 307.584 
L 181.103656 307.584 
L 181.103656 266.449759 
L 178.743783 266.449759 
z
" style="fill:#008000;opacity:0.2;"/>
   </g>
   <g id="patch_211">
    <path clip-path="url(#pbc26cedd74)" d="M 181.103656 307.584 
L 183.463528 307.584 
L 183.463528 300.064838 
L 181.103656 300.064838 
z
" style="fill:#008000;opacity:0.2;"/>
   </g>
   <g id="patch_212">
    <path clip-path="url(#pbc26cedd74)" d="M 183.463528 307.584 
L 185.8234 307.584 
L 185.8234 231.950073 
L 183.463528 231.950073 
z
" style="fill:#008000;opacity:0.2;"/>
   </g>
   <g id="patch_213">
    <path clip-path="url(#pbc26cedd74)" d="M 185.8234 307.584 
L 188.183273 307.584 
L 188.183273 158.085361 
L 185.8234 158.085361 
z
" style="fill:#008000;opacity:0.2;"/>
   </g>
   <g id="patch_214">
    <path clip-path="url(#pbc26cedd74)" d="M 188.183273 307.584 
L 190.543145 307.584 
L 190.543145 203.642639 
L 188.183273 203.642639 
z
" style="fill:#008000;opacity:0.2;"/>
   </g>
   <g id="patch_215">
    <path clip-path="url(#pbc26cedd74)" d="M 190.543145 307.584 
L 192.903017 307.584 
L 192.903017 244.77688 
L 190.543145 244.77688 
z
" style="fill:#008000;opacity:0.2;"/>
   </g>
   <g id="patch_216">
    <path clip-path="url(#pbc26cedd74)" d="M 192.903017 307.584 
L 195.26289 307.584 
L 195.26289 302.276356 
L 192.903017 302.276356 
z
" style="fill:#008000;opacity:0.2;"/>
   </g>
   <g id="patch_217">
    <path clip-path="url(#pbc26cedd74)" d="M 195.26289 307.584 
L 197.622762 307.584 
L 197.622762 307.141696 
L 195.26289 307.141696 
z
" style="fill:#008000;opacity:0.2;"/>
   </g>
   <g id="patch_218">
    <path clip-path="url(#pbc26cedd74)" d="M 197.622762 307.584 
L 199.982634 307.584 
L 199.982634 307.584 
L 197.622762 307.584 
z
" style="fill:#008000;opacity:0.2;"/>
   </g>
   <g id="patch_219">
    <path clip-path="url(#pbc26cedd74)" d="M 199.982634 307.584 
L 202.342507 307.584 
L 202.342507 307.584 
L 199.982634 307.584 
z
" style="fill:#008000;opacity:0.2;"/>
   </g>
   <g id="patch_220">
    <path clip-path="url(#pbc26cedd74)" d="M 202.342507 307.584 
L 204.702379 307.584 
L 204.702379 307.584 
L 202.342507 307.584 
z
" style="fill:#008000;opacity:0.2;"/>
   </g>
   <g id="patch_221">
    <path clip-path="url(#pbc26cedd74)" d="M 204.702379 307.584 
L 207.062251 307.584 
L 207.062251 307.584 
L 204.702379 307.584 
z
" style="fill:#008000;opacity:0.2;"/>
   </g>
   <g id="patch_222">
    <path clip-path="url(#pbc26cedd74)" d="M 207.062251 307.584 
L 209.422124 307.584 
L 209.422124 305.814785 
L 207.062251 305.814785 
z
" style="fill:#008000;opacity:0.2;"/>
   </g>
   <g id="patch_223">
    <path clip-path="url(#pbc26cedd74)" d="M 209.422124 307.584 
L 211.781996 307.584 
L 211.781996 307.584 
L 209.422124 307.584 
z
" style="fill:#008000;opacity:0.2;"/>
   </g>
   <g id="patch_224">
    <path clip-path="url(#pbc26cedd74)" d="M 211.781996 307.584 
L 214.141868 307.584 
L 214.141868 307.584 
L 211.781996 307.584 
z
" style="fill:#008000;opacity:0.2;"/>
   </g>
   <g id="patch_225">
    <path clip-path="url(#pbc26cedd74)" d="M 214.141868 307.584 
L 216.50174 307.584 
L 216.50174 307.584 
L 214.141868 307.584 
z
" style="fill:#008000;opacity:0.2;"/>
   </g>
   <g id="patch_226">
    <path clip-path="url(#pbc26cedd74)" d="M 216.50174 307.584 
L 218.861613 307.584 
L 218.861613 307.584 
L 216.50174 307.584 
z
" style="fill:#008000;opacity:0.2;"/>
   </g>
   <g id="patch_227">
    <path clip-path="url(#pbc26cedd74)" d="M 218.861613 307.584 
L 221.221485 307.584 
L 221.221485 305.814785 
L 218.861613 305.814785 
z
" style="fill:#008000;opacity:0.2;"/>
   </g>
   <g id="patch_228">
    <path clip-path="url(#pbc26cedd74)" d="M 221.221485 307.584 
L 223.581357 307.584 
L 223.581357 306.699393 
L 221.221485 306.699393 
z
" style="fill:#008000;opacity:0.2;"/>
   </g>
   <g id="patch_229">
    <path clip-path="url(#pbc26cedd74)" d="M 223.581357 307.584 
L 225.94123 307.584 
L 225.94123 307.584 
L 223.581357 307.584 
z
" style="fill:#008000;opacity:0.2;"/>
   </g>
   <g id="patch_230">
    <path clip-path="url(#pbc26cedd74)" d="M 225.94123 307.584 
L 228.301102 307.584 
L 228.301102 307.584 
L 225.94123 307.584 
z
" style="fill:#008000;opacity:0.2;"/>
   </g>
   <g id="patch_231">
    <path clip-path="url(#pbc26cedd74)" d="M 228.301102 307.584 
L 230.660974 307.584 
L 230.660974 307.584 
L 228.301102 307.584 
z
" style="fill:#008000;opacity:0.2;"/>
   </g>
   <g id="patch_232">
    <path clip-path="url(#pbc26cedd74)" d="M 230.660974 307.584 
L 233.020847 307.584 
L 233.020847 307.584 
L 230.660974 307.584 
z
" style="fill:#008000;opacity:0.2;"/>
   </g>
   <g id="patch_233">
    <path clip-path="url(#pbc26cedd74)" d="M 233.020847 307.584 
L 235.380719 307.584 
L 235.380719 307.584 
L 233.020847 307.584 
z
" style="fill:#008000;opacity:0.2;"/>
   </g>
   <g id="patch_234">
    <path clip-path="url(#pbc26cedd74)" d="M 235.380719 307.584 
L 237.740591 307.584 
L 237.740591 307.584 
L 235.380719 307.584 
z
" style="fill:#008000;opacity:0.2;"/>
   </g>
   <g id="patch_235">
    <path clip-path="url(#pbc26cedd74)" d="M 237.740591 307.584 
L 240.100464 307.584 
L 240.100464 307.584 
L 237.740591 307.584 
z
" style="fill:#008000;opacity:0.2;"/>
   </g>
   <g id="patch_236">
    <path clip-path="url(#pbc26cedd74)" d="M 240.100464 307.584 
L 242.460336 307.584 
L 242.460336 307.584 
L 240.100464 307.584 
z
" style="fill:#008000;opacity:0.2;"/>
   </g>
   <g id="patch_237">
    <path clip-path="url(#pbc26cedd74)" d="M 242.460336 307.584 
L 244.820208 307.584 
L 244.820208 307.584 
L 242.460336 307.584 
z
" style="fill:#008000;opacity:0.2;"/>
   </g>
   <g id="patch_238">
    <path clip-path="url(#pbc26cedd74)" d="M 244.820208 307.584 
L 247.18008 307.584 
L 247.18008 307.584 
L 244.820208 307.584 
z
" style="fill:#008000;opacity:0.2;"/>
   </g>
   <g id="patch_239">
    <path clip-path="url(#pbc26cedd74)" d="M 247.18008 307.584 
L 249.539953 307.584 
L 249.539953 307.584 
L 247.18008 307.584 
z
" style="fill:#008000;opacity:0.2;"/>
   </g>
   <g id="patch_240">
    <path clip-path="url(#pbc26cedd74)" d="M 249.539953 307.584 
L 251.899825 307.584 
L 251.899825 307.584 
L 249.539953 307.584 
z
" style="fill:#008000;opacity:0.2;"/>
   </g>
   <g id="patch_241">
    <path clip-path="url(#pbc26cedd74)" d="M 251.899825 307.584 
L 254.259697 307.584 
L 254.259697 307.584 
L 251.899825 307.584 
z
" style="fill:#008000;opacity:0.2;"/>
   </g>
   <g id="patch_242">
    <path clip-path="url(#pbc26cedd74)" d="M 254.259697 307.584 
L 256.61957 307.584 
L 256.61957 307.584 
L 254.259697 307.584 
z
" style="fill:#008000;opacity:0.2;"/>
   </g>
   <g id="patch_243">
    <path clip-path="url(#pbc26cedd74)" d="M 256.61957 307.584 
L 258.979442 307.584 
L 258.979442 307.584 
L 256.61957 307.584 
z
" style="fill:#008000;opacity:0.2;"/>
   </g>
   <g id="patch_244">
    <path clip-path="url(#pbc26cedd74)" d="M 258.979442 307.584 
L 261.339314 307.584 
L 261.339314 307.584 
L 258.979442 307.584 
z
" style="fill:#008000;opacity:0.2;"/>
   </g>
   <g id="patch_245">
    <path clip-path="url(#pbc26cedd74)" d="M 261.339314 307.584 
L 263.699187 307.584 
L 263.699187 307.584 
L 261.339314 307.584 
z
" style="fill:#008000;opacity:0.2;"/>
   </g>
   <g id="patch_246">
    <path clip-path="url(#pbc26cedd74)" d="M 263.699187 307.584 
L 266.059059 307.584 
L 266.059059 307.584 
L 263.699187 307.584 
z
" style="fill:#008000;opacity:0.2;"/>
   </g>
   <g id="patch_247">
    <path clip-path="url(#pbc26cedd74)" d="M 266.059059 307.584 
L 268.418931 307.584 
L 268.418931 307.584 
L 266.059059 307.584 
z
" style="fill:#008000;opacity:0.2;"/>
   </g>
   <g id="patch_248">
    <path clip-path="url(#pbc26cedd74)" d="M 268.418931 307.584 
L 270.778804 307.584 
L 270.778804 307.584 
L 268.418931 307.584 
z
" style="fill:#008000;opacity:0.2;"/>
   </g>
   <g id="patch_249">
    <path clip-path="url(#pbc26cedd74)" d="M 270.778804 307.584 
L 273.138676 307.584 
L 273.138676 307.584 
L 270.778804 307.584 
z
" style="fill:#008000;opacity:0.2;"/>
   </g>
   <g id="patch_250">
    <path clip-path="url(#pbc26cedd74)" d="M 273.138676 307.584 
L 275.498548 307.584 
L 275.498548 307.584 
L 273.138676 307.584 
z
" style="fill:#008000;opacity:0.2;"/>
   </g>
   <g id="patch_251">
    <path clip-path="url(#pbc26cedd74)" d="M 275.498548 307.584 
L 277.858421 307.584 
L 277.858421 307.584 
L 275.498548 307.584 
z
" style="fill:#008000;opacity:0.2;"/>
   </g>
   <g id="patch_252">
    <path clip-path="url(#pbc26cedd74)" d="M 277.858421 307.584 
L 280.218293 307.584 
L 280.218293 307.584 
L 277.858421 307.584 
z
" style="fill:#008000;opacity:0.2;"/>
   </g>
   <g id="patch_253">
    <path clip-path="url(#pbc26cedd74)" d="M 280.218293 307.584 
L 282.578165 307.584 
L 282.578165 307.141696 
L 280.218293 307.141696 
z
" style="fill:#008000;opacity:0.2;"/>
   </g>
   <g id="patch_254">
    <path clip-path="url(#pbc26cedd74)" d="M 282.578165 307.584 
L 284.938037 307.584 
L 284.938037 307.584 
L 282.578165 307.584 
z
" style="fill:#008000;opacity:0.2;"/>
   </g>
   <g id="patch_255">
    <path clip-path="url(#pbc26cedd74)" d="M 284.938037 307.584 
L 287.29791 307.584 
L 287.29791 277.507351 
L 284.938037 277.507351 
z
" style="fill:#008000;opacity:0.2;"/>
   </g>
   <g id="patch_256">
    <path clip-path="url(#pbc26cedd74)" d="M 287.29791 307.584 
L 289.657782 307.584 
L 289.657782 120.931853 
L 287.29791 120.931853 
z
" style="fill:#008000;opacity:0.2;"/>
   </g>
   <g id="patch_257">
    <path clip-path="url(#pbc26cedd74)" d="M 289.657782 307.584 
L 292.017654 307.584 
L 292.017654 133.316356 
L 289.657782 133.316356 
z
" style="fill:#008000;opacity:0.2;"/>
   </g>
   <g id="patch_258">
    <path clip-path="url(#pbc26cedd74)" d="M 292.017654 307.584 
L 294.377527 307.584 
L 294.377527 251.411435 
L 292.017654 251.411435 
z
" style="fill:#008000;opacity:0.2;"/>
   </g>
   <g id="patch_259">
    <path clip-path="url(#pbc26cedd74)" d="M 294.377527 307.584 
L 296.737399 307.584 
L 296.737399 307.584 
L 294.377527 307.584 
z
" style="fill:#008000;opacity:0.2;"/>
   </g>
   <g id="patch_260">
    <path clip-path="url(#pbc26cedd74)" d="M 296.737399 307.584 
L 299.097271 307.584 
L 299.097271 307.584 
L 296.737399 307.584 
z
" style="fill:#008000;opacity:0.2;"/>
   </g>
   <g id="patch_261">
    <path clip-path="url(#pbc26cedd74)" d="M 299.097271 307.584 
L 301.457144 307.584 
L 301.457144 307.584 
L 299.097271 307.584 
z
" style="fill:#008000;opacity:0.2;"/>
   </g>
   <g id="patch_262">
    <path clip-path="url(#pbc26cedd74)" d="M 301.457144 307.584 
L 303.817016 307.584 
L 303.817016 307.584 
L 301.457144 307.584 
z
" style="fill:#008000;opacity:0.2;"/>
   </g>
   <g id="patch_263">
    <path clip-path="url(#pbc26cedd74)" d="M 303.817016 307.584 
L 306.176888 307.584 
L 306.176888 306.257089 
L 303.817016 306.257089 
z
" style="fill:#008000;opacity:0.2;"/>
   </g>
   <g id="patch_264">
    <path clip-path="url(#pbc26cedd74)" d="M 306.176888 307.584 
L 308.536761 307.584 
L 308.536761 292.103372 
L 306.176888 292.103372 
z
" style="fill:#008000;opacity:0.2;"/>
   </g>
   <g id="patch_265">
    <path clip-path="url(#pbc26cedd74)" d="M 308.536761 307.584 
L 310.896633 307.584 
L 310.896633 287.680335 
L 308.536761 287.680335 
z
" style="fill:#008000;opacity:0.2;"/>
   </g>
   <g id="patch_266">
    <path clip-path="url(#pbc26cedd74)" d="M 310.896633 307.584 
L 313.256505 307.584 
L 313.256505 296.526408 
L 310.896633 296.526408 
z
" style="fill:#008000;opacity:0.2;"/>
   </g>
   <g id="patch_267">
    <path clip-path="url(#pbc26cedd74)" d="M 313.256505 307.584 
L 315.616378 307.584 
L 315.616378 300.064838 
L 313.256505 300.064838 
z
" style="fill:#008000;opacity:0.2;"/>
   </g>
   <g id="patch_268">
    <path clip-path="url(#pbc26cedd74)" d="M 315.616378 307.584 
L 317.97625 307.584 
L 317.97625 299.622534 
L 315.616378 299.622534 
z
" style="fill:#008000;opacity:0.2;"/>
   </g>
   <g id="patch_269">
    <path clip-path="url(#pbc26cedd74)" d="M 317.97625 307.584 
L 320.336122 307.584 
L 320.336122 275.295832 
L 317.97625 275.295832 
z
" style="fill:#008000;opacity:0.2;"/>
   </g>
   <g id="patch_270">
    <path clip-path="url(#pbc26cedd74)" d="M 320.336122 307.584 
L 322.695994 307.584 
L 322.695994 265.565152 
L 320.336122 265.565152 
z
" style="fill:#008000;opacity:0.2;"/>
   </g>
   <g id="patch_271">
    <path clip-path="url(#pbc26cedd74)" d="M 322.695994 307.584 
L 325.055867 307.584 
L 325.055867 303.603267 
L 322.695994 303.603267 
z
" style="fill:#008000;opacity:0.2;"/>
   </g>
   <g id="patch_272">
    <path clip-path="url(#pbc26cedd74)" d="M 325.055867 307.584 
L 327.415739 307.584 
L 327.415739 300.064838 
L 325.055867 300.064838 
z
" style="fill:#008000;opacity:0.2;"/>
   </g>
   <g id="patch_273">
    <path clip-path="url(#pbc26cedd74)" d="M 327.415739 307.584 
L 329.775611 307.584 
L 329.775611 305.372482 
L 327.415739 305.372482 
z
" style="fill:#008000;opacity:0.2;"/>
   </g>
   <g id="patch_274">
    <path clip-path="url(#pbc26cedd74)" d="M 329.775611 307.584 
L 332.135484 307.584 
L 332.135484 307.141696 
L 329.775611 307.141696 
z
" style="fill:#008000;opacity:0.2;"/>
   </g>
   <g id="patch_275">
    <path clip-path="url(#pbc26cedd74)" d="M 332.135484 307.584 
L 334.495356 307.584 
L 334.495356 307.584 
L 332.135484 307.584 
z
" style="fill:#008000;opacity:0.2;"/>
   </g>
   <g id="patch_276">
    <path clip-path="url(#pbc26cedd74)" d="M 334.495356 307.584 
L 336.855228 307.584 
L 336.855228 306.257089 
L 334.495356 306.257089 
z
" style="fill:#008000;opacity:0.2;"/>
   </g>
   <g id="patch_277">
    <path clip-path="url(#pbc26cedd74)" d="M 336.855228 307.584 
L 339.215101 307.584 
L 339.215101 307.584 
L 336.855228 307.584 
z
" style="fill:#008000;opacity:0.2;"/>
   </g>
   <g id="patch_278">
    <path clip-path="url(#pbc26cedd74)" d="M 339.215101 307.584 
L 341.574973 307.584 
L 341.574973 307.584 
L 339.215101 307.584 
z
" style="fill:#008000;opacity:0.2;"/>
   </g>
   <g id="patch_279">
    <path clip-path="url(#pbc26cedd74)" d="M 341.574973 307.584 
L 343.934845 307.584 
L 343.934845 300.064838 
L 341.574973 300.064838 
z
" style="fill:#008000;opacity:0.2;"/>
   </g>
   <g id="patch_280">
    <path clip-path="url(#pbc26cedd74)" d="M 343.934845 307.584 
L 346.294718 307.584 
L 346.294718 290.776461 
L 343.934845 290.776461 
z
" style="fill:#008000;opacity:0.2;"/>
   </g>
   <g id="patch_281">
    <path clip-path="url(#pbc26cedd74)" d="M 346.294718 307.584 
L 348.65459 307.584 
L 348.65459 307.584 
L 346.294718 307.584 
z
" style="fill:#008000;opacity:0.2;"/>
   </g>
   <g id="patch_282">
    <path clip-path="url(#pbc26cedd74)" d="M 348.65459 307.584 
L 351.014462 307.584 
L 351.014462 307.584 
L 348.65459 307.584 
z
" style="fill:#008000;opacity:0.2;"/>
   </g>
   <g id="patch_283">
    <path clip-path="url(#pbc26cedd74)" d="M 351.014462 307.584 
L 353.374334 307.584 
L 353.374334 305.372482 
L 351.014462 305.372482 
z
" style="fill:#008000;opacity:0.2;"/>
   </g>
   <g id="patch_284">
    <path clip-path="url(#pbc26cedd74)" d="M 353.374334 307.584 
L 355.734207 307.584 
L 355.734207 299.18023 
L 353.374334 299.18023 
z
" style="fill:#008000;opacity:0.2;"/>
   </g>
   <g id="patch_285">
    <path clip-path="url(#pbc26cedd74)" d="M 355.734207 307.584 
L 358.094079 307.584 
L 358.094079 288.122639 
L 355.734207 288.122639 
z
" style="fill:#008000;opacity:0.2;"/>
   </g>
   <g id="patch_286">
    <path clip-path="url(#pbc26cedd74)" d="M 358.094079 307.584 
L 360.453951 307.584 
L 360.453951 300.949445 
L 358.094079 300.949445 
z
" style="fill:#008000;opacity:0.2;"/>
   </g>
   <g id="patch_287">
    <path clip-path="url(#pbc26cedd74)" d="M 360.453951 307.584 
L 362.813824 307.584 
L 362.813824 307.141696 
L 360.453951 307.141696 
z
" style="fill:#008000;opacity:0.2;"/>
   </g>
   <g id="patch_288">
    <path clip-path="url(#pbc26cedd74)" d="M 362.813824 307.584 
L 365.173696 307.584 
L 365.173696 304.930178 
L 362.813824 304.930178 
z
" style="fill:#008000;opacity:0.2;"/>
   </g>
   <g id="patch_289">
    <path clip-path="url(#pbc26cedd74)" d="M 365.173696 307.584 
L 367.533568 307.584 
L 367.533568 300.949445 
L 365.173696 300.949445 
z
" style="fill:#008000;opacity:0.2;"/>
   </g>
   <g id="patch_290">
    <path clip-path="url(#pbc26cedd74)" d="M 367.533568 307.584 
L 369.893441 307.584 
L 369.893441 300.949445 
L 367.533568 300.949445 
z
" style="fill:#008000;opacity:0.2;"/>
   </g>
   <g id="patch_291">
    <path clip-path="url(#pbc26cedd74)" d="M 369.893441 307.584 
L 372.253313 307.584 
L 372.253313 304.930178 
L 369.893441 304.930178 
z
" style="fill:#008000;opacity:0.2;"/>
   </g>
   <g id="patch_292">
    <path clip-path="url(#pbc26cedd74)" d="M 372.253313 307.584 
L 374.613185 307.584 
L 374.613185 304.487874 
L 372.253313 304.487874 
z
" style="fill:#008000;opacity:0.2;"/>
   </g>
   <g id="patch_293">
    <path clip-path="url(#pbc26cedd74)" d="M 374.613185 307.584 
L 376.973058 307.584 
L 376.973058 307.584 
L 374.613185 307.584 
z
" style="fill:#008000;opacity:0.2;"/>
   </g>
   <g id="patch_294">
    <path clip-path="url(#pbc26cedd74)" d="M 376.973058 307.584 
L 379.33293 307.584 
L 379.33293 307.584 
L 376.973058 307.584 
z
" style="fill:#008000;opacity:0.2;"/>
   </g>
   <g id="patch_295">
    <path clip-path="url(#pbc26cedd74)" d="M 379.33293 307.584 
L 381.692802 307.584 
L 381.692802 307.584 
L 379.33293 307.584 
z
" style="fill:#008000;opacity:0.2;"/>
   </g>
   <g id="patch_296">
    <path clip-path="url(#pbc26cedd74)" d="M 381.692802 307.584 
L 384.052675 307.584 
L 384.052675 305.814785 
L 381.692802 305.814785 
z
" style="fill:#008000;opacity:0.2;"/>
   </g>
   <g id="patch_297">
    <path clip-path="url(#pbc26cedd74)" d="M 384.052675 307.584 
L 386.412547 307.584 
L 386.412547 306.257089 
L 384.052675 306.257089 
z
" style="fill:#008000;opacity:0.2;"/>
   </g>
   <g id="patch_298">
    <path clip-path="url(#pbc26cedd74)" d="M 386.412547 307.584 
L 388.772419 307.584 
L 388.772419 305.814785 
L 386.412547 305.814785 
z
" style="fill:#008000;opacity:0.2;"/>
   </g>
   <g id="patch_299">
    <path clip-path="url(#pbc26cedd74)" d="M 388.772419 307.584 
L 391.132291 307.584 
L 391.132291 293.430283 
L 388.772419 293.430283 
z
" style="fill:#008000;opacity:0.2;"/>
   </g>
   <g id="patch_300">
    <path clip-path="url(#pbc26cedd74)" d="M 391.132291 307.584 
L 393.492164 307.584 
L 393.492164 293.872586 
L 391.132291 293.872586 
z
" style="fill:#008000;opacity:0.2;"/>
   </g>
   <g id="patch_301">
    <path clip-path="url(#pbc26cedd74)" d="M 393.492164 307.584 
L 395.852036 307.584 
L 395.852036 292.103372 
L 393.492164 292.103372 
z
" style="fill:#008000;opacity:0.2;"/>
   </g>
   <g id="patch_302">
    <path clip-path="url(#pbc26cedd74)" d="M 395.852036 307.584 
L 398.211908 307.584 
L 398.211908 299.18023 
L 395.852036 299.18023 
z
" style="fill:#008000;opacity:0.2;"/>
   </g>
   <g id="matplotlib.axis_1">
    <g id="xtick_1">
     <g id="line2d_1">
      <defs>
       <path d="M 0 0 
L 0 3.5 
" id="m7b3d83e168" style="stroke:#000000;stroke-width:0.8;"/>
      </defs>
      <g>
       <use style="stroke:#000000;stroke-width:0.8;" x="71.079084" xlink:href="#m7b3d83e168" y="307.584"/>
      </g>
     </g>
     <g id="text_1">
      <!-- 2 -->
      <g transform="translate(67.897834 322.182437)scale(0.1 -0.1)">
       <defs>
        <path d="M 1228 531 
L 3431 531 
L 3431 0 
L 469 0 
L 469 531 
Q 828 903 1448 1529 
Q 2069 2156 2228 2338 
Q 2531 2678 2651 2914 
Q 2772 3150 2772 3378 
Q 2772 3750 2511 3984 
Q 2250 4219 1831 4219 
Q 1534 4219 1204 4116 
Q 875 4013 500 3803 
L 500 4441 
Q 881 4594 1212 4672 
Q 1544 4750 1819 4750 
Q 2544 4750 2975 4387 
Q 3406 4025 3406 3419 
Q 3406 3131 3298 2873 
Q 3191 2616 2906 2266 
Q 2828 2175 2409 1742 
Q 1991 1309 1228 531 
z
" id="DejaVuSans-32" transform="scale(0.015625)"/>
       </defs>
       <use xlink:href="#DejaVuSans-32"/>
      </g>
     </g>
    </g>
    <g id="xtick_2">
     <g id="line2d_2">
      <g>
       <use style="stroke:#000000;stroke-width:0.8;" x="126.15195" xlink:href="#m7b3d83e168" y="307.584"/>
      </g>
     </g>
     <g id="text_2">
      <!-- 4 -->
      <g transform="translate(122.9707 322.182437)scale(0.1 -0.1)">
       <defs>
        <path d="M 2419 4116 
L 825 1625 
L 2419 1625 
L 2419 4116 
z
M 2253 4666 
L 3047 4666 
L 3047 1625 
L 3713 1625 
L 3713 1100 
L 3047 1100 
L 3047 0 
L 2419 0 
L 2419 1100 
L 313 1100 
L 313 1709 
L 2253 4666 
z
" id="DejaVuSans-34" transform="scale(0.015625)"/>
       </defs>
       <use xlink:href="#DejaVuSans-34"/>
      </g>
     </g>
    </g>
    <g id="xtick_3">
     <g id="line2d_3">
      <g>
       <use style="stroke:#000000;stroke-width:0.8;" x="181.224816" xlink:href="#m7b3d83e168" y="307.584"/>
      </g>
     </g>
     <g id="text_3">
      <!-- 6 -->
      <g transform="translate(178.043566 322.182437)scale(0.1 -0.1)">
       <defs>
        <path d="M 2113 2584 
Q 1688 2584 1439 2293 
Q 1191 2003 1191 1497 
Q 1191 994 1439 701 
Q 1688 409 2113 409 
Q 2538 409 2786 701 
Q 3034 994 3034 1497 
Q 3034 2003 2786 2293 
Q 2538 2584 2113 2584 
z
M 3366 4563 
L 3366 3988 
Q 3128 4100 2886 4159 
Q 2644 4219 2406 4219 
Q 1781 4219 1451 3797 
Q 1122 3375 1075 2522 
Q 1259 2794 1537 2939 
Q 1816 3084 2150 3084 
Q 2853 3084 3261 2657 
Q 3669 2231 3669 1497 
Q 3669 778 3244 343 
Q 2819 -91 2113 -91 
Q 1303 -91 875 529 
Q 447 1150 447 2328 
Q 447 3434 972 4092 
Q 1497 4750 2381 4750 
Q 2619 4750 2861 4703 
Q 3103 4656 3366 4563 
z
" id="DejaVuSans-36" transform="scale(0.015625)"/>
       </defs>
       <use xlink:href="#DejaVuSans-36"/>
      </g>
     </g>
    </g>
    <g id="xtick_4">
     <g id="line2d_4">
      <g>
       <use style="stroke:#000000;stroke-width:0.8;" x="236.297682" xlink:href="#m7b3d83e168" y="307.584"/>
      </g>
     </g>
     <g id="text_4">
      <!-- 8 -->
      <g transform="translate(233.116432 322.182437)scale(0.1 -0.1)">
       <defs>
        <path d="M 2034 2216 
Q 1584 2216 1326 1975 
Q 1069 1734 1069 1313 
Q 1069 891 1326 650 
Q 1584 409 2034 409 
Q 2484 409 2743 651 
Q 3003 894 3003 1313 
Q 3003 1734 2745 1975 
Q 2488 2216 2034 2216 
z
M 1403 2484 
Q 997 2584 770 2862 
Q 544 3141 544 3541 
Q 544 4100 942 4425 
Q 1341 4750 2034 4750 
Q 2731 4750 3128 4425 
Q 3525 4100 3525 3541 
Q 3525 3141 3298 2862 
Q 3072 2584 2669 2484 
Q 3125 2378 3379 2068 
Q 3634 1759 3634 1313 
Q 3634 634 3220 271 
Q 2806 -91 2034 -91 
Q 1263 -91 848 271 
Q 434 634 434 1313 
Q 434 1759 690 2068 
Q 947 2378 1403 2484 
z
M 1172 3481 
Q 1172 3119 1398 2916 
Q 1625 2713 2034 2713 
Q 2441 2713 2670 2916 
Q 2900 3119 2900 3481 
Q 2900 3844 2670 4047 
Q 2441 4250 2034 4250 
Q 1625 4250 1398 4047 
Q 1172 3844 1172 3481 
z
" id="DejaVuSans-38" transform="scale(0.015625)"/>
       </defs>
       <use xlink:href="#DejaVuSans-38"/>
      </g>
     </g>
    </g>
    <g id="xtick_5">
     <g id="line2d_5">
      <g>
       <use style="stroke:#000000;stroke-width:0.8;" x="291.370548" xlink:href="#m7b3d83e168" y="307.584"/>
      </g>
     </g>
     <g id="text_5">
      <!-- 10 -->
      <g transform="translate(285.008048 322.182437)scale(0.1 -0.1)">
       <defs>
        <path d="M 794 531 
L 1825 531 
L 1825 4091 
L 703 3866 
L 703 4441 
L 1819 4666 
L 2450 4666 
L 2450 531 
L 3481 531 
L 3481 0 
L 794 0 
L 794 531 
z
" id="DejaVuSans-31" transform="scale(0.015625)"/>
        <path d="M 2034 4250 
Q 1547 4250 1301 3770 
Q 1056 3291 1056 2328 
Q 1056 1369 1301 889 
Q 1547 409 2034 409 
Q 2525 409 2770 889 
Q 3016 1369 3016 2328 
Q 3016 3291 2770 3770 
Q 2525 4250 2034 4250 
z
M 2034 4750 
Q 2819 4750 3233 4129 
Q 3647 3509 3647 2328 
Q 3647 1150 3233 529 
Q 2819 -91 2034 -91 
Q 1250 -91 836 529 
Q 422 1150 422 2328 
Q 422 3509 836 4129 
Q 1250 4750 2034 4750 
z
" id="DejaVuSans-30" transform="scale(0.015625)"/>
       </defs>
       <use xlink:href="#DejaVuSans-31"/>
       <use x="63.623047" xlink:href="#DejaVuSans-30"/>
      </g>
     </g>
    </g>
    <g id="xtick_6">
     <g id="line2d_6">
      <g>
       <use style="stroke:#000000;stroke-width:0.8;" x="346.443414" xlink:href="#m7b3d83e168" y="307.584"/>
      </g>
     </g>
     <g id="text_6">
      <!-- 12 -->
      <g transform="translate(340.080914 322.182437)scale(0.1 -0.1)">
       <use xlink:href="#DejaVuSans-31"/>
       <use x="63.623047" xlink:href="#DejaVuSans-32"/>
      </g>
     </g>
    </g>
    <g id="xtick_7">
     <g id="line2d_7">
      <g>
       <use style="stroke:#000000;stroke-width:0.8;" x="401.51628" xlink:href="#m7b3d83e168" y="307.584"/>
      </g>
     </g>
     <g id="text_7">
      <!-- 14 -->
      <g transform="translate(395.15378 322.182437)scale(0.1 -0.1)">
       <use xlink:href="#DejaVuSans-31"/>
       <use x="63.623047" xlink:href="#DejaVuSans-34"/>
      </g>
     </g>
    </g>
   </g>
   <g id="matplotlib.axis_2">
    <g id="ytick_1">
     <g id="line2d_8">
      <defs>
       <path d="M 0 0 
L -3.5 0 
" id="m940d43f177" style="stroke:#000000;stroke-width:0.8;"/>
      </defs>
      <g>
       <use style="stroke:#000000;stroke-width:0.8;" x="57.6" xlink:href="#m940d43f177" y="307.584"/>
      </g>
     </g>
     <g id="text_8">
      <!-- 0 -->
      <g transform="translate(44.2375 311.383219)scale(0.1 -0.1)">
       <use xlink:href="#DejaVuSans-30"/>
      </g>
     </g>
    </g>
    <g id="ytick_2">
     <g id="line2d_9">
      <g>
       <use style="stroke:#000000;stroke-width:0.8;" x="57.6" xlink:href="#m940d43f177" y="263.353634"/>
      </g>
     </g>
     <g id="text_9">
      <!-- 100 -->
      <g transform="translate(31.5125 267.152852)scale(0.1 -0.1)">
       <use xlink:href="#DejaVuSans-31"/>
       <use x="63.623047" xlink:href="#DejaVuSans-30"/>
       <use x="127.246094" xlink:href="#DejaVuSans-30"/>
      </g>
     </g>
    </g>
    <g id="ytick_3">
     <g id="line2d_10">
      <g>
       <use style="stroke:#000000;stroke-width:0.8;" x="57.6" xlink:href="#m940d43f177" y="219.123267"/>
      </g>
     </g>
     <g id="text_10">
      <!-- 200 -->
      <g transform="translate(31.5125 222.922486)scale(0.1 -0.1)">
       <use xlink:href="#DejaVuSans-32"/>
       <use x="63.623047" xlink:href="#DejaVuSans-30"/>
       <use x="127.246094" xlink:href="#DejaVuSans-30"/>
      </g>
     </g>
    </g>
    <g id="ytick_4">
     <g id="line2d_11">
      <g>
       <use style="stroke:#000000;stroke-width:0.8;" x="57.6" xlink:href="#m940d43f177" y="174.892901"/>
      </g>
     </g>
     <g id="text_11">
      <!-- 300 -->
      <g transform="translate(31.5125 178.692119)scale(0.1 -0.1)">
       <defs>
        <path d="M 2597 2516 
Q 3050 2419 3304 2112 
Q 3559 1806 3559 1356 
Q 3559 666 3084 287 
Q 2609 -91 1734 -91 
Q 1441 -91 1130 -33 
Q 819 25 488 141 
L 488 750 
Q 750 597 1062 519 
Q 1375 441 1716 441 
Q 2309 441 2620 675 
Q 2931 909 2931 1356 
Q 2931 1769 2642 2001 
Q 2353 2234 1838 2234 
L 1294 2234 
L 1294 2753 
L 1863 2753 
Q 2328 2753 2575 2939 
Q 2822 3125 2822 3475 
Q 2822 3834 2567 4026 
Q 2313 4219 1838 4219 
Q 1578 4219 1281 4162 
Q 984 4106 628 3988 
L 628 4550 
Q 988 4650 1302 4700 
Q 1616 4750 1894 4750 
Q 2613 4750 3031 4423 
Q 3450 4097 3450 3541 
Q 3450 3153 3228 2886 
Q 3006 2619 2597 2516 
z
" id="DejaVuSans-33" transform="scale(0.015625)"/>
       </defs>
       <use xlink:href="#DejaVuSans-33"/>
       <use x="63.623047" xlink:href="#DejaVuSans-30"/>
       <use x="127.246094" xlink:href="#DejaVuSans-30"/>
      </g>
     </g>
    </g>
    <g id="ytick_5">
     <g id="line2d_12">
      <g>
       <use style="stroke:#000000;stroke-width:0.8;" x="57.6" xlink:href="#m940d43f177" y="130.662534"/>
      </g>
     </g>
     <g id="text_12">
      <!-- 400 -->
      <g transform="translate(31.5125 134.461753)scale(0.1 -0.1)">
       <use xlink:href="#DejaVuSans-34"/>
       <use x="63.623047" xlink:href="#DejaVuSans-30"/>
       <use x="127.246094" xlink:href="#DejaVuSans-30"/>
      </g>
     </g>
    </g>
    <g id="ytick_6">
     <g id="line2d_13">
      <g>
       <use style="stroke:#000000;stroke-width:0.8;" x="57.6" xlink:href="#m940d43f177" y="86.432168"/>
      </g>
     </g>
     <g id="text_13">
      <!-- 500 -->
      <g transform="translate(31.5125 90.231386)scale(0.1 -0.1)">
       <defs>
        <path d="M 691 4666 
L 3169 4666 
L 3169 4134 
L 1269 4134 
L 1269 2991 
Q 1406 3038 1543 3061 
Q 1681 3084 1819 3084 
Q 2600 3084 3056 2656 
Q 3513 2228 3513 1497 
Q 3513 744 3044 326 
Q 2575 -91 1722 -91 
Q 1428 -91 1123 -41 
Q 819 9 494 109 
L 494 744 
Q 775 591 1075 516 
Q 1375 441 1709 441 
Q 2250 441 2565 725 
Q 2881 1009 2881 1497 
Q 2881 1984 2565 2268 
Q 2250 2553 1709 2553 
Q 1456 2553 1204 2497 
Q 953 2441 691 2322 
L 691 4666 
z
" id="DejaVuSans-35" transform="scale(0.015625)"/>
       </defs>
       <use xlink:href="#DejaVuSans-35"/>
       <use x="63.623047" xlink:href="#DejaVuSans-30"/>
       <use x="127.246094" xlink:href="#DejaVuSans-30"/>
      </g>
     </g>
    </g>
    <g id="ytick_7">
     <g id="line2d_14">
      <g>
       <use style="stroke:#000000;stroke-width:0.8;" x="57.6" xlink:href="#m940d43f177" y="42.201801"/>
      </g>
     </g>
     <g id="text_14">
      <!-- 600 -->
      <g transform="translate(31.5125 46.00102)scale(0.1 -0.1)">
       <use xlink:href="#DejaVuSans-36"/>
       <use x="63.623047" xlink:href="#DejaVuSans-30"/>
       <use x="127.246094" xlink:href="#DejaVuSans-30"/>
      </g>
     </g>
    </g>
   </g>
   <g id="patch_303">
    <path clip-path="url(#pbc26cedd74)" d="M 73.832727 307.584 
L 73.832727 305.372482 
L 77.079273 305.372482 
L 77.079273 300.064838 
L 80.325818 300.064838 
L 80.325818 293.872586 
L 83.572364 293.872586 
L 83.572364 297.411016 
L 86.818909 297.411016 
L 86.818909 287.238031 
L 90.065455 287.238031 
L 90.065455 281.488084 
L 93.312 281.488084 
L 93.312 278.834262 
L 96.558545 278.834262 
L 96.558545 286.353424 
L 99.805091 286.353424 
L 99.805091 287.680335 
L 103.051636 287.680335 
L 103.051636 297.853319 
L 106.298182 297.853319 
L 106.298182 301.834052 
L 109.544727 301.834052 
L 109.544727 300.064838 
L 112.791273 300.064838 
L 112.791273 291.218764 
L 116.037818 291.218764 
L 116.037818 282.814995 
L 119.284364 282.814995 
L 119.284364 284.584209 
L 122.530909 284.584209 
L 122.530909 285.91112 
L 125.777455 285.91112 
L 125.777455 295.199497 
L 129.024 295.199497 
L 129.024 290.776461 
L 132.270545 290.776461 
L 132.270545 301.391749 
L 135.517091 301.391749 
L 135.517091 298.295623 
L 138.763636 298.295623 
L 138.763636 297.853319 
L 142.010182 297.853319 
L 142.010182 293.430283 
L 145.256727 293.430283 
L 145.256727 297.411016 
L 151.749818 297.411016 
L 151.749818 293.872586 
L 154.996364 293.872586 
L 154.996364 289.44955 
L 158.242909 289.44955 
L 158.242909 287.238031 
L 161.489455 287.238031 
L 161.489455 281.488084 
L 164.736 281.488084 
L 164.736 271.315099 
L 167.982545 271.315099 
L 167.982545 279.718869 
L 171.229091 279.718869 
L 171.229091 283.257298 
L 174.475636 283.257298 
L 174.475636 277.507351 
L 177.722182 277.507351 
L 177.722182 280.603476 
L 180.968727 280.603476 
L 180.968727 275.738136 
L 184.215273 275.738136 
L 184.215273 281.04578 
L 187.461818 281.04578 
L 187.461818 280.603476 
L 190.708364 280.603476 
L 190.708364 286.353424 
L 193.954909 286.353424 
L 193.954909 286.795728 
L 197.201455 286.795728 
L 197.201455 283.699602 
L 200.448 283.699602 
L 200.448 281.488084 
L 203.694545 281.488084 
L 203.694545 273.084314 
L 206.941091 273.084314 
L 206.941091 262.026723 
L 210.187636 262.026723 
L 210.187636 258.930597 
L 213.434182 258.930597 
L 213.434182 260.257508 
L 216.680727 260.257508 
L 216.680727 255.392168 
L 219.927273 255.392168 
L 219.927273 267.77667 
L 223.173818 267.77667 
L 223.173818 265.122848 
L 226.420364 265.122848 
L 226.420364 273.968921 
L 229.666909 273.968921 
L 229.666909 262.026723 
L 232.913455 262.026723 
L 232.913455 278.391958 
L 236.16 278.391958 
L 236.16 280.603476 
L 239.406545 280.603476 
L 239.406545 274.853529 
L 242.653091 274.853529 
L 242.653091 267.334366 
L 245.899636 267.334366 
L 245.899636 266.892063 
L 249.146182 266.892063 
L 249.146182 257.161382 
L 252.392727 257.161382 
L 252.392727 252.296042 
L 255.639273 252.296042 
L 255.639273 262.91133 
L 258.885818 262.91133 
L 258.885818 275.738136 
L 262.132364 275.738136 
L 262.132364 267.77667 
L 265.378909 267.77667 
L 265.378909 262.469026 
L 268.625455 262.469026 
L 268.625455 258.930597 
L 271.872 258.930597 
L 271.872 261.584419 
L 275.118545 261.584419 
L 275.118545 260.699812 
L 278.365091 260.699812 
L 278.365091 257.161382 
L 281.611636 257.161382 
L 281.611636 260.257508 
L 284.858182 260.257508 
L 284.858182 260.699812 
L 288.104727 260.699812 
L 288.104727 254.949864 
L 291.351273 254.949864 
L 291.351273 236.37311 
L 294.597818 236.37311 
L 294.597818 234.161592 
L 297.844364 234.161592 
L 297.844364 220.892482 
L 301.090909 220.892482 
L 301.090909 212.488712 
L 304.337455 212.488712 
L 304.337455 229.296251 
L 307.584 229.296251 
L 307.584 208.507979 
L 310.830545 208.507979 
L 310.830545 210.277194 
L 314.077091 210.277194 
L 314.077091 223.104 
L 317.323636 223.104 
L 317.323636 231.50777 
L 320.570182 231.50777 
L 320.570182 239.469236 
L 323.816727 239.469236 
L 323.816727 228.411644 
L 327.063273 228.411644 
L 327.063273 230.623162 
L 330.309818 230.623162 
L 330.309818 226.642429 
L 333.556364 226.642429 
L 333.556364 229.296251 
L 336.802909 229.296251 
L 336.802909 232.392377 
L 340.049455 232.392377 
L 340.049455 220.450178 
L 343.296 220.450178 
L 343.296 227.96934 
L 346.542545 227.96934 
L 346.542545 234.161592 
L 349.789091 234.161592 
L 349.789091 237.257717 
L 353.035636 237.257717 
L 353.035636 224.430911 
L 356.282182 224.430911 
L 356.282182 226.642429 
L 359.528727 226.642429 
L 359.528727 238.142325 
L 362.775273 238.142325 
L 362.775273 237.257717 
L 366.021818 237.257717 
L 366.021818 245.219183 
L 369.268364 245.219183 
L 369.268364 227.084733 
L 372.514909 227.084733 
L 372.514909 222.219393 
L 375.761455 222.219393 
L 375.761455 214.70023 
L 379.008 214.70023 
L 379.008 220.892482 
L 382.254545 220.892482 
L 382.254545 236.815414 
L 385.501091 236.815414 
L 385.501091 214.70023 
L 388.747636 214.70023 
L 388.747636 197.450387 
L 391.994182 197.450387 
L 391.994182 200.988817 
L 395.240727 200.988817 
L 395.240727 245.661487 
L 398.487273 245.661487 
L 398.487273 307.584 
L 398.487273 307.584 
" style="fill:none;stroke:#ff0000;stroke-linejoin:miter;"/>
   </g>
   <g id="patch_304">
    <path clip-path="url(#pbc26cedd74)" d="M 124.499764 307.584 
L 124.499764 283.257298 
L 127.239639 283.257298 
L 127.239639 290.776461 
L 129.979514 290.776461 
L 129.979514 305.814785 
L 132.719389 305.814785 
L 132.719389 304.045571 
L 135.459264 304.045571 
L 135.459264 273.968921 
L 138.199139 273.968921 
L 138.199139 305.372482 
L 140.939015 305.372482 
L 140.939015 307.584 
L 291.632144 307.584 
L 291.632144 307.141696 
L 294.372019 307.141696 
L 294.372019 293.872586 
L 297.111895 293.872586 
L 297.111895 237.257717 
L 299.85177 237.257717 
L 299.85177 128.451016 
L 302.591645 128.451016 
L 302.591645 54.144 
L 305.33152 54.144 
L 305.33152 67.41311 
L 308.071395 67.41311 
L 308.071395 147.912377 
L 310.81127 147.912377 
L 310.81127 261.142115 
L 313.551145 261.142115 
L 313.551145 283.699602 
L 316.29102 283.699602 
L 316.29102 298.737927 
L 319.030895 298.737927 
L 319.030895 305.372482 
L 321.77077 305.372482 
L 321.77077 304.045571 
L 324.510645 304.045571 
L 324.510645 306.257089 
L 327.25052 306.257089 
L 327.25052 303.160963 
L 329.990396 303.160963 
L 329.990396 300.064838 
L 332.730271 300.064838 
L 332.730271 299.18023 
L 335.470146 299.18023 
L 335.470146 294.757194 
L 338.210021 294.757194 
L 338.210021 285.91112 
L 340.949896 285.91112 
L 340.949896 290.334157 
L 343.689771 290.334157 
L 343.689771 293.872586 
L 346.429646 293.872586 
L 346.429646 258.930597 
L 349.169521 258.930597 
L 349.169521 283.699602 
L 351.909396 283.699602 
L 351.909396 302.71866 
L 354.649271 302.71866 
L 354.649271 296.526408 
L 357.389146 296.526408 
L 357.389146 284.584209 
L 360.129022 284.584209 
L 360.129022 278.391958 
L 362.868897 278.391958 
L 362.868897 285.91112 
L 365.608772 285.91112 
L 365.608772 303.160963 
L 368.348647 303.160963 
L 368.348647 307.584 
L 371.088522 307.584 
L 371.088522 306.257089 
L 373.828397 306.257089 
L 373.828397 304.487874 
L 376.568272 304.487874 
L 376.568272 301.834052 
L 379.308147 301.834052 
L 379.308147 296.084105 
L 382.048022 296.084105 
L 382.048022 295.641801 
L 384.787897 295.641801 
L 384.787897 298.737927 
L 387.527772 298.737927 
L 387.527772 300.064838 
L 390.267647 300.064838 
L 390.267647 302.71866 
L 393.007523 302.71866 
L 393.007523 298.295623 
L 395.747398 298.295623 
L 395.747398 280.603476 
L 398.487273 280.603476 
L 398.487273 307.584 
L 398.487273 307.584 
" style="fill:none;stroke:#0000ff;stroke-linejoin:miter;"/>
   </g>
   <g id="patch_305">
    <path clip-path="url(#pbc26cedd74)" d="M 162.224677 307.584 
L 162.224677 302.71866 
L 164.58455 302.71866 
L 164.58455 305.814785 
L 166.944422 305.814785 
L 166.944422 297.853319 
L 169.304294 297.853319 
L 169.304294 293.872586 
L 171.664167 293.872586 
L 171.664167 157.200754 
L 174.024039 157.200754 
L 174.024039 172.239079 
L 176.383911 172.239079 
L 176.383911 219.565571 
L 178.743783 219.565571 
L 178.743783 266.449759 
L 181.103656 266.449759 
L 181.103656 300.064838 
L 183.463528 300.064838 
L 183.463528 231.950073 
L 185.8234 231.950073 
L 185.8234 158.085361 
L 188.183273 158.085361 
L 188.183273 203.642639 
L 190.543145 203.642639 
L 190.543145 244.77688 
L 192.903017 244.77688 
L 192.903017 302.276356 
L 195.26289 302.276356 
L 195.26289 307.141696 
L 197.622762 307.141696 
L 197.622762 307.584 
L 207.062251 307.584 
L 207.062251 305.814785 
L 209.422124 305.814785 
L 209.422124 307.584 
L 218.861613 307.584 
L 218.861613 305.814785 
L 221.221485 305.814785 
L 221.221485 306.699393 
L 223.581357 306.699393 
L 223.581357 307.584 
L 280.218293 307.584 
L 280.218293 307.141696 
L 282.578165 307.141696 
L 282.578165 307.584 
L 284.938037 307.584 
L 284.938037 277.507351 
L 287.29791 277.507351 
L 287.29791 120.931853 
L 289.657782 120.931853 
L 289.657782 133.316356 
L 292.017654 133.316356 
L 292.017654 251.411435 
L 294.377527 251.411435 
L 294.377527 307.584 
L 303.817016 307.584 
L 303.817016 306.257089 
L 306.176888 306.257089 
L 306.176888 292.103372 
L 308.536761 292.103372 
L 308.536761 287.680335 
L 310.896633 287.680335 
L 310.896633 296.526408 
L 313.256505 296.526408 
L 313.256505 300.064838 
L 315.616378 300.064838 
L 315.616378 299.622534 
L 317.97625 299.622534 
L 317.97625 275.295832 
L 320.336122 275.295832 
L 320.336122 265.565152 
L 322.695994 265.565152 
L 322.695994 303.603267 
L 325.055867 303.603267 
L 325.055867 300.064838 
L 327.415739 300.064838 
L 327.415739 305.372482 
L 329.775611 305.372482 
L 329.775611 307.141696 
L 332.135484 307.141696 
L 332.135484 307.584 
L 334.495356 307.584 
L 334.495356 306.257089 
L 336.855228 306.257089 
L 336.855228 307.584 
L 341.574973 307.584 
L 341.574973 300.064838 
L 343.934845 300.064838 
L 343.934845 290.776461 
L 346.294718 290.776461 
L 346.294718 307.584 
L 351.014462 307.584 
L 351.014462 305.372482 
L 353.374334 305.372482 
L 353.374334 299.18023 
L 355.734207 299.18023 
L 355.734207 288.122639 
L 358.094079 288.122639 
L 358.094079 300.949445 
L 360.453951 300.949445 
L 360.453951 307.141696 
L 362.813824 307.141696 
L 362.813824 304.930178 
L 365.173696 304.930178 
L 365.173696 300.949445 
L 369.893441 300.949445 
L 369.893441 304.930178 
L 372.253313 304.930178 
L 372.253313 304.487874 
L 374.613185 304.487874 
L 374.613185 307.584 
L 381.692802 307.584 
L 381.692802 305.814785 
L 384.052675 305.814785 
L 384.052675 306.257089 
L 386.412547 306.257089 
L 386.412547 305.814785 
L 388.772419 305.814785 
L 388.772419 293.430283 
L 391.132291 293.430283 
L 391.132291 293.872586 
L 393.492164 293.872586 
L 393.492164 292.103372 
L 395.852036 292.103372 
L 395.852036 299.18023 
L 398.211908 299.18023 
L 398.211908 307.584 
L 398.211908 307.584 
" style="fill:none;stroke:#008000;stroke-linejoin:miter;"/>
   </g>
   <g id="patch_306">
    <path d="M 57.6 307.584 
L 57.6 41.472 
" style="fill:none;stroke:#000000;stroke-linecap:square;stroke-linejoin:miter;stroke-width:0.8;"/>
   </g>
   <g id="patch_307">
    <path d="M 414.72 307.584 
L 414.72 41.472 
" style="fill:none;stroke:#000000;stroke-linecap:square;stroke-linejoin:miter;stroke-width:0.8;"/>
   </g>
   <g id="patch_308">
    <path d="M 57.6 307.584 
L 414.72 307.584 
" style="fill:none;stroke:#000000;stroke-linecap:square;stroke-linejoin:miter;stroke-width:0.8;"/>
   </g>
   <g id="patch_309">
    <path d="M 57.6 41.472 
L 414.72 41.472 
" style="fill:none;stroke:#000000;stroke-linecap:square;stroke-linejoin:miter;stroke-width:0.8;"/>
   </g>
   <g id="legend_1">
    <g id="patch_310">
     <path d="M 321.37 93.506375 
L 407.72 93.506375 
Q 409.72 93.506375 409.72 91.506375 
L 409.72 48.472 
Q 409.72 46.472 407.72 46.472 
L 321.37 46.472 
Q 319.37 46.472 319.37 48.472 
L 319.37 91.506375 
Q 319.37 93.506375 321.37 93.506375 
z
" style="fill:#ffffff;opacity:0.8;stroke:#cccccc;stroke-linejoin:miter;"/>
    </g>
    <g id="patch_311">
     <path d="M 323.37 58.070438 
L 343.37 58.070438 
L 343.37 51.070438 
L 323.37 51.070438 
z
" style="fill:none;stroke:#ff0000;stroke-linejoin:miter;"/>
    </g>
    <g id="text_15">
     <!-- optimal -->
     <g transform="translate(351.37 58.070438)scale(0.1 -0.1)">
      <defs>
       <path d="M 1959 3097 
Q 1497 3097 1228 2736 
Q 959 2375 959 1747 
Q 959 1119 1226 758 
Q 1494 397 1959 397 
Q 2419 397 2687 759 
Q 2956 1122 2956 1747 
Q 2956 2369 2687 2733 
Q 2419 3097 1959 3097 
z
M 1959 3584 
Q 2709 3584 3137 3096 
Q 3566 2609 3566 1747 
Q 3566 888 3137 398 
Q 2709 -91 1959 -91 
Q 1206 -91 779 398 
Q 353 888 353 1747 
Q 353 2609 779 3096 
Q 1206 3584 1959 3584 
z
" id="DejaVuSans-6f" transform="scale(0.015625)"/>
       <path d="M 1159 525 
L 1159 -1331 
L 581 -1331 
L 581 3500 
L 1159 3500 
L 1159 2969 
Q 1341 3281 1617 3432 
Q 1894 3584 2278 3584 
Q 2916 3584 3314 3078 
Q 3713 2572 3713 1747 
Q 3713 922 3314 415 
Q 2916 -91 2278 -91 
Q 1894 -91 1617 61 
Q 1341 213 1159 525 
z
M 3116 1747 
Q 3116 2381 2855 2742 
Q 2594 3103 2138 3103 
Q 1681 3103 1420 2742 
Q 1159 2381 1159 1747 
Q 1159 1113 1420 752 
Q 1681 391 2138 391 
Q 2594 391 2855 752 
Q 3116 1113 3116 1747 
z
" id="DejaVuSans-70" transform="scale(0.015625)"/>
       <path d="M 1172 4494 
L 1172 3500 
L 2356 3500 
L 2356 3053 
L 1172 3053 
L 1172 1153 
Q 1172 725 1289 603 
Q 1406 481 1766 481 
L 2356 481 
L 2356 0 
L 1766 0 
Q 1100 0 847 248 
Q 594 497 594 1153 
L 594 3053 
L 172 3053 
L 172 3500 
L 594 3500 
L 594 4494 
L 1172 4494 
z
" id="DejaVuSans-74" transform="scale(0.015625)"/>
       <path d="M 603 3500 
L 1178 3500 
L 1178 0 
L 603 0 
L 603 3500 
z
M 603 4863 
L 1178 4863 
L 1178 4134 
L 603 4134 
L 603 4863 
z
" id="DejaVuSans-69" transform="scale(0.015625)"/>
       <path d="M 3328 2828 
Q 3544 3216 3844 3400 
Q 4144 3584 4550 3584 
Q 5097 3584 5394 3201 
Q 5691 2819 5691 2113 
L 5691 0 
L 5113 0 
L 5113 2094 
Q 5113 2597 4934 2840 
Q 4756 3084 4391 3084 
Q 3944 3084 3684 2787 
Q 3425 2491 3425 1978 
L 3425 0 
L 2847 0 
L 2847 2094 
Q 2847 2600 2669 2842 
Q 2491 3084 2119 3084 
Q 1678 3084 1418 2786 
Q 1159 2488 1159 1978 
L 1159 0 
L 581 0 
L 581 3500 
L 1159 3500 
L 1159 2956 
Q 1356 3278 1631 3431 
Q 1906 3584 2284 3584 
Q 2666 3584 2933 3390 
Q 3200 3197 3328 2828 
z
" id="DejaVuSans-6d" transform="scale(0.015625)"/>
       <path d="M 2194 1759 
Q 1497 1759 1228 1600 
Q 959 1441 959 1056 
Q 959 750 1161 570 
Q 1363 391 1709 391 
Q 2188 391 2477 730 
Q 2766 1069 2766 1631 
L 2766 1759 
L 2194 1759 
z
M 3341 1997 
L 3341 0 
L 2766 0 
L 2766 531 
Q 2569 213 2275 61 
Q 1981 -91 1556 -91 
Q 1019 -91 701 211 
Q 384 513 384 1019 
Q 384 1609 779 1909 
Q 1175 2209 1959 2209 
L 2766 2209 
L 2766 2266 
Q 2766 2663 2505 2880 
Q 2244 3097 1772 3097 
Q 1472 3097 1187 3025 
Q 903 2953 641 2809 
L 641 3341 
Q 956 3463 1253 3523 
Q 1550 3584 1831 3584 
Q 2591 3584 2966 3190 
Q 3341 2797 3341 1997 
z
" id="DejaVuSans-61" transform="scale(0.015625)"/>
       <path d="M 603 4863 
L 1178 4863 
L 1178 0 
L 603 0 
L 603 4863 
z
" id="DejaVuSans-6c" transform="scale(0.015625)"/>
      </defs>
      <use xlink:href="#DejaVuSans-6f"/>
      <use x="61.181641" xlink:href="#DejaVuSans-70"/>
      <use x="124.658203" xlink:href="#DejaVuSans-74"/>
      <use x="163.867188" xlink:href="#DejaVuSans-69"/>
      <use x="191.650391" xlink:href="#DejaVuSans-6d"/>
      <use x="289.0625" xlink:href="#DejaVuSans-61"/>
      <use x="350.341797" xlink:href="#DejaVuSans-6c"/>
     </g>
    </g>
    <g id="patch_312">
     <path d="M 323.37 72.748563 
L 343.37 72.748563 
L 343.37 65.748563 
L 323.37 65.748563 
z
" style="fill:none;stroke:#0000ff;stroke-linejoin:miter;"/>
    </g>
    <g id="text_16">
     <!-- high -->
     <g transform="translate(351.37 72.748563)scale(0.1 -0.1)">
      <defs>
       <path d="M 3513 2113 
L 3513 0 
L 2938 0 
L 2938 2094 
Q 2938 2591 2744 2837 
Q 2550 3084 2163 3084 
Q 1697 3084 1428 2787 
Q 1159 2491 1159 1978 
L 1159 0 
L 581 0 
L 581 4863 
L 1159 4863 
L 1159 2956 
Q 1366 3272 1645 3428 
Q 1925 3584 2291 3584 
Q 2894 3584 3203 3211 
Q 3513 2838 3513 2113 
z
" id="DejaVuSans-68" transform="scale(0.015625)"/>
       <path d="M 2906 1791 
Q 2906 2416 2648 2759 
Q 2391 3103 1925 3103 
Q 1463 3103 1205 2759 
Q 947 2416 947 1791 
Q 947 1169 1205 825 
Q 1463 481 1925 481 
Q 2391 481 2648 825 
Q 2906 1169 2906 1791 
z
M 3481 434 
Q 3481 -459 3084 -895 
Q 2688 -1331 1869 -1331 
Q 1566 -1331 1297 -1286 
Q 1028 -1241 775 -1147 
L 775 -588 
Q 1028 -725 1275 -790 
Q 1522 -856 1778 -856 
Q 2344 -856 2625 -561 
Q 2906 -266 2906 331 
L 2906 616 
Q 2728 306 2450 153 
Q 2172 0 1784 0 
Q 1141 0 747 490 
Q 353 981 353 1791 
Q 353 2603 747 3093 
Q 1141 3584 1784 3584 
Q 2172 3584 2450 3431 
Q 2728 3278 2906 2969 
L 2906 3500 
L 3481 3500 
L 3481 434 
z
" id="DejaVuSans-67" transform="scale(0.015625)"/>
      </defs>
      <use xlink:href="#DejaVuSans-68"/>
      <use x="63.378906" xlink:href="#DejaVuSans-69"/>
      <use x="91.162109" xlink:href="#DejaVuSans-67"/>
      <use x="154.638672" xlink:href="#DejaVuSans-68"/>
     </g>
    </g>
    <g id="patch_313">
     <path d="M 323.37 87.426688 
L 343.37 87.426688 
L 343.37 80.426688 
L 323.37 80.426688 
z
" style="fill:none;stroke:#008000;stroke-linejoin:miter;"/>
    </g>
    <g id="text_17">
     <!-- timed-high -->
     <g transform="translate(351.37 87.426688)scale(0.1 -0.1)">
      <defs>
       <path d="M 3597 1894 
L 3597 1613 
L 953 1613 
Q 991 1019 1311 708 
Q 1631 397 2203 397 
Q 2534 397 2845 478 
Q 3156 559 3463 722 
L 3463 178 
Q 3153 47 2828 -22 
Q 2503 -91 2169 -91 
Q 1331 -91 842 396 
Q 353 884 353 1716 
Q 353 2575 817 3079 
Q 1281 3584 2069 3584 
Q 2775 3584 3186 3129 
Q 3597 2675 3597 1894 
z
M 3022 2063 
Q 3016 2534 2758 2815 
Q 2500 3097 2075 3097 
Q 1594 3097 1305 2825 
Q 1016 2553 972 2059 
L 3022 2063 
z
" id="DejaVuSans-65" transform="scale(0.015625)"/>
       <path d="M 2906 2969 
L 2906 4863 
L 3481 4863 
L 3481 0 
L 2906 0 
L 2906 525 
Q 2725 213 2448 61 
Q 2172 -91 1784 -91 
Q 1150 -91 751 415 
Q 353 922 353 1747 
Q 353 2572 751 3078 
Q 1150 3584 1784 3584 
Q 2172 3584 2448 3432 
Q 2725 3281 2906 2969 
z
M 947 1747 
Q 947 1113 1208 752 
Q 1469 391 1925 391 
Q 2381 391 2643 752 
Q 2906 1113 2906 1747 
Q 2906 2381 2643 2742 
Q 2381 3103 1925 3103 
Q 1469 3103 1208 2742 
Q 947 2381 947 1747 
z
" id="DejaVuSans-64" transform="scale(0.015625)"/>
       <path d="M 313 2009 
L 1997 2009 
L 1997 1497 
L 313 1497 
L 313 2009 
z
" id="DejaVuSans-2d" transform="scale(0.015625)"/>
      </defs>
      <use xlink:href="#DejaVuSans-74"/>
      <use x="39.208984" xlink:href="#DejaVuSans-69"/>
      <use x="66.992188" xlink:href="#DejaVuSans-6d"/>
      <use x="164.404297" xlink:href="#DejaVuSans-65"/>
      <use x="225.927734" xlink:href="#DejaVuSans-64"/>
      <use x="289.404297" xlink:href="#DejaVuSans-2d"/>
      <use x="325.488281" xlink:href="#DejaVuSans-68"/>
      <use x="388.867188" xlink:href="#DejaVuSans-69"/>
      <use x="416.650391" xlink:href="#DejaVuSans-67"/>
      <use x="480.126953" xlink:href="#DejaVuSans-68"/>
     </g>
    </g>
   </g>
  </g>
 </g>
 <defs>
  <clipPath id="pbc26cedd74">
   <rect height="266.112" width="357.12" x="57.6" y="41.472"/>
  </clipPath>
 </defs>
</svg>
