<?xml version="1.0" encoding="utf-8" standalone="no"?>
<!DOCTYPE svg PUBLIC "-//W3C//DTD SVG 1.1//EN"
  "http://www.w3.org/Graphics/SVG/1.1/DTD/svg11.dtd">
<svg height="345.6pt" version="1.1" viewBox="0 0 460.8 345.6" width="460.8pt" xmlns="http://www.w3.org/2000/svg" xmlns:xlink="http://www.w3.org/1999/xlink">
 <metadata>
  <rdf:RDF xmlns:cc="http://creativecommons.org/ns#" xmlns:dc="http://purl.org/dc/elements/1.1/" xmlns:rdf="http://www.w3.org/1999/02/22-rdf-syntax-ns#">
   <cc:Work>
    <dc:type rdf:resource="http://purl.org/dc/dcmitype/StillImage"/>
    <dc:date>2021-09-22T14:17:27.637774</dc:date>
    <dc:format>image/svg+xml</dc:format>
    <dc:creator>
     <cc:Agent>
      <dc:title>Matplotlib v3.4.1, https://matplotlib.org/</dc:title>
     </cc:Agent>
    </dc:creator>
   </cc:Work>
  </rdf:RDF>
 </metadata>
 <defs>
  <style type="text/css">*{stroke-linecap:butt;stroke-linejoin:round;}</style>
 </defs>
 <g id="figure_1">
  <g id="patch_1">
   <path d="M 0 345.6 
L 460.8 345.6 
L 460.8 0 
L 0 0 
z
" style="fill:#ffffff;"/>
  </g>
  <g id="axes_1">
   <g id="patch_2">
    <path d="M 57.6 307.584 
L 414.72 307.584 
L 414.72 41.472 
L 57.6 41.472 
z
" style="fill:#ffffff;"/>
   </g>
   <g id="patch_3">
    <path clip-path="url(#pb2d13346aa)" d="M 73.832727 307.584 
L 77.079273 307.584 
L 77.079273 305.83009 
L 73.832727 305.83009 
z
" style="fill:#ff0000;opacity:0.2;"/>
   </g>
   <g id="patch_4">
    <path clip-path="url(#pb2d13346aa)" d="M 77.079273 307.584 
L 80.325818 307.584 
L 80.325818 305.83009 
L 77.079273 305.83009 
z
" style="fill:#ff0000;opacity:0.2;"/>
   </g>
   <g id="patch_5">
    <path clip-path="url(#pb2d13346aa)" d="M 80.325818 307.584 
L 83.572364 307.584 
L 83.572364 305.83009 
L 80.325818 305.83009 
z
" style="fill:#ff0000;opacity:0.2;"/>
   </g>
   <g id="patch_6">
    <path clip-path="url(#pb2d13346aa)" d="M 83.572364 307.584 
L 86.818909 307.584 
L 86.818909 305.83009 
L 83.572364 305.83009 
z
" style="fill:#ff0000;opacity:0.2;"/>
   </g>
   <g id="patch_7">
    <path clip-path="url(#pb2d13346aa)" d="M 86.818909 307.584 
L 90.065455 307.584 
L 90.065455 299.691405 
L 86.818909 299.691405 
z
" style="fill:#ff0000;opacity:0.2;"/>
   </g>
   <g id="patch_8">
    <path clip-path="url(#pb2d13346aa)" d="M 90.065455 307.584 
L 93.312 307.584 
L 93.312 296.183585 
L 90.065455 296.183585 
z
" style="fill:#ff0000;opacity:0.2;"/>
   </g>
   <g id="patch_9">
    <path clip-path="url(#pb2d13346aa)" d="M 93.312 307.584 
L 96.558545 307.584 
L 96.558545 291.79881 
L 93.312 291.79881 
z
" style="fill:#ff0000;opacity:0.2;"/>
   </g>
   <g id="patch_10">
    <path clip-path="url(#pb2d13346aa)" d="M 96.558545 307.584 
L 99.805091 307.584 
L 99.805091 277.767529 
L 96.558545 277.767529 
z
" style="fill:#ff0000;opacity:0.2;"/>
   </g>
   <g id="patch_11">
    <path clip-path="url(#pb2d13346aa)" d="M 99.805091 307.584 
L 103.051636 307.584 
L 103.051636 285.660125 
L 99.805091 285.660125 
z
" style="fill:#ff0000;opacity:0.2;"/>
   </g>
   <g id="patch_12">
    <path clip-path="url(#pb2d13346aa)" d="M 103.051636 307.584 
L 106.298182 307.584 
L 106.298182 281.275349 
L 103.051636 281.275349 
z
" style="fill:#ff0000;opacity:0.2;"/>
   </g>
   <g id="patch_13">
    <path clip-path="url(#pb2d13346aa)" d="M 106.298182 307.584 
L 109.544727 307.584 
L 109.544727 282.152304 
L 106.298182 282.152304 
z
" style="fill:#ff0000;opacity:0.2;"/>
   </g>
   <g id="patch_14">
    <path clip-path="url(#pb2d13346aa)" d="M 109.544727 307.584 
L 112.791273 307.584 
L 112.791273 261.105384 
L 109.544727 261.105384 
z
" style="fill:#ff0000;opacity:0.2;"/>
   </g>
   <g id="patch_15">
    <path clip-path="url(#pb2d13346aa)" d="M 112.791273 307.584 
L 116.037818 307.584 
L 116.037818 255.843654 
L 112.791273 255.843654 
z
" style="fill:#ff0000;opacity:0.2;"/>
   </g>
   <g id="patch_16">
    <path clip-path="url(#pb2d13346aa)" d="M 116.037818 307.584 
L 119.284364 307.584 
L 119.284364 267.244069 
L 116.037818 267.244069 
z
" style="fill:#ff0000;opacity:0.2;"/>
   </g>
   <g id="patch_17">
    <path clip-path="url(#pb2d13346aa)" d="M 119.284364 307.584 
L 122.530909 307.584 
L 122.530909 272.505799 
L 119.284364 272.505799 
z
" style="fill:#ff0000;opacity:0.2;"/>
   </g>
   <g id="patch_18">
    <path clip-path="url(#pb2d13346aa)" d="M 122.530909 307.584 
L 125.777455 307.584 
L 125.777455 267.244069 
L 122.530909 267.244069 
z
" style="fill:#ff0000;opacity:0.2;"/>
   </g>
   <g id="patch_19">
    <path clip-path="url(#pb2d13346aa)" d="M 125.777455 307.584 
L 129.024 307.584 
L 129.024 254.966699 
L 125.777455 254.966699 
z
" style="fill:#ff0000;opacity:0.2;"/>
   </g>
   <g id="patch_20">
    <path clip-path="url(#pb2d13346aa)" d="M 129.024 307.584 
L 132.270545 307.584 
L 132.270545 267.244069 
L 129.024 267.244069 
z
" style="fill:#ff0000;opacity:0.2;"/>
   </g>
   <g id="patch_21">
    <path clip-path="url(#pb2d13346aa)" d="M 132.270545 307.584 
L 135.517091 307.584 
L 135.517091 257.597564 
L 132.270545 257.597564 
z
" style="fill:#ff0000;opacity:0.2;"/>
   </g>
   <g id="patch_22">
    <path clip-path="url(#pb2d13346aa)" d="M 135.517091 307.584 
L 138.763636 307.584 
L 138.763636 268.121024 
L 135.517091 268.121024 
z
" style="fill:#ff0000;opacity:0.2;"/>
   </g>
   <g id="patch_23">
    <path clip-path="url(#pb2d13346aa)" d="M 138.763636 307.584 
L 142.010182 307.584 
L 142.010182 257.597564 
L 138.763636 257.597564 
z
" style="fill:#ff0000;opacity:0.2;"/>
   </g>
   <g id="patch_24">
    <path clip-path="url(#pb2d13346aa)" d="M 142.010182 307.584 
L 145.256727 307.584 
L 145.256727 254.966699 
L 142.010182 254.966699 
z
" style="fill:#ff0000;opacity:0.2;"/>
   </g>
   <g id="patch_25">
    <path clip-path="url(#pb2d13346aa)" d="M 145.256727 307.584 
L 148.503273 307.584 
L 148.503273 254.089744 
L 145.256727 254.089744 
z
" style="fill:#ff0000;opacity:0.2;"/>
   </g>
   <g id="patch_26">
    <path clip-path="url(#pb2d13346aa)" d="M 148.503273 307.584 
L 151.749818 307.584 
L 151.749818 247.951059 
L 148.503273 247.951059 
z
" style="fill:#ff0000;opacity:0.2;"/>
   </g>
   <g id="patch_27">
    <path clip-path="url(#pb2d13346aa)" d="M 151.749818 307.584 
L 154.996364 307.584 
L 154.996364 236.550644 
L 151.749818 236.550644 
z
" style="fill:#ff0000;opacity:0.2;"/>
   </g>
   <g id="patch_28">
    <path clip-path="url(#pb2d13346aa)" d="M 154.996364 307.584 
L 158.242909 307.584 
L 158.242909 231.288913 
L 154.996364 231.288913 
z
" style="fill:#ff0000;opacity:0.2;"/>
   </g>
   <g id="patch_29">
    <path clip-path="url(#pb2d13346aa)" d="M 158.242909 307.584 
L 161.489455 307.584 
L 161.489455 240.058464 
L 158.242909 240.058464 
z
" style="fill:#ff0000;opacity:0.2;"/>
   </g>
   <g id="patch_30">
    <path clip-path="url(#pb2d13346aa)" d="M 161.489455 307.584 
L 164.736 307.584 
L 164.736 209.365038 
L 161.489455 209.365038 
z
" style="fill:#ff0000;opacity:0.2;"/>
   </g>
   <g id="patch_31">
    <path clip-path="url(#pb2d13346aa)" d="M 164.736 307.584 
L 167.982545 307.584 
L 167.982545 229.535003 
L 164.736 229.535003 
z
" style="fill:#ff0000;opacity:0.2;"/>
   </g>
   <g id="patch_32">
    <path clip-path="url(#pb2d13346aa)" d="M 167.982545 307.584 
L 171.229091 307.584 
L 171.229091 218.134588 
L 167.982545 218.134588 
z
" style="fill:#ff0000;opacity:0.2;"/>
   </g>
   <g id="patch_33">
    <path clip-path="url(#pb2d13346aa)" d="M 171.229091 307.584 
L 174.475636 307.584 
L 174.475636 219.011543 
L 171.229091 219.011543 
z
" style="fill:#ff0000;opacity:0.2;"/>
   </g>
   <g id="patch_34">
    <path clip-path="url(#pb2d13346aa)" d="M 174.475636 307.584 
L 177.722182 307.584 
L 177.722182 205.857218 
L 174.475636 205.857218 
z
" style="fill:#ff0000;opacity:0.2;"/>
   </g>
   <g id="patch_35">
    <path clip-path="url(#pb2d13346aa)" d="M 177.722182 307.584 
L 180.968727 307.584 
L 180.968727 202.349398 
L 177.722182 202.349398 
z
" style="fill:#ff0000;opacity:0.2;"/>
   </g>
   <g id="patch_36">
    <path clip-path="url(#pb2d13346aa)" d="M 180.968727 307.584 
L 184.215273 307.584 
L 184.215273 194.456803 
L 180.968727 194.456803 
z
" style="fill:#ff0000;opacity:0.2;"/>
   </g>
   <g id="patch_37">
    <path clip-path="url(#pb2d13346aa)" d="M 184.215273 307.584 
L 187.461818 307.584 
L 187.461818 208.488083 
L 184.215273 208.488083 
z
" style="fill:#ff0000;opacity:0.2;"/>
   </g>
   <g id="patch_38">
    <path clip-path="url(#pb2d13346aa)" d="M 187.461818 307.584 
L 190.708364 307.584 
L 190.708364 201.472443 
L 187.461818 201.472443 
z
" style="fill:#ff0000;opacity:0.2;"/>
   </g>
   <g id="patch_39">
    <path clip-path="url(#pb2d13346aa)" d="M 190.708364 307.584 
L 193.954909 307.584 
L 193.954909 182.179433 
L 190.708364 182.179433 
z
" style="fill:#ff0000;opacity:0.2;"/>
   </g>
   <g id="patch_40">
    <path clip-path="url(#pb2d13346aa)" d="M 193.954909 307.584 
L 197.201455 307.584 
L 197.201455 207.611128 
L 193.954909 207.611128 
z
" style="fill:#ff0000;opacity:0.2;"/>
   </g>
   <g id="patch_41">
    <path clip-path="url(#pb2d13346aa)" d="M 197.201455 307.584 
L 200.448 307.584 
L 200.448 198.841578 
L 197.201455 198.841578 
z
" style="fill:#ff0000;opacity:0.2;"/>
   </g>
   <g id="patch_42">
    <path clip-path="url(#pb2d13346aa)" d="M 200.448 307.584 
L 203.694545 307.584 
L 203.694545 179.548567 
L 200.448 179.548567 
z
" style="fill:#ff0000;opacity:0.2;"/>
   </g>
   <g id="patch_43">
    <path clip-path="url(#pb2d13346aa)" d="M 203.694545 307.584 
L 206.941091 307.584 
L 206.941091 171.655972 
L 203.694545 171.655972 
z
" style="fill:#ff0000;opacity:0.2;"/>
   </g>
   <g id="patch_44">
    <path clip-path="url(#pb2d13346aa)" d="M 206.941091 307.584 
L 210.187636 307.584 
L 210.187636 187.441163 
L 206.941091 187.441163 
z
" style="fill:#ff0000;opacity:0.2;"/>
   </g>
   <g id="patch_45">
    <path clip-path="url(#pb2d13346aa)" d="M 210.187636 307.584 
L 213.434182 307.584 
L 213.434182 183.933343 
L 210.187636 183.933343 
z
" style="fill:#ff0000;opacity:0.2;"/>
   </g>
   <g id="patch_46">
    <path clip-path="url(#pb2d13346aa)" d="M 213.434182 307.584 
L 216.680727 307.584 
L 216.680727 173.409882 
L 213.434182 173.409882 
z
" style="fill:#ff0000;opacity:0.2;"/>
   </g>
   <g id="patch_47">
    <path clip-path="url(#pb2d13346aa)" d="M 216.680727 307.584 
L 219.927273 307.584 
L 219.927273 167.271197 
L 216.680727 167.271197 
z
" style="fill:#ff0000;opacity:0.2;"/>
   </g>
   <g id="patch_48">
    <path clip-path="url(#pb2d13346aa)" d="M 219.927273 307.584 
L 223.173818 307.584 
L 223.173818 165.517287 
L 219.927273 165.517287 
z
" style="fill:#ff0000;opacity:0.2;"/>
   </g>
   <g id="patch_49">
    <path clip-path="url(#pb2d13346aa)" d="M 223.173818 307.584 
L 226.420364 307.584 
L 226.420364 165.517287 
L 223.173818 165.517287 
z
" style="fill:#ff0000;opacity:0.2;"/>
   </g>
   <g id="patch_50">
    <path clip-path="url(#pb2d13346aa)" d="M 226.420364 307.584 
L 229.666909 307.584 
L 229.666909 137.454727 
L 226.420364 137.454727 
z
" style="fill:#ff0000;opacity:0.2;"/>
   </g>
   <g id="patch_51">
    <path clip-path="url(#pb2d13346aa)" d="M 229.666909 307.584 
L 232.913455 307.584 
L 232.913455 134.823862 
L 229.666909 134.823862 
z
" style="fill:#ff0000;opacity:0.2;"/>
   </g>
   <g id="patch_52">
    <path clip-path="url(#pb2d13346aa)" d="M 232.913455 307.584 
L 236.16 307.584 
L 236.16 119.915626 
L 232.913455 119.915626 
z
" style="fill:#ff0000;opacity:0.2;"/>
   </g>
   <g id="patch_53">
    <path clip-path="url(#pb2d13346aa)" d="M 236.16 307.584 
L 239.406545 307.584 
L 239.406545 119.915626 
L 236.16 119.915626 
z
" style="fill:#ff0000;opacity:0.2;"/>
   </g>
   <g id="patch_54">
    <path clip-path="url(#pb2d13346aa)" d="M 239.406545 307.584 
L 242.653091 307.584 
L 242.653091 97.991751 
L 239.406545 97.991751 
z
" style="fill:#ff0000;opacity:0.2;"/>
   </g>
   <g id="patch_55">
    <path clip-path="url(#pb2d13346aa)" d="M 242.653091 307.584 
L 245.899636 307.584 
L 245.899636 95.360886 
L 242.653091 95.360886 
z
" style="fill:#ff0000;opacity:0.2;"/>
   </g>
   <g id="patch_56">
    <path clip-path="url(#pb2d13346aa)" d="M 245.899636 307.584 
L 249.146182 307.584 
L 249.146182 76.067875 
L 245.899636 76.067875 
z
" style="fill:#ff0000;opacity:0.2;"/>
   </g>
   <g id="patch_57">
    <path clip-path="url(#pb2d13346aa)" d="M 249.146182 307.584 
L 252.392727 307.584 
L 252.392727 63.790505 
L 249.146182 63.790505 
z
" style="fill:#ff0000;opacity:0.2;"/>
   </g>
   <g id="patch_58">
    <path clip-path="url(#pb2d13346aa)" d="M 252.392727 307.584 
L 255.639273 307.584 
L 255.639273 55.020955 
L 252.392727 55.020955 
z
" style="fill:#ff0000;opacity:0.2;"/>
   </g>
   <g id="patch_59">
    <path clip-path="url(#pb2d13346aa)" d="M 255.639273 307.584 
L 258.885818 307.584 
L 258.885818 55.020955 
L 255.639273 55.020955 
z
" style="fill:#ff0000;opacity:0.2;"/>
   </g>
   <g id="patch_60">
    <path clip-path="url(#pb2d13346aa)" d="M 258.885818 307.584 
L 262.132364 307.584 
L 262.132364 73.43701 
L 258.885818 73.43701 
z
" style="fill:#ff0000;opacity:0.2;"/>
   </g>
   <g id="patch_61">
    <path clip-path="url(#pb2d13346aa)" d="M 262.132364 307.584 
L 265.378909 307.584 
L 265.378909 76.067875 
L 262.132364 76.067875 
z
" style="fill:#ff0000;opacity:0.2;"/>
   </g>
   <g id="patch_62">
    <path clip-path="url(#pb2d13346aa)" d="M 265.378909 307.584 
L 268.625455 307.584 
L 268.625455 60.282685 
L 265.378909 60.282685 
z
" style="fill:#ff0000;opacity:0.2;"/>
   </g>
   <g id="patch_63">
    <path clip-path="url(#pb2d13346aa)" d="M 268.625455 307.584 
L 271.872 307.584 
L 271.872 74.313965 
L 268.625455 74.313965 
z
" style="fill:#ff0000;opacity:0.2;"/>
   </g>
   <g id="patch_64">
    <path clip-path="url(#pb2d13346aa)" d="M 271.872 307.584 
L 275.118545 307.584 
L 275.118545 55.020955 
L 271.872 55.020955 
z
" style="fill:#ff0000;opacity:0.2;"/>
   </g>
   <g id="patch_65">
    <path clip-path="url(#pb2d13346aa)" d="M 275.118545 307.584 
L 278.365091 307.584 
L 278.365091 86.591336 
L 275.118545 86.591336 
z
" style="fill:#ff0000;opacity:0.2;"/>
   </g>
   <g id="patch_66">
    <path clip-path="url(#pb2d13346aa)" d="M 278.365091 307.584 
L 281.611636 307.584 
L 281.611636 54.144 
L 278.365091 54.144 
z
" style="fill:#ff0000;opacity:0.2;"/>
   </g>
   <g id="patch_67">
    <path clip-path="url(#pb2d13346aa)" d="M 281.611636 307.584 
L 284.858182 307.584 
L 284.858182 76.94483 
L 281.611636 76.94483 
z
" style="fill:#ff0000;opacity:0.2;"/>
   </g>
   <g id="patch_68">
    <path clip-path="url(#pb2d13346aa)" d="M 284.858182 307.584 
L 288.104727 307.584 
L 288.104727 76.067875 
L 284.858182 76.067875 
z
" style="fill:#ff0000;opacity:0.2;"/>
   </g>
   <g id="patch_69">
    <path clip-path="url(#pb2d13346aa)" d="M 288.104727 307.584 
L 291.351273 307.584 
L 291.351273 78.69874 
L 288.104727 78.69874 
z
" style="fill:#ff0000;opacity:0.2;"/>
   </g>
   <g id="patch_70">
    <path clip-path="url(#pb2d13346aa)" d="M 291.351273 307.584 
L 294.597818 307.584 
L 294.597818 111.146076 
L 291.351273 111.146076 
z
" style="fill:#ff0000;opacity:0.2;"/>
   </g>
   <g id="patch_71">
    <path clip-path="url(#pb2d13346aa)" d="M 294.597818 307.584 
L 297.844364 307.584 
L 297.844364 103.253481 
L 294.597818 103.253481 
z
" style="fill:#ff0000;opacity:0.2;"/>
   </g>
   <g id="patch_72">
    <path clip-path="url(#pb2d13346aa)" d="M 297.844364 307.584 
L 301.090909 307.584 
L 301.090909 128.685176 
L 297.844364 128.685176 
z
" style="fill:#ff0000;opacity:0.2;"/>
   </g>
   <g id="patch_73">
    <path clip-path="url(#pb2d13346aa)" d="M 301.090909 307.584 
L 304.337455 307.584 
L 304.337455 166.394242 
L 301.090909 166.394242 
z
" style="fill:#ff0000;opacity:0.2;"/>
   </g>
   <g id="patch_74">
    <path clip-path="url(#pb2d13346aa)" d="M 304.337455 307.584 
L 307.584 307.584 
L 307.584 199.718533 
L 304.337455 199.718533 
z
" style="fill:#ff0000;opacity:0.2;"/>
   </g>
   <g id="patch_75">
    <path clip-path="url(#pb2d13346aa)" d="M 307.584 307.584 
L 310.830545 307.584 
L 310.830545 192.702893 
L 307.584 192.702893 
z
" style="fill:#ff0000;opacity:0.2;"/>
   </g>
   <g id="patch_76">
    <path clip-path="url(#pb2d13346aa)" d="M 310.830545 307.584 
L 314.077091 307.584 
L 314.077091 205.857218 
L 310.830545 205.857218 
z
" style="fill:#ff0000;opacity:0.2;"/>
   </g>
   <g id="patch_77">
    <path clip-path="url(#pb2d13346aa)" d="M 314.077091 307.584 
L 317.323636 307.584 
L 317.323636 237.427599 
L 314.077091 237.427599 
z
" style="fill:#ff0000;opacity:0.2;"/>
   </g>
   <g id="patch_78">
    <path clip-path="url(#pb2d13346aa)" d="M 317.323636 307.584 
L 320.570182 307.584 
L 320.570182 250.581924 
L 317.323636 250.581924 
z
" style="fill:#ff0000;opacity:0.2;"/>
   </g>
   <g id="patch_79">
    <path clip-path="url(#pb2d13346aa)" d="M 320.570182 307.584 
L 323.816727 307.584 
L 323.816727 261.982339 
L 320.570182 261.982339 
z
" style="fill:#ff0000;opacity:0.2;"/>
   </g>
   <g id="patch_80">
    <path clip-path="url(#pb2d13346aa)" d="M 323.816727 307.584 
L 327.063273 307.584 
L 327.063273 276.013619 
L 323.816727 276.013619 
z
" style="fill:#ff0000;opacity:0.2;"/>
   </g>
   <g id="patch_81">
    <path clip-path="url(#pb2d13346aa)" d="M 327.063273 307.584 
L 330.309818 307.584 
L 330.309818 275.136664 
L 327.063273 275.136664 
z
" style="fill:#ff0000;opacity:0.2;"/>
   </g>
   <g id="patch_82">
    <path clip-path="url(#pb2d13346aa)" d="M 330.309818 307.584 
L 333.556364 307.584 
L 333.556364 281.275349 
L 330.309818 281.275349 
z
" style="fill:#ff0000;opacity:0.2;"/>
   </g>
   <g id="patch_83">
    <path clip-path="url(#pb2d13346aa)" d="M 333.556364 307.584 
L 336.802909 307.584 
L 336.802909 290.921855 
L 333.556364 290.921855 
z
" style="fill:#ff0000;opacity:0.2;"/>
   </g>
   <g id="patch_84">
    <path clip-path="url(#pb2d13346aa)" d="M 336.802909 307.584 
L 340.049455 307.584 
L 340.049455 297.06054 
L 336.802909 297.06054 
z
" style="fill:#ff0000;opacity:0.2;"/>
   </g>
   <g id="patch_85">
    <path clip-path="url(#pb2d13346aa)" d="M 340.049455 307.584 
L 343.296 307.584 
L 343.296 292.675765 
L 340.049455 292.675765 
z
" style="fill:#ff0000;opacity:0.2;"/>
   </g>
   <g id="patch_86">
    <path clip-path="url(#pb2d13346aa)" d="M 343.296 307.584 
L 346.542545 307.584 
L 346.542545 301.445315 
L 343.296 301.445315 
z
" style="fill:#ff0000;opacity:0.2;"/>
   </g>
   <g id="patch_87">
    <path clip-path="url(#pb2d13346aa)" d="M 346.542545 307.584 
L 349.789091 307.584 
L 349.789091 305.83009 
L 346.542545 305.83009 
z
" style="fill:#ff0000;opacity:0.2;"/>
   </g>
   <g id="patch_88">
    <path clip-path="url(#pb2d13346aa)" d="M 349.789091 307.584 
L 353.035636 307.584 
L 353.035636 304.07618 
L 349.789091 304.07618 
z
" style="fill:#ff0000;opacity:0.2;"/>
   </g>
   <g id="patch_89">
    <path clip-path="url(#pb2d13346aa)" d="M 353.035636 307.584 
L 356.282182 307.584 
L 356.282182 305.83009 
L 353.035636 305.83009 
z
" style="fill:#ff0000;opacity:0.2;"/>
   </g>
   <g id="patch_90">
    <path clip-path="url(#pb2d13346aa)" d="M 356.282182 307.584 
L 359.528727 307.584 
L 359.528727 305.83009 
L 356.282182 305.83009 
z
" style="fill:#ff0000;opacity:0.2;"/>
   </g>
   <g id="patch_91">
    <path clip-path="url(#pb2d13346aa)" d="M 359.528727 307.584 
L 362.775273 307.584 
L 362.775273 304.07618 
L 359.528727 304.07618 
z
" style="fill:#ff0000;opacity:0.2;"/>
   </g>
   <g id="patch_92">
    <path clip-path="url(#pb2d13346aa)" d="M 362.775273 307.584 
L 366.021818 307.584 
L 366.021818 304.953135 
L 362.775273 304.953135 
z
" style="fill:#ff0000;opacity:0.2;"/>
   </g>
   <g id="patch_93">
    <path clip-path="url(#pb2d13346aa)" d="M 366.021818 307.584 
L 369.268364 307.584 
L 369.268364 304.953135 
L 366.021818 304.953135 
z
" style="fill:#ff0000;opacity:0.2;"/>
   </g>
   <g id="patch_94">
    <path clip-path="url(#pb2d13346aa)" d="M 369.268364 307.584 
L 372.514909 307.584 
L 372.514909 306.707045 
L 369.268364 306.707045 
z
" style="fill:#ff0000;opacity:0.2;"/>
   </g>
   <g id="patch_95">
    <path clip-path="url(#pb2d13346aa)" d="M 372.514909 307.584 
L 375.761455 307.584 
L 375.761455 306.707045 
L 372.514909 306.707045 
z
" style="fill:#ff0000;opacity:0.2;"/>
   </g>
   <g id="patch_96">
    <path clip-path="url(#pb2d13346aa)" d="M 375.761455 307.584 
L 379.008 307.584 
L 379.008 306.707045 
L 375.761455 306.707045 
z
" style="fill:#ff0000;opacity:0.2;"/>
   </g>
   <g id="patch_97">
    <path clip-path="url(#pb2d13346aa)" d="M 379.008 307.584 
L 382.254545 307.584 
L 382.254545 306.707045 
L 379.008 306.707045 
z
" style="fill:#ff0000;opacity:0.2;"/>
   </g>
   <g id="patch_98">
    <path clip-path="url(#pb2d13346aa)" d="M 382.254545 307.584 
L 385.501091 307.584 
L 385.501091 306.707045 
L 382.254545 306.707045 
z
" style="fill:#ff0000;opacity:0.2;"/>
   </g>
   <g id="patch_99">
    <path clip-path="url(#pb2d13346aa)" d="M 385.501091 307.584 
L 388.747636 307.584 
L 388.747636 307.584 
L 385.501091 307.584 
z
" style="fill:#ff0000;opacity:0.2;"/>
   </g>
   <g id="patch_100">
    <path clip-path="url(#pb2d13346aa)" d="M 388.747636 307.584 
L 391.994182 307.584 
L 391.994182 306.707045 
L 388.747636 306.707045 
z
" style="fill:#ff0000;opacity:0.2;"/>
   </g>
   <g id="patch_101">
    <path clip-path="url(#pb2d13346aa)" d="M 391.994182 307.584 
L 395.240727 307.584 
L 395.240727 306.707045 
L 391.994182 306.707045 
z
" style="fill:#ff0000;opacity:0.2;"/>
   </g>
   <g id="patch_102">
    <path clip-path="url(#pb2d13346aa)" d="M 395.240727 307.584 
L 398.487273 307.584 
L 398.487273 306.707045 
L 395.240727 306.707045 
z
" style="fill:#ff0000;opacity:0.2;"/>
   </g>
   <g id="patch_103">
    <path clip-path="url(#pb2d13346aa)" d="M 120.672999 307.584 
L 123.08741 307.584 
L 123.08741 304.07618 
L 120.672999 304.07618 
z
" style="fill:#0000ff;opacity:0.3;"/>
   </g>
   <g id="patch_104">
    <path clip-path="url(#pb2d13346aa)" d="M 123.08741 307.584 
L 125.501821 307.584 
L 125.501821 307.584 
L 123.08741 307.584 
z
" style="fill:#0000ff;opacity:0.3;"/>
   </g>
   <g id="patch_105">
    <path clip-path="url(#pb2d13346aa)" d="M 125.501821 307.584 
L 127.916232 307.584 
L 127.916232 304.953135 
L 125.501821 304.953135 
z
" style="fill:#0000ff;opacity:0.3;"/>
   </g>
   <g id="patch_106">
    <path clip-path="url(#pb2d13346aa)" d="M 127.916232 307.584 
L 130.330643 307.584 
L 130.330643 304.953135 
L 127.916232 304.953135 
z
" style="fill:#0000ff;opacity:0.3;"/>
   </g>
   <g id="patch_107">
    <path clip-path="url(#pb2d13346aa)" d="M 130.330643 307.584 
L 132.745054 307.584 
L 132.745054 304.07618 
L 130.330643 304.07618 
z
" style="fill:#0000ff;opacity:0.3;"/>
   </g>
   <g id="patch_108">
    <path clip-path="url(#pb2d13346aa)" d="M 132.745054 307.584 
L 135.159465 307.584 
L 135.159465 303.199225 
L 132.745054 303.199225 
z
" style="fill:#0000ff;opacity:0.3;"/>
   </g>
   <g id="patch_109">
    <path clip-path="url(#pb2d13346aa)" d="M 135.159465 307.584 
L 137.573876 307.584 
L 137.573876 300.56836 
L 135.159465 300.56836 
z
" style="fill:#0000ff;opacity:0.3;"/>
   </g>
   <g id="patch_110">
    <path clip-path="url(#pb2d13346aa)" d="M 137.573876 307.584 
L 139.988287 307.584 
L 139.988287 300.56836 
L 137.573876 300.56836 
z
" style="fill:#0000ff;opacity:0.3;"/>
   </g>
   <g id="patch_111">
    <path clip-path="url(#pb2d13346aa)" d="M 139.988287 307.584 
L 142.402698 307.584 
L 142.402698 298.81445 
L 139.988287 298.81445 
z
" style="fill:#0000ff;opacity:0.3;"/>
   </g>
   <g id="patch_112">
    <path clip-path="url(#pb2d13346aa)" d="M 142.402698 307.584 
L 144.817109 307.584 
L 144.817109 300.56836 
L 142.402698 300.56836 
z
" style="fill:#0000ff;opacity:0.3;"/>
   </g>
   <g id="patch_113">
    <path clip-path="url(#pb2d13346aa)" d="M 144.817109 307.584 
L 147.23152 307.584 
L 147.23152 299.691405 
L 144.817109 299.691405 
z
" style="fill:#0000ff;opacity:0.3;"/>
   </g>
   <g id="patch_114">
    <path clip-path="url(#pb2d13346aa)" d="M 147.23152 307.584 
L 149.645931 307.584 
L 149.645931 302.32227 
L 147.23152 302.32227 
z
" style="fill:#0000ff;opacity:0.3;"/>
   </g>
   <g id="patch_115">
    <path clip-path="url(#pb2d13346aa)" d="M 149.645931 307.584 
L 152.060342 307.584 
L 152.060342 304.953135 
L 149.645931 304.953135 
z
" style="fill:#0000ff;opacity:0.3;"/>
   </g>
   <g id="patch_116">
    <path clip-path="url(#pb2d13346aa)" d="M 152.060342 307.584 
L 154.474753 307.584 
L 154.474753 305.83009 
L 152.060342 305.83009 
z
" style="fill:#0000ff;opacity:0.3;"/>
   </g>
   <g id="patch_117">
    <path clip-path="url(#pb2d13346aa)" d="M 154.474753 307.584 
L 156.889164 307.584 
L 156.889164 305.83009 
L 154.474753 305.83009 
z
" style="fill:#0000ff;opacity:0.3;"/>
   </g>
   <g id="patch_118">
    <path clip-path="url(#pb2d13346aa)" d="M 156.889164 307.584 
L 159.303575 307.584 
L 159.303575 307.584 
L 156.889164 307.584 
z
" style="fill:#0000ff;opacity:0.3;"/>
   </g>
   <g id="patch_119">
    <path clip-path="url(#pb2d13346aa)" d="M 159.303575 307.584 
L 161.717986 307.584 
L 161.717986 307.584 
L 159.303575 307.584 
z
" style="fill:#0000ff;opacity:0.3;"/>
   </g>
   <g id="patch_120">
    <path clip-path="url(#pb2d13346aa)" d="M 161.717986 307.584 
L 164.132397 307.584 
L 164.132397 307.584 
L 161.717986 307.584 
z
" style="fill:#0000ff;opacity:0.3;"/>
   </g>
   <g id="patch_121">
    <path clip-path="url(#pb2d13346aa)" d="M 164.132397 307.584 
L 166.546808 307.584 
L 166.546808 307.584 
L 164.132397 307.584 
z
" style="fill:#0000ff;opacity:0.3;"/>
   </g>
   <g id="patch_122">
    <path clip-path="url(#pb2d13346aa)" d="M 166.546808 307.584 
L 168.961219 307.584 
L 168.961219 307.584 
L 166.546808 307.584 
z
" style="fill:#0000ff;opacity:0.3;"/>
   </g>
   <g id="patch_123">
    <path clip-path="url(#pb2d13346aa)" d="M 168.961219 307.584 
L 171.37563 307.584 
L 171.37563 305.83009 
L 168.961219 305.83009 
z
" style="fill:#0000ff;opacity:0.3;"/>
   </g>
   <g id="patch_124">
    <path clip-path="url(#pb2d13346aa)" d="M 171.37563 307.584 
L 173.790041 307.584 
L 173.790041 307.584 
L 171.37563 307.584 
z
" style="fill:#0000ff;opacity:0.3;"/>
   </g>
   <g id="patch_125">
    <path clip-path="url(#pb2d13346aa)" d="M 173.790041 307.584 
L 176.204452 307.584 
L 176.204452 306.707045 
L 173.790041 306.707045 
z
" style="fill:#0000ff;opacity:0.3;"/>
   </g>
   <g id="patch_126">
    <path clip-path="url(#pb2d13346aa)" d="M 176.204452 307.584 
L 178.618863 307.584 
L 178.618863 304.953135 
L 176.204452 304.953135 
z
" style="fill:#0000ff;opacity:0.3;"/>
   </g>
   <g id="patch_127">
    <path clip-path="url(#pb2d13346aa)" d="M 178.618863 307.584 
L 181.033274 307.584 
L 181.033274 304.953135 
L 178.618863 304.953135 
z
" style="fill:#0000ff;opacity:0.3;"/>
   </g>
   <g id="patch_128">
    <path clip-path="url(#pb2d13346aa)" d="M 181.033274 307.584 
L 183.447685 307.584 
L 183.447685 306.707045 
L 181.033274 306.707045 
z
" style="fill:#0000ff;opacity:0.3;"/>
   </g>
   <g id="patch_129">
    <path clip-path="url(#pb2d13346aa)" d="M 183.447685 307.584 
L 185.862096 307.584 
L 185.862096 304.07618 
L 183.447685 304.07618 
z
" style="fill:#0000ff;opacity:0.3;"/>
   </g>
   <g id="patch_130">
    <path clip-path="url(#pb2d13346aa)" d="M 185.862096 307.584 
L 188.276507 307.584 
L 188.276507 304.953135 
L 185.862096 304.953135 
z
" style="fill:#0000ff;opacity:0.3;"/>
   </g>
   <g id="patch_131">
    <path clip-path="url(#pb2d13346aa)" d="M 188.276507 307.584 
L 190.690918 307.584 
L 190.690918 305.83009 
L 188.276507 305.83009 
z
" style="fill:#0000ff;opacity:0.3;"/>
   </g>
   <g id="patch_132">
    <path clip-path="url(#pb2d13346aa)" d="M 190.690918 307.584 
L 193.105329 307.584 
L 193.105329 307.584 
L 190.690918 307.584 
z
" style="fill:#0000ff;opacity:0.3;"/>
   </g>
   <g id="patch_133">
    <path clip-path="url(#pb2d13346aa)" d="M 193.105329 307.584 
L 195.519741 307.584 
L 195.519741 306.707045 
L 193.105329 306.707045 
z
" style="fill:#0000ff;opacity:0.3;"/>
   </g>
   <g id="patch_134">
    <path clip-path="url(#pb2d13346aa)" d="M 195.519741 307.584 
L 197.934152 307.584 
L 197.934152 305.83009 
L 195.519741 305.83009 
z
" style="fill:#0000ff;opacity:0.3;"/>
   </g>
   <g id="patch_135">
    <path clip-path="url(#pb2d13346aa)" d="M 197.934152 307.584 
L 200.348563 307.584 
L 200.348563 307.584 
L 197.934152 307.584 
z
" style="fill:#0000ff;opacity:0.3;"/>
   </g>
   <g id="patch_136">
    <path clip-path="url(#pb2d13346aa)" d="M 200.348563 307.584 
L 202.762974 307.584 
L 202.762974 307.584 
L 200.348563 307.584 
z
" style="fill:#0000ff;opacity:0.3;"/>
   </g>
   <g id="patch_137">
    <path clip-path="url(#pb2d13346aa)" d="M 202.762974 307.584 
L 205.177385 307.584 
L 205.177385 307.584 
L 202.762974 307.584 
z
" style="fill:#0000ff;opacity:0.3;"/>
   </g>
   <g id="patch_138">
    <path clip-path="url(#pb2d13346aa)" d="M 205.177385 307.584 
L 207.591796 307.584 
L 207.591796 305.83009 
L 205.177385 305.83009 
z
" style="fill:#0000ff;opacity:0.3;"/>
   </g>
   <g id="patch_139">
    <path clip-path="url(#pb2d13346aa)" d="M 207.591796 307.584 
L 210.006207 307.584 
L 210.006207 306.707045 
L 207.591796 306.707045 
z
" style="fill:#0000ff;opacity:0.3;"/>
   </g>
   <g id="patch_140">
    <path clip-path="url(#pb2d13346aa)" d="M 210.006207 307.584 
L 212.420618 307.584 
L 212.420618 304.953135 
L 210.006207 304.953135 
z
" style="fill:#0000ff;opacity:0.3;"/>
   </g>
   <g id="patch_141">
    <path clip-path="url(#pb2d13346aa)" d="M 212.420618 307.584 
L 214.835029 307.584 
L 214.835029 296.183585 
L 212.420618 296.183585 
z
" style="fill:#0000ff;opacity:0.3;"/>
   </g>
   <g id="patch_142">
    <path clip-path="url(#pb2d13346aa)" d="M 214.835029 307.584 
L 217.24944 307.584 
L 217.24944 295.30663 
L 214.835029 295.30663 
z
" style="fill:#0000ff;opacity:0.3;"/>
   </g>
   <g id="patch_143">
    <path clip-path="url(#pb2d13346aa)" d="M 217.24944 307.584 
L 219.663851 307.584 
L 219.663851 275.136664 
L 217.24944 275.136664 
z
" style="fill:#0000ff;opacity:0.3;"/>
   </g>
   <g id="patch_144">
    <path clip-path="url(#pb2d13346aa)" d="M 219.663851 307.584 
L 222.078262 307.584 
L 222.078262 252.335834 
L 219.663851 252.335834 
z
" style="fill:#0000ff;opacity:0.3;"/>
   </g>
   <g id="patch_145">
    <path clip-path="url(#pb2d13346aa)" d="M 222.078262 307.584 
L 224.492673 307.584 
L 224.492673 243.566284 
L 222.078262 243.566284 
z
" style="fill:#0000ff;opacity:0.3;"/>
   </g>
   <g id="patch_146">
    <path clip-path="url(#pb2d13346aa)" d="M 224.492673 307.584 
L 226.907084 307.584 
L 226.907084 221.642408 
L 224.492673 221.642408 
z
" style="fill:#0000ff;opacity:0.3;"/>
   </g>
   <g id="patch_147">
    <path clip-path="url(#pb2d13346aa)" d="M 226.907084 307.584 
L 229.321495 307.584 
L 229.321495 231.288913 
L 226.907084 231.288913 
z
" style="fill:#0000ff;opacity:0.3;"/>
   </g>
   <g id="patch_148">
    <path clip-path="url(#pb2d13346aa)" d="M 229.321495 307.584 
L 231.735906 307.584 
L 231.735906 196.210713 
L 229.321495 196.210713 
z
" style="fill:#0000ff;opacity:0.3;"/>
   </g>
   <g id="patch_149">
    <path clip-path="url(#pb2d13346aa)" d="M 231.735906 307.584 
L 234.150317 307.584 
L 234.150317 192.702893 
L 231.735906 192.702893 
z
" style="fill:#0000ff;opacity:0.3;"/>
   </g>
   <g id="patch_150">
    <path clip-path="url(#pb2d13346aa)" d="M 234.150317 307.584 
L 236.564728 307.584 
L 236.564728 161.132512 
L 234.150317 161.132512 
z
" style="fill:#0000ff;opacity:0.3;"/>
   </g>
   <g id="patch_151">
    <path clip-path="url(#pb2d13346aa)" d="M 236.564728 307.584 
L 238.979139 307.584 
L 238.979139 172.532927 
L 236.564728 172.532927 
z
" style="fill:#0000ff;opacity:0.3;"/>
   </g>
   <g id="patch_152">
    <path clip-path="url(#pb2d13346aa)" d="M 238.979139 307.584 
L 241.39355 307.584 
L 241.39355 161.132512 
L 238.979139 161.132512 
z
" style="fill:#0000ff;opacity:0.3;"/>
   </g>
   <g id="patch_153">
    <path clip-path="url(#pb2d13346aa)" d="M 241.39355 307.584 
L 243.807961 307.584 
L 243.807961 173.409882 
L 241.39355 173.409882 
z
" style="fill:#0000ff;opacity:0.3;"/>
   </g>
   <g id="patch_154">
    <path clip-path="url(#pb2d13346aa)" d="M 243.807961 307.584 
L 246.222372 307.584 
L 246.222372 163.763377 
L 243.807961 163.763377 
z
" style="fill:#0000ff;opacity:0.3;"/>
   </g>
   <g id="patch_155">
    <path clip-path="url(#pb2d13346aa)" d="M 246.222372 307.584 
L 248.636783 307.584 
L 248.636783 166.394242 
L 246.222372 166.394242 
z
" style="fill:#0000ff;opacity:0.3;"/>
   </g>
   <g id="patch_156">
    <path clip-path="url(#pb2d13346aa)" d="M 248.636783 307.584 
L 251.051194 307.584 
L 251.051194 196.210713 
L 248.636783 196.210713 
z
" style="fill:#0000ff;opacity:0.3;"/>
   </g>
   <g id="patch_157">
    <path clip-path="url(#pb2d13346aa)" d="M 251.051194 307.584 
L 253.465605 307.584 
L 253.465605 207.611128 
L 251.051194 207.611128 
z
" style="fill:#0000ff;opacity:0.3;"/>
   </g>
   <g id="patch_158">
    <path clip-path="url(#pb2d13346aa)" d="M 253.465605 307.584 
L 255.880016 307.584 
L 255.880016 220.765453 
L 253.465605 220.765453 
z
" style="fill:#0000ff;opacity:0.3;"/>
   </g>
   <g id="patch_159">
    <path clip-path="url(#pb2d13346aa)" d="M 255.880016 307.584 
L 258.294427 307.584 
L 258.294427 233.042824 
L 255.880016 233.042824 
z
" style="fill:#0000ff;opacity:0.3;"/>
   </g>
   <g id="patch_160">
    <path clip-path="url(#pb2d13346aa)" d="M 258.294427 307.584 
L 260.708838 307.584 
L 260.708838 253.212789 
L 258.294427 253.212789 
z
" style="fill:#0000ff;opacity:0.3;"/>
   </g>
   <g id="patch_161">
    <path clip-path="url(#pb2d13346aa)" d="M 260.708838 307.584 
L 263.123249 307.584 
L 263.123249 257.597564 
L 260.708838 257.597564 
z
" style="fill:#0000ff;opacity:0.3;"/>
   </g>
   <g id="patch_162">
    <path clip-path="url(#pb2d13346aa)" d="M 263.123249 307.584 
L 265.53766 307.584 
L 265.53766 253.212789 
L 263.123249 253.212789 
z
" style="fill:#0000ff;opacity:0.3;"/>
   </g>
   <g id="patch_163">
    <path clip-path="url(#pb2d13346aa)" d="M 265.53766 307.584 
L 267.952071 307.584 
L 267.952071 244.443239 
L 265.53766 244.443239 
z
" style="fill:#0000ff;opacity:0.3;"/>
   </g>
   <g id="patch_164">
    <path clip-path="url(#pb2d13346aa)" d="M 267.952071 307.584 
L 270.366482 307.584 
L 270.366482 258.474519 
L 267.952071 258.474519 
z
" style="fill:#0000ff;opacity:0.3;"/>
   </g>
   <g id="patch_165">
    <path clip-path="url(#pb2d13346aa)" d="M 270.366482 307.584 
L 272.780893 307.584 
L 272.780893 256.720609 
L 270.366482 256.720609 
z
" style="fill:#0000ff;opacity:0.3;"/>
   </g>
   <g id="patch_166">
    <path clip-path="url(#pb2d13346aa)" d="M 272.780893 307.584 
L 275.195304 307.584 
L 275.195304 257.597564 
L 272.780893 257.597564 
z
" style="fill:#0000ff;opacity:0.3;"/>
   </g>
   <g id="patch_167">
    <path clip-path="url(#pb2d13346aa)" d="M 275.195304 307.584 
L 277.609715 307.584 
L 277.609715 253.212789 
L 275.195304 253.212789 
z
" style="fill:#0000ff;opacity:0.3;"/>
   </g>
   <g id="patch_168">
    <path clip-path="url(#pb2d13346aa)" d="M 277.609715 307.584 
L 280.024126 307.584 
L 280.024126 257.597564 
L 277.609715 257.597564 
z
" style="fill:#0000ff;opacity:0.3;"/>
   </g>
   <g id="patch_169">
    <path clip-path="url(#pb2d13346aa)" d="M 280.024126 307.584 
L 282.438537 307.584 
L 282.438537 260.228429 
L 280.024126 260.228429 
z
" style="fill:#0000ff;opacity:0.3;"/>
   </g>
   <g id="patch_170">
    <path clip-path="url(#pb2d13346aa)" d="M 282.438537 307.584 
L 284.852948 307.584 
L 284.852948 264.613204 
L 282.438537 264.613204 
z
" style="fill:#0000ff;opacity:0.3;"/>
   </g>
   <g id="patch_171">
    <path clip-path="url(#pb2d13346aa)" d="M 284.852948 307.584 
L 287.267359 307.584 
L 287.267359 265.490159 
L 284.852948 265.490159 
z
" style="fill:#0000ff;opacity:0.3;"/>
   </g>
   <g id="patch_172">
    <path clip-path="url(#pb2d13346aa)" d="M 287.267359 307.584 
L 289.68177 307.584 
L 289.68177 264.613204 
L 287.267359 264.613204 
z
" style="fill:#0000ff;opacity:0.3;"/>
   </g>
   <g id="patch_173">
    <path clip-path="url(#pb2d13346aa)" d="M 289.68177 307.584 
L 292.096181 307.584 
L 292.096181 282.152304 
L 289.68177 282.152304 
z
" style="fill:#0000ff;opacity:0.3;"/>
   </g>
   <g id="patch_174">
    <path clip-path="url(#pb2d13346aa)" d="M 292.096181 307.584 
L 294.510592 307.584 
L 294.510592 289.167945 
L 292.096181 289.167945 
z
" style="fill:#0000ff;opacity:0.3;"/>
   </g>
   <g id="patch_175">
    <path clip-path="url(#pb2d13346aa)" d="M 294.510592 307.584 
L 296.925003 307.584 
L 296.925003 295.30663 
L 294.510592 295.30663 
z
" style="fill:#0000ff;opacity:0.3;"/>
   </g>
   <g id="patch_176">
    <path clip-path="url(#pb2d13346aa)" d="M 296.925003 307.584 
L 299.339414 307.584 
L 299.339414 290.0449 
L 296.925003 290.0449 
z
" style="fill:#0000ff;opacity:0.3;"/>
   </g>
   <g id="patch_177">
    <path clip-path="url(#pb2d13346aa)" d="M 299.339414 307.584 
L 301.753825 307.584 
L 301.753825 297.06054 
L 299.339414 297.06054 
z
" style="fill:#0000ff;opacity:0.3;"/>
   </g>
   <g id="patch_178">
    <path clip-path="url(#pb2d13346aa)" d="M 301.753825 307.584 
L 304.168236 307.584 
L 304.168236 290.921855 
L 301.753825 290.921855 
z
" style="fill:#0000ff;opacity:0.3;"/>
   </g>
   <g id="patch_179">
    <path clip-path="url(#pb2d13346aa)" d="M 304.168236 307.584 
L 306.582647 307.584 
L 306.582647 297.937495 
L 304.168236 297.937495 
z
" style="fill:#0000ff;opacity:0.3;"/>
   </g>
   <g id="patch_180">
    <path clip-path="url(#pb2d13346aa)" d="M 306.582647 307.584 
L 308.997058 307.584 
L 308.997058 297.937495 
L 306.582647 297.937495 
z
" style="fill:#0000ff;opacity:0.3;"/>
   </g>
   <g id="patch_181">
    <path clip-path="url(#pb2d13346aa)" d="M 308.997058 307.584 
L 311.411469 307.584 
L 311.411469 294.429675 
L 308.997058 294.429675 
z
" style="fill:#0000ff;opacity:0.3;"/>
   </g>
   <g id="patch_182">
    <path clip-path="url(#pb2d13346aa)" d="M 311.411469 307.584 
L 313.825881 307.584 
L 313.825881 292.675765 
L 311.411469 292.675765 
z
" style="fill:#0000ff;opacity:0.3;"/>
   </g>
   <g id="patch_183">
    <path clip-path="url(#pb2d13346aa)" d="M 313.825881 307.584 
L 316.240292 307.584 
L 316.240292 297.06054 
L 313.825881 297.06054 
z
" style="fill:#0000ff;opacity:0.3;"/>
   </g>
   <g id="patch_184">
    <path clip-path="url(#pb2d13346aa)" d="M 316.240292 307.584 
L 318.654703 307.584 
L 318.654703 291.79881 
L 316.240292 291.79881 
z
" style="fill:#0000ff;opacity:0.3;"/>
   </g>
   <g id="patch_185">
    <path clip-path="url(#pb2d13346aa)" d="M 318.654703 307.584 
L 321.069114 307.584 
L 321.069114 296.183585 
L 318.654703 296.183585 
z
" style="fill:#0000ff;opacity:0.3;"/>
   </g>
   <g id="patch_186">
    <path clip-path="url(#pb2d13346aa)" d="M 321.069114 307.584 
L 323.483525 307.584 
L 323.483525 295.30663 
L 321.069114 295.30663 
z
" style="fill:#0000ff;opacity:0.3;"/>
   </g>
   <g id="patch_187">
    <path clip-path="url(#pb2d13346aa)" d="M 323.483525 307.584 
L 325.897936 307.584 
L 325.897936 293.55272 
L 323.483525 293.55272 
z
" style="fill:#0000ff;opacity:0.3;"/>
   </g>
   <g id="patch_188">
    <path clip-path="url(#pb2d13346aa)" d="M 325.897936 307.584 
L 328.312347 307.584 
L 328.312347 297.06054 
L 325.897936 297.06054 
z
" style="fill:#0000ff;opacity:0.3;"/>
   </g>
   <g id="patch_189">
    <path clip-path="url(#pb2d13346aa)" d="M 328.312347 307.584 
L 330.726758 307.584 
L 330.726758 292.675765 
L 328.312347 292.675765 
z
" style="fill:#0000ff;opacity:0.3;"/>
   </g>
   <g id="patch_190">
    <path clip-path="url(#pb2d13346aa)" d="M 330.726758 307.584 
L 333.141169 307.584 
L 333.141169 294.429675 
L 330.726758 294.429675 
z
" style="fill:#0000ff;opacity:0.3;"/>
   </g>
   <g id="patch_191">
    <path clip-path="url(#pb2d13346aa)" d="M 333.141169 307.584 
L 335.55558 307.584 
L 335.55558 296.183585 
L 333.141169 296.183585 
z
" style="fill:#0000ff;opacity:0.3;"/>
   </g>
   <g id="patch_192">
    <path clip-path="url(#pb2d13346aa)" d="M 335.55558 307.584 
L 337.969991 307.584 
L 337.969991 299.691405 
L 335.55558 299.691405 
z
" style="fill:#0000ff;opacity:0.3;"/>
   </g>
   <g id="patch_193">
    <path clip-path="url(#pb2d13346aa)" d="M 337.969991 307.584 
L 340.384402 307.584 
L 340.384402 294.429675 
L 337.969991 294.429675 
z
" style="fill:#0000ff;opacity:0.3;"/>
   </g>
   <g id="patch_194">
    <path clip-path="url(#pb2d13346aa)" d="M 340.384402 307.584 
L 342.798813 307.584 
L 342.798813 305.83009 
L 340.384402 305.83009 
z
" style="fill:#0000ff;opacity:0.3;"/>
   </g>
   <g id="patch_195">
    <path clip-path="url(#pb2d13346aa)" d="M 342.798813 307.584 
L 345.213224 307.584 
L 345.213224 301.445315 
L 342.798813 301.445315 
z
" style="fill:#0000ff;opacity:0.3;"/>
   </g>
   <g id="patch_196">
    <path clip-path="url(#pb2d13346aa)" d="M 345.213224 307.584 
L 347.627635 307.584 
L 347.627635 303.199225 
L 345.213224 303.199225 
z
" style="fill:#0000ff;opacity:0.3;"/>
   </g>
   <g id="patch_197">
    <path clip-path="url(#pb2d13346aa)" d="M 347.627635 307.584 
L 350.042046 307.584 
L 350.042046 303.199225 
L 347.627635 303.199225 
z
" style="fill:#0000ff;opacity:0.3;"/>
   </g>
   <g id="patch_198">
    <path clip-path="url(#pb2d13346aa)" d="M 350.042046 307.584 
L 352.456457 307.584 
L 352.456457 305.83009 
L 350.042046 305.83009 
z
" style="fill:#0000ff;opacity:0.3;"/>
   </g>
   <g id="patch_199">
    <path clip-path="url(#pb2d13346aa)" d="M 352.456457 307.584 
L 354.870868 307.584 
L 354.870868 306.707045 
L 352.456457 306.707045 
z
" style="fill:#0000ff;opacity:0.3;"/>
   </g>
   <g id="patch_200">
    <path clip-path="url(#pb2d13346aa)" d="M 354.870868 307.584 
L 357.285279 307.584 
L 357.285279 304.953135 
L 354.870868 304.953135 
z
" style="fill:#0000ff;opacity:0.3;"/>
   </g>
   <g id="patch_201">
    <path clip-path="url(#pb2d13346aa)" d="M 357.285279 307.584 
L 359.69969 307.584 
L 359.69969 306.707045 
L 357.285279 306.707045 
z
" style="fill:#0000ff;opacity:0.3;"/>
   </g>
   <g id="patch_202">
    <path clip-path="url(#pb2d13346aa)" d="M 359.69969 307.584 
L 362.114101 307.584 
L 362.114101 305.83009 
L 359.69969 305.83009 
z
" style="fill:#0000ff;opacity:0.3;"/>
   </g>
   <g id="patch_203">
    <path clip-path="url(#pb2d13346aa)" d="M 123.202548 307.584 
L 125.724247 307.584 
L 125.724247 304.07618 
L 123.202548 304.07618 
z
" style="fill:#008000;opacity:0.2;"/>
   </g>
   <g id="patch_204">
    <path clip-path="url(#pb2d13346aa)" d="M 125.724247 307.584 
L 128.245946 307.584 
L 128.245946 307.584 
L 125.724247 307.584 
z
" style="fill:#008000;opacity:0.2;"/>
   </g>
   <g id="patch_205">
    <path clip-path="url(#pb2d13346aa)" d="M 128.245946 307.584 
L 130.767644 307.584 
L 130.767644 303.199225 
L 128.245946 303.199225 
z
" style="fill:#008000;opacity:0.2;"/>
   </g>
   <g id="patch_206">
    <path clip-path="url(#pb2d13346aa)" d="M 130.767644 307.584 
L 133.289343 307.584 
L 133.289343 294.429675 
L 130.767644 294.429675 
z
" style="fill:#008000;opacity:0.2;"/>
   </g>
   <g id="patch_207">
    <path clip-path="url(#pb2d13346aa)" d="M 133.289343 307.584 
L 135.811042 307.584 
L 135.811042 293.55272 
L 133.289343 293.55272 
z
" style="fill:#008000;opacity:0.2;"/>
   </g>
   <g id="patch_208">
    <path clip-path="url(#pb2d13346aa)" d="M 135.811042 307.584 
L 138.332741 307.584 
L 138.332741 290.0449 
L 135.811042 290.0449 
z
" style="fill:#008000;opacity:0.2;"/>
   </g>
   <g id="patch_209">
    <path clip-path="url(#pb2d13346aa)" d="M 138.332741 307.584 
L 140.85444 307.584 
L 140.85444 284.78317 
L 138.332741 284.78317 
z
" style="fill:#008000;opacity:0.2;"/>
   </g>
   <g id="patch_210">
    <path clip-path="url(#pb2d13346aa)" d="M 140.85444 307.584 
L 143.376138 307.584 
L 143.376138 276.890574 
L 140.85444 276.890574 
z
" style="fill:#008000;opacity:0.2;"/>
   </g>
   <g id="patch_211">
    <path clip-path="url(#pb2d13346aa)" d="M 143.376138 307.584 
L 145.897837 307.584 
L 145.897837 274.259709 
L 143.376138 274.259709 
z
" style="fill:#008000;opacity:0.2;"/>
   </g>
   <g id="patch_212">
    <path clip-path="url(#pb2d13346aa)" d="M 145.897837 307.584 
L 148.419536 307.584 
L 148.419536 261.105384 
L 145.897837 261.105384 
z
" style="fill:#008000;opacity:0.2;"/>
   </g>
   <g id="patch_213">
    <path clip-path="url(#pb2d13346aa)" d="M 148.419536 307.584 
L 150.941235 307.584 
L 150.941235 240.935419 
L 148.419536 240.935419 
z
" style="fill:#008000;opacity:0.2;"/>
   </g>
   <g id="patch_214">
    <path clip-path="url(#pb2d13346aa)" d="M 150.941235 307.584 
L 153.462934 307.584 
L 153.462934 230.411958 
L 150.941235 230.411958 
z
" style="fill:#008000;opacity:0.2;"/>
   </g>
   <g id="patch_215">
    <path clip-path="url(#pb2d13346aa)" d="M 153.462934 307.584 
L 155.984632 307.584 
L 155.984632 230.411958 
L 153.462934 230.411958 
z
" style="fill:#008000;opacity:0.2;"/>
   </g>
   <g id="patch_216">
    <path clip-path="url(#pb2d13346aa)" d="M 155.984632 307.584 
L 158.506331 307.584 
L 158.506331 211.995903 
L 155.984632 211.995903 
z
" style="fill:#008000;opacity:0.2;"/>
   </g>
   <g id="patch_217">
    <path clip-path="url(#pb2d13346aa)" d="M 158.506331 307.584 
L 161.02803 307.584 
L 161.02803 193.579848 
L 158.506331 193.579848 
z
" style="fill:#008000;opacity:0.2;"/>
   </g>
   <g id="patch_218">
    <path clip-path="url(#pb2d13346aa)" d="M 161.02803 307.584 
L 163.549729 307.584 
L 163.549729 187.441163 
L 161.02803 187.441163 
z
" style="fill:#008000;opacity:0.2;"/>
   </g>
   <g id="patch_219">
    <path clip-path="url(#pb2d13346aa)" d="M 163.549729 307.584 
L 166.071427 307.584 
L 166.071427 182.179433 
L 163.549729 182.179433 
z
" style="fill:#008000;opacity:0.2;"/>
   </g>
   <g id="patch_220">
    <path clip-path="url(#pb2d13346aa)" d="M 166.071427 307.584 
L 168.593126 307.584 
L 168.593126 197.964623 
L 166.071427 197.964623 
z
" style="fill:#008000;opacity:0.2;"/>
   </g>
   <g id="patch_221">
    <path clip-path="url(#pb2d13346aa)" d="M 168.593126 307.584 
L 171.114825 307.584 
L 171.114825 225.150228 
L 168.593126 225.150228 
z
" style="fill:#008000;opacity:0.2;"/>
   </g>
   <g id="patch_222">
    <path clip-path="url(#pb2d13346aa)" d="M 171.114825 307.584 
L 173.636524 307.584 
L 173.636524 219.888498 
L 171.114825 219.888498 
z
" style="fill:#008000;opacity:0.2;"/>
   </g>
   <g id="patch_223">
    <path clip-path="url(#pb2d13346aa)" d="M 173.636524 307.584 
L 176.158223 307.584 
L 176.158223 233.919779 
L 173.636524 233.919779 
z
" style="fill:#008000;opacity:0.2;"/>
   </g>
   <g id="patch_224">
    <path clip-path="url(#pb2d13346aa)" d="M 176.158223 307.584 
L 178.679921 307.584 
L 178.679921 250.581924 
L 176.158223 250.581924 
z
" style="fill:#008000;opacity:0.2;"/>
   </g>
   <g id="patch_225">
    <path clip-path="url(#pb2d13346aa)" d="M 178.679921 307.584 
L 181.20162 307.584 
L 181.20162 268.121024 
L 178.679921 268.121024 
z
" style="fill:#008000;opacity:0.2;"/>
   </g>
   <g id="patch_226">
    <path clip-path="url(#pb2d13346aa)" d="M 181.20162 307.584 
L 183.723319 307.584 
L 183.723319 278.644484 
L 181.20162 278.644484 
z
" style="fill:#008000;opacity:0.2;"/>
   </g>
   <g id="patch_227">
    <path clip-path="url(#pb2d13346aa)" d="M 183.723319 307.584 
L 186.245018 307.584 
L 186.245018 290.921855 
L 183.723319 290.921855 
z
" style="fill:#008000;opacity:0.2;"/>
   </g>
   <g id="patch_228">
    <path clip-path="url(#pb2d13346aa)" d="M 186.245018 307.584 
L 188.766717 307.584 
L 188.766717 285.660125 
L 186.245018 285.660125 
z
" style="fill:#008000;opacity:0.2;"/>
   </g>
   <g id="patch_229">
    <path clip-path="url(#pb2d13346aa)" d="M 188.766717 307.584 
L 191.288415 307.584 
L 191.288415 294.429675 
L 188.766717 294.429675 
z
" style="fill:#008000;opacity:0.2;"/>
   </g>
   <g id="patch_230">
    <path clip-path="url(#pb2d13346aa)" d="M 191.288415 307.584 
L 193.810114 307.584 
L 193.810114 296.183585 
L 191.288415 296.183585 
z
" style="fill:#008000;opacity:0.2;"/>
   </g>
   <g id="patch_231">
    <path clip-path="url(#pb2d13346aa)" d="M 193.810114 307.584 
L 196.331813 307.584 
L 196.331813 297.937495 
L 193.810114 297.937495 
z
" style="fill:#008000;opacity:0.2;"/>
   </g>
   <g id="patch_232">
    <path clip-path="url(#pb2d13346aa)" d="M 196.331813 307.584 
L 198.853512 307.584 
L 198.853512 301.445315 
L 196.331813 301.445315 
z
" style="fill:#008000;opacity:0.2;"/>
   </g>
   <g id="patch_233">
    <path clip-path="url(#pb2d13346aa)" d="M 198.853512 307.584 
L 201.375211 307.584 
L 201.375211 297.937495 
L 198.853512 297.937495 
z
" style="fill:#008000;opacity:0.2;"/>
   </g>
   <g id="patch_234">
    <path clip-path="url(#pb2d13346aa)" d="M 201.375211 307.584 
L 203.896909 307.584 
L 203.896909 287.414035 
L 201.375211 287.414035 
z
" style="fill:#008000;opacity:0.2;"/>
   </g>
   <g id="patch_235">
    <path clip-path="url(#pb2d13346aa)" d="M 203.896909 307.584 
L 206.418608 307.584 
L 206.418608 287.414035 
L 203.896909 287.414035 
z
" style="fill:#008000;opacity:0.2;"/>
   </g>
   <g id="patch_236">
    <path clip-path="url(#pb2d13346aa)" d="M 206.418608 307.584 
L 208.940307 307.584 
L 208.940307 279.521439 
L 206.418608 279.521439 
z
" style="fill:#008000;opacity:0.2;"/>
   </g>
   <g id="patch_237">
    <path clip-path="url(#pb2d13346aa)" d="M 208.940307 307.584 
L 211.462006 307.584 
L 211.462006 262.859294 
L 208.940307 262.859294 
z
" style="fill:#008000;opacity:0.2;"/>
   </g>
   <g id="patch_238">
    <path clip-path="url(#pb2d13346aa)" d="M 211.462006 307.584 
L 213.983705 307.584 
L 213.983705 250.581924 
L 211.462006 250.581924 
z
" style="fill:#008000;opacity:0.2;"/>
   </g>
   <g id="patch_239">
    <path clip-path="url(#pb2d13346aa)" d="M 213.983705 307.584 
L 216.505403 307.584 
L 216.505403 254.089744 
L 213.983705 254.089744 
z
" style="fill:#008000;opacity:0.2;"/>
   </g>
   <g id="patch_240">
    <path clip-path="url(#pb2d13346aa)" d="M 216.505403 307.584 
L 219.027102 307.584 
L 219.027102 253.212789 
L 216.505403 253.212789 
z
" style="fill:#008000;opacity:0.2;"/>
   </g>
   <g id="patch_241">
    <path clip-path="url(#pb2d13346aa)" d="M 219.027102 307.584 
L 221.548801 307.584 
L 221.548801 240.935419 
L 219.027102 240.935419 
z
" style="fill:#008000;opacity:0.2;"/>
   </g>
   <g id="patch_242">
    <path clip-path="url(#pb2d13346aa)" d="M 221.548801 307.584 
L 224.0705 307.584 
L 224.0705 227.781093 
L 221.548801 227.781093 
z
" style="fill:#008000;opacity:0.2;"/>
   </g>
   <g id="patch_243">
    <path clip-path="url(#pb2d13346aa)" d="M 224.0705 307.584 
L 226.592199 307.584 
L 226.592199 243.566284 
L 224.0705 243.566284 
z
" style="fill:#008000;opacity:0.2;"/>
   </g>
   <g id="patch_244">
    <path clip-path="url(#pb2d13346aa)" d="M 226.592199 307.584 
L 229.113897 307.584 
L 229.113897 244.443239 
L 226.592199 244.443239 
z
" style="fill:#008000;opacity:0.2;"/>
   </g>
   <g id="patch_245">
    <path clip-path="url(#pb2d13346aa)" d="M 229.113897 307.584 
L 231.635596 307.584 
L 231.635596 250.581924 
L 229.113897 250.581924 
z
" style="fill:#008000;opacity:0.2;"/>
   </g>
   <g id="patch_246">
    <path clip-path="url(#pb2d13346aa)" d="M 231.635596 307.584 
L 234.157295 307.584 
L 234.157295 248.828014 
L 231.635596 248.828014 
z
" style="fill:#008000;opacity:0.2;"/>
   </g>
   <g id="patch_247">
    <path clip-path="url(#pb2d13346aa)" d="M 234.157295 307.584 
L 236.678994 307.584 
L 236.678994 255.843654 
L 234.157295 255.843654 
z
" style="fill:#008000;opacity:0.2;"/>
   </g>
   <g id="patch_248">
    <path clip-path="url(#pb2d13346aa)" d="M 236.678994 307.584 
L 239.200692 307.584 
L 239.200692 246.197149 
L 236.678994 246.197149 
z
" style="fill:#008000;opacity:0.2;"/>
   </g>
   <g id="patch_249">
    <path clip-path="url(#pb2d13346aa)" d="M 239.200692 307.584 
L 241.722391 307.584 
L 241.722391 240.058464 
L 239.200692 240.058464 
z
" style="fill:#008000;opacity:0.2;"/>
   </g>
   <g id="patch_250">
    <path clip-path="url(#pb2d13346aa)" d="M 241.722391 307.584 
L 244.24409 307.584 
L 244.24409 263.736249 
L 241.722391 263.736249 
z
" style="fill:#008000;opacity:0.2;"/>
   </g>
   <g id="patch_251">
    <path clip-path="url(#pb2d13346aa)" d="M 244.24409 307.584 
L 246.765789 307.584 
L 246.765789 275.136664 
L 244.24409 275.136664 
z
" style="fill:#008000;opacity:0.2;"/>
   </g>
   <g id="patch_252">
    <path clip-path="url(#pb2d13346aa)" d="M 246.765789 307.584 
L 249.287488 307.584 
L 249.287488 261.982339 
L 246.765789 261.982339 
z
" style="fill:#008000;opacity:0.2;"/>
   </g>
   <g id="patch_253">
    <path clip-path="url(#pb2d13346aa)" d="M 249.287488 307.584 
L 251.809186 307.584 
L 251.809186 270.751889 
L 249.287488 270.751889 
z
" style="fill:#008000;opacity:0.2;"/>
   </g>
   <g id="patch_254">
    <path clip-path="url(#pb2d13346aa)" d="M 251.809186 307.584 
L 254.330885 307.584 
L 254.330885 284.78317 
L 251.809186 284.78317 
z
" style="fill:#008000;opacity:0.2;"/>
   </g>
   <g id="patch_255">
    <path clip-path="url(#pb2d13346aa)" d="M 254.330885 307.584 
L 256.852584 307.584 
L 256.852584 273.382754 
L 254.330885 273.382754 
z
" style="fill:#008000;opacity:0.2;"/>
   </g>
   <g id="patch_256">
    <path clip-path="url(#pb2d13346aa)" d="M 256.852584 307.584 
L 259.374283 307.584 
L 259.374283 278.644484 
L 256.852584 278.644484 
z
" style="fill:#008000;opacity:0.2;"/>
   </g>
   <g id="patch_257">
    <path clip-path="url(#pb2d13346aa)" d="M 259.374283 307.584 
L 261.895982 307.584 
L 261.895982 271.628844 
L 259.374283 271.628844 
z
" style="fill:#008000;opacity:0.2;"/>
   </g>
   <g id="patch_258">
    <path clip-path="url(#pb2d13346aa)" d="M 261.895982 307.584 
L 264.41768 307.584 
L 264.41768 261.982339 
L 261.895982 261.982339 
z
" style="fill:#008000;opacity:0.2;"/>
   </g>
   <g id="patch_259">
    <path clip-path="url(#pb2d13346aa)" d="M 264.41768 307.584 
L 266.939379 307.584 
L 266.939379 268.121024 
L 264.41768 268.121024 
z
" style="fill:#008000;opacity:0.2;"/>
   </g>
   <g id="patch_260">
    <path clip-path="url(#pb2d13346aa)" d="M 266.939379 307.584 
L 269.461078 307.584 
L 269.461078 276.890574 
L 266.939379 276.890574 
z
" style="fill:#008000;opacity:0.2;"/>
   </g>
   <g id="patch_261">
    <path clip-path="url(#pb2d13346aa)" d="M 269.461078 307.584 
L 271.982777 307.584 
L 271.982777 278.644484 
L 269.461078 278.644484 
z
" style="fill:#008000;opacity:0.2;"/>
   </g>
   <g id="patch_262">
    <path clip-path="url(#pb2d13346aa)" d="M 271.982777 307.584 
L 274.504476 307.584 
L 274.504476 278.644484 
L 271.982777 278.644484 
z
" style="fill:#008000;opacity:0.2;"/>
   </g>
   <g id="patch_263">
    <path clip-path="url(#pb2d13346aa)" d="M 274.504476 307.584 
L 277.026174 307.584 
L 277.026174 283.02926 
L 274.504476 283.02926 
z
" style="fill:#008000;opacity:0.2;"/>
   </g>
   <g id="patch_264">
    <path clip-path="url(#pb2d13346aa)" d="M 277.026174 307.584 
L 279.547873 307.584 
L 279.547873 278.644484 
L 277.026174 278.644484 
z
" style="fill:#008000;opacity:0.2;"/>
   </g>
   <g id="patch_265">
    <path clip-path="url(#pb2d13346aa)" d="M 279.547873 307.584 
L 282.069572 307.584 
L 282.069572 276.890574 
L 279.547873 276.890574 
z
" style="fill:#008000;opacity:0.2;"/>
   </g>
   <g id="patch_266">
    <path clip-path="url(#pb2d13346aa)" d="M 282.069572 307.584 
L 284.591271 307.584 
L 284.591271 271.628844 
L 282.069572 271.628844 
z
" style="fill:#008000;opacity:0.2;"/>
   </g>
   <g id="patch_267">
    <path clip-path="url(#pb2d13346aa)" d="M 284.591271 307.584 
L 287.11297 307.584 
L 287.11297 272.505799 
L 284.591271 272.505799 
z
" style="fill:#008000;opacity:0.2;"/>
   </g>
   <g id="patch_268">
    <path clip-path="url(#pb2d13346aa)" d="M 287.11297 307.584 
L 289.634668 307.584 
L 289.634668 275.136664 
L 287.11297 275.136664 
z
" style="fill:#008000;opacity:0.2;"/>
   </g>
   <g id="patch_269">
    <path clip-path="url(#pb2d13346aa)" d="M 289.634668 307.584 
L 292.156367 307.584 
L 292.156367 278.644484 
L 289.634668 278.644484 
z
" style="fill:#008000;opacity:0.2;"/>
   </g>
   <g id="patch_270">
    <path clip-path="url(#pb2d13346aa)" d="M 292.156367 307.584 
L 294.678066 307.584 
L 294.678066 286.53708 
L 292.156367 286.53708 
z
" style="fill:#008000;opacity:0.2;"/>
   </g>
   <g id="patch_271">
    <path clip-path="url(#pb2d13346aa)" d="M 294.678066 307.584 
L 297.199765 307.584 
L 297.199765 286.53708 
L 294.678066 286.53708 
z
" style="fill:#008000;opacity:0.2;"/>
   </g>
   <g id="patch_272">
    <path clip-path="url(#pb2d13346aa)" d="M 297.199765 307.584 
L 299.721464 307.584 
L 299.721464 289.167945 
L 297.199765 289.167945 
z
" style="fill:#008000;opacity:0.2;"/>
   </g>
   <g id="patch_273">
    <path clip-path="url(#pb2d13346aa)" d="M 299.721464 307.584 
L 302.243162 307.584 
L 302.243162 290.921855 
L 299.721464 290.921855 
z
" style="fill:#008000;opacity:0.2;"/>
   </g>
   <g id="patch_274">
    <path clip-path="url(#pb2d13346aa)" d="M 302.243162 307.584 
L 304.764861 307.584 
L 304.764861 295.30663 
L 302.243162 295.30663 
z
" style="fill:#008000;opacity:0.2;"/>
   </g>
   <g id="patch_275">
    <path clip-path="url(#pb2d13346aa)" d="M 304.764861 307.584 
L 307.28656 307.584 
L 307.28656 290.921855 
L 304.764861 290.921855 
z
" style="fill:#008000;opacity:0.2;"/>
   </g>
   <g id="patch_276">
    <path clip-path="url(#pb2d13346aa)" d="M 307.28656 307.584 
L 309.808259 307.584 
L 309.808259 295.30663 
L 307.28656 295.30663 
z
" style="fill:#008000;opacity:0.2;"/>
   </g>
   <g id="patch_277">
    <path clip-path="url(#pb2d13346aa)" d="M 309.808259 307.584 
L 312.329958 307.584 
L 312.329958 296.183585 
L 309.808259 296.183585 
z
" style="fill:#008000;opacity:0.2;"/>
   </g>
   <g id="patch_278">
    <path clip-path="url(#pb2d13346aa)" d="M 312.329958 307.584 
L 314.851656 307.584 
L 314.851656 298.81445 
L 312.329958 298.81445 
z
" style="fill:#008000;opacity:0.2;"/>
   </g>
   <g id="patch_279">
    <path clip-path="url(#pb2d13346aa)" d="M 314.851656 307.584 
L 317.373355 307.584 
L 317.373355 295.30663 
L 314.851656 295.30663 
z
" style="fill:#008000;opacity:0.2;"/>
   </g>
   <g id="patch_280">
    <path clip-path="url(#pb2d13346aa)" d="M 317.373355 307.584 
L 319.895054 307.584 
L 319.895054 297.937495 
L 317.373355 297.937495 
z
" style="fill:#008000;opacity:0.2;"/>
   </g>
   <g id="patch_281">
    <path clip-path="url(#pb2d13346aa)" d="M 319.895054 307.584 
L 322.416753 307.584 
L 322.416753 296.183585 
L 319.895054 296.183585 
z
" style="fill:#008000;opacity:0.2;"/>
   </g>
   <g id="patch_282">
    <path clip-path="url(#pb2d13346aa)" d="M 322.416753 307.584 
L 324.938451 307.584 
L 324.938451 298.81445 
L 322.416753 298.81445 
z
" style="fill:#008000;opacity:0.2;"/>
   </g>
   <g id="patch_283">
    <path clip-path="url(#pb2d13346aa)" d="M 324.938451 307.584 
L 327.46015 307.584 
L 327.46015 303.199225 
L 324.938451 303.199225 
z
" style="fill:#008000;opacity:0.2;"/>
   </g>
   <g id="patch_284">
    <path clip-path="url(#pb2d13346aa)" d="M 327.46015 307.584 
L 329.981849 307.584 
L 329.981849 302.32227 
L 327.46015 302.32227 
z
" style="fill:#008000;opacity:0.2;"/>
   </g>
   <g id="patch_285">
    <path clip-path="url(#pb2d13346aa)" d="M 329.981849 307.584 
L 332.503548 307.584 
L 332.503548 300.56836 
L 329.981849 300.56836 
z
" style="fill:#008000;opacity:0.2;"/>
   </g>
   <g id="patch_286">
    <path clip-path="url(#pb2d13346aa)" d="M 332.503548 307.584 
L 335.025247 307.584 
L 335.025247 304.953135 
L 332.503548 304.953135 
z
" style="fill:#008000;opacity:0.2;"/>
   </g>
   <g id="patch_287">
    <path clip-path="url(#pb2d13346aa)" d="M 335.025247 307.584 
L 337.546945 307.584 
L 337.546945 301.445315 
L 335.025247 301.445315 
z
" style="fill:#008000;opacity:0.2;"/>
   </g>
   <g id="patch_288">
    <path clip-path="url(#pb2d13346aa)" d="M 337.546945 307.584 
L 340.068644 307.584 
L 340.068644 304.07618 
L 337.546945 304.07618 
z
" style="fill:#008000;opacity:0.2;"/>
   </g>
   <g id="patch_289">
    <path clip-path="url(#pb2d13346aa)" d="M 340.068644 307.584 
L 342.590343 307.584 
L 342.590343 306.707045 
L 340.068644 306.707045 
z
" style="fill:#008000;opacity:0.2;"/>
   </g>
   <g id="patch_290">
    <path clip-path="url(#pb2d13346aa)" d="M 342.590343 307.584 
L 345.112042 307.584 
L 345.112042 304.953135 
L 342.590343 304.953135 
z
" style="fill:#008000;opacity:0.2;"/>
   </g>
   <g id="patch_291">
    <path clip-path="url(#pb2d13346aa)" d="M 345.112042 307.584 
L 347.633741 307.584 
L 347.633741 307.584 
L 345.112042 307.584 
z
" style="fill:#008000;opacity:0.2;"/>
   </g>
   <g id="patch_292">
    <path clip-path="url(#pb2d13346aa)" d="M 347.633741 307.584 
L 350.155439 307.584 
L 350.155439 307.584 
L 347.633741 307.584 
z
" style="fill:#008000;opacity:0.2;"/>
   </g>
   <g id="patch_293">
    <path clip-path="url(#pb2d13346aa)" d="M 350.155439 307.584 
L 352.677138 307.584 
L 352.677138 307.584 
L 350.155439 307.584 
z
" style="fill:#008000;opacity:0.2;"/>
   </g>
   <g id="patch_294">
    <path clip-path="url(#pb2d13346aa)" d="M 352.677138 307.584 
L 355.198837 307.584 
L 355.198837 307.584 
L 352.677138 307.584 
z
" style="fill:#008000;opacity:0.2;"/>
   </g>
   <g id="patch_295">
    <path clip-path="url(#pb2d13346aa)" d="M 355.198837 307.584 
L 357.720536 307.584 
L 357.720536 307.584 
L 355.198837 307.584 
z
" style="fill:#008000;opacity:0.2;"/>
   </g>
   <g id="patch_296">
    <path clip-path="url(#pb2d13346aa)" d="M 357.720536 307.584 
L 360.242235 307.584 
L 360.242235 307.584 
L 357.720536 307.584 
z
" style="fill:#008000;opacity:0.2;"/>
   </g>
   <g id="patch_297">
    <path clip-path="url(#pb2d13346aa)" d="M 360.242235 307.584 
L 362.763933 307.584 
L 362.763933 307.584 
L 360.242235 307.584 
z
" style="fill:#008000;opacity:0.2;"/>
   </g>
   <g id="patch_298">
    <path clip-path="url(#pb2d13346aa)" d="M 362.763933 307.584 
L 365.285632 307.584 
L 365.285632 307.584 
L 362.763933 307.584 
z
" style="fill:#008000;opacity:0.2;"/>
   </g>
   <g id="patch_299">
    <path clip-path="url(#pb2d13346aa)" d="M 365.285632 307.584 
L 367.807331 307.584 
L 367.807331 307.584 
L 365.285632 307.584 
z
" style="fill:#008000;opacity:0.2;"/>
   </g>
   <g id="patch_300">
    <path clip-path="url(#pb2d13346aa)" d="M 367.807331 307.584 
L 370.32903 307.584 
L 370.32903 307.584 
L 367.807331 307.584 
z
" style="fill:#008000;opacity:0.2;"/>
   </g>
   <g id="patch_301">
    <path clip-path="url(#pb2d13346aa)" d="M 370.32903 307.584 
L 372.850729 307.584 
L 372.850729 307.584 
L 370.32903 307.584 
z
" style="fill:#008000;opacity:0.2;"/>
   </g>
   <g id="patch_302">
    <path clip-path="url(#pb2d13346aa)" d="M 372.850729 307.584 
L 375.372427 307.584 
L 375.372427 306.707045 
L 372.850729 306.707045 
z
" style="fill:#008000;opacity:0.2;"/>
   </g>
   <g id="matplotlib.axis_1">
    <g id="xtick_1">
     <g id="line2d_1">
      <defs>
       <path d="M 0 0 
L 0 3.5 
" id="m247ef10ecd" style="stroke:#000000;stroke-width:0.8;"/>
      </defs>
      <g>
       <use style="stroke:#000000;stroke-width:0.8;" x="58.91711" xlink:href="#m247ef10ecd" y="307.584"/>
      </g>
     </g>
     <g id="text_1">
      <!-- 90 -->
      <g transform="translate(52.55461 322.182437)scale(0.1 -0.1)">
       <defs>
        <path d="M 703 97 
L 703 672 
Q 941 559 1184 500 
Q 1428 441 1663 441 
Q 2288 441 2617 861 
Q 2947 1281 2994 2138 
Q 2813 1869 2534 1725 
Q 2256 1581 1919 1581 
Q 1219 1581 811 2004 
Q 403 2428 403 3163 
Q 403 3881 828 4315 
Q 1253 4750 1959 4750 
Q 2769 4750 3195 4129 
Q 3622 3509 3622 2328 
Q 3622 1225 3098 567 
Q 2575 -91 1691 -91 
Q 1453 -91 1209 -44 
Q 966 3 703 97 
z
M 1959 2075 
Q 2384 2075 2632 2365 
Q 2881 2656 2881 3163 
Q 2881 3666 2632 3958 
Q 2384 4250 1959 4250 
Q 1534 4250 1286 3958 
Q 1038 3666 1038 3163 
Q 1038 2656 1286 2365 
Q 1534 2075 1959 2075 
z
" id="DejaVuSans-39" transform="scale(0.015625)"/>
        <path d="M 2034 4250 
Q 1547 4250 1301 3770 
Q 1056 3291 1056 2328 
Q 1056 1369 1301 889 
Q 1547 409 2034 409 
Q 2525 409 2770 889 
Q 3016 1369 3016 2328 
Q 3016 3291 2770 3770 
Q 2525 4250 2034 4250 
z
M 2034 4750 
Q 2819 4750 3233 4129 
Q 3647 3509 3647 2328 
Q 3647 1150 3233 529 
Q 2819 -91 2034 -91 
Q 1250 -91 836 529 
Q 422 1150 422 2328 
Q 422 3509 836 4129 
Q 1250 4750 2034 4750 
z
" id="DejaVuSans-30" transform="scale(0.015625)"/>
       </defs>
       <use xlink:href="#DejaVuSans-39"/>
       <use x="63.623047" xlink:href="#DejaVuSans-30"/>
      </g>
     </g>
    </g>
    <g id="xtick_2">
     <g id="line2d_2">
      <g>
       <use style="stroke:#000000;stroke-width:0.8;" x="102.530026" xlink:href="#m247ef10ecd" y="307.584"/>
      </g>
     </g>
     <g id="text_2">
      <!-- 95 -->
      <g transform="translate(96.167526 322.182437)scale(0.1 -0.1)">
       <defs>
        <path d="M 691 4666 
L 3169 4666 
L 3169 4134 
L 1269 4134 
L 1269 2991 
Q 1406 3038 1543 3061 
Q 1681 3084 1819 3084 
Q 2600 3084 3056 2656 
Q 3513 2228 3513 1497 
Q 3513 744 3044 326 
Q 2575 -91 1722 -91 
Q 1428 -91 1123 -41 
Q 819 9 494 109 
L 494 744 
Q 775 591 1075 516 
Q 1375 441 1709 441 
Q 2250 441 2565 725 
Q 2881 1009 2881 1497 
Q 2881 1984 2565 2268 
Q 2250 2553 1709 2553 
Q 1456 2553 1204 2497 
Q 953 2441 691 2322 
L 691 4666 
z
" id="DejaVuSans-35" transform="scale(0.015625)"/>
       </defs>
       <use xlink:href="#DejaVuSans-39"/>
       <use x="63.623047" xlink:href="#DejaVuSans-35"/>
      </g>
     </g>
    </g>
    <g id="xtick_3">
     <g id="line2d_3">
      <g>
       <use style="stroke:#000000;stroke-width:0.8;" x="146.142942" xlink:href="#m247ef10ecd" y="307.584"/>
      </g>
     </g>
     <g id="text_3">
      <!-- 100 -->
      <g transform="translate(136.599192 322.182437)scale(0.1 -0.1)">
       <defs>
        <path d="M 794 531 
L 1825 531 
L 1825 4091 
L 703 3866 
L 703 4441 
L 1819 4666 
L 2450 4666 
L 2450 531 
L 3481 531 
L 3481 0 
L 794 0 
L 794 531 
z
" id="DejaVuSans-31" transform="scale(0.015625)"/>
       </defs>
       <use xlink:href="#DejaVuSans-31"/>
       <use x="63.623047" xlink:href="#DejaVuSans-30"/>
       <use x="127.246094" xlink:href="#DejaVuSans-30"/>
      </g>
     </g>
    </g>
    <g id="xtick_4">
     <g id="line2d_4">
      <g>
       <use style="stroke:#000000;stroke-width:0.8;" x="189.755858" xlink:href="#m247ef10ecd" y="307.584"/>
      </g>
     </g>
     <g id="text_4">
      <!-- 105 -->
      <g transform="translate(180.212108 322.182437)scale(0.1 -0.1)">
       <use xlink:href="#DejaVuSans-31"/>
       <use x="63.623047" xlink:href="#DejaVuSans-30"/>
       <use x="127.246094" xlink:href="#DejaVuSans-35"/>
      </g>
     </g>
    </g>
    <g id="xtick_5">
     <g id="line2d_5">
      <g>
       <use style="stroke:#000000;stroke-width:0.8;" x="233.368773" xlink:href="#m247ef10ecd" y="307.584"/>
      </g>
     </g>
     <g id="text_5">
      <!-- 110 -->
      <g transform="translate(223.825023 322.182437)scale(0.1 -0.1)">
       <use xlink:href="#DejaVuSans-31"/>
       <use x="63.623047" xlink:href="#DejaVuSans-31"/>
       <use x="127.246094" xlink:href="#DejaVuSans-30"/>
      </g>
     </g>
    </g>
    <g id="xtick_6">
     <g id="line2d_6">
      <g>
       <use style="stroke:#000000;stroke-width:0.8;" x="276.981689" xlink:href="#m247ef10ecd" y="307.584"/>
      </g>
     </g>
     <g id="text_6">
      <!-- 115 -->
      <g transform="translate(267.437939 322.182437)scale(0.1 -0.1)">
       <use xlink:href="#DejaVuSans-31"/>
       <use x="63.623047" xlink:href="#DejaVuSans-31"/>
       <use x="127.246094" xlink:href="#DejaVuSans-35"/>
      </g>
     </g>
    </g>
    <g id="xtick_7">
     <g id="line2d_7">
      <g>
       <use style="stroke:#000000;stroke-width:0.8;" x="320.594605" xlink:href="#m247ef10ecd" y="307.584"/>
      </g>
     </g>
     <g id="text_7">
      <!-- 120 -->
      <g transform="translate(311.050855 322.182437)scale(0.1 -0.1)">
       <defs>
        <path d="M 1228 531 
L 3431 531 
L 3431 0 
L 469 0 
L 469 531 
Q 828 903 1448 1529 
Q 2069 2156 2228 2338 
Q 2531 2678 2651 2914 
Q 2772 3150 2772 3378 
Q 2772 3750 2511 3984 
Q 2250 4219 1831 4219 
Q 1534 4219 1204 4116 
Q 875 4013 500 3803 
L 500 4441 
Q 881 4594 1212 4672 
Q 1544 4750 1819 4750 
Q 2544 4750 2975 4387 
Q 3406 4025 3406 3419 
Q 3406 3131 3298 2873 
Q 3191 2616 2906 2266 
Q 2828 2175 2409 1742 
Q 1991 1309 1228 531 
z
" id="DejaVuSans-32" transform="scale(0.015625)"/>
       </defs>
       <use xlink:href="#DejaVuSans-31"/>
       <use x="63.623047" xlink:href="#DejaVuSans-32"/>
       <use x="127.246094" xlink:href="#DejaVuSans-30"/>
      </g>
     </g>
    </g>
    <g id="xtick_8">
     <g id="line2d_8">
      <g>
       <use style="stroke:#000000;stroke-width:0.8;" x="364.207521" xlink:href="#m247ef10ecd" y="307.584"/>
      </g>
     </g>
     <g id="text_8">
      <!-- 125 -->
      <g transform="translate(354.663771 322.182437)scale(0.1 -0.1)">
       <use xlink:href="#DejaVuSans-31"/>
       <use x="63.623047" xlink:href="#DejaVuSans-32"/>
       <use x="127.246094" xlink:href="#DejaVuSans-35"/>
      </g>
     </g>
    </g>
    <g id="xtick_9">
     <g id="line2d_9">
      <g>
       <use style="stroke:#000000;stroke-width:0.8;" x="407.820437" xlink:href="#m247ef10ecd" y="307.584"/>
      </g>
     </g>
     <g id="text_9">
      <!-- 130 -->
      <g transform="translate(398.276687 322.182437)scale(0.1 -0.1)">
       <defs>
        <path d="M 2597 2516 
Q 3050 2419 3304 2112 
Q 3559 1806 3559 1356 
Q 3559 666 3084 287 
Q 2609 -91 1734 -91 
Q 1441 -91 1130 -33 
Q 819 25 488 141 
L 488 750 
Q 750 597 1062 519 
Q 1375 441 1716 441 
Q 2309 441 2620 675 
Q 2931 909 2931 1356 
Q 2931 1769 2642 2001 
Q 2353 2234 1838 2234 
L 1294 2234 
L 1294 2753 
L 1863 2753 
Q 2328 2753 2575 2939 
Q 2822 3125 2822 3475 
Q 2822 3834 2567 4026 
Q 2313 4219 1838 4219 
Q 1578 4219 1281 4162 
Q 984 4106 628 3988 
L 628 4550 
Q 988 4650 1302 4700 
Q 1616 4750 1894 4750 
Q 2613 4750 3031 4423 
Q 3450 4097 3450 3541 
Q 3450 3153 3228 2886 
Q 3006 2619 2597 2516 
z
" id="DejaVuSans-33" transform="scale(0.015625)"/>
       </defs>
       <use xlink:href="#DejaVuSans-31"/>
       <use x="63.623047" xlink:href="#DejaVuSans-33"/>
       <use x="127.246094" xlink:href="#DejaVuSans-30"/>
      </g>
     </g>
    </g>
   </g>
   <g id="matplotlib.axis_2">
    <g id="ytick_1">
     <g id="line2d_10">
      <defs>
       <path d="M 0 0 
L -3.5 0 
" id="m80316e380e" style="stroke:#000000;stroke-width:0.8;"/>
      </defs>
      <g>
       <use style="stroke:#000000;stroke-width:0.8;" x="57.6" xlink:href="#m80316e380e" y="307.584"/>
      </g>
     </g>
     <g id="text_10">
      <!-- 0 -->
      <g transform="translate(44.2375 311.383219)scale(0.1 -0.1)">
       <use xlink:href="#DejaVuSans-30"/>
      </g>
     </g>
    </g>
    <g id="ytick_2">
     <g id="line2d_11">
      <g>
       <use style="stroke:#000000;stroke-width:0.8;" x="57.6" xlink:href="#m80316e380e" y="263.736249"/>
      </g>
     </g>
     <g id="text_11">
      <!-- 50 -->
      <g transform="translate(37.875 267.535468)scale(0.1 -0.1)">
       <use xlink:href="#DejaVuSans-35"/>
       <use x="63.623047" xlink:href="#DejaVuSans-30"/>
      </g>
     </g>
    </g>
    <g id="ytick_3">
     <g id="line2d_12">
      <g>
       <use style="stroke:#000000;stroke-width:0.8;" x="57.6" xlink:href="#m80316e380e" y="219.888498"/>
      </g>
     </g>
     <g id="text_12">
      <!-- 100 -->
      <g transform="translate(31.5125 223.687717)scale(0.1 -0.1)">
       <use xlink:href="#DejaVuSans-31"/>
       <use x="63.623047" xlink:href="#DejaVuSans-30"/>
       <use x="127.246094" xlink:href="#DejaVuSans-30"/>
      </g>
     </g>
    </g>
    <g id="ytick_4">
     <g id="line2d_13">
      <g>
       <use style="stroke:#000000;stroke-width:0.8;" x="57.6" xlink:href="#m80316e380e" y="176.040747"/>
      </g>
     </g>
     <g id="text_13">
      <!-- 150 -->
      <g transform="translate(31.5125 179.839966)scale(0.1 -0.1)">
       <use xlink:href="#DejaVuSans-31"/>
       <use x="63.623047" xlink:href="#DejaVuSans-35"/>
       <use x="127.246094" xlink:href="#DejaVuSans-30"/>
      </g>
     </g>
    </g>
    <g id="ytick_5">
     <g id="line2d_14">
      <g>
       <use style="stroke:#000000;stroke-width:0.8;" x="57.6" xlink:href="#m80316e380e" y="132.192997"/>
      </g>
     </g>
     <g id="text_14">
      <!-- 200 -->
      <g transform="translate(31.5125 135.992215)scale(0.1 -0.1)">
       <use xlink:href="#DejaVuSans-32"/>
       <use x="63.623047" xlink:href="#DejaVuSans-30"/>
       <use x="127.246094" xlink:href="#DejaVuSans-30"/>
      </g>
     </g>
    </g>
    <g id="ytick_6">
     <g id="line2d_15">
      <g>
       <use style="stroke:#000000;stroke-width:0.8;" x="57.6" xlink:href="#m80316e380e" y="88.345246"/>
      </g>
     </g>
     <g id="text_15">
      <!-- 250 -->
      <g transform="translate(31.5125 92.144464)scale(0.1 -0.1)">
       <use xlink:href="#DejaVuSans-32"/>
       <use x="63.623047" xlink:href="#DejaVuSans-35"/>
       <use x="127.246094" xlink:href="#DejaVuSans-30"/>
      </g>
     </g>
    </g>
    <g id="ytick_7">
     <g id="line2d_16">
      <g>
       <use style="stroke:#000000;stroke-width:0.8;" x="57.6" xlink:href="#m80316e380e" y="44.497495"/>
      </g>
     </g>
     <g id="text_16">
      <!-- 300 -->
      <g transform="translate(31.5125 48.296714)scale(0.1 -0.1)">
       <use xlink:href="#DejaVuSans-33"/>
       <use x="63.623047" xlink:href="#DejaVuSans-30"/>
       <use x="127.246094" xlink:href="#DejaVuSans-30"/>
      </g>
     </g>
    </g>
   </g>
   <g id="patch_303">
    <path clip-path="url(#pb2d13346aa)" d="M 73.832727 307.584 
L 73.832727 305.83009 
L 86.818909 305.83009 
L 86.818909 299.691405 
L 90.065455 299.691405 
L 90.065455 296.183585 
L 93.312 296.183585 
L 93.312 291.79881 
L 96.558545 291.79881 
L 96.558545 277.767529 
L 99.805091 277.767529 
L 99.805091 285.660125 
L 103.051636 285.660125 
L 103.051636 281.275349 
L 106.298182 281.275349 
L 106.298182 282.152304 
L 109.544727 282.152304 
L 109.544727 261.105384 
L 112.791273 261.105384 
L 112.791273 255.843654 
L 116.037818 255.843654 
L 116.037818 267.244069 
L 119.284364 267.244069 
L 119.284364 272.505799 
L 122.530909 272.505799 
L 122.530909 267.244069 
L 125.777455 267.244069 
L 125.777455 254.966699 
L 129.024 254.966699 
L 129.024 267.244069 
L 132.270545 267.244069 
L 132.270545 257.597564 
L 135.517091 257.597564 
L 135.517091 268.121024 
L 138.763636 268.121024 
L 138.763636 257.597564 
L 142.010182 257.597564 
L 142.010182 254.966699 
L 145.256727 254.966699 
L 145.256727 254.089744 
L 148.503273 254.089744 
L 148.503273 247.951059 
L 151.749818 247.951059 
L 151.749818 236.550644 
L 154.996364 236.550644 
L 154.996364 231.288913 
L 158.242909 231.288913 
L 158.242909 240.058464 
L 161.489455 240.058464 
L 161.489455 209.365038 
L 164.736 209.365038 
L 164.736 229.535003 
L 167.982545 229.535003 
L 167.982545 218.134588 
L 171.229091 218.134588 
L 171.229091 219.011543 
L 174.475636 219.011543 
L 174.475636 205.857218 
L 177.722182 205.857218 
L 177.722182 202.349398 
L 180.968727 202.349398 
L 180.968727 194.456803 
L 184.215273 194.456803 
L 184.215273 208.488083 
L 187.461818 208.488083 
L 187.461818 201.472443 
L 190.708364 201.472443 
L 190.708364 182.179433 
L 193.954909 182.179433 
L 193.954909 207.611128 
L 197.201455 207.611128 
L 197.201455 198.841578 
L 200.448 198.841578 
L 200.448 179.548567 
L 203.694545 179.548567 
L 203.694545 171.655972 
L 206.941091 171.655972 
L 206.941091 187.441163 
L 210.187636 187.441163 
L 210.187636 183.933343 
L 213.434182 183.933343 
L 213.434182 173.409882 
L 216.680727 173.409882 
L 216.680727 167.271197 
L 219.927273 167.271197 
L 219.927273 165.517287 
L 226.420364 165.517287 
L 226.420364 137.454727 
L 229.666909 137.454727 
L 229.666909 134.823862 
L 232.913455 134.823862 
L 232.913455 119.915626 
L 239.406545 119.915626 
L 239.406545 97.991751 
L 242.653091 97.991751 
L 242.653091 95.360886 
L 245.899636 95.360886 
L 245.899636 76.067875 
L 249.146182 76.067875 
L 249.146182 63.790505 
L 252.392727 63.790505 
L 252.392727 55.020955 
L 258.885818 55.020955 
L 258.885818 73.43701 
L 262.132364 73.43701 
L 262.132364 76.067875 
L 265.378909 76.067875 
L 265.378909 60.282685 
L 268.625455 60.282685 
L 268.625455 74.313965 
L 271.872 74.313965 
L 271.872 55.020955 
L 275.118545 55.020955 
L 275.118545 86.591336 
L 278.365091 86.591336 
L 278.365091 54.144 
L 281.611636 54.144 
L 281.611636 76.94483 
L 284.858182 76.94483 
L 284.858182 76.067875 
L 288.104727 76.067875 
L 288.104727 78.69874 
L 291.351273 78.69874 
L 291.351273 111.146076 
L 294.597818 111.146076 
L 294.597818 103.253481 
L 297.844364 103.253481 
L 297.844364 128.685176 
L 301.090909 128.685176 
L 301.090909 166.394242 
L 304.337455 166.394242 
L 304.337455 199.718533 
L 307.584 199.718533 
L 307.584 192.702893 
L 310.830545 192.702893 
L 310.830545 205.857218 
L 314.077091 205.857218 
L 314.077091 237.427599 
L 317.323636 237.427599 
L 317.323636 250.581924 
L 320.570182 250.581924 
L 320.570182 261.982339 
L 323.816727 261.982339 
L 323.816727 276.013619 
L 327.063273 276.013619 
L 327.063273 275.136664 
L 330.309818 275.136664 
L 330.309818 281.275349 
L 333.556364 281.275349 
L 333.556364 290.921855 
L 336.802909 290.921855 
L 336.802909 297.06054 
L 340.049455 297.06054 
L 340.049455 292.675765 
L 343.296 292.675765 
L 343.296 301.445315 
L 346.542545 301.445315 
L 346.542545 305.83009 
L 349.789091 305.83009 
L 349.789091 304.07618 
L 353.035636 304.07618 
L 353.035636 305.83009 
L 359.528727 305.83009 
L 359.528727 304.07618 
L 362.775273 304.07618 
L 362.775273 304.953135 
L 369.268364 304.953135 
L 369.268364 306.707045 
L 385.501091 306.707045 
L 385.501091 307.584 
L 388.747636 307.584 
L 388.747636 306.707045 
L 398.487273 306.707045 
L 398.487273 307.584 
L 398.487273 307.584 
" style="fill:none;stroke:#ff0000;stroke-linejoin:miter;"/>
   </g>
   <g id="patch_304">
    <path clip-path="url(#pb2d13346aa)" d="M 120.672999 307.584 
L 120.672999 304.07618 
L 123.08741 304.07618 
L 123.08741 307.584 
L 125.501821 307.584 
L 125.501821 304.953135 
L 130.330643 304.953135 
L 130.330643 304.07618 
L 132.745054 304.07618 
L 132.745054 303.199225 
L 135.159465 303.199225 
L 135.159465 300.56836 
L 139.988287 300.56836 
L 139.988287 298.81445 
L 142.402698 298.81445 
L 142.402698 300.56836 
L 144.817109 300.56836 
L 144.817109 299.691405 
L 147.23152 299.691405 
L 147.23152 302.32227 
L 149.645931 302.32227 
L 149.645931 304.953135 
L 152.060342 304.953135 
L 152.060342 305.83009 
L 156.889164 305.83009 
L 156.889164 307.584 
L 168.961219 307.584 
L 168.961219 305.83009 
L 171.37563 305.83009 
L 171.37563 307.584 
L 173.790041 307.584 
L 173.790041 306.707045 
L 176.204452 306.707045 
L 176.204452 304.953135 
L 181.033274 304.953135 
L 181.033274 306.707045 
L 183.447685 306.707045 
L 183.447685 304.07618 
L 185.862096 304.07618 
L 185.862096 304.953135 
L 188.276507 304.953135 
L 188.276507 305.83009 
L 190.690918 305.83009 
L 190.690918 307.584 
L 193.105329 307.584 
L 193.105329 306.707045 
L 195.519741 306.707045 
L 195.519741 305.83009 
L 197.934152 305.83009 
L 197.934152 307.584 
L 205.177385 307.584 
L 205.177385 305.83009 
L 207.591796 305.83009 
L 207.591796 306.707045 
L 210.006207 306.707045 
L 210.006207 304.953135 
L 212.420618 304.953135 
L 212.420618 296.183585 
L 214.835029 296.183585 
L 214.835029 295.30663 
L 217.24944 295.30663 
L 217.24944 275.136664 
L 219.663851 275.136664 
L 219.663851 252.335834 
L 222.078262 252.335834 
L 222.078262 243.566284 
L 224.492673 243.566284 
L 224.492673 221.642408 
L 226.907084 221.642408 
L 226.907084 231.288913 
L 229.321495 231.288913 
L 229.321495 196.210713 
L 231.735906 196.210713 
L 231.735906 192.702893 
L 234.150317 192.702893 
L 234.150317 161.132512 
L 236.564728 161.132512 
L 236.564728 172.532927 
L 238.979139 172.532927 
L 238.979139 161.132512 
L 241.39355 161.132512 
L 241.39355 173.409882 
L 243.807961 173.409882 
L 243.807961 163.763377 
L 246.222372 163.763377 
L 246.222372 166.394242 
L 248.636783 166.394242 
L 248.636783 196.210713 
L 251.051194 196.210713 
L 251.051194 207.611128 
L 253.465605 207.611128 
L 253.465605 220.765453 
L 255.880016 220.765453 
L 255.880016 233.042824 
L 258.294427 233.042824 
L 258.294427 253.212789 
L 260.708838 253.212789 
L 260.708838 257.597564 
L 263.123249 257.597564 
L 263.123249 253.212789 
L 265.53766 253.212789 
L 265.53766 244.443239 
L 267.952071 244.443239 
L 267.952071 258.474519 
L 270.366482 258.474519 
L 270.366482 256.720609 
L 272.780893 256.720609 
L 272.780893 257.597564 
L 275.195304 257.597564 
L 275.195304 253.212789 
L 277.609715 253.212789 
L 277.609715 257.597564 
L 280.024126 257.597564 
L 280.024126 260.228429 
L 282.438537 260.228429 
L 282.438537 264.613204 
L 284.852948 264.613204 
L 284.852948 265.490159 
L 287.267359 265.490159 
L 287.267359 264.613204 
L 289.68177 264.613204 
L 289.68177 282.152304 
L 292.096181 282.152304 
L 292.096181 289.167945 
L 294.510592 289.167945 
L 294.510592 295.30663 
L 296.925003 295.30663 
L 296.925003 290.0449 
L 299.339414 290.0449 
L 299.339414 297.06054 
L 301.753825 297.06054 
L 301.753825 290.921855 
L 304.168236 290.921855 
L 304.168236 297.937495 
L 308.997058 297.937495 
L 308.997058 294.429675 
L 311.411469 294.429675 
L 311.411469 292.675765 
L 313.825881 292.675765 
L 313.825881 297.06054 
L 316.240292 297.06054 
L 316.240292 291.79881 
L 318.654703 291.79881 
L 318.654703 296.183585 
L 321.069114 296.183585 
L 321.069114 295.30663 
L 323.483525 295.30663 
L 323.483525 293.55272 
L 325.897936 293.55272 
L 325.897936 297.06054 
L 328.312347 297.06054 
L 328.312347 292.675765 
L 330.726758 292.675765 
L 330.726758 294.429675 
L 333.141169 294.429675 
L 333.141169 296.183585 
L 335.55558 296.183585 
L 335.55558 299.691405 
L 337.969991 299.691405 
L 337.969991 294.429675 
L 340.384402 294.429675 
L 340.384402 305.83009 
L 342.798813 305.83009 
L 342.798813 301.445315 
L 345.213224 301.445315 
L 345.213224 303.199225 
L 350.042046 303.199225 
L 350.042046 305.83009 
L 352.456457 305.83009 
L 352.456457 306.707045 
L 354.870868 306.707045 
L 354.870868 304.953135 
L 357.285279 304.953135 
L 357.285279 306.707045 
L 359.69969 306.707045 
L 359.69969 305.83009 
L 362.114101 305.83009 
L 362.114101 307.584 
L 362.114101 307.584 
" style="fill:none;stroke:#0000ff;stroke-linejoin:miter;"/>
   </g>
   <g id="patch_305">
    <path clip-path="url(#pb2d13346aa)" d="M 123.202548 307.584 
L 123.202548 304.07618 
L 125.724247 304.07618 
L 125.724247 307.584 
L 128.245946 307.584 
L 128.245946 303.199225 
L 130.767644 303.199225 
L 130.767644 294.429675 
L 133.289343 294.429675 
L 133.289343 293.55272 
L 135.811042 293.55272 
L 135.811042 290.0449 
L 138.332741 290.0449 
L 138.332741 284.78317 
L 140.85444 284.78317 
L 140.85444 276.890574 
L 143.376138 276.890574 
L 143.376138 274.259709 
L 145.897837 274.259709 
L 145.897837 261.105384 
L 148.419536 261.105384 
L 148.419536 240.935419 
L 150.941235 240.935419 
L 150.941235 230.411958 
L 155.984632 230.411958 
L 155.984632 211.995903 
L 158.506331 211.995903 
L 158.506331 193.579848 
L 161.02803 193.579848 
L 161.02803 187.441163 
L 163.549729 187.441163 
L 163.549729 182.179433 
L 166.071427 182.179433 
L 166.071427 197.964623 
L 168.593126 197.964623 
L 168.593126 225.150228 
L 171.114825 225.150228 
L 171.114825 219.888498 
L 173.636524 219.888498 
L 173.636524 233.919779 
L 176.158223 233.919779 
L 176.158223 250.581924 
L 178.679921 250.581924 
L 178.679921 268.121024 
L 181.20162 268.121024 
L 181.20162 278.644484 
L 183.723319 278.644484 
L 183.723319 290.921855 
L 186.245018 290.921855 
L 186.245018 285.660125 
L 188.766717 285.660125 
L 188.766717 294.429675 
L 191.288415 294.429675 
L 191.288415 296.183585 
L 193.810114 296.183585 
L 193.810114 297.937495 
L 196.331813 297.937495 
L 196.331813 301.445315 
L 198.853512 301.445315 
L 198.853512 297.937495 
L 201.375211 297.937495 
L 201.375211 287.414035 
L 206.418608 287.414035 
L 206.418608 279.521439 
L 208.940307 279.521439 
L 208.940307 262.859294 
L 211.462006 262.859294 
L 211.462006 250.581924 
L 213.983705 250.581924 
L 213.983705 254.089744 
L 216.505403 254.089744 
L 216.505403 253.212789 
L 219.027102 253.212789 
L 219.027102 240.935419 
L 221.548801 240.935419 
L 221.548801 227.781093 
L 224.0705 227.781093 
L 224.0705 243.566284 
L 226.592199 243.566284 
L 226.592199 244.443239 
L 229.113897 244.443239 
L 229.113897 250.581924 
L 231.635596 250.581924 
L 231.635596 248.828014 
L 234.157295 248.828014 
L 234.157295 255.843654 
L 236.678994 255.843654 
L 236.678994 246.197149 
L 239.200692 246.197149 
L 239.200692 240.058464 
L 241.722391 240.058464 
L 241.722391 263.736249 
L 244.24409 263.736249 
L 244.24409 275.136664 
L 246.765789 275.136664 
L 246.765789 261.982339 
L 249.287488 261.982339 
L 249.287488 270.751889 
L 251.809186 270.751889 
L 251.809186 284.78317 
L 254.330885 284.78317 
L 254.330885 273.382754 
L 256.852584 273.382754 
L 256.852584 278.644484 
L 259.374283 278.644484 
L 259.374283 271.628844 
L 261.895982 271.628844 
L 261.895982 261.982339 
L 264.41768 261.982339 
L 264.41768 268.121024 
L 266.939379 268.121024 
L 266.939379 276.890574 
L 269.461078 276.890574 
L 269.461078 278.644484 
L 274.504476 278.644484 
L 274.504476 283.02926 
L 277.026174 283.02926 
L 277.026174 278.644484 
L 279.547873 278.644484 
L 279.547873 276.890574 
L 282.069572 276.890574 
L 282.069572 271.628844 
L 284.591271 271.628844 
L 284.591271 272.505799 
L 287.11297 272.505799 
L 287.11297 275.136664 
L 289.634668 275.136664 
L 289.634668 278.644484 
L 292.156367 278.644484 
L 292.156367 286.53708 
L 297.199765 286.53708 
L 297.199765 289.167945 
L 299.721464 289.167945 
L 299.721464 290.921855 
L 302.243162 290.921855 
L 302.243162 295.30663 
L 304.764861 295.30663 
L 304.764861 290.921855 
L 307.28656 290.921855 
L 307.28656 295.30663 
L 309.808259 295.30663 
L 309.808259 296.183585 
L 312.329958 296.183585 
L 312.329958 298.81445 
L 314.851656 298.81445 
L 314.851656 295.30663 
L 317.373355 295.30663 
L 317.373355 297.937495 
L 319.895054 297.937495 
L 319.895054 296.183585 
L 322.416753 296.183585 
L 322.416753 298.81445 
L 324.938451 298.81445 
L 324.938451 303.199225 
L 327.46015 303.199225 
L 327.46015 302.32227 
L 329.981849 302.32227 
L 329.981849 300.56836 
L 332.503548 300.56836 
L 332.503548 304.953135 
L 335.025247 304.953135 
L 335.025247 301.445315 
L 337.546945 301.445315 
L 337.546945 304.07618 
L 340.068644 304.07618 
L 340.068644 306.707045 
L 342.590343 306.707045 
L 342.590343 304.953135 
L 345.112042 304.953135 
L 345.112042 307.584 
L 372.850729 307.584 
L 372.850729 306.707045 
L 375.372427 306.707045 
L 375.372427 307.584 
L 375.372427 307.584 
" style="fill:none;stroke:#008000;stroke-linejoin:miter;"/>
   </g>
   <g id="patch_306">
    <path d="M 57.6 307.584 
L 57.6 41.472 
" style="fill:none;stroke:#000000;stroke-linecap:square;stroke-linejoin:miter;stroke-width:0.8;"/>
   </g>
   <g id="patch_307">
    <path d="M 414.72 307.584 
L 414.72 41.472 
" style="fill:none;stroke:#000000;stroke-linecap:square;stroke-linejoin:miter;stroke-width:0.8;"/>
   </g>
   <g id="patch_308">
    <path d="M 57.6 307.584 
L 414.72 307.584 
" style="fill:none;stroke:#000000;stroke-linecap:square;stroke-linejoin:miter;stroke-width:0.8;"/>
   </g>
   <g id="patch_309">
    <path d="M 57.6 41.472 
L 414.72 41.472 
" style="fill:none;stroke:#000000;stroke-linecap:square;stroke-linejoin:miter;stroke-width:0.8;"/>
   </g>
   <g id="legend_1">
    <g id="patch_310">
     <path d="M 321.37 93.506375 
L 407.72 93.506375 
Q 409.72 93.506375 409.72 91.506375 
L 409.72 48.472 
Q 409.72 46.472 407.72 46.472 
L 321.37 46.472 
Q 319.37 46.472 319.37 48.472 
L 319.37 91.506375 
Q 319.37 93.506375 321.37 93.506375 
z
" style="fill:#ffffff;opacity:0.8;stroke:#cccccc;stroke-linejoin:miter;"/>
    </g>
    <g id="patch_311">
     <path d="M 323.37 58.070438 
L 343.37 58.070438 
L 343.37 51.070438 
L 323.37 51.070438 
z
" style="fill:none;stroke:#ff0000;stroke-linejoin:miter;"/>
    </g>
    <g id="text_17">
     <!-- optimal -->
     <g transform="translate(351.37 58.070438)scale(0.1 -0.1)">
      <defs>
       <path d="M 1959 3097 
Q 1497 3097 1228 2736 
Q 959 2375 959 1747 
Q 959 1119 1226 758 
Q 1494 397 1959 397 
Q 2419 397 2687 759 
Q 2956 1122 2956 1747 
Q 2956 2369 2687 2733 
Q 2419 3097 1959 3097 
z
M 1959 3584 
Q 2709 3584 3137 3096 
Q 3566 2609 3566 1747 
Q 3566 888 3137 398 
Q 2709 -91 1959 -91 
Q 1206 -91 779 398 
Q 353 888 353 1747 
Q 353 2609 779 3096 
Q 1206 3584 1959 3584 
z
" id="DejaVuSans-6f" transform="scale(0.015625)"/>
       <path d="M 1159 525 
L 1159 -1331 
L 581 -1331 
L 581 3500 
L 1159 3500 
L 1159 2969 
Q 1341 3281 1617 3432 
Q 1894 3584 2278 3584 
Q 2916 3584 3314 3078 
Q 3713 2572 3713 1747 
Q 3713 922 3314 415 
Q 2916 -91 2278 -91 
Q 1894 -91 1617 61 
Q 1341 213 1159 525 
z
M 3116 1747 
Q 3116 2381 2855 2742 
Q 2594 3103 2138 3103 
Q 1681 3103 1420 2742 
Q 1159 2381 1159 1747 
Q 1159 1113 1420 752 
Q 1681 391 2138 391 
Q 2594 391 2855 752 
Q 3116 1113 3116 1747 
z
" id="DejaVuSans-70" transform="scale(0.015625)"/>
       <path d="M 1172 4494 
L 1172 3500 
L 2356 3500 
L 2356 3053 
L 1172 3053 
L 1172 1153 
Q 1172 725 1289 603 
Q 1406 481 1766 481 
L 2356 481 
L 2356 0 
L 1766 0 
Q 1100 0 847 248 
Q 594 497 594 1153 
L 594 3053 
L 172 3053 
L 172 3500 
L 594 3500 
L 594 4494 
L 1172 4494 
z
" id="DejaVuSans-74" transform="scale(0.015625)"/>
       <path d="M 603 3500 
L 1178 3500 
L 1178 0 
L 603 0 
L 603 3500 
z
M 603 4863 
L 1178 4863 
L 1178 4134 
L 603 4134 
L 603 4863 
z
" id="DejaVuSans-69" transform="scale(0.015625)"/>
       <path d="M 3328 2828 
Q 3544 3216 3844 3400 
Q 4144 3584 4550 3584 
Q 5097 3584 5394 3201 
Q 5691 2819 5691 2113 
L 5691 0 
L 5113 0 
L 5113 2094 
Q 5113 2597 4934 2840 
Q 4756 3084 4391 3084 
Q 3944 3084 3684 2787 
Q 3425 2491 3425 1978 
L 3425 0 
L 2847 0 
L 2847 2094 
Q 2847 2600 2669 2842 
Q 2491 3084 2119 3084 
Q 1678 3084 1418 2786 
Q 1159 2488 1159 1978 
L 1159 0 
L 581 0 
L 581 3500 
L 1159 3500 
L 1159 2956 
Q 1356 3278 1631 3431 
Q 1906 3584 2284 3584 
Q 2666 3584 2933 3390 
Q 3200 3197 3328 2828 
z
" id="DejaVuSans-6d" transform="scale(0.015625)"/>
       <path d="M 2194 1759 
Q 1497 1759 1228 1600 
Q 959 1441 959 1056 
Q 959 750 1161 570 
Q 1363 391 1709 391 
Q 2188 391 2477 730 
Q 2766 1069 2766 1631 
L 2766 1759 
L 2194 1759 
z
M 3341 1997 
L 3341 0 
L 2766 0 
L 2766 531 
Q 2569 213 2275 61 
Q 1981 -91 1556 -91 
Q 1019 -91 701 211 
Q 384 513 384 1019 
Q 384 1609 779 1909 
Q 1175 2209 1959 2209 
L 2766 2209 
L 2766 2266 
Q 2766 2663 2505 2880 
Q 2244 3097 1772 3097 
Q 1472 3097 1187 3025 
Q 903 2953 641 2809 
L 641 3341 
Q 956 3463 1253 3523 
Q 1550 3584 1831 3584 
Q 2591 3584 2966 3190 
Q 3341 2797 3341 1997 
z
" id="DejaVuSans-61" transform="scale(0.015625)"/>
       <path d="M 603 4863 
L 1178 4863 
L 1178 0 
L 603 0 
L 603 4863 
z
" id="DejaVuSans-6c" transform="scale(0.015625)"/>
      </defs>
      <use xlink:href="#DejaVuSans-6f"/>
      <use x="61.181641" xlink:href="#DejaVuSans-70"/>
      <use x="124.658203" xlink:href="#DejaVuSans-74"/>
      <use x="163.867188" xlink:href="#DejaVuSans-69"/>
      <use x="191.650391" xlink:href="#DejaVuSans-6d"/>
      <use x="289.0625" xlink:href="#DejaVuSans-61"/>
      <use x="350.341797" xlink:href="#DejaVuSans-6c"/>
     </g>
    </g>
    <g id="patch_312">
     <path d="M 323.37 72.748563 
L 343.37 72.748563 
L 343.37 65.748563 
L 323.37 65.748563 
z
" style="fill:none;stroke:#0000ff;stroke-linejoin:miter;"/>
    </g>
    <g id="text_18">
     <!-- high -->
     <g transform="translate(351.37 72.748563)scale(0.1 -0.1)">
      <defs>
       <path d="M 3513 2113 
L 3513 0 
L 2938 0 
L 2938 2094 
Q 2938 2591 2744 2837 
Q 2550 3084 2163 3084 
Q 1697 3084 1428 2787 
Q 1159 2491 1159 1978 
L 1159 0 
L 581 0 
L 581 4863 
L 1159 4863 
L 1159 2956 
Q 1366 3272 1645 3428 
Q 1925 3584 2291 3584 
Q 2894 3584 3203 3211 
Q 3513 2838 3513 2113 
z
" id="DejaVuSans-68" transform="scale(0.015625)"/>
       <path d="M 2906 1791 
Q 2906 2416 2648 2759 
Q 2391 3103 1925 3103 
Q 1463 3103 1205 2759 
Q 947 2416 947 1791 
Q 947 1169 1205 825 
Q 1463 481 1925 481 
Q 2391 481 2648 825 
Q 2906 1169 2906 1791 
z
M 3481 434 
Q 3481 -459 3084 -895 
Q 2688 -1331 1869 -1331 
Q 1566 -1331 1297 -1286 
Q 1028 -1241 775 -1147 
L 775 -588 
Q 1028 -725 1275 -790 
Q 1522 -856 1778 -856 
Q 2344 -856 2625 -561 
Q 2906 -266 2906 331 
L 2906 616 
Q 2728 306 2450 153 
Q 2172 0 1784 0 
Q 1141 0 747 490 
Q 353 981 353 1791 
Q 353 2603 747 3093 
Q 1141 3584 1784 3584 
Q 2172 3584 2450 3431 
Q 2728 3278 2906 2969 
L 2906 3500 
L 3481 3500 
L 3481 434 
z
" id="DejaVuSans-67" transform="scale(0.015625)"/>
      </defs>
      <use xlink:href="#DejaVuSans-68"/>
      <use x="63.378906" xlink:href="#DejaVuSans-69"/>
      <use x="91.162109" xlink:href="#DejaVuSans-67"/>
      <use x="154.638672" xlink:href="#DejaVuSans-68"/>
     </g>
    </g>
    <g id="patch_313">
     <path d="M 323.37 87.426688 
L 343.37 87.426688 
L 343.37 80.426688 
L 323.37 80.426688 
z
" style="fill:none;stroke:#008000;stroke-linejoin:miter;"/>
    </g>
    <g id="text_19">
     <!-- timed-high -->
     <g transform="translate(351.37 87.426688)scale(0.1 -0.1)">
      <defs>
       <path d="M 3597 1894 
L 3597 1613 
L 953 1613 
Q 991 1019 1311 708 
Q 1631 397 2203 397 
Q 2534 397 2845 478 
Q 3156 559 3463 722 
L 3463 178 
Q 3153 47 2828 -22 
Q 2503 -91 2169 -91 
Q 1331 -91 842 396 
Q 353 884 353 1716 
Q 353 2575 817 3079 
Q 1281 3584 2069 3584 
Q 2775 3584 3186 3129 
Q 3597 2675 3597 1894 
z
M 3022 2063 
Q 3016 2534 2758 2815 
Q 2500 3097 2075 3097 
Q 1594 3097 1305 2825 
Q 1016 2553 972 2059 
L 3022 2063 
z
" id="DejaVuSans-65" transform="scale(0.015625)"/>
       <path d="M 2906 2969 
L 2906 4863 
L 3481 4863 
L 3481 0 
L 2906 0 
L 2906 525 
Q 2725 213 2448 61 
Q 2172 -91 1784 -91 
Q 1150 -91 751 415 
Q 353 922 353 1747 
Q 353 2572 751 3078 
Q 1150 3584 1784 3584 
Q 2172 3584 2448 3432 
Q 2725 3281 2906 2969 
z
M 947 1747 
Q 947 1113 1208 752 
Q 1469 391 1925 391 
Q 2381 391 2643 752 
Q 2906 1113 2906 1747 
Q 2906 2381 2643 2742 
Q 2381 3103 1925 3103 
Q 1469 3103 1208 2742 
Q 947 2381 947 1747 
z
" id="DejaVuSans-64" transform="scale(0.015625)"/>
       <path d="M 313 2009 
L 1997 2009 
L 1997 1497 
L 313 1497 
L 313 2009 
z
" id="DejaVuSans-2d" transform="scale(0.015625)"/>
      </defs>
      <use xlink:href="#DejaVuSans-74"/>
      <use x="39.208984" xlink:href="#DejaVuSans-69"/>
      <use x="66.992188" xlink:href="#DejaVuSans-6d"/>
      <use x="164.404297" xlink:href="#DejaVuSans-65"/>
      <use x="225.927734" xlink:href="#DejaVuSans-64"/>
      <use x="289.404297" xlink:href="#DejaVuSans-2d"/>
      <use x="325.488281" xlink:href="#DejaVuSans-68"/>
      <use x="388.867188" xlink:href="#DejaVuSans-69"/>
      <use x="416.650391" xlink:href="#DejaVuSans-67"/>
      <use x="480.126953" xlink:href="#DejaVuSans-68"/>
     </g>
    </g>
   </g>
  </g>
 </g>
 <defs>
  <clipPath id="pb2d13346aa">
   <rect height="266.112" width="357.12" x="57.6" y="41.472"/>
  </clipPath>
 </defs>
</svg>
