<?xml version="1.0" encoding="utf-8" standalone="no"?>
<!DOCTYPE svg PUBLIC "-//W3C//DTD SVG 1.1//EN"
  "http://www.w3.org/Graphics/SVG/1.1/DTD/svg11.dtd">
<svg height="345.6pt" version="1.1" viewBox="0 0 460.8 345.6" width="460.8pt" xmlns="http://www.w3.org/2000/svg" xmlns:xlink="http://www.w3.org/1999/xlink">
 <metadata>
  <rdf:RDF xmlns:cc="http://creativecommons.org/ns#" xmlns:dc="http://purl.org/dc/elements/1.1/" xmlns:rdf="http://www.w3.org/1999/02/22-rdf-syntax-ns#">
   <cc:Work>
    <dc:type rdf:resource="http://purl.org/dc/dcmitype/StillImage"/>
    <dc:date>2021-09-22T14:17:30.316701</dc:date>
    <dc:format>image/svg+xml</dc:format>
    <dc:creator>
     <cc:Agent>
      <dc:title>Matplotlib v3.4.1, https://matplotlib.org/</dc:title>
     </cc:Agent>
    </dc:creator>
   </cc:Work>
  </rdf:RDF>
 </metadata>
 <defs>
  <style type="text/css">*{stroke-linecap:butt;stroke-linejoin:round;}</style>
 </defs>
 <g id="figure_1">
  <g id="patch_1">
   <path d="M 0 345.6 
L 460.8 345.6 
L 460.8 0 
L 0 0 
z
" style="fill:#ffffff;"/>
  </g>
  <g id="axes_1">
   <g id="patch_2">
    <path d="M 57.6 307.584 
L 414.72 307.584 
L 414.72 41.472 
L 57.6 41.472 
z
" style="fill:#ffffff;"/>
   </g>
   <g id="patch_3">
    <path clip-path="url(#pd14569a623)" d="M 108.462545 307.584 
L 111.362793 307.584 
L 111.362793 306.183779 
L 108.462545 306.183779 
z
" style="fill:#ff0000;opacity:0.2;"/>
   </g>
   <g id="patch_4">
    <path clip-path="url(#pd14569a623)" d="M 111.362793 307.584 
L 114.26304 307.584 
L 114.26304 307.584 
L 111.362793 307.584 
z
" style="fill:#ff0000;opacity:0.2;"/>
   </g>
   <g id="patch_5">
    <path clip-path="url(#pd14569a623)" d="M 114.26304 307.584 
L 117.163287 307.584 
L 117.163287 301.983116 
L 114.26304 301.983116 
z
" style="fill:#ff0000;opacity:0.2;"/>
   </g>
   <g id="patch_6">
    <path clip-path="url(#pd14569a623)" d="M 117.163287 307.584 
L 120.063535 307.584 
L 120.063535 307.584 
L 117.163287 307.584 
z
" style="fill:#ff0000;opacity:0.2;"/>
   </g>
   <g id="patch_7">
    <path clip-path="url(#pd14569a623)" d="M 120.063535 307.584 
L 122.963782 307.584 
L 122.963782 299.182674 
L 120.063535 299.182674 
z
" style="fill:#ff0000;opacity:0.2;"/>
   </g>
   <g id="patch_8">
    <path clip-path="url(#pd14569a623)" d="M 122.963782 307.584 
L 125.864029 307.584 
L 125.864029 304.783558 
L 122.963782 304.783558 
z
" style="fill:#ff0000;opacity:0.2;"/>
   </g>
   <g id="patch_9">
    <path clip-path="url(#pd14569a623)" d="M 125.864029 307.584 
L 128.764276 307.584 
L 128.764276 306.183779 
L 125.864029 306.183779 
z
" style="fill:#ff0000;opacity:0.2;"/>
   </g>
   <g id="patch_10">
    <path clip-path="url(#pd14569a623)" d="M 128.764276 307.584 
L 131.664524 307.584 
L 131.664524 303.383337 
L 128.764276 303.383337 
z
" style="fill:#ff0000;opacity:0.2;"/>
   </g>
   <g id="patch_11">
    <path clip-path="url(#pd14569a623)" d="M 131.664524 307.584 
L 134.564771 307.584 
L 134.564771 303.383337 
L 131.664524 303.383337 
z
" style="fill:#ff0000;opacity:0.2;"/>
   </g>
   <g id="patch_12">
    <path clip-path="url(#pd14569a623)" d="M 134.564771 307.584 
L 137.465018 307.584 
L 137.465018 303.383337 
L 134.564771 303.383337 
z
" style="fill:#ff0000;opacity:0.2;"/>
   </g>
   <g id="patch_13">
    <path clip-path="url(#pd14569a623)" d="M 137.465018 307.584 
L 140.365265 307.584 
L 140.365265 303.383337 
L 137.465018 303.383337 
z
" style="fill:#ff0000;opacity:0.2;"/>
   </g>
   <g id="patch_14">
    <path clip-path="url(#pd14569a623)" d="M 140.365265 307.584 
L 143.265513 307.584 
L 143.265513 300.582895 
L 140.365265 300.582895 
z
" style="fill:#ff0000;opacity:0.2;"/>
   </g>
   <g id="patch_15">
    <path clip-path="url(#pd14569a623)" d="M 143.265513 307.584 
L 146.16576 307.584 
L 146.16576 296.382232 
L 143.265513 296.382232 
z
" style="fill:#ff0000;opacity:0.2;"/>
   </g>
   <g id="patch_16">
    <path clip-path="url(#pd14569a623)" d="M 146.16576 307.584 
L 149.066007 307.584 
L 149.066007 293.58179 
L 146.16576 293.58179 
z
" style="fill:#ff0000;opacity:0.2;"/>
   </g>
   <g id="patch_17">
    <path clip-path="url(#pd14569a623)" d="M 149.066007 307.584 
L 151.966255 307.584 
L 151.966255 297.782453 
L 149.066007 297.782453 
z
" style="fill:#ff0000;opacity:0.2;"/>
   </g>
   <g id="patch_18">
    <path clip-path="url(#pd14569a623)" d="M 151.966255 307.584 
L 154.866502 307.584 
L 154.866502 296.382232 
L 151.966255 296.382232 
z
" style="fill:#ff0000;opacity:0.2;"/>
   </g>
   <g id="patch_19">
    <path clip-path="url(#pd14569a623)" d="M 154.866502 307.584 
L 157.766749 307.584 
L 157.766749 292.181569 
L 154.866502 292.181569 
z
" style="fill:#ff0000;opacity:0.2;"/>
   </g>
   <g id="patch_20">
    <path clip-path="url(#pd14569a623)" d="M 157.766749 307.584 
L 160.666996 307.584 
L 160.666996 297.782453 
L 157.766749 297.782453 
z
" style="fill:#ff0000;opacity:0.2;"/>
   </g>
   <g id="patch_21">
    <path clip-path="url(#pd14569a623)" d="M 160.666996 307.584 
L 163.567244 307.584 
L 163.567244 289.381127 
L 160.666996 289.381127 
z
" style="fill:#ff0000;opacity:0.2;"/>
   </g>
   <g id="patch_22">
    <path clip-path="url(#pd14569a623)" d="M 163.567244 307.584 
L 166.467491 307.584 
L 166.467491 285.180464 
L 163.567244 285.180464 
z
" style="fill:#ff0000;opacity:0.2;"/>
   </g>
   <g id="patch_23">
    <path clip-path="url(#pd14569a623)" d="M 166.467491 307.584 
L 169.367738 307.584 
L 169.367738 282.380022 
L 166.467491 282.380022 
z
" style="fill:#ff0000;opacity:0.2;"/>
   </g>
   <g id="patch_24">
    <path clip-path="url(#pd14569a623)" d="M 169.367738 307.584 
L 172.267985 307.584 
L 172.267985 280.979801 
L 169.367738 280.979801 
z
" style="fill:#ff0000;opacity:0.2;"/>
   </g>
   <g id="patch_25">
    <path clip-path="url(#pd14569a623)" d="M 172.267985 307.584 
L 175.168233 307.584 
L 175.168233 271.178254 
L 172.267985 271.178254 
z
" style="fill:#ff0000;opacity:0.2;"/>
   </g>
   <g id="patch_26">
    <path clip-path="url(#pd14569a623)" d="M 175.168233 307.584 
L 178.06848 307.584 
L 178.06848 282.380022 
L 175.168233 282.380022 
z
" style="fill:#ff0000;opacity:0.2;"/>
   </g>
   <g id="patch_27">
    <path clip-path="url(#pd14569a623)" d="M 178.06848 307.584 
L 180.968727 307.584 
L 180.968727 261.376707 
L 178.06848 261.376707 
z
" style="fill:#ff0000;opacity:0.2;"/>
   </g>
   <g id="patch_28">
    <path clip-path="url(#pd14569a623)" d="M 180.968727 307.584 
L 183.868975 307.584 
L 183.868975 272.578475 
L 180.968727 272.578475 
z
" style="fill:#ff0000;opacity:0.2;"/>
   </g>
   <g id="patch_29">
    <path clip-path="url(#pd14569a623)" d="M 183.868975 307.584 
L 186.769222 307.584 
L 186.769222 261.376707 
L 183.868975 261.376707 
z
" style="fill:#ff0000;opacity:0.2;"/>
   </g>
   <g id="patch_30">
    <path clip-path="url(#pd14569a623)" d="M 186.769222 307.584 
L 189.669469 307.584 
L 189.669469 269.778033 
L 186.769222 269.778033 
z
" style="fill:#ff0000;opacity:0.2;"/>
   </g>
   <g id="patch_31">
    <path clip-path="url(#pd14569a623)" d="M 189.669469 307.584 
L 192.569716 307.584 
L 192.569716 233.372287 
L 189.669469 233.372287 
z
" style="fill:#ff0000;opacity:0.2;"/>
   </g>
   <g id="patch_32">
    <path clip-path="url(#pd14569a623)" d="M 192.569716 307.584 
L 195.469964 307.584 
L 195.469964 245.974276 
L 192.569716 245.974276 
z
" style="fill:#ff0000;opacity:0.2;"/>
   </g>
   <g id="patch_33">
    <path clip-path="url(#pd14569a623)" d="M 195.469964 307.584 
L 198.370211 307.584 
L 198.370211 251.57516 
L 195.469964 251.57516 
z
" style="fill:#ff0000;opacity:0.2;"/>
   </g>
   <g id="patch_34">
    <path clip-path="url(#pd14569a623)" d="M 198.370211 307.584 
L 201.270458 307.584 
L 201.270458 243.173834 
L 198.370211 243.173834 
z
" style="fill:#ff0000;opacity:0.2;"/>
   </g>
   <g id="patch_35">
    <path clip-path="url(#pd14569a623)" d="M 201.270458 307.584 
L 204.170705 307.584 
L 204.170705 209.56853 
L 201.270458 209.56853 
z
" style="fill:#ff0000;opacity:0.2;"/>
   </g>
   <g id="patch_36">
    <path clip-path="url(#pd14569a623)" d="M 204.170705 307.584 
L 207.070953 307.584 
L 207.070953 201.167204 
L 204.170705 201.167204 
z
" style="fill:#ff0000;opacity:0.2;"/>
   </g>
   <g id="patch_37">
    <path clip-path="url(#pd14569a623)" d="M 207.070953 307.584 
L 209.9712 307.584 
L 209.9712 203.967646 
L 207.070953 203.967646 
z
" style="fill:#ff0000;opacity:0.2;"/>
   </g>
   <g id="patch_38">
    <path clip-path="url(#pd14569a623)" d="M 209.9712 307.584 
L 212.871447 307.584 
L 212.871447 220.770298 
L 209.9712 220.770298 
z
" style="fill:#ff0000;opacity:0.2;"/>
   </g>
   <g id="patch_39">
    <path clip-path="url(#pd14569a623)" d="M 212.871447 307.584 
L 215.771695 307.584 
L 215.771695 208.168309 
L 212.871447 208.168309 
z
" style="fill:#ff0000;opacity:0.2;"/>
   </g>
   <g id="patch_40">
    <path clip-path="url(#pd14569a623)" d="M 215.771695 307.584 
L 218.671942 307.584 
L 218.671942 161.961017 
L 215.771695 161.961017 
z
" style="fill:#ff0000;opacity:0.2;"/>
   </g>
   <g id="patch_41">
    <path clip-path="url(#pd14569a623)" d="M 218.671942 307.584 
L 221.572189 307.584 
L 221.572189 191.365657 
L 218.671942 191.365657 
z
" style="fill:#ff0000;opacity:0.2;"/>
   </g>
   <g id="patch_42">
    <path clip-path="url(#pd14569a623)" d="M 221.572189 307.584 
L 224.472436 307.584 
L 224.472436 192.765878 
L 221.572189 192.765878 
z
" style="fill:#ff0000;opacity:0.2;"/>
   </g>
   <g id="patch_43">
    <path clip-path="url(#pd14569a623)" d="M 224.472436 307.584 
L 227.372684 307.584 
L 227.372684 163.361238 
L 224.472436 163.361238 
z
" style="fill:#ff0000;opacity:0.2;"/>
   </g>
   <g id="patch_44">
    <path clip-path="url(#pd14569a623)" d="M 227.372684 307.584 
L 230.272931 307.584 
L 230.272931 159.160575 
L 227.372684 159.160575 
z
" style="fill:#ff0000;opacity:0.2;"/>
   </g>
   <g id="patch_45">
    <path clip-path="url(#pd14569a623)" d="M 230.272931 307.584 
L 233.173178 307.584 
L 233.173178 138.15726 
L 230.272931 138.15726 
z
" style="fill:#ff0000;opacity:0.2;"/>
   </g>
   <g id="patch_46">
    <path clip-path="url(#pd14569a623)" d="M 233.173178 307.584 
L 236.073425 307.584 
L 236.073425 166.16168 
L 233.173178 166.16168 
z
" style="fill:#ff0000;opacity:0.2;"/>
   </g>
   <g id="patch_47">
    <path clip-path="url(#pd14569a623)" d="M 236.073425 307.584 
L 238.973673 307.584 
L 238.973673 131.156155 
L 236.073425 131.156155 
z
" style="fill:#ff0000;opacity:0.2;"/>
   </g>
   <g id="patch_48">
    <path clip-path="url(#pd14569a623)" d="M 238.973673 307.584 
L 241.87392 307.584 
L 241.87392 145.158365 
L 238.973673 145.158365 
z
" style="fill:#ff0000;opacity:0.2;"/>
   </g>
   <g id="patch_49">
    <path clip-path="url(#pd14569a623)" d="M 241.87392 307.584 
L 244.774167 307.584 
L 244.774167 149.359028 
L 241.87392 149.359028 
z
" style="fill:#ff0000;opacity:0.2;"/>
   </g>
   <g id="patch_50">
    <path clip-path="url(#pd14569a623)" d="M 244.774167 307.584 
L 247.674415 307.584 
L 247.674415 126.955492 
L 244.774167 126.955492 
z
" style="fill:#ff0000;opacity:0.2;"/>
   </g>
   <g id="patch_51">
    <path clip-path="url(#pd14569a623)" d="M 247.674415 307.584 
L 250.574662 307.584 
L 250.574662 100.351293 
L 247.674415 100.351293 
z
" style="fill:#ff0000;opacity:0.2;"/>
   </g>
   <g id="patch_52">
    <path clip-path="url(#pd14569a623)" d="M 250.574662 307.584 
L 253.474909 307.584 
L 253.474909 138.15726 
L 250.574662 138.15726 
z
" style="fill:#ff0000;opacity:0.2;"/>
   </g>
   <g id="patch_53">
    <path clip-path="url(#pd14569a623)" d="M 253.474909 307.584 
L 256.375156 307.584 
L 256.375156 80.748199 
L 253.474909 80.748199 
z
" style="fill:#ff0000;opacity:0.2;"/>
   </g>
   <g id="patch_54">
    <path clip-path="url(#pd14569a623)" d="M 256.375156 307.584 
L 259.275404 307.584 
L 259.275404 89.149525 
L 256.375156 89.149525 
z
" style="fill:#ff0000;opacity:0.2;"/>
   </g>
   <g id="patch_55">
    <path clip-path="url(#pd14569a623)" d="M 259.275404 307.584 
L 262.175651 307.584 
L 262.175651 76.547536 
L 259.275404 76.547536 
z
" style="fill:#ff0000;opacity:0.2;"/>
   </g>
   <g id="patch_56">
    <path clip-path="url(#pd14569a623)" d="M 262.175651 307.584 
L 265.075898 307.584 
L 265.075898 105.952177 
L 262.175651 105.952177 
z
" style="fill:#ff0000;opacity:0.2;"/>
   </g>
   <g id="patch_57">
    <path clip-path="url(#pd14569a623)" d="M 265.075898 307.584 
L 267.976145 307.584 
L 267.976145 58.344663 
L 265.075898 58.344663 
z
" style="fill:#ff0000;opacity:0.2;"/>
   </g>
   <g id="patch_58">
    <path clip-path="url(#pd14569a623)" d="M 267.976145 307.584 
L 270.876393 307.584 
L 270.876393 90.549746 
L 267.976145 90.549746 
z
" style="fill:#ff0000;opacity:0.2;"/>
   </g>
   <g id="patch_59">
    <path clip-path="url(#pd14569a623)" d="M 270.876393 307.584 
L 273.77664 307.584 
L 273.77664 101.751514 
L 270.876393 101.751514 
z
" style="fill:#ff0000;opacity:0.2;"/>
   </g>
   <g id="patch_60">
    <path clip-path="url(#pd14569a623)" d="M 273.77664 307.584 
L 276.676887 307.584 
L 276.676887 82.14842 
L 273.77664 82.14842 
z
" style="fill:#ff0000;opacity:0.2;"/>
   </g>
   <g id="patch_61">
    <path clip-path="url(#pd14569a623)" d="M 276.676887 307.584 
L 279.577135 307.584 
L 279.577135 100.351293 
L 276.676887 100.351293 
z
" style="fill:#ff0000;opacity:0.2;"/>
   </g>
   <g id="patch_62">
    <path clip-path="url(#pd14569a623)" d="M 279.577135 307.584 
L 282.477382 307.584 
L 282.477382 145.158365 
L 279.577135 145.158365 
z
" style="fill:#ff0000;opacity:0.2;"/>
   </g>
   <g id="patch_63">
    <path clip-path="url(#pd14569a623)" d="M 282.477382 307.584 
L 285.377629 307.584 
L 285.377629 108.752619 
L 282.477382 108.752619 
z
" style="fill:#ff0000;opacity:0.2;"/>
   </g>
   <g id="patch_64">
    <path clip-path="url(#pd14569a623)" d="M 285.377629 307.584 
L 288.277876 307.584 
L 288.277876 59.744884 
L 285.377629 59.744884 
z
" style="fill:#ff0000;opacity:0.2;"/>
   </g>
   <g id="patch_65">
    <path clip-path="url(#pd14569a623)" d="M 288.277876 307.584 
L 291.178124 307.584 
L 291.178124 70.946652 
L 288.277876 70.946652 
z
" style="fill:#ff0000;opacity:0.2;"/>
   </g>
   <g id="patch_66">
    <path clip-path="url(#pd14569a623)" d="M 291.178124 307.584 
L 294.078371 307.584 
L 294.078371 118.554166 
L 291.178124 118.554166 
z
" style="fill:#ff0000;opacity:0.2;"/>
   </g>
   <g id="patch_67">
    <path clip-path="url(#pd14569a623)" d="M 294.078371 307.584 
L 296.978618 307.584 
L 296.978618 104.551956 
L 294.078371 104.551956 
z
" style="fill:#ff0000;opacity:0.2;"/>
   </g>
   <g id="patch_68">
    <path clip-path="url(#pd14569a623)" d="M 296.978618 307.584 
L 299.878865 307.584 
L 299.878865 124.15505 
L 296.978618 124.15505 
z
" style="fill:#ff0000;opacity:0.2;"/>
   </g>
   <g id="patch_69">
    <path clip-path="url(#pd14569a623)" d="M 299.878865 307.584 
L 302.779113 307.584 
L 302.779113 115.753724 
L 299.878865 115.753724 
z
" style="fill:#ff0000;opacity:0.2;"/>
   </g>
   <g id="patch_70">
    <path clip-path="url(#pd14569a623)" d="M 302.779113 307.584 
L 305.67936 307.584 
L 305.67936 121.354608 
L 302.779113 121.354608 
z
" style="fill:#ff0000;opacity:0.2;"/>
   </g>
   <g id="patch_71">
    <path clip-path="url(#pd14569a623)" d="M 305.67936 307.584 
L 308.579607 307.584 
L 308.579607 152.15947 
L 305.67936 152.15947 
z
" style="fill:#ff0000;opacity:0.2;"/>
   </g>
   <g id="patch_72">
    <path clip-path="url(#pd14569a623)" d="M 308.579607 307.584 
L 311.479855 307.584 
L 311.479855 139.557481 
L 308.579607 139.557481 
z
" style="fill:#ff0000;opacity:0.2;"/>
   </g>
   <g id="patch_73">
    <path clip-path="url(#pd14569a623)" d="M 311.479855 307.584 
L 314.380102 307.584 
L 314.380102 122.754829 
L 311.479855 122.754829 
z
" style="fill:#ff0000;opacity:0.2;"/>
   </g>
   <g id="patch_74">
    <path clip-path="url(#pd14569a623)" d="M 314.380102 307.584 
L 317.280349 307.584 
L 317.280349 138.15726 
L 314.380102 138.15726 
z
" style="fill:#ff0000;opacity:0.2;"/>
   </g>
   <g id="patch_75">
    <path clip-path="url(#pd14569a623)" d="M 317.280349 307.584 
L 320.180596 307.584 
L 320.180596 136.757039 
L 317.280349 136.757039 
z
" style="fill:#ff0000;opacity:0.2;"/>
   </g>
   <g id="patch_76">
    <path clip-path="url(#pd14569a623)" d="M 320.180596 307.584 
L 323.080844 307.584 
L 323.080844 191.365657 
L 320.180596 191.365657 
z
" style="fill:#ff0000;opacity:0.2;"/>
   </g>
   <g id="patch_77">
    <path clip-path="url(#pd14569a623)" d="M 323.080844 307.584 
L 325.981091 307.584 
L 325.981091 156.360133 
L 323.080844 156.360133 
z
" style="fill:#ff0000;opacity:0.2;"/>
   </g>
   <g id="patch_78">
    <path clip-path="url(#pd14569a623)" d="M 325.981091 307.584 
L 328.881338 307.584 
L 328.881338 198.366762 
L 325.981091 198.366762 
z
" style="fill:#ff0000;opacity:0.2;"/>
   </g>
   <g id="patch_79">
    <path clip-path="url(#pd14569a623)" d="M 328.881338 307.584 
L 331.781585 307.584 
L 331.781585 189.965436 
L 328.881338 189.965436 
z
" style="fill:#ff0000;opacity:0.2;"/>
   </g>
   <g id="patch_80">
    <path clip-path="url(#pd14569a623)" d="M 331.781585 307.584 
L 334.681833 307.584 
L 334.681833 194.166099 
L 331.781585 194.166099 
z
" style="fill:#ff0000;opacity:0.2;"/>
   </g>
   <g id="patch_81">
    <path clip-path="url(#pd14569a623)" d="M 334.681833 307.584 
L 337.58208 307.584 
L 337.58208 210.968751 
L 334.681833 210.968751 
z
" style="fill:#ff0000;opacity:0.2;"/>
   </g>
   <g id="patch_82">
    <path clip-path="url(#pd14569a623)" d="M 337.58208 307.584 
L 340.482327 307.584 
L 340.482327 230.571845 
L 337.58208 230.571845 
z
" style="fill:#ff0000;opacity:0.2;"/>
   </g>
   <g id="patch_83">
    <path clip-path="url(#pd14569a623)" d="M 340.482327 307.584 
L 343.382575 307.584 
L 343.382575 229.171624 
L 340.482327 229.171624 
z
" style="fill:#ff0000;opacity:0.2;"/>
   </g>
   <g id="patch_84">
    <path clip-path="url(#pd14569a623)" d="M 343.382575 307.584 
L 346.282822 307.584 
L 346.282822 231.972066 
L 343.382575 231.972066 
z
" style="fill:#ff0000;opacity:0.2;"/>
   </g>
   <g id="patch_85">
    <path clip-path="url(#pd14569a623)" d="M 346.282822 307.584 
L 349.183069 307.584 
L 349.183069 240.373392 
L 346.282822 240.373392 
z
" style="fill:#ff0000;opacity:0.2;"/>
   </g>
   <g id="patch_86">
    <path clip-path="url(#pd14569a623)" d="M 349.183069 307.584 
L 352.083316 307.584 
L 352.083316 266.977591 
L 349.183069 266.977591 
z
" style="fill:#ff0000;opacity:0.2;"/>
   </g>
   <g id="patch_87">
    <path clip-path="url(#pd14569a623)" d="M 352.083316 307.584 
L 354.983564 307.584 
L 354.983564 248.774718 
L 352.083316 248.774718 
z
" style="fill:#ff0000;opacity:0.2;"/>
   </g>
   <g id="patch_88">
    <path clip-path="url(#pd14569a623)" d="M 354.983564 307.584 
L 357.883811 307.584 
L 357.883811 264.177149 
L 354.983564 264.177149 
z
" style="fill:#ff0000;opacity:0.2;"/>
   </g>
   <g id="patch_89">
    <path clip-path="url(#pd14569a623)" d="M 357.883811 307.584 
L 360.784058 307.584 
L 360.784058 280.979801 
L 357.883811 280.979801 
z
" style="fill:#ff0000;opacity:0.2;"/>
   </g>
   <g id="patch_90">
    <path clip-path="url(#pd14569a623)" d="M 360.784058 307.584 
L 363.684305 307.584 
L 363.684305 276.779138 
L 360.784058 276.779138 
z
" style="fill:#ff0000;opacity:0.2;"/>
   </g>
   <g id="patch_91">
    <path clip-path="url(#pd14569a623)" d="M 363.684305 307.584 
L 366.584553 307.584 
L 366.584553 280.979801 
L 363.684305 280.979801 
z
" style="fill:#ff0000;opacity:0.2;"/>
   </g>
   <g id="patch_92">
    <path clip-path="url(#pd14569a623)" d="M 366.584553 307.584 
L 369.4848 307.584 
L 369.4848 280.979801 
L 366.584553 280.979801 
z
" style="fill:#ff0000;opacity:0.2;"/>
   </g>
   <g id="patch_93">
    <path clip-path="url(#pd14569a623)" d="M 369.4848 307.584 
L 372.385047 307.584 
L 372.385047 292.181569 
L 369.4848 292.181569 
z
" style="fill:#ff0000;opacity:0.2;"/>
   </g>
   <g id="patch_94">
    <path clip-path="url(#pd14569a623)" d="M 372.385047 307.584 
L 375.285295 307.584 
L 375.285295 290.781348 
L 372.385047 290.781348 
z
" style="fill:#ff0000;opacity:0.2;"/>
   </g>
   <g id="patch_95">
    <path clip-path="url(#pd14569a623)" d="M 375.285295 307.584 
L 378.185542 307.584 
L 378.185542 294.982011 
L 375.285295 294.982011 
z
" style="fill:#ff0000;opacity:0.2;"/>
   </g>
   <g id="patch_96">
    <path clip-path="url(#pd14569a623)" d="M 378.185542 307.584 
L 381.085789 307.584 
L 381.085789 299.182674 
L 378.185542 299.182674 
z
" style="fill:#ff0000;opacity:0.2;"/>
   </g>
   <g id="patch_97">
    <path clip-path="url(#pd14569a623)" d="M 381.085789 307.584 
L 383.986036 307.584 
L 383.986036 301.983116 
L 381.085789 301.983116 
z
" style="fill:#ff0000;opacity:0.2;"/>
   </g>
   <g id="patch_98">
    <path clip-path="url(#pd14569a623)" d="M 383.986036 307.584 
L 386.886284 307.584 
L 386.886284 300.582895 
L 383.986036 300.582895 
z
" style="fill:#ff0000;opacity:0.2;"/>
   </g>
   <g id="patch_99">
    <path clip-path="url(#pd14569a623)" d="M 386.886284 307.584 
L 389.786531 307.584 
L 389.786531 301.983116 
L 386.886284 301.983116 
z
" style="fill:#ff0000;opacity:0.2;"/>
   </g>
   <g id="patch_100">
    <path clip-path="url(#pd14569a623)" d="M 389.786531 307.584 
L 392.686778 307.584 
L 392.686778 306.183779 
L 389.786531 306.183779 
z
" style="fill:#ff0000;opacity:0.2;"/>
   </g>
   <g id="patch_101">
    <path clip-path="url(#pd14569a623)" d="M 392.686778 307.584 
L 395.587025 307.584 
L 395.587025 307.584 
L 392.686778 307.584 
z
" style="fill:#ff0000;opacity:0.2;"/>
   </g>
   <g id="patch_102">
    <path clip-path="url(#pd14569a623)" d="M 395.587025 307.584 
L 398.487273 307.584 
L 398.487273 304.783558 
L 395.587025 304.783558 
z
" style="fill:#ff0000;opacity:0.2;"/>
   </g>
   <g id="patch_103">
    <path clip-path="url(#pd14569a623)" d="M 73.832727 307.584 
L 77.001356 307.584 
L 77.001356 306.183779 
L 73.832727 306.183779 
z
" style="fill:#0000ff;opacity:0.3;"/>
   </g>
   <g id="patch_104">
    <path clip-path="url(#pd14569a623)" d="M 77.001356 307.584 
L 80.169984 307.584 
L 80.169984 307.584 
L 77.001356 307.584 
z
" style="fill:#0000ff;opacity:0.3;"/>
   </g>
   <g id="patch_105">
    <path clip-path="url(#pd14569a623)" d="M 80.169984 307.584 
L 83.338612 307.584 
L 83.338612 307.584 
L 80.169984 307.584 
z
" style="fill:#0000ff;opacity:0.3;"/>
   </g>
   <g id="patch_106">
    <path clip-path="url(#pd14569a623)" d="M 83.338612 307.584 
L 86.507241 307.584 
L 86.507241 307.584 
L 83.338612 307.584 
z
" style="fill:#0000ff;opacity:0.3;"/>
   </g>
   <g id="patch_107">
    <path clip-path="url(#pd14569a623)" d="M 86.507241 307.584 
L 89.675869 307.584 
L 89.675869 307.584 
L 86.507241 307.584 
z
" style="fill:#0000ff;opacity:0.3;"/>
   </g>
   <g id="patch_108">
    <path clip-path="url(#pd14569a623)" d="M 89.675869 307.584 
L 92.844497 307.584 
L 92.844497 307.584 
L 89.675869 307.584 
z
" style="fill:#0000ff;opacity:0.3;"/>
   </g>
   <g id="patch_109">
    <path clip-path="url(#pd14569a623)" d="M 92.844497 307.584 
L 96.013126 307.584 
L 96.013126 307.584 
L 92.844497 307.584 
z
" style="fill:#0000ff;opacity:0.3;"/>
   </g>
   <g id="patch_110">
    <path clip-path="url(#pd14569a623)" d="M 96.013126 307.584 
L 99.181754 307.584 
L 99.181754 307.584 
L 96.013126 307.584 
z
" style="fill:#0000ff;opacity:0.3;"/>
   </g>
   <g id="patch_111">
    <path clip-path="url(#pd14569a623)" d="M 99.181754 307.584 
L 102.350383 307.584 
L 102.350383 307.584 
L 99.181754 307.584 
z
" style="fill:#0000ff;opacity:0.3;"/>
   </g>
   <g id="patch_112">
    <path clip-path="url(#pd14569a623)" d="M 102.350383 307.584 
L 105.519011 307.584 
L 105.519011 307.584 
L 102.350383 307.584 
z
" style="fill:#0000ff;opacity:0.3;"/>
   </g>
   <g id="patch_113">
    <path clip-path="url(#pd14569a623)" d="M 105.519011 307.584 
L 108.687639 307.584 
L 108.687639 307.584 
L 105.519011 307.584 
z
" style="fill:#0000ff;opacity:0.3;"/>
   </g>
   <g id="patch_114">
    <path clip-path="url(#pd14569a623)" d="M 108.687639 307.584 
L 111.856268 307.584 
L 111.856268 304.783558 
L 108.687639 304.783558 
z
" style="fill:#0000ff;opacity:0.3;"/>
   </g>
   <g id="patch_115">
    <path clip-path="url(#pd14569a623)" d="M 111.856268 307.584 
L 115.024896 307.584 
L 115.024896 304.783558 
L 111.856268 304.783558 
z
" style="fill:#0000ff;opacity:0.3;"/>
   </g>
   <g id="patch_116">
    <path clip-path="url(#pd14569a623)" d="M 115.024896 307.584 
L 118.193524 307.584 
L 118.193524 306.183779 
L 115.024896 306.183779 
z
" style="fill:#0000ff;opacity:0.3;"/>
   </g>
   <g id="patch_117">
    <path clip-path="url(#pd14569a623)" d="M 118.193524 307.584 
L 121.362153 307.584 
L 121.362153 304.783558 
L 118.193524 304.783558 
z
" style="fill:#0000ff;opacity:0.3;"/>
   </g>
   <g id="patch_118">
    <path clip-path="url(#pd14569a623)" d="M 121.362153 307.584 
L 124.530781 307.584 
L 124.530781 303.383337 
L 121.362153 303.383337 
z
" style="fill:#0000ff;opacity:0.3;"/>
   </g>
   <g id="patch_119">
    <path clip-path="url(#pd14569a623)" d="M 124.530781 307.584 
L 127.699409 307.584 
L 127.699409 301.983116 
L 124.530781 301.983116 
z
" style="fill:#0000ff;opacity:0.3;"/>
   </g>
   <g id="patch_120">
    <path clip-path="url(#pd14569a623)" d="M 127.699409 307.584 
L 130.868038 307.584 
L 130.868038 303.383337 
L 127.699409 303.383337 
z
" style="fill:#0000ff;opacity:0.3;"/>
   </g>
   <g id="patch_121">
    <path clip-path="url(#pd14569a623)" d="M 130.868038 307.584 
L 134.036666 307.584 
L 134.036666 303.383337 
L 130.868038 303.383337 
z
" style="fill:#0000ff;opacity:0.3;"/>
   </g>
   <g id="patch_122">
    <path clip-path="url(#pd14569a623)" d="M 134.036666 307.584 
L 137.205295 307.584 
L 137.205295 297.782453 
L 134.036666 297.782453 
z
" style="fill:#0000ff;opacity:0.3;"/>
   </g>
   <g id="patch_123">
    <path clip-path="url(#pd14569a623)" d="M 137.205295 307.584 
L 140.373923 307.584 
L 140.373923 297.782453 
L 137.205295 297.782453 
z
" style="fill:#0000ff;opacity:0.3;"/>
   </g>
   <g id="patch_124">
    <path clip-path="url(#pd14569a623)" d="M 140.373923 307.584 
L 143.542551 307.584 
L 143.542551 290.781348 
L 140.373923 290.781348 
z
" style="fill:#0000ff;opacity:0.3;"/>
   </g>
   <g id="patch_125">
    <path clip-path="url(#pd14569a623)" d="M 143.542551 307.584 
L 146.71118 307.584 
L 146.71118 299.182674 
L 143.542551 299.182674 
z
" style="fill:#0000ff;opacity:0.3;"/>
   </g>
   <g id="patch_126">
    <path clip-path="url(#pd14569a623)" d="M 146.71118 307.584 
L 149.879808 307.584 
L 149.879808 296.382232 
L 146.71118 296.382232 
z
" style="fill:#0000ff;opacity:0.3;"/>
   </g>
   <g id="patch_127">
    <path clip-path="url(#pd14569a623)" d="M 149.879808 307.584 
L 153.048436 307.584 
L 153.048436 283.780243 
L 149.879808 283.780243 
z
" style="fill:#0000ff;opacity:0.3;"/>
   </g>
   <g id="patch_128">
    <path clip-path="url(#pd14569a623)" d="M 153.048436 307.584 
L 156.217065 307.584 
L 156.217065 289.381127 
L 153.048436 289.381127 
z
" style="fill:#0000ff;opacity:0.3;"/>
   </g>
   <g id="patch_129">
    <path clip-path="url(#pd14569a623)" d="M 156.217065 307.584 
L 159.385693 307.584 
L 159.385693 289.381127 
L 156.217065 289.381127 
z
" style="fill:#0000ff;opacity:0.3;"/>
   </g>
   <g id="patch_130">
    <path clip-path="url(#pd14569a623)" d="M 159.385693 307.584 
L 162.554321 307.584 
L 162.554321 279.57958 
L 159.385693 279.57958 
z
" style="fill:#0000ff;opacity:0.3;"/>
   </g>
   <g id="patch_131">
    <path clip-path="url(#pd14569a623)" d="M 162.554321 307.584 
L 165.72295 307.584 
L 165.72295 265.57737 
L 162.554321 265.57737 
z
" style="fill:#0000ff;opacity:0.3;"/>
   </g>
   <g id="patch_132">
    <path clip-path="url(#pd14569a623)" d="M 165.72295 307.584 
L 168.891578 307.584 
L 168.891578 265.57737 
L 165.72295 265.57737 
z
" style="fill:#0000ff;opacity:0.3;"/>
   </g>
   <g id="patch_133">
    <path clip-path="url(#pd14569a623)" d="M 168.891578 307.584 
L 172.060207 307.584 
L 172.060207 268.377812 
L 168.891578 268.377812 
z
" style="fill:#0000ff;opacity:0.3;"/>
   </g>
   <g id="patch_134">
    <path clip-path="url(#pd14569a623)" d="M 172.060207 307.584 
L 175.228835 307.584 
L 175.228835 283.780243 
L 172.060207 283.780243 
z
" style="fill:#0000ff;opacity:0.3;"/>
   </g>
   <g id="patch_135">
    <path clip-path="url(#pd14569a623)" d="M 175.228835 307.584 
L 178.397463 307.584 
L 178.397463 266.977591 
L 175.228835 266.977591 
z
" style="fill:#0000ff;opacity:0.3;"/>
   </g>
   <g id="patch_136">
    <path clip-path="url(#pd14569a623)" d="M 178.397463 307.584 
L 181.566092 307.584 
L 181.566092 269.778033 
L 178.397463 269.778033 
z
" style="fill:#0000ff;opacity:0.3;"/>
   </g>
   <g id="patch_137">
    <path clip-path="url(#pd14569a623)" d="M 181.566092 307.584 
L 184.73472 307.584 
L 184.73472 250.174939 
L 181.566092 250.174939 
z
" style="fill:#0000ff;opacity:0.3;"/>
   </g>
   <g id="patch_138">
    <path clip-path="url(#pd14569a623)" d="M 184.73472 307.584 
L 187.903348 307.584 
L 187.903348 255.775823 
L 184.73472 255.775823 
z
" style="fill:#0000ff;opacity:0.3;"/>
   </g>
   <g id="patch_139">
    <path clip-path="url(#pd14569a623)" d="M 187.903348 307.584 
L 191.071977 307.584 
L 191.071977 252.975381 
L 187.903348 252.975381 
z
" style="fill:#0000ff;opacity:0.3;"/>
   </g>
   <g id="patch_140">
    <path clip-path="url(#pd14569a623)" d="M 191.071977 307.584 
L 194.240605 307.584 
L 194.240605 226.371182 
L 191.071977 226.371182 
z
" style="fill:#0000ff;opacity:0.3;"/>
   </g>
   <g id="patch_141">
    <path clip-path="url(#pd14569a623)" d="M 194.240605 307.584 
L 197.409233 307.584 
L 197.409233 231.972066 
L 194.240605 231.972066 
z
" style="fill:#0000ff;opacity:0.3;"/>
   </g>
   <g id="patch_142">
    <path clip-path="url(#pd14569a623)" d="M 197.409233 307.584 
L 200.577862 307.584 
L 200.577862 250.174939 
L 197.409233 250.174939 
z
" style="fill:#0000ff;opacity:0.3;"/>
   </g>
   <g id="patch_143">
    <path clip-path="url(#pd14569a623)" d="M 200.577862 307.584 
L 203.74649 307.584 
L 203.74649 192.765878 
L 200.577862 192.765878 
z
" style="fill:#0000ff;opacity:0.3;"/>
   </g>
   <g id="patch_144">
    <path clip-path="url(#pd14569a623)" d="M 203.74649 307.584 
L 206.915119 307.584 
L 206.915119 217.969856 
L 203.74649 217.969856 
z
" style="fill:#0000ff;opacity:0.3;"/>
   </g>
   <g id="patch_145">
    <path clip-path="url(#pd14569a623)" d="M 206.915119 307.584 
L 210.083747 307.584 
L 210.083747 209.56853 
L 206.915119 209.56853 
z
" style="fill:#0000ff;opacity:0.3;"/>
   </g>
   <g id="patch_146">
    <path clip-path="url(#pd14569a623)" d="M 210.083747 307.584 
L 213.252375 307.584 
L 213.252375 199.766983 
L 210.083747 199.766983 
z
" style="fill:#0000ff;opacity:0.3;"/>
   </g>
   <g id="patch_147">
    <path clip-path="url(#pd14569a623)" d="M 213.252375 307.584 
L 216.421004 307.584 
L 216.421004 167.561901 
L 213.252375 167.561901 
z
" style="fill:#0000ff;opacity:0.3;"/>
   </g>
   <g id="patch_148">
    <path clip-path="url(#pd14569a623)" d="M 216.421004 307.584 
L 219.589632 307.584 
L 219.589632 210.968751 
L 216.421004 210.968751 
z
" style="fill:#0000ff;opacity:0.3;"/>
   </g>
   <g id="patch_149">
    <path clip-path="url(#pd14569a623)" d="M 219.589632 307.584 
L 222.75826 307.584 
L 222.75826 161.961017 
L 219.589632 161.961017 
z
" style="fill:#0000ff;opacity:0.3;"/>
   </g>
   <g id="patch_150">
    <path clip-path="url(#pd14569a623)" d="M 222.75826 307.584 
L 225.926889 307.584 
L 225.926889 149.359028 
L 222.75826 149.359028 
z
" style="fill:#0000ff;opacity:0.3;"/>
   </g>
   <g id="patch_151">
    <path clip-path="url(#pd14569a623)" d="M 225.926889 307.584 
L 229.095517 307.584 
L 229.095517 170.362343 
L 225.926889 170.362343 
z
" style="fill:#0000ff;opacity:0.3;"/>
   </g>
   <g id="patch_152">
    <path clip-path="url(#pd14569a623)" d="M 229.095517 307.584 
L 232.264145 307.584 
L 232.264145 170.362343 
L 229.095517 170.362343 
z
" style="fill:#0000ff;opacity:0.3;"/>
   </g>
   <g id="patch_153">
    <path clip-path="url(#pd14569a623)" d="M 232.264145 307.584 
L 235.432774 307.584 
L 235.432774 138.15726 
L 232.264145 138.15726 
z
" style="fill:#0000ff;opacity:0.3;"/>
   </g>
   <g id="patch_154">
    <path clip-path="url(#pd14569a623)" d="M 235.432774 307.584 
L 238.601402 307.584 
L 238.601402 156.360133 
L 235.432774 156.360133 
z
" style="fill:#0000ff;opacity:0.3;"/>
   </g>
   <g id="patch_155">
    <path clip-path="url(#pd14569a623)" d="M 238.601402 307.584 
L 241.770031 307.584 
L 241.770031 135.356818 
L 238.601402 135.356818 
z
" style="fill:#0000ff;opacity:0.3;"/>
   </g>
   <g id="patch_156">
    <path clip-path="url(#pd14569a623)" d="M 241.770031 307.584 
L 244.938659 307.584 
L 244.938659 119.954387 
L 241.770031 119.954387 
z
" style="fill:#0000ff;opacity:0.3;"/>
   </g>
   <g id="patch_157">
    <path clip-path="url(#pd14569a623)" d="M 244.938659 307.584 
L 248.107287 307.584 
L 248.107287 142.357923 
L 244.938659 142.357923 
z
" style="fill:#0000ff;opacity:0.3;"/>
   </g>
   <g id="patch_158">
    <path clip-path="url(#pd14569a623)" d="M 248.107287 307.584 
L 251.275916 307.584 
L 251.275916 125.555271 
L 248.107287 125.555271 
z
" style="fill:#0000ff;opacity:0.3;"/>
   </g>
   <g id="patch_159">
    <path clip-path="url(#pd14569a623)" d="M 251.275916 307.584 
L 254.444544 307.584 
L 254.444544 86.349083 
L 251.275916 86.349083 
z
" style="fill:#0000ff;opacity:0.3;"/>
   </g>
   <g id="patch_160">
    <path clip-path="url(#pd14569a623)" d="M 254.444544 307.584 
L 257.613172 307.584 
L 257.613172 107.352398 
L 254.444544 107.352398 
z
" style="fill:#0000ff;opacity:0.3;"/>
   </g>
   <g id="patch_161">
    <path clip-path="url(#pd14569a623)" d="M 257.613172 307.584 
L 260.781801 307.584 
L 260.781801 117.153945 
L 257.613172 117.153945 
z
" style="fill:#0000ff;opacity:0.3;"/>
   </g>
   <g id="patch_162">
    <path clip-path="url(#pd14569a623)" d="M 260.781801 307.584 
L 263.950429 307.584 
L 263.950429 105.952177 
L 260.781801 105.952177 
z
" style="fill:#0000ff;opacity:0.3;"/>
   </g>
   <g id="patch_163">
    <path clip-path="url(#pd14569a623)" d="M 263.950429 307.584 
L 267.119057 307.584 
L 267.119057 132.556376 
L 263.950429 132.556376 
z
" style="fill:#0000ff;opacity:0.3;"/>
   </g>
   <g id="patch_164">
    <path clip-path="url(#pd14569a623)" d="M 267.119057 307.584 
L 270.287686 307.584 
L 270.287686 139.557481 
L 267.119057 139.557481 
z
" style="fill:#0000ff;opacity:0.3;"/>
   </g>
   <g id="patch_165">
    <path clip-path="url(#pd14569a623)" d="M 270.287686 307.584 
L 273.456314 307.584 
L 273.456314 98.951072 
L 270.287686 98.951072 
z
" style="fill:#0000ff;opacity:0.3;"/>
   </g>
   <g id="patch_166">
    <path clip-path="url(#pd14569a623)" d="M 273.456314 307.584 
L 276.624943 307.584 
L 276.624943 125.555271 
L 273.456314 125.555271 
z
" style="fill:#0000ff;opacity:0.3;"/>
   </g>
   <g id="patch_167">
    <path clip-path="url(#pd14569a623)" d="M 276.624943 307.584 
L 279.793571 307.584 
L 279.793571 136.757039 
L 276.624943 136.757039 
z
" style="fill:#0000ff;opacity:0.3;"/>
   </g>
   <g id="patch_168">
    <path clip-path="url(#pd14569a623)" d="M 279.793571 307.584 
L 282.962199 307.584 
L 282.962199 54.144 
L 279.793571 54.144 
z
" style="fill:#0000ff;opacity:0.3;"/>
   </g>
   <g id="patch_169">
    <path clip-path="url(#pd14569a623)" d="M 282.962199 307.584 
L 286.130828 307.584 
L 286.130828 110.15284 
L 282.962199 110.15284 
z
" style="fill:#0000ff;opacity:0.3;"/>
   </g>
   <g id="patch_170">
    <path clip-path="url(#pd14569a623)" d="M 286.130828 307.584 
L 289.299456 307.584 
L 289.299456 118.554166 
L 286.130828 118.554166 
z
" style="fill:#0000ff;opacity:0.3;"/>
   </g>
   <g id="patch_171">
    <path clip-path="url(#pd14569a623)" d="M 289.299456 307.584 
L 292.468084 307.584 
L 292.468084 132.556376 
L 289.299456 132.556376 
z
" style="fill:#0000ff;opacity:0.3;"/>
   </g>
   <g id="patch_172">
    <path clip-path="url(#pd14569a623)" d="M 292.468084 307.584 
L 295.636713 307.584 
L 295.636713 131.156155 
L 292.468084 131.156155 
z
" style="fill:#0000ff;opacity:0.3;"/>
   </g>
   <g id="patch_173">
    <path clip-path="url(#pd14569a623)" d="M 295.636713 307.584 
L 298.805341 307.584 
L 298.805341 133.956597 
L 295.636713 133.956597 
z
" style="fill:#0000ff;opacity:0.3;"/>
   </g>
   <g id="patch_174">
    <path clip-path="url(#pd14569a623)" d="M 298.805341 307.584 
L 301.973969 307.584 
L 301.973969 101.751514 
L 298.805341 101.751514 
z
" style="fill:#0000ff;opacity:0.3;"/>
   </g>
   <g id="patch_175">
    <path clip-path="url(#pd14569a623)" d="M 301.973969 307.584 
L 305.142598 307.584 
L 305.142598 153.559691 
L 301.973969 153.559691 
z
" style="fill:#0000ff;opacity:0.3;"/>
   </g>
   <g id="patch_176">
    <path clip-path="url(#pd14569a623)" d="M 305.142598 307.584 
L 308.311226 307.584 
L 308.311226 164.761459 
L 305.142598 164.761459 
z
" style="fill:#0000ff;opacity:0.3;"/>
   </g>
   <g id="patch_177">
    <path clip-path="url(#pd14569a623)" d="M 308.311226 307.584 
L 311.479855 307.584 
L 311.479855 159.160575 
L 308.311226 159.160575 
z
" style="fill:#0000ff;opacity:0.3;"/>
   </g>
   <g id="patch_178">
    <path clip-path="url(#pd14569a623)" d="M 311.479855 307.584 
L 314.648483 307.584 
L 314.648483 152.15947 
L 311.479855 152.15947 
z
" style="fill:#0000ff;opacity:0.3;"/>
   </g>
   <g id="patch_179">
    <path clip-path="url(#pd14569a623)" d="M 314.648483 307.584 
L 317.817111 307.584 
L 317.817111 191.365657 
L 314.648483 191.365657 
z
" style="fill:#0000ff;opacity:0.3;"/>
   </g>
   <g id="patch_180">
    <path clip-path="url(#pd14569a623)" d="M 317.817111 307.584 
L 320.98574 307.584 
L 320.98574 175.963227 
L 317.817111 175.963227 
z
" style="fill:#0000ff;opacity:0.3;"/>
   </g>
   <g id="patch_181">
    <path clip-path="url(#pd14569a623)" d="M 320.98574 307.584 
L 324.154368 307.584 
L 324.154368 175.963227 
L 320.98574 175.963227 
z
" style="fill:#0000ff;opacity:0.3;"/>
   </g>
   <g id="patch_182">
    <path clip-path="url(#pd14569a623)" d="M 324.154368 307.584 
L 327.322996 307.584 
L 327.322996 201.167204 
L 324.154368 201.167204 
z
" style="fill:#0000ff;opacity:0.3;"/>
   </g>
   <g id="patch_183">
    <path clip-path="url(#pd14569a623)" d="M 327.322996 307.584 
L 330.491625 307.584 
L 330.491625 203.967646 
L 327.322996 203.967646 
z
" style="fill:#0000ff;opacity:0.3;"/>
   </g>
   <g id="patch_184">
    <path clip-path="url(#pd14569a623)" d="M 330.491625 307.584 
L 333.660253 307.584 
L 333.660253 226.371182 
L 330.491625 226.371182 
z
" style="fill:#0000ff;opacity:0.3;"/>
   </g>
   <g id="patch_185">
    <path clip-path="url(#pd14569a623)" d="M 333.660253 307.584 
L 336.828881 307.584 
L 336.828881 244.574055 
L 333.660253 244.574055 
z
" style="fill:#0000ff;opacity:0.3;"/>
   </g>
   <g id="patch_186">
    <path clip-path="url(#pd14569a623)" d="M 336.828881 307.584 
L 339.99751 307.584 
L 339.99751 226.371182 
L 336.828881 226.371182 
z
" style="fill:#0000ff;opacity:0.3;"/>
   </g>
   <g id="patch_187">
    <path clip-path="url(#pd14569a623)" d="M 339.99751 307.584 
L 343.166138 307.584 
L 343.166138 234.772508 
L 339.99751 234.772508 
z
" style="fill:#0000ff;opacity:0.3;"/>
   </g>
   <g id="patch_188">
    <path clip-path="url(#pd14569a623)" d="M 343.166138 307.584 
L 346.334767 307.584 
L 346.334767 264.177149 
L 343.166138 264.177149 
z
" style="fill:#0000ff;opacity:0.3;"/>
   </g>
   <g id="patch_189">
    <path clip-path="url(#pd14569a623)" d="M 346.334767 307.584 
L 349.503395 307.584 
L 349.503395 264.177149 
L 346.334767 264.177149 
z
" style="fill:#0000ff;opacity:0.3;"/>
   </g>
   <g id="patch_190">
    <path clip-path="url(#pd14569a623)" d="M 349.503395 307.584 
L 352.672023 307.584 
L 352.672023 272.578475 
L 349.503395 272.578475 
z
" style="fill:#0000ff;opacity:0.3;"/>
   </g>
   <g id="patch_191">
    <path clip-path="url(#pd14569a623)" d="M 352.672023 307.584 
L 355.840652 307.584 
L 355.840652 257.176044 
L 352.672023 257.176044 
z
" style="fill:#0000ff;opacity:0.3;"/>
   </g>
   <g id="patch_192">
    <path clip-path="url(#pd14569a623)" d="M 355.840652 307.584 
L 359.00928 307.584 
L 359.00928 261.376707 
L 355.840652 261.376707 
z
" style="fill:#0000ff;opacity:0.3;"/>
   </g>
   <g id="patch_193">
    <path clip-path="url(#pd14569a623)" d="M 359.00928 307.584 
L 362.177908 307.584 
L 362.177908 269.778033 
L 359.00928 269.778033 
z
" style="fill:#0000ff;opacity:0.3;"/>
   </g>
   <g id="patch_194">
    <path clip-path="url(#pd14569a623)" d="M 362.177908 307.584 
L 365.346537 307.584 
L 365.346537 275.378917 
L 362.177908 275.378917 
z
" style="fill:#0000ff;opacity:0.3;"/>
   </g>
   <g id="patch_195">
    <path clip-path="url(#pd14569a623)" d="M 365.346537 307.584 
L 368.515165 307.584 
L 368.515165 292.181569 
L 365.346537 292.181569 
z
" style="fill:#0000ff;opacity:0.3;"/>
   </g>
   <g id="patch_196">
    <path clip-path="url(#pd14569a623)" d="M 368.515165 307.584 
L 371.683793 307.584 
L 371.683793 290.781348 
L 368.515165 290.781348 
z
" style="fill:#0000ff;opacity:0.3;"/>
   </g>
   <g id="patch_197">
    <path clip-path="url(#pd14569a623)" d="M 371.683793 307.584 
L 374.852422 307.584 
L 374.852422 294.982011 
L 371.683793 294.982011 
z
" style="fill:#0000ff;opacity:0.3;"/>
   </g>
   <g id="patch_198">
    <path clip-path="url(#pd14569a623)" d="M 374.852422 307.584 
L 378.02105 307.584 
L 378.02105 304.783558 
L 374.852422 304.783558 
z
" style="fill:#0000ff;opacity:0.3;"/>
   </g>
   <g id="patch_199">
    <path clip-path="url(#pd14569a623)" d="M 378.02105 307.584 
L 381.189679 307.584 
L 381.189679 299.182674 
L 378.02105 299.182674 
z
" style="fill:#0000ff;opacity:0.3;"/>
   </g>
   <g id="patch_200">
    <path clip-path="url(#pd14569a623)" d="M 381.189679 307.584 
L 384.358307 307.584 
L 384.358307 301.983116 
L 381.189679 301.983116 
z
" style="fill:#0000ff;opacity:0.3;"/>
   </g>
   <g id="patch_201">
    <path clip-path="url(#pd14569a623)" d="M 384.358307 307.584 
L 387.526935 307.584 
L 387.526935 299.182674 
L 384.358307 299.182674 
z
" style="fill:#0000ff;opacity:0.3;"/>
   </g>
   <g id="patch_202">
    <path clip-path="url(#pd14569a623)" d="M 387.526935 307.584 
L 390.695564 307.584 
L 390.695564 306.183779 
L 387.526935 306.183779 
z
" style="fill:#0000ff;opacity:0.3;"/>
   </g>
   <g id="patch_203">
    <path clip-path="url(#pd14569a623)" d="M 97.207855 307.584 
L 100.21632 307.584 
L 100.21632 304.783558 
L 97.207855 304.783558 
z
" style="fill:#008000;opacity:0.2;"/>
   </g>
   <g id="patch_204">
    <path clip-path="url(#pd14569a623)" d="M 100.21632 307.584 
L 103.224785 307.584 
L 103.224785 307.584 
L 100.21632 307.584 
z
" style="fill:#008000;opacity:0.2;"/>
   </g>
   <g id="patch_205">
    <path clip-path="url(#pd14569a623)" d="M 103.224785 307.584 
L 106.233251 307.584 
L 106.233251 307.584 
L 103.224785 307.584 
z
" style="fill:#008000;opacity:0.2;"/>
   </g>
   <g id="patch_206">
    <path clip-path="url(#pd14569a623)" d="M 106.233251 307.584 
L 109.241716 307.584 
L 109.241716 307.584 
L 106.233251 307.584 
z
" style="fill:#008000;opacity:0.2;"/>
   </g>
   <g id="patch_207">
    <path clip-path="url(#pd14569a623)" d="M 109.241716 307.584 
L 112.250182 307.584 
L 112.250182 307.584 
L 109.241716 307.584 
z
" style="fill:#008000;opacity:0.2;"/>
   </g>
   <g id="patch_208">
    <path clip-path="url(#pd14569a623)" d="M 112.250182 307.584 
L 115.258647 307.584 
L 115.258647 307.584 
L 112.250182 307.584 
z
" style="fill:#008000;opacity:0.2;"/>
   </g>
   <g id="patch_209">
    <path clip-path="url(#pd14569a623)" d="M 115.258647 307.584 
L 118.267113 307.584 
L 118.267113 307.584 
L 115.258647 307.584 
z
" style="fill:#008000;opacity:0.2;"/>
   </g>
   <g id="patch_210">
    <path clip-path="url(#pd14569a623)" d="M 118.267113 307.584 
L 121.275578 307.584 
L 121.275578 307.584 
L 118.267113 307.584 
z
" style="fill:#008000;opacity:0.2;"/>
   </g>
   <g id="patch_211">
    <path clip-path="url(#pd14569a623)" d="M 121.275578 307.584 
L 124.284044 307.584 
L 124.284044 306.183779 
L 121.275578 306.183779 
z
" style="fill:#008000;opacity:0.2;"/>
   </g>
   <g id="patch_212">
    <path clip-path="url(#pd14569a623)" d="M 124.284044 307.584 
L 127.292509 307.584 
L 127.292509 304.783558 
L 124.284044 304.783558 
z
" style="fill:#008000;opacity:0.2;"/>
   </g>
   <g id="patch_213">
    <path clip-path="url(#pd14569a623)" d="M 127.292509 307.584 
L 130.300975 307.584 
L 130.300975 306.183779 
L 127.292509 306.183779 
z
" style="fill:#008000;opacity:0.2;"/>
   </g>
   <g id="patch_214">
    <path clip-path="url(#pd14569a623)" d="M 130.300975 307.584 
L 133.30944 307.584 
L 133.30944 307.584 
L 130.300975 307.584 
z
" style="fill:#008000;opacity:0.2;"/>
   </g>
   <g id="patch_215">
    <path clip-path="url(#pd14569a623)" d="M 133.30944 307.584 
L 136.317905 307.584 
L 136.317905 304.783558 
L 133.30944 304.783558 
z
" style="fill:#008000;opacity:0.2;"/>
   </g>
   <g id="patch_216">
    <path clip-path="url(#pd14569a623)" d="M 136.317905 307.584 
L 139.326371 307.584 
L 139.326371 307.584 
L 136.317905 307.584 
z
" style="fill:#008000;opacity:0.2;"/>
   </g>
   <g id="patch_217">
    <path clip-path="url(#pd14569a623)" d="M 139.326371 307.584 
L 142.334836 307.584 
L 142.334836 307.584 
L 139.326371 307.584 
z
" style="fill:#008000;opacity:0.2;"/>
   </g>
   <g id="patch_218">
    <path clip-path="url(#pd14569a623)" d="M 142.334836 307.584 
L 145.343302 307.584 
L 145.343302 300.582895 
L 142.334836 300.582895 
z
" style="fill:#008000;opacity:0.2;"/>
   </g>
   <g id="patch_219">
    <path clip-path="url(#pd14569a623)" d="M 145.343302 307.584 
L 148.351767 307.584 
L 148.351767 301.983116 
L 145.343302 301.983116 
z
" style="fill:#008000;opacity:0.2;"/>
   </g>
   <g id="patch_220">
    <path clip-path="url(#pd14569a623)" d="M 148.351767 307.584 
L 151.360233 307.584 
L 151.360233 301.983116 
L 148.351767 301.983116 
z
" style="fill:#008000;opacity:0.2;"/>
   </g>
   <g id="patch_221">
    <path clip-path="url(#pd14569a623)" d="M 151.360233 307.584 
L 154.368698 307.584 
L 154.368698 300.582895 
L 151.360233 300.582895 
z
" style="fill:#008000;opacity:0.2;"/>
   </g>
   <g id="patch_222">
    <path clip-path="url(#pd14569a623)" d="M 154.368698 307.584 
L 157.377164 307.584 
L 157.377164 294.982011 
L 154.368698 294.982011 
z
" style="fill:#008000;opacity:0.2;"/>
   </g>
   <g id="patch_223">
    <path clip-path="url(#pd14569a623)" d="M 157.377164 307.584 
L 160.385629 307.584 
L 160.385629 296.382232 
L 157.377164 296.382232 
z
" style="fill:#008000;opacity:0.2;"/>
   </g>
   <g id="patch_224">
    <path clip-path="url(#pd14569a623)" d="M 160.385629 307.584 
L 163.394095 307.584 
L 163.394095 292.181569 
L 160.385629 292.181569 
z
" style="fill:#008000;opacity:0.2;"/>
   </g>
   <g id="patch_225">
    <path clip-path="url(#pd14569a623)" d="M 163.394095 307.584 
L 166.40256 307.584 
L 166.40256 293.58179 
L 163.394095 293.58179 
z
" style="fill:#008000;opacity:0.2;"/>
   </g>
   <g id="patch_226">
    <path clip-path="url(#pd14569a623)" d="M 166.40256 307.584 
L 169.411025 307.584 
L 169.411025 293.58179 
L 166.40256 293.58179 
z
" style="fill:#008000;opacity:0.2;"/>
   </g>
   <g id="patch_227">
    <path clip-path="url(#pd14569a623)" d="M 169.411025 307.584 
L 172.419491 307.584 
L 172.419491 290.781348 
L 169.411025 290.781348 
z
" style="fill:#008000;opacity:0.2;"/>
   </g>
   <g id="patch_228">
    <path clip-path="url(#pd14569a623)" d="M 172.419491 307.584 
L 175.427956 307.584 
L 175.427956 285.180464 
L 172.419491 285.180464 
z
" style="fill:#008000;opacity:0.2;"/>
   </g>
   <g id="patch_229">
    <path clip-path="url(#pd14569a623)" d="M 175.427956 307.584 
L 178.436422 307.584 
L 178.436422 292.181569 
L 175.427956 292.181569 
z
" style="fill:#008000;opacity:0.2;"/>
   </g>
   <g id="patch_230">
    <path clip-path="url(#pd14569a623)" d="M 178.436422 307.584 
L 181.444887 307.584 
L 181.444887 282.380022 
L 178.436422 282.380022 
z
" style="fill:#008000;opacity:0.2;"/>
   </g>
   <g id="patch_231">
    <path clip-path="url(#pd14569a623)" d="M 181.444887 307.584 
L 184.453353 307.584 
L 184.453353 286.580685 
L 181.444887 286.580685 
z
" style="fill:#008000;opacity:0.2;"/>
   </g>
   <g id="patch_232">
    <path clip-path="url(#pd14569a623)" d="M 184.453353 307.584 
L 187.461818 307.584 
L 187.461818 283.780243 
L 184.453353 283.780243 
z
" style="fill:#008000;opacity:0.2;"/>
   </g>
   <g id="patch_233">
    <path clip-path="url(#pd14569a623)" d="M 187.461818 307.584 
L 190.470284 307.584 
L 190.470284 266.977591 
L 187.461818 266.977591 
z
" style="fill:#008000;opacity:0.2;"/>
   </g>
   <g id="patch_234">
    <path clip-path="url(#pd14569a623)" d="M 190.470284 307.584 
L 193.478749 307.584 
L 193.478749 286.580685 
L 190.470284 286.580685 
z
" style="fill:#008000;opacity:0.2;"/>
   </g>
   <g id="patch_235">
    <path clip-path="url(#pd14569a623)" d="M 193.478749 307.584 
L 196.487215 307.584 
L 196.487215 266.977591 
L 193.478749 266.977591 
z
" style="fill:#008000;opacity:0.2;"/>
   </g>
   <g id="patch_236">
    <path clip-path="url(#pd14569a623)" d="M 196.487215 307.584 
L 199.49568 307.584 
L 199.49568 262.776928 
L 196.487215 262.776928 
z
" style="fill:#008000;opacity:0.2;"/>
   </g>
   <g id="patch_237">
    <path clip-path="url(#pd14569a623)" d="M 199.49568 307.584 
L 202.504145 307.584 
L 202.504145 247.374497 
L 199.49568 247.374497 
z
" style="fill:#008000;opacity:0.2;"/>
   </g>
   <g id="patch_238">
    <path clip-path="url(#pd14569a623)" d="M 202.504145 307.584 
L 205.512611 307.584 
L 205.512611 255.775823 
L 202.504145 255.775823 
z
" style="fill:#008000;opacity:0.2;"/>
   </g>
   <g id="patch_239">
    <path clip-path="url(#pd14569a623)" d="M 205.512611 307.584 
L 208.521076 307.584 
L 208.521076 238.973171 
L 205.512611 238.973171 
z
" style="fill:#008000;opacity:0.2;"/>
   </g>
   <g id="patch_240">
    <path clip-path="url(#pd14569a623)" d="M 208.521076 307.584 
L 211.529542 307.584 
L 211.529542 227.771403 
L 208.521076 227.771403 
z
" style="fill:#008000;opacity:0.2;"/>
   </g>
   <g id="patch_241">
    <path clip-path="url(#pd14569a623)" d="M 211.529542 307.584 
L 214.538007 307.584 
L 214.538007 233.372287 
L 211.529542 233.372287 
z
" style="fill:#008000;opacity:0.2;"/>
   </g>
   <g id="patch_242">
    <path clip-path="url(#pd14569a623)" d="M 214.538007 307.584 
L 217.546473 307.584 
L 217.546473 248.774718 
L 214.538007 248.774718 
z
" style="fill:#008000;opacity:0.2;"/>
   </g>
   <g id="patch_243">
    <path clip-path="url(#pd14569a623)" d="M 217.546473 307.584 
L 220.554938 307.584 
L 220.554938 227.771403 
L 217.546473 227.771403 
z
" style="fill:#008000;opacity:0.2;"/>
   </g>
   <g id="patch_244">
    <path clip-path="url(#pd14569a623)" d="M 220.554938 307.584 
L 223.563404 307.584 
L 223.563404 216.569635 
L 220.554938 216.569635 
z
" style="fill:#008000;opacity:0.2;"/>
   </g>
   <g id="patch_245">
    <path clip-path="url(#pd14569a623)" d="M 223.563404 307.584 
L 226.571869 307.584 
L 226.571869 194.166099 
L 223.563404 194.166099 
z
" style="fill:#008000;opacity:0.2;"/>
   </g>
   <g id="patch_246">
    <path clip-path="url(#pd14569a623)" d="M 226.571869 307.584 
L 229.580335 307.584 
L 229.580335 217.969856 
L 226.571869 217.969856 
z
" style="fill:#008000;opacity:0.2;"/>
   </g>
   <g id="patch_247">
    <path clip-path="url(#pd14569a623)" d="M 229.580335 307.584 
L 232.5888 307.584 
L 232.5888 188.565215 
L 229.580335 188.565215 
z
" style="fill:#008000;opacity:0.2;"/>
   </g>
   <g id="patch_248">
    <path clip-path="url(#pd14569a623)" d="M 232.5888 307.584 
L 235.597265 307.584 
L 235.597265 196.966541 
L 232.5888 196.966541 
z
" style="fill:#008000;opacity:0.2;"/>
   </g>
   <g id="patch_249">
    <path clip-path="url(#pd14569a623)" d="M 235.597265 307.584 
L 238.605731 307.584 
L 238.605731 192.765878 
L 235.597265 192.765878 
z
" style="fill:#008000;opacity:0.2;"/>
   </g>
   <g id="patch_250">
    <path clip-path="url(#pd14569a623)" d="M 238.605731 307.584 
L 241.614196 307.584 
L 241.614196 226.371182 
L 238.605731 226.371182 
z
" style="fill:#008000;opacity:0.2;"/>
   </g>
   <g id="patch_251">
    <path clip-path="url(#pd14569a623)" d="M 241.614196 307.584 
L 244.622662 307.584 
L 244.622662 195.56632 
L 241.614196 195.56632 
z
" style="fill:#008000;opacity:0.2;"/>
   </g>
   <g id="patch_252">
    <path clip-path="url(#pd14569a623)" d="M 244.622662 307.584 
L 247.631127 307.584 
L 247.631127 178.763669 
L 244.622662 178.763669 
z
" style="fill:#008000;opacity:0.2;"/>
   </g>
   <g id="patch_253">
    <path clip-path="url(#pd14569a623)" d="M 247.631127 307.584 
L 250.639593 307.584 
L 250.639593 191.365657 
L 247.631127 191.365657 
z
" style="fill:#008000;opacity:0.2;"/>
   </g>
   <g id="patch_254">
    <path clip-path="url(#pd14569a623)" d="M 250.639593 307.584 
L 253.648058 307.584 
L 253.648058 187.164994 
L 250.639593 187.164994 
z
" style="fill:#008000;opacity:0.2;"/>
   </g>
   <g id="patch_255">
    <path clip-path="url(#pd14569a623)" d="M 253.648058 307.584 
L 256.656524 307.584 
L 256.656524 167.561901 
L 253.648058 167.561901 
z
" style="fill:#008000;opacity:0.2;"/>
   </g>
   <g id="patch_256">
    <path clip-path="url(#pd14569a623)" d="M 256.656524 307.584 
L 259.664989 307.584 
L 259.664989 154.959912 
L 256.656524 154.959912 
z
" style="fill:#008000;opacity:0.2;"/>
   </g>
   <g id="patch_257">
    <path clip-path="url(#pd14569a623)" d="M 259.664989 307.584 
L 262.673455 307.584 
L 262.673455 159.160575 
L 259.664989 159.160575 
z
" style="fill:#008000;opacity:0.2;"/>
   </g>
   <g id="patch_258">
    <path clip-path="url(#pd14569a623)" d="M 262.673455 307.584 
L 265.68192 307.584 
L 265.68192 177.363448 
L 262.673455 177.363448 
z
" style="fill:#008000;opacity:0.2;"/>
   </g>
   <g id="patch_259">
    <path clip-path="url(#pd14569a623)" d="M 265.68192 307.584 
L 268.690385 307.584 
L 268.690385 146.558586 
L 265.68192 146.558586 
z
" style="fill:#008000;opacity:0.2;"/>
   </g>
   <g id="patch_260">
    <path clip-path="url(#pd14569a623)" d="M 268.690385 307.584 
L 271.698851 307.584 
L 271.698851 168.962122 
L 268.690385 168.962122 
z
" style="fill:#008000;opacity:0.2;"/>
   </g>
   <g id="patch_261">
    <path clip-path="url(#pd14569a623)" d="M 271.698851 307.584 
L 274.707316 307.584 
L 274.707316 145.158365 
L 271.698851 145.158365 
z
" style="fill:#008000;opacity:0.2;"/>
   </g>
   <g id="patch_262">
    <path clip-path="url(#pd14569a623)" d="M 274.707316 307.584 
L 277.715782 307.584 
L 277.715782 149.359028 
L 274.707316 149.359028 
z
" style="fill:#008000;opacity:0.2;"/>
   </g>
   <g id="patch_263">
    <path clip-path="url(#pd14569a623)" d="M 277.715782 307.584 
L 280.724247 307.584 
L 280.724247 150.759249 
L 277.715782 150.759249 
z
" style="fill:#008000;opacity:0.2;"/>
   </g>
   <g id="patch_264">
    <path clip-path="url(#pd14569a623)" d="M 280.724247 307.584 
L 283.732713 307.584 
L 283.732713 149.359028 
L 280.724247 149.359028 
z
" style="fill:#008000;opacity:0.2;"/>
   </g>
   <g id="patch_265">
    <path clip-path="url(#pd14569a623)" d="M 283.732713 307.584 
L 286.741178 307.584 
L 286.741178 146.558586 
L 283.732713 146.558586 
z
" style="fill:#008000;opacity:0.2;"/>
   </g>
   <g id="patch_266">
    <path clip-path="url(#pd14569a623)" d="M 286.741178 307.584 
L 289.749644 307.584 
L 289.749644 156.360133 
L 286.741178 156.360133 
z
" style="fill:#008000;opacity:0.2;"/>
   </g>
   <g id="patch_267">
    <path clip-path="url(#pd14569a623)" d="M 289.749644 307.584 
L 292.758109 307.584 
L 292.758109 184.364552 
L 289.749644 184.364552 
z
" style="fill:#008000;opacity:0.2;"/>
   </g>
   <g id="patch_268">
    <path clip-path="url(#pd14569a623)" d="M 292.758109 307.584 
L 295.766575 307.584 
L 295.766575 166.16168 
L 292.758109 166.16168 
z
" style="fill:#008000;opacity:0.2;"/>
   </g>
   <g id="patch_269">
    <path clip-path="url(#pd14569a623)" d="M 295.766575 307.584 
L 298.77504 307.584 
L 298.77504 166.16168 
L 295.766575 166.16168 
z
" style="fill:#008000;opacity:0.2;"/>
   </g>
   <g id="patch_270">
    <path clip-path="url(#pd14569a623)" d="M 298.77504 307.584 
L 301.783505 307.584 
L 301.783505 191.365657 
L 298.77504 191.365657 
z
" style="fill:#008000;opacity:0.2;"/>
   </g>
   <g id="patch_271">
    <path clip-path="url(#pd14569a623)" d="M 301.783505 307.584 
L 304.791971 307.584 
L 304.791971 171.762564 
L 301.783505 171.762564 
z
" style="fill:#008000;opacity:0.2;"/>
   </g>
   <g id="patch_272">
    <path clip-path="url(#pd14569a623)" d="M 304.791971 307.584 
L 307.800436 307.584 
L 307.800436 194.166099 
L 304.791971 194.166099 
z
" style="fill:#008000;opacity:0.2;"/>
   </g>
   <g id="patch_273">
    <path clip-path="url(#pd14569a623)" d="M 307.800436 307.584 
L 310.808902 307.584 
L 310.808902 196.966541 
L 307.800436 196.966541 
z
" style="fill:#008000;opacity:0.2;"/>
   </g>
   <g id="patch_274">
    <path clip-path="url(#pd14569a623)" d="M 310.808902 307.584 
L 313.817367 307.584 
L 313.817367 189.965436 
L 310.808902 189.965436 
z
" style="fill:#008000;opacity:0.2;"/>
   </g>
   <g id="patch_275">
    <path clip-path="url(#pd14569a623)" d="M 313.817367 307.584 
L 316.825833 307.584 
L 316.825833 189.965436 
L 313.817367 189.965436 
z
" style="fill:#008000;opacity:0.2;"/>
   </g>
   <g id="patch_276">
    <path clip-path="url(#pd14569a623)" d="M 316.825833 307.584 
L 319.834298 307.584 
L 319.834298 224.970961 
L 316.825833 224.970961 
z
" style="fill:#008000;opacity:0.2;"/>
   </g>
   <g id="patch_277">
    <path clip-path="url(#pd14569a623)" d="M 319.834298 307.584 
L 322.842764 307.584 
L 322.842764 203.967646 
L 319.834298 203.967646 
z
" style="fill:#008000;opacity:0.2;"/>
   </g>
   <g id="patch_278">
    <path clip-path="url(#pd14569a623)" d="M 322.842764 307.584 
L 325.851229 307.584 
L 325.851229 198.366762 
L 322.842764 198.366762 
z
" style="fill:#008000;opacity:0.2;"/>
   </g>
   <g id="patch_279">
    <path clip-path="url(#pd14569a623)" d="M 325.851229 307.584 
L 328.859695 307.584 
L 328.859695 203.967646 
L 325.851229 203.967646 
z
" style="fill:#008000;opacity:0.2;"/>
   </g>
   <g id="patch_280">
    <path clip-path="url(#pd14569a623)" d="M 328.859695 307.584 
L 331.86816 307.584 
L 331.86816 229.171624 
L 328.859695 229.171624 
z
" style="fill:#008000;opacity:0.2;"/>
   </g>
   <g id="patch_281">
    <path clip-path="url(#pd14569a623)" d="M 331.86816 307.584 
L 334.876625 307.584 
L 334.876625 222.170519 
L 331.86816 222.170519 
z
" style="fill:#008000;opacity:0.2;"/>
   </g>
   <g id="patch_282">
    <path clip-path="url(#pd14569a623)" d="M 334.876625 307.584 
L 337.885091 307.584 
L 337.885091 237.57295 
L 334.876625 237.57295 
z
" style="fill:#008000;opacity:0.2;"/>
   </g>
   <g id="patch_283">
    <path clip-path="url(#pd14569a623)" d="M 337.885091 307.584 
L 340.893556 307.584 
L 340.893556 236.172729 
L 337.885091 236.172729 
z
" style="fill:#008000;opacity:0.2;"/>
   </g>
   <g id="patch_284">
    <path clip-path="url(#pd14569a623)" d="M 340.893556 307.584 
L 343.902022 307.584 
L 343.902022 230.571845 
L 340.893556 230.571845 
z
" style="fill:#008000;opacity:0.2;"/>
   </g>
   <g id="patch_285">
    <path clip-path="url(#pd14569a623)" d="M 343.902022 307.584 
L 346.910487 307.584 
L 346.910487 248.774718 
L 343.902022 248.774718 
z
" style="fill:#008000;opacity:0.2;"/>
   </g>
   <g id="patch_286">
    <path clip-path="url(#pd14569a623)" d="M 346.910487 307.584 
L 349.918953 307.584 
L 349.918953 244.574055 
L 346.910487 244.574055 
z
" style="fill:#008000;opacity:0.2;"/>
   </g>
   <g id="patch_287">
    <path clip-path="url(#pd14569a623)" d="M 349.918953 307.584 
L 352.927418 307.584 
L 352.927418 259.976486 
L 349.918953 259.976486 
z
" style="fill:#008000;opacity:0.2;"/>
   </g>
   <g id="patch_288">
    <path clip-path="url(#pd14569a623)" d="M 352.927418 307.584 
L 355.935884 307.584 
L 355.935884 265.57737 
L 352.927418 265.57737 
z
" style="fill:#008000;opacity:0.2;"/>
   </g>
   <g id="patch_289">
    <path clip-path="url(#pd14569a623)" d="M 355.935884 307.584 
L 358.944349 307.584 
L 358.944349 282.380022 
L 355.935884 282.380022 
z
" style="fill:#008000;opacity:0.2;"/>
   </g>
   <g id="patch_290">
    <path clip-path="url(#pd14569a623)" d="M 358.944349 307.584 
L 361.952815 307.584 
L 361.952815 278.179359 
L 358.944349 278.179359 
z
" style="fill:#008000;opacity:0.2;"/>
   </g>
   <g id="patch_291">
    <path clip-path="url(#pd14569a623)" d="M 361.952815 307.584 
L 364.96128 307.584 
L 364.96128 275.378917 
L 361.952815 275.378917 
z
" style="fill:#008000;opacity:0.2;"/>
   </g>
   <g id="patch_292">
    <path clip-path="url(#pd14569a623)" d="M 364.96128 307.584 
L 367.969745 307.584 
L 367.969745 282.380022 
L 364.96128 282.380022 
z
" style="fill:#008000;opacity:0.2;"/>
   </g>
   <g id="patch_293">
    <path clip-path="url(#pd14569a623)" d="M 367.969745 307.584 
L 370.978211 307.584 
L 370.978211 283.780243 
L 367.969745 283.780243 
z
" style="fill:#008000;opacity:0.2;"/>
   </g>
   <g id="patch_294">
    <path clip-path="url(#pd14569a623)" d="M 370.978211 307.584 
L 373.986676 307.584 
L 373.986676 290.781348 
L 370.978211 290.781348 
z
" style="fill:#008000;opacity:0.2;"/>
   </g>
   <g id="patch_295">
    <path clip-path="url(#pd14569a623)" d="M 373.986676 307.584 
L 376.995142 307.584 
L 376.995142 292.181569 
L 373.986676 292.181569 
z
" style="fill:#008000;opacity:0.2;"/>
   </g>
   <g id="patch_296">
    <path clip-path="url(#pd14569a623)" d="M 376.995142 307.584 
L 380.003607 307.584 
L 380.003607 303.383337 
L 376.995142 303.383337 
z
" style="fill:#008000;opacity:0.2;"/>
   </g>
   <g id="patch_297">
    <path clip-path="url(#pd14569a623)" d="M 380.003607 307.584 
L 383.012073 307.584 
L 383.012073 300.582895 
L 380.003607 300.582895 
z
" style="fill:#008000;opacity:0.2;"/>
   </g>
   <g id="patch_298">
    <path clip-path="url(#pd14569a623)" d="M 383.012073 307.584 
L 386.020538 307.584 
L 386.020538 303.383337 
L 383.012073 303.383337 
z
" style="fill:#008000;opacity:0.2;"/>
   </g>
   <g id="patch_299">
    <path clip-path="url(#pd14569a623)" d="M 386.020538 307.584 
L 389.029004 307.584 
L 389.029004 301.983116 
L 386.020538 301.983116 
z
" style="fill:#008000;opacity:0.2;"/>
   </g>
   <g id="patch_300">
    <path clip-path="url(#pd14569a623)" d="M 389.029004 307.584 
L 392.037469 307.584 
L 392.037469 306.183779 
L 389.029004 306.183779 
z
" style="fill:#008000;opacity:0.2;"/>
   </g>
   <g id="patch_301">
    <path clip-path="url(#pd14569a623)" d="M 392.037469 307.584 
L 395.045935 307.584 
L 395.045935 307.584 
L 392.037469 307.584 
z
" style="fill:#008000;opacity:0.2;"/>
   </g>
   <g id="patch_302">
    <path clip-path="url(#pd14569a623)" d="M 395.045935 307.584 
L 398.0544 307.584 
L 398.0544 306.183779 
L 395.045935 306.183779 
z
" style="fill:#008000;opacity:0.2;"/>
   </g>
   <g id="matplotlib.axis_1">
    <g id="xtick_1">
     <g id="line2d_1">
      <defs>
       <path d="M 0 0 
L 0 3.5 
" id="m8746cb7be0" style="stroke:#000000;stroke-width:0.8;"/>
      </defs>
      <g>
       <use style="stroke:#000000;stroke-width:0.8;" x="63.443782" xlink:href="#m8746cb7be0" y="307.584"/>
      </g>
     </g>
     <g id="text_1">
      <!-- 4.0 -->
      <g transform="translate(55.492219 322.182437)scale(0.1 -0.1)">
       <defs>
        <path d="M 2419 4116 
L 825 1625 
L 2419 1625 
L 2419 4116 
z
M 2253 4666 
L 3047 4666 
L 3047 1625 
L 3713 1625 
L 3713 1100 
L 3047 1100 
L 3047 0 
L 2419 0 
L 2419 1100 
L 313 1100 
L 313 1709 
L 2253 4666 
z
" id="DejaVuSans-34" transform="scale(0.015625)"/>
        <path d="M 684 794 
L 1344 794 
L 1344 0 
L 684 0 
L 684 794 
z
" id="DejaVuSans-2e" transform="scale(0.015625)"/>
        <path d="M 2034 4250 
Q 1547 4250 1301 3770 
Q 1056 3291 1056 2328 
Q 1056 1369 1301 889 
Q 1547 409 2034 409 
Q 2525 409 2770 889 
Q 3016 1369 3016 2328 
Q 3016 3291 2770 3770 
Q 2525 4250 2034 4250 
z
M 2034 4750 
Q 2819 4750 3233 4129 
Q 3647 3509 3647 2328 
Q 3647 1150 3233 529 
Q 2819 -91 2034 -91 
Q 1250 -91 836 529 
Q 422 1150 422 2328 
Q 422 3509 836 4129 
Q 1250 4750 2034 4750 
z
" id="DejaVuSans-30" transform="scale(0.015625)"/>
       </defs>
       <use xlink:href="#DejaVuSans-34"/>
       <use x="63.623047" xlink:href="#DejaVuSans-2e"/>
       <use x="95.410156" xlink:href="#DejaVuSans-30"/>
      </g>
     </g>
    </g>
    <g id="xtick_2">
     <g id="line2d_2">
      <g>
       <use style="stroke:#000000;stroke-width:0.8;" x="128.374691" xlink:href="#m8746cb7be0" y="307.584"/>
      </g>
     </g>
     <g id="text_2">
      <!-- 4.5 -->
      <g transform="translate(120.423128 322.182437)scale(0.1 -0.1)">
       <defs>
        <path d="M 691 4666 
L 3169 4666 
L 3169 4134 
L 1269 4134 
L 1269 2991 
Q 1406 3038 1543 3061 
Q 1681 3084 1819 3084 
Q 2600 3084 3056 2656 
Q 3513 2228 3513 1497 
Q 3513 744 3044 326 
Q 2575 -91 1722 -91 
Q 1428 -91 1123 -41 
Q 819 9 494 109 
L 494 744 
Q 775 591 1075 516 
Q 1375 441 1709 441 
Q 2250 441 2565 725 
Q 2881 1009 2881 1497 
Q 2881 1984 2565 2268 
Q 2250 2553 1709 2553 
Q 1456 2553 1204 2497 
Q 953 2441 691 2322 
L 691 4666 
z
" id="DejaVuSans-35" transform="scale(0.015625)"/>
       </defs>
       <use xlink:href="#DejaVuSans-34"/>
       <use x="63.623047" xlink:href="#DejaVuSans-2e"/>
       <use x="95.410156" xlink:href="#DejaVuSans-35"/>
      </g>
     </g>
    </g>
    <g id="xtick_3">
     <g id="line2d_3">
      <g>
       <use style="stroke:#000000;stroke-width:0.8;" x="193.3056" xlink:href="#m8746cb7be0" y="307.584"/>
      </g>
     </g>
     <g id="text_3">
      <!-- 5.0 -->
      <g transform="translate(185.354038 322.182437)scale(0.1 -0.1)">
       <use xlink:href="#DejaVuSans-35"/>
       <use x="63.623047" xlink:href="#DejaVuSans-2e"/>
       <use x="95.410156" xlink:href="#DejaVuSans-30"/>
      </g>
     </g>
    </g>
    <g id="xtick_4">
     <g id="line2d_4">
      <g>
       <use style="stroke:#000000;stroke-width:0.8;" x="258.236509" xlink:href="#m8746cb7be0" y="307.584"/>
      </g>
     </g>
     <g id="text_4">
      <!-- 5.5 -->
      <g transform="translate(250.284947 322.182437)scale(0.1 -0.1)">
       <use xlink:href="#DejaVuSans-35"/>
       <use x="63.623047" xlink:href="#DejaVuSans-2e"/>
       <use x="95.410156" xlink:href="#DejaVuSans-35"/>
      </g>
     </g>
    </g>
    <g id="xtick_5">
     <g id="line2d_5">
      <g>
       <use style="stroke:#000000;stroke-width:0.8;" x="323.167418" xlink:href="#m8746cb7be0" y="307.584"/>
      </g>
     </g>
     <g id="text_5">
      <!-- 6.0 -->
      <g transform="translate(315.215856 322.182437)scale(0.1 -0.1)">
       <defs>
        <path d="M 2113 2584 
Q 1688 2584 1439 2293 
Q 1191 2003 1191 1497 
Q 1191 994 1439 701 
Q 1688 409 2113 409 
Q 2538 409 2786 701 
Q 3034 994 3034 1497 
Q 3034 2003 2786 2293 
Q 2538 2584 2113 2584 
z
M 3366 4563 
L 3366 3988 
Q 3128 4100 2886 4159 
Q 2644 4219 2406 4219 
Q 1781 4219 1451 3797 
Q 1122 3375 1075 2522 
Q 1259 2794 1537 2939 
Q 1816 3084 2150 3084 
Q 2853 3084 3261 2657 
Q 3669 2231 3669 1497 
Q 3669 778 3244 343 
Q 2819 -91 2113 -91 
Q 1303 -91 875 529 
Q 447 1150 447 2328 
Q 447 3434 972 4092 
Q 1497 4750 2381 4750 
Q 2619 4750 2861 4703 
Q 3103 4656 3366 4563 
z
" id="DejaVuSans-36" transform="scale(0.015625)"/>
       </defs>
       <use xlink:href="#DejaVuSans-36"/>
       <use x="63.623047" xlink:href="#DejaVuSans-2e"/>
       <use x="95.410156" xlink:href="#DejaVuSans-30"/>
      </g>
     </g>
    </g>
    <g id="xtick_6">
     <g id="line2d_6">
      <g>
       <use style="stroke:#000000;stroke-width:0.8;" x="388.098327" xlink:href="#m8746cb7be0" y="307.584"/>
      </g>
     </g>
     <g id="text_6">
      <!-- 6.5 -->
      <g transform="translate(380.146765 322.182437)scale(0.1 -0.1)">
       <use xlink:href="#DejaVuSans-36"/>
       <use x="63.623047" xlink:href="#DejaVuSans-2e"/>
       <use x="95.410156" xlink:href="#DejaVuSans-35"/>
      </g>
     </g>
    </g>
    <g id="text_7">
     <!-- Restraint Score -->
     <g transform="translate(198.040469 335.860562)scale(0.1 -0.1)">
      <defs>
       <path d="M 2841 2188 
Q 3044 2119 3236 1894 
Q 3428 1669 3622 1275 
L 4263 0 
L 3584 0 
L 2988 1197 
Q 2756 1666 2539 1819 
Q 2322 1972 1947 1972 
L 1259 1972 
L 1259 0 
L 628 0 
L 628 4666 
L 2053 4666 
Q 2853 4666 3247 4331 
Q 3641 3997 3641 3322 
Q 3641 2881 3436 2590 
Q 3231 2300 2841 2188 
z
M 1259 4147 
L 1259 2491 
L 2053 2491 
Q 2509 2491 2742 2702 
Q 2975 2913 2975 3322 
Q 2975 3731 2742 3939 
Q 2509 4147 2053 4147 
L 1259 4147 
z
" id="DejaVuSans-52" transform="scale(0.015625)"/>
       <path d="M 3597 1894 
L 3597 1613 
L 953 1613 
Q 991 1019 1311 708 
Q 1631 397 2203 397 
Q 2534 397 2845 478 
Q 3156 559 3463 722 
L 3463 178 
Q 3153 47 2828 -22 
Q 2503 -91 2169 -91 
Q 1331 -91 842 396 
Q 353 884 353 1716 
Q 353 2575 817 3079 
Q 1281 3584 2069 3584 
Q 2775 3584 3186 3129 
Q 3597 2675 3597 1894 
z
M 3022 2063 
Q 3016 2534 2758 2815 
Q 2500 3097 2075 3097 
Q 1594 3097 1305 2825 
Q 1016 2553 972 2059 
L 3022 2063 
z
" id="DejaVuSans-65" transform="scale(0.015625)"/>
       <path d="M 2834 3397 
L 2834 2853 
Q 2591 2978 2328 3040 
Q 2066 3103 1784 3103 
Q 1356 3103 1142 2972 
Q 928 2841 928 2578 
Q 928 2378 1081 2264 
Q 1234 2150 1697 2047 
L 1894 2003 
Q 2506 1872 2764 1633 
Q 3022 1394 3022 966 
Q 3022 478 2636 193 
Q 2250 -91 1575 -91 
Q 1294 -91 989 -36 
Q 684 19 347 128 
L 347 722 
Q 666 556 975 473 
Q 1284 391 1588 391 
Q 1994 391 2212 530 
Q 2431 669 2431 922 
Q 2431 1156 2273 1281 
Q 2116 1406 1581 1522 
L 1381 1569 
Q 847 1681 609 1914 
Q 372 2147 372 2553 
Q 372 3047 722 3315 
Q 1072 3584 1716 3584 
Q 2034 3584 2315 3537 
Q 2597 3491 2834 3397 
z
" id="DejaVuSans-73" transform="scale(0.015625)"/>
       <path d="M 1172 4494 
L 1172 3500 
L 2356 3500 
L 2356 3053 
L 1172 3053 
L 1172 1153 
Q 1172 725 1289 603 
Q 1406 481 1766 481 
L 2356 481 
L 2356 0 
L 1766 0 
Q 1100 0 847 248 
Q 594 497 594 1153 
L 594 3053 
L 172 3053 
L 172 3500 
L 594 3500 
L 594 4494 
L 1172 4494 
z
" id="DejaVuSans-74" transform="scale(0.015625)"/>
       <path d="M 2631 2963 
Q 2534 3019 2420 3045 
Q 2306 3072 2169 3072 
Q 1681 3072 1420 2755 
Q 1159 2438 1159 1844 
L 1159 0 
L 581 0 
L 581 3500 
L 1159 3500 
L 1159 2956 
Q 1341 3275 1631 3429 
Q 1922 3584 2338 3584 
Q 2397 3584 2469 3576 
Q 2541 3569 2628 3553 
L 2631 2963 
z
" id="DejaVuSans-72" transform="scale(0.015625)"/>
       <path d="M 2194 1759 
Q 1497 1759 1228 1600 
Q 959 1441 959 1056 
Q 959 750 1161 570 
Q 1363 391 1709 391 
Q 2188 391 2477 730 
Q 2766 1069 2766 1631 
L 2766 1759 
L 2194 1759 
z
M 3341 1997 
L 3341 0 
L 2766 0 
L 2766 531 
Q 2569 213 2275 61 
Q 1981 -91 1556 -91 
Q 1019 -91 701 211 
Q 384 513 384 1019 
Q 384 1609 779 1909 
Q 1175 2209 1959 2209 
L 2766 2209 
L 2766 2266 
Q 2766 2663 2505 2880 
Q 2244 3097 1772 3097 
Q 1472 3097 1187 3025 
Q 903 2953 641 2809 
L 641 3341 
Q 956 3463 1253 3523 
Q 1550 3584 1831 3584 
Q 2591 3584 2966 3190 
Q 3341 2797 3341 1997 
z
" id="DejaVuSans-61" transform="scale(0.015625)"/>
       <path d="M 603 3500 
L 1178 3500 
L 1178 0 
L 603 0 
L 603 3500 
z
M 603 4863 
L 1178 4863 
L 1178 4134 
L 603 4134 
L 603 4863 
z
" id="DejaVuSans-69" transform="scale(0.015625)"/>
       <path d="M 3513 2113 
L 3513 0 
L 2938 0 
L 2938 2094 
Q 2938 2591 2744 2837 
Q 2550 3084 2163 3084 
Q 1697 3084 1428 2787 
Q 1159 2491 1159 1978 
L 1159 0 
L 581 0 
L 581 3500 
L 1159 3500 
L 1159 2956 
Q 1366 3272 1645 3428 
Q 1925 3584 2291 3584 
Q 2894 3584 3203 3211 
Q 3513 2838 3513 2113 
z
" id="DejaVuSans-6e" transform="scale(0.015625)"/>
       <path id="DejaVuSans-20" transform="scale(0.015625)"/>
       <path d="M 3425 4513 
L 3425 3897 
Q 3066 4069 2747 4153 
Q 2428 4238 2131 4238 
Q 1616 4238 1336 4038 
Q 1056 3838 1056 3469 
Q 1056 3159 1242 3001 
Q 1428 2844 1947 2747 
L 2328 2669 
Q 3034 2534 3370 2195 
Q 3706 1856 3706 1288 
Q 3706 609 3251 259 
Q 2797 -91 1919 -91 
Q 1588 -91 1214 -16 
Q 841 59 441 206 
L 441 856 
Q 825 641 1194 531 
Q 1563 422 1919 422 
Q 2459 422 2753 634 
Q 3047 847 3047 1241 
Q 3047 1584 2836 1778 
Q 2625 1972 2144 2069 
L 1759 2144 
Q 1053 2284 737 2584 
Q 422 2884 422 3419 
Q 422 4038 858 4394 
Q 1294 4750 2059 4750 
Q 2388 4750 2728 4690 
Q 3069 4631 3425 4513 
z
" id="DejaVuSans-53" transform="scale(0.015625)"/>
       <path d="M 3122 3366 
L 3122 2828 
Q 2878 2963 2633 3030 
Q 2388 3097 2138 3097 
Q 1578 3097 1268 2742 
Q 959 2388 959 1747 
Q 959 1106 1268 751 
Q 1578 397 2138 397 
Q 2388 397 2633 464 
Q 2878 531 3122 666 
L 3122 134 
Q 2881 22 2623 -34 
Q 2366 -91 2075 -91 
Q 1284 -91 818 406 
Q 353 903 353 1747 
Q 353 2603 823 3093 
Q 1294 3584 2113 3584 
Q 2378 3584 2631 3529 
Q 2884 3475 3122 3366 
z
" id="DejaVuSans-63" transform="scale(0.015625)"/>
       <path d="M 1959 3097 
Q 1497 3097 1228 2736 
Q 959 2375 959 1747 
Q 959 1119 1226 758 
Q 1494 397 1959 397 
Q 2419 397 2687 759 
Q 2956 1122 2956 1747 
Q 2956 2369 2687 2733 
Q 2419 3097 1959 3097 
z
M 1959 3584 
Q 2709 3584 3137 3096 
Q 3566 2609 3566 1747 
Q 3566 888 3137 398 
Q 2709 -91 1959 -91 
Q 1206 -91 779 398 
Q 353 888 353 1747 
Q 353 2609 779 3096 
Q 1206 3584 1959 3584 
z
" id="DejaVuSans-6f" transform="scale(0.015625)"/>
      </defs>
      <use xlink:href="#DejaVuSans-52"/>
      <use x="64.982422" xlink:href="#DejaVuSans-65"/>
      <use x="126.505859" xlink:href="#DejaVuSans-73"/>
      <use x="178.605469" xlink:href="#DejaVuSans-74"/>
      <use x="217.814453" xlink:href="#DejaVuSans-72"/>
      <use x="258.927734" xlink:href="#DejaVuSans-61"/>
      <use x="320.207031" xlink:href="#DejaVuSans-69"/>
      <use x="347.990234" xlink:href="#DejaVuSans-6e"/>
      <use x="411.369141" xlink:href="#DejaVuSans-74"/>
      <use x="450.578125" xlink:href="#DejaVuSans-20"/>
      <use x="482.365234" xlink:href="#DejaVuSans-53"/>
      <use x="545.841797" xlink:href="#DejaVuSans-63"/>
      <use x="600.822266" xlink:href="#DejaVuSans-6f"/>
      <use x="662.003906" xlink:href="#DejaVuSans-72"/>
      <use x="700.867188" xlink:href="#DejaVuSans-65"/>
     </g>
    </g>
   </g>
   <g id="matplotlib.axis_2">
    <g id="ytick_1">
     <g id="line2d_7">
      <defs>
       <path d="M 0 0 
L -3.5 0 
" id="m294037e2b7" style="stroke:#000000;stroke-width:0.8;"/>
      </defs>
      <g>
       <use style="stroke:#000000;stroke-width:0.8;" x="57.6" xlink:href="#m294037e2b7" y="307.584"/>
      </g>
     </g>
     <g id="text_8">
      <!-- 0 -->
      <g transform="translate(44.2375 311.383219)scale(0.1 -0.1)">
       <use xlink:href="#DejaVuSans-30"/>
      </g>
     </g>
    </g>
    <g id="ytick_2">
     <g id="line2d_8">
      <g>
       <use style="stroke:#000000;stroke-width:0.8;" x="57.6" xlink:href="#m294037e2b7" y="272.578475"/>
      </g>
     </g>
     <g id="text_9">
      <!-- 25 -->
      <g transform="translate(37.875 276.377694)scale(0.1 -0.1)">
       <defs>
        <path d="M 1228 531 
L 3431 531 
L 3431 0 
L 469 0 
L 469 531 
Q 828 903 1448 1529 
Q 2069 2156 2228 2338 
Q 2531 2678 2651 2914 
Q 2772 3150 2772 3378 
Q 2772 3750 2511 3984 
Q 2250 4219 1831 4219 
Q 1534 4219 1204 4116 
Q 875 4013 500 3803 
L 500 4441 
Q 881 4594 1212 4672 
Q 1544 4750 1819 4750 
Q 2544 4750 2975 4387 
Q 3406 4025 3406 3419 
Q 3406 3131 3298 2873 
Q 3191 2616 2906 2266 
Q 2828 2175 2409 1742 
Q 1991 1309 1228 531 
z
" id="DejaVuSans-32" transform="scale(0.015625)"/>
       </defs>
       <use xlink:href="#DejaVuSans-32"/>
       <use x="63.623047" xlink:href="#DejaVuSans-35"/>
      </g>
     </g>
    </g>
    <g id="ytick_3">
     <g id="line2d_9">
      <g>
       <use style="stroke:#000000;stroke-width:0.8;" x="57.6" xlink:href="#m294037e2b7" y="237.57295"/>
      </g>
     </g>
     <g id="text_10">
      <!-- 50 -->
      <g transform="translate(37.875 241.372169)scale(0.1 -0.1)">
       <use xlink:href="#DejaVuSans-35"/>
       <use x="63.623047" xlink:href="#DejaVuSans-30"/>
      </g>
     </g>
    </g>
    <g id="ytick_4">
     <g id="line2d_10">
      <g>
       <use style="stroke:#000000;stroke-width:0.8;" x="57.6" xlink:href="#m294037e2b7" y="202.567425"/>
      </g>
     </g>
     <g id="text_11">
      <!-- 75 -->
      <g transform="translate(37.875 206.366644)scale(0.1 -0.1)">
       <defs>
        <path d="M 525 4666 
L 3525 4666 
L 3525 4397 
L 1831 0 
L 1172 0 
L 2766 4134 
L 525 4134 
L 525 4666 
z
" id="DejaVuSans-37" transform="scale(0.015625)"/>
       </defs>
       <use xlink:href="#DejaVuSans-37"/>
       <use x="63.623047" xlink:href="#DejaVuSans-35"/>
      </g>
     </g>
    </g>
    <g id="ytick_5">
     <g id="line2d_11">
      <g>
       <use style="stroke:#000000;stroke-width:0.8;" x="57.6" xlink:href="#m294037e2b7" y="167.561901"/>
      </g>
     </g>
     <g id="text_12">
      <!-- 100 -->
      <g transform="translate(31.5125 171.361119)scale(0.1 -0.1)">
       <defs>
        <path d="M 794 531 
L 1825 531 
L 1825 4091 
L 703 3866 
L 703 4441 
L 1819 4666 
L 2450 4666 
L 2450 531 
L 3481 531 
L 3481 0 
L 794 0 
L 794 531 
z
" id="DejaVuSans-31" transform="scale(0.015625)"/>
       </defs>
       <use xlink:href="#DejaVuSans-31"/>
       <use x="63.623047" xlink:href="#DejaVuSans-30"/>
       <use x="127.246094" xlink:href="#DejaVuSans-30"/>
      </g>
     </g>
    </g>
    <g id="ytick_6">
     <g id="line2d_12">
      <g>
       <use style="stroke:#000000;stroke-width:0.8;" x="57.6" xlink:href="#m294037e2b7" y="132.556376"/>
      </g>
     </g>
     <g id="text_13">
      <!-- 125 -->
      <g transform="translate(31.5125 136.355594)scale(0.1 -0.1)">
       <use xlink:href="#DejaVuSans-31"/>
       <use x="63.623047" xlink:href="#DejaVuSans-32"/>
       <use x="127.246094" xlink:href="#DejaVuSans-35"/>
      </g>
     </g>
    </g>
    <g id="ytick_7">
     <g id="line2d_13">
      <g>
       <use style="stroke:#000000;stroke-width:0.8;" x="57.6" xlink:href="#m294037e2b7" y="97.550851"/>
      </g>
     </g>
     <g id="text_14">
      <!-- 150 -->
      <g transform="translate(31.5125 101.35007)scale(0.1 -0.1)">
       <use xlink:href="#DejaVuSans-31"/>
       <use x="63.623047" xlink:href="#DejaVuSans-35"/>
       <use x="127.246094" xlink:href="#DejaVuSans-30"/>
      </g>
     </g>
    </g>
    <g id="ytick_8">
     <g id="line2d_14">
      <g>
       <use style="stroke:#000000;stroke-width:0.8;" x="57.6" xlink:href="#m294037e2b7" y="62.545326"/>
      </g>
     </g>
     <g id="text_15">
      <!-- 175 -->
      <g transform="translate(31.5125 66.344545)scale(0.1 -0.1)">
       <use xlink:href="#DejaVuSans-31"/>
       <use x="63.623047" xlink:href="#DejaVuSans-37"/>
       <use x="127.246094" xlink:href="#DejaVuSans-35"/>
      </g>
     </g>
    </g>
   </g>
   <g id="patch_303">
    <path clip-path="url(#pd14569a623)" d="M 108.462545 307.584 
L 108.462545 306.183779 
L 111.362793 306.183779 
L 111.362793 307.584 
L 114.26304 307.584 
L 114.26304 301.983116 
L 117.163287 301.983116 
L 117.163287 307.584 
L 120.063535 307.584 
L 120.063535 299.182674 
L 122.963782 299.182674 
L 122.963782 304.783558 
L 125.864029 304.783558 
L 125.864029 306.183779 
L 128.764276 306.183779 
L 128.764276 303.383337 
L 140.365265 303.383337 
L 140.365265 300.582895 
L 143.265513 300.582895 
L 143.265513 296.382232 
L 146.16576 296.382232 
L 146.16576 293.58179 
L 149.066007 293.58179 
L 149.066007 297.782453 
L 151.966255 297.782453 
L 151.966255 296.382232 
L 154.866502 296.382232 
L 154.866502 292.181569 
L 157.766749 292.181569 
L 157.766749 297.782453 
L 160.666996 297.782453 
L 160.666996 289.381127 
L 163.567244 289.381127 
L 163.567244 285.180464 
L 166.467491 285.180464 
L 166.467491 282.380022 
L 169.367738 282.380022 
L 169.367738 280.979801 
L 172.267985 280.979801 
L 172.267985 271.178254 
L 175.168233 271.178254 
L 175.168233 282.380022 
L 178.06848 282.380022 
L 178.06848 261.376707 
L 180.968727 261.376707 
L 180.968727 272.578475 
L 183.868975 272.578475 
L 183.868975 261.376707 
L 186.769222 261.376707 
L 186.769222 269.778033 
L 189.669469 269.778033 
L 189.669469 233.372287 
L 192.569716 233.372287 
L 192.569716 245.974276 
L 195.469964 245.974276 
L 195.469964 251.57516 
L 198.370211 251.57516 
L 198.370211 243.173834 
L 201.270458 243.173834 
L 201.270458 209.56853 
L 204.170705 209.56853 
L 204.170705 201.167204 
L 207.070953 201.167204 
L 207.070953 203.967646 
L 209.9712 203.967646 
L 209.9712 220.770298 
L 212.871447 220.770298 
L 212.871447 208.168309 
L 215.771695 208.168309 
L 215.771695 161.961017 
L 218.671942 161.961017 
L 218.671942 191.365657 
L 221.572189 191.365657 
L 221.572189 192.765878 
L 224.472436 192.765878 
L 224.472436 163.361238 
L 227.372684 163.361238 
L 227.372684 159.160575 
L 230.272931 159.160575 
L 230.272931 138.15726 
L 233.173178 138.15726 
L 233.173178 166.16168 
L 236.073425 166.16168 
L 236.073425 131.156155 
L 238.973673 131.156155 
L 238.973673 145.158365 
L 241.87392 145.158365 
L 241.87392 149.359028 
L 244.774167 149.359028 
L 244.774167 126.955492 
L 247.674415 126.955492 
L 247.674415 100.351293 
L 250.574662 100.351293 
L 250.574662 138.15726 
L 253.474909 138.15726 
L 253.474909 80.748199 
L 256.375156 80.748199 
L 256.375156 89.149525 
L 259.275404 89.149525 
L 259.275404 76.547536 
L 262.175651 76.547536 
L 262.175651 105.952177 
L 265.075898 105.952177 
L 265.075898 58.344663 
L 267.976145 58.344663 
L 267.976145 90.549746 
L 270.876393 90.549746 
L 270.876393 101.751514 
L 273.77664 101.751514 
L 273.77664 82.14842 
L 276.676887 82.14842 
L 276.676887 100.351293 
L 279.577135 100.351293 
L 279.577135 145.158365 
L 282.477382 145.158365 
L 282.477382 108.752619 
L 285.377629 108.752619 
L 285.377629 59.744884 
L 288.277876 59.744884 
L 288.277876 70.946652 
L 291.178124 70.946652 
L 291.178124 118.554166 
L 294.078371 118.554166 
L 294.078371 104.551956 
L 296.978618 104.551956 
L 296.978618 124.15505 
L 299.878865 124.15505 
L 299.878865 115.753724 
L 302.779113 115.753724 
L 302.779113 121.354608 
L 305.67936 121.354608 
L 305.67936 152.15947 
L 308.579607 152.15947 
L 308.579607 139.557481 
L 311.479855 139.557481 
L 311.479855 122.754829 
L 314.380102 122.754829 
L 314.380102 138.15726 
L 317.280349 138.15726 
L 317.280349 136.757039 
L 320.180596 136.757039 
L 320.180596 191.365657 
L 323.080844 191.365657 
L 323.080844 156.360133 
L 325.981091 156.360133 
L 325.981091 198.366762 
L 328.881338 198.366762 
L 328.881338 189.965436 
L 331.781585 189.965436 
L 331.781585 194.166099 
L 334.681833 194.166099 
L 334.681833 210.968751 
L 337.58208 210.968751 
L 337.58208 230.571845 
L 340.482327 230.571845 
L 340.482327 229.171624 
L 343.382575 229.171624 
L 343.382575 231.972066 
L 346.282822 231.972066 
L 346.282822 240.373392 
L 349.183069 240.373392 
L 349.183069 266.977591 
L 352.083316 266.977591 
L 352.083316 248.774718 
L 354.983564 248.774718 
L 354.983564 264.177149 
L 357.883811 264.177149 
L 357.883811 280.979801 
L 360.784058 280.979801 
L 360.784058 276.779138 
L 363.684305 276.779138 
L 363.684305 280.979801 
L 369.4848 280.979801 
L 369.4848 292.181569 
L 372.385047 292.181569 
L 372.385047 290.781348 
L 375.285295 290.781348 
L 375.285295 294.982011 
L 378.185542 294.982011 
L 378.185542 299.182674 
L 381.085789 299.182674 
L 381.085789 301.983116 
L 383.986036 301.983116 
L 383.986036 300.582895 
L 386.886284 300.582895 
L 386.886284 301.983116 
L 389.786531 301.983116 
L 389.786531 306.183779 
L 392.686778 306.183779 
L 392.686778 307.584 
L 395.587025 307.584 
L 395.587025 304.783558 
L 398.487273 304.783558 
L 398.487273 307.584 
L 398.487273 307.584 
" style="fill:none;stroke:#ff0000;stroke-linejoin:miter;"/>
   </g>
   <g id="patch_304">
    <path clip-path="url(#pd14569a623)" d="M 73.832727 307.584 
L 73.832727 306.183779 
L 77.001356 306.183779 
L 77.001356 307.584 
L 108.687639 307.584 
L 108.687639 304.783558 
L 115.024896 304.783558 
L 115.024896 306.183779 
L 118.193524 306.183779 
L 118.193524 304.783558 
L 121.362153 304.783558 
L 121.362153 303.383337 
L 124.530781 303.383337 
L 124.530781 301.983116 
L 127.699409 301.983116 
L 127.699409 303.383337 
L 134.036666 303.383337 
L 134.036666 297.782453 
L 140.373923 297.782453 
L 140.373923 290.781348 
L 143.542551 290.781348 
L 143.542551 299.182674 
L 146.71118 299.182674 
L 146.71118 296.382232 
L 149.879808 296.382232 
L 149.879808 283.780243 
L 153.048436 283.780243 
L 153.048436 289.381127 
L 159.385693 289.381127 
L 159.385693 279.57958 
L 162.554321 279.57958 
L 162.554321 265.57737 
L 168.891578 265.57737 
L 168.891578 268.377812 
L 172.060207 268.377812 
L 172.060207 283.780243 
L 175.228835 283.780243 
L 175.228835 266.977591 
L 178.397463 266.977591 
L 178.397463 269.778033 
L 181.566092 269.778033 
L 181.566092 250.174939 
L 184.73472 250.174939 
L 184.73472 255.775823 
L 187.903348 255.775823 
L 187.903348 252.975381 
L 191.071977 252.975381 
L 191.071977 226.371182 
L 194.240605 226.371182 
L 194.240605 231.972066 
L 197.409233 231.972066 
L 197.409233 250.174939 
L 200.577862 250.174939 
L 200.577862 192.765878 
L 203.74649 192.765878 
L 203.74649 217.969856 
L 206.915119 217.969856 
L 206.915119 209.56853 
L 210.083747 209.56853 
L 210.083747 199.766983 
L 213.252375 199.766983 
L 213.252375 167.561901 
L 216.421004 167.561901 
L 216.421004 210.968751 
L 219.589632 210.968751 
L 219.589632 161.961017 
L 222.75826 161.961017 
L 222.75826 149.359028 
L 225.926889 149.359028 
L 225.926889 170.362343 
L 232.264145 170.362343 
L 232.264145 138.15726 
L 235.432774 138.15726 
L 235.432774 156.360133 
L 238.601402 156.360133 
L 238.601402 135.356818 
L 241.770031 135.356818 
L 241.770031 119.954387 
L 244.938659 119.954387 
L 244.938659 142.357923 
L 248.107287 142.357923 
L 248.107287 125.555271 
L 251.275916 125.555271 
L 251.275916 86.349083 
L 254.444544 86.349083 
L 254.444544 107.352398 
L 257.613172 107.352398 
L 257.613172 117.153945 
L 260.781801 117.153945 
L 260.781801 105.952177 
L 263.950429 105.952177 
L 263.950429 132.556376 
L 267.119057 132.556376 
L 267.119057 139.557481 
L 270.287686 139.557481 
L 270.287686 98.951072 
L 273.456314 98.951072 
L 273.456314 125.555271 
L 276.624943 125.555271 
L 276.624943 136.757039 
L 279.793571 136.757039 
L 279.793571 54.144 
L 282.962199 54.144 
L 282.962199 110.15284 
L 286.130828 110.15284 
L 286.130828 118.554166 
L 289.299456 118.554166 
L 289.299456 132.556376 
L 292.468084 132.556376 
L 292.468084 131.156155 
L 295.636713 131.156155 
L 295.636713 133.956597 
L 298.805341 133.956597 
L 298.805341 101.751514 
L 301.973969 101.751514 
L 301.973969 153.559691 
L 305.142598 153.559691 
L 305.142598 164.761459 
L 308.311226 164.761459 
L 308.311226 159.160575 
L 311.479855 159.160575 
L 311.479855 152.15947 
L 314.648483 152.15947 
L 314.648483 191.365657 
L 317.817111 191.365657 
L 317.817111 175.963227 
L 324.154368 175.963227 
L 324.154368 201.167204 
L 327.322996 201.167204 
L 327.322996 203.967646 
L 330.491625 203.967646 
L 330.491625 226.371182 
L 333.660253 226.371182 
L 333.660253 244.574055 
L 336.828881 244.574055 
L 336.828881 226.371182 
L 339.99751 226.371182 
L 339.99751 234.772508 
L 343.166138 234.772508 
L 343.166138 264.177149 
L 349.503395 264.177149 
L 349.503395 272.578475 
L 352.672023 272.578475 
L 352.672023 257.176044 
L 355.840652 257.176044 
L 355.840652 261.376707 
L 359.00928 261.376707 
L 359.00928 269.778033 
L 362.177908 269.778033 
L 362.177908 275.378917 
L 365.346537 275.378917 
L 365.346537 292.181569 
L 368.515165 292.181569 
L 368.515165 290.781348 
L 371.683793 290.781348 
L 371.683793 294.982011 
L 374.852422 294.982011 
L 374.852422 304.783558 
L 378.02105 304.783558 
L 378.02105 299.182674 
L 381.189679 299.182674 
L 381.189679 301.983116 
L 384.358307 301.983116 
L 384.358307 299.182674 
L 387.526935 299.182674 
L 387.526935 306.183779 
L 390.695564 306.183779 
L 390.695564 307.584 
L 390.695564 307.584 
" style="fill:none;stroke:#0000ff;stroke-linejoin:miter;"/>
   </g>
   <g id="patch_305">
    <path clip-path="url(#pd14569a623)" d="M 97.207855 307.584 
L 97.207855 304.783558 
L 100.21632 304.783558 
L 100.21632 307.584 
L 121.275578 307.584 
L 121.275578 306.183779 
L 124.284044 306.183779 
L 124.284044 304.783558 
L 127.292509 304.783558 
L 127.292509 306.183779 
L 130.300975 306.183779 
L 130.300975 307.584 
L 133.30944 307.584 
L 133.30944 304.783558 
L 136.317905 304.783558 
L 136.317905 307.584 
L 142.334836 307.584 
L 142.334836 300.582895 
L 145.343302 300.582895 
L 145.343302 301.983116 
L 151.360233 301.983116 
L 151.360233 300.582895 
L 154.368698 300.582895 
L 154.368698 294.982011 
L 157.377164 294.982011 
L 157.377164 296.382232 
L 160.385629 296.382232 
L 160.385629 292.181569 
L 163.394095 292.181569 
L 163.394095 293.58179 
L 169.411025 293.58179 
L 169.411025 290.781348 
L 172.419491 290.781348 
L 172.419491 285.180464 
L 175.427956 285.180464 
L 175.427956 292.181569 
L 178.436422 292.181569 
L 178.436422 282.380022 
L 181.444887 282.380022 
L 181.444887 286.580685 
L 184.453353 286.580685 
L 184.453353 283.780243 
L 187.461818 283.780243 
L 187.461818 266.977591 
L 190.470284 266.977591 
L 190.470284 286.580685 
L 193.478749 286.580685 
L 193.478749 266.977591 
L 196.487215 266.977591 
L 196.487215 262.776928 
L 199.49568 262.776928 
L 199.49568 247.374497 
L 202.504145 247.374497 
L 202.504145 255.775823 
L 205.512611 255.775823 
L 205.512611 238.973171 
L 208.521076 238.973171 
L 208.521076 227.771403 
L 211.529542 227.771403 
L 211.529542 233.372287 
L 214.538007 233.372287 
L 214.538007 248.774718 
L 217.546473 248.774718 
L 217.546473 227.771403 
L 220.554938 227.771403 
L 220.554938 216.569635 
L 223.563404 216.569635 
L 223.563404 194.166099 
L 226.571869 194.166099 
L 226.571869 217.969856 
L 229.580335 217.969856 
L 229.580335 188.565215 
L 232.5888 188.565215 
L 232.5888 196.966541 
L 235.597265 196.966541 
L 235.597265 192.765878 
L 238.605731 192.765878 
L 238.605731 226.371182 
L 241.614196 226.371182 
L 241.614196 195.56632 
L 244.622662 195.56632 
L 244.622662 178.763669 
L 247.631127 178.763669 
L 247.631127 191.365657 
L 250.639593 191.365657 
L 250.639593 187.164994 
L 253.648058 187.164994 
L 253.648058 167.561901 
L 256.656524 167.561901 
L 256.656524 154.959912 
L 259.664989 154.959912 
L 259.664989 159.160575 
L 262.673455 159.160575 
L 262.673455 177.363448 
L 265.68192 177.363448 
L 265.68192 146.558586 
L 268.690385 146.558586 
L 268.690385 168.962122 
L 271.698851 168.962122 
L 271.698851 145.158365 
L 274.707316 145.158365 
L 274.707316 149.359028 
L 277.715782 149.359028 
L 277.715782 150.759249 
L 280.724247 150.759249 
L 280.724247 149.359028 
L 283.732713 149.359028 
L 283.732713 146.558586 
L 286.741178 146.558586 
L 286.741178 156.360133 
L 289.749644 156.360133 
L 289.749644 184.364552 
L 292.758109 184.364552 
L 292.758109 166.16168 
L 298.77504 166.16168 
L 298.77504 191.365657 
L 301.783505 191.365657 
L 301.783505 171.762564 
L 304.791971 171.762564 
L 304.791971 194.166099 
L 307.800436 194.166099 
L 307.800436 196.966541 
L 310.808902 196.966541 
L 310.808902 189.965436 
L 316.825833 189.965436 
L 316.825833 224.970961 
L 319.834298 224.970961 
L 319.834298 203.967646 
L 322.842764 203.967646 
L 322.842764 198.366762 
L 325.851229 198.366762 
L 325.851229 203.967646 
L 328.859695 203.967646 
L 328.859695 229.171624 
L 331.86816 229.171624 
L 331.86816 222.170519 
L 334.876625 222.170519 
L 334.876625 237.57295 
L 337.885091 237.57295 
L 337.885091 236.172729 
L 340.893556 236.172729 
L 340.893556 230.571845 
L 343.902022 230.571845 
L 343.902022 248.774718 
L 346.910487 248.774718 
L 346.910487 244.574055 
L 349.918953 244.574055 
L 349.918953 259.976486 
L 352.927418 259.976486 
L 352.927418 265.57737 
L 355.935884 265.57737 
L 355.935884 282.380022 
L 358.944349 282.380022 
L 358.944349 278.179359 
L 361.952815 278.179359 
L 361.952815 275.378917 
L 364.96128 275.378917 
L 364.96128 282.380022 
L 367.969745 282.380022 
L 367.969745 283.780243 
L 370.978211 283.780243 
L 370.978211 290.781348 
L 373.986676 290.781348 
L 373.986676 292.181569 
L 376.995142 292.181569 
L 376.995142 303.383337 
L 380.003607 303.383337 
L 380.003607 300.582895 
L 383.012073 300.582895 
L 383.012073 303.383337 
L 386.020538 303.383337 
L 386.020538 301.983116 
L 389.029004 301.983116 
L 389.029004 306.183779 
L 392.037469 306.183779 
L 392.037469 307.584 
L 395.045935 307.584 
L 395.045935 306.183779 
L 398.0544 306.183779 
L 398.0544 307.584 
L 398.0544 307.584 
" style="fill:none;stroke:#008000;stroke-linejoin:miter;"/>
   </g>
   <g id="patch_306">
    <path d="M 57.6 307.584 
L 57.6 41.472 
" style="fill:none;stroke:#000000;stroke-linecap:square;stroke-linejoin:miter;stroke-width:0.8;"/>
   </g>
   <g id="patch_307">
    <path d="M 414.72 307.584 
L 414.72 41.472 
" style="fill:none;stroke:#000000;stroke-linecap:square;stroke-linejoin:miter;stroke-width:0.8;"/>
   </g>
   <g id="patch_308">
    <path d="M 57.6 307.584 
L 414.72 307.584 
" style="fill:none;stroke:#000000;stroke-linecap:square;stroke-linejoin:miter;stroke-width:0.8;"/>
   </g>
   <g id="patch_309">
    <path d="M 57.6 41.472 
L 414.72 41.472 
" style="fill:none;stroke:#000000;stroke-linecap:square;stroke-linejoin:miter;stroke-width:0.8;"/>
   </g>
   <g id="legend_1">
    <g id="patch_310">
     <path d="M 328.068438 93.506375 
L 407.72 93.506375 
Q 409.72 93.506375 409.72 91.506375 
L 409.72 48.472 
Q 409.72 46.472 407.72 46.472 
L 328.068438 46.472 
Q 326.068438 46.472 326.068438 48.472 
L 326.068438 91.506375 
Q 326.068438 93.506375 328.068438 93.506375 
z
" style="fill:#ffffff;opacity:0.8;stroke:#cccccc;stroke-linejoin:miter;"/>
    </g>
    <g id="patch_311">
     <path d="M 330.068438 58.070438 
L 350.068438 58.070438 
L 350.068438 51.070438 
L 330.068438 51.070438 
z
" style="fill:none;stroke:#ff0000;stroke-linejoin:miter;"/>
    </g>
    <g id="text_16">
     <!-- optimal -->
     <g transform="translate(358.068438 58.070438)scale(0.1 -0.1)">
      <defs>
       <path d="M 1159 525 
L 1159 -1331 
L 581 -1331 
L 581 3500 
L 1159 3500 
L 1159 2969 
Q 1341 3281 1617 3432 
Q 1894 3584 2278 3584 
Q 2916 3584 3314 3078 
Q 3713 2572 3713 1747 
Q 3713 922 3314 415 
Q 2916 -91 2278 -91 
Q 1894 -91 1617 61 
Q 1341 213 1159 525 
z
M 3116 1747 
Q 3116 2381 2855 2742 
Q 2594 3103 2138 3103 
Q 1681 3103 1420 2742 
Q 1159 2381 1159 1747 
Q 1159 1113 1420 752 
Q 1681 391 2138 391 
Q 2594 391 2855 752 
Q 3116 1113 3116 1747 
z
" id="DejaVuSans-70" transform="scale(0.015625)"/>
       <path d="M 3328 2828 
Q 3544 3216 3844 3400 
Q 4144 3584 4550 3584 
Q 5097 3584 5394 3201 
Q 5691 2819 5691 2113 
L 5691 0 
L 5113 0 
L 5113 2094 
Q 5113 2597 4934 2840 
Q 4756 3084 4391 3084 
Q 3944 3084 3684 2787 
Q 3425 2491 3425 1978 
L 3425 0 
L 2847 0 
L 2847 2094 
Q 2847 2600 2669 2842 
Q 2491 3084 2119 3084 
Q 1678 3084 1418 2786 
Q 1159 2488 1159 1978 
L 1159 0 
L 581 0 
L 581 3500 
L 1159 3500 
L 1159 2956 
Q 1356 3278 1631 3431 
Q 1906 3584 2284 3584 
Q 2666 3584 2933 3390 
Q 3200 3197 3328 2828 
z
" id="DejaVuSans-6d" transform="scale(0.015625)"/>
       <path d="M 603 4863 
L 1178 4863 
L 1178 0 
L 603 0 
L 603 4863 
z
" id="DejaVuSans-6c" transform="scale(0.015625)"/>
      </defs>
      <use xlink:href="#DejaVuSans-6f"/>
      <use x="61.181641" xlink:href="#DejaVuSans-70"/>
      <use x="124.658203" xlink:href="#DejaVuSans-74"/>
      <use x="163.867188" xlink:href="#DejaVuSans-69"/>
      <use x="191.650391" xlink:href="#DejaVuSans-6d"/>
      <use x="289.0625" xlink:href="#DejaVuSans-61"/>
      <use x="350.341797" xlink:href="#DejaVuSans-6c"/>
     </g>
    </g>
    <g id="patch_312">
     <path d="M 330.068438 72.748563 
L 350.068438 72.748563 
L 350.068438 65.748563 
L 330.068438 65.748563 
z
" style="fill:none;stroke:#0000ff;stroke-linejoin:miter;"/>
    </g>
    <g id="text_17">
     <!-- med-high -->
     <g transform="translate(358.068438 72.748563)scale(0.1 -0.1)">
      <defs>
       <path d="M 2906 2969 
L 2906 4863 
L 3481 4863 
L 3481 0 
L 2906 0 
L 2906 525 
Q 2725 213 2448 61 
Q 2172 -91 1784 -91 
Q 1150 -91 751 415 
Q 353 922 353 1747 
Q 353 2572 751 3078 
Q 1150 3584 1784 3584 
Q 2172 3584 2448 3432 
Q 2725 3281 2906 2969 
z
M 947 1747 
Q 947 1113 1208 752 
Q 1469 391 1925 391 
Q 2381 391 2643 752 
Q 2906 1113 2906 1747 
Q 2906 2381 2643 2742 
Q 2381 3103 1925 3103 
Q 1469 3103 1208 2742 
Q 947 2381 947 1747 
z
" id="DejaVuSans-64" transform="scale(0.015625)"/>
       <path d="M 313 2009 
L 1997 2009 
L 1997 1497 
L 313 1497 
L 313 2009 
z
" id="DejaVuSans-2d" transform="scale(0.015625)"/>
       <path d="M 3513 2113 
L 3513 0 
L 2938 0 
L 2938 2094 
Q 2938 2591 2744 2837 
Q 2550 3084 2163 3084 
Q 1697 3084 1428 2787 
Q 1159 2491 1159 1978 
L 1159 0 
L 581 0 
L 581 4863 
L 1159 4863 
L 1159 2956 
Q 1366 3272 1645 3428 
Q 1925 3584 2291 3584 
Q 2894 3584 3203 3211 
Q 3513 2838 3513 2113 
z
" id="DejaVuSans-68" transform="scale(0.015625)"/>
       <path d="M 2906 1791 
Q 2906 2416 2648 2759 
Q 2391 3103 1925 3103 
Q 1463 3103 1205 2759 
Q 947 2416 947 1791 
Q 947 1169 1205 825 
Q 1463 481 1925 481 
Q 2391 481 2648 825 
Q 2906 1169 2906 1791 
z
M 3481 434 
Q 3481 -459 3084 -895 
Q 2688 -1331 1869 -1331 
Q 1566 -1331 1297 -1286 
Q 1028 -1241 775 -1147 
L 775 -588 
Q 1028 -725 1275 -790 
Q 1522 -856 1778 -856 
Q 2344 -856 2625 -561 
Q 2906 -266 2906 331 
L 2906 616 
Q 2728 306 2450 153 
Q 2172 0 1784 0 
Q 1141 0 747 490 
Q 353 981 353 1791 
Q 353 2603 747 3093 
Q 1141 3584 1784 3584 
Q 2172 3584 2450 3431 
Q 2728 3278 2906 2969 
L 2906 3500 
L 3481 3500 
L 3481 434 
z
" id="DejaVuSans-67" transform="scale(0.015625)"/>
      </defs>
      <use xlink:href="#DejaVuSans-6d"/>
      <use x="97.412109" xlink:href="#DejaVuSans-65"/>
      <use x="158.935547" xlink:href="#DejaVuSans-64"/>
      <use x="222.412109" xlink:href="#DejaVuSans-2d"/>
      <use x="258.496094" xlink:href="#DejaVuSans-68"/>
      <use x="321.875" xlink:href="#DejaVuSans-69"/>
      <use x="349.658203" xlink:href="#DejaVuSans-67"/>
      <use x="413.134766" xlink:href="#DejaVuSans-68"/>
     </g>
    </g>
    <g id="patch_313">
     <path d="M 330.068438 87.426688 
L 350.068438 87.426688 
L 350.068438 80.426688 
L 330.068438 80.426688 
z
" style="fill:none;stroke:#008000;stroke-linejoin:miter;"/>
    </g>
    <g id="text_18">
     <!-- med-low -->
     <g transform="translate(358.068438 87.426688)scale(0.1 -0.1)">
      <defs>
       <path d="M 269 3500 
L 844 3500 
L 1563 769 
L 2278 3500 
L 2956 3500 
L 3675 769 
L 4391 3500 
L 4966 3500 
L 4050 0 
L 3372 0 
L 2619 2869 
L 1863 0 
L 1184 0 
L 269 3500 
z
" id="DejaVuSans-77" transform="scale(0.015625)"/>
      </defs>
      <use xlink:href="#DejaVuSans-6d"/>
      <use x="97.412109" xlink:href="#DejaVuSans-65"/>
      <use x="158.935547" xlink:href="#DejaVuSans-64"/>
      <use x="222.412109" xlink:href="#DejaVuSans-2d"/>
      <use x="258.496094" xlink:href="#DejaVuSans-6c"/>
      <use x="286.279297" xlink:href="#DejaVuSans-6f"/>
      <use x="347.460938" xlink:href="#DejaVuSans-77"/>
     </g>
    </g>
   </g>
  </g>
 </g>
 <defs>
  <clipPath id="pd14569a623">
   <rect height="266.112" width="357.12" x="57.6" y="41.472"/>
  </clipPath>
 </defs>
</svg>
