<?xml version="1.0" encoding="utf-8" standalone="no"?>
<!DOCTYPE svg PUBLIC "-//W3C//DTD SVG 1.1//EN"
  "http://www.w3.org/Graphics/SVG/1.1/DTD/svg11.dtd">
<svg height="345.6pt" version="1.1" viewBox="0 0 460.8 345.6" width="460.8pt" xmlns="http://www.w3.org/2000/svg" xmlns:xlink="http://www.w3.org/1999/xlink">
 <metadata>
  <rdf:RDF xmlns:cc="http://creativecommons.org/ns#" xmlns:dc="http://purl.org/dc/elements/1.1/" xmlns:rdf="http://www.w3.org/1999/02/22-rdf-syntax-ns#">
   <cc:Work>
    <dc:type rdf:resource="http://purl.org/dc/dcmitype/StillImage"/>
    <dc:date>2021-09-22T14:17:29.948807</dc:date>
    <dc:format>image/svg+xml</dc:format>
    <dc:creator>
     <cc:Agent>
      <dc:title>Matplotlib v3.4.1, https://matplotlib.org/</dc:title>
     </cc:Agent>
    </dc:creator>
   </cc:Work>
  </rdf:RDF>
 </metadata>
 <defs>
  <style type="text/css">*{stroke-linecap:butt;stroke-linejoin:round;}</style>
 </defs>
 <g id="figure_1">
  <g id="patch_1">
   <path d="M 0 345.6 
L 460.8 345.6 
L 460.8 0 
L 0 0 
z
" style="fill:#ffffff;"/>
  </g>
  <g id="axes_1">
   <g id="patch_2">
    <path d="M 57.6 307.584 
L 414.72 307.584 
L 414.72 41.472 
L 57.6 41.472 
z
" style="fill:#ffffff;"/>
   </g>
   <g id="patch_3">
    <path clip-path="url(#p853ff3b897)" d="M 79.44115 307.584 
L 82.121977 307.584 
L 82.121977 306.341647 
L 79.44115 306.341647 
z
" style="fill:#ff0000;opacity:0.2;"/>
   </g>
   <g id="patch_4">
    <path clip-path="url(#p853ff3b897)" d="M 82.121977 307.584 
L 84.802803 307.584 
L 84.802803 307.584 
L 82.121977 307.584 
z
" style="fill:#ff0000;opacity:0.2;"/>
   </g>
   <g id="patch_5">
    <path clip-path="url(#p853ff3b897)" d="M 84.802803 307.584 
L 87.483629 307.584 
L 87.483629 301.372235 
L 84.802803 301.372235 
z
" style="fill:#ff0000;opacity:0.2;"/>
   </g>
   <g id="patch_6">
    <path clip-path="url(#p853ff3b897)" d="M 87.483629 307.584 
L 90.164455 307.584 
L 90.164455 303.856941 
L 87.483629 303.856941 
z
" style="fill:#ff0000;opacity:0.2;"/>
   </g>
   <g id="patch_7">
    <path clip-path="url(#p853ff3b897)" d="M 90.164455 307.584 
L 92.845282 307.584 
L 92.845282 306.341647 
L 90.164455 306.341647 
z
" style="fill:#ff0000;opacity:0.2;"/>
   </g>
   <g id="patch_8">
    <path clip-path="url(#p853ff3b897)" d="M 92.845282 307.584 
L 95.526108 307.584 
L 95.526108 302.614588 
L 92.845282 302.614588 
z
" style="fill:#ff0000;opacity:0.2;"/>
   </g>
   <g id="patch_9">
    <path clip-path="url(#p853ff3b897)" d="M 95.526108 307.584 
L 98.206934 307.584 
L 98.206934 301.372235 
L 95.526108 301.372235 
z
" style="fill:#ff0000;opacity:0.2;"/>
   </g>
   <g id="patch_10">
    <path clip-path="url(#p853ff3b897)" d="M 98.206934 307.584 
L 100.88776 307.584 
L 100.88776 300.129882 
L 98.206934 300.129882 
z
" style="fill:#ff0000;opacity:0.2;"/>
   </g>
   <g id="patch_11">
    <path clip-path="url(#p853ff3b897)" d="M 100.88776 307.584 
L 103.568587 307.584 
L 103.568587 297.645176 
L 100.88776 297.645176 
z
" style="fill:#ff0000;opacity:0.2;"/>
   </g>
   <g id="patch_12">
    <path clip-path="url(#p853ff3b897)" d="M 103.568587 307.584 
L 106.249413 307.584 
L 106.249413 298.887529 
L 103.568587 298.887529 
z
" style="fill:#ff0000;opacity:0.2;"/>
   </g>
   <g id="patch_13">
    <path clip-path="url(#p853ff3b897)" d="M 106.249413 307.584 
L 108.930239 307.584 
L 108.930239 293.918118 
L 106.249413 293.918118 
z
" style="fill:#ff0000;opacity:0.2;"/>
   </g>
   <g id="patch_14">
    <path clip-path="url(#p853ff3b897)" d="M 108.930239 307.584 
L 111.611065 307.584 
L 111.611065 283.979294 
L 108.930239 283.979294 
z
" style="fill:#ff0000;opacity:0.2;"/>
   </g>
   <g id="patch_15">
    <path clip-path="url(#p853ff3b897)" d="M 111.611065 307.584 
L 114.291892 307.584 
L 114.291892 293.918118 
L 111.611065 293.918118 
z
" style="fill:#ff0000;opacity:0.2;"/>
   </g>
   <g id="patch_16">
    <path clip-path="url(#p853ff3b897)" d="M 114.291892 307.584 
L 116.972718 307.584 
L 116.972718 280.252235 
L 114.291892 280.252235 
z
" style="fill:#ff0000;opacity:0.2;"/>
   </g>
   <g id="patch_17">
    <path clip-path="url(#p853ff3b897)" d="M 116.972718 307.584 
L 119.653544 307.584 
L 119.653544 277.767529 
L 116.972718 277.767529 
z
" style="fill:#ff0000;opacity:0.2;"/>
   </g>
   <g id="patch_18">
    <path clip-path="url(#p853ff3b897)" d="M 119.653544 307.584 
L 122.33437 307.584 
L 122.33437 262.859294 
L 119.653544 262.859294 
z
" style="fill:#ff0000;opacity:0.2;"/>
   </g>
   <g id="patch_19">
    <path clip-path="url(#p853ff3b897)" d="M 122.33437 307.584 
L 125.015197 307.584 
L 125.015197 260.374588 
L 122.33437 260.374588 
z
" style="fill:#ff0000;opacity:0.2;"/>
   </g>
   <g id="patch_20">
    <path clip-path="url(#p853ff3b897)" d="M 125.015197 307.584 
L 127.696023 307.584 
L 127.696023 238.012235 
L 125.015197 238.012235 
z
" style="fill:#ff0000;opacity:0.2;"/>
   </g>
   <g id="patch_21">
    <path clip-path="url(#p853ff3b897)" d="M 127.696023 307.584 
L 130.376849 307.584 
L 130.376849 228.073412 
L 127.696023 228.073412 
z
" style="fill:#ff0000;opacity:0.2;"/>
   </g>
   <g id="patch_22">
    <path clip-path="url(#p853ff3b897)" d="M 130.376849 307.584 
L 133.057675 307.584 
L 133.057675 236.769882 
L 130.376849 236.769882 
z
" style="fill:#ff0000;opacity:0.2;"/>
   </g>
   <g id="patch_23">
    <path clip-path="url(#p853ff3b897)" d="M 133.057675 307.584 
L 135.738502 307.584 
L 135.738502 223.104 
L 133.057675 223.104 
z
" style="fill:#ff0000;opacity:0.2;"/>
   </g>
   <g id="patch_24">
    <path clip-path="url(#p853ff3b897)" d="M 135.738502 307.584 
L 138.419328 307.584 
L 138.419328 209.438118 
L 135.738502 209.438118 
z
" style="fill:#ff0000;opacity:0.2;"/>
   </g>
   <g id="patch_25">
    <path clip-path="url(#p853ff3b897)" d="M 138.419328 307.584 
L 141.100154 307.584 
L 141.100154 200.741647 
L 138.419328 200.741647 
z
" style="fill:#ff0000;opacity:0.2;"/>
   </g>
   <g id="patch_26">
    <path clip-path="url(#p853ff3b897)" d="M 141.100154 307.584 
L 143.78098 307.584 
L 143.78098 170.925176 
L 141.100154 170.925176 
z
" style="fill:#ff0000;opacity:0.2;"/>
   </g>
   <g id="patch_27">
    <path clip-path="url(#p853ff3b897)" d="M 143.78098 307.584 
L 146.461807 307.584 
L 146.461807 153.532235 
L 143.78098 153.532235 
z
" style="fill:#ff0000;opacity:0.2;"/>
   </g>
   <g id="patch_28">
    <path clip-path="url(#p853ff3b897)" d="M 146.461807 307.584 
L 149.142633 307.584 
L 149.142633 164.713412 
L 146.461807 164.713412 
z
" style="fill:#ff0000;opacity:0.2;"/>
   </g>
   <g id="patch_29">
    <path clip-path="url(#p853ff3b897)" d="M 149.142633 307.584 
L 151.823459 307.584 
L 151.823459 137.381647 
L 149.142633 137.381647 
z
" style="fill:#ff0000;opacity:0.2;"/>
   </g>
   <g id="patch_30">
    <path clip-path="url(#p853ff3b897)" d="M 151.823459 307.584 
L 154.504285 307.584 
L 154.504285 129.927529 
L 151.823459 129.927529 
z
" style="fill:#ff0000;opacity:0.2;"/>
   </g>
   <g id="patch_31">
    <path clip-path="url(#p853ff3b897)" d="M 154.504285 307.584 
L 157.185112 307.584 
L 157.185112 107.565176 
L 154.504285 107.565176 
z
" style="fill:#ff0000;opacity:0.2;"/>
   </g>
   <g id="patch_32">
    <path clip-path="url(#p853ff3b897)" d="M 157.185112 307.584 
L 159.865938 307.584 
L 159.865938 133.654588 
L 157.185112 133.654588 
z
" style="fill:#ff0000;opacity:0.2;"/>
   </g>
   <g id="patch_33">
    <path clip-path="url(#p853ff3b897)" d="M 159.865938 307.584 
L 162.546764 307.584 
L 162.546764 111.292235 
L 159.865938 111.292235 
z
" style="fill:#ff0000;opacity:0.2;"/>
   </g>
   <g id="patch_34">
    <path clip-path="url(#p853ff3b897)" d="M 162.546764 307.584 
L 165.22759 307.584 
L 165.22759 116.261647 
L 162.546764 116.261647 
z
" style="fill:#ff0000;opacity:0.2;"/>
   </g>
   <g id="patch_35">
    <path clip-path="url(#p853ff3b897)" d="M 165.22759 307.584 
L 167.908417 307.584 
L 167.908417 90.172235 
L 165.22759 90.172235 
z
" style="fill:#ff0000;opacity:0.2;"/>
   </g>
   <g id="patch_36">
    <path clip-path="url(#p853ff3b897)" d="M 167.908417 307.584 
L 170.589243 307.584 
L 170.589243 86.445176 
L 167.908417 86.445176 
z
" style="fill:#ff0000;opacity:0.2;"/>
   </g>
   <g id="patch_37">
    <path clip-path="url(#p853ff3b897)" d="M 170.589243 307.584 
L 173.270069 307.584 
L 173.270069 54.144 
L 170.589243 54.144 
z
" style="fill:#ff0000;opacity:0.2;"/>
   </g>
   <g id="patch_38">
    <path clip-path="url(#p853ff3b897)" d="M 173.270069 307.584 
L 175.950895 307.584 
L 175.950895 56.628706 
L 173.270069 56.628706 
z
" style="fill:#ff0000;opacity:0.2;"/>
   </g>
   <g id="patch_39">
    <path clip-path="url(#p853ff3b897)" d="M 175.950895 307.584 
L 178.631722 307.584 
L 178.631722 97.626353 
L 175.950895 97.626353 
z
" style="fill:#ff0000;opacity:0.2;"/>
   </g>
   <g id="patch_40">
    <path clip-path="url(#p853ff3b897)" d="M 178.631722 307.584 
L 181.312548 307.584 
L 181.312548 76.506353 
L 178.631722 76.506353 
z
" style="fill:#ff0000;opacity:0.2;"/>
   </g>
   <g id="patch_41">
    <path clip-path="url(#p853ff3b897)" d="M 181.312548 307.584 
L 183.993374 307.584 
L 183.993374 62.840471 
L 181.312548 62.840471 
z
" style="fill:#ff0000;opacity:0.2;"/>
   </g>
   <g id="patch_42">
    <path clip-path="url(#p853ff3b897)" d="M 183.993374 307.584 
L 186.6742 307.584 
L 186.6742 70.294588 
L 183.993374 70.294588 
z
" style="fill:#ff0000;opacity:0.2;"/>
   </g>
   <g id="patch_43">
    <path clip-path="url(#p853ff3b897)" d="M 186.6742 307.584 
L 189.355027 307.584 
L 189.355027 57.871059 
L 186.6742 57.871059 
z
" style="fill:#ff0000;opacity:0.2;"/>
   </g>
   <g id="patch_44">
    <path clip-path="url(#p853ff3b897)" d="M 189.355027 307.584 
L 192.035853 307.584 
L 192.035853 64.082824 
L 189.355027 64.082824 
z
" style="fill:#ff0000;opacity:0.2;"/>
   </g>
   <g id="patch_45">
    <path clip-path="url(#p853ff3b897)" d="M 192.035853 307.584 
L 194.716679 307.584 
L 194.716679 88.929882 
L 192.035853 88.929882 
z
" style="fill:#ff0000;opacity:0.2;"/>
   </g>
   <g id="patch_46">
    <path clip-path="url(#p853ff3b897)" d="M 194.716679 307.584 
L 197.397506 307.584 
L 197.397506 77.748706 
L 194.716679 77.748706 
z
" style="fill:#ff0000;opacity:0.2;"/>
   </g>
   <g id="patch_47">
    <path clip-path="url(#p853ff3b897)" d="M 197.397506 307.584 
L 200.078332 307.584 
L 200.078332 87.687529 
L 197.397506 87.687529 
z
" style="fill:#ff0000;opacity:0.2;"/>
   </g>
   <g id="patch_48">
    <path clip-path="url(#p853ff3b897)" d="M 200.078332 307.584 
L 202.759158 307.584 
L 202.759158 87.687529 
L 200.078332 87.687529 
z
" style="fill:#ff0000;opacity:0.2;"/>
   </g>
   <g id="patch_49">
    <path clip-path="url(#p853ff3b897)" d="M 202.759158 307.584 
L 205.439984 307.584 
L 205.439984 98.868706 
L 202.759158 98.868706 
z
" style="fill:#ff0000;opacity:0.2;"/>
   </g>
   <g id="patch_50">
    <path clip-path="url(#p853ff3b897)" d="M 205.439984 307.584 
L 208.120811 307.584 
L 208.120811 136.139294 
L 205.439984 136.139294 
z
" style="fill:#ff0000;opacity:0.2;"/>
   </g>
   <g id="patch_51">
    <path clip-path="url(#p853ff3b897)" d="M 208.120811 307.584 
L 210.801637 307.584 
L 210.801637 124.958118 
L 208.120811 124.958118 
z
" style="fill:#ff0000;opacity:0.2;"/>
   </g>
   <g id="patch_52">
    <path clip-path="url(#p853ff3b897)" d="M 210.801637 307.584 
L 213.482463 307.584 
L 213.482463 157.259294 
L 210.801637 157.259294 
z
" style="fill:#ff0000;opacity:0.2;"/>
   </g>
   <g id="patch_53">
    <path clip-path="url(#p853ff3b897)" d="M 213.482463 307.584 
L 216.163289 307.584 
L 216.163289 162.228706 
L 213.482463 162.228706 
z
" style="fill:#ff0000;opacity:0.2;"/>
   </g>
   <g id="patch_54">
    <path clip-path="url(#p853ff3b897)" d="M 216.163289 307.584 
L 218.844116 307.584 
L 218.844116 193.287529 
L 216.163289 193.287529 
z
" style="fill:#ff0000;opacity:0.2;"/>
   </g>
   <g id="patch_55">
    <path clip-path="url(#p853ff3b897)" d="M 218.844116 307.584 
L 221.524942 307.584 
L 221.524942 175.894588 
L 218.844116 175.894588 
z
" style="fill:#ff0000;opacity:0.2;"/>
   </g>
   <g id="patch_56">
    <path clip-path="url(#p853ff3b897)" d="M 221.524942 307.584 
L 224.205768 307.584 
L 224.205768 183.348706 
L 221.524942 183.348706 
z
" style="fill:#ff0000;opacity:0.2;"/>
   </g>
   <g id="patch_57">
    <path clip-path="url(#p853ff3b897)" d="M 224.205768 307.584 
L 226.886594 307.584 
L 226.886594 193.287529 
L 224.205768 193.287529 
z
" style="fill:#ff0000;opacity:0.2;"/>
   </g>
   <g id="patch_58">
    <path clip-path="url(#p853ff3b897)" d="M 226.886594 307.584 
L 229.567421 307.584 
L 229.567421 178.379294 
L 226.886594 178.379294 
z
" style="fill:#ff0000;opacity:0.2;"/>
   </g>
   <g id="patch_59">
    <path clip-path="url(#p853ff3b897)" d="M 229.567421 307.584 
L 232.248247 307.584 
L 232.248247 204.468706 
L 229.567421 204.468706 
z
" style="fill:#ff0000;opacity:0.2;"/>
   </g>
   <g id="patch_60">
    <path clip-path="url(#p853ff3b897)" d="M 232.248247 307.584 
L 234.929073 307.584 
L 234.929073 228.073412 
L 232.248247 228.073412 
z
" style="fill:#ff0000;opacity:0.2;"/>
   </g>
   <g id="patch_61">
    <path clip-path="url(#p853ff3b897)" d="M 234.929073 307.584 
L 237.609899 307.584 
L 237.609899 234.285176 
L 234.929073 234.285176 
z
" style="fill:#ff0000;opacity:0.2;"/>
   </g>
   <g id="patch_62">
    <path clip-path="url(#p853ff3b897)" d="M 237.609899 307.584 
L 240.290726 307.584 
L 240.290726 224.346353 
L 237.609899 224.346353 
z
" style="fill:#ff0000;opacity:0.2;"/>
   </g>
   <g id="patch_63">
    <path clip-path="url(#p853ff3b897)" d="M 240.290726 307.584 
L 242.971552 307.584 
L 242.971552 235.527529 
L 240.290726 235.527529 
z
" style="fill:#ff0000;opacity:0.2;"/>
   </g>
   <g id="patch_64">
    <path clip-path="url(#p853ff3b897)" d="M 242.971552 307.584 
L 245.652378 307.584 
L 245.652378 250.435765 
L 242.971552 250.435765 
z
" style="fill:#ff0000;opacity:0.2;"/>
   </g>
   <g id="patch_65">
    <path clip-path="url(#p853ff3b897)" d="M 245.652378 307.584 
L 248.333204 307.584 
L 248.333204 234.285176 
L 245.652378 234.285176 
z
" style="fill:#ff0000;opacity:0.2;"/>
   </g>
   <g id="patch_66">
    <path clip-path="url(#p853ff3b897)" d="M 248.333204 307.584 
L 251.014031 307.584 
L 251.014031 247.951059 
L 248.333204 247.951059 
z
" style="fill:#ff0000;opacity:0.2;"/>
   </g>
   <g id="patch_67">
    <path clip-path="url(#p853ff3b897)" d="M 251.014031 307.584 
L 253.694857 307.584 
L 253.694857 249.193412 
L 251.014031 249.193412 
z
" style="fill:#ff0000;opacity:0.2;"/>
   </g>
   <g id="patch_68">
    <path clip-path="url(#p853ff3b897)" d="M 253.694857 307.584 
L 256.375683 307.584 
L 256.375683 269.071059 
L 253.694857 269.071059 
z
" style="fill:#ff0000;opacity:0.2;"/>
   </g>
   <g id="patch_69">
    <path clip-path="url(#p853ff3b897)" d="M 256.375683 307.584 
L 259.056509 307.584 
L 259.056509 262.859294 
L 256.375683 262.859294 
z
" style="fill:#ff0000;opacity:0.2;"/>
   </g>
   <g id="patch_70">
    <path clip-path="url(#p853ff3b897)" d="M 259.056509 307.584 
L 261.737336 307.584 
L 261.737336 265.344 
L 259.056509 265.344 
z
" style="fill:#ff0000;opacity:0.2;"/>
   </g>
   <g id="patch_71">
    <path clip-path="url(#p853ff3b897)" d="M 261.737336 307.584 
L 264.418162 307.584 
L 264.418162 272.798118 
L 261.737336 272.798118 
z
" style="fill:#ff0000;opacity:0.2;"/>
   </g>
   <g id="patch_72">
    <path clip-path="url(#p853ff3b897)" d="M 264.418162 307.584 
L 267.098988 307.584 
L 267.098988 279.009882 
L 264.418162 279.009882 
z
" style="fill:#ff0000;opacity:0.2;"/>
   </g>
   <g id="patch_73">
    <path clip-path="url(#p853ff3b897)" d="M 267.098988 307.584 
L 269.779814 307.584 
L 269.779814 286.464 
L 267.098988 286.464 
z
" style="fill:#ff0000;opacity:0.2;"/>
   </g>
   <g id="patch_74">
    <path clip-path="url(#p853ff3b897)" d="M 269.779814 307.584 
L 272.460641 307.584 
L 272.460641 283.979294 
L 269.779814 283.979294 
z
" style="fill:#ff0000;opacity:0.2;"/>
   </g>
   <g id="patch_75">
    <path clip-path="url(#p853ff3b897)" d="M 272.460641 307.584 
L 275.141467 307.584 
L 275.141467 281.494588 
L 272.460641 281.494588 
z
" style="fill:#ff0000;opacity:0.2;"/>
   </g>
   <g id="patch_76">
    <path clip-path="url(#p853ff3b897)" d="M 275.141467 307.584 
L 277.822293 307.584 
L 277.822293 281.494588 
L 275.141467 281.494588 
z
" style="fill:#ff0000;opacity:0.2;"/>
   </g>
   <g id="patch_77">
    <path clip-path="url(#p853ff3b897)" d="M 277.822293 307.584 
L 280.503119 307.584 
L 280.503119 277.767529 
L 277.822293 277.767529 
z
" style="fill:#ff0000;opacity:0.2;"/>
   </g>
   <g id="patch_78">
    <path clip-path="url(#p853ff3b897)" d="M 280.503119 307.584 
L 283.183946 307.584 
L 283.183946 285.221647 
L 280.503119 285.221647 
z
" style="fill:#ff0000;opacity:0.2;"/>
   </g>
   <g id="patch_79">
    <path clip-path="url(#p853ff3b897)" d="M 283.183946 307.584 
L 285.864772 307.584 
L 285.864772 288.948706 
L 283.183946 288.948706 
z
" style="fill:#ff0000;opacity:0.2;"/>
   </g>
   <g id="patch_80">
    <path clip-path="url(#p853ff3b897)" d="M 285.864772 307.584 
L 288.545598 307.584 
L 288.545598 292.675765 
L 285.864772 292.675765 
z
" style="fill:#ff0000;opacity:0.2;"/>
   </g>
   <g id="patch_81">
    <path clip-path="url(#p853ff3b897)" d="M 288.545598 307.584 
L 291.226424 307.584 
L 291.226424 292.675765 
L 288.545598 292.675765 
z
" style="fill:#ff0000;opacity:0.2;"/>
   </g>
   <g id="patch_82">
    <path clip-path="url(#p853ff3b897)" d="M 291.226424 307.584 
L 293.907251 307.584 
L 293.907251 292.675765 
L 291.226424 292.675765 
z
" style="fill:#ff0000;opacity:0.2;"/>
   </g>
   <g id="patch_83">
    <path clip-path="url(#p853ff3b897)" d="M 293.907251 307.584 
L 296.588077 307.584 
L 296.588077 296.402824 
L 293.907251 296.402824 
z
" style="fill:#ff0000;opacity:0.2;"/>
   </g>
   <g id="patch_84">
    <path clip-path="url(#p853ff3b897)" d="M 296.588077 307.584 
L 299.268903 307.584 
L 299.268903 302.614588 
L 296.588077 302.614588 
z
" style="fill:#ff0000;opacity:0.2;"/>
   </g>
   <g id="patch_85">
    <path clip-path="url(#p853ff3b897)" d="M 299.268903 307.584 
L 301.949729 307.584 
L 301.949729 297.645176 
L 299.268903 297.645176 
z
" style="fill:#ff0000;opacity:0.2;"/>
   </g>
   <g id="patch_86">
    <path clip-path="url(#p853ff3b897)" d="M 301.949729 307.584 
L 304.630556 307.584 
L 304.630556 301.372235 
L 301.949729 301.372235 
z
" style="fill:#ff0000;opacity:0.2;"/>
   </g>
   <g id="patch_87">
    <path clip-path="url(#p853ff3b897)" d="M 304.630556 307.584 
L 307.311382 307.584 
L 307.311382 301.372235 
L 304.630556 301.372235 
z
" style="fill:#ff0000;opacity:0.2;"/>
   </g>
   <g id="patch_88">
    <path clip-path="url(#p853ff3b897)" d="M 307.311382 307.584 
L 309.992208 307.584 
L 309.992208 303.856941 
L 307.311382 303.856941 
z
" style="fill:#ff0000;opacity:0.2;"/>
   </g>
   <g id="patch_89">
    <path clip-path="url(#p853ff3b897)" d="M 309.992208 307.584 
L 312.673034 307.584 
L 312.673034 307.584 
L 309.992208 307.584 
z
" style="fill:#ff0000;opacity:0.2;"/>
   </g>
   <g id="patch_90">
    <path clip-path="url(#p853ff3b897)" d="M 312.673034 307.584 
L 315.353861 307.584 
L 315.353861 305.099294 
L 312.673034 305.099294 
z
" style="fill:#ff0000;opacity:0.2;"/>
   </g>
   <g id="patch_91">
    <path clip-path="url(#p853ff3b897)" d="M 315.353861 307.584 
L 318.034687 307.584 
L 318.034687 305.099294 
L 315.353861 305.099294 
z
" style="fill:#ff0000;opacity:0.2;"/>
   </g>
   <g id="patch_92">
    <path clip-path="url(#p853ff3b897)" d="M 318.034687 307.584 
L 320.715513 307.584 
L 320.715513 306.341647 
L 318.034687 306.341647 
z
" style="fill:#ff0000;opacity:0.2;"/>
   </g>
   <g id="patch_93">
    <path clip-path="url(#p853ff3b897)" d="M 320.715513 307.584 
L 323.396339 307.584 
L 323.396339 305.099294 
L 320.715513 305.099294 
z
" style="fill:#ff0000;opacity:0.2;"/>
   </g>
   <g id="patch_94">
    <path clip-path="url(#p853ff3b897)" d="M 323.396339 307.584 
L 326.077166 307.584 
L 326.077166 307.584 
L 323.396339 307.584 
z
" style="fill:#ff0000;opacity:0.2;"/>
   </g>
   <g id="patch_95">
    <path clip-path="url(#p853ff3b897)" d="M 326.077166 307.584 
L 328.757992 307.584 
L 328.757992 303.856941 
L 326.077166 303.856941 
z
" style="fill:#ff0000;opacity:0.2;"/>
   </g>
   <g id="patch_96">
    <path clip-path="url(#p853ff3b897)" d="M 328.757992 307.584 
L 331.438818 307.584 
L 331.438818 306.341647 
L 328.757992 306.341647 
z
" style="fill:#ff0000;opacity:0.2;"/>
   </g>
   <g id="patch_97">
    <path clip-path="url(#p853ff3b897)" d="M 331.438818 307.584 
L 334.119644 307.584 
L 334.119644 307.584 
L 331.438818 307.584 
z
" style="fill:#ff0000;opacity:0.2;"/>
   </g>
   <g id="patch_98">
    <path clip-path="url(#p853ff3b897)" d="M 334.119644 307.584 
L 336.800471 307.584 
L 336.800471 306.341647 
L 334.119644 306.341647 
z
" style="fill:#ff0000;opacity:0.2;"/>
   </g>
   <g id="patch_99">
    <path clip-path="url(#p853ff3b897)" d="M 336.800471 307.584 
L 339.481297 307.584 
L 339.481297 306.341647 
L 336.800471 306.341647 
z
" style="fill:#ff0000;opacity:0.2;"/>
   </g>
   <g id="patch_100">
    <path clip-path="url(#p853ff3b897)" d="M 339.481297 307.584 
L 342.162123 307.584 
L 342.162123 306.341647 
L 339.481297 306.341647 
z
" style="fill:#ff0000;opacity:0.2;"/>
   </g>
   <g id="patch_101">
    <path clip-path="url(#p853ff3b897)" d="M 342.162123 307.584 
L 344.842949 307.584 
L 344.842949 307.584 
L 342.162123 307.584 
z
" style="fill:#ff0000;opacity:0.2;"/>
   </g>
   <g id="patch_102">
    <path clip-path="url(#p853ff3b897)" d="M 344.842949 307.584 
L 347.523776 307.584 
L 347.523776 303.856941 
L 344.842949 303.856941 
z
" style="fill:#ff0000;opacity:0.2;"/>
   </g>
   <g id="patch_103">
    <path clip-path="url(#p853ff3b897)" d="M 73.832727 307.584 
L 77.079273 307.584 
L 77.079273 306.341647 
L 73.832727 306.341647 
z
" style="fill:#0000ff;opacity:0.3;"/>
   </g>
   <g id="patch_104">
    <path clip-path="url(#p853ff3b897)" d="M 77.079273 307.584 
L 80.325818 307.584 
L 80.325818 307.584 
L 77.079273 307.584 
z
" style="fill:#0000ff;opacity:0.3;"/>
   </g>
   <g id="patch_105">
    <path clip-path="url(#p853ff3b897)" d="M 80.325818 307.584 
L 83.572364 307.584 
L 83.572364 307.584 
L 80.325818 307.584 
z
" style="fill:#0000ff;opacity:0.3;"/>
   </g>
   <g id="patch_106">
    <path clip-path="url(#p853ff3b897)" d="M 83.572364 307.584 
L 86.818909 307.584 
L 86.818909 307.584 
L 83.572364 307.584 
z
" style="fill:#0000ff;opacity:0.3;"/>
   </g>
   <g id="patch_107">
    <path clip-path="url(#p853ff3b897)" d="M 86.818909 307.584 
L 90.065455 307.584 
L 90.065455 305.099294 
L 86.818909 305.099294 
z
" style="fill:#0000ff;opacity:0.3;"/>
   </g>
   <g id="patch_108">
    <path clip-path="url(#p853ff3b897)" d="M 90.065455 307.584 
L 93.312 307.584 
L 93.312 306.341647 
L 90.065455 306.341647 
z
" style="fill:#0000ff;opacity:0.3;"/>
   </g>
   <g id="patch_109">
    <path clip-path="url(#p853ff3b897)" d="M 93.312 307.584 
L 96.558545 307.584 
L 96.558545 306.341647 
L 93.312 306.341647 
z
" style="fill:#0000ff;opacity:0.3;"/>
   </g>
   <g id="patch_110">
    <path clip-path="url(#p853ff3b897)" d="M 96.558545 307.584 
L 99.805091 307.584 
L 99.805091 305.099294 
L 96.558545 305.099294 
z
" style="fill:#0000ff;opacity:0.3;"/>
   </g>
   <g id="patch_111">
    <path clip-path="url(#p853ff3b897)" d="M 99.805091 307.584 
L 103.051636 307.584 
L 103.051636 303.856941 
L 99.805091 303.856941 
z
" style="fill:#0000ff;opacity:0.3;"/>
   </g>
   <g id="patch_112">
    <path clip-path="url(#p853ff3b897)" d="M 103.051636 307.584 
L 106.298182 307.584 
L 106.298182 303.856941 
L 103.051636 303.856941 
z
" style="fill:#0000ff;opacity:0.3;"/>
   </g>
   <g id="patch_113">
    <path clip-path="url(#p853ff3b897)" d="M 106.298182 307.584 
L 109.544727 307.584 
L 109.544727 302.614588 
L 106.298182 302.614588 
z
" style="fill:#0000ff;opacity:0.3;"/>
   </g>
   <g id="patch_114">
    <path clip-path="url(#p853ff3b897)" d="M 109.544727 307.584 
L 112.791273 307.584 
L 112.791273 296.402824 
L 109.544727 296.402824 
z
" style="fill:#0000ff;opacity:0.3;"/>
   </g>
   <g id="patch_115">
    <path clip-path="url(#p853ff3b897)" d="M 112.791273 307.584 
L 116.037818 307.584 
L 116.037818 286.464 
L 112.791273 286.464 
z
" style="fill:#0000ff;opacity:0.3;"/>
   </g>
   <g id="patch_116">
    <path clip-path="url(#p853ff3b897)" d="M 116.037818 307.584 
L 119.284364 307.584 
L 119.284364 295.160471 
L 116.037818 295.160471 
z
" style="fill:#0000ff;opacity:0.3;"/>
   </g>
   <g id="patch_117">
    <path clip-path="url(#p853ff3b897)" d="M 119.284364 307.584 
L 122.530909 307.584 
L 122.530909 285.221647 
L 119.284364 285.221647 
z
" style="fill:#0000ff;opacity:0.3;"/>
   </g>
   <g id="patch_118">
    <path clip-path="url(#p853ff3b897)" d="M 122.530909 307.584 
L 125.777455 307.584 
L 125.777455 272.798118 
L 122.530909 272.798118 
z
" style="fill:#0000ff;opacity:0.3;"/>
   </g>
   <g id="patch_119">
    <path clip-path="url(#p853ff3b897)" d="M 125.777455 307.584 
L 129.024 307.584 
L 129.024 274.040471 
L 125.777455 274.040471 
z
" style="fill:#0000ff;opacity:0.3;"/>
   </g>
   <g id="patch_120">
    <path clip-path="url(#p853ff3b897)" d="M 129.024 307.584 
L 132.270545 307.584 
L 132.270545 252.920471 
L 129.024 252.920471 
z
" style="fill:#0000ff;opacity:0.3;"/>
   </g>
   <g id="patch_121">
    <path clip-path="url(#p853ff3b897)" d="M 132.270545 307.584 
L 135.517091 307.584 
L 135.517091 259.132235 
L 132.270545 259.132235 
z
" style="fill:#0000ff;opacity:0.3;"/>
   </g>
   <g id="patch_122">
    <path clip-path="url(#p853ff3b897)" d="M 135.517091 307.584 
L 138.763636 307.584 
L 138.763636 239.254588 
L 135.517091 239.254588 
z
" style="fill:#0000ff;opacity:0.3;"/>
   </g>
   <g id="patch_123">
    <path clip-path="url(#p853ff3b897)" d="M 138.763636 307.584 
L 142.010182 307.584 
L 142.010182 221.861647 
L 138.763636 221.861647 
z
" style="fill:#0000ff;opacity:0.3;"/>
   </g>
   <g id="patch_124">
    <path clip-path="url(#p853ff3b897)" d="M 142.010182 307.584 
L 145.256727 307.584 
L 145.256727 230.558118 
L 142.010182 230.558118 
z
" style="fill:#0000ff;opacity:0.3;"/>
   </g>
   <g id="patch_125">
    <path clip-path="url(#p853ff3b897)" d="M 145.256727 307.584 
L 148.503273 307.584 
L 148.503273 250.435765 
L 145.256727 250.435765 
z
" style="fill:#0000ff;opacity:0.3;"/>
   </g>
   <g id="patch_126">
    <path clip-path="url(#p853ff3b897)" d="M 148.503273 307.584 
L 151.749818 307.584 
L 151.749818 198.256941 
L 148.503273 198.256941 
z
" style="fill:#0000ff;opacity:0.3;"/>
   </g>
   <g id="patch_127">
    <path clip-path="url(#p853ff3b897)" d="M 151.749818 307.584 
L 154.996364 307.584 
L 154.996364 182.106353 
L 151.749818 182.106353 
z
" style="fill:#0000ff;opacity:0.3;"/>
   </g>
   <g id="patch_128">
    <path clip-path="url(#p853ff3b897)" d="M 154.996364 307.584 
L 158.242909 307.584 
L 158.242909 170.925176 
L 154.996364 170.925176 
z
" style="fill:#0000ff;opacity:0.3;"/>
   </g>
   <g id="patch_129">
    <path clip-path="url(#p853ff3b897)" d="M 158.242909 307.584 
L 161.489455 307.584 
L 161.489455 148.562824 
L 158.242909 148.562824 
z
" style="fill:#0000ff;opacity:0.3;"/>
   </g>
   <g id="patch_130">
    <path clip-path="url(#p853ff3b897)" d="M 161.489455 307.584 
L 164.736 307.584 
L 164.736 148.562824 
L 161.489455 148.562824 
z
" style="fill:#0000ff;opacity:0.3;"/>
   </g>
   <g id="patch_131">
    <path clip-path="url(#p853ff3b897)" d="M 164.736 307.584 
L 167.982545 307.584 
L 167.982545 127.442824 
L 164.736 127.442824 
z
" style="fill:#0000ff;opacity:0.3;"/>
   </g>
   <g id="patch_132">
    <path clip-path="url(#p853ff3b897)" d="M 167.982545 307.584 
L 171.229091 307.584 
L 171.229091 123.715765 
L 167.982545 123.715765 
z
" style="fill:#0000ff;opacity:0.3;"/>
   </g>
   <g id="patch_133">
    <path clip-path="url(#p853ff3b897)" d="M 171.229091 307.584 
L 174.475636 307.584 
L 174.475636 148.562824 
L 171.229091 148.562824 
z
" style="fill:#0000ff;opacity:0.3;"/>
   </g>
   <g id="patch_134">
    <path clip-path="url(#p853ff3b897)" d="M 174.475636 307.584 
L 177.722182 307.584 
L 177.722182 149.805176 
L 174.475636 149.805176 
z
" style="fill:#0000ff;opacity:0.3;"/>
   </g>
   <g id="patch_135">
    <path clip-path="url(#p853ff3b897)" d="M 177.722182 307.584 
L 180.968727 307.584 
L 180.968727 97.626353 
L 177.722182 97.626353 
z
" style="fill:#0000ff;opacity:0.3;"/>
   </g>
   <g id="patch_136">
    <path clip-path="url(#p853ff3b897)" d="M 180.968727 307.584 
L 184.215273 307.584 
L 184.215273 124.958118 
L 180.968727 124.958118 
z
" style="fill:#0000ff;opacity:0.3;"/>
   </g>
   <g id="patch_137">
    <path clip-path="url(#p853ff3b897)" d="M 184.215273 307.584 
L 187.461818 307.584 
L 187.461818 131.169882 
L 184.215273 131.169882 
z
" style="fill:#0000ff;opacity:0.3;"/>
   </g>
   <g id="patch_138">
    <path clip-path="url(#p853ff3b897)" d="M 187.461818 307.584 
L 190.708364 307.584 
L 190.708364 110.049882 
L 187.461818 110.049882 
z
" style="fill:#0000ff;opacity:0.3;"/>
   </g>
   <g id="patch_139">
    <path clip-path="url(#p853ff3b897)" d="M 190.708364 307.584 
L 193.954909 307.584 
L 193.954909 117.504 
L 190.708364 117.504 
z
" style="fill:#0000ff;opacity:0.3;"/>
   </g>
   <g id="patch_140">
    <path clip-path="url(#p853ff3b897)" d="M 193.954909 307.584 
L 197.201455 307.584 
L 197.201455 137.381647 
L 193.954909 137.381647 
z
" style="fill:#0000ff;opacity:0.3;"/>
   </g>
   <g id="patch_141">
    <path clip-path="url(#p853ff3b897)" d="M 197.201455 307.584 
L 200.448 307.584 
L 200.448 133.654588 
L 197.201455 133.654588 
z
" style="fill:#0000ff;opacity:0.3;"/>
   </g>
   <g id="patch_142">
    <path clip-path="url(#p853ff3b897)" d="M 200.448 307.584 
L 203.694545 307.584 
L 203.694545 144.835765 
L 200.448 144.835765 
z
" style="fill:#0000ff;opacity:0.3;"/>
   </g>
   <g id="patch_143">
    <path clip-path="url(#p853ff3b897)" d="M 203.694545 307.584 
L 206.941091 307.584 
L 206.941091 118.746353 
L 203.694545 118.746353 
z
" style="fill:#0000ff;opacity:0.3;"/>
   </g>
   <g id="patch_144">
    <path clip-path="url(#p853ff3b897)" d="M 206.941091 307.584 
L 210.187636 307.584 
L 210.187636 167.198118 
L 206.941091 167.198118 
z
" style="fill:#0000ff;opacity:0.3;"/>
   </g>
   <g id="patch_145">
    <path clip-path="url(#p853ff3b897)" d="M 210.187636 307.584 
L 213.434182 307.584 
L 213.434182 146.078118 
L 210.187636 146.078118 
z
" style="fill:#0000ff;opacity:0.3;"/>
   </g>
   <g id="patch_146">
    <path clip-path="url(#p853ff3b897)" d="M 213.434182 307.584 
L 216.680727 307.584 
L 216.680727 151.047529 
L 213.434182 151.047529 
z
" style="fill:#0000ff;opacity:0.3;"/>
   </g>
   <g id="patch_147">
    <path clip-path="url(#p853ff3b897)" d="M 216.680727 307.584 
L 219.927273 307.584 
L 219.927273 165.955765 
L 216.680727 165.955765 
z
" style="fill:#0000ff;opacity:0.3;"/>
   </g>
   <g id="patch_148">
    <path clip-path="url(#p853ff3b897)" d="M 219.927273 307.584 
L 223.173818 307.584 
L 223.173818 162.228706 
L 219.927273 162.228706 
z
" style="fill:#0000ff;opacity:0.3;"/>
   </g>
   <g id="patch_149">
    <path clip-path="url(#p853ff3b897)" d="M 223.173818 307.584 
L 226.420364 307.584 
L 226.420364 174.652235 
L 223.173818 174.652235 
z
" style="fill:#0000ff;opacity:0.3;"/>
   </g>
   <g id="patch_150">
    <path clip-path="url(#p853ff3b897)" d="M 226.420364 307.584 
L 229.666909 307.584 
L 229.666909 168.440471 
L 226.420364 168.440471 
z
" style="fill:#0000ff;opacity:0.3;"/>
   </g>
   <g id="patch_151">
    <path clip-path="url(#p853ff3b897)" d="M 229.666909 307.584 
L 232.913455 307.584 
L 232.913455 172.167529 
L 229.666909 172.167529 
z
" style="fill:#0000ff;opacity:0.3;"/>
   </g>
   <g id="patch_152">
    <path clip-path="url(#p853ff3b897)" d="M 232.913455 307.584 
L 236.16 307.584 
L 236.16 175.894588 
L 232.913455 175.894588 
z
" style="fill:#0000ff;opacity:0.3;"/>
   </g>
   <g id="patch_153">
    <path clip-path="url(#p853ff3b897)" d="M 236.16 307.584 
L 239.406545 307.584 
L 239.406545 158.501647 
L 236.16 158.501647 
z
" style="fill:#0000ff;opacity:0.3;"/>
   </g>
   <g id="patch_154">
    <path clip-path="url(#p853ff3b897)" d="M 239.406545 307.584 
L 242.653091 307.584 
L 242.653091 175.894588 
L 239.406545 175.894588 
z
" style="fill:#0000ff;opacity:0.3;"/>
   </g>
   <g id="patch_155">
    <path clip-path="url(#p853ff3b897)" d="M 242.653091 307.584 
L 245.899636 307.584 
L 245.899636 170.925176 
L 242.653091 170.925176 
z
" style="fill:#0000ff;opacity:0.3;"/>
   </g>
   <g id="patch_156">
    <path clip-path="url(#p853ff3b897)" d="M 245.899636 307.584 
L 249.146182 307.584 
L 249.146182 167.198118 
L 245.899636 167.198118 
z
" style="fill:#0000ff;opacity:0.3;"/>
   </g>
   <g id="patch_157">
    <path clip-path="url(#p853ff3b897)" d="M 249.146182 307.584 
L 252.392727 307.584 
L 252.392727 180.864 
L 249.146182 180.864 
z
" style="fill:#0000ff;opacity:0.3;"/>
   </g>
   <g id="patch_158">
    <path clip-path="url(#p853ff3b897)" d="M 252.392727 307.584 
L 255.639273 307.584 
L 255.639273 188.318118 
L 252.392727 188.318118 
z
" style="fill:#0000ff;opacity:0.3;"/>
   </g>
   <g id="patch_159">
    <path clip-path="url(#p853ff3b897)" d="M 255.639273 307.584 
L 258.885818 307.584 
L 258.885818 201.984 
L 255.639273 201.984 
z
" style="fill:#0000ff;opacity:0.3;"/>
   </g>
   <g id="patch_160">
    <path clip-path="url(#p853ff3b897)" d="M 258.885818 307.584 
L 262.132364 307.584 
L 262.132364 206.953412 
L 258.885818 206.953412 
z
" style="fill:#0000ff;opacity:0.3;"/>
   </g>
   <g id="patch_161">
    <path clip-path="url(#p853ff3b897)" d="M 262.132364 307.584 
L 265.378909 307.584 
L 265.378909 205.711059 
L 262.132364 205.711059 
z
" style="fill:#0000ff;opacity:0.3;"/>
   </g>
   <g id="patch_162">
    <path clip-path="url(#p853ff3b897)" d="M 265.378909 307.584 
L 268.625455 307.584 
L 268.625455 197.014588 
L 265.378909 197.014588 
z
" style="fill:#0000ff;opacity:0.3;"/>
   </g>
   <g id="patch_163">
    <path clip-path="url(#p853ff3b897)" d="M 268.625455 307.584 
L 271.872 307.584 
L 271.872 215.649882 
L 268.625455 215.649882 
z
" style="fill:#0000ff;opacity:0.3;"/>
   </g>
   <g id="patch_164">
    <path clip-path="url(#p853ff3b897)" d="M 271.872 307.584 
L 275.118545 307.584 
L 275.118545 206.953412 
L 271.872 206.953412 
z
" style="fill:#0000ff;opacity:0.3;"/>
   </g>
   <g id="patch_165">
    <path clip-path="url(#p853ff3b897)" d="M 275.118545 307.584 
L 278.365091 307.584 
L 278.365091 235.527529 
L 275.118545 235.527529 
z
" style="fill:#0000ff;opacity:0.3;"/>
   </g>
   <g id="patch_166">
    <path clip-path="url(#p853ff3b897)" d="M 278.365091 307.584 
L 281.611636 307.584 
L 281.611636 228.073412 
L 278.365091 228.073412 
z
" style="fill:#0000ff;opacity:0.3;"/>
   </g>
   <g id="patch_167">
    <path clip-path="url(#p853ff3b897)" d="M 281.611636 307.584 
L 284.858182 307.584 
L 284.858182 240.496941 
L 281.611636 240.496941 
z
" style="fill:#0000ff;opacity:0.3;"/>
   </g>
   <g id="patch_168">
    <path clip-path="url(#p853ff3b897)" d="M 284.858182 307.584 
L 288.104727 307.584 
L 288.104727 245.466353 
L 284.858182 245.466353 
z
" style="fill:#0000ff;opacity:0.3;"/>
   </g>
   <g id="patch_169">
    <path clip-path="url(#p853ff3b897)" d="M 288.104727 307.584 
L 291.351273 307.584 
L 291.351273 246.708706 
L 288.104727 246.708706 
z
" style="fill:#0000ff;opacity:0.3;"/>
   </g>
   <g id="patch_170">
    <path clip-path="url(#p853ff3b897)" d="M 291.351273 307.584 
L 294.597818 307.584 
L 294.597818 238.012235 
L 291.351273 238.012235 
z
" style="fill:#0000ff;opacity:0.3;"/>
   </g>
   <g id="patch_171">
    <path clip-path="url(#p853ff3b897)" d="M 294.597818 307.584 
L 297.844364 307.584 
L 297.844364 266.586353 
L 294.597818 266.586353 
z
" style="fill:#0000ff;opacity:0.3;"/>
   </g>
   <g id="patch_172">
    <path clip-path="url(#p853ff3b897)" d="M 297.844364 307.584 
L 301.090909 307.584 
L 301.090909 274.040471 
L 297.844364 274.040471 
z
" style="fill:#0000ff;opacity:0.3;"/>
   </g>
   <g id="patch_173">
    <path clip-path="url(#p853ff3b897)" d="M 301.090909 307.584 
L 304.337455 307.584 
L 304.337455 267.828706 
L 301.090909 267.828706 
z
" style="fill:#0000ff;opacity:0.3;"/>
   </g>
   <g id="patch_174">
    <path clip-path="url(#p853ff3b897)" d="M 304.337455 307.584 
L 307.584 307.584 
L 307.584 274.040471 
L 304.337455 274.040471 
z
" style="fill:#0000ff;opacity:0.3;"/>
   </g>
   <g id="patch_175">
    <path clip-path="url(#p853ff3b897)" d="M 307.584 307.584 
L 310.830545 307.584 
L 310.830545 279.009882 
L 307.584 279.009882 
z
" style="fill:#0000ff;opacity:0.3;"/>
   </g>
   <g id="patch_176">
    <path clip-path="url(#p853ff3b897)" d="M 310.830545 307.584 
L 314.077091 307.584 
L 314.077091 280.252235 
L 310.830545 280.252235 
z
" style="fill:#0000ff;opacity:0.3;"/>
   </g>
   <g id="patch_177">
    <path clip-path="url(#p853ff3b897)" d="M 314.077091 307.584 
L 317.323636 307.584 
L 317.323636 288.948706 
L 314.077091 288.948706 
z
" style="fill:#0000ff;opacity:0.3;"/>
   </g>
   <g id="patch_178">
    <path clip-path="url(#p853ff3b897)" d="M 317.323636 307.584 
L 320.570182 307.584 
L 320.570182 290.191059 
L 317.323636 290.191059 
z
" style="fill:#0000ff;opacity:0.3;"/>
   </g>
   <g id="patch_179">
    <path clip-path="url(#p853ff3b897)" d="M 320.570182 307.584 
L 323.816727 307.584 
L 323.816727 288.948706 
L 320.570182 288.948706 
z
" style="fill:#0000ff;opacity:0.3;"/>
   </g>
   <g id="patch_180">
    <path clip-path="url(#p853ff3b897)" d="M 323.816727 307.584 
L 327.063273 307.584 
L 327.063273 288.948706 
L 323.816727 288.948706 
z
" style="fill:#0000ff;opacity:0.3;"/>
   </g>
   <g id="patch_181">
    <path clip-path="url(#p853ff3b897)" d="M 327.063273 307.584 
L 330.309818 307.584 
L 330.309818 287.706353 
L 327.063273 287.706353 
z
" style="fill:#0000ff;opacity:0.3;"/>
   </g>
   <g id="patch_182">
    <path clip-path="url(#p853ff3b897)" d="M 330.309818 307.584 
L 333.556364 307.584 
L 333.556364 297.645176 
L 330.309818 297.645176 
z
" style="fill:#0000ff;opacity:0.3;"/>
   </g>
   <g id="patch_183">
    <path clip-path="url(#p853ff3b897)" d="M 333.556364 307.584 
L 336.802909 307.584 
L 336.802909 291.433412 
L 333.556364 291.433412 
z
" style="fill:#0000ff;opacity:0.3;"/>
   </g>
   <g id="patch_184">
    <path clip-path="url(#p853ff3b897)" d="M 336.802909 307.584 
L 340.049455 307.584 
L 340.049455 297.645176 
L 336.802909 297.645176 
z
" style="fill:#0000ff;opacity:0.3;"/>
   </g>
   <g id="patch_185">
    <path clip-path="url(#p853ff3b897)" d="M 340.049455 307.584 
L 343.296 307.584 
L 343.296 295.160471 
L 340.049455 295.160471 
z
" style="fill:#0000ff;opacity:0.3;"/>
   </g>
   <g id="patch_186">
    <path clip-path="url(#p853ff3b897)" d="M 343.296 307.584 
L 346.542545 307.584 
L 346.542545 297.645176 
L 343.296 297.645176 
z
" style="fill:#0000ff;opacity:0.3;"/>
   </g>
   <g id="patch_187">
    <path clip-path="url(#p853ff3b897)" d="M 346.542545 307.584 
L 349.789091 307.584 
L 349.789091 298.887529 
L 346.542545 298.887529 
z
" style="fill:#0000ff;opacity:0.3;"/>
   </g>
   <g id="patch_188">
    <path clip-path="url(#p853ff3b897)" d="M 349.789091 307.584 
L 353.035636 307.584 
L 353.035636 303.856941 
L 349.789091 303.856941 
z
" style="fill:#0000ff;opacity:0.3;"/>
   </g>
   <g id="patch_189">
    <path clip-path="url(#p853ff3b897)" d="M 353.035636 307.584 
L 356.282182 307.584 
L 356.282182 306.341647 
L 353.035636 306.341647 
z
" style="fill:#0000ff;opacity:0.3;"/>
   </g>
   <g id="patch_190">
    <path clip-path="url(#p853ff3b897)" d="M 356.282182 307.584 
L 359.528727 307.584 
L 359.528727 303.856941 
L 356.282182 303.856941 
z
" style="fill:#0000ff;opacity:0.3;"/>
   </g>
   <g id="patch_191">
    <path clip-path="url(#p853ff3b897)" d="M 359.528727 307.584 
L 362.775273 307.584 
L 362.775273 305.099294 
L 359.528727 305.099294 
z
" style="fill:#0000ff;opacity:0.3;"/>
   </g>
   <g id="patch_192">
    <path clip-path="url(#p853ff3b897)" d="M 362.775273 307.584 
L 366.021818 307.584 
L 366.021818 307.584 
L 362.775273 307.584 
z
" style="fill:#0000ff;opacity:0.3;"/>
   </g>
   <g id="patch_193">
    <path clip-path="url(#p853ff3b897)" d="M 366.021818 307.584 
L 369.268364 307.584 
L 369.268364 303.856941 
L 366.021818 303.856941 
z
" style="fill:#0000ff;opacity:0.3;"/>
   </g>
   <g id="patch_194">
    <path clip-path="url(#p853ff3b897)" d="M 369.268364 307.584 
L 372.514909 307.584 
L 372.514909 307.584 
L 369.268364 307.584 
z
" style="fill:#0000ff;opacity:0.3;"/>
   </g>
   <g id="patch_195">
    <path clip-path="url(#p853ff3b897)" d="M 372.514909 307.584 
L 375.761455 307.584 
L 375.761455 307.584 
L 372.514909 307.584 
z
" style="fill:#0000ff;opacity:0.3;"/>
   </g>
   <g id="patch_196">
    <path clip-path="url(#p853ff3b897)" d="M 375.761455 307.584 
L 379.008 307.584 
L 379.008 305.099294 
L 375.761455 305.099294 
z
" style="fill:#0000ff;opacity:0.3;"/>
   </g>
   <g id="patch_197">
    <path clip-path="url(#p853ff3b897)" d="M 379.008 307.584 
L 382.254545 307.584 
L 382.254545 307.584 
L 379.008 307.584 
z
" style="fill:#0000ff;opacity:0.3;"/>
   </g>
   <g id="patch_198">
    <path clip-path="url(#p853ff3b897)" d="M 382.254545 307.584 
L 385.501091 307.584 
L 385.501091 307.584 
L 382.254545 307.584 
z
" style="fill:#0000ff;opacity:0.3;"/>
   </g>
   <g id="patch_199">
    <path clip-path="url(#p853ff3b897)" d="M 385.501091 307.584 
L 388.747636 307.584 
L 388.747636 306.341647 
L 385.501091 306.341647 
z
" style="fill:#0000ff;opacity:0.3;"/>
   </g>
   <g id="patch_200">
    <path clip-path="url(#p853ff3b897)" d="M 388.747636 307.584 
L 391.994182 307.584 
L 391.994182 305.099294 
L 388.747636 305.099294 
z
" style="fill:#0000ff;opacity:0.3;"/>
   </g>
   <g id="patch_201">
    <path clip-path="url(#p853ff3b897)" d="M 391.994182 307.584 
L 395.240727 307.584 
L 395.240727 307.584 
L 391.994182 307.584 
z
" style="fill:#0000ff;opacity:0.3;"/>
   </g>
   <g id="patch_202">
    <path clip-path="url(#p853ff3b897)" d="M 395.240727 307.584 
L 398.487273 307.584 
L 398.487273 305.099294 
L 395.240727 305.099294 
z
" style="fill:#0000ff;opacity:0.3;"/>
   </g>
   <g id="patch_203">
    <path clip-path="url(#p853ff3b897)" d="M 86.366334 307.584 
L 89.284177 307.584 
L 89.284177 306.341647 
L 86.366334 306.341647 
z
" style="fill:#008000;opacity:0.2;"/>
   </g>
   <g id="patch_204">
    <path clip-path="url(#p853ff3b897)" d="M 89.284177 307.584 
L 92.20202 307.584 
L 92.20202 307.584 
L 89.284177 307.584 
z
" style="fill:#008000;opacity:0.2;"/>
   </g>
   <g id="patch_205">
    <path clip-path="url(#p853ff3b897)" d="M 92.20202 307.584 
L 95.119863 307.584 
L 95.119863 306.341647 
L 92.20202 306.341647 
z
" style="fill:#008000;opacity:0.2;"/>
   </g>
   <g id="patch_206">
    <path clip-path="url(#p853ff3b897)" d="M 95.119863 307.584 
L 98.037706 307.584 
L 98.037706 306.341647 
L 95.119863 306.341647 
z
" style="fill:#008000;opacity:0.2;"/>
   </g>
   <g id="patch_207">
    <path clip-path="url(#p853ff3b897)" d="M 98.037706 307.584 
L 100.955549 307.584 
L 100.955549 305.099294 
L 98.037706 305.099294 
z
" style="fill:#008000;opacity:0.2;"/>
   </g>
   <g id="patch_208">
    <path clip-path="url(#p853ff3b897)" d="M 100.955549 307.584 
L 103.873392 307.584 
L 103.873392 305.099294 
L 100.955549 305.099294 
z
" style="fill:#008000;opacity:0.2;"/>
   </g>
   <g id="patch_209">
    <path clip-path="url(#p853ff3b897)" d="M 103.873392 307.584 
L 106.791235 307.584 
L 106.791235 302.614588 
L 103.873392 302.614588 
z
" style="fill:#008000;opacity:0.2;"/>
   </g>
   <g id="patch_210">
    <path clip-path="url(#p853ff3b897)" d="M 106.791235 307.584 
L 109.709078 307.584 
L 109.709078 302.614588 
L 106.791235 302.614588 
z
" style="fill:#008000;opacity:0.2;"/>
   </g>
   <g id="patch_211">
    <path clip-path="url(#p853ff3b897)" d="M 109.709078 307.584 
L 112.626922 307.584 
L 112.626922 301.372235 
L 109.709078 301.372235 
z
" style="fill:#008000;opacity:0.2;"/>
   </g>
   <g id="patch_212">
    <path clip-path="url(#p853ff3b897)" d="M 112.626922 307.584 
L 115.544765 307.584 
L 115.544765 296.402824 
L 112.626922 296.402824 
z
" style="fill:#008000;opacity:0.2;"/>
   </g>
   <g id="patch_213">
    <path clip-path="url(#p853ff3b897)" d="M 115.544765 307.584 
L 118.462608 307.584 
L 118.462608 301.372235 
L 115.544765 301.372235 
z
" style="fill:#008000;opacity:0.2;"/>
   </g>
   <g id="patch_214">
    <path clip-path="url(#p853ff3b897)" d="M 118.462608 307.584 
L 121.380451 307.584 
L 121.380451 283.979294 
L 118.462608 283.979294 
z
" style="fill:#008000;opacity:0.2;"/>
   </g>
   <g id="patch_215">
    <path clip-path="url(#p853ff3b897)" d="M 121.380451 307.584 
L 124.298294 307.584 
L 124.298294 292.675765 
L 121.380451 292.675765 
z
" style="fill:#008000;opacity:0.2;"/>
   </g>
   <g id="patch_216">
    <path clip-path="url(#p853ff3b897)" d="M 124.298294 307.584 
L 127.216137 307.584 
L 127.216137 281.494588 
L 124.298294 281.494588 
z
" style="fill:#008000;opacity:0.2;"/>
   </g>
   <g id="patch_217">
    <path clip-path="url(#p853ff3b897)" d="M 127.216137 307.584 
L 130.13398 307.584 
L 130.13398 270.313412 
L 127.216137 270.313412 
z
" style="fill:#008000;opacity:0.2;"/>
   </g>
   <g id="patch_218">
    <path clip-path="url(#p853ff3b897)" d="M 130.13398 307.584 
L 133.051823 307.584 
L 133.051823 262.859294 
L 130.13398 262.859294 
z
" style="fill:#008000;opacity:0.2;"/>
   </g>
   <g id="patch_219">
    <path clip-path="url(#p853ff3b897)" d="M 133.051823 307.584 
L 135.969666 307.584 
L 135.969666 269.071059 
L 133.051823 269.071059 
z
" style="fill:#008000;opacity:0.2;"/>
   </g>
   <g id="patch_220">
    <path clip-path="url(#p853ff3b897)" d="M 135.969666 307.584 
L 138.887509 307.584 
L 138.887509 275.282824 
L 135.969666 275.282824 
z
" style="fill:#008000;opacity:0.2;"/>
   </g>
   <g id="patch_221">
    <path clip-path="url(#p853ff3b897)" d="M 138.887509 307.584 
L 141.805352 307.584 
L 141.805352 249.193412 
L 138.887509 249.193412 
z
" style="fill:#008000;opacity:0.2;"/>
   </g>
   <g id="patch_222">
    <path clip-path="url(#p853ff3b897)" d="M 141.805352 307.584 
L 144.723196 307.584 
L 144.723196 240.496941 
L 141.805352 240.496941 
z
" style="fill:#008000;opacity:0.2;"/>
   </g>
   <g id="patch_223">
    <path clip-path="url(#p853ff3b897)" d="M 144.723196 307.584 
L 147.641039 307.584 
L 147.641039 245.466353 
L 144.723196 245.466353 
z
" style="fill:#008000;opacity:0.2;"/>
   </g>
   <g id="patch_224">
    <path clip-path="url(#p853ff3b897)" d="M 147.641039 307.584 
L 150.558882 307.584 
L 150.558882 220.619294 
L 147.641039 220.619294 
z
" style="fill:#008000;opacity:0.2;"/>
   </g>
   <g id="patch_225">
    <path clip-path="url(#p853ff3b897)" d="M 150.558882 307.584 
L 153.476725 307.584 
L 153.476725 216.892235 
L 150.558882 216.892235 
z
" style="fill:#008000;opacity:0.2;"/>
   </g>
   <g id="patch_226">
    <path clip-path="url(#p853ff3b897)" d="M 153.476725 307.584 
L 156.394568 307.584 
L 156.394568 200.741647 
L 153.476725 200.741647 
z
" style="fill:#008000;opacity:0.2;"/>
   </g>
   <g id="patch_227">
    <path clip-path="url(#p853ff3b897)" d="M 156.394568 307.584 
L 159.312411 307.584 
L 159.312411 201.984 
L 156.394568 201.984 
z
" style="fill:#008000;opacity:0.2;"/>
   </g>
   <g id="patch_228">
    <path clip-path="url(#p853ff3b897)" d="M 159.312411 307.584 
L 162.230254 307.584 
L 162.230254 185.833412 
L 159.312411 185.833412 
z
" style="fill:#008000;opacity:0.2;"/>
   </g>
   <g id="patch_229">
    <path clip-path="url(#p853ff3b897)" d="M 162.230254 307.584 
L 165.148097 307.584 
L 165.148097 178.379294 
L 162.230254 178.379294 
z
" style="fill:#008000;opacity:0.2;"/>
   </g>
   <g id="patch_230">
    <path clip-path="url(#p853ff3b897)" d="M 165.148097 307.584 
L 168.06594 307.584 
L 168.06594 175.894588 
L 165.148097 175.894588 
z
" style="fill:#008000;opacity:0.2;"/>
   </g>
   <g id="patch_231">
    <path clip-path="url(#p853ff3b897)" d="M 168.06594 307.584 
L 170.983783 307.584 
L 170.983783 174.652235 
L 168.06594 174.652235 
z
" style="fill:#008000;opacity:0.2;"/>
   </g>
   <g id="patch_232">
    <path clip-path="url(#p853ff3b897)" d="M 170.983783 307.584 
L 173.901626 307.584 
L 173.901626 164.713412 
L 170.983783 164.713412 
z
" style="fill:#008000;opacity:0.2;"/>
   </g>
   <g id="patch_233">
    <path clip-path="url(#p853ff3b897)" d="M 173.901626 307.584 
L 176.81947 307.584 
L 176.81947 151.047529 
L 173.901626 151.047529 
z
" style="fill:#008000;opacity:0.2;"/>
   </g>
   <g id="patch_234">
    <path clip-path="url(#p853ff3b897)" d="M 176.81947 307.584 
L 179.737313 307.584 
L 179.737313 172.167529 
L 176.81947 172.167529 
z
" style="fill:#008000;opacity:0.2;"/>
   </g>
   <g id="patch_235">
    <path clip-path="url(#p853ff3b897)" d="M 179.737313 307.584 
L 182.655156 307.584 
L 182.655156 159.744 
L 179.737313 159.744 
z
" style="fill:#008000;opacity:0.2;"/>
   </g>
   <g id="patch_236">
    <path clip-path="url(#p853ff3b897)" d="M 182.655156 307.584 
L 185.572999 307.584 
L 185.572999 134.896941 
L 182.655156 134.896941 
z
" style="fill:#008000;opacity:0.2;"/>
   </g>
   <g id="patch_237">
    <path clip-path="url(#p853ff3b897)" d="M 185.572999 307.584 
L 188.490842 307.584 
L 188.490842 119.988706 
L 185.572999 119.988706 
z
" style="fill:#008000;opacity:0.2;"/>
   </g>
   <g id="patch_238">
    <path clip-path="url(#p853ff3b897)" d="M 188.490842 307.584 
L 191.408685 307.584 
L 191.408685 151.047529 
L 188.490842 151.047529 
z
" style="fill:#008000;opacity:0.2;"/>
   </g>
   <g id="patch_239">
    <path clip-path="url(#p853ff3b897)" d="M 191.408685 307.584 
L 194.326528 307.584 
L 194.326528 167.198118 
L 191.408685 167.198118 
z
" style="fill:#008000;opacity:0.2;"/>
   </g>
   <g id="patch_240">
    <path clip-path="url(#p853ff3b897)" d="M 194.326528 307.584 
L 197.244371 307.584 
L 197.244371 119.988706 
L 194.326528 119.988706 
z
" style="fill:#008000;opacity:0.2;"/>
   </g>
   <g id="patch_241">
    <path clip-path="url(#p853ff3b897)" d="M 197.244371 307.584 
L 200.162214 307.584 
L 200.162214 143.593412 
L 197.244371 143.593412 
z
" style="fill:#008000;opacity:0.2;"/>
   </g>
   <g id="patch_242">
    <path clip-path="url(#p853ff3b897)" d="M 200.162214 307.584 
L 203.080057 307.584 
L 203.080057 159.744 
L 200.162214 159.744 
z
" style="fill:#008000;opacity:0.2;"/>
   </g>
   <g id="patch_243">
    <path clip-path="url(#p853ff3b897)" d="M 203.080057 307.584 
L 205.9979 307.584 
L 205.9979 131.169882 
L 203.080057 131.169882 
z
" style="fill:#008000;opacity:0.2;"/>
   </g>
   <g id="patch_244">
    <path clip-path="url(#p853ff3b897)" d="M 205.9979 307.584 
L 208.915744 307.584 
L 208.915744 146.078118 
L 205.9979 146.078118 
z
" style="fill:#008000;opacity:0.2;"/>
   </g>
   <g id="patch_245">
    <path clip-path="url(#p853ff3b897)" d="M 208.915744 307.584 
L 211.833587 307.584 
L 211.833587 154.774588 
L 208.915744 154.774588 
z
" style="fill:#008000;opacity:0.2;"/>
   </g>
   <g id="patch_246">
    <path clip-path="url(#p853ff3b897)" d="M 211.833587 307.584 
L 214.75143 307.584 
L 214.75143 149.805176 
L 211.833587 149.805176 
z
" style="fill:#008000;opacity:0.2;"/>
   </g>
   <g id="patch_247">
    <path clip-path="url(#p853ff3b897)" d="M 214.75143 307.584 
L 217.669273 307.584 
L 217.669273 183.348706 
L 214.75143 183.348706 
z
" style="fill:#008000;opacity:0.2;"/>
   </g>
   <g id="patch_248">
    <path clip-path="url(#p853ff3b897)" d="M 217.669273 307.584 
L 220.587116 307.584 
L 220.587116 194.529882 
L 217.669273 194.529882 
z
" style="fill:#008000;opacity:0.2;"/>
   </g>
   <g id="patch_249">
    <path clip-path="url(#p853ff3b897)" d="M 220.587116 307.584 
L 223.504959 307.584 
L 223.504959 179.621647 
L 220.587116 179.621647 
z
" style="fill:#008000;opacity:0.2;"/>
   </g>
   <g id="patch_250">
    <path clip-path="url(#p853ff3b897)" d="M 223.504959 307.584 
L 226.422802 307.584 
L 226.422802 197.014588 
L 223.504959 197.014588 
z
" style="fill:#008000;opacity:0.2;"/>
   </g>
   <g id="patch_251">
    <path clip-path="url(#p853ff3b897)" d="M 226.422802 307.584 
L 229.340645 307.584 
L 229.340645 223.104 
L 226.422802 223.104 
z
" style="fill:#008000;opacity:0.2;"/>
   </g>
   <g id="patch_252">
    <path clip-path="url(#p853ff3b897)" d="M 229.340645 307.584 
L 232.258488 307.584 
L 232.258488 200.741647 
L 229.340645 200.741647 
z
" style="fill:#008000;opacity:0.2;"/>
   </g>
   <g id="patch_253">
    <path clip-path="url(#p853ff3b897)" d="M 232.258488 307.584 
L 235.176331 307.584 
L 235.176331 209.438118 
L 232.258488 209.438118 
z
" style="fill:#008000;opacity:0.2;"/>
   </g>
   <g id="patch_254">
    <path clip-path="url(#p853ff3b897)" d="M 235.176331 307.584 
L 238.094174 307.584 
L 238.094174 215.649882 
L 235.176331 215.649882 
z
" style="fill:#008000;opacity:0.2;"/>
   </g>
   <g id="patch_255">
    <path clip-path="url(#p853ff3b897)" d="M 238.094174 307.584 
L 241.012018 307.584 
L 241.012018 219.376941 
L 238.094174 219.376941 
z
" style="fill:#008000;opacity:0.2;"/>
   </g>
   <g id="patch_256">
    <path clip-path="url(#p853ff3b897)" d="M 241.012018 307.584 
L 243.929861 307.584 
L 243.929861 224.346353 
L 241.012018 224.346353 
z
" style="fill:#008000;opacity:0.2;"/>
   </g>
   <g id="patch_257">
    <path clip-path="url(#p853ff3b897)" d="M 243.929861 307.584 
L 246.847704 307.584 
L 246.847704 220.619294 
L 243.929861 220.619294 
z
" style="fill:#008000;opacity:0.2;"/>
   </g>
   <g id="patch_258">
    <path clip-path="url(#p853ff3b897)" d="M 246.847704 307.584 
L 249.765547 307.584 
L 249.765547 236.769882 
L 246.847704 236.769882 
z
" style="fill:#008000;opacity:0.2;"/>
   </g>
   <g id="patch_259">
    <path clip-path="url(#p853ff3b897)" d="M 249.765547 307.584 
L 252.68339 307.584 
L 252.68339 242.981647 
L 249.765547 242.981647 
z
" style="fill:#008000;opacity:0.2;"/>
   </g>
   <g id="patch_260">
    <path clip-path="url(#p853ff3b897)" d="M 252.68339 307.584 
L 255.601233 307.584 
L 255.601233 240.496941 
L 252.68339 240.496941 
z
" style="fill:#008000;opacity:0.2;"/>
   </g>
   <g id="patch_261">
    <path clip-path="url(#p853ff3b897)" d="M 255.601233 307.584 
L 258.519076 307.584 
L 258.519076 254.162824 
L 255.601233 254.162824 
z
" style="fill:#008000;opacity:0.2;"/>
   </g>
   <g id="patch_262">
    <path clip-path="url(#p853ff3b897)" d="M 258.519076 307.584 
L 261.436919 307.584 
L 261.436919 275.282824 
L 258.519076 275.282824 
z
" style="fill:#008000;opacity:0.2;"/>
   </g>
   <g id="patch_263">
    <path clip-path="url(#p853ff3b897)" d="M 261.436919 307.584 
L 264.354762 307.584 
L 264.354762 281.494588 
L 261.436919 281.494588 
z
" style="fill:#008000;opacity:0.2;"/>
   </g>
   <g id="patch_264">
    <path clip-path="url(#p853ff3b897)" d="M 264.354762 307.584 
L 267.272605 307.584 
L 267.272605 274.040471 
L 264.354762 274.040471 
z
" style="fill:#008000;opacity:0.2;"/>
   </g>
   <g id="patch_265">
    <path clip-path="url(#p853ff3b897)" d="M 267.272605 307.584 
L 270.190448 307.584 
L 270.190448 276.525176 
L 267.272605 276.525176 
z
" style="fill:#008000;opacity:0.2;"/>
   </g>
   <g id="patch_266">
    <path clip-path="url(#p853ff3b897)" d="M 270.190448 307.584 
L 273.108292 307.584 
L 273.108292 283.979294 
L 270.190448 283.979294 
z
" style="fill:#008000;opacity:0.2;"/>
   </g>
   <g id="patch_267">
    <path clip-path="url(#p853ff3b897)" d="M 273.108292 307.584 
L 276.026135 307.584 
L 276.026135 287.706353 
L 273.108292 287.706353 
z
" style="fill:#008000;opacity:0.2;"/>
   </g>
   <g id="patch_268">
    <path clip-path="url(#p853ff3b897)" d="M 276.026135 307.584 
L 278.943978 307.584 
L 278.943978 287.706353 
L 276.026135 287.706353 
z
" style="fill:#008000;opacity:0.2;"/>
   </g>
   <g id="patch_269">
    <path clip-path="url(#p853ff3b897)" d="M 278.943978 307.584 
L 281.861821 307.584 
L 281.861821 293.918118 
L 278.943978 293.918118 
z
" style="fill:#008000;opacity:0.2;"/>
   </g>
   <g id="patch_270">
    <path clip-path="url(#p853ff3b897)" d="M 281.861821 307.584 
L 284.779664 307.584 
L 284.779664 290.191059 
L 281.861821 290.191059 
z
" style="fill:#008000;opacity:0.2;"/>
   </g>
   <g id="patch_271">
    <path clip-path="url(#p853ff3b897)" d="M 284.779664 307.584 
L 287.697507 307.584 
L 287.697507 288.948706 
L 284.779664 288.948706 
z
" style="fill:#008000;opacity:0.2;"/>
   </g>
   <g id="patch_272">
    <path clip-path="url(#p853ff3b897)" d="M 287.697507 307.584 
L 290.61535 307.584 
L 290.61535 291.433412 
L 287.697507 291.433412 
z
" style="fill:#008000;opacity:0.2;"/>
   </g>
   <g id="patch_273">
    <path clip-path="url(#p853ff3b897)" d="M 290.61535 307.584 
L 293.533193 307.584 
L 293.533193 288.948706 
L 290.61535 288.948706 
z
" style="fill:#008000;opacity:0.2;"/>
   </g>
   <g id="patch_274">
    <path clip-path="url(#p853ff3b897)" d="M 293.533193 307.584 
L 296.451036 307.584 
L 296.451036 300.129882 
L 293.533193 300.129882 
z
" style="fill:#008000;opacity:0.2;"/>
   </g>
   <g id="patch_275">
    <path clip-path="url(#p853ff3b897)" d="M 296.451036 307.584 
L 299.368879 307.584 
L 299.368879 292.675765 
L 296.451036 292.675765 
z
" style="fill:#008000;opacity:0.2;"/>
   </g>
   <g id="patch_276">
    <path clip-path="url(#p853ff3b897)" d="M 299.368879 307.584 
L 302.286722 307.584 
L 302.286722 298.887529 
L 299.368879 298.887529 
z
" style="fill:#008000;opacity:0.2;"/>
   </g>
   <g id="patch_277">
    <path clip-path="url(#p853ff3b897)" d="M 302.286722 307.584 
L 305.204566 307.584 
L 305.204566 300.129882 
L 302.286722 300.129882 
z
" style="fill:#008000;opacity:0.2;"/>
   </g>
   <g id="patch_278">
    <path clip-path="url(#p853ff3b897)" d="M 305.204566 307.584 
L 308.122409 307.584 
L 308.122409 298.887529 
L 305.204566 298.887529 
z
" style="fill:#008000;opacity:0.2;"/>
   </g>
   <g id="patch_279">
    <path clip-path="url(#p853ff3b897)" d="M 308.122409 307.584 
L 311.040252 307.584 
L 311.040252 303.856941 
L 308.122409 303.856941 
z
" style="fill:#008000;opacity:0.2;"/>
   </g>
   <g id="patch_280">
    <path clip-path="url(#p853ff3b897)" d="M 311.040252 307.584 
L 313.958095 307.584 
L 313.958095 302.614588 
L 311.040252 302.614588 
z
" style="fill:#008000;opacity:0.2;"/>
   </g>
   <g id="patch_281">
    <path clip-path="url(#p853ff3b897)" d="M 313.958095 307.584 
L 316.875938 307.584 
L 316.875938 301.372235 
L 313.958095 301.372235 
z
" style="fill:#008000;opacity:0.2;"/>
   </g>
   <g id="patch_282">
    <path clip-path="url(#p853ff3b897)" d="M 316.875938 307.584 
L 319.793781 307.584 
L 319.793781 303.856941 
L 316.875938 303.856941 
z
" style="fill:#008000;opacity:0.2;"/>
   </g>
   <g id="patch_283">
    <path clip-path="url(#p853ff3b897)" d="M 319.793781 307.584 
L 322.711624 307.584 
L 322.711624 306.341647 
L 319.793781 306.341647 
z
" style="fill:#008000;opacity:0.2;"/>
   </g>
   <g id="patch_284">
    <path clip-path="url(#p853ff3b897)" d="M 322.711624 307.584 
L 325.629467 307.584 
L 325.629467 303.856941 
L 322.711624 303.856941 
z
" style="fill:#008000;opacity:0.2;"/>
   </g>
   <g id="patch_285">
    <path clip-path="url(#p853ff3b897)" d="M 325.629467 307.584 
L 328.54731 307.584 
L 328.54731 303.856941 
L 325.629467 303.856941 
z
" style="fill:#008000;opacity:0.2;"/>
   </g>
   <g id="patch_286">
    <path clip-path="url(#p853ff3b897)" d="M 328.54731 307.584 
L 331.465153 307.584 
L 331.465153 307.584 
L 328.54731 307.584 
z
" style="fill:#008000;opacity:0.2;"/>
   </g>
   <g id="patch_287">
    <path clip-path="url(#p853ff3b897)" d="M 331.465153 307.584 
L 334.382996 307.584 
L 334.382996 307.584 
L 331.465153 307.584 
z
" style="fill:#008000;opacity:0.2;"/>
   </g>
   <g id="patch_288">
    <path clip-path="url(#p853ff3b897)" d="M 334.382996 307.584 
L 337.30084 307.584 
L 337.30084 303.856941 
L 334.382996 303.856941 
z
" style="fill:#008000;opacity:0.2;"/>
   </g>
   <g id="patch_289">
    <path clip-path="url(#p853ff3b897)" d="M 337.30084 307.584 
L 340.218683 307.584 
L 340.218683 305.099294 
L 337.30084 305.099294 
z
" style="fill:#008000;opacity:0.2;"/>
   </g>
   <g id="patch_290">
    <path clip-path="url(#p853ff3b897)" d="M 340.218683 307.584 
L 343.136526 307.584 
L 343.136526 307.584 
L 340.218683 307.584 
z
" style="fill:#008000;opacity:0.2;"/>
   </g>
   <g id="patch_291">
    <path clip-path="url(#p853ff3b897)" d="M 343.136526 307.584 
L 346.054369 307.584 
L 346.054369 306.341647 
L 343.136526 306.341647 
z
" style="fill:#008000;opacity:0.2;"/>
   </g>
   <g id="patch_292">
    <path clip-path="url(#p853ff3b897)" d="M 346.054369 307.584 
L 348.972212 307.584 
L 348.972212 306.341647 
L 346.054369 306.341647 
z
" style="fill:#008000;opacity:0.2;"/>
   </g>
   <g id="patch_293">
    <path clip-path="url(#p853ff3b897)" d="M 348.972212 307.584 
L 351.890055 307.584 
L 351.890055 307.584 
L 348.972212 307.584 
z
" style="fill:#008000;opacity:0.2;"/>
   </g>
   <g id="patch_294">
    <path clip-path="url(#p853ff3b897)" d="M 351.890055 307.584 
L 354.807898 307.584 
L 354.807898 307.584 
L 351.890055 307.584 
z
" style="fill:#008000;opacity:0.2;"/>
   </g>
   <g id="patch_295">
    <path clip-path="url(#p853ff3b897)" d="M 354.807898 307.584 
L 357.725741 307.584 
L 357.725741 307.584 
L 354.807898 307.584 
z
" style="fill:#008000;opacity:0.2;"/>
   </g>
   <g id="patch_296">
    <path clip-path="url(#p853ff3b897)" d="M 357.725741 307.584 
L 360.643584 307.584 
L 360.643584 306.341647 
L 357.725741 306.341647 
z
" style="fill:#008000;opacity:0.2;"/>
   </g>
   <g id="patch_297">
    <path clip-path="url(#p853ff3b897)" d="M 360.643584 307.584 
L 363.561427 307.584 
L 363.561427 306.341647 
L 360.643584 306.341647 
z
" style="fill:#008000;opacity:0.2;"/>
   </g>
   <g id="patch_298">
    <path clip-path="url(#p853ff3b897)" d="M 363.561427 307.584 
L 366.47927 307.584 
L 366.47927 307.584 
L 363.561427 307.584 
z
" style="fill:#008000;opacity:0.2;"/>
   </g>
   <g id="patch_299">
    <path clip-path="url(#p853ff3b897)" d="M 366.47927 307.584 
L 369.397114 307.584 
L 369.397114 307.584 
L 366.47927 307.584 
z
" style="fill:#008000;opacity:0.2;"/>
   </g>
   <g id="patch_300">
    <path clip-path="url(#p853ff3b897)" d="M 369.397114 307.584 
L 372.314957 307.584 
L 372.314957 306.341647 
L 369.397114 306.341647 
z
" style="fill:#008000;opacity:0.2;"/>
   </g>
   <g id="patch_301">
    <path clip-path="url(#p853ff3b897)" d="M 372.314957 307.584 
L 375.2328 307.584 
L 375.2328 307.584 
L 372.314957 307.584 
z
" style="fill:#008000;opacity:0.2;"/>
   </g>
   <g id="patch_302">
    <path clip-path="url(#p853ff3b897)" d="M 375.2328 307.584 
L 378.150643 307.584 
L 378.150643 306.341647 
L 375.2328 306.341647 
z
" style="fill:#008000;opacity:0.2;"/>
   </g>
   <g id="matplotlib.axis_1">
    <g id="xtick_1">
     <g id="line2d_1">
      <defs>
       <path d="M 0 0 
L 0 3.5 
" id="m4cadc9b607" style="stroke:#000000;stroke-width:0.8;"/>
      </defs>
      <g>
       <use style="stroke:#000000;stroke-width:0.8;" x="84.903267" xlink:href="#m4cadc9b607" y="307.584"/>
      </g>
     </g>
     <g id="text_1">
      <!-- 310 -->
      <g transform="translate(75.359517 322.182437)scale(0.1 -0.1)">
       <defs>
        <path d="M 2597 2516 
Q 3050 2419 3304 2112 
Q 3559 1806 3559 1356 
Q 3559 666 3084 287 
Q 2609 -91 1734 -91 
Q 1441 -91 1130 -33 
Q 819 25 488 141 
L 488 750 
Q 750 597 1062 519 
Q 1375 441 1716 441 
Q 2309 441 2620 675 
Q 2931 909 2931 1356 
Q 2931 1769 2642 2001 
Q 2353 2234 1838 2234 
L 1294 2234 
L 1294 2753 
L 1863 2753 
Q 2328 2753 2575 2939 
Q 2822 3125 2822 3475 
Q 2822 3834 2567 4026 
Q 2313 4219 1838 4219 
Q 1578 4219 1281 4162 
Q 984 4106 628 3988 
L 628 4550 
Q 988 4650 1302 4700 
Q 1616 4750 1894 4750 
Q 2613 4750 3031 4423 
Q 3450 4097 3450 3541 
Q 3450 3153 3228 2886 
Q 3006 2619 2597 2516 
z
" id="DejaVuSans-33" transform="scale(0.015625)"/>
        <path d="M 794 531 
L 1825 531 
L 1825 4091 
L 703 3866 
L 703 4441 
L 1819 4666 
L 2450 4666 
L 2450 531 
L 3481 531 
L 3481 0 
L 794 0 
L 794 531 
z
" id="DejaVuSans-31" transform="scale(0.015625)"/>
        <path d="M 2034 4250 
Q 1547 4250 1301 3770 
Q 1056 3291 1056 2328 
Q 1056 1369 1301 889 
Q 1547 409 2034 409 
Q 2525 409 2770 889 
Q 3016 1369 3016 2328 
Q 3016 3291 2770 3770 
Q 2525 4250 2034 4250 
z
M 2034 4750 
Q 2819 4750 3233 4129 
Q 3647 3509 3647 2328 
Q 3647 1150 3233 529 
Q 2819 -91 2034 -91 
Q 1250 -91 836 529 
Q 422 1150 422 2328 
Q 422 3509 836 4129 
Q 1250 4750 2034 4750 
z
" id="DejaVuSans-30" transform="scale(0.015625)"/>
       </defs>
       <use xlink:href="#DejaVuSans-33"/>
       <use x="63.623047" xlink:href="#DejaVuSans-31"/>
       <use x="127.246094" xlink:href="#DejaVuSans-30"/>
      </g>
     </g>
    </g>
    <g id="xtick_2">
     <g id="line2d_2">
      <g>
       <use style="stroke:#000000;stroke-width:0.8;" x="133.672164" xlink:href="#m4cadc9b607" y="307.584"/>
      </g>
     </g>
     <g id="text_2">
      <!-- 315 -->
      <g transform="translate(124.128414 322.182437)scale(0.1 -0.1)">
       <defs>
        <path d="M 691 4666 
L 3169 4666 
L 3169 4134 
L 1269 4134 
L 1269 2991 
Q 1406 3038 1543 3061 
Q 1681 3084 1819 3084 
Q 2600 3084 3056 2656 
Q 3513 2228 3513 1497 
Q 3513 744 3044 326 
Q 2575 -91 1722 -91 
Q 1428 -91 1123 -41 
Q 819 9 494 109 
L 494 744 
Q 775 591 1075 516 
Q 1375 441 1709 441 
Q 2250 441 2565 725 
Q 2881 1009 2881 1497 
Q 2881 1984 2565 2268 
Q 2250 2553 1709 2553 
Q 1456 2553 1204 2497 
Q 953 2441 691 2322 
L 691 4666 
z
" id="DejaVuSans-35" transform="scale(0.015625)"/>
       </defs>
       <use xlink:href="#DejaVuSans-33"/>
       <use x="63.623047" xlink:href="#DejaVuSans-31"/>
       <use x="127.246094" xlink:href="#DejaVuSans-35"/>
      </g>
     </g>
    </g>
    <g id="xtick_3">
     <g id="line2d_3">
      <g>
       <use style="stroke:#000000;stroke-width:0.8;" x="182.44106" xlink:href="#m4cadc9b607" y="307.584"/>
      </g>
     </g>
     <g id="text_3">
      <!-- 320 -->
      <g transform="translate(172.89731 322.182437)scale(0.1 -0.1)">
       <defs>
        <path d="M 1228 531 
L 3431 531 
L 3431 0 
L 469 0 
L 469 531 
Q 828 903 1448 1529 
Q 2069 2156 2228 2338 
Q 2531 2678 2651 2914 
Q 2772 3150 2772 3378 
Q 2772 3750 2511 3984 
Q 2250 4219 1831 4219 
Q 1534 4219 1204 4116 
Q 875 4013 500 3803 
L 500 4441 
Q 881 4594 1212 4672 
Q 1544 4750 1819 4750 
Q 2544 4750 2975 4387 
Q 3406 4025 3406 3419 
Q 3406 3131 3298 2873 
Q 3191 2616 2906 2266 
Q 2828 2175 2409 1742 
Q 1991 1309 1228 531 
z
" id="DejaVuSans-32" transform="scale(0.015625)"/>
       </defs>
       <use xlink:href="#DejaVuSans-33"/>
       <use x="63.623047" xlink:href="#DejaVuSans-32"/>
       <use x="127.246094" xlink:href="#DejaVuSans-30"/>
      </g>
     </g>
    </g>
    <g id="xtick_4">
     <g id="line2d_4">
      <g>
       <use style="stroke:#000000;stroke-width:0.8;" x="231.209957" xlink:href="#m4cadc9b607" y="307.584"/>
      </g>
     </g>
     <g id="text_4">
      <!-- 325 -->
      <g transform="translate(221.666207 322.182437)scale(0.1 -0.1)">
       <use xlink:href="#DejaVuSans-33"/>
       <use x="63.623047" xlink:href="#DejaVuSans-32"/>
       <use x="127.246094" xlink:href="#DejaVuSans-35"/>
      </g>
     </g>
    </g>
    <g id="xtick_5">
     <g id="line2d_5">
      <g>
       <use style="stroke:#000000;stroke-width:0.8;" x="279.978854" xlink:href="#m4cadc9b607" y="307.584"/>
      </g>
     </g>
     <g id="text_5">
      <!-- 330 -->
      <g transform="translate(270.435104 322.182437)scale(0.1 -0.1)">
       <use xlink:href="#DejaVuSans-33"/>
       <use x="63.623047" xlink:href="#DejaVuSans-33"/>
       <use x="127.246094" xlink:href="#DejaVuSans-30"/>
      </g>
     </g>
    </g>
    <g id="xtick_6">
     <g id="line2d_6">
      <g>
       <use style="stroke:#000000;stroke-width:0.8;" x="328.74775" xlink:href="#m4cadc9b607" y="307.584"/>
      </g>
     </g>
     <g id="text_6">
      <!-- 335 -->
      <g transform="translate(319.204 322.182437)scale(0.1 -0.1)">
       <use xlink:href="#DejaVuSans-33"/>
       <use x="63.623047" xlink:href="#DejaVuSans-33"/>
       <use x="127.246094" xlink:href="#DejaVuSans-35"/>
      </g>
     </g>
    </g>
    <g id="xtick_7">
     <g id="line2d_7">
      <g>
       <use style="stroke:#000000;stroke-width:0.8;" x="377.516647" xlink:href="#m4cadc9b607" y="307.584"/>
      </g>
     </g>
     <g id="text_7">
      <!-- 340 -->
      <g transform="translate(367.972897 322.182437)scale(0.1 -0.1)">
       <defs>
        <path d="M 2419 4116 
L 825 1625 
L 2419 1625 
L 2419 4116 
z
M 2253 4666 
L 3047 4666 
L 3047 1625 
L 3713 1625 
L 3713 1100 
L 3047 1100 
L 3047 0 
L 2419 0 
L 2419 1100 
L 313 1100 
L 313 1709 
L 2253 4666 
z
" id="DejaVuSans-34" transform="scale(0.015625)"/>
       </defs>
       <use xlink:href="#DejaVuSans-33"/>
       <use x="63.623047" xlink:href="#DejaVuSans-34"/>
       <use x="127.246094" xlink:href="#DejaVuSans-30"/>
      </g>
     </g>
    </g>
    <g id="text_8">
     <!-- Restraint Score -->
     <g transform="translate(198.040469 335.860562)scale(0.1 -0.1)">
      <defs>
       <path d="M 2841 2188 
Q 3044 2119 3236 1894 
Q 3428 1669 3622 1275 
L 4263 0 
L 3584 0 
L 2988 1197 
Q 2756 1666 2539 1819 
Q 2322 1972 1947 1972 
L 1259 1972 
L 1259 0 
L 628 0 
L 628 4666 
L 2053 4666 
Q 2853 4666 3247 4331 
Q 3641 3997 3641 3322 
Q 3641 2881 3436 2590 
Q 3231 2300 2841 2188 
z
M 1259 4147 
L 1259 2491 
L 2053 2491 
Q 2509 2491 2742 2702 
Q 2975 2913 2975 3322 
Q 2975 3731 2742 3939 
Q 2509 4147 2053 4147 
L 1259 4147 
z
" id="DejaVuSans-52" transform="scale(0.015625)"/>
       <path d="M 3597 1894 
L 3597 1613 
L 953 1613 
Q 991 1019 1311 708 
Q 1631 397 2203 397 
Q 2534 397 2845 478 
Q 3156 559 3463 722 
L 3463 178 
Q 3153 47 2828 -22 
Q 2503 -91 2169 -91 
Q 1331 -91 842 396 
Q 353 884 353 1716 
Q 353 2575 817 3079 
Q 1281 3584 2069 3584 
Q 2775 3584 3186 3129 
Q 3597 2675 3597 1894 
z
M 3022 2063 
Q 3016 2534 2758 2815 
Q 2500 3097 2075 3097 
Q 1594 3097 1305 2825 
Q 1016 2553 972 2059 
L 3022 2063 
z
" id="DejaVuSans-65" transform="scale(0.015625)"/>
       <path d="M 2834 3397 
L 2834 2853 
Q 2591 2978 2328 3040 
Q 2066 3103 1784 3103 
Q 1356 3103 1142 2972 
Q 928 2841 928 2578 
Q 928 2378 1081 2264 
Q 1234 2150 1697 2047 
L 1894 2003 
Q 2506 1872 2764 1633 
Q 3022 1394 3022 966 
Q 3022 478 2636 193 
Q 2250 -91 1575 -91 
Q 1294 -91 989 -36 
Q 684 19 347 128 
L 347 722 
Q 666 556 975 473 
Q 1284 391 1588 391 
Q 1994 391 2212 530 
Q 2431 669 2431 922 
Q 2431 1156 2273 1281 
Q 2116 1406 1581 1522 
L 1381 1569 
Q 847 1681 609 1914 
Q 372 2147 372 2553 
Q 372 3047 722 3315 
Q 1072 3584 1716 3584 
Q 2034 3584 2315 3537 
Q 2597 3491 2834 3397 
z
" id="DejaVuSans-73" transform="scale(0.015625)"/>
       <path d="M 1172 4494 
L 1172 3500 
L 2356 3500 
L 2356 3053 
L 1172 3053 
L 1172 1153 
Q 1172 725 1289 603 
Q 1406 481 1766 481 
L 2356 481 
L 2356 0 
L 1766 0 
Q 1100 0 847 248 
Q 594 497 594 1153 
L 594 3053 
L 172 3053 
L 172 3500 
L 594 3500 
L 594 4494 
L 1172 4494 
z
" id="DejaVuSans-74" transform="scale(0.015625)"/>
       <path d="M 2631 2963 
Q 2534 3019 2420 3045 
Q 2306 3072 2169 3072 
Q 1681 3072 1420 2755 
Q 1159 2438 1159 1844 
L 1159 0 
L 581 0 
L 581 3500 
L 1159 3500 
L 1159 2956 
Q 1341 3275 1631 3429 
Q 1922 3584 2338 3584 
Q 2397 3584 2469 3576 
Q 2541 3569 2628 3553 
L 2631 2963 
z
" id="DejaVuSans-72" transform="scale(0.015625)"/>
       <path d="M 2194 1759 
Q 1497 1759 1228 1600 
Q 959 1441 959 1056 
Q 959 750 1161 570 
Q 1363 391 1709 391 
Q 2188 391 2477 730 
Q 2766 1069 2766 1631 
L 2766 1759 
L 2194 1759 
z
M 3341 1997 
L 3341 0 
L 2766 0 
L 2766 531 
Q 2569 213 2275 61 
Q 1981 -91 1556 -91 
Q 1019 -91 701 211 
Q 384 513 384 1019 
Q 384 1609 779 1909 
Q 1175 2209 1959 2209 
L 2766 2209 
L 2766 2266 
Q 2766 2663 2505 2880 
Q 2244 3097 1772 3097 
Q 1472 3097 1187 3025 
Q 903 2953 641 2809 
L 641 3341 
Q 956 3463 1253 3523 
Q 1550 3584 1831 3584 
Q 2591 3584 2966 3190 
Q 3341 2797 3341 1997 
z
" id="DejaVuSans-61" transform="scale(0.015625)"/>
       <path d="M 603 3500 
L 1178 3500 
L 1178 0 
L 603 0 
L 603 3500 
z
M 603 4863 
L 1178 4863 
L 1178 4134 
L 603 4134 
L 603 4863 
z
" id="DejaVuSans-69" transform="scale(0.015625)"/>
       <path d="M 3513 2113 
L 3513 0 
L 2938 0 
L 2938 2094 
Q 2938 2591 2744 2837 
Q 2550 3084 2163 3084 
Q 1697 3084 1428 2787 
Q 1159 2491 1159 1978 
L 1159 0 
L 581 0 
L 581 3500 
L 1159 3500 
L 1159 2956 
Q 1366 3272 1645 3428 
Q 1925 3584 2291 3584 
Q 2894 3584 3203 3211 
Q 3513 2838 3513 2113 
z
" id="DejaVuSans-6e" transform="scale(0.015625)"/>
       <path id="DejaVuSans-20" transform="scale(0.015625)"/>
       <path d="M 3425 4513 
L 3425 3897 
Q 3066 4069 2747 4153 
Q 2428 4238 2131 4238 
Q 1616 4238 1336 4038 
Q 1056 3838 1056 3469 
Q 1056 3159 1242 3001 
Q 1428 2844 1947 2747 
L 2328 2669 
Q 3034 2534 3370 2195 
Q 3706 1856 3706 1288 
Q 3706 609 3251 259 
Q 2797 -91 1919 -91 
Q 1588 -91 1214 -16 
Q 841 59 441 206 
L 441 856 
Q 825 641 1194 531 
Q 1563 422 1919 422 
Q 2459 422 2753 634 
Q 3047 847 3047 1241 
Q 3047 1584 2836 1778 
Q 2625 1972 2144 2069 
L 1759 2144 
Q 1053 2284 737 2584 
Q 422 2884 422 3419 
Q 422 4038 858 4394 
Q 1294 4750 2059 4750 
Q 2388 4750 2728 4690 
Q 3069 4631 3425 4513 
z
" id="DejaVuSans-53" transform="scale(0.015625)"/>
       <path d="M 3122 3366 
L 3122 2828 
Q 2878 2963 2633 3030 
Q 2388 3097 2138 3097 
Q 1578 3097 1268 2742 
Q 959 2388 959 1747 
Q 959 1106 1268 751 
Q 1578 397 2138 397 
Q 2388 397 2633 464 
Q 2878 531 3122 666 
L 3122 134 
Q 2881 22 2623 -34 
Q 2366 -91 2075 -91 
Q 1284 -91 818 406 
Q 353 903 353 1747 
Q 353 2603 823 3093 
Q 1294 3584 2113 3584 
Q 2378 3584 2631 3529 
Q 2884 3475 3122 3366 
z
" id="DejaVuSans-63" transform="scale(0.015625)"/>
       <path d="M 1959 3097 
Q 1497 3097 1228 2736 
Q 959 2375 959 1747 
Q 959 1119 1226 758 
Q 1494 397 1959 397 
Q 2419 397 2687 759 
Q 2956 1122 2956 1747 
Q 2956 2369 2687 2733 
Q 2419 3097 1959 3097 
z
M 1959 3584 
Q 2709 3584 3137 3096 
Q 3566 2609 3566 1747 
Q 3566 888 3137 398 
Q 2709 -91 1959 -91 
Q 1206 -91 779 398 
Q 353 888 353 1747 
Q 353 2609 779 3096 
Q 1206 3584 1959 3584 
z
" id="DejaVuSans-6f" transform="scale(0.015625)"/>
      </defs>
      <use xlink:href="#DejaVuSans-52"/>
      <use x="64.982422" xlink:href="#DejaVuSans-65"/>
      <use x="126.505859" xlink:href="#DejaVuSans-73"/>
      <use x="178.605469" xlink:href="#DejaVuSans-74"/>
      <use x="217.814453" xlink:href="#DejaVuSans-72"/>
      <use x="258.927734" xlink:href="#DejaVuSans-61"/>
      <use x="320.207031" xlink:href="#DejaVuSans-69"/>
      <use x="347.990234" xlink:href="#DejaVuSans-6e"/>
      <use x="411.369141" xlink:href="#DejaVuSans-74"/>
      <use x="450.578125" xlink:href="#DejaVuSans-20"/>
      <use x="482.365234" xlink:href="#DejaVuSans-53"/>
      <use x="545.841797" xlink:href="#DejaVuSans-63"/>
      <use x="600.822266" xlink:href="#DejaVuSans-6f"/>
      <use x="662.003906" xlink:href="#DejaVuSans-72"/>
      <use x="700.867188" xlink:href="#DejaVuSans-65"/>
     </g>
    </g>
   </g>
   <g id="matplotlib.axis_2">
    <g id="ytick_1">
     <g id="line2d_8">
      <defs>
       <path d="M 0 0 
L -3.5 0 
" id="m48484861a0" style="stroke:#000000;stroke-width:0.8;"/>
      </defs>
      <g>
       <use style="stroke:#000000;stroke-width:0.8;" x="57.6" xlink:href="#m48484861a0" y="307.584"/>
      </g>
     </g>
     <g id="text_9">
      <!-- 0 -->
      <g transform="translate(44.2375 311.383219)scale(0.1 -0.1)">
       <use xlink:href="#DejaVuSans-30"/>
      </g>
     </g>
    </g>
    <g id="ytick_2">
     <g id="line2d_9">
      <g>
       <use style="stroke:#000000;stroke-width:0.8;" x="57.6" xlink:href="#m48484861a0" y="276.525176"/>
      </g>
     </g>
     <g id="text_10">
      <!-- 25 -->
      <g transform="translate(37.875 280.324395)scale(0.1 -0.1)">
       <use xlink:href="#DejaVuSans-32"/>
       <use x="63.623047" xlink:href="#DejaVuSans-35"/>
      </g>
     </g>
    </g>
    <g id="ytick_3">
     <g id="line2d_10">
      <g>
       <use style="stroke:#000000;stroke-width:0.8;" x="57.6" xlink:href="#m48484861a0" y="245.466353"/>
      </g>
     </g>
     <g id="text_11">
      <!-- 50 -->
      <g transform="translate(37.875 249.265572)scale(0.1 -0.1)">
       <use xlink:href="#DejaVuSans-35"/>
       <use x="63.623047" xlink:href="#DejaVuSans-30"/>
      </g>
     </g>
    </g>
    <g id="ytick_4">
     <g id="line2d_11">
      <g>
       <use style="stroke:#000000;stroke-width:0.8;" x="57.6" xlink:href="#m48484861a0" y="214.407529"/>
      </g>
     </g>
     <g id="text_12">
      <!-- 75 -->
      <g transform="translate(37.875 218.206748)scale(0.1 -0.1)">
       <defs>
        <path d="M 525 4666 
L 3525 4666 
L 3525 4397 
L 1831 0 
L 1172 0 
L 2766 4134 
L 525 4134 
L 525 4666 
z
" id="DejaVuSans-37" transform="scale(0.015625)"/>
       </defs>
       <use xlink:href="#DejaVuSans-37"/>
       <use x="63.623047" xlink:href="#DejaVuSans-35"/>
      </g>
     </g>
    </g>
    <g id="ytick_5">
     <g id="line2d_12">
      <g>
       <use style="stroke:#000000;stroke-width:0.8;" x="57.6" xlink:href="#m48484861a0" y="183.348706"/>
      </g>
     </g>
     <g id="text_13">
      <!-- 100 -->
      <g transform="translate(31.5125 187.147925)scale(0.1 -0.1)">
       <use xlink:href="#DejaVuSans-31"/>
       <use x="63.623047" xlink:href="#DejaVuSans-30"/>
       <use x="127.246094" xlink:href="#DejaVuSans-30"/>
      </g>
     </g>
    </g>
    <g id="ytick_6">
     <g id="line2d_13">
      <g>
       <use style="stroke:#000000;stroke-width:0.8;" x="57.6" xlink:href="#m48484861a0" y="152.289882"/>
      </g>
     </g>
     <g id="text_14">
      <!-- 125 -->
      <g transform="translate(31.5125 156.089101)scale(0.1 -0.1)">
       <use xlink:href="#DejaVuSans-31"/>
       <use x="63.623047" xlink:href="#DejaVuSans-32"/>
       <use x="127.246094" xlink:href="#DejaVuSans-35"/>
      </g>
     </g>
    </g>
    <g id="ytick_7">
     <g id="line2d_14">
      <g>
       <use style="stroke:#000000;stroke-width:0.8;" x="57.6" xlink:href="#m48484861a0" y="121.231059"/>
      </g>
     </g>
     <g id="text_15">
      <!-- 150 -->
      <g transform="translate(31.5125 125.030278)scale(0.1 -0.1)">
       <use xlink:href="#DejaVuSans-31"/>
       <use x="63.623047" xlink:href="#DejaVuSans-35"/>
       <use x="127.246094" xlink:href="#DejaVuSans-30"/>
      </g>
     </g>
    </g>
    <g id="ytick_8">
     <g id="line2d_15">
      <g>
       <use style="stroke:#000000;stroke-width:0.8;" x="57.6" xlink:href="#m48484861a0" y="90.172235"/>
      </g>
     </g>
     <g id="text_16">
      <!-- 175 -->
      <g transform="translate(31.5125 93.971454)scale(0.1 -0.1)">
       <use xlink:href="#DejaVuSans-31"/>
       <use x="63.623047" xlink:href="#DejaVuSans-37"/>
       <use x="127.246094" xlink:href="#DejaVuSans-35"/>
      </g>
     </g>
    </g>
    <g id="ytick_9">
     <g id="line2d_16">
      <g>
       <use style="stroke:#000000;stroke-width:0.8;" x="57.6" xlink:href="#m48484861a0" y="59.113412"/>
      </g>
     </g>
     <g id="text_17">
      <!-- 200 -->
      <g transform="translate(31.5125 62.912631)scale(0.1 -0.1)">
       <use xlink:href="#DejaVuSans-32"/>
       <use x="63.623047" xlink:href="#DejaVuSans-30"/>
       <use x="127.246094" xlink:href="#DejaVuSans-30"/>
      </g>
     </g>
    </g>
   </g>
   <g id="patch_303">
    <path clip-path="url(#p853ff3b897)" d="M 79.44115 307.584 
L 79.44115 306.341647 
L 82.121977 306.341647 
L 82.121977 307.584 
L 84.802803 307.584 
L 84.802803 301.372235 
L 87.483629 301.372235 
L 87.483629 303.856941 
L 90.164455 303.856941 
L 90.164455 306.341647 
L 92.845282 306.341647 
L 92.845282 302.614588 
L 95.526108 302.614588 
L 95.526108 301.372235 
L 98.206934 301.372235 
L 98.206934 300.129882 
L 100.88776 300.129882 
L 100.88776 297.645176 
L 103.568587 297.645176 
L 103.568587 298.887529 
L 106.249413 298.887529 
L 106.249413 293.918118 
L 108.930239 293.918118 
L 108.930239 283.979294 
L 111.611065 283.979294 
L 111.611065 293.918118 
L 114.291892 293.918118 
L 114.291892 280.252235 
L 116.972718 280.252235 
L 116.972718 277.767529 
L 119.653544 277.767529 
L 119.653544 262.859294 
L 122.33437 262.859294 
L 122.33437 260.374588 
L 125.015197 260.374588 
L 125.015197 238.012235 
L 127.696023 238.012235 
L 127.696023 228.073412 
L 130.376849 228.073412 
L 130.376849 236.769882 
L 133.057675 236.769882 
L 133.057675 223.104 
L 135.738502 223.104 
L 135.738502 209.438118 
L 138.419328 209.438118 
L 138.419328 200.741647 
L 141.100154 200.741647 
L 141.100154 170.925176 
L 143.78098 170.925176 
L 143.78098 153.532235 
L 146.461807 153.532235 
L 146.461807 164.713412 
L 149.142633 164.713412 
L 149.142633 137.381647 
L 151.823459 137.381647 
L 151.823459 129.927529 
L 154.504285 129.927529 
L 154.504285 107.565176 
L 157.185112 107.565176 
L 157.185112 133.654588 
L 159.865938 133.654588 
L 159.865938 111.292235 
L 162.546764 111.292235 
L 162.546764 116.261647 
L 165.22759 116.261647 
L 165.22759 90.172235 
L 167.908417 90.172235 
L 167.908417 86.445176 
L 170.589243 86.445176 
L 170.589243 54.144 
L 173.270069 54.144 
L 173.270069 56.628706 
L 175.950895 56.628706 
L 175.950895 97.626353 
L 178.631722 97.626353 
L 178.631722 76.506353 
L 181.312548 76.506353 
L 181.312548 62.840471 
L 183.993374 62.840471 
L 183.993374 70.294588 
L 186.6742 70.294588 
L 186.6742 57.871059 
L 189.355027 57.871059 
L 189.355027 64.082824 
L 192.035853 64.082824 
L 192.035853 88.929882 
L 194.716679 88.929882 
L 194.716679 77.748706 
L 197.397506 77.748706 
L 197.397506 87.687529 
L 202.759158 87.687529 
L 202.759158 98.868706 
L 205.439984 98.868706 
L 205.439984 136.139294 
L 208.120811 136.139294 
L 208.120811 124.958118 
L 210.801637 124.958118 
L 210.801637 157.259294 
L 213.482463 157.259294 
L 213.482463 162.228706 
L 216.163289 162.228706 
L 216.163289 193.287529 
L 218.844116 193.287529 
L 218.844116 175.894588 
L 221.524942 175.894588 
L 221.524942 183.348706 
L 224.205768 183.348706 
L 224.205768 193.287529 
L 226.886594 193.287529 
L 226.886594 178.379294 
L 229.567421 178.379294 
L 229.567421 204.468706 
L 232.248247 204.468706 
L 232.248247 228.073412 
L 234.929073 228.073412 
L 234.929073 234.285176 
L 237.609899 234.285176 
L 237.609899 224.346353 
L 240.290726 224.346353 
L 240.290726 235.527529 
L 242.971552 235.527529 
L 242.971552 250.435765 
L 245.652378 250.435765 
L 245.652378 234.285176 
L 248.333204 234.285176 
L 248.333204 247.951059 
L 251.014031 247.951059 
L 251.014031 249.193412 
L 253.694857 249.193412 
L 253.694857 269.071059 
L 256.375683 269.071059 
L 256.375683 262.859294 
L 259.056509 262.859294 
L 259.056509 265.344 
L 261.737336 265.344 
L 261.737336 272.798118 
L 264.418162 272.798118 
L 264.418162 279.009882 
L 267.098988 279.009882 
L 267.098988 286.464 
L 269.779814 286.464 
L 269.779814 283.979294 
L 272.460641 283.979294 
L 272.460641 281.494588 
L 277.822293 281.494588 
L 277.822293 277.767529 
L 280.503119 277.767529 
L 280.503119 285.221647 
L 283.183946 285.221647 
L 283.183946 288.948706 
L 285.864772 288.948706 
L 285.864772 292.675765 
L 293.907251 292.675765 
L 293.907251 296.402824 
L 296.588077 296.402824 
L 296.588077 302.614588 
L 299.268903 302.614588 
L 299.268903 297.645176 
L 301.949729 297.645176 
L 301.949729 301.372235 
L 307.311382 301.372235 
L 307.311382 303.856941 
L 309.992208 303.856941 
L 309.992208 307.584 
L 312.673034 307.584 
L 312.673034 305.099294 
L 318.034687 305.099294 
L 318.034687 306.341647 
L 320.715513 306.341647 
L 320.715513 305.099294 
L 323.396339 305.099294 
L 323.396339 307.584 
L 326.077166 307.584 
L 326.077166 303.856941 
L 328.757992 303.856941 
L 328.757992 306.341647 
L 331.438818 306.341647 
L 331.438818 307.584 
L 334.119644 307.584 
L 334.119644 306.341647 
L 342.162123 306.341647 
L 342.162123 307.584 
L 344.842949 307.584 
L 344.842949 303.856941 
L 347.523776 303.856941 
L 347.523776 307.584 
L 347.523776 307.584 
" style="fill:none;stroke:#ff0000;stroke-linejoin:miter;"/>
   </g>
   <g id="patch_304">
    <path clip-path="url(#p853ff3b897)" d="M 73.832727 307.584 
L 73.832727 306.341647 
L 77.079273 306.341647 
L 77.079273 307.584 
L 86.818909 307.584 
L 86.818909 305.099294 
L 90.065455 305.099294 
L 90.065455 306.341647 
L 96.558545 306.341647 
L 96.558545 305.099294 
L 99.805091 305.099294 
L 99.805091 303.856941 
L 106.298182 303.856941 
L 106.298182 302.614588 
L 109.544727 302.614588 
L 109.544727 296.402824 
L 112.791273 296.402824 
L 112.791273 286.464 
L 116.037818 286.464 
L 116.037818 295.160471 
L 119.284364 295.160471 
L 119.284364 285.221647 
L 122.530909 285.221647 
L 122.530909 272.798118 
L 125.777455 272.798118 
L 125.777455 274.040471 
L 129.024 274.040471 
L 129.024 252.920471 
L 132.270545 252.920471 
L 132.270545 259.132235 
L 135.517091 259.132235 
L 135.517091 239.254588 
L 138.763636 239.254588 
L 138.763636 221.861647 
L 142.010182 221.861647 
L 142.010182 230.558118 
L 145.256727 230.558118 
L 145.256727 250.435765 
L 148.503273 250.435765 
L 148.503273 198.256941 
L 151.749818 198.256941 
L 151.749818 182.106353 
L 154.996364 182.106353 
L 154.996364 170.925176 
L 158.242909 170.925176 
L 158.242909 148.562824 
L 164.736 148.562824 
L 164.736 127.442824 
L 167.982545 127.442824 
L 167.982545 123.715765 
L 171.229091 123.715765 
L 171.229091 148.562824 
L 174.475636 148.562824 
L 174.475636 149.805176 
L 177.722182 149.805176 
L 177.722182 97.626353 
L 180.968727 97.626353 
L 180.968727 124.958118 
L 184.215273 124.958118 
L 184.215273 131.169882 
L 187.461818 131.169882 
L 187.461818 110.049882 
L 190.708364 110.049882 
L 190.708364 117.504 
L 193.954909 117.504 
L 193.954909 137.381647 
L 197.201455 137.381647 
L 197.201455 133.654588 
L 200.448 133.654588 
L 200.448 144.835765 
L 203.694545 144.835765 
L 203.694545 118.746353 
L 206.941091 118.746353 
L 206.941091 167.198118 
L 210.187636 167.198118 
L 210.187636 146.078118 
L 213.434182 146.078118 
L 213.434182 151.047529 
L 216.680727 151.047529 
L 216.680727 165.955765 
L 219.927273 165.955765 
L 219.927273 162.228706 
L 223.173818 162.228706 
L 223.173818 174.652235 
L 226.420364 174.652235 
L 226.420364 168.440471 
L 229.666909 168.440471 
L 229.666909 172.167529 
L 232.913455 172.167529 
L 232.913455 175.894588 
L 236.16 175.894588 
L 236.16 158.501647 
L 239.406545 158.501647 
L 239.406545 175.894588 
L 242.653091 175.894588 
L 242.653091 170.925176 
L 245.899636 170.925176 
L 245.899636 167.198118 
L 249.146182 167.198118 
L 249.146182 180.864 
L 252.392727 180.864 
L 252.392727 188.318118 
L 255.639273 188.318118 
L 255.639273 201.984 
L 258.885818 201.984 
L 258.885818 206.953412 
L 262.132364 206.953412 
L 262.132364 205.711059 
L 265.378909 205.711059 
L 265.378909 197.014588 
L 268.625455 197.014588 
L 268.625455 215.649882 
L 271.872 215.649882 
L 271.872 206.953412 
L 275.118545 206.953412 
L 275.118545 235.527529 
L 278.365091 235.527529 
L 278.365091 228.073412 
L 281.611636 228.073412 
L 281.611636 240.496941 
L 284.858182 240.496941 
L 284.858182 245.466353 
L 288.104727 245.466353 
L 288.104727 246.708706 
L 291.351273 246.708706 
L 291.351273 238.012235 
L 294.597818 238.012235 
L 294.597818 266.586353 
L 297.844364 266.586353 
L 297.844364 274.040471 
L 301.090909 274.040471 
L 301.090909 267.828706 
L 304.337455 267.828706 
L 304.337455 274.040471 
L 307.584 274.040471 
L 307.584 279.009882 
L 310.830545 279.009882 
L 310.830545 280.252235 
L 314.077091 280.252235 
L 314.077091 288.948706 
L 317.323636 288.948706 
L 317.323636 290.191059 
L 320.570182 290.191059 
L 320.570182 288.948706 
L 327.063273 288.948706 
L 327.063273 287.706353 
L 330.309818 287.706353 
L 330.309818 297.645176 
L 333.556364 297.645176 
L 333.556364 291.433412 
L 336.802909 291.433412 
L 336.802909 297.645176 
L 340.049455 297.645176 
L 340.049455 295.160471 
L 343.296 295.160471 
L 343.296 297.645176 
L 346.542545 297.645176 
L 346.542545 298.887529 
L 349.789091 298.887529 
L 349.789091 303.856941 
L 353.035636 303.856941 
L 353.035636 306.341647 
L 356.282182 306.341647 
L 356.282182 303.856941 
L 359.528727 303.856941 
L 359.528727 305.099294 
L 362.775273 305.099294 
L 362.775273 307.584 
L 366.021818 307.584 
L 366.021818 303.856941 
L 369.268364 303.856941 
L 369.268364 307.584 
L 375.761455 307.584 
L 375.761455 305.099294 
L 379.008 305.099294 
L 379.008 307.584 
L 385.501091 307.584 
L 385.501091 306.341647 
L 388.747636 306.341647 
L 388.747636 305.099294 
L 391.994182 305.099294 
L 391.994182 307.584 
L 395.240727 307.584 
L 395.240727 305.099294 
L 398.487273 305.099294 
L 398.487273 307.584 
L 398.487273 307.584 
" style="fill:none;stroke:#0000ff;stroke-linejoin:miter;"/>
   </g>
   <g id="patch_305">
    <path clip-path="url(#p853ff3b897)" d="M 86.366334 307.584 
L 86.366334 306.341647 
L 89.284177 306.341647 
L 89.284177 307.584 
L 92.20202 307.584 
L 92.20202 306.341647 
L 98.037706 306.341647 
L 98.037706 305.099294 
L 103.873392 305.099294 
L 103.873392 302.614588 
L 109.709078 302.614588 
L 109.709078 301.372235 
L 112.626922 301.372235 
L 112.626922 296.402824 
L 115.544765 296.402824 
L 115.544765 301.372235 
L 118.462608 301.372235 
L 118.462608 283.979294 
L 121.380451 283.979294 
L 121.380451 292.675765 
L 124.298294 292.675765 
L 124.298294 281.494588 
L 127.216137 281.494588 
L 127.216137 270.313412 
L 130.13398 270.313412 
L 130.13398 262.859294 
L 133.051823 262.859294 
L 133.051823 269.071059 
L 135.969666 269.071059 
L 135.969666 275.282824 
L 138.887509 275.282824 
L 138.887509 249.193412 
L 141.805352 249.193412 
L 141.805352 240.496941 
L 144.723196 240.496941 
L 144.723196 245.466353 
L 147.641039 245.466353 
L 147.641039 220.619294 
L 150.558882 220.619294 
L 150.558882 216.892235 
L 153.476725 216.892235 
L 153.476725 200.741647 
L 156.394568 200.741647 
L 156.394568 201.984 
L 159.312411 201.984 
L 159.312411 185.833412 
L 162.230254 185.833412 
L 162.230254 178.379294 
L 165.148097 178.379294 
L 165.148097 175.894588 
L 168.06594 175.894588 
L 168.06594 174.652235 
L 170.983783 174.652235 
L 170.983783 164.713412 
L 173.901626 164.713412 
L 173.901626 151.047529 
L 176.81947 151.047529 
L 176.81947 172.167529 
L 179.737313 172.167529 
L 179.737313 159.744 
L 182.655156 159.744 
L 182.655156 134.896941 
L 185.572999 134.896941 
L 185.572999 119.988706 
L 188.490842 119.988706 
L 188.490842 151.047529 
L 191.408685 151.047529 
L 191.408685 167.198118 
L 194.326528 167.198118 
L 194.326528 119.988706 
L 197.244371 119.988706 
L 197.244371 143.593412 
L 200.162214 143.593412 
L 200.162214 159.744 
L 203.080057 159.744 
L 203.080057 131.169882 
L 205.9979 131.169882 
L 205.9979 146.078118 
L 208.915744 146.078118 
L 208.915744 154.774588 
L 211.833587 154.774588 
L 211.833587 149.805176 
L 214.75143 149.805176 
L 214.75143 183.348706 
L 217.669273 183.348706 
L 217.669273 194.529882 
L 220.587116 194.529882 
L 220.587116 179.621647 
L 223.504959 179.621647 
L 223.504959 197.014588 
L 226.422802 197.014588 
L 226.422802 223.104 
L 229.340645 223.104 
L 229.340645 200.741647 
L 232.258488 200.741647 
L 232.258488 209.438118 
L 235.176331 209.438118 
L 235.176331 215.649882 
L 238.094174 215.649882 
L 238.094174 219.376941 
L 241.012018 219.376941 
L 241.012018 224.346353 
L 243.929861 224.346353 
L 243.929861 220.619294 
L 246.847704 220.619294 
L 246.847704 236.769882 
L 249.765547 236.769882 
L 249.765547 242.981647 
L 252.68339 242.981647 
L 252.68339 240.496941 
L 255.601233 240.496941 
L 255.601233 254.162824 
L 258.519076 254.162824 
L 258.519076 275.282824 
L 261.436919 275.282824 
L 261.436919 281.494588 
L 264.354762 281.494588 
L 264.354762 274.040471 
L 267.272605 274.040471 
L 267.272605 276.525176 
L 270.190448 276.525176 
L 270.190448 283.979294 
L 273.108292 283.979294 
L 273.108292 287.706353 
L 278.943978 287.706353 
L 278.943978 293.918118 
L 281.861821 293.918118 
L 281.861821 290.191059 
L 284.779664 290.191059 
L 284.779664 288.948706 
L 287.697507 288.948706 
L 287.697507 291.433412 
L 290.61535 291.433412 
L 290.61535 288.948706 
L 293.533193 288.948706 
L 293.533193 300.129882 
L 296.451036 300.129882 
L 296.451036 292.675765 
L 299.368879 292.675765 
L 299.368879 298.887529 
L 302.286722 298.887529 
L 302.286722 300.129882 
L 305.204566 300.129882 
L 305.204566 298.887529 
L 308.122409 298.887529 
L 308.122409 303.856941 
L 311.040252 303.856941 
L 311.040252 302.614588 
L 313.958095 302.614588 
L 313.958095 301.372235 
L 316.875938 301.372235 
L 316.875938 303.856941 
L 319.793781 303.856941 
L 319.793781 306.341647 
L 322.711624 306.341647 
L 322.711624 303.856941 
L 328.54731 303.856941 
L 328.54731 307.584 
L 334.382996 307.584 
L 334.382996 303.856941 
L 337.30084 303.856941 
L 337.30084 305.099294 
L 340.218683 305.099294 
L 340.218683 307.584 
L 343.136526 307.584 
L 343.136526 306.341647 
L 348.972212 306.341647 
L 348.972212 307.584 
L 357.725741 307.584 
L 357.725741 306.341647 
L 363.561427 306.341647 
L 363.561427 307.584 
L 369.397114 307.584 
L 369.397114 306.341647 
L 372.314957 306.341647 
L 372.314957 307.584 
L 375.2328 307.584 
L 375.2328 306.341647 
L 378.150643 306.341647 
L 378.150643 307.584 
L 378.150643 307.584 
" style="fill:none;stroke:#008000;stroke-linejoin:miter;"/>
   </g>
   <g id="patch_306">
    <path d="M 57.6 307.584 
L 57.6 41.472 
" style="fill:none;stroke:#000000;stroke-linecap:square;stroke-linejoin:miter;stroke-width:0.8;"/>
   </g>
   <g id="patch_307">
    <path d="M 414.72 307.584 
L 414.72 41.472 
" style="fill:none;stroke:#000000;stroke-linecap:square;stroke-linejoin:miter;stroke-width:0.8;"/>
   </g>
   <g id="patch_308">
    <path d="M 57.6 307.584 
L 414.72 307.584 
" style="fill:none;stroke:#000000;stroke-linecap:square;stroke-linejoin:miter;stroke-width:0.8;"/>
   </g>
   <g id="patch_309">
    <path d="M 57.6 41.472 
L 414.72 41.472 
" style="fill:none;stroke:#000000;stroke-linecap:square;stroke-linejoin:miter;stroke-width:0.8;"/>
   </g>
   <g id="legend_1">
    <g id="patch_310">
     <path d="M 328.068438 93.506375 
L 407.72 93.506375 
Q 409.72 93.506375 409.72 91.506375 
L 409.72 48.472 
Q 409.72 46.472 407.72 46.472 
L 328.068438 46.472 
Q 326.068438 46.472 326.068438 48.472 
L 326.068438 91.506375 
Q 326.068438 93.506375 328.068438 93.506375 
z
" style="fill:#ffffff;opacity:0.8;stroke:#cccccc;stroke-linejoin:miter;"/>
    </g>
    <g id="patch_311">
     <path d="M 330.068438 58.070438 
L 350.068438 58.070438 
L 350.068438 51.070438 
L 330.068438 51.070438 
z
" style="fill:none;stroke:#ff0000;stroke-linejoin:miter;"/>
    </g>
    <g id="text_18">
     <!-- optimal -->
     <g transform="translate(358.068438 58.070438)scale(0.1 -0.1)">
      <defs>
       <path d="M 1159 525 
L 1159 -1331 
L 581 -1331 
L 581 3500 
L 1159 3500 
L 1159 2969 
Q 1341 3281 1617 3432 
Q 1894 3584 2278 3584 
Q 2916 3584 3314 3078 
Q 3713 2572 3713 1747 
Q 3713 922 3314 415 
Q 2916 -91 2278 -91 
Q 1894 -91 1617 61 
Q 1341 213 1159 525 
z
M 3116 1747 
Q 3116 2381 2855 2742 
Q 2594 3103 2138 3103 
Q 1681 3103 1420 2742 
Q 1159 2381 1159 1747 
Q 1159 1113 1420 752 
Q 1681 391 2138 391 
Q 2594 391 2855 752 
Q 3116 1113 3116 1747 
z
" id="DejaVuSans-70" transform="scale(0.015625)"/>
       <path d="M 3328 2828 
Q 3544 3216 3844 3400 
Q 4144 3584 4550 3584 
Q 5097 3584 5394 3201 
Q 5691 2819 5691 2113 
L 5691 0 
L 5113 0 
L 5113 2094 
Q 5113 2597 4934 2840 
Q 4756 3084 4391 3084 
Q 3944 3084 3684 2787 
Q 3425 2491 3425 1978 
L 3425 0 
L 2847 0 
L 2847 2094 
Q 2847 2600 2669 2842 
Q 2491 3084 2119 3084 
Q 1678 3084 1418 2786 
Q 1159 2488 1159 1978 
L 1159 0 
L 581 0 
L 581 3500 
L 1159 3500 
L 1159 2956 
Q 1356 3278 1631 3431 
Q 1906 3584 2284 3584 
Q 2666 3584 2933 3390 
Q 3200 3197 3328 2828 
z
" id="DejaVuSans-6d" transform="scale(0.015625)"/>
       <path d="M 603 4863 
L 1178 4863 
L 1178 0 
L 603 0 
L 603 4863 
z
" id="DejaVuSans-6c" transform="scale(0.015625)"/>
      </defs>
      <use xlink:href="#DejaVuSans-6f"/>
      <use x="61.181641" xlink:href="#DejaVuSans-70"/>
      <use x="124.658203" xlink:href="#DejaVuSans-74"/>
      <use x="163.867188" xlink:href="#DejaVuSans-69"/>
      <use x="191.650391" xlink:href="#DejaVuSans-6d"/>
      <use x="289.0625" xlink:href="#DejaVuSans-61"/>
      <use x="350.341797" xlink:href="#DejaVuSans-6c"/>
     </g>
    </g>
    <g id="patch_312">
     <path d="M 330.068438 72.748563 
L 350.068438 72.748563 
L 350.068438 65.748563 
L 330.068438 65.748563 
z
" style="fill:none;stroke:#0000ff;stroke-linejoin:miter;"/>
    </g>
    <g id="text_19">
     <!-- med-high -->
     <g transform="translate(358.068438 72.748563)scale(0.1 -0.1)">
      <defs>
       <path d="M 2906 2969 
L 2906 4863 
L 3481 4863 
L 3481 0 
L 2906 0 
L 2906 525 
Q 2725 213 2448 61 
Q 2172 -91 1784 -91 
Q 1150 -91 751 415 
Q 353 922 353 1747 
Q 353 2572 751 3078 
Q 1150 3584 1784 3584 
Q 2172 3584 2448 3432 
Q 2725 3281 2906 2969 
z
M 947 1747 
Q 947 1113 1208 752 
Q 1469 391 1925 391 
Q 2381 391 2643 752 
Q 2906 1113 2906 1747 
Q 2906 2381 2643 2742 
Q 2381 3103 1925 3103 
Q 1469 3103 1208 2742 
Q 947 2381 947 1747 
z
" id="DejaVuSans-64" transform="scale(0.015625)"/>
       <path d="M 313 2009 
L 1997 2009 
L 1997 1497 
L 313 1497 
L 313 2009 
z
" id="DejaVuSans-2d" transform="scale(0.015625)"/>
       <path d="M 3513 2113 
L 3513 0 
L 2938 0 
L 2938 2094 
Q 2938 2591 2744 2837 
Q 2550 3084 2163 3084 
Q 1697 3084 1428 2787 
Q 1159 2491 1159 1978 
L 1159 0 
L 581 0 
L 581 4863 
L 1159 4863 
L 1159 2956 
Q 1366 3272 1645 3428 
Q 1925 3584 2291 3584 
Q 2894 3584 3203 3211 
Q 3513 2838 3513 2113 
z
" id="DejaVuSans-68" transform="scale(0.015625)"/>
       <path d="M 2906 1791 
Q 2906 2416 2648 2759 
Q 2391 3103 1925 3103 
Q 1463 3103 1205 2759 
Q 947 2416 947 1791 
Q 947 1169 1205 825 
Q 1463 481 1925 481 
Q 2391 481 2648 825 
Q 2906 1169 2906 1791 
z
M 3481 434 
Q 3481 -459 3084 -895 
Q 2688 -1331 1869 -1331 
Q 1566 -1331 1297 -1286 
Q 1028 -1241 775 -1147 
L 775 -588 
Q 1028 -725 1275 -790 
Q 1522 -856 1778 -856 
Q 2344 -856 2625 -561 
Q 2906 -266 2906 331 
L 2906 616 
Q 2728 306 2450 153 
Q 2172 0 1784 0 
Q 1141 0 747 490 
Q 353 981 353 1791 
Q 353 2603 747 3093 
Q 1141 3584 1784 3584 
Q 2172 3584 2450 3431 
Q 2728 3278 2906 2969 
L 2906 3500 
L 3481 3500 
L 3481 434 
z
" id="DejaVuSans-67" transform="scale(0.015625)"/>
      </defs>
      <use xlink:href="#DejaVuSans-6d"/>
      <use x="97.412109" xlink:href="#DejaVuSans-65"/>
      <use x="158.935547" xlink:href="#DejaVuSans-64"/>
      <use x="222.412109" xlink:href="#DejaVuSans-2d"/>
      <use x="258.496094" xlink:href="#DejaVuSans-68"/>
      <use x="321.875" xlink:href="#DejaVuSans-69"/>
      <use x="349.658203" xlink:href="#DejaVuSans-67"/>
      <use x="413.134766" xlink:href="#DejaVuSans-68"/>
     </g>
    </g>
    <g id="patch_313">
     <path d="M 330.068438 87.426688 
L 350.068438 87.426688 
L 350.068438 80.426688 
L 330.068438 80.426688 
z
" style="fill:none;stroke:#008000;stroke-linejoin:miter;"/>
    </g>
    <g id="text_20">
     <!-- med-low -->
     <g transform="translate(358.068438 87.426688)scale(0.1 -0.1)">
      <defs>
       <path d="M 269 3500 
L 844 3500 
L 1563 769 
L 2278 3500 
L 2956 3500 
L 3675 769 
L 4391 3500 
L 4966 3500 
L 4050 0 
L 3372 0 
L 2619 2869 
L 1863 0 
L 1184 0 
L 269 3500 
z
" id="DejaVuSans-77" transform="scale(0.015625)"/>
      </defs>
      <use xlink:href="#DejaVuSans-6d"/>
      <use x="97.412109" xlink:href="#DejaVuSans-65"/>
      <use x="158.935547" xlink:href="#DejaVuSans-64"/>
      <use x="222.412109" xlink:href="#DejaVuSans-2d"/>
      <use x="258.496094" xlink:href="#DejaVuSans-6c"/>
      <use x="286.279297" xlink:href="#DejaVuSans-6f"/>
      <use x="347.460938" xlink:href="#DejaVuSans-77"/>
     </g>
    </g>
   </g>
  </g>
 </g>
 <defs>
  <clipPath id="p853ff3b897">
   <rect height="266.112" width="357.12" x="57.6" y="41.472"/>
  </clipPath>
 </defs>
</svg>
