<?xml version="1.0" encoding="utf-8" standalone="no"?>
<!DOCTYPE svg PUBLIC "-//W3C//DTD SVG 1.1//EN"
  "http://www.w3.org/Graphics/SVG/1.1/DTD/svg11.dtd">
<svg height="345.6pt" version="1.1" viewBox="0 0 460.8 345.6" width="460.8pt" xmlns="http://www.w3.org/2000/svg" xmlns:xlink="http://www.w3.org/1999/xlink">
 <metadata>
  <rdf:RDF xmlns:cc="http://creativecommons.org/ns#" xmlns:dc="http://purl.org/dc/elements/1.1/" xmlns:rdf="http://www.w3.org/1999/02/22-rdf-syntax-ns#">
   <cc:Work>
    <dc:type rdf:resource="http://purl.org/dc/dcmitype/StillImage"/>
    <dc:date>2021-09-22T14:17:56.766793</dc:date>
    <dc:format>image/svg+xml</dc:format>
    <dc:creator>
     <cc:Agent>
      <dc:title>Matplotlib v3.4.1, https://matplotlib.org/</dc:title>
     </cc:Agent>
    </dc:creator>
   </cc:Work>
  </rdf:RDF>
 </metadata>
 <defs>
  <style type="text/css">*{stroke-linecap:butt;stroke-linejoin:round;}</style>
 </defs>
 <g id="figure_1">
  <g id="patch_1">
   <path d="M 0 345.6 
L 460.8 345.6 
L 460.8 0 
L 0 0 
z
" style="fill:#ffffff;"/>
  </g>
  <g id="axes_1">
   <g id="patch_2">
    <path d="M 57.6 307.584 
L 414.72 307.584 
L 414.72 41.472 
L 57.6 41.472 
z
" style="fill:#ffffff;"/>
   </g>
   <g id="PolyCollection_1">
    <defs>
     <path d="M 73.832727 -51.052431 
L 73.832727 -50.260377 
L 77.791929 -53.123845 
L 81.751131 -56.23924 
L 85.710333 -59.093657 
L 89.669534 -61.781298 
L 93.628736 -65.596809 
L 97.587938 -69.338982 
L 101.54714 -72.159695 
L 105.506341 -75.072328 
L 109.465543 -77.688631 
L 113.424745 -81.09556 
L 117.383947 -84.5289 
L 121.343149 -87.972195 
L 125.30235 -90.970034 
L 129.261552 -94.223879 
L 133.220754 -97.905017 
L 137.179956 -100.744277 
L 141.139157 -103.676225 
L 145.098359 -106.770494 
L 149.057561 -109.609125 
L 153.016763 -113.281041 
L 156.975965 -117.385004 
L 160.935166 -120.716287 
L 164.894368 -123.628425 
L 168.85357 -126.636249 
L 172.812772 -129.540131 
L 176.771973 -132.955438 
L 180.731175 -135.967457 
L 184.690377 -139.011155 
L 188.649579 -142.069337 
L 192.60878 -144.943188 
L 196.567982 -147.820825 
L 200.527184 -150.934689 
L 204.486386 -154.015129 
L 208.445588 -157.04592 
L 212.404789 -159.763838 
L 216.363991 -163.013861 
L 220.323193 -165.789553 
L 224.282395 -168.752547 
L 228.241596 -171.842164 
L 232.200798 -174.961736 
L 236.16 -178.686315 
L 240.119202 -181.752396 
L 244.078404 -184.595752 
L 248.037605 -187.919966 
L 251.996807 -191.940711 
L 255.956009 -195.963607 
L 259.915211 -200.033742 
L 263.874412 -203.221802 
L 267.833614 -206.143961 
L 271.792816 -209.051713 
L 275.752018 -212.765108 
L 279.71122 -216.657163 
L 283.670421 -220.806295 
L 287.629623 -224.557643 
L 291.588825 -228.658943 
L 295.548027 -231.751933 
L 299.507228 -234.668336 
L 303.46643 -237.918281 
L 307.425632 -241.913531 
L 311.384834 -245.275241 
L 315.344035 -249.250109 
L 319.303237 -252.691095 
L 323.262439 -256.79687 
L 327.221641 -261.022144 
L 331.180843 -265.473279 
L 335.140044 -270.38054 
L 339.099246 -275.410132 
L 343.058448 -280.438579 
L 347.01765 -285.485488 
L 350.976851 -290.146509 
L 354.936053 -290.422309 
L 358.895255 -290.422309 
L 362.854457 -290.422309 
L 366.813659 -290.422309 
L 370.77286 -290.422309 
L 374.732062 -290.422309 
L 378.691264 -290.422309 
L 382.650466 -290.422309 
L 386.609667 -290.422309 
L 390.568869 -290.422309 
L 394.528071 -290.422309 
L 398.487273 -290.422309 
L 398.487273 -290.422309 
L 398.487273 -290.422309 
L 394.528071 -290.422309 
L 390.568869 -290.422309 
L 386.609667 -290.422309 
L 382.650466 -290.422309 
L 378.691264 -290.422309 
L 374.732062 -290.422309 
L 370.77286 -290.422309 
L 366.813659 -290.422309 
L 362.854457 -290.422309 
L 358.895255 -290.422309 
L 354.936053 -290.422309 
L 350.976851 -290.496209 
L 347.01765 -291.745126 
L 343.058448 -286.838383 
L 339.099246 -281.812229 
L 335.140044 -276.78722 
L 331.180843 -271.902348 
L 327.221641 -267.49009 
L 323.262439 -264.022988 
L 319.303237 -261.021896 
L 315.344035 -257.800194 
L 311.384834 -254.627815 
L 307.425632 -251.246078 
L 303.46643 -248.215221 
L 299.507228 -244.863048 
L 295.548027 -240.672584 
L 291.588825 -236.699087 
L 287.629623 -232.663832 
L 283.670421 -229.086223 
L 279.71122 -226.148679 
L 275.752018 -222.772346 
L 271.792816 -219.298114 
L 267.833614 -215.623939 
L 263.874412 -212.226639 
L 259.915211 -209.054861 
L 255.956009 -206.240219 
L 251.996807 -203.721567 
L 248.037605 -201.220954 
L 244.078404 -198.245899 
L 240.119202 -195.153407 
L 236.16 -191.31452 
L 232.200798 -187.972612 
L 228.241596 -184.570826 
L 224.282395 -180.634336 
L 220.323193 -176.450083 
L 216.363991 -173.108216 
L 212.404789 -169.675362 
L 208.445588 -166.255531 
L 204.486386 -161.977555 
L 200.527184 -157.971318 
L 196.567982 -153.715845 
L 192.60878 -149.991365 
L 188.649579 -146.424617 
L 184.690377 -142.880682 
L 180.731175 -138.898272 
L 176.771973 -135.227414 
L 172.812772 -132.181932 
L 168.85357 -128.968256 
L 164.894368 -125.737382 
L 160.935166 -122.148352 
L 156.975965 -119.099606 
L 153.016763 -116.258222 
L 149.057561 -113.489539 
L 145.098359 -110.291371 
L 141.139157 -107.530552 
L 137.179956 -103.961331 
L 133.220754 -100.137903 
L 129.261552 -96.954455 
L 125.30235 -93.787891 
L 121.343149 -90.870071 
L 117.383947 -88.034287 
L 113.424745 -85.188549 
L 109.465543 -81.226141 
L 105.506341 -77.280707 
L 101.54714 -73.510462 
L 97.587938 -70.193426 
L 93.628736 -67.414242 
L 89.669534 -64.506494 
L 85.710333 -60.753537 
L 81.751131 -57.550966 
L 77.791929 -54.003673 
L 73.832727 -51.052431 
z
" id="m6b4042d5d8" style="stroke:#ff0000;stroke-opacity:0.2;"/>
    </defs>
    <g clip-path="url(#p49c7258bc3)">
     <use style="fill:#ff0000;fill-opacity:0.2;stroke:#ff0000;stroke-opacity:0.2;" x="0" xlink:href="#m6b4042d5d8" y="345.6"/>
    </g>
   </g>
   <g id="PolyCollection_2">
    <defs>
     <path d="M 73.832727 -51.686109 
L 73.832727 -50.55039 
L 77.791929 -53.513514 
L 81.751131 -56.718045 
L 85.710333 -59.554975 
L 89.669534 -63.042139 
L 93.628736 -65.969476 
L 97.587938 -68.873914 
L 101.54714 -71.678977 
L 105.506341 -74.437141 
L 109.465543 -77.165998 
L 113.424745 -79.86287 
L 117.383947 -82.705995 
L 121.343149 -85.604241 
L 125.30235 -88.474652 
L 129.261552 -91.946926 
L 133.220754 -94.717857 
L 137.179956 -97.526199 
L 141.139157 -100.367029 
L 145.098359 -103.091788 
L 149.057561 -105.974673 
L 153.016763 -108.746869 
L 156.975965 -111.705677 
L 160.935166 -115.087809 
L 164.894368 -118.473477 
L 168.85357 -121.211729 
L 172.812772 -125.247111 
L 176.771973 -129.317839 
L 180.731175 -132.095027 
L 184.690377 -134.815014 
L 188.649579 -137.628111 
L 192.60878 -140.496512 
L 196.567982 -143.348362 
L 200.527184 -146.795688 
L 204.486386 -150.247934 
L 208.445588 -153.503329 
L 212.404789 -156.990437 
L 216.363991 -160.374459 
L 220.323193 -163.107323 
L 224.282395 -166.409486 
L 228.241596 -170.429221 
L 232.200798 -174.52573 
L 236.16 -178.31141 
L 240.119202 -181.72825 
L 244.078404 -185.088723 
L 248.037605 -188.26597 
L 251.996807 -191.387338 
L 255.956009 -194.412333 
L 259.915211 -197.340178 
L 263.874412 -200.151715 
L 267.833614 -202.995286 
L 271.792816 -206.072772 
L 275.752018 -209.11358 
L 279.71122 -212.134949 
L 283.670421 -214.87368 
L 287.629623 -217.72499 
L 291.588825 -220.798541 
L 295.548027 -223.773401 
L 299.507228 -226.733644 
L 303.46643 -229.531938 
L 307.425632 -232.295922 
L 311.384834 -235.033326 
L 315.344035 -237.796478 
L 319.303237 -240.591585 
L 323.262439 -243.738269 
L 327.221641 -247.39702 
L 331.180843 -250.541393 
L 335.140044 -253.33033 
L 339.099246 -256.012861 
L 343.058448 -258.703341 
L 347.01765 -261.705885 
L 350.976851 -265.135577 
L 354.936053 -268.839697 
L 358.895255 -272.551796 
L 362.854457 -276.26097 
L 366.813659 -279.933164 
L 370.77286 -283.510103 
L 374.732062 -286.642614 
L 378.691264 -288.945918 
L 382.650466 -290.422309 
L 386.609667 -290.422309 
L 390.568869 -290.422309 
L 394.528071 -290.422309 
L 398.487273 -290.422309 
L 398.487273 -290.422309 
L 398.487273 -290.422309 
L 394.528071 -290.422309 
L 390.568869 -290.422309 
L 386.609667 -290.422309 
L 382.650466 -290.422309 
L 378.691264 -290.914439 
L 374.732062 -291.097796 
L 370.77286 -291.035246 
L 366.813659 -291.189987 
L 362.854457 -291.439982 
L 358.895255 -291.726957 
L 354.936053 -292.032 
L 350.976851 -289.906268 
L 347.01765 -285.265022 
L 343.058448 -280.166344 
L 339.099246 -275.028165 
L 335.140044 -269.927465 
L 331.180843 -264.9786 
L 327.221641 -260.794016 
L 323.262439 -256.972386 
L 319.303237 -253.002108 
L 315.344035 -249.815939 
L 311.384834 -247.052088 
L 307.425632 -244.292774 
L 303.46643 -241.514613 
L 299.507228 -237.937927 
L 295.548027 -234.614044 
L 291.588825 -231.456203 
L 287.629623 -228.351625 
L 283.670421 -225.342799 
L 279.71122 -222.569669 
L 275.752018 -219.306912 
L 271.792816 -216.018168 
L 267.833614 -212.796385 
L 263.874412 -209.719249 
L 259.915211 -206.382943 
L 255.956009 -203.268941 
L 251.996807 -199.797815 
L 248.037605 -196.483632 
L 244.078404 -193.195044 
L 240.119202 -190.119967 
L 236.16 -187.131541 
L 232.200798 -184.057681 
L 228.241596 -181.218938 
L 224.282395 -178.136853 
L 220.323193 -174.927753 
L 216.363991 -171.512774 
L 212.404789 -167.855545 
L 208.445588 -164.392259 
L 204.486386 -160.772972 
L 200.527184 -157.183968 
L 196.567982 -154.029177 
L 192.60878 -150.733182 
L 188.649579 -147.51431 
L 184.690377 -144.058423 
L 180.731175 -139.934013 
L 176.771973 -136.411932 
L 172.812772 -133.380841 
L 168.85357 -130.405259 
L 164.894368 -126.601962 
L 160.935166 -123.324943 
L 156.975965 -120.468376 
L 153.016763 -117.657902 
L 149.057561 -114.297396 
L 145.098359 -111.10815 
L 141.139157 -107.791063 
L 137.179956 -105.059463 
L 133.220754 -101.977384 
L 129.261552 -98.630756 
L 125.30235 -95.758334 
L 121.343149 -92.480902 
L 117.383947 -89.397871 
L 113.424745 -86.592854 
L 109.465543 -82.627038 
L 105.506341 -78.435786 
L 101.54714 -74.273839 
L 97.587938 -70.173935 
L 93.628736 -66.491397 
L 89.669534 -63.634311 
L 85.710333 -60.867633 
L 81.751131 -58.056421 
L 77.791929 -55.203964 
L 73.832727 -51.686109 
z
" id="mf7cb500da0" style="stroke:#0000ff;stroke-opacity:0.2;"/>
    </defs>
    <g clip-path="url(#p49c7258bc3)">
     <use style="fill:#0000ff;fill-opacity:0.2;stroke:#0000ff;stroke-opacity:0.2;" x="0" xlink:href="#mf7cb500da0" y="345.6"/>
    </g>
   </g>
   <g id="PolyCollection_3">
    <defs>
     <path d="M 73.832727 -50.25188 
L 73.832727 -50.112 
L 77.791929 -52.551569 
L 81.751131 -55.009904 
L 85.710333 -57.657661 
L 89.669534 -60.0386 
L 93.628736 -62.437518 
L 97.587938 -64.794856 
L 101.54714 -67.223402 
L 105.506341 -69.576711 
L 109.465543 -72.17286 
L 113.424745 -74.904609 
L 117.383947 -77.57611 
L 121.343149 -80.523687 
L 125.30235 -83.391082 
L 129.261552 -85.728871 
L 133.220754 -88.117354 
L 137.179956 -90.580468 
L 141.139157 -93.025446 
L 145.098359 -95.35387 
L 149.057561 -98.259534 
L 153.016763 -100.689118 
L 156.975965 -103.119307 
L 160.935166 -105.921144 
L 164.894368 -109.258311 
L 168.85357 -112.571098 
L 172.812772 -114.934056 
L 176.771973 -117.661207 
L 180.731175 -120.113108 
L 184.690377 -122.310187 
L 188.649579 -124.431145 
L 192.60878 -126.713674 
L 196.567982 -129.423516 
L 200.527184 -131.853435 
L 204.486386 -134.455771 
L 208.445588 -136.582376 
L 212.404789 -138.895843 
L 216.363991 -141.480731 
L 220.323193 -144.664667 
L 224.282395 -146.931373 
L 228.241596 -149.249219 
L 232.200798 -151.928498 
L 236.16 -155.03103 
L 240.119202 -158.331756 
L 244.078404 -160.985244 
L 248.037605 -163.519273 
L 251.996807 -166.023512 
L 255.956009 -168.458882 
L 259.915211 -171.156409 
L 263.874412 -173.808668 
L 267.833614 -176.696739 
L 271.792816 -178.981324 
L 275.752018 -181.710778 
L 279.71122 -184.432766 
L 283.670421 -187.794012 
L 287.629623 -191.075583 
L 291.588825 -193.88496 
L 295.548027 -196.650768 
L 299.507228 -199.412752 
L 303.46643 -201.836236 
L 307.425632 -204.356996 
L 311.384834 -207.216149 
L 315.344035 -209.627071 
L 319.303237 -213.046992 
L 323.262439 -216.167328 
L 327.221641 -219.595049 
L 331.180843 -223.463729 
L 335.140044 -227.677657 
L 339.099246 -232.01518 
L 343.058448 -236.34497 
L 347.01765 -240.679488 
L 350.976851 -245.120818 
L 354.936053 -249.750687 
L 358.895255 -254.464043 
L 362.854457 -259.335618 
L 366.813659 -264.267474 
L 370.77286 -269.22234 
L 374.732062 -274.154656 
L 378.691264 -279.220162 
L 382.650466 -285.253441 
L 386.609667 -290.229249 
L 390.568869 -290.422309 
L 394.528071 -290.422309 
L 398.487273 -290.422309 
L 398.487273 -290.422309 
L 398.487273 -290.422309 
L 394.528071 -290.422309 
L 390.568869 -290.422309 
L 386.609667 -290.474039 
L 382.650466 -290.402356 
L 378.691264 -289.772948 
L 374.732062 -285.147271 
L 370.77286 -280.065365 
L 366.813659 -275.00601 
L 362.854457 -270.004404 
L 358.895255 -265.063658 
L 354.936053 -260.247351 
L 350.976851 -255.549457 
L 347.01765 -251.006254 
L 343.058448 -246.558138 
L 339.099246 -242.105294 
L 335.140044 -237.680373 
L 331.180843 -233.353947 
L 327.221641 -229.67158 
L 323.262439 -227.062502 
L 319.303237 -223.66148 
L 315.344035 -220.479284 
L 311.384834 -217.862905 
L 307.425632 -214.907348 
L 303.46643 -212.340238 
L 299.507228 -209.857561 
L 295.548027 -207.370155 
L 291.588825 -204.826002 
L 287.629623 -202.264849 
L 283.670421 -199.731711 
L 279.71122 -197.237867 
L 275.752018 -194.710465 
L 271.792816 -192.230909 
L 267.833614 -189.286294 
L 263.874412 -186.541365 
L 259.915211 -184.045183 
L 255.956009 -181.55389 
L 251.996807 -179.103289 
L 248.037605 -176.358137 
L 244.078404 -173.925435 
L 240.119202 -171.470862 
L 236.16 -168.95688 
L 232.200798 -166.406222 
L 228.241596 -163.068891 
L 224.282395 -159.592218 
L 220.323193 -156.367254 
L 216.363991 -153.898001 
L 212.404789 -151.475778 
L 208.445588 -148.761945 
L 204.486386 -145.3565 
L 200.527184 -142.648875 
L 196.567982 -140.253394 
L 192.60878 -137.875364 
L 188.649579 -135.009453 
L 184.690377 -131.578171 
L 180.731175 -128.18263 
L 176.771973 -125.78894 
L 172.812772 -122.963851 
L 168.85357 -119.5121 
L 164.894368 -116.808278 
L 160.935166 -114.007697 
L 156.975965 -111.237104 
L 153.016763 -107.973723 
L 149.057561 -105.436576 
L 145.098359 -102.790001 
L 141.139157 -100.070933 
L 137.179956 -97.448231 
L 133.220754 -94.863854 
L 129.261552 -92.325986 
L 125.30235 -89.697045 
L 121.343149 -86.91125 
L 117.383947 -84.185448 
L 113.424745 -81.769078 
L 109.465543 -78.383268 
L 105.506341 -74.599388 
L 101.54714 -71.360078 
L 97.587938 -68.882463 
L 93.628736 -66.212501 
L 89.669534 -63.664877 
L 85.710333 -60.089777 
L 81.751131 -56.478646 
L 77.791929 -53.425121 
L 73.832727 -50.25188 
z
" id="m3b34f4df4e" style="stroke:#008000;stroke-opacity:0.2;"/>
    </defs>
    <g clip-path="url(#p49c7258bc3)">
     <use style="fill:#008000;fill-opacity:0.2;stroke:#008000;stroke-opacity:0.2;" x="0" xlink:href="#m3b34f4df4e" y="345.6"/>
    </g>
   </g>
   <g id="PolyCollection_4">
    <defs>
     <path d="M 73.832727 -51.314226 
L 73.832727 -50.261052 
L 77.791929 -53.298667 
L 81.751131 -55.843282 
L 85.710333 -58.751079 
L 89.669534 -61.164649 
L 93.628736 -63.443498 
L 97.587938 -65.791712 
L 101.54714 -68.001219 
L 105.506341 -70.675032 
L 109.465543 -72.943806 
L 113.424745 -75.24912 
L 117.383947 -77.702242 
L 121.343149 -80.757991 
L 125.30235 -83.912233 
L 129.261552 -87.538719 
L 133.220754 -90.510597 
L 137.179956 -93.675958 
L 141.139157 -96.756193 
L 145.098359 -99.769751 
L 149.057561 -103.123061 
L 153.016763 -106.65851 
L 156.975965 -110.321875 
L 160.935166 -114.060937 
L 164.894368 -117.791248 
L 168.85357 -121.189201 
L 172.812772 -124.590812 
L 176.771973 -127.897473 
L 180.731175 -131.228027 
L 184.690377 -134.492507 
L 188.649579 -137.185764 
L 192.60878 -139.556318 
L 196.567982 -142.201202 
L 200.527184 -144.712456 
L 204.486386 -146.993603 
L 208.445588 -149.735577 
L 212.404789 -152.823963 
L 216.363991 -155.88839 
L 220.323193 -158.738052 
L 224.282395 -161.456137 
L 228.241596 -164.032967 
L 232.200798 -166.642158 
L 236.16 -169.202004 
L 240.119202 -171.801016 
L 244.078404 -174.392376 
L 248.037605 -177.769214 
L 251.996807 -180.332633 
L 255.956009 -182.893731 
L 259.915211 -185.659498 
L 263.874412 -188.286789 
L 267.833614 -190.907331 
L 271.792816 -193.534507 
L 275.752018 -196.049426 
L 279.71122 -198.546505 
L 283.670421 -200.85915 
L 287.629623 -203.185469 
L 291.588825 -205.600722 
L 295.548027 -208.17668 
L 299.507228 -210.854153 
L 303.46643 -213.496085 
L 307.425632 -216.072179 
L 311.384834 -218.45967 
L 315.344035 -220.93066 
L 319.303237 -224.008528 
L 323.262439 -227.335934 
L 327.221641 -230.627331 
L 331.180843 -233.478717 
L 335.140044 -235.946078 
L 339.099246 -239.207833 
L 343.058448 -242.697191 
L 347.01765 -245.237713 
L 350.976851 -247.777463 
L 354.936053 -250.346732 
L 358.895255 -253.25878 
L 362.854457 -256.018686 
L 366.813659 -258.909255 
L 370.77286 -262.187027 
L 374.732062 -265.094464 
L 378.691264 -267.775308 
L 382.650466 -270.363919 
L 386.609667 -273.017293 
L 390.568869 -275.897037 
L 394.528071 -279.467717 
L 398.487273 -283.44547 
L 398.487273 -289.949051 
L 398.487273 -289.949051 
L 394.528071 -289.747482 
L 390.568869 -288.068772 
L 386.609667 -285.557796 
L 382.650466 -283.022349 
L 378.691264 -280.13948 
L 374.732062 -276.521056 
L 370.77286 -272.866754 
L 366.813659 -269.21937 
L 362.854457 -265.62896 
L 358.895255 -262.796246 
L 354.936053 -260.196434 
L 350.976851 -257.597073 
L 347.01765 -255.028763 
L 343.058448 -252.461224 
L 339.099246 -249.732073 
L 335.140044 -246.71475 
L 331.180843 -243.347211 
L 327.221641 -240.767498 
L 323.262439 -238.082666 
L 319.303237 -235.474223 
L 315.344035 -232.858521 
L 311.384834 -229.99936 
L 307.425632 -226.753852 
L 303.46643 -224.120936 
L 299.507228 -221.513478 
L 295.548027 -218.96175 
L 291.588825 -216.247937 
L 287.629623 -212.989811 
L 283.670421 -209.501421 
L 279.71122 -206.019546 
L 275.752018 -202.479826 
L 271.792816 -199.624216 
L 267.833614 -197.022191 
L 263.874412 -194.393343 
L 259.915211 -191.791433 
L 255.956009 -189.10591 
L 251.996807 -186.498378 
L 248.037605 -183.893166 
L 244.078404 -181.414915 
L 240.119202 -178.837645 
L 236.16 -176.207456 
L 232.200798 -173.639051 
L 228.241596 -171.059422 
L 224.282395 -168.487812 
L 220.323193 -165.794986 
L 216.363991 -162.971269 
L 212.404789 -160.140227 
L 208.445588 -157.272574 
L 204.486386 -153.695089 
L 200.527184 -150.222097 
L 196.567982 -147.342631 
L 192.60878 -144.899644 
L 188.649579 -141.354539 
L 184.690377 -138.394606 
L 180.731175 -135.783807 
L 176.771973 -133.239082 
L 172.812772 -130.771414 
L 168.85357 -128.358315 
L 164.894368 -125.961749 
L 160.935166 -123.130322 
L 156.975965 -120.408596 
L 153.016763 -117.671742 
L 149.057561 -115.130013 
L 145.098359 -112.446524 
L 141.139157 -109.524233 
L 137.179956 -106.648429 
L 133.220754 -103.857751 
L 129.261552 -100.87359 
L 125.30235 -97.231688 
L 121.343149 -93.682863 
L 117.383947 -90.378774 
L 113.424745 -86.875857 
L 109.465543 -83.326081 
L 105.506341 -79.780146 
L 101.54714 -76.094121 
L 97.587938 -72.569678 
L 93.628736 -69.062804 
L 89.669534 -65.526943 
L 85.710333 -61.944094 
L 81.751131 -58.310343 
L 77.791929 -54.777779 
L 73.832727 -51.314226 
z
" id="m88e7a3166a" style="stroke:#ffa500;stroke-opacity:0.2;"/>
    </defs>
    <g clip-path="url(#p49c7258bc3)">
     <use style="fill:#ffa500;fill-opacity:0.2;stroke:#ffa500;stroke-opacity:0.2;" x="0" xlink:href="#m88e7a3166a" y="345.6"/>
    </g>
   </g>
   <g id="PolyCollection_5">
    <defs>
     <path d="M 73.832727 -52.092291 
L 73.832727 -50.815525 
L 77.791929 -54.120894 
L 81.751131 -56.859192 
L 85.710333 -59.665978 
L 89.669534 -62.502316 
L 93.628736 -65.368746 
L 97.587938 -68.287733 
L 101.54714 -71.28492 
L 105.506341 -74.243434 
L 109.465543 -77.192389 
L 113.424745 -80.11649 
L 117.383947 -83.025937 
L 121.343149 -85.919264 
L 125.30235 -88.786023 
L 129.261552 -91.610929 
L 133.220754 -94.397869 
L 137.179956 -97.802067 
L 141.139157 -100.930223 
L 145.098359 -103.98245 
L 149.057561 -106.872963 
L 153.016763 -110.166883 
L 156.975965 -113.759372 
L 160.935166 -116.690942 
L 164.894368 -119.65897 
L 168.85357 -122.60302 
L 172.812772 -125.723381 
L 176.771973 -128.769201 
L 180.731175 -132.884125 
L 184.690377 -136.908972 
L 188.649579 -140.99161 
L 192.60878 -145.175716 
L 196.567982 -149.11321 
L 200.527184 -152.069397 
L 204.486386 -155.01069 
L 208.445588 -157.922663 
L 212.404789 -160.828149 
L 216.363991 -163.660831 
L 220.323193 -166.520774 
L 224.282395 -169.358682 
L 228.241596 -172.189356 
L 232.200798 -175.294495 
L 236.16 -179.13629 
L 240.119202 -181.990984 
L 244.078404 -184.636565 
L 248.037605 -187.313117 
L 251.996807 -189.9548 
L 255.956009 -192.596162 
L 259.915211 -195.615599 
L 263.874412 -199.396669 
L 267.833614 -202.962631 
L 271.792816 -206.462138 
L 275.752018 -210.1102 
L 279.71122 -213.620436 
L 283.670421 -217.164167 
L 287.629623 -220.724453 
L 291.588825 -223.91183 
L 295.548027 -226.842703 
L 299.507228 -229.653285 
L 303.46643 -232.240804 
L 307.425632 -234.957273 
L 311.384834 -237.75387 
L 315.344035 -241.14338 
L 319.303237 -244.941498 
L 323.262439 -248.725897 
L 327.221641 -251.675707 
L 331.180843 -254.573156 
L 335.140044 -257.362104 
L 339.099246 -260.240317 
L 343.058448 -263.309966 
L 347.01765 -266.25736 
L 350.976851 -269.188984 
L 354.936053 -272.547257 
L 358.895255 -276.473205 
L 362.854457 -280.120277 
L 366.813659 -283.71624 
L 370.77286 -287.03361 
L 374.732062 -289.705229 
L 378.691264 -290.422309 
L 382.650466 -290.422309 
L 386.609667 -290.422309 
L 390.568869 -290.422309 
L 394.528071 -290.422309 
L 398.487273 -290.422309 
L 398.487273 -290.422309 
L 398.487273 -290.422309 
L 394.528071 -290.422309 
L 390.568869 -290.422309 
L 386.609667 -290.422309 
L 382.650466 -290.422309 
L 378.691264 -290.422309 
L 374.732062 -290.61445 
L 370.77286 -290.580614 
L 366.813659 -290.102271 
L 362.854457 -289.78138 
L 358.895255 -289.49141 
L 354.936053 -289.217846 
L 350.976851 -287.871857 
L 347.01765 -284.988772 
L 343.058448 -282.020507 
L 339.099246 -279.214876 
L 335.140044 -275.975531 
L 331.180843 -272.465211 
L 327.221641 -269.60852 
L 323.262439 -266.804191 
L 319.303237 -263.865332 
L 315.344035 -260.960382 
L 311.384834 -258.030434 
L 307.425632 -255.072891 
L 303.46643 -252.075601 
L 299.507228 -248.121572 
L 295.548027 -244.592505 
L 291.588825 -241.62791 
L 287.629623 -238.697728 
L 283.670421 -235.696276 
L 279.71122 -232.597509 
L 275.752018 -228.839359 
L 271.792816 -224.895994 
L 267.833614 -221.066544 
L 263.874412 -217.30355 
L 259.915211 -214.179653 
L 255.956009 -210.314313 
L 251.996807 -206.373747 
L 248.037605 -202.453691 
L 244.078404 -198.528125 
L 240.119202 -194.632158 
L 236.16 -190.803975 
L 232.200798 -187.256243 
L 228.241596 -183.537175 
L 224.282395 -180.57333 
L 220.323193 -177.07159 
L 216.363991 -173.389984 
L 212.404789 -170.266627 
L 208.445588 -165.903727 
L 204.486386 -161.506934 
L 200.527184 -157.11927 
L 196.567982 -152.72631 
L 192.60878 -148.628199 
L 188.649579 -144.55461 
L 184.690377 -140.803542 
L 180.731175 -137.681143 
L 176.771973 -134.406541 
L 172.812772 -130.708912 
L 168.85357 -127.106016 
L 164.894368 -124.194977 
L 160.935166 -121.307915 
L 156.975965 -118.041167 
L 153.016763 -114.688308 
L 149.057561 -111.6022 
L 145.098359 -107.910786 
L 141.139157 -104.320514 
L 137.179956 -100.907123 
L 133.220754 -97.789963 
L 129.261552 -94.863143 
L 125.30235 -91.93391 
L 121.343149 -89.00615 
L 117.383947 -86.084767 
L 113.424745 -83.139124 
L 109.465543 -80.208137 
L 105.506341 -77.382762 
L 101.54714 -74.587136 
L 97.587938 -71.789804 
L 93.628736 -68.793132 
L 89.669534 -65.986182 
L 85.710333 -63.149141 
L 81.751131 -60.161408 
L 77.791929 -56.358157 
L 73.832727 -52.092291 
z
" id="mbcbd98e91f" style="stroke:#808000;stroke-opacity:0.2;"/>
    </defs>
    <g clip-path="url(#p49c7258bc3)">
     <use style="fill:#808000;fill-opacity:0.2;stroke:#808000;stroke-opacity:0.2;" x="0" xlink:href="#mbcbd98e91f" y="345.6"/>
    </g>
   </g>
   <g id="matplotlib.axis_1">
    <g id="xtick_1">
     <g id="line2d_1">
      <defs>
       <path d="M 0 0 
L 0 3.5 
" id="m5c85e883d3" style="stroke:#000000;stroke-width:0.8;"/>
      </defs>
      <g>
       <use style="stroke:#000000;stroke-width:0.8;" x="73.832727" xlink:href="#m5c85e883d3" y="307.584"/>
      </g>
     </g>
     <g id="text_1">
      <!-- 0 -->
      <g transform="translate(70.651477 322.182437)scale(0.1 -0.1)">
       <defs>
        <path d="M 2034 4250 
Q 1547 4250 1301 3770 
Q 1056 3291 1056 2328 
Q 1056 1369 1301 889 
Q 1547 409 2034 409 
Q 2525 409 2770 889 
Q 3016 1369 3016 2328 
Q 3016 3291 2770 3770 
Q 2525 4250 2034 4250 
z
M 2034 4750 
Q 2819 4750 3233 4129 
Q 3647 3509 3647 2328 
Q 3647 1150 3233 529 
Q 2819 -91 2034 -91 
Q 1250 -91 836 529 
Q 422 1150 422 2328 
Q 422 3509 836 4129 
Q 1250 4750 2034 4750 
z
" id="DejaVuSans-30" transform="scale(0.015625)"/>
       </defs>
       <use xlink:href="#DejaVuSans-30"/>
      </g>
     </g>
    </g>
    <g id="xtick_2">
     <g id="line2d_2">
      <g>
       <use style="stroke:#000000;stroke-width:0.8;" x="153.016763" xlink:href="#m5c85e883d3" y="307.584"/>
      </g>
     </g>
     <g id="text_2">
      <!-- 20 -->
      <g transform="translate(146.654263 322.182437)scale(0.1 -0.1)">
       <defs>
        <path d="M 1228 531 
L 3431 531 
L 3431 0 
L 469 0 
L 469 531 
Q 828 903 1448 1529 
Q 2069 2156 2228 2338 
Q 2531 2678 2651 2914 
Q 2772 3150 2772 3378 
Q 2772 3750 2511 3984 
Q 2250 4219 1831 4219 
Q 1534 4219 1204 4116 
Q 875 4013 500 3803 
L 500 4441 
Q 881 4594 1212 4672 
Q 1544 4750 1819 4750 
Q 2544 4750 2975 4387 
Q 3406 4025 3406 3419 
Q 3406 3131 3298 2873 
Q 3191 2616 2906 2266 
Q 2828 2175 2409 1742 
Q 1991 1309 1228 531 
z
" id="DejaVuSans-32" transform="scale(0.015625)"/>
       </defs>
       <use xlink:href="#DejaVuSans-32"/>
       <use x="63.623047" xlink:href="#DejaVuSans-30"/>
      </g>
     </g>
    </g>
    <g id="xtick_3">
     <g id="line2d_3">
      <g>
       <use style="stroke:#000000;stroke-width:0.8;" x="232.200798" xlink:href="#m5c85e883d3" y="307.584"/>
      </g>
     </g>
     <g id="text_3">
      <!-- 40 -->
      <g transform="translate(225.838298 322.182437)scale(0.1 -0.1)">
       <defs>
        <path d="M 2419 4116 
L 825 1625 
L 2419 1625 
L 2419 4116 
z
M 2253 4666 
L 3047 4666 
L 3047 1625 
L 3713 1625 
L 3713 1100 
L 3047 1100 
L 3047 0 
L 2419 0 
L 2419 1100 
L 313 1100 
L 313 1709 
L 2253 4666 
z
" id="DejaVuSans-34" transform="scale(0.015625)"/>
       </defs>
       <use xlink:href="#DejaVuSans-34"/>
       <use x="63.623047" xlink:href="#DejaVuSans-30"/>
      </g>
     </g>
    </g>
    <g id="xtick_4">
     <g id="line2d_4">
      <g>
       <use style="stroke:#000000;stroke-width:0.8;" x="311.384834" xlink:href="#m5c85e883d3" y="307.584"/>
      </g>
     </g>
     <g id="text_4">
      <!-- 60 -->
      <g transform="translate(305.022334 322.182437)scale(0.1 -0.1)">
       <defs>
        <path d="M 2113 2584 
Q 1688 2584 1439 2293 
Q 1191 2003 1191 1497 
Q 1191 994 1439 701 
Q 1688 409 2113 409 
Q 2538 409 2786 701 
Q 3034 994 3034 1497 
Q 3034 2003 2786 2293 
Q 2538 2584 2113 2584 
z
M 3366 4563 
L 3366 3988 
Q 3128 4100 2886 4159 
Q 2644 4219 2406 4219 
Q 1781 4219 1451 3797 
Q 1122 3375 1075 2522 
Q 1259 2794 1537 2939 
Q 1816 3084 2150 3084 
Q 2853 3084 3261 2657 
Q 3669 2231 3669 1497 
Q 3669 778 3244 343 
Q 2819 -91 2113 -91 
Q 1303 -91 875 529 
Q 447 1150 447 2328 
Q 447 3434 972 4092 
Q 1497 4750 2381 4750 
Q 2619 4750 2861 4703 
Q 3103 4656 3366 4563 
z
" id="DejaVuSans-36" transform="scale(0.015625)"/>
       </defs>
       <use xlink:href="#DejaVuSans-36"/>
       <use x="63.623047" xlink:href="#DejaVuSans-30"/>
      </g>
     </g>
    </g>
    <g id="xtick_5">
     <g id="line2d_5">
      <g>
       <use style="stroke:#000000;stroke-width:0.8;" x="390.568869" xlink:href="#m5c85e883d3" y="307.584"/>
      </g>
     </g>
     <g id="text_5">
      <!-- 80 -->
      <g transform="translate(384.206369 322.182437)scale(0.1 -0.1)">
       <defs>
        <path d="M 2034 2216 
Q 1584 2216 1326 1975 
Q 1069 1734 1069 1313 
Q 1069 891 1326 650 
Q 1584 409 2034 409 
Q 2484 409 2743 651 
Q 3003 894 3003 1313 
Q 3003 1734 2745 1975 
Q 2488 2216 2034 2216 
z
M 1403 2484 
Q 997 2584 770 2862 
Q 544 3141 544 3541 
Q 544 4100 942 4425 
Q 1341 4750 2034 4750 
Q 2731 4750 3128 4425 
Q 3525 4100 3525 3541 
Q 3525 3141 3298 2862 
Q 3072 2584 2669 2484 
Q 3125 2378 3379 2068 
Q 3634 1759 3634 1313 
Q 3634 634 3220 271 
Q 2806 -91 2034 -91 
Q 1263 -91 848 271 
Q 434 634 434 1313 
Q 434 1759 690 2068 
Q 947 2378 1403 2484 
z
M 1172 3481 
Q 1172 3119 1398 2916 
Q 1625 2713 2034 2713 
Q 2441 2713 2670 2916 
Q 2900 3119 2900 3481 
Q 2900 3844 2670 4047 
Q 2441 4250 2034 4250 
Q 1625 4250 1398 4047 
Q 1172 3844 1172 3481 
z
" id="DejaVuSans-38" transform="scale(0.015625)"/>
       </defs>
       <use xlink:href="#DejaVuSans-38"/>
       <use x="63.623047" xlink:href="#DejaVuSans-30"/>
      </g>
     </g>
    </g>
    <g id="text_6">
     <!-- Time (minutes) -->
     <g transform="translate(198.1975 335.860562)scale(0.1 -0.1)">
      <defs>
       <path d="M -19 4666 
L 3928 4666 
L 3928 4134 
L 2272 4134 
L 2272 0 
L 1638 0 
L 1638 4134 
L -19 4134 
L -19 4666 
z
" id="DejaVuSans-54" transform="scale(0.015625)"/>
       <path d="M 603 3500 
L 1178 3500 
L 1178 0 
L 603 0 
L 603 3500 
z
M 603 4863 
L 1178 4863 
L 1178 4134 
L 603 4134 
L 603 4863 
z
" id="DejaVuSans-69" transform="scale(0.015625)"/>
       <path d="M 3328 2828 
Q 3544 3216 3844 3400 
Q 4144 3584 4550 3584 
Q 5097 3584 5394 3201 
Q 5691 2819 5691 2113 
L 5691 0 
L 5113 0 
L 5113 2094 
Q 5113 2597 4934 2840 
Q 4756 3084 4391 3084 
Q 3944 3084 3684 2787 
Q 3425 2491 3425 1978 
L 3425 0 
L 2847 0 
L 2847 2094 
Q 2847 2600 2669 2842 
Q 2491 3084 2119 3084 
Q 1678 3084 1418 2786 
Q 1159 2488 1159 1978 
L 1159 0 
L 581 0 
L 581 3500 
L 1159 3500 
L 1159 2956 
Q 1356 3278 1631 3431 
Q 1906 3584 2284 3584 
Q 2666 3584 2933 3390 
Q 3200 3197 3328 2828 
z
" id="DejaVuSans-6d" transform="scale(0.015625)"/>
       <path d="M 3597 1894 
L 3597 1613 
L 953 1613 
Q 991 1019 1311 708 
Q 1631 397 2203 397 
Q 2534 397 2845 478 
Q 3156 559 3463 722 
L 3463 178 
Q 3153 47 2828 -22 
Q 2503 -91 2169 -91 
Q 1331 -91 842 396 
Q 353 884 353 1716 
Q 353 2575 817 3079 
Q 1281 3584 2069 3584 
Q 2775 3584 3186 3129 
Q 3597 2675 3597 1894 
z
M 3022 2063 
Q 3016 2534 2758 2815 
Q 2500 3097 2075 3097 
Q 1594 3097 1305 2825 
Q 1016 2553 972 2059 
L 3022 2063 
z
" id="DejaVuSans-65" transform="scale(0.015625)"/>
       <path id="DejaVuSans-20" transform="scale(0.015625)"/>
       <path d="M 1984 4856 
Q 1566 4138 1362 3434 
Q 1159 2731 1159 2009 
Q 1159 1288 1364 580 
Q 1569 -128 1984 -844 
L 1484 -844 
Q 1016 -109 783 600 
Q 550 1309 550 2009 
Q 550 2706 781 3412 
Q 1013 4119 1484 4856 
L 1984 4856 
z
" id="DejaVuSans-28" transform="scale(0.015625)"/>
       <path d="M 3513 2113 
L 3513 0 
L 2938 0 
L 2938 2094 
Q 2938 2591 2744 2837 
Q 2550 3084 2163 3084 
Q 1697 3084 1428 2787 
Q 1159 2491 1159 1978 
L 1159 0 
L 581 0 
L 581 3500 
L 1159 3500 
L 1159 2956 
Q 1366 3272 1645 3428 
Q 1925 3584 2291 3584 
Q 2894 3584 3203 3211 
Q 3513 2838 3513 2113 
z
" id="DejaVuSans-6e" transform="scale(0.015625)"/>
       <path d="M 544 1381 
L 544 3500 
L 1119 3500 
L 1119 1403 
Q 1119 906 1312 657 
Q 1506 409 1894 409 
Q 2359 409 2629 706 
Q 2900 1003 2900 1516 
L 2900 3500 
L 3475 3500 
L 3475 0 
L 2900 0 
L 2900 538 
Q 2691 219 2414 64 
Q 2138 -91 1772 -91 
Q 1169 -91 856 284 
Q 544 659 544 1381 
z
M 1991 3584 
L 1991 3584 
z
" id="DejaVuSans-75" transform="scale(0.015625)"/>
       <path d="M 1172 4494 
L 1172 3500 
L 2356 3500 
L 2356 3053 
L 1172 3053 
L 1172 1153 
Q 1172 725 1289 603 
Q 1406 481 1766 481 
L 2356 481 
L 2356 0 
L 1766 0 
Q 1100 0 847 248 
Q 594 497 594 1153 
L 594 3053 
L 172 3053 
L 172 3500 
L 594 3500 
L 594 4494 
L 1172 4494 
z
" id="DejaVuSans-74" transform="scale(0.015625)"/>
       <path d="M 2834 3397 
L 2834 2853 
Q 2591 2978 2328 3040 
Q 2066 3103 1784 3103 
Q 1356 3103 1142 2972 
Q 928 2841 928 2578 
Q 928 2378 1081 2264 
Q 1234 2150 1697 2047 
L 1894 2003 
Q 2506 1872 2764 1633 
Q 3022 1394 3022 966 
Q 3022 478 2636 193 
Q 2250 -91 1575 -91 
Q 1294 -91 989 -36 
Q 684 19 347 128 
L 347 722 
Q 666 556 975 473 
Q 1284 391 1588 391 
Q 1994 391 2212 530 
Q 2431 669 2431 922 
Q 2431 1156 2273 1281 
Q 2116 1406 1581 1522 
L 1381 1569 
Q 847 1681 609 1914 
Q 372 2147 372 2553 
Q 372 3047 722 3315 
Q 1072 3584 1716 3584 
Q 2034 3584 2315 3537 
Q 2597 3491 2834 3397 
z
" id="DejaVuSans-73" transform="scale(0.015625)"/>
       <path d="M 513 4856 
L 1013 4856 
Q 1481 4119 1714 3412 
Q 1947 2706 1947 2009 
Q 1947 1309 1714 600 
Q 1481 -109 1013 -844 
L 513 -844 
Q 928 -128 1133 580 
Q 1338 1288 1338 2009 
Q 1338 2731 1133 3434 
Q 928 4138 513 4856 
z
" id="DejaVuSans-29" transform="scale(0.015625)"/>
      </defs>
      <use xlink:href="#DejaVuSans-54"/>
      <use x="57.958984" xlink:href="#DejaVuSans-69"/>
      <use x="85.742188" xlink:href="#DejaVuSans-6d"/>
      <use x="183.154297" xlink:href="#DejaVuSans-65"/>
      <use x="244.677734" xlink:href="#DejaVuSans-20"/>
      <use x="276.464844" xlink:href="#DejaVuSans-28"/>
      <use x="315.478516" xlink:href="#DejaVuSans-6d"/>
      <use x="412.890625" xlink:href="#DejaVuSans-69"/>
      <use x="440.673828" xlink:href="#DejaVuSans-6e"/>
      <use x="504.052734" xlink:href="#DejaVuSans-75"/>
      <use x="567.431641" xlink:href="#DejaVuSans-74"/>
      <use x="606.640625" xlink:href="#DejaVuSans-65"/>
      <use x="668.164062" xlink:href="#DejaVuSans-73"/>
      <use x="720.263672" xlink:href="#DejaVuSans-29"/>
     </g>
    </g>
   </g>
   <g id="matplotlib.axis_2">
    <g id="ytick_1">
     <g id="line2d_6">
      <defs>
       <path d="M 0 0 
L -3.5 0 
" id="m468bfd2347" style="stroke:#000000;stroke-width:0.8;"/>
      </defs>
      <g>
       <use style="stroke:#000000;stroke-width:0.8;" x="57.6" xlink:href="#m468bfd2347" y="297.457246"/>
      </g>
     </g>
     <g id="text_7">
      <!-- 0 -->
      <g transform="translate(44.2375 301.256465)scale(0.1 -0.1)">
       <use xlink:href="#DejaVuSans-30"/>
      </g>
     </g>
    </g>
    <g id="ytick_2">
     <g id="line2d_7">
      <g>
       <use style="stroke:#000000;stroke-width:0.8;" x="57.6" xlink:href="#m468bfd2347" y="267.172302"/>
      </g>
     </g>
     <g id="text_8">
      <!-- 1000 -->
      <g transform="translate(25.15 270.971521)scale(0.1 -0.1)">
       <defs>
        <path d="M 794 531 
L 1825 531 
L 1825 4091 
L 703 3866 
L 703 4441 
L 1819 4666 
L 2450 4666 
L 2450 531 
L 3481 531 
L 3481 0 
L 794 0 
L 794 531 
z
" id="DejaVuSans-31" transform="scale(0.015625)"/>
       </defs>
       <use xlink:href="#DejaVuSans-31"/>
       <use x="63.623047" xlink:href="#DejaVuSans-30"/>
       <use x="127.246094" xlink:href="#DejaVuSans-30"/>
       <use x="190.869141" xlink:href="#DejaVuSans-30"/>
      </g>
     </g>
    </g>
    <g id="ytick_3">
     <g id="line2d_8">
      <g>
       <use style="stroke:#000000;stroke-width:0.8;" x="57.6" xlink:href="#m468bfd2347" y="236.887357"/>
      </g>
     </g>
     <g id="text_9">
      <!-- 2000 -->
      <g transform="translate(25.15 240.686576)scale(0.1 -0.1)">
       <use xlink:href="#DejaVuSans-32"/>
       <use x="63.623047" xlink:href="#DejaVuSans-30"/>
       <use x="127.246094" xlink:href="#DejaVuSans-30"/>
       <use x="190.869141" xlink:href="#DejaVuSans-30"/>
      </g>
     </g>
    </g>
    <g id="ytick_4">
     <g id="line2d_9">
      <g>
       <use style="stroke:#000000;stroke-width:0.8;" x="57.6" xlink:href="#m468bfd2347" y="206.602413"/>
      </g>
     </g>
     <g id="text_10">
      <!-- 3000 -->
      <g transform="translate(25.15 210.401632)scale(0.1 -0.1)">
       <defs>
        <path d="M 2597 2516 
Q 3050 2419 3304 2112 
Q 3559 1806 3559 1356 
Q 3559 666 3084 287 
Q 2609 -91 1734 -91 
Q 1441 -91 1130 -33 
Q 819 25 488 141 
L 488 750 
Q 750 597 1062 519 
Q 1375 441 1716 441 
Q 2309 441 2620 675 
Q 2931 909 2931 1356 
Q 2931 1769 2642 2001 
Q 2353 2234 1838 2234 
L 1294 2234 
L 1294 2753 
L 1863 2753 
Q 2328 2753 2575 2939 
Q 2822 3125 2822 3475 
Q 2822 3834 2567 4026 
Q 2313 4219 1838 4219 
Q 1578 4219 1281 4162 
Q 984 4106 628 3988 
L 628 4550 
Q 988 4650 1302 4700 
Q 1616 4750 1894 4750 
Q 2613 4750 3031 4423 
Q 3450 4097 3450 3541 
Q 3450 3153 3228 2886 
Q 3006 2619 2597 2516 
z
" id="DejaVuSans-33" transform="scale(0.015625)"/>
       </defs>
       <use xlink:href="#DejaVuSans-33"/>
       <use x="63.623047" xlink:href="#DejaVuSans-30"/>
       <use x="127.246094" xlink:href="#DejaVuSans-30"/>
       <use x="190.869141" xlink:href="#DejaVuSans-30"/>
      </g>
     </g>
    </g>
    <g id="ytick_5">
     <g id="line2d_10">
      <g>
       <use style="stroke:#000000;stroke-width:0.8;" x="57.6" xlink:href="#m468bfd2347" y="176.317469"/>
      </g>
     </g>
     <g id="text_11">
      <!-- 4000 -->
      <g transform="translate(25.15 180.116687)scale(0.1 -0.1)">
       <use xlink:href="#DejaVuSans-34"/>
       <use x="63.623047" xlink:href="#DejaVuSans-30"/>
       <use x="127.246094" xlink:href="#DejaVuSans-30"/>
       <use x="190.869141" xlink:href="#DejaVuSans-30"/>
      </g>
     </g>
    </g>
    <g id="ytick_6">
     <g id="line2d_11">
      <g>
       <use style="stroke:#000000;stroke-width:0.8;" x="57.6" xlink:href="#m468bfd2347" y="146.032524"/>
      </g>
     </g>
     <g id="text_12">
      <!-- 5000 -->
      <g transform="translate(25.15 149.831743)scale(0.1 -0.1)">
       <defs>
        <path d="M 691 4666 
L 3169 4666 
L 3169 4134 
L 1269 4134 
L 1269 2991 
Q 1406 3038 1543 3061 
Q 1681 3084 1819 3084 
Q 2600 3084 3056 2656 
Q 3513 2228 3513 1497 
Q 3513 744 3044 326 
Q 2575 -91 1722 -91 
Q 1428 -91 1123 -41 
Q 819 9 494 109 
L 494 744 
Q 775 591 1075 516 
Q 1375 441 1709 441 
Q 2250 441 2565 725 
Q 2881 1009 2881 1497 
Q 2881 1984 2565 2268 
Q 2250 2553 1709 2553 
Q 1456 2553 1204 2497 
Q 953 2441 691 2322 
L 691 4666 
z
" id="DejaVuSans-35" transform="scale(0.015625)"/>
       </defs>
       <use xlink:href="#DejaVuSans-35"/>
       <use x="63.623047" xlink:href="#DejaVuSans-30"/>
       <use x="127.246094" xlink:href="#DejaVuSans-30"/>
       <use x="190.869141" xlink:href="#DejaVuSans-30"/>
      </g>
     </g>
    </g>
    <g id="ytick_7">
     <g id="line2d_12">
      <g>
       <use style="stroke:#000000;stroke-width:0.8;" x="57.6" xlink:href="#m468bfd2347" y="115.74758"/>
      </g>
     </g>
     <g id="text_13">
      <!-- 6000 -->
      <g transform="translate(25.15 119.546799)scale(0.1 -0.1)">
       <use xlink:href="#DejaVuSans-36"/>
       <use x="63.623047" xlink:href="#DejaVuSans-30"/>
       <use x="127.246094" xlink:href="#DejaVuSans-30"/>
       <use x="190.869141" xlink:href="#DejaVuSans-30"/>
      </g>
     </g>
    </g>
    <g id="ytick_8">
     <g id="line2d_13">
      <g>
       <use style="stroke:#000000;stroke-width:0.8;" x="57.6" xlink:href="#m468bfd2347" y="85.462636"/>
      </g>
     </g>
     <g id="text_14">
      <!-- 7000 -->
      <g transform="translate(25.15 89.261854)scale(0.1 -0.1)">
       <defs>
        <path d="M 525 4666 
L 3525 4666 
L 3525 4397 
L 1831 0 
L 1172 0 
L 2766 4134 
L 525 4134 
L 525 4666 
z
" id="DejaVuSans-37" transform="scale(0.015625)"/>
       </defs>
       <use xlink:href="#DejaVuSans-37"/>
       <use x="63.623047" xlink:href="#DejaVuSans-30"/>
       <use x="127.246094" xlink:href="#DejaVuSans-30"/>
       <use x="190.869141" xlink:href="#DejaVuSans-30"/>
      </g>
     </g>
    </g>
    <g id="ytick_9">
     <g id="line2d_14">
      <g>
       <use style="stroke:#000000;stroke-width:0.8;" x="57.6" xlink:href="#m468bfd2347" y="55.177691"/>
      </g>
     </g>
     <g id="text_15">
      <!-- 8000 -->
      <g transform="translate(25.15 58.97691)scale(0.1 -0.1)">
       <use xlink:href="#DejaVuSans-38"/>
       <use x="63.623047" xlink:href="#DejaVuSans-30"/>
       <use x="127.246094" xlink:href="#DejaVuSans-30"/>
       <use x="190.869141" xlink:href="#DejaVuSans-30"/>
      </g>
     </g>
    </g>
    <g id="text_16">
     <!-- Number of frames -->
     <g transform="translate(19.070312 220.042844)rotate(-90)scale(0.1 -0.1)">
      <defs>
       <path d="M 628 4666 
L 1478 4666 
L 3547 763 
L 3547 4666 
L 4159 4666 
L 4159 0 
L 3309 0 
L 1241 3903 
L 1241 0 
L 628 0 
L 628 4666 
z
" id="DejaVuSans-4e" transform="scale(0.015625)"/>
       <path d="M 3116 1747 
Q 3116 2381 2855 2742 
Q 2594 3103 2138 3103 
Q 1681 3103 1420 2742 
Q 1159 2381 1159 1747 
Q 1159 1113 1420 752 
Q 1681 391 2138 391 
Q 2594 391 2855 752 
Q 3116 1113 3116 1747 
z
M 1159 2969 
Q 1341 3281 1617 3432 
Q 1894 3584 2278 3584 
Q 2916 3584 3314 3078 
Q 3713 2572 3713 1747 
Q 3713 922 3314 415 
Q 2916 -91 2278 -91 
Q 1894 -91 1617 61 
Q 1341 213 1159 525 
L 1159 0 
L 581 0 
L 581 4863 
L 1159 4863 
L 1159 2969 
z
" id="DejaVuSans-62" transform="scale(0.015625)"/>
       <path d="M 2631 2963 
Q 2534 3019 2420 3045 
Q 2306 3072 2169 3072 
Q 1681 3072 1420 2755 
Q 1159 2438 1159 1844 
L 1159 0 
L 581 0 
L 581 3500 
L 1159 3500 
L 1159 2956 
Q 1341 3275 1631 3429 
Q 1922 3584 2338 3584 
Q 2397 3584 2469 3576 
Q 2541 3569 2628 3553 
L 2631 2963 
z
" id="DejaVuSans-72" transform="scale(0.015625)"/>
       <path d="M 1959 3097 
Q 1497 3097 1228 2736 
Q 959 2375 959 1747 
Q 959 1119 1226 758 
Q 1494 397 1959 397 
Q 2419 397 2687 759 
Q 2956 1122 2956 1747 
Q 2956 2369 2687 2733 
Q 2419 3097 1959 3097 
z
M 1959 3584 
Q 2709 3584 3137 3096 
Q 3566 2609 3566 1747 
Q 3566 888 3137 398 
Q 2709 -91 1959 -91 
Q 1206 -91 779 398 
Q 353 888 353 1747 
Q 353 2609 779 3096 
Q 1206 3584 1959 3584 
z
" id="DejaVuSans-6f" transform="scale(0.015625)"/>
       <path d="M 2375 4863 
L 2375 4384 
L 1825 4384 
Q 1516 4384 1395 4259 
Q 1275 4134 1275 3809 
L 1275 3500 
L 2222 3500 
L 2222 3053 
L 1275 3053 
L 1275 0 
L 697 0 
L 697 3053 
L 147 3053 
L 147 3500 
L 697 3500 
L 697 3744 
Q 697 4328 969 4595 
Q 1241 4863 1831 4863 
L 2375 4863 
z
" id="DejaVuSans-66" transform="scale(0.015625)"/>
       <path d="M 2194 1759 
Q 1497 1759 1228 1600 
Q 959 1441 959 1056 
Q 959 750 1161 570 
Q 1363 391 1709 391 
Q 2188 391 2477 730 
Q 2766 1069 2766 1631 
L 2766 1759 
L 2194 1759 
z
M 3341 1997 
L 3341 0 
L 2766 0 
L 2766 531 
Q 2569 213 2275 61 
Q 1981 -91 1556 -91 
Q 1019 -91 701 211 
Q 384 513 384 1019 
Q 384 1609 779 1909 
Q 1175 2209 1959 2209 
L 2766 2209 
L 2766 2266 
Q 2766 2663 2505 2880 
Q 2244 3097 1772 3097 
Q 1472 3097 1187 3025 
Q 903 2953 641 2809 
L 641 3341 
Q 956 3463 1253 3523 
Q 1550 3584 1831 3584 
Q 2591 3584 2966 3190 
Q 3341 2797 3341 1997 
z
" id="DejaVuSans-61" transform="scale(0.015625)"/>
      </defs>
      <use xlink:href="#DejaVuSans-4e"/>
      <use x="74.804688" xlink:href="#DejaVuSans-75"/>
      <use x="138.183594" xlink:href="#DejaVuSans-6d"/>
      <use x="235.595703" xlink:href="#DejaVuSans-62"/>
      <use x="299.072266" xlink:href="#DejaVuSans-65"/>
      <use x="360.595703" xlink:href="#DejaVuSans-72"/>
      <use x="401.708984" xlink:href="#DejaVuSans-20"/>
      <use x="433.496094" xlink:href="#DejaVuSans-6f"/>
      <use x="494.677734" xlink:href="#DejaVuSans-66"/>
      <use x="529.882812" xlink:href="#DejaVuSans-20"/>
      <use x="561.669922" xlink:href="#DejaVuSans-66"/>
      <use x="596.875" xlink:href="#DejaVuSans-72"/>
      <use x="637.988281" xlink:href="#DejaVuSans-61"/>
      <use x="699.267578" xlink:href="#DejaVuSans-6d"/>
      <use x="796.679688" xlink:href="#DejaVuSans-65"/>
      <use x="858.203125" xlink:href="#DejaVuSans-73"/>
     </g>
    </g>
   </g>
   <g id="line2d_15">
    <path clip-path="url(#p49c7258bc3)" d="M 73.832727 294.943596 
L 77.791929 292.036241 
L 81.751131 288.704897 
L 85.710333 285.676403 
L 89.669534 282.456104 
L 93.628736 279.094475 
L 97.587938 275.833796 
L 101.54714 272.764922 
L 105.506341 269.423483 
L 109.465543 266.142614 
L 113.424745 262.457945 
L 117.383947 259.318406 
L 121.343149 256.178867 
L 125.30235 253.221037 
L 129.261552 250.010833 
L 133.220754 246.57854 
L 137.179956 243.247196 
L 141.139157 239.996612 
L 145.098359 237.069067 
L 149.057561 234.050668 
L 153.016763 230.830369 
L 156.975965 227.357695 
L 160.935166 224.167681 
L 164.894368 220.917097 
L 168.85357 217.797747 
L 172.812772 214.738968 
L 176.771973 211.508574 
L 180.731175 208.167135 
L 184.690377 204.654082 
L 188.649579 201.353023 
L 192.60878 198.132724 
L 196.567982 194.831665 
L 200.527184 191.146996 
L 204.486386 187.603658 
L 208.445588 183.949275 
L 212.404789 180.8804 
L 216.363991 177.538961 
L 220.323193 174.480182 
L 224.282395 170.906559 
L 228.241596 167.393505 
L 232.200798 164.132826 
L 236.16 160.599583 
L 240.119202 157.147099 
L 244.078404 154.179174 
L 248.037605 151.02954 
L 251.996807 147.768861 
L 255.956009 144.498087 
L 259.915211 141.055698 
L 263.874412 137.875779 
L 267.833614 134.71605 
L 271.792816 131.425086 
L 275.752018 127.831273 
L 279.71122 124.197079 
L 283.670421 120.653741 
L 287.629623 116.989263 
L 291.588825 112.920985 
L 295.548027 109.387742 
L 299.507228 105.834308 
L 303.46643 102.533249 
L 307.425632 99.020196 
L 311.384834 95.648472 
L 315.344035 92.074848 
L 319.303237 88.743505 
L 323.262439 85.190071 
L 327.221641 81.343883 
L 331.180843 76.912186 
L 335.140044 72.01612 
L 339.099246 66.988819 
L 343.058448 61.961519 
L 347.01765 56.984693 
L 350.976851 55.278641 
L 354.936053 55.177691 
L 358.895255 55.177691 
L 362.854457 55.177691 
L 366.813659 55.177691 
L 370.77286 55.177691 
L 374.732062 55.177691 
L 378.691264 55.177691 
L 382.650466 55.177691 
L 386.609667 55.177691 
L 390.568869 55.177691 
L 394.528071 55.177691 
L 398.487273 55.177691 
" style="fill:none;stroke:#ff0000;stroke-linecap:square;stroke-width:1.5;"/>
   </g>
   <g id="line2d_16">
    <path clip-path="url(#p49c7258bc3)" d="M 73.832727 294.48175 
L 77.791929 291.241261 
L 81.751131 288.212767 
L 85.710333 285.388696 
L 89.669534 282.261775 
L 93.628736 279.369563 
L 97.587938 276.076075 
L 101.54714 272.623592 
L 105.506341 269.163537 
L 109.465543 265.703482 
L 113.424745 262.372138 
L 117.383947 259.548067 
L 121.343149 256.557429 
L 125.30235 253.483507 
L 129.261552 250.311159 
L 133.220754 247.25238 
L 137.179956 244.307169 
L 141.139157 241.520954 
L 145.098359 238.500031 
L 149.057561 235.463965 
L 153.016763 232.397614 
L 156.975965 229.512973 
L 160.935166 226.393624 
L 164.894368 223.06228 
L 168.85357 219.791506 
L 172.812772 216.286024 
L 176.771973 212.735114 
L 180.731175 209.58548 
L 184.690377 206.163281 
L 188.649579 203.02879 
L 192.60878 199.985153 
L 196.567982 196.911231 
L 200.527184 193.610172 
L 204.486386 190.089547 
L 208.445588 186.652206 
L 212.404789 183.177009 
L 216.363991 179.656384 
L 220.323193 176.582462 
L 224.282395 173.32683 
L 228.241596 169.775921 
L 232.200798 166.308295 
L 236.16 162.878525 
L 240.119202 159.675892 
L 244.078404 156.458116 
L 248.037605 153.225199 
L 251.996807 150.007423 
L 255.956009 146.759363 
L 259.915211 143.73844 
L 263.874412 140.664518 
L 267.833614 137.704165 
L 271.792816 134.55453 
L 275.752018 131.389754 
L 279.71122 128.247691 
L 283.670421 125.491761 
L 287.629623 122.561692 
L 291.588825 119.472628 
L 295.548027 116.406277 
L 299.507228 113.264215 
L 303.46643 110.076724 
L 307.425632 107.305652 
L 311.384834 104.557293 
L 315.344035 101.793792 
L 319.303237 98.803154 
L 323.262439 95.244673 
L 327.221641 91.504482 
L 331.180843 87.840004 
L 335.140044 83.971102 
L 339.099246 80.079487 
L 343.058448 76.165158 
L 347.01765 72.114546 
L 350.976851 68.079077 
L 354.936053 65.164152 
L 358.895255 63.460623 
L 362.854457 61.749524 
L 366.813659 60.038425 
L 370.77286 58.327325 
L 374.732062 56.729795 
L 378.691264 55.669822 
L 382.650466 55.177691 
L 386.609667 55.177691 
L 390.568869 55.177691 
L 394.528071 55.177691 
L 398.487273 55.177691 
" style="fill:none;stroke:#0000ff;stroke-linecap:square;stroke-width:1.5;"/>
   </g>
   <g id="line2d_17">
    <path clip-path="url(#p49c7258bc3)" d="M 73.832727 295.41806 
L 77.791929 292.611655 
L 81.751131 289.855725 
L 85.710333 286.726281 
L 89.669534 283.748261 
L 93.628736 281.274991 
L 97.587938 278.761341 
L 101.54714 276.30826 
L 105.506341 273.51195 
L 109.465543 270.321936 
L 113.424745 267.263157 
L 117.383947 264.719221 
L 121.343149 261.882532 
L 125.30235 259.055937 
L 129.261552 256.572571 
L 133.220754 254.109396 
L 137.179956 251.58565 
L 141.139157 249.05181 
L 145.098359 246.528065 
L 149.057561 243.751945 
L 153.016763 241.268579 
L 156.975965 238.421795 
L 160.935166 235.63558 
L 164.894368 232.566705 
L 168.85357 229.558401 
L 172.812772 226.651046 
L 176.771973 223.874926 
L 180.731175 221.452131 
L 184.690377 218.655821 
L 188.649579 215.879701 
L 192.60878 213.305481 
L 196.567982 210.761545 
L 200.527184 208.348845 
L 204.486386 205.693865 
L 208.445588 202.92784 
L 212.404789 200.414189 
L 216.363991 197.910634 
L 220.323193 195.084039 
L 224.282395 192.338204 
L 228.241596 189.440945 
L 232.200798 186.43264 
L 236.16 183.606045 
L 240.119202 180.698691 
L 244.078404 178.14466 
L 248.037605 175.661295 
L 251.996807 173.0366 
L 255.956009 170.593614 
L 259.915211 167.999204 
L 263.874412 165.424984 
L 267.833614 162.608484 
L 271.792816 159.993884 
L 275.752018 157.389378 
L 279.71122 154.764683 
L 283.670421 151.837139 
L 287.629623 148.929784 
L 291.588825 146.244519 
L 295.548027 143.589539 
L 299.507228 140.964844 
L 303.46643 138.511763 
L 307.425632 135.967828 
L 311.384834 133.060473 
L 315.344035 130.546823 
L 319.303237 127.245764 
L 323.262439 123.985085 
L 327.221641 120.966685 
L 331.180843 117.191162 
L 335.140044 112.920985 
L 339.099246 108.539763 
L 343.058448 104.148446 
L 347.01765 99.757129 
L 350.976851 95.264863 
L 354.936053 90.600981 
L 358.895255 85.83615 
L 362.854457 80.929989 
L 366.813659 75.963258 
L 370.77286 70.956147 
L 374.732062 65.949036 
L 378.691264 61.103445 
L 382.650466 57.772101 
L 386.609667 55.248356 
L 390.568869 55.177691 
L 394.528071 55.177691 
L 398.487273 55.177691 
" style="fill:none;stroke:#008000;stroke-linecap:square;stroke-width:1.5;"/>
   </g>
   <g id="line2d_18">
    <path clip-path="url(#p49c7258bc3)" d="M 73.832727 294.812361 
L 77.791929 291.561777 
L 81.751131 288.523188 
L 85.710333 285.252414 
L 89.669534 282.254204 
L 93.628736 279.346849 
L 97.587938 276.419305 
L 101.54714 273.55233 
L 105.506341 270.372411 
L 109.465543 267.465056 
L 113.424745 264.537512 
L 117.383947 261.559492 
L 121.343149 258.379573 
L 125.30235 255.028039 
L 129.261552 251.393846 
L 133.220754 248.415826 
L 137.179956 245.437807 
L 141.139157 242.459787 
L 145.098359 239.491863 
L 149.057561 236.473463 
L 153.016763 233.434874 
L 156.975965 230.234765 
L 160.935166 227.004371 
L 164.894368 223.723502 
L 168.85357 220.826242 
L 172.812772 217.918887 
L 176.771973 215.031723 
L 180.731175 212.094083 
L 184.690377 209.156443 
L 188.649579 206.329849 
L 192.60878 203.372019 
L 196.567982 200.828084 
L 200.527184 198.132724 
L 204.486386 195.255654 
L 208.445588 192.095925 
L 212.404789 189.117905 
L 216.363991 186.170171 
L 220.323193 183.333481 
L 224.282395 180.628026 
L 228.241596 178.053805 
L 232.200798 175.459395 
L 236.16 172.89527 
L 240.119202 170.28067 
L 244.078404 167.696355 
L 248.037605 164.76881 
L 251.996807 162.184495 
L 255.956009 159.600179 
L 259.915211 156.874534 
L 263.874412 154.259934 
L 267.833614 151.635239 
L 271.792816 149.020639 
L 275.752018 146.335374 
L 279.71122 143.316974 
L 283.670421 140.419715 
L 287.629623 137.51236 
L 291.588825 134.67567 
L 295.548027 132.030785 
L 299.507228 129.416185 
L 303.46643 126.79149 
L 307.425632 124.186984 
L 311.384834 121.370485 
L 315.344035 118.70541 
L 319.303237 115.858625 
L 323.262439 112.8907 
L 327.221641 109.902586 
L 331.180843 107.187036 
L 335.140044 104.269586 
L 339.099246 101.130047 
L 343.058448 98.020792 
L 347.01765 95.466762 
L 350.976851 92.912732 
L 354.936053 90.328417 
L 358.895255 87.572487 
L 362.854457 84.776177 
L 366.813659 81.535688 
L 370.77286 78.073109 
L 374.732062 74.79224 
L 378.691264 71.642606 
L 382.650466 68.906866 
L 386.609667 66.312456 
L 390.568869 63.617096 
L 394.528071 60.992401 
L 398.487273 58.902739 
" style="fill:none;stroke:#ffa500;stroke-linecap:square;stroke-width:1.5;"/>
   </g>
   <g id="line2d_19">
    <path clip-path="url(#p49c7258bc3)" d="M 73.832727 294.146092 
L 77.791929 290.360474 
L 81.751131 287.0897 
L 85.710333 284.192441 
L 89.669534 281.355751 
L 93.628736 278.519061 
L 97.587938 275.561231 
L 101.54714 272.663972 
L 105.506341 269.786902 
L 109.465543 266.899737 
L 113.424745 263.972193 
L 117.383947 261.044648 
L 121.343149 258.137293 
L 125.30235 255.240034 
L 129.261552 252.362964 
L 133.220754 249.506084 
L 137.179956 246.245405 
L 141.139157 242.974631 
L 145.098359 239.653382 
L 149.057561 236.362418 
L 153.016763 233.172404 
L 156.975965 229.699731 
L 160.935166 226.600571 
L 164.894368 223.673027 
L 168.85357 220.745482 
L 172.812772 217.383853 
L 176.771973 214.012129 
L 180.731175 210.317366 
L 184.690377 206.743743 
L 188.649579 202.82689 
L 192.60878 198.698043 
L 196.567982 194.68024 
L 200.527184 191.005667 
L 204.486386 187.341188 
L 208.445588 183.686805 
L 212.404789 180.052612 
L 216.363991 177.074592 
L 220.323193 173.803818 
L 224.282395 170.633994 
L 228.241596 167.736734 
L 232.200798 164.324631 
L 236.16 160.629867 
L 240.119202 157.288429 
L 244.078404 154.017655 
L 248.037605 150.716596 
L 251.996807 147.435727 
L 255.956009 144.144763 
L 259.915211 140.702374 
L 263.874412 137.24989 
L 267.833614 133.585412 
L 271.792816 129.920934 
L 275.752018 126.125221 
L 279.71122 122.491028 
L 283.670421 119.169779 
L 287.629623 115.88891 
L 291.588825 112.83013 
L 295.548027 109.882396 
L 299.507228 106.712572 
L 303.46643 103.441798 
L 307.425632 100.584918 
L 311.384834 97.707848 
L 315.344035 94.548119 
L 319.303237 91.196585 
L 323.262439 87.834956 
L 327.221641 84.957886 
L 331.180843 82.080817 
L 335.140044 78.931183 
L 339.099246 75.872403 
L 343.058448 72.934764 
L 347.01765 69.976934 
L 350.976851 67.069579 
L 354.936053 64.717449 
L 358.895255 62.617693 
L 362.854457 60.649171 
L 366.813659 58.690745 
L 370.77286 56.792888 
L 374.732062 55.440161 
L 378.691264 55.177691 
L 382.650466 55.177691 
L 386.609667 55.177691 
L 390.568869 55.177691 
L 394.528071 55.177691 
L 398.487273 55.177691 
" style="fill:none;stroke:#808000;stroke-linecap:square;stroke-width:1.5;"/>
   </g>
   <g id="patch_3">
    <path d="M 57.6 307.584 
L 57.6 41.472 
" style="fill:none;stroke:#000000;stroke-linecap:square;stroke-linejoin:miter;stroke-width:0.8;"/>
   </g>
   <g id="patch_4">
    <path d="M 414.72 307.584 
L 414.72 41.472 
" style="fill:none;stroke:#000000;stroke-linecap:square;stroke-linejoin:miter;stroke-width:0.8;"/>
   </g>
   <g id="patch_5">
    <path d="M 57.6 307.584 
L 414.72 307.584 
" style="fill:none;stroke:#000000;stroke-linecap:square;stroke-linejoin:miter;stroke-width:0.8;"/>
   </g>
   <g id="patch_6">
    <path d="M 57.6 41.472 
L 414.72 41.472 
" style="fill:none;stroke:#000000;stroke-linecap:square;stroke-linejoin:miter;stroke-width:0.8;"/>
   </g>
   <g id="legend_1">
    <g id="patch_7">
     <path d="M 64.6 122.862625 
L 144.251563 122.862625 
Q 146.251563 122.862625 146.251563 120.862625 
L 146.251563 48.472 
Q 146.251563 46.472 144.251563 46.472 
L 64.6 46.472 
Q 62.6 46.472 62.6 48.472 
L 62.6 120.862625 
Q 62.6 122.862625 64.6 122.862625 
z
" style="fill:#ffffff;opacity:0.8;stroke:#cccccc;stroke-linejoin:miter;"/>
    </g>
    <g id="line2d_20">
     <path d="M 66.6 54.570438 
L 86.6 54.570438 
" style="fill:none;stroke:#ff0000;stroke-linecap:square;stroke-width:1.5;"/>
    </g>
    <g id="line2d_21"/>
    <g id="text_17">
     <!-- med-low -->
     <g transform="translate(94.6 58.070438)scale(0.1 -0.1)">
      <defs>
       <path d="M 2906 2969 
L 2906 4863 
L 3481 4863 
L 3481 0 
L 2906 0 
L 2906 525 
Q 2725 213 2448 61 
Q 2172 -91 1784 -91 
Q 1150 -91 751 415 
Q 353 922 353 1747 
Q 353 2572 751 3078 
Q 1150 3584 1784 3584 
Q 2172 3584 2448 3432 
Q 2725 3281 2906 2969 
z
M 947 1747 
Q 947 1113 1208 752 
Q 1469 391 1925 391 
Q 2381 391 2643 752 
Q 2906 1113 2906 1747 
Q 2906 2381 2643 2742 
Q 2381 3103 1925 3103 
Q 1469 3103 1208 2742 
Q 947 2381 947 1747 
z
" id="DejaVuSans-64" transform="scale(0.015625)"/>
       <path d="M 313 2009 
L 1997 2009 
L 1997 1497 
L 313 1497 
L 313 2009 
z
" id="DejaVuSans-2d" transform="scale(0.015625)"/>
       <path d="M 603 4863 
L 1178 4863 
L 1178 0 
L 603 0 
L 603 4863 
z
" id="DejaVuSans-6c" transform="scale(0.015625)"/>
       <path d="M 269 3500 
L 844 3500 
L 1563 769 
L 2278 3500 
L 2956 3500 
L 3675 769 
L 4391 3500 
L 4966 3500 
L 4050 0 
L 3372 0 
L 2619 2869 
L 1863 0 
L 1184 0 
L 269 3500 
z
" id="DejaVuSans-77" transform="scale(0.015625)"/>
      </defs>
      <use xlink:href="#DejaVuSans-6d"/>
      <use x="97.412109" xlink:href="#DejaVuSans-65"/>
      <use x="158.935547" xlink:href="#DejaVuSans-64"/>
      <use x="222.412109" xlink:href="#DejaVuSans-2d"/>
      <use x="258.496094" xlink:href="#DejaVuSans-6c"/>
      <use x="286.279297" xlink:href="#DejaVuSans-6f"/>
      <use x="347.460938" xlink:href="#DejaVuSans-77"/>
     </g>
    </g>
    <g id="line2d_22">
     <path d="M 66.6 69.248563 
L 86.6 69.248563 
" style="fill:none;stroke:#0000ff;stroke-linecap:square;stroke-width:1.5;"/>
    </g>
    <g id="line2d_23"/>
    <g id="text_18">
     <!-- optimal -->
     <g transform="translate(94.6 72.748563)scale(0.1 -0.1)">
      <defs>
       <path d="M 1159 525 
L 1159 -1331 
L 581 -1331 
L 581 3500 
L 1159 3500 
L 1159 2969 
Q 1341 3281 1617 3432 
Q 1894 3584 2278 3584 
Q 2916 3584 3314 3078 
Q 3713 2572 3713 1747 
Q 3713 922 3314 415 
Q 2916 -91 2278 -91 
Q 1894 -91 1617 61 
Q 1341 213 1159 525 
z
M 3116 1747 
Q 3116 2381 2855 2742 
Q 2594 3103 2138 3103 
Q 1681 3103 1420 2742 
Q 1159 2381 1159 1747 
Q 1159 1113 1420 752 
Q 1681 391 2138 391 
Q 2594 391 2855 752 
Q 3116 1113 3116 1747 
z
" id="DejaVuSans-70" transform="scale(0.015625)"/>
      </defs>
      <use xlink:href="#DejaVuSans-6f"/>
      <use x="61.181641" xlink:href="#DejaVuSans-70"/>
      <use x="124.658203" xlink:href="#DejaVuSans-74"/>
      <use x="163.867188" xlink:href="#DejaVuSans-69"/>
      <use x="191.650391" xlink:href="#DejaVuSans-6d"/>
      <use x="289.0625" xlink:href="#DejaVuSans-61"/>
      <use x="350.341797" xlink:href="#DejaVuSans-6c"/>
     </g>
    </g>
    <g id="line2d_24">
     <path d="M 66.6 83.926688 
L 86.6 83.926688 
" style="fill:none;stroke:#008000;stroke-linecap:square;stroke-width:1.5;"/>
    </g>
    <g id="line2d_25"/>
    <g id="text_19">
     <!-- med-high -->
     <g transform="translate(94.6 87.426688)scale(0.1 -0.1)">
      <defs>
       <path d="M 3513 2113 
L 3513 0 
L 2938 0 
L 2938 2094 
Q 2938 2591 2744 2837 
Q 2550 3084 2163 3084 
Q 1697 3084 1428 2787 
Q 1159 2491 1159 1978 
L 1159 0 
L 581 0 
L 581 4863 
L 1159 4863 
L 1159 2956 
Q 1366 3272 1645 3428 
Q 1925 3584 2291 3584 
Q 2894 3584 3203 3211 
Q 3513 2838 3513 2113 
z
" id="DejaVuSans-68" transform="scale(0.015625)"/>
       <path d="M 2906 1791 
Q 2906 2416 2648 2759 
Q 2391 3103 1925 3103 
Q 1463 3103 1205 2759 
Q 947 2416 947 1791 
Q 947 1169 1205 825 
Q 1463 481 1925 481 
Q 2391 481 2648 825 
Q 2906 1169 2906 1791 
z
M 3481 434 
Q 3481 -459 3084 -895 
Q 2688 -1331 1869 -1331 
Q 1566 -1331 1297 -1286 
Q 1028 -1241 775 -1147 
L 775 -588 
Q 1028 -725 1275 -790 
Q 1522 -856 1778 -856 
Q 2344 -856 2625 -561 
Q 2906 -266 2906 331 
L 2906 616 
Q 2728 306 2450 153 
Q 2172 0 1784 0 
Q 1141 0 747 490 
Q 353 981 353 1791 
Q 353 2603 747 3093 
Q 1141 3584 1784 3584 
Q 2172 3584 2450 3431 
Q 2728 3278 2906 2969 
L 2906 3500 
L 3481 3500 
L 3481 434 
z
" id="DejaVuSans-67" transform="scale(0.015625)"/>
      </defs>
      <use xlink:href="#DejaVuSans-6d"/>
      <use x="97.412109" xlink:href="#DejaVuSans-65"/>
      <use x="158.935547" xlink:href="#DejaVuSans-64"/>
      <use x="222.412109" xlink:href="#DejaVuSans-2d"/>
      <use x="258.496094" xlink:href="#DejaVuSans-68"/>
      <use x="321.875" xlink:href="#DejaVuSans-69"/>
      <use x="349.658203" xlink:href="#DejaVuSans-67"/>
      <use x="413.134766" xlink:href="#DejaVuSans-68"/>
     </g>
    </g>
    <g id="line2d_26">
     <path d="M 66.6 98.604813 
L 86.6 98.604813 
" style="fill:none;stroke:#ffa500;stroke-linecap:square;stroke-width:1.5;"/>
    </g>
    <g id="line2d_27"/>
    <g id="text_20">
     <!-- high -->
     <g transform="translate(94.6 102.104813)scale(0.1 -0.1)">
      <use xlink:href="#DejaVuSans-68"/>
      <use x="63.378906" xlink:href="#DejaVuSans-69"/>
      <use x="91.162109" xlink:href="#DejaVuSans-67"/>
      <use x="154.638672" xlink:href="#DejaVuSans-68"/>
     </g>
    </g>
    <g id="line2d_28">
     <path d="M 66.6 113.282938 
L 86.6 113.282938 
" style="fill:none;stroke:#808000;stroke-linecap:square;stroke-width:1.5;"/>
    </g>
    <g id="line2d_29"/>
    <g id="text_21">
     <!-- low -->
     <g transform="translate(94.6 116.782938)scale(0.1 -0.1)">
      <use xlink:href="#DejaVuSans-6c"/>
      <use x="27.783203" xlink:href="#DejaVuSans-6f"/>
      <use x="88.964844" xlink:href="#DejaVuSans-77"/>
     </g>
    </g>
   </g>
  </g>
 </g>
 <defs>
  <clipPath id="p49c7258bc3">
   <rect height="266.112" width="357.12" x="57.6" y="41.472"/>
  </clipPath>
 </defs>
</svg>
